<?xml version="1.0" encoding="utf-8"?>
<!-- Generator: Adobe Illustrator 23.0.2, SVG Export Plug-In . SVG Version: 6.00 Build 0)  -->
<svg version="1.1" id="Capa_1" xmlns="http://www.w3.org/2000/svg" xmlns:xlink="http://www.w3.org/1999/xlink" x="0px" y="0px" viewBox="0 0 800 644" style="enable-background:new 0 0 800 644;" xml:space="preserve">

<g>
	<path d="M796.6,545.3c-6.3-11.1-19.7-15.7-31.1-19.5c-30.1-10-62.4-11.9-93.9-13.4c-34.7-1.6-69.4-2.8-104-3.9
		c-70.2-2.2-140.5-3.7-210.7-4.5c-8.4-0.1-16.9-0.1-25.3-0.3c-57.3-7.1-114.6-13.8-172.4-11.1c-30.9,1.3-62.5,5-92.2,13.6
		c-24.5,7.1-50,19.9-60.8,44.3C-3,571.1-0.6,596.9,18.6,611c11.9,8.6,27.3,12.2,41.4,15.2c16,3.4,32.2,5.5,48.5,7.2
		c136.1,13.9,274.1,13.9,410.4,1.7c67.7-6,135.1-15.2,201.9-27.5c24.6-4.5,59.7-6.4,74-30.7C800.3,567.7,802.3,555.3,796.6,545.3z" style="fill:#B6C8E8;"/>
	<path d="M253.4,467.5c-4.1-10.9-11.9-18.7-18.9-27.8c-8-10.4-13.9-22.1-18.7-34.2c-9.2-22.8-15.3-46.8-26.9-68.7
		c-0.8-1.6-2.1-2.1-3.4-2c0-0.4-0.1-0.7-0.1-1c3.3-1,6.2-2.8,8.3-5c8-8.6,12.8-30.5,0.9-37.9c-5.4-3.3-12.8-1.6-18.7,2.4
		c-3.4,1.8-6.3,4.8-8.3,8.5c-3.1,5.8-6.4,15.2-5.1,22c0.8,3.9,3,6.8,5.9,8.6c0,0.3-0.1,0.5-0.1,0.8c-0.3,0-0.7,0.1-0.9,0.3
		c-29.9,11.8-35.6,46.2-29.3,74.9c-0.3,0.3-0.7,0.7-0.8,1.2c-8.3,19.3-16.9,41-8.3,61.7c1.7,4.1,4.1,7.6,6.8,10.6
		c-5-1.8-10-3.7-15.2-4.5c-3.1-0.4-6.4-0.5-9.7-0.8c-3.7-0.3-8.3-1.3-11.9-0.4c-5.8,1.4-6,9.3-7.2,14c-1.6,0-3,0.4-4.5,1.7
		c-6,5.5-6.4,18.3-6.2,25.9c0.1,3.1,4.3,5.5,6.7,2.8c7.2-8.5,18.5,0.1,25.7,4.1c7.3,4.1,15.2,7.7,23.3,10.2c16,4.7,34.1,3.7,50-0.8
		c12.3-3.4,24.6-10.5,29.2-23.1c0.3-0.5,0.4-1.2,0.5-1.7c1.7,0.1,3.4-0.7,4.1-2.8c0.8-2.8,3.7-5.1,4.7-7.9c1-2.9,1.4-6,1-9
		c-0.7-6.8-4.3-12.8-8.4-18.2c-8.6-11.3-20-19.5-33-24.9c2.4-15.5,3.8-31.1,4.3-46.6c6.3,13.2,13.6,25.8,22.3,37.7
		c5.8,8,11.9,15.6,18.5,22.8c5.2,5.6,12.3,14.9,21.1,11.4C252.5,471.6,254.2,469.6,253.4,467.5z M212.4,478.4
		c-0.1-0.5-0.4-0.9-0.5-1.4c3.4,4.3,6.6,9.4,6.6,14.8c0,2-0.5,3.7-1.3,5.1c-0.8-5.2-2.9-10.2-6-14.5
		C212.1,481.4,212.9,479.9,212.4,478.4z M206,470.2c-2.6-1.7-5.6-3-8.6-4.5c-5.1-2.5-9.3-6.3-12.8-10.6
		C192.5,458.8,199.8,464,206,470.2z" style="fill:#C39A8A;"/>
	<path d="M115.5,476.3c-1-0.3-2-0.4-3-0.7c-0.5-1-1.7-1.8-3.3-1.8c-4.5,0.1-10.6-0.9-14.8,1.2c-3.1,1.6-5.5,5.5-7.2,8.5
		c-1,2-1.7,5-3,6.7c-1.2,1.6-2.9,1.8-4.3,3.1c-2.6,2.2-3.7,5.8-4.1,9c-0.7,5.2-0.1,10.6,0,15.9c0,3.3-0.7,7.9,2.4,10.2
		c2.6,2.1,5.9,1.3,8.4-0.4c2-1.4,2.8-3.5,4.6-5.1c3.3-2.9,6.8-1.8,10.6-0.9c2.1,0.5,4.2-0.7,4.7-2.8c3.9-12.7,7.9-25.4,11.8-38.1
		C118.9,479.2,117.6,476.8,115.5,476.3z" style="fill:#F087B1;"/>
	<path d="M149.7,570.6c-2.2-12.1-17.2-0.5-24.1,5.8c-6.8-7.5-15.3-12.8-25-16.2c-3.1-1-5.1,2.1-4.7,4.7
		c2.4,15.6,15.5,24.8,29.1,30.1c1.4,0.5,2.6,0.3,3.4-0.5c4.5-0.5,8.1-3,11.7-6.4C144.1,584,150.8,577,149.7,570.6z" style="fill:#74A3D7;"/>
	<path d="M293.8,573.5c-2.1-6.7-11.3-3.5-15.6-1.6c-6.8,2.9-12.3,7.9-17.4,13.1c-7.3-7.6-16.1-13.1-26.1-16.6
		c-1.8-0.7-4.5,0.8-4.7,2.8c-2.8,17.9,16.6,25.9,29.3,33.5c1.7,1,3.4,0.5,4.6-0.7c7.5-0.9,13.8-4.6,18.9-10.1
		C286.7,589.6,295.7,579.9,293.8,573.5z" style="fill:#74A3D7;"/>
	<path d="M747.6,559.1c-2.6-20.2-5.4-40.4-8-60.5c-0.4-2.5-1.7-4.1-4.3-4.3c-13.9-1.3-27.8-1.8-41.8-1.6
		c-4.2,0.1-5.2,5.1-3,7.3c0,0.1,0,0.3,0,0.4c-0.3,19.4-0.1,38.8,0.7,58.2c0.3,6.3-0.8,14.9,5.2,19.1c5.8,3.9,15.3,2.6,21.7,2.1
		c8.1-0.7,18.1-1.2,25.4-4.6C750.4,572.2,748.4,565.2,747.6,559.1z" style="fill:#C39A8A;"/>
	<path d="M648.4,416.3c-2.8-22.3-5.4-44.5-8.3-66.8c-0.8-5.8-2-12.6-7.6-15.7c-3.1-1.7-6.7-1.8-9.7-0.4
		c-38.3-5.9-76.9-8.5-115.7-7.5c-20.4,0.5-41,2-61.3,4.5c-18.1,2.2-41.3,10.1-58.4,1.4c-2.8-1.4-5.2,0.1-6.3,2.4
		c-0.4,0.7-0.5,1.3-0.7,2.2c-0.5,49.5,1.3,99.1,5.5,148.3c1,11.8,2.2,23.7,3.4,35.5c0.7,5.9,1.3,11.8,2.1,17.7
		c0.7,5.2,0.7,11.4,2.8,16.2c3.5,7.9,11.1,7.6,18.7,8c12.7,0.7,25.5,1.2,38.3,1.7c49,2,98.3,2.6,147.1-2.5c3.9-0.4,8-0.8,12.1-1.2
		c0.7,0.7,1.6,1.2,2.9,1.3c16.5,1.7,32.9-0.1,48.5-5.6c1.7-0.7,3.5-2.4,3.3-4.3C659.7,506.4,654.1,461.3,648.4,416.3z" style="fill:#F7D3BD;"/>
	<path d="M556.2,393.7c-0.1-2.1-1.2-3.7-3.1-4.3c-16-6-36.2-4.7-53.2-4.1c-5,0.3-10.7-4.8-14.4-0.4
		c-3.9,4.8-3.4,16.4-3.9,22.5c-0.8,9.6-0.9,19.3-0.4,28.8c0.4,7.5,0.1,17.6,3,24.5c2.8,6.6,10.1,6,15.7,6.7c9.4,0.9,18.9,2,28.3,2.9
		c2.1,0.3,3.4-1,3.9-2.8c3.3,0.1,6.6,0.1,9.8,0.3c3.3,0.1,7.2,0.8,10.5-0.4c5.6-2.2,5.5-8.4,5.8-13.9
		C558.6,433.7,557.9,413.6,556.2,393.7z" style="fill:#B6C8E8;"/>
	<path d="M621.8,47.6c-0.1-2.4-2-4.6-4.6-4.6c-27.1,1-54.2,2.1-81.5,3c0.4-0.7,0.7-1.6,0.5-2.6
		c-0.8-7.3-1.4-14.8-2.2-22.1c-0.3-2.5-1.8-4.5-4.6-4.6c-8.9-0.1-17.9-0.3-26.9-0.4c-4.5-0.1-8.9-0.1-13.5-0.3
		c-3.1,0-6.9-0.8-10,0.1c-4.5,1.3-5.1,5.1-5,9.2c0.1,7.6,0.9,15.3,1.4,22.9c-17.4,0.7-34.7,1.3-52.1,2c-19.3,0.8-38.5,2.1-56.6,9.3
		c-1.7,0.7-3.5,2.2-3.3,4.3c1.4,13.6,2.6,27.4,3.8,41c2.9,63.3,4.7,126.6,5.5,190c-0.9,12.3-1.7,24.8-2.6,37.1
		c-0.4,6.4-1.8,13.5-1.3,19.9c0.1,1,0.3,1.8,0.5,2.6c0,2.2,1.4,4.6,4.3,4.6c87.7-1.2,175.2,0,262.7,3.5c2.2,0.1,4.7-2.1,4.6-4.6
		C631.9,254.7,625.5,151.2,621.8,47.6z" style="fill:#F087B1;"/>
	<path d="M480.9,106.4c-0.1-2.4-2-4.6-4.6-4.6c-27.6,1.2-55.3,1-82.9-0.1c-2-0.1-3.9,1.4-4.3,3.3
		c-0.3,1.2-0.5,2.4-0.7,3.7c-1,0.7-1.8,1.8-1.7,3.5c3.9,72.2,7.9,144.4,11.8,216.6c0.1,2.6,2,4.3,4.6,4.6
		c26.6,1.7,53.2,2.1,79.8,1.3c2.5-0.1,4.5-2,4.6-4.6C489.1,255.5,486.9,180.8,480.9,106.4z" style="fill:#FFFFFF;"/>
	<path d="M611.4,106.4c-0.1-2.4-2-4.6-4.6-4.6c-27.6,1.2-55.3,1-82.9-0.1c-2-0.1-3.9,1.4-4.3,3.3
		c-0.3,1.2-0.5,2.4-0.7,3.7c-1,0.7-1.8,1.8-1.7,3.5c3.9,72.2,7.9,144.4,11.8,216.6c0.1,2.6,2,4.3,4.6,4.6
		c26.6,1.7,53.2,2.1,79.8,1.3c2.5-0.1,4.5-2,4.6-4.6C619.5,255.5,617.4,180.8,611.4,106.4z" style="fill:#FFFFFF;"/>
	<path d="M197.7,290.7c-10.1-7.1-23.6-3.3-31.1,5.6c-3.4,3.9-6.8,10-7.2,15.3c-0.3,2.6,0.8,4.8,2.5,6
		c0.7,0.7,1.4,1,2.5,1c6.9,0.3,13.5-1.7,18.7-5.8c4.2,8,12.3,17.6,19.1,8.3C209,312.1,206.8,297,197.7,290.7z" style="fill:#B6C8E8;"/>
	<path d="M228.7,483.5c-4.6-19.7-25.5-29.7-41.4-39.4c-2.1-1.2-5.2-0.1-5.8,2.4c-2.2,11,8.5,17.7,17.3,21.4
		c4.6,2,17.4,3.4,15.7,10c-1.6,5.8-13.4,4.3-18.3,3.7c-5.8-0.8-11.5-2.6-16.5-5.9c-4.6-3-7.2-8.1-11.8-11c-4.7-2.9-11.3-1.8-16.5-3
		c-7.2-1.7-13.8-5-19.7-9.3c-0.9-0.7-1.7-0.8-2.5-0.7c-2.1-1.2-5-0.8-5.5,2.1c-1.2,6.9-0.4,13.5,2.2,19.5c-4.5-1.2-9-2.4-13.6-3.1
		c-2.1-0.4-4.2,0.5-4.7,2.8c-2.9,11-5.6,22.1-8.5,33.1c-2.1,8-2.1,13.6,5.9,17.8c9.2,4.7,19.5,8.4,29.3,11.7
		c8.8,3,17.8,4.6,27.1,4.1c17-0.8,33.4-7.5,46.8-17.8c5.9-4.6,14-10.4,17.9-17C230,498.3,230.4,490.4,228.7,483.5z" style="fill:#56597A;"/>
	<path d="M544.4,6.3c0-2.6-2.1-4.3-4.6-4.6c-22.8-1.8-45.7-2.2-68.5-1c-2,0.1-3.9,1.3-4.3,3.3c-0.4,1.7-0.5,3.3-0.1,4.7
		c-0.1,0.7-0.1,1.3,0,2.1c1.6,6.9,1.6,15.5,9.8,17c5.1,1,11.1,0.4,16.4,0.5c6.3,0.1,12.4,0.4,18.7,0.5l17.3,0.5
		c3.8,0.1,8.5,1,12.1-0.9C547.4,24.9,544.5,12.3,544.4,6.3z" style="fill:#F7D16F;"/>
	<path d="M265.5,502.9c-3,0.5-5.9,2.8-8.4,5.2c-3.4-2-6.7-4.2-9.8-6.4c1.2-1.7,2.5-3.4,3.7-5.2c1.2-1.7,0.8-4.2-1-5.4
		c-4.6-3-15.7-11.5-23.2-11c-10-9.2-27.8-1-23.8,14.3c0.1,0.5,0.4,1,0.7,1.4c-4.2,2.4-10,5.2-11.8,9c-2.1,4.2,0.8,8.5,2.9,12.1
		c3,5.1,6.6,9.8,10.6,14.2c2.6,2.6,5.9,6.8,10,6.7c4.7-0.1,8.1-6,11-9.2c5.8-6.6,11.3-13.5,16.5-20.6c2.9,2,5.8,3.9,8.6,5.6
		c-2,4.3-3.7,10.4,2.2,11.4c5.6,1,11-6.6,14.1-10.4c1.8-2.1,4.2-4.6,3.8-7.6C271.2,504.3,268.4,502.5,265.5,502.9z M220.5,484.8
		c-3.4,2.2-6.8,4.5-10.2,6.8C209.8,485.6,216.1,481.6,220.5,484.8z" style="fill:#F087B1;"/>
	<path d="M209.5,372c-5.2-10.5-10.6-21-16-31.6c-1-2-3.5-2.2-5.4-1.4c-7.7,3.7-16.6,1.8-22.7-4.2
		c-0.9-0.9-2.1-1.2-3.1-1c-0.8-0.1-1.7,0-2.6,0.7c-9,6.6-16.4,15.1-21.2,25c-0.3,0.4-0.7,0.8-0.8,1.3c-0.3,0.7-0.5,1.3-0.7,2
		c-0.9,2.1-1.6,4.1-2.2,6.3c-0.9,2.6-2,5.4-2.9,8c-4.7,11.3-7.9,23.5-11,34.7c-2.8,9.7-5,19.7-6.9,29.6c-1.3,6.9-3.1,15.1,4.3,19
		c4.6,2.4,10.5,2.2,16.1,2c1.3,0.3,2.4,0.4,3.4,0.7c10,2.4,19.8,4.7,29.7,6.8c3.9,0.9,6.2-3.5,3.8-6.6c-11.5-14.3-21.1-30-28.6-46.8
		c-2.4-6.3-4.7-13-5.1-19.4c1.6,0.4,3.1,0.5,4.8,0.7c4.6,0.5,9,0.9,13.6,1.4c0-0.1,0.1-0.4,0.4-0.5c3.5-1.6,6.3-1.4,8.3,2.1
		c3.1,5.5,4.7,12.1,6.6,17.9c2,6.4,3.3,12.8,5.1,19.4c0.9,3.5,2.4,6.6,3.8,9.8c0.1,0.4,0.3,0.8,0.4,1.2c0.7,0,1.3,0,2,0
		c1.6,0,3.4-1.2,3.8-2.9c2.2-11,4.3-22.1,6.8-33.1c1.2-5.1,2.4-10.6,6-14.7c2.8-3,6.3-5,9-8C213.9,384.6,212.9,378.8,209.5,372z" style="fill:#F7D16F;"/>
	<path d="M797.4,501.8c-14.4-21.7-29.3-43-44.8-63.9c8.3,0,16.5-0.4,24.6-1.3c2.9-0.3,5.8-3.5,3.7-6.4
		c-16.9-23.3-32.1-47.7-45.7-73l21.6-4.7c2.9-0.7,3.7-3.9,2.5-6.3c-15.6-34.1-29-69.2-40-104.9c-0.9-2.9-4.8-4.3-7.1-1.8
		c-28,31.2-50.7,66.7-67.2,105.3c-1.3,3,0.3,6.2,3.7,6.4c9.6,0.8,19,2.1,28.4,4.1l-27.4,78c-0.9,2.5,1.4,5.6,4.1,5.4
		c6.6-0.7,13-1.3,19.5-2c-9,18.1-18.2,36.2-27.1,54.4c-2.9,5.9-6.4,13.6,0,18.5c5.6,4.3,16.2,3.1,22.8,3.5
		c42.1,2.8,84.1,1,125.8-4.8C797.5,507.7,798.8,503.9,797.4,501.8z" style="fill:#74A3D7;"/>
	<path d="M352.9,512.8c-2.2-12.1-17.2-0.5-24.1,5.8c-6.8-7.5-15.3-12.8-25-16.2c-3.1-1-5.1,2.1-4.7,4.7
		c2.4,15.6,15.5,24.8,29.1,30.1c1.4,0.5,2.6,0.3,3.4-0.5c4.5-0.5,8.1-3,11.7-6.4C347.4,526.2,354,519.2,352.9,512.8z" style="fill:#74A3D7;"/>
	<path d="M351,581.7c-2.6-3.4-4.7-7.1-6.6-11c-0.9-2-3.7-2.4-5.4-1.4c-2,1.2-2.4,3.4-1.4,5.4c1.8,3.9,3.9,7.6,6.6,11
		c1.3,1.7,3.4,2.6,5.4,1.4C351.3,586.1,352.3,583.4,351,581.7z" style="fill:#74A3D7;"/>
	<path d="M365,586.8c-0.9,4.5-2,8.9-2.9,13.2c-1,5,6.6,7.1,7.6,2.1c0.9-4.5,2-8.9,2.9-13.2
		C373.7,584,366.1,581.9,365,586.8z" style="fill:#74A3D7;"/>
	<path d="M358.6,557.1c-2.1,0-3.9,1.8-3.9,3.9v6.7c0,2.1,1.8,3.9,3.9,3.9s3.9-1.8,3.9-3.9V561
		C362.6,558.9,360.7,557.1,358.6,557.1z" style="fill:#74A3D7;"/>
	<path d="M48.6,552.4c-1.4-2.2-2.8-4.5-4.2-6.7c-1.2-1.8-3.5-2.5-5.4-1.4c-1.8,1-2.5,3.5-1.4,5.4
		c1.4,2.2,2.8,4.5,4.2,6.7c1.2,1.8,3.5,2.5,5.4,1.4C49,556.7,49.8,554.2,48.6,552.4z" style="fill:#74A3D7;"/>
	<path d="M62.9,568.9c-2-0.5-4.3,0.7-4.8,2.8c-0.5,2.5-1.2,5-1.7,7.5c-0.5,2.1,0.7,4.2,2.8,4.8c2,0.5,4.3-0.7,4.8-2.8
		c0.5-2.5,1.2-5,1.7-7.5C66.1,571.8,65,569.6,62.9,568.9z" style="fill:#74A3D7;"/>
	<path d="M185.8,582.4c0,0,0.1,0,0.1,0.1c0,0,0,0,0.1,0c0.1,0.1,0.1,0.1-0.1-0.1C185.9,582.4,185.9,582.4,185.8,582.4
		c0-0.1-0.1-0.3-0.1-0.3l0,0c0,0,0-0.1-0.1-0.1c0-0.1-0.1-0.1-0.1-0.3v-0.1c0-0.1,0-0.4,0-0.4c0-2.1-1.8-4.1-3.9-3.9
		c-2.2,0.1-3.9,1.7-3.9,3.9c-0.1,4.1,2.5,7.3,6.2,8.9c2,0.8,4.5-0.8,4.8-2.8C189.1,585,187.9,583.3,185.8,582.4z" style="fill:#74A3D7;"/>
	<path d="M441.2,602.7c-1.6-2.9-3.1-5.6-4.7-8.5c-2.5-4.5-9.2-0.5-6.8,3.9c1.6,2.9,3.1,5.6,4.7,8.5
		C436.7,611.1,443.5,607.2,441.2,602.7z" style="fill:#74A3D7;"/>
	<path d="M450.1,588.4l-1.7-5c-0.7-2-2.8-3.4-4.8-2.8c-2,0.7-3.4,2.8-2.8,4.8l1.7,5c0.7,2,2.8,3.4,4.8,2.8
		C449.3,592.6,450.9,590.5,450.1,588.4z" style="fill:#74A3D7;"/>
	<path d="M462.4,593.1c-2.4,0-3.7,1.8-3.9,3.9c-0.3,2.8-0.7,5.5-0.9,8.4c-0.3,2.1,2,3.9,3.9,3.9c2.4,0,3.7-1.8,3.9-3.9
		c0.3-2.8,0.7-5.5,0.9-8.4C466.6,595,464.4,593.1,462.4,593.1z" style="fill:#74A3D7;"/>
	<path d="M669.3,587.6c-1.6-2.4-2.9-4.8-3.8-7.5c-0.7-2-2.8-3.3-4.8-2.8c-2,0.5-3.4,2.8-2.8,4.8c1,3.3,2.6,6.4,4.6,9.4
		c1.2,1.7,3.4,2.5,5.4,1.4C669.7,592,670.5,589.3,669.3,587.6z" style="fill:#74A3D7;"/>
	<path d="M675.8,564.2c-0.8-2-2.6-3.4-4.8-2.8c-1.8,0.5-3.5,2.9-2.8,4.8c0.7,1.7,0.9,3.1,0.7,4.6
		c-0.4,2.1,0.5,4.2,2.8,4.8c2,0.5,4.5-0.7,4.8-2.8C677,569.9,677,566.9,675.8,564.2z" style="fill:#74A3D7;"/>
	<path d="M689.4,578.9c-2.1,0-3.9,1.8-3.9,3.9v6.7c0,2.1,1.8,3.9,3.9,3.9c2.1,0,3.9-1.8,3.9-3.9v-6.7
		C693.4,580.7,691.5,578.9,689.4,578.9z" style="fill:#74A3D7;"/>
	<path d="M596.6,586.8c-1.8-2.9-3.7-5.8-5.5-8.6c-2.8-4.3-9.6-0.3-6.8,3.9c1.8,2.9,3.7,5.8,5.5,8.6
		C592.5,595,599.3,591,596.6,586.8z" style="fill:#74A3D7;"/>
	<path d="M607.3,575.1c-0.4-2.5-0.7-5-1-7.5c-0.3-2.1-3-3.3-4.8-2.8c-2.2,0.7-3,2.8-2.8,4.8c0.4,2.5,0.7,5,1,7.5
		c0.3,2.1,3,3.3,4.8,2.8C606.8,579.2,607.6,577.2,607.3,575.1z" style="fill:#74A3D7;"/>
	<path d="M536.3,593.1c-2-2.2-3.9-4.3-6-6.6c-1.4-1.6-4.1-1.4-5.5,0c-1.6,1.6-1.4,3.9,0,5.5l6,6.6
		c1.4,1.6,4.1,1.4,5.5,0C537.9,597.2,537.7,594.7,536.3,593.1z" style="fill:#74A3D7;"/>
	<path d="M547.2,586.7l-1-6.7c-0.4-2.1-3-3.3-4.8-2.8c-2.2,0.7-3,2.8-2.8,4.8c0.4,2.2,0.7,4.5,1,6.7
		c0.4,2.1,3,3.3,4.8,2.8C546.6,590.9,547.4,588.8,547.2,586.7z" style="fill:#74A3D7;"/>
	<path d="M565.4,461.9c-0.5-4.8-2.4-9.8-3.3-14.7c-1.2-6-2-12.1-2.4-18.2c-0.8-10.9,0.4-21.4,0.8-32.2
		c0.3-7.7-3.7-13.2-11.4-14.9c-10.1-2.2-21.6-1-32-0.9c-11.9,0.3-23.8,0.9-35.8,2c-0.7,0-1.2,0.3-1.7,0.5c-2,0-3.9,1.2-3.8,3.8
		c1.6,25.9,2.5,51.9,2.8,77.8c0,2.2,1.8,3.8,3.9,3.9c23.5,1,47.2,3.1,70.8,3C560,472.1,566,469.6,565.4,461.9z M537.6,389
		c3.5,0.1,7.7-0.3,11,0.9c5.5,2.1,3.7,9,3.3,13.6c-0.4,4.6-0.5,9-0.5,13.6c-9.3,0.4-18.5,0.9-27.8,1.7c-0.5-10-1-20-1.7-30
		C527.1,388.9,532.4,388.9,537.6,389z M514,389l1.7,30.5c-9.7,0.8-19.5,1.7-29.2,2.9c-0.4,0-0.7,0.1-1,0.3
		c-0.4-10.6-0.9-21.2-1.4-32C494,389.9,504.1,389.3,514,389z M486.5,461.5c-0.1-10.4-0.4-20.8-0.8-31.2c0.3,0,0.5,0,0.8,0
		c9.8-1,19.8-2.1,29.6-2.9l2,35.4C507.6,462.4,497.1,461.9,486.5,461.5z M552.1,464.2c-4.6-0.1-9.3-0.4-13.9-0.5
		c-4.1-0.1-8.1-0.4-12.2-0.5c-0.7-12.1-1.3-24.2-2-36.3c9.2-0.7,18.3-1.2,27.5-1.7c0.1,1.7,0.1,3.4,0.3,5.1c0.7,8,1.8,16,3.5,23.8
		C556.5,458.6,558.8,464.5,552.1,464.2z" style="fill:#56597A;"/>
	<path d="M494.9,293.5c-18.6,1.4-37.2,2.6-55.8,3.5c-0.1-9.6-0.3-19.3-0.3-28.8c0.8-0.1,1.6-0.1,2.4-0.3
		c8-1,15.9-2.4,23.7-3.9c9.6-1.8,19.4-5.2,29.2-3c5,1.2,7.1-6.4,2.1-7.6c-8-1.8-15.6-0.8-23.5,0.9c-9.2,2-18.3,3.8-27.5,5.1
		c-2.1,0.3-4.3,0.7-6.4,0.9c-0.1-10.4-0.3-20.8-0.4-31.2c17.4-0.5,34.7-2,52-4.1c5-0.7,5-8.5,0-7.9c-17.3,2.1-34.7,3.5-52.1,4.1
		c-0.1-10.5-0.3-21-0.4-31.4c17.3-0.3,34.6-0.4,51.8-0.1c5.1,0,5.1-7.9,0-7.9c-17.3-0.3-34.6-0.1-51.9,0.1
		c-0.1-13.8-0.3-27.5-0.4-41.1c16.1-0.7,32.4-1.7,48.3-3.4c5-0.5,5-8.4,0-7.9c-16.1,1.7-32.4,2.8-48.5,3.4
		c-0.1-10.4-0.3-20.7-0.4-31.1c0-5.1-7.9-5.1-7.9,0c0.1,10.5,0.3,20.8,0.4,31.3c-14.8,0.4-29.7,0.4-44.5,0c-5.1-0.1-5.1,7.7,0,7.9
		c14.9,0.4,29.7,0.4,44.7,0c0.1,13.8,0.3,27.4,0.4,41.1c-15.1,0.4-30.1,0.8-45.1,1.6c-5,0.3-5.1,8.1,0,7.9
		c15.1-0.8,30.1-1.2,45.2-1.6c0.1,10.5,0.3,21,0.4,31.4c-15.2,0.1-30.4-0.5-45.6,0c-5,0.1-5.1,8,0,7.9c15.2-0.5,30.4,0.1,45.7,0
		c0.1,10.6,0.3,21.2,0.4,32c-14.4,1.4-28.8,2.1-43.4,2c-5.1,0-5.1,7.9,0,7.9c14.5,0.1,29-0.5,43.4-2.1c0.1,9.4,0.3,18.9,0.3,28.3
		c-13.6,0.7-27.4,1.3-41,1.7c-5.1,0.1-5.1,8,0,7.9c13.8-0.4,27.4-1,41.1-1.7c0.1,9.6,0.3,19,0.3,28.6c0,5.1,7.9,5.1,7.9,0
		c-0.1-9.7-0.3-19.3-0.3-29c18.6-0.9,37.2-2.1,55.7-3.5C499.9,301,499.9,293.1,494.9,293.5z" style="fill:#57455E;"/>
	<path d="M622.6,293.5c-18.6,1.4-37.2,2.6-55.8,3.5c-0.1-9.6-0.3-19.3-0.3-28.8c0.8-0.1,1.6-0.1,2.4-0.3
		c8-1,15.9-2.4,23.7-3.9c9.6-1.8,19.4-5.2,29.2-3c5,1.2,7.1-6.4,2.1-7.6c-8-1.8-15.6-0.8-23.5,0.9c-9.2,2-18.3,3.8-27.5,5.1
		c-2.1,0.3-4.3,0.7-6.4,0.9c-0.1-10.4-0.3-20.8-0.4-31.2c17.4-0.5,34.7-2,52-4.1c5-0.7,5-8.5,0-7.9c-17.3,2.1-34.7,3.5-52.1,4.1
		c-0.1-10.5-0.3-21-0.4-31.4c17.3-0.3,34.6-0.4,51.8-0.1c5.1,0,5.1-7.9,0-7.9c-17.3-0.3-34.6-0.1-51.9,0.1
		c-0.1-13.8-0.3-27.5-0.4-41.1c16.1-0.7,32.4-1.7,48.3-3.4c5-0.5,5-8.4,0-7.9c-16.1,1.7-32.4,2.8-48.5,3.4
		c-0.1-10.4-0.3-20.7-0.4-31.1c0-5.1-7.9-5.1-7.9,0c0.1,10.5,0.3,20.8,0.4,31.3c-14.8,0.4-29.7,0.4-44.5,0c-5.1-0.1-5.1,7.7,0,7.9
		c14.9,0.4,29.7,0.4,44.7,0c0.1,13.8,0.3,27.4,0.4,41.1c-15.1,0.4-30.1,0.8-45.1,1.6c-5,0.3-5.1,8.1,0,7.9
		c15.1-0.8,30.1-1.2,45.2-1.6c0.1,10.5,0.3,21,0.4,31.4c-15.2,0.1-30.4-0.5-45.6,0c-5,0.1-5.1,8,0,7.9c15.2-0.5,30.4,0.1,45.7,0
		c0.1,10.6,0.3,21.2,0.4,32c-14.4,1.4-28.8,2.1-43.4,2c-5.1,0-5.1,7.9,0,7.9c14.5,0.1,29-0.5,43.4-2.1c0.1,9.4,0.3,18.9,0.3,28.3
		c-13.6,0.7-27.4,1.3-41,1.7c-5.1,0.1-5.1,8,0,7.9c13.8-0.4,27.4-1,41.1-1.7c0.1,9.6,0.3,19,0.3,28.6c0,5.1,7.9,5.1,7.9,0
		c-0.1-9.7-0.3-19.3-0.3-29c18.6-0.9,37.2-2.1,55.7-3.5C627.6,301,627.7,293.1,622.6,293.5z" style="fill:#57455E;"/>
	<path d="M407.2,404.9c-3.9-1.2-8.1-1.6-12.2-1.2c-5,0.4-5.1,8.3,0,7.9c3.4-0.3,6.8,0,10.1,0.9
		C410,413.8,412.1,406.2,407.2,404.9z" style="fill:#C39A8A;"/>
	<g>
		<path d="M408.4,423.7c0.1,0,0.3,0,0.3,0C408.5,423.7,408.4,423.7,408.4,423.7L408.4,423.7z" style="fill:#C39A8A;"/>
		<path d="M414.4,418.2c-2.8-2.5-7.2-3.3-10.4-0.9c-1.7,1.2-2.6,3.4-1.4,5.4c1,1.7,3.5,2.8,5.4,1.4
			c0.1-0.1,0.3-0.1,0.4-0.3c-0.1,0-0.1,0,0,0l0,0c0.1,0,0.3,0,0.3,0l0,0h0.1l0,0c1.6,1.4,4.1,1.6,5.5,0
			C415.8,422.3,416,419.7,414.4,418.2z" style="fill:#C39A8A;"/>
	</g>
	<path d="M441.8,518.2h-10c-5.1,0-5.1,7.9,0,7.9h10C446.8,526.1,446.9,518.2,441.8,518.2z" style="fill:#C39A8A;"/>
	<path d="M457.9,505.7c-0.5-1.8-2.9-3.5-4.8-2.8c-2.2,0.9-4.5,1.3-6.8,0.9c-2.1-0.4-4.2,0.5-4.8,2.8
		c-0.5,2,0.7,4.5,2.8,4.8c3.7,0.7,7.5,0.5,11-0.9C457.2,509.8,458.5,508,457.9,505.7z" style="fill:#C39A8A;"/>
	<path d="M587.6,490.4H581c-2.1,0-3.9,1.8-3.9,3.9c0,2.1,1.8,3.9,3.9,3.9h6.7c2.1,0,3.9-1.8,3.9-3.9
		C591.6,492.3,589.7,490.4,587.6,490.4z" style="fill:#C39A8A;"/>
	<path d="M604.3,505.1c-2.2-0.4-4.5-0.9-6.7-1.3c-2.1-0.4-4.2,0.7-4.8,2.8c-0.5,2,0.7,4.5,2.8,4.8l6.7,1.3
		c2.1,0.4,4.2-0.7,4.8-2.8C607.6,508,606.4,505.6,604.3,505.1z" style="fill:#C39A8A;"/>
	<path d="M576,511.4c-0.7-2-2.8-3.4-4.8-2.8c-1,0.4-2.2,0.8-3.3,1.2c-2,0.7-3.4,2.8-2.8,4.8c0.7,2,2.8,3.4,4.8,2.8
		c1-0.4,2.2-0.8,3.3-1.2C575.2,515.6,576.6,513.5,576,511.4z" style="fill:#C39A8A;"/>
	<path d="M621.7,388c-2.4-2.8-6-3.7-9.6-3.1c-2,0.4-3.4,3-2.8,4.8c0.7,2.2,2.6,3.1,4.8,2.8c-0.7,0.1-0.1,0.1,0.3,0
		c0.1,0,0.4,0.1,0.5,0.1c0.1,0,0.3,0.1,0.5,0.3c0,0.1,0.5,0.5,0.7,0.7c1.3,1.6,4.2,1.4,5.5,0C623.3,391.8,623.2,389.7,621.7,388z" style="fill:#C39A8A;"/>
	<path d="M615.9,403c-0.7-2.2-2.8-3.1-4.8-2.8c-2,0.4-3.9,0-5.8-0.8c-2-0.8-4.3,0.9-4.8,2.8c-0.7,2.2,0.8,4.1,2.8,4.8
		c3.1,1.3,6.7,1.4,10,0.8C615.3,407.5,616.5,405,615.9,403z" style="fill:#C39A8A;"/>
	<path d="M170.5,316.3c-2.1,0.1-3.9,1.7-3.9,3.9v0.9c0,2.1,1.8,4.1,3.9,3.9c2.1-0.1,3.9-1.7,3.9-3.9v-0.9
		C174.4,318.1,172.6,316.2,170.5,316.3z" style="fill:#57455E;"/>
	<path d="M187.9,319.8c-5.1,0-5.1,7.9,0,7.9C193,327.7,193,319.8,187.9,319.8z" style="fill:#57455E;"/>
	<path d="M181,327.7H174c-2.1,0-3.9,1.8-3.9,3.9s1.8,3.9,3.9,3.9h6.9c2.1,0,3.9-1.8,3.9-3.9
		C184.9,329.4,183.1,327.7,181,327.7z" style="fill:#57455E;"/>
	<path d="M197.3,375.9c-1.7,10.2-3.5,20.4-5.2,30.5c-0.9,5,6.7,7.1,7.6,2.1l5.2-30.5
		C205.7,373.2,198.3,370.9,197.3,375.9z" style="fill:#57455E;"/>
	<path d="M175.7,498.9c-10-2.6-19.5-6.2-28.6-11c-7.9-4.2-17.6-9.2-19.3-18.7c-0.9-5-8.5-2.9-7.6,2.1
		c0.8,4.6,3.1,8.4,6.2,11.7c-13,0.5-25.9,0.4-38.9-0.7c-5.1-0.4-5,7.5,0,7.9c15.6,1.2,31.2,1.2,46.8,0.1c0.4,0,0.7-0.1,1-0.1
		c1.2,0.8,2.5,1.6,3.7,2.2c10.9,6.3,22.5,11,34.6,14C178.6,507.8,180.6,500.2,175.7,498.9z" style="fill:#57455E;"/>
	<path d="M739,354.3c-16.5-1.4-33-1.7-49.5-1c-5,0.3-5.1,8.1,0,7.9c16.5-0.8,33-0.4,49.5,1
		C744.1,362.7,744.1,354.8,739,354.3z" style="fill:#57455E;"/>
	<path d="M753.3,432.2c-18.2,2.5-36.4,3.7-54.8,3.4c-5.1-0.1-5.1,7.7,0,7.9c19.1,0.3,38-1,56.9-3.7
		C760.3,439.2,758.2,431.6,753.3,432.2z" style="fill:#57455E;"/>
	<path d="M204.2,467.6c-10.2-4.6-18.6-11.1-22.3-22c-3.5-10.5-6-21.4-9-32.1c-0.3-1.8-0.5-3.8-0.8-5.6
		c-0.7-5.2-1.4-11.8-6.2-13.4c-0.4-0.3-0.8-0.5-1.3-0.5c-8.4-1.3-16.5-1-24.8,0.7c-2.5,0.5-3.5,3.5-2.4,5.6
		c5.6,28.6,17.8,58.4,43.2,74.8c1.4,0.9,2.8,0.8,3.9,0c0.4,0.3,0.8,0.5,1.2,0.8c6.2,3.8,18.2,11.4,25.5,5.9
		C218.8,476.3,209,469.8,204.2,467.6z M179.5,461.6c-6-5.6-10.7-12.4-14.5-19.7c-6.8-13.1-11.3-27.3-17.9-40.5
		c2.5-0.3,5.1-0.5,7.6-0.4c-0.4,2.5,1.7,5.4,4.8,4.7c0,0,1-0.3,1.8-0.7c1.2,5,2.2,10,3.4,14.9c0.3,1,0.8,1.8,1.6,2.2
		c2.1,10.9,4.6,22.4,5,24.2c0.5,2,2.1,2.9,3.7,2.8c0.3,0.7,0.4,1.3,0.7,1.8c2.8,6.7,7.1,12.1,12.7,16.4c2.9,2.2,5.9,4.1,9.2,5.6
		c1.2,0.5,2.5,1.3,3.8,1.8C193.7,473.3,185,466.6,179.5,461.6z" style="fill:#C39A8A;"/>
	<path d="M174,377.9c-0.1-5.1-8-5.1-7.9,0c0.3,10.4,0.9,20.7,1.7,31.1c0.4,5,8.3,5.1,7.9,0
		C174.9,398.6,174.4,388.2,174,377.9z" style="fill:#57455E;"/>
	<path d="M138.9,381.7c-0.3-2.1-3-3.3-4.8-2.8c-2.2,0.7-3,2.8-2.8,4.8c0.7,4.7,0.9,9.4,0.8,14.3c-0.1,5.1,7.7,5.1,7.9,0
		C140.1,392.5,139.7,387,138.9,381.7z" style="fill:#57455E;"/>
	<path d="M281.5,541.4c-1.2-2.6-2.4-5.4-3.5-8c-0.9-2-3.7-2.4-5.4-1.4c-2,1.2-2.2,3.4-1.4,5.4c1.2,2.6,2.4,5.4,3.5,8
		c0.9,2,3.7,2.4,5.4,1.4C282,545.6,282.4,543.3,281.5,541.4z" style="fill:#74A3D7;"/>
</g>
</svg>
