<?xml version="1.0" encoding="utf-8"?>
<!-- Generator: Adobe Illustrator 23.0.2, SVG Export Plug-In . SVG Version: 6.00 Build 0)  -->
<svg version="1.1" id="Capa_1" xmlns="http://www.w3.org/2000/svg" xmlns:xlink="http://www.w3.org/1999/xlink" x="0px" y="0px" viewBox="0 0 800 511.2" style="enable-background:new 0 0 800 511.2;" xml:space="preserve">

<g>
	<path d="M358.3,413.8c-0.4-1.8-2.2-2.9-4.1-3.1c-7.1-0.4-14.2-0.8-21.3-1.4c-2.1-0.1-4.5,2.1-4.2,4.2
		c0.1,0.7,0.1,1.3,0.1,1.7c-6.3,2.4-15.6,6-16.1,13c-0.6,7.7,7.3,10.2,13.5,10.4c9.1,0.1,22.7-0.6,31-5
		C364.5,429.8,359.6,420,358.3,413.8z" style="fill:var(--illu-red--light);"/>
	<g>
		<path d="M381.8,72.7c-1.4-4.3-5.5-7.4-10.1-6.9c-0.1,0-0.3,0-0.4,0.1h-0.1c-5-0.7-10.2,2.4-12.3,7.1
			c-2.1,4.8-0.6,10.5,3.4,13.9c6.6,5.6,16,1.7,18.6-5.3C382.4,79,383,76.1,381.8,72.7z" style="fill:var(--illu-red--light);"/>
		<path d="M398.9,49.3c-10-6.6-21.9-5.5-33.1-4.1c-12.1,1.5-22.7,5.3-32.1,13.3c-4.2,3.5,1.8,9.4,5.9,5.9
			c8.3-6.9,17.9-9.8,28.5-11.1c9-1.1,18.6-2.1,26.5,3.2C399.2,59.5,403.4,52.2,398.9,49.3z" style="fill:var(--illu-red--light);"/>
		<path d="M405.4,32.9c-14.2-9.4-31.4-12.3-48.1-10.5c-15.3,1.7-32.2,5.9-42.3,18.4c-3.4,4.2,2.5,10.2,5.9,5.9
			c9.1-11.4,24.8-15,38.7-16.1c14.7-1.3,29.2,1.3,41.6,9.5C405.7,43.1,409.9,35.8,405.4,32.9z" style="fill:var(--illu-red--light);"/>
		<path d="M408.8,12.6c-8.5-3.9-14.2-10.9-24-12.2c-9.3-1.1-19.1,0.6-28.3,1.8c-19.3,2.7-38.7,8.3-52.3,23.1
			c-3.6,3.9,2.2,10,5.9,5.9c12.3-13.5,29.9-18.4,47.4-20.9c8.3-1.1,17.2-2.8,25.5-2c8.8,1,13.9,7.7,21.4,11.2
			C409.5,22.1,413.7,14.8,408.8,12.6z" style="fill:var(--illu-red--light);"/>
	</g>
	<g>
		<path d="M795,390c-0.1-7.4-0.1-14.9-0.4-22.3c-0.7-30-2.1-60.1-4.3-90.1c-3.5-46.3-13.5-104.4-61.7-125.2
			c-20.2-8.7-44.7-8.1-62.7,5.2c-19.1,14.2-26.9,37.7-29.3,60.5c-1.7,16.1-1.1,32.5-0.8,48.6c0.3,16.5,0.7,32.9,1.5,49.5
			c1.1,22.3,2.8,44.6,5.3,66.9c-0.8,0.7-1.3,1.7-1.1,3.1c0.8,7.4,1.8,14.9,2.7,22.1c0.6,5.2,0.4,12.2,3.5,16.7
			c2.7,3.8,6.9,4.3,11.1,4.5c7.7,0.1,15.6-0.4,23.3-0.7c29.2-1.4,58.3-4.1,87.2-8.3c8.4-1.1,23.3-0.7,25.4-11.4
			C796.2,403.3,795.2,396.2,795,390z" style="fill:var(--illu-blue--light);"/>
		<path d="M758.2,207.5c-2.9-3.4-5-6.9-6.6-11.1c-0.7-1.8-2.1-2.9-4.1-3.1c-21-1-42.2-0.7-63.2,1.3
			c-6.6,0.6-15.3,0.4-20.6,5c-4.6,4.1-4.8,10-3.5,15.6c0.8,8.4,2,19.2,10,22.8c10.8,4.9,25.8,2,37.1,1c12.1-1.1,26.5-1.1,38-5.5
			c4.1-1.5,7.7-4.1,9.8-7.8c1-1.7,1.5-3.6,1.7-5.6c0.1-1.1-0.6-5.3,0.6-6C759.7,212.6,760,209.6,758.2,207.5z" style="fill:var(--illu-white--light);"/>
		<path d="M761.1,260.8c-4.2-6-14.4-3.4-20.3-3.1c-22,1.1-44.1,2.2-66.2,3.2c-1.1,0-2,0.4-2.7,1
			c-1.7,0.4-3.2,1.7-3.2,3.9c-0.1,5.7,0.7,12.6,6.3,15.6c3.4,1.8,7.3,1.1,10.9,0.8c5-0.4,10.2-0.8,15.3-1.3
			c10.7-1,21.3-1.8,32.1-2.8c7.4-0.7,18.5,0.4,24.9-4.3C762.2,271,764.1,265,761.1,260.8z" style="fill:var(--illu-bg--main);"/>
		<path d="M693.3,265.4c-3.4,0.4-6.9,0.8-10.2,1.3c-2.2,0.3-4.2,1.7-4.2,4.2c0,2.1,2,4.5,4.2,4.2c0.4,0,0.8-0.1,1.3-0.1
			c1,6-0.8,12.3-5,16.8c-5.3,5.7-13,6.4-20.3,7c-12.6,1-24.8,3.4-30.8,15.7c-6.7,13.6-2.5,28.2-1.3,42.5c0.7,7.6,0.4,16.3-4.2,22.7
			c-5,6.9-13.7,8.7-21.6,6.2c-5.2-1.7-7.3,6.4-2.2,8.1c13.5,4.5,28-1.8,33.6-14.9c7.8-18.2-3.5-37.1,1.3-55.6
			c5.5-21,27.9-13.2,43.2-19.9c11.5-5.2,17.5-17.7,16-29.7c0.3,0,0.4,0,0.7-0.1c2.2-0.3,4.2-1.7,4.2-4.2
			C697.5,267.5,695.5,265.1,693.3,265.4z" style="fill:var(--illu-bg--light);"/>
		<path d="M681.2,210c-0.6-5.3-9-5.3-8.4,0c0.4,5,1,10.1,1.4,15.1c0.6,5.3,9,5.3,8.4,0
			C682.2,220.1,681.6,215.1,681.2,210z" style="fill:var(--illu-red--light);"/>
		<path d="M696.8,224.1c-0.8-5.3-1.5-10.7-2.4-15.8c-0.3-2.2-3.2-3.5-5.2-2.9c-2.4,0.7-3.2,2.9-2.9,5.2
			c0.8,5.3,1.5,10.7,2.4,15.8c0.3,2.2,3.2,3.5,5.2,2.9C696.2,228.7,697.1,226.3,696.8,224.1z" style="fill:var(--illu-red--light);"/>
		<path d="M707.3,206.5c-0.3-5.3-8.7-5.5-8.4,0c0.3,6,0.6,11.9,0.8,17.9c0.3,5.3,8.7,5.5,8.4,0
			C707.9,218.5,707.6,212.6,707.3,206.5z" style="fill:var(--illu-red--light);"/>
		<path d="M724.3,220c-1.3-5-2.1-10.2-2.5-15.4c-0.4-5.3-8.8-5.5-8.4,0c0.4,6,1.4,11.9,2.8,17.7
			C717.5,227.4,725.7,225.2,724.3,220z" style="fill:var(--illu-red--light);"/>
		<path d="M791.4,397.3c-4.9-1.1-10.5,0.3-15.6,0.8c-7.3,0.8-14.7,1.7-22,2.5c-13.7,1.5-27.6,3.1-41.3,4.6
			c-15.7,1.8-31.3,3.5-47,5.3c-7.1,0.8-21.3-0.3-23.8,8.4c-0.6,0.4-1.1,1.1-1.4,2.1c-7.4,25.2,40.5,13.9,51.3,12.6l82.3-9.4
			c8.4-1,19.6-1.1,24.5-9.5C802,407.8,799.4,399.1,791.4,397.3z" style="fill:var(--illu-bg--main);"/>
		<path d="M761.4,324.4c-26.8,2.8-53.7,4.9-80.6,6.3c-5.3,0.3-5.5,8.7,0,8.4c26.9-1.4,53.8-3.5,80.6-6.3
			C766.7,332.3,766.9,323.9,761.4,324.4z" style="fill:var(--illu-bg--light);"/>
		<path d="M764.1,340.7c-26.2,3.2-52.4,6-78.6,8.4c-5.3,0.6-5.3,9,0,8.4c26.2-2.4,52.4-5.2,78.6-8.4
			C769.4,348.4,769.4,340,764.1,340.7z" style="fill:var(--illu-bg--light);"/>
	</g>
	<g>
		<path d="M516.5,221.8c-2.7-9.1-6-17.9-15.6-21.4c-9.3-3.5-19.6-1.3-28.2,2.9c-19.5,9.5-30.8,30.1-35.2,50.7
			c-5.6,26.8-1.5,54.1-5.2,81c-0.7,5-0.4,7-5.9,7.8c-3.5,0.6-7.1,0.7-10.8,1.1c-8.1,0.8-16.1,1.7-24.2,2.4
			c-10.9,1.1-25.4,0.4-34.8,7.1c-10.4,7.6-6.4,20.3-3.9,30.8c3.4,14.3,7.4,28.3,12.2,42.2c-1.3,0.6-2.1,1.8-2,3.6
			c0.7,8.8,8,13.5,16,15.6c12.2,3.4,25.4,4.9,38,6c13.6,1.1,27.3,1.3,40.9,0.4c11.4-0.8,24.9-1,35.3-6c9.4-4.5,13-13.6,15.1-23.1
			c2.9-12.9,5-25.9,6.7-39.1c3.6-27.3,5.7-54.9,7.1-82.4C524,274.9,524,247.6,516.5,221.8z" style="fill:var(--illu-blue--light);"/>
		<path d="M608.3,371.1c-2.4-13.5-6.3-26.9-10.5-39.9c-17-53.7-42.7-104.3-68.7-154c-10.2-19.6-21.7-40.1-39.1-54.4
			c-20.5-16.8-44.9-19.1-70.4-15.7c-14.6,2-28.9,4.6-43.6,5.6c-15.4,1.1-31,1.3-46.4,1.7c-26.2,0.7-52.7,2.5-77.6,11.2
			c-22.8,7.8-42.2,21.3-56.3,41.1c-16.8,23.5-29,50.9-42.6,76.2c-5.2,9.7-10.4,19.2-15.6,28.9c-25.9,8.3-51.3,17.9-76.1,29.2
			c-13,5.9-25.9,11.9-38.4,18.8c-9.7,5.3-17.7,12.1-19.2,23.7c-1.8,13.5-0.8,28,0,41.5c0.8,13.2,2.7,26.5,6.7,39.1
			c7.1,21.7,21,41.5,42.3,51c22.4,10.2,47.8,8.4,71.6,5.3c27.5-3.6,54.5-7.6,82.1-9c56.3-2.9,112.7-0.3,169-1.7
			c55.9-1.5,112.4-7.3,165.1-27.1c12.9-4.8,25.6-10.4,37.8-16.8c10.4-5.3,21.9-10.8,27.3-21.9C611,393.8,610.3,381.9,608.3,371.1z
			 M246,271.4c4.1-54,30.7-108.5,83.5-128.9c15.4-6,32.5-10.7,49.1-11.1c15.4-0.4,29.7,4.3,42.5,13c23.8,16.1,40.9,42.5,52.7,68.3
			c23.4,51.2,26.6,111.4,9.1,164.8c-4.9,14.9-11.1,32.8-21.7,44.7c-6.7,7.6-15.4,8.5-24.9,9.3c-9.8,0.7-19.5,1.3-29.3,1.8
			c-40.9,2.4-81.7,3.6-122.8,4.2c-1.4,0-2.4,0.6-3.1,1.3C261.9,384.8,241.7,329.2,246,271.4z" style="fill:var(--illu-blue--main);"/>
		<path d="M220,415.7c-18.8-26.5-53.4-34.8-82.4-20.7c-0.1,0.1-0.3,0.1-0.6,0.3c-16.4,8.4-26.3,26.2-28.7,46
			c-1.7,14-1.3,29.2,5.7,41.8c6,10.8,16.1,19.1,27.5,23.8c23.7,10,50,2.4,68-15.1c9.7-9.5,17.5-22.3,20.2-35.6
			C232.4,441.7,228.2,427.3,220,415.7z" style="fill:var(--illu-bg--light);"/>
		<path d="M571.5,397c-18.8-26.5-53.4-34.8-82.4-20.7c-0.1,0.1-0.3,0.1-0.6,0.3c-16.4,8.4-26.3,26.2-28.7,46
			c-1.7,14-1.3,29.2,5.7,41.8c6,10.8,16.1,19.1,27.5,23.8c23.7,10,50,2.4,68-15.1c9.7-9.5,17.5-22.3,20.2-35.6
			C584,423.2,579.6,408.8,571.5,397z" style="fill:var(--illu-bg--light);"/>
		<path d="M187.7,437.9c-0.4-2.5-1.4-5-2.9-7.4c-6.2-9.7-21.4-10.8-31.5-5.7c-0.4,0.1-0.8,0.3-1.3,0.7
			c-0.1,0.1-0.4,0.3-0.6,0.4c-0.7,0.4-1.4,1-2.1,1.4c-0.4,0.3-0.7,0.7-0.8,1c-7.8,7.7-9.7,19.2-5.3,28.3
			c3.5,10.8,14.6,14.9,27.1,13.9c1.1-0.1,2.2-0.3,3.2-0.6c1,0.4,2.2,0.4,3.5-0.3C188.6,463.2,192.8,449.7,187.7,437.9z" style="fill:var(--illu-yellow--main);"/>
		<path d="M545,424.6c-2.9-13.5-15.7-21.4-28.7-19.9c-13-0.6-21.7,12.8-20.9,25.6c0.8,14.2,12.5,28.7,27.8,27.2
			C537.8,456.3,547.9,438.2,545,424.6z" style="fill:var(--illu-yellow--main);"/>
		<path d="M484.6,285.6c0-24.8-3.5-49.3-14.4-71.9c-2.4-4.9-9.7-0.6-7.3,4.2c11.5,23.7,13.7,50.2,13.2,76.2
			c-0.6,21.4,0.7,50.2-13.3,68c-14.9,18.9-42.2,13.5-62.7,20c-8.3,2.7-17.1,7.3-16.4,17.4c0.7,10.8,7.4,22.7,13,31.7
			c2.8,4.6,10.1,0.4,7.3-4.2c-3.5-5.6-6.6-11.5-8.8-17.8c-1-2.7-2.4-5.9-2.8-8.7c-0.7-5.6,2.5-7.3,7-9.3c10.2-4.2,21.7-4.6,32.5-6
			c21-2.8,37.6-11.6,45.4-32.4C484.9,332.4,484.6,307.5,484.6,285.6z" style="fill:var(--illu-bg--light);"/>
		<path d="M32.6,353.8c-2.4-2.7-5.5-4.8-9.1-6c-4.8-1.8-10.8-2.5-15.6,0.1c-1.8,1-3.2,2.5-4.2,4.2
			c-0.3,0.3-0.4,0.6-0.6,1c-4.8,5.3-2.8,15.3-2.4,21.7c0.4,7.7,0.1,41.8,17,31.1c11.4-7.1,22.7-24.9,22.4-38.7
			C40,361.8,37.6,356.5,32.6,353.8z" style="fill:var(--illu-yellow--main);"/>
		<path d="M68.7,410.3c-8.3,0-16.8,3.8-24.8,5.6c-9,2-17.9,3.2-27.1,3.9c-1.4-0.3-2.8-0.1-4.1,0.3
			c-1.5,0.3-2.7,1.1-3.2,2.2C8,424.3,7.3,427,8,430c0.7,3.4,2.7,6.3,5,8.8c0.8,2.9,2.2,5.6,4.3,7.3c4.8,3.6,13.2,2.1,18.6,1.5
			c8.4-0.8,16.8-2.7,24.8-5.5c6.6-2.4,14.3-5,19.5-10C90.5,422.9,80.1,410.3,68.7,410.3z" style="fill:var(--illu-blue--light);"/>
	</g>
	<path d="M457,269.3c-3.9-21.9-16.4-46.7-40.4-51.2c-1.1-0.1-2.1,0-2.9,0.4c-0.4-1.1-0.8-2.2-1.3-3.4
		c-0.1-0.4-0.4-0.8-0.7-1.3c2.7-4.6,3.9-10.2,3.8-15c-0.1-5.7-1.7-11.8-4.6-16.7c-1.5-2.8-3.6-5.5-6-7.6c-0.3-0.3-0.6-0.4-0.8-0.7
		c-2.2-2.7-4.9-5.2-7.8-7.3c-2-1.4-4.6-0.3-5.7,1.5c-9.8,5-14.3,16.8-13.3,27.6c1,10.2,7.6,24,18.6,26.2c0.6,0.1,1,0.1,1.5,0.3
		c0.3,1,0.4,2,0.7,2.9c-14,10.2-28.6,19.5-43.7,27.6c-10.9-17.8-21.7-35.5-32.7-53.3c-1.8-3.1-6.7-2.5-7.7,1
		c-4.5,15.4,1,32.1,6.4,46.7c4.5,11.9,11.2,23.8,23.7,28.6c15.3,5.6,31.1-1.8,43-11.2c0,0,2.9-2.4,2.8-3.4c0.8,1.5,2.2,7,2.5,7.7
		c1.4,4.2,2.7,8.5,3.9,12.8c2.2,8,3.8,28.6,5.6,36.7c-15.4,2.1-17.1-2.4-32.1,1.4c-12.3,3.2-24,9.5-29,21.9
		c-5.6,13.7-1.4,28.6,4.2,41.5c6.4,15,0.1,23.3,7,38c-5.7,2.2-10.8,5.7-15.1,10.4c-2,2.1-1.5,6.6,1.8,7c8.4,1.3,16.8,0.8,24.9-2.1
		c8-2.9,11.9-6.6,9.7-15.3c-5-20-10.8-39.9-16.3-59.8c15.8-1,31.8-2,47.7-2.9c-2.8,4.9-4.3,10.7,0,14.7c6.6,6,18.5-4.2,23.4-8.4
		c8.1-6.9,14.3-16,18.9-25.5C458.1,317.8,461.3,293,457,269.3z" style="fill:var(--illu-brown--main);"/>
	<path d="M426.6,157.3c-3.5-5.7-11.1-8.1-17.1-5.6c-4.3,1.8-7.1,5.5-8.8,9.5c-8.5-5.2-21.3,0.7-25.9,10.8
		c-2.2,4.8-6.7,16.3-2.8,21.2c4.6,5.7,15.4,2.5,21-0.6c8.7-3.9,16,9.8,24.9,9.5c1.7,0,3.8-1.3,4.1-3.1c0.7-4.6,1-9,0-13.6
		c-0.4-1.8-1.4-3.6-1.7-5.3c-0.7-3.5-0.3-2.5,2.5-4.8C428.2,171.4,430.2,163.4,426.6,157.3z" style="fill:var(--illu-bg--light);"/>
	<path d="M380.9,201.2c-5.5,0-5.5,8.4,0,8.4C386.2,209.6,386.2,201.2,380.9,201.2z" style="fill:var(--illu-bg--light);"/>
	<path d="M398,198.6h-0.4c-2.2,0-4.3,2-4.2,4.2s1.8,4.2,4.2,4.2h0.4c2.2,0,4.3-2,4.2-4.2
		C402,200.4,400.3,198.6,398,198.6z" style="fill:var(--illu-bg--light);"/>
	<path d="M401.6,212.3c-0.6-2.2-2.9-3.5-5.2-2.9c-2.8,0.7-5.6,1.4-8.4,2c-2.2,0.6-3.5,3.1-2.9,5.2
		c0.6,2.2,2.9,3.5,5.2,2.9c2.8-0.7,5.6-1.4,8.4-2C400.9,217.1,402.3,214.5,401.6,212.3z" style="fill:var(--illu-bg--light);"/>
	<path d="M374.3,416.8c-0.4-1.8-2.2-2.9-4.1-3.1c-7.1-0.4-14.2-0.8-21.3-1.4c-2.1-0.1-4.5,2.1-4.2,4.2
		c0.1,0.7,0.1,1.3,0.1,1.7c-6.3,2.4-15.6,6-16.1,13c-0.6,7.7,7.3,10.2,13.5,10.4c9.1,0.1,22.7-0.6,31-5
		C380.4,432.8,375.7,423.1,374.3,416.8z" style="fill:var(--illu-red--light);"/>
	<path d="M445.5,313.5c-12.3-0.6-24.5-2.2-36.7-4.8c-2.2-0.4-3.9,0.7-4.8,2.4c-12.6,0.7-25.1,2.2-37.4,5.2
		c-2.2,0.6-4.5,1.1-6.7,1.8c-9.4,1.8-18.5,5.9-24.2,13.5c-10.1,11.6-8.3,28.6-8.1,43.2l0.4,27.8c0.1,5.6-1.7,13.9,4.6,16.8
		c6.4,2.9,16.5,2.5,23.5,2.5c4.8,0,13.7,1.4,16.3-4.1c1.3-2.7,0.6-6,0.6-8.8c-0.1-5.6-0.3-11.1-0.3-16.7c-0.1-6.2-0.3-12.3-0.4-18.4
		c16.4,0.7,33.9,0.1,47.9-9.1c16-10.4,23.1-28.7,29.3-45.8C450.5,316,448,313.6,445.5,313.5z" style="fill:var(--illu-yellow--main);"/>
	<path d="M400.6,315.9c-12.3,3.1-24.8,5.7-37,9.3c-8.8,2.5-17.1,6.6-20.9,15.4c-4.5,10.4-4.1,23.7-4.9,34.6
		c-1,12.9-1.4,25.9-0.4,38.8c-1.5,0.7-3.1,1.4-4.8,2.2c-0.1-0.4-0.4-0.7-0.7-1.1c-0.6-0.7-1.3-1.3-1.8-2c-1.5-1.5-4.5-1.7-5.9,0
		c-1.5,1.7-1.7,4.2,0,5.9c0.4,0.4,0.8,0.8,1.3,1.4c-5.7,4.2-9.1,9.7-3.4,17c3.4,4.2,9.3-1.8,5.9-5.9c-2-2.4,3.6-5.9,8.8-8.3
		c1.3,2.1,2.7,4.1,4.3,5.9c1.5,1.7,4.3,1.5,5.9,0c1.7-1.7,1.5-4.2,0-5.9c-0.8-1-1.3-1.5-2-2.5c-0.1-0.3-0.4-0.6-0.6-1
		c0.8-0.7,1.5-2.1,1.4-3.2c-1-11.5-1-23-0.3-34.5c0.7-10.9,0.8-22.7,3.2-33.5c2.4-11.1,11.1-14,21-16.5c9.8-2.5,19.6-4.9,29.6-7.3
		c0.7,0.1,1.5,0,2.4-0.3c0.7-0.3,1.4-0.6,2.1-1C408.3,321.5,405.1,314.7,400.6,315.9z" style="fill:var(--illu-bg--light);"/>
	<path d="M454.4,272.3c-4.5,1.7-7.3,2.8-8.7,5c-3.8,4.2-2.2,12.3-3.2,17.8c-0.6,2.8-1.3,5.7-2.1,8.5
		c-2.4,5.9-5.2,11.6-8.1,17.2c-3.2,6.3-6.6,12.8-9.5,19.2c-3.4,4.9-7,9.5-10.9,13.9c-4.2,4.8-12.6,10.8-8.1,18.1
		c4.3,7,13.3,2,17.7-2.2c7.4-7.3,13.2-17.2,18.1-26.3c5.2-9.7,9.5-20,11.9-30.8c1.1-5.3,2-10.8,2.2-16.3c0-1.3,0-2.7,0-4.1
		c1.1-3.9,2.1-7.8,2.7-11.9c0.3-0.1,0.4-0.1,0.7-0.3C461.6,278.4,459.5,270.3,454.4,272.3z" style="fill:var(--illu-brown--main);"/>
	<path d="M457.3,260.4L457.3,260.4c-2.1-7-4.8-13.7-8-20.3c-3.4-7-7.4-14.7-14.3-18.9c-6.3-3.9-10.2-1.4-14.7,3.5
		c-5.9,6.6-15,8-22.6,3.2c-0.4-0.3-0.8-0.4-1.4-0.6c-0.1-0.1-0.1-0.3-0.3-0.3c-1.1-1.5-3.6-1.5-5-0.7c-9.5,5.2-18.8,10.8-27.8,17
		c-2,1.4-2.5,3.6-1.5,5.7c3.6,7.4,6.9,15,9.7,22.7c1,2.7,3.6,3.8,6.2,2.5c3.4-1.5,6.7-3.2,10.1-4.8c4.1,13.3,7.6,26.8,10.5,40.4
		c0.4,1.8,2.2,3.1,4.1,3.1c11.2,0.1,22.6,0.6,33.8,1.3c4.1-9.7,6.6-20,11.6-29.3c-0.1-0.7-0.1-1.3-0.3-2c3.5-1.4,7-2.7,10.2-4.3
		c2.2-1.1,4.2-2.2,4.3-5C462.3,269.8,458.4,263.7,457.3,260.4z" style="fill:var(--illu-red--light);"/>
	<path d="M387.2,258.1c-2-5-10.1-2.8-8.1,2.2c2.1,5.5,3.6,11.1,4.5,17c0.3,2.2,1.7,4.2,4.2,4.2c2.1,0,4.5-2,4.2-4.2
		C391.1,270.7,389.6,264.4,387.2,258.1z" style="fill:var(--illu-bg--light);"/>
	<path d="M450.1,282.9c-2.8-11.5-7.4-22.3-13.7-32.2c-2.9-4.6-10.1-0.4-7.3,4.2c5.9,9.4,10.2,19.5,12.9,30.3
		C443.2,290.5,451.4,288.3,450.1,282.9z" style="fill:var(--illu-bg--light);"/>
</g>
</svg>
