<?xml version="1.0" encoding="utf-8"?>
<!-- Generator: Adobe Illustrator 23.0.2, SVG Export Plug-In . SVG Version: 6.00 Build 0)  -->
<svg version="1.1" id="Capa_1" xmlns="http://www.w3.org/2000/svg" xmlns:xlink="http://www.w3.org/1999/xlink" x="0px" y="0px" viewBox="0 0 800 725.3" style="enable-background:new 0 0 800 725.3;" xml:space="preserve">

<g>
	<g>
		<path d="M606.2,350.5c-0.4-5.3-3-11.1-4.4-16.4c-0.8-2.6-2.8-4-4.9-4.2c-1.2-1-2.6-1.6-4-1.8
			c-74.2-6.9-147.4-21.6-218.6-43.9c-35.6-11.1-70.6-24.1-104.7-39c-12.1-5.3-24.5-12.9-35-0.6c-0.6,0.6-1.2,1.4-1.6,2
			c-22,18.2-44.1,36.2-67.3,52.6c-20.4,14.4-43.3,26.7-57.8,47.5c-0.6,0.6-1.2,1.2-1.6,2.2c0,0.2-0.2,0.2-0.2,0.4
			c-0.8,1.2-1,2.4-0.8,3.4c-1.8,9.7,3.6,18,11.3,23.9c-0.8,39-1.2,78-1.2,117.1c0,18.6-0.2,37.4,0,56c0.2,12.1,2,17,14.8,22.2
			c4.7,2,9.9,2.4,14.6,0c7.3-3.6,4.9-2.8,5.1-9.7c0.4-18.8,0.8-37.6,1.4-56.4c1-37.6,1.8-75.2,2.8-112.8c6.5,2.2,13.1,4.4,19.6,6.7
			c15.8,5.3,29.5,19.6,45.7,23.7c1,11.3,2.8,59.8,4.4,71.2c0.8,6.5,4,12.7,11.1,13.7c7.7,1,11.3-5.5,11.5-12.1
			c0.4-9.7,1-66.5,0.8-76.2c13.5,3,26.9,6.5,40,11.3c17.4,6.7,34.2,14.4,52.4,19c18,4.7,36.6,7.1,55,10.3c18.4,3.2,36.6,6.9,54,13.5
			c8.9,3.4,17.6,7.3,26.5,10.5c-3.4,27.1-5.7,54.4-6.5,81.7c-0.4,14.6-1.6,29.9,0,44.5c1,8.1,4.2,16.6,12.5,19.4
			c8.7,2.8,17.4-3.2,21-11.1c5.1-11.1,1-25.9,0.6-37.6c-1.4-30.7,0.8-61.5,6.3-91.6c1-0.4,2.2-1,3.6-2c15.4-10.1,26.5-29.9,37-44.7
			c7.1-10.1,14-20.2,20.8-30.3c-0.4,21.2-0.4,42.7,0,63.9c0.2,9.5-4.9,55.8,17.4,46.1c8.7-3.8,8.7-13.7,8.7-21.6
			c0.2-14.2,0.4-28.3,0.6-42.5c0.4-28.9,0.8-57.8,1.4-86.7c0-1.2-0.2-2-0.6-2.8c1.8-3.2,3.6-6.3,5.7-9.5
			C604.6,356.8,606.4,354.3,606.2,350.5z" style="fill:#C39A8A;"/>
		<path d="M591.2,337.8c-27.9,41.2-61.5,78.4-99.7,110.4c-0.4-0.2-0.6-0.4-1-0.6c-13.3-7.9-30.1-11.7-44.9-16.6
			c-32.6-10.7-65.7-19.2-100.1-20c-7.9-0.2-7.9,11.9,0,12.1c26.9,0.6,53.2,6.3,79.1,14c11.9,3.6,23.9,7.7,35.6,11.7
			c9.5,3.2,35.6,8.5,30.9,23c-2.4,7.5,9.3,10.7,11.7,3.2c2.2-6.7,0.8-13.1-2.6-18.4c39-32.8,73-70.6,101.5-112.8
			C606.2,337.4,595.7,331.3,591.2,337.8z" style="fill:#57455E;"/>
		<path d="M588.6,380c-5.7,10.7-12.5,20.6-20.8,29.5c-5.3,5.7,3.2,14.4,8.5,8.5c8.9-9.7,16.6-20.2,22.6-31.9
			C602.8,379.2,592.2,373.1,588.6,380z" style="fill:#57455E;"/>
		<path d="M496,489.6c-4.2-1.2-8.5-2.4-12.7-3.6c-7.5-2.2-10.7,9.5-3.2,11.7c4.2,1.2,8.5,2.4,12.7,3.6
			C500.3,503.6,503.5,491.8,496,489.6z" style="fill:#57455E;"/>
	</g>
	<path d="M779.7,121.4c-10.5-22.8-30.5-40.4-52.8-51.2c-26.3-12.9-55.8-16.6-84.7-15.4c-30.5,1.2-62.1,6.1-91.6,13.5
		c-27.9,7.1-55,20.2-68.9,46.7c-16.4,30.7-18.8,68.1-12.3,101.7c0.2,0.8,0.4,1.6,0.8,2.2c-4,4-7.9,8.1-11.5,12.5
		c-3.4,4-8.5,9.1-7.5,15c1.8,10.3,14.8,7.5,24.1,5.1c5.3,22,44.3,21,61.7,23.5c34,4.4,67.9,9.7,102.3,7.3
		c53.6-3.8,138.9,14,158.1-43.7C806.2,211.2,791.6,147.7,779.7,121.4z" style="fill:#74A3D7;"/>
	<g>
		<path d="M739.4,249.6c1.2-58.8-1.2-117.7-7.1-176.1c-0.4-3.4-2.4-5.7-6.1-6.1c-39-3.6-78-3.8-117.3-0.8
			c-3,0.2-6.3,2.6-6.1,6.1c3.6,66.5,5.1,133,4.7,199.6c-5.5,2.2-4.7,11.7,2.2,11.7c29.5-0.4,58.8-1,88.4-1.4
			c7.3-0.2,14.8-0.2,22-0.4c4.7-0.2,9.5,0,13.3-3.2C741.7,272.7,739.2,258.5,739.4,249.6z" style="fill:#FFFFFF;"/>
		<path d="M735.2,60.4c-0.4-2.4-3.4-4.7-5.9-4.4c-29.1,1.6-58.2,1.4-87.3-0.6c-7.1-0.6-14.2-1.2-21.2-1.8
			c-5.1-0.6-11.5-2.6-16.4-0.8c-3.8,1.4-5.5,4-5.9,7.1c-0.4,0.8-0.8,1.8-0.8,2.8c0,7.3-2.6,18.2,5.5,22c4.4,2,10.7,1.2,15.4,1.2
			c7.3,0.2,14.8,0.2,22.2,0.2c29.5,0.2,59,0,88.6-0.6c2.4,0,5.5-1.8,5.9-4.4C736.4,74.1,736.4,67.6,735.2,60.4z" style="fill:#56597A;"/>
		<path d="M751.6,270.8c-53,3.2-106.1,3-159.1-0.4c-7.9-0.4-7.7,11.7,0,12.1c53,3.4,106.1,3.4,159.1,0.4
			C759.2,282.6,759.2,270.4,751.6,270.8z" style="fill:#57455E;"/>
		<path d="M613.5,63h-0.8c-7.9,0-7.9,12.1,0,12.1h0.8C621.2,75.1,621.4,63,613.5,63z" style="fill:#F087B1;"/>
		<path d="M632.9,64.4c-7.9,0-7.9,12.1,0,12.1C640.6,76.5,640.6,64.4,632.9,64.4z" style="fill:#F087B1;"/>
		<path d="M650.3,63c-3.2,0.2-6.1,2.6-6.1,6.1v1.4c0,3.2,2.8,6.3,6.1,6.1s6.1-2.6,6.1-6.1v-1.4
			C656.3,66,653.7,63,650.3,63z" style="fill:#F087B1;"/>
		<path d="M706.9,108.9h-76.8c-7.9,0-7.9,12.1,0,12.1h76.8C714.8,121,714.8,108.9,706.9,108.9z" style="fill:#57455E;"/>
		<path d="M638.9,126.9c-3.4-1-6.3,1.2-7.5,4.2c-2.4,6.3-4.9,12.5-7.3,18.6c-1.2,3,1.2,6.7,4.2,7.5
			c3.4,1,6.3-1.2,7.5-4.2c2.4-6.3,4.9-12.5,7.3-18.6C644.4,131.3,642,127.7,638.9,126.9z" style="fill:#F7D16F;"/>
		<path d="M704.3,140c-17-1.2-34.2-2.2-51.2-3.4c-7.9-0.6-7.7,11.5,0,12.1c17,1.2,34.2,2.2,51.2,3.4
			C712.1,152.8,711.9,140.6,704.3,140z" style="fill:#57455E;"/>
		<path d="M704.3,166.3c-22.4,1.4-44.9,1.6-67.3,1c-7.9-0.2-7.9,11.9,0,12.1c22.4,0.6,44.9,0.4,67.3-1
			C711.9,178,712.1,165.9,704.3,166.3z" style="fill:#57455E;"/>
		<path d="M684.4,191.6c-16,1.8-33.4-1-49.5-1.8c-7.9-0.4-7.7,11.7,0,12.1c16,0.8,33.6,3.6,49.5,1.8
			C691.9,202.9,692.1,190.8,684.4,191.6z" style="fill:#F7D16F;"/>
		<path d="M659.6,211c-7.5-0.6-14.8-1.2-22.2-1.8c-7.7-0.6-7.7,11.5,0,12.1c7.5,0.6,14.8,1.2,22.2,1.8
			C667.3,223.7,667.3,211.6,659.6,211z" style="fill:#F087B1;"/>
	</g>
	<g>
		<path d="M518.2,16.9c-2.6-7.1-6.9-16-16-15.6c-8.3,0.4-12.5,8.1-14.8,15c-4,13.3-4.9,28.1-4.2,42.1
			c0.4,7.7,12.5,7.9,12.1,0c-0.4-7.5-0.2-14.8,0.6-22.2c0.4-3.6,1.6-20.8,5.9-22.2c7.3-2.4,10.7,38.2,10.5,42.1
			c-0.2,7.9,11.9,7.9,12.1,0C524.9,42.8,523.1,29.4,518.2,16.9z" style="fill:#57455E;"/>
		<path d="M545.1,93.1c-0.6-10.5-1.8-20.8-3.4-31.1c-0.6-3.2-2.8-4.4-5.3-4.4c-0.4-0.2-0.8-0.4-1.2-0.6
			c-5.5-2-14.4-0.8-20-0.8c-7.9,0-16,0.4-23.9,1.2c-9.5,1-16.8,3.8-17.2,14.6c-0.6,15.6,2.4,32.1,3.4,47.7c0.2,3.2,2.6,6.1,6.1,6.1
			c18.6,0.2,37.2-0.2,55.8-1c3.4-0.2,5.9-2.6,6.1-6.1c0-2.8,0.2-5.7,0.2-8.5C547,104.9,546.1,98.8,545.1,93.1z" style="fill:#F7D16F;"/>
		<path d="M516.8,86.5c1.8-1.8,2.8-4.2,2.8-6.9c0-6.5-6.7-10.7-12.7-9.3c-6.1,1.6-8.9,8.1-7.7,14c0.6,2.4,3,4.2,5.5,4.4
			c0.2,4,0.8,8.1,1.8,11.9c1.8,7.7,13.5,4.4,11.7-3.2C517.4,93.9,517,90.1,516.8,86.5z" style="fill:#57455E;"/>
	</g>
	<g>
		<path d="M445.5,278.1c1-14.2,2-28.3,3.2-42.3c1-14.4,4-30.1,3.2-44.5c-0.6-8.7-5.5-11.1-13.3-12.9
			c-13.3-3-26.7-6.1-40-8.7c-26.9-5.5-54-10.1-81.5-11.5c-7.9-0.4-15.6-0.6-23.5-0.4c-5.9,0-14.4-0.6-20.2,1
			c-11.5,3.6-9.3,18.2-10.1,27.7c-2.2,28.9-4.2,58-6.5,86.9c-36.4,19.4-70.6,42.5-102.5,68.5c-3.6,3-2.4,8.7,1.8,10.3
			c26.5,10.3,53.2,20.6,79.7,30.9c25.3,9.7,50.9,19.4,77.6,24.9c21.8,4.4,42.5-9.3,60.9-19.8c20.4-11.7,41-25.5,58.2-41.9
			c7.3-6.9,8.5-14.2,9.3-23.9C443.2,307.8,444.2,293.1,445.5,278.1z" style="fill:#B6C8E8;"/>
		<path d="M425.8,201.7c0-3.4-2-6.1-5.5-6.5c-26.5-4-53-8.1-79.5-12.1c-12.9-2-25.9-3.8-38.8-5.9
			c-6.3-1-15.2-1.4-16.6,5.7c-0.8,0.8-1.6,2-1.6,3.8c-0.8,16.8-1.6,33.6-2.4,50.3c-0.4,7.7-0.8,15.6-1.2,23.3
			c-0.2,5.3-1.8,11.9,0,17c1.4,3.8,4.4,5.9,8.3,7.1c8.1,2.8,16.8,4.7,25.1,6.9c16,4.4,32.1,8.7,48.1,13.1c14.6,4,29.1,9.3,44.1,11.9
			c11.1,2,16-4.7,17.2-15C426.7,268.6,425.8,234.7,425.8,201.7z" style="fill:#57455E;"/>
		<path d="M394.7,326.4c-40.6-12.1-81.3-24.1-121.9-36.2c-2-2-5.3-3-8.3-1c-14.2,9.5-27.9,19.8-40.8,30.9
			c-3.6,3.2-2.2,8.5,1.8,10.3c31.5,14.8,63.5,28.7,95.6,41.9c13.3,5.5,23.7,11.7,35.8,1.4c13.7-11.7,26.5-24.9,39.4-37.2
			C399.6,333.9,399.4,327.9,394.7,326.4z" style="fill:#56597A;"/>
		<path d="M280.3,361c-4.7-3-9.7-5.9-14.8-7.9c-4.2-1.8-8.5-3.4-12.9-2c-1.2,0-2.4,0.6-3.4,1.6
			c-3.8,3.6-9.3,8.5-5.1,14.2c3.2,4.4,11.1,6.5,16,8.7c4.9,2.4,10.3,6.1,15.8,3.2c4.7-2.4,6.3-7.5,6.9-12.3
			C283.1,364.5,281.9,362.2,280.3,361z" style="fill:#56597A;"/>
		<path d="M391.5,221.5c-27.5-5.7-55-11.3-82.5-17c-7.7-1.6-8.5,10.5-1,12.1c27.5,5.7,55,11.3,82.5,17
			C398.1,235.3,399.2,223.1,391.5,221.5z" style="fill:#F087B1;"/>
		<path d="M395.1,243.5c-16.4-3.4-32.8-6.7-49.1-10.1c-7.7-1.6-8.5,10.5-1,12.1c16.4,3.4,32.8,6.7,49.1,10.1
			C401.8,257.1,402.6,245.2,395.1,243.5z" style="fill:#74A3D7;"/>
		<path d="M362.8,262.8c-3-0.8-6.3-1.4-9.3-2.2c-3-0.8-6.7,0.2-7.7,3.6c-0.8,2.8,0.4,7.1,3.6,7.7l9.3,2.2
			c3,0.8,6.7-0.2,7.7-3.6C367.2,267.8,366,263.6,362.8,262.8z" style="fill:#F7D16F;"/>
		<path d="M392.3,267.4c-4.9-2-10.1-2.6-15.4-2.2c-3.2,0.2-5.5,4-4.9,7.1c0.6,3.4,3.8,5.1,7.1,4.9
			c3-0.2,6.1,0.4,8.9,1.6c3,1.2,6.7-0.6,7.7-3.6C396.9,271.9,395.3,268.6,392.3,267.4z" style="fill:#F7D16F;"/>
		<path d="M387,337.4c-8.7-2.4-17.2-4.9-25.7-7.5c2.4-2.6,4.7-5.5,7.1-8.1c5.1-5.9-3.6-14.6-8.5-8.5
			c-3.6,4.2-7.3,8.5-11.1,12.7c-6.7-2.2-13.1-4.4-19.8-6.7c2-2,3.8-4,5.9-6.1c5.5-5.7-3-14.2-8.5-8.5c-3.2,3.4-6.7,6.7-9.9,10.1
			c-8.3-3-16.4-6.3-24.5-9.5c0.8-0.8,1.6-1.6,2.4-2.6c5.3-5.7-3.2-14.4-8.5-8.5c-2,2-3.8,4-5.9,6.1c-8.5-3.6-17-7.3-25.3-11.1
			c-7.1-3.2-13.1,7.1-6.1,10.5c7.5,3.4,14.8,6.7,22.2,9.9c-3,3-5.9,5.9-8.9,8.9c-8.3-3.4-16.4-7.1-24.7-10.7
			c-7.1-3.2-13.3,7.3-6.1,10.5c7.1,3,14.2,6.3,21.2,9.3c-2.2,2.2-4.7,4.2-6.9,6.5c-5.9,5.3,2.8,13.7,8.5,8.5
			c3.6-3.2,7.1-6.5,10.7-9.7c8.1,3.4,16.2,6.7,24.5,10.1c-1.6,1.6-3.2,3.2-4.9,4.9c-5.5,5.7,3,14.2,8.5,8.5c2.8-2.8,5.7-5.7,8.5-8.7
			c6.7,2.6,13.3,5.3,20,7.9c-3,3.2-6.3,6.3-9.3,9.5c-5.7,5.5,3,14.2,8.5,8.5c4.4-4.4,8.9-8.9,13.1-13.3c10.9,4,21.8,8.1,32.8,11.9
			c7.3,2.6,10.5-9.1,3.2-11.7c-9.1-3.2-18-6.5-26.9-9.7c3.2-3.4,6.5-7.1,9.7-10.5c10.3,3.2,20.8,6.3,31.3,9.1
			C391.3,351.1,394.5,339.4,387,337.4z M298.3,333.3c-8.1-3.2-16-6.5-24.1-9.9c3-2.8,5.9-5.9,8.9-8.9c8.1,3.2,16,6.5,24.3,9.5
			L298.3,333.3z M330.4,345.9c-6.7-2.4-13.3-5.1-20-7.7c3-3,6.1-6.3,9.1-9.3c6.7,2.4,13.3,4.7,20.2,7.1
			C336.9,339.2,333.7,342.6,330.4,345.9z" style="fill:#57455E;"/>
	</g>
	<g>
		<path d="M341.1,310.7c-6.9-14.2-24.3-1-32.6,4.4c-14,9.3-27.7,21.6-44.5,25.7c-18.2,4.4-41.9-3.6-58.2-11.9
			c-21.6-10.7-30.3-30.3-42.9-49.5c-8.5-13.1-19.6-25.3-34.8-29.9c2-1.2,4-3,6.1-5.3c7.3-8.7,8.7-21.2,9.1-32.1
			c0.4-11.3,0-25.3-8.7-33.8c-7.1-6.9-17.4-7.5-25.7-2.2c-3.8,2.4-6.9,5.9-8.9,9.5c-8.9,10.7-11.7,28.5-9.5,41.2
			c1.4,8.3,6.7,16,13.1,20.6c-0.2,1-0.4,1.8-0.4,2.8h-0.2c-59,31.3-76,102.7-78.4,164.2c-1.4,31.9-0.8,68.1,17.4,95.8
			c16.4,24.7,43.9,35.4,72.8,30.1c8.3-1.6,6.1-7.5,13.3-11.1c-5.1,34,7.9,72,3.8,106.1c-1,9.3,3.2,17.6,2.2,26.9
			c-0.8,7.5,0.4,17.8,1.8,25.3c1.8,9.5-3,9.7,6.9,10.1h0.2c19,5.1,38.2,7.9,57.8,8.9c3.8,0.2,7.1-4,5.9-7.7
			c-1.8-5.1-4.7-8.3-9.1-11.3c-2.2-1.4-6.3-3-7.7-5.3c-3.4-5.3,2.4-12.1,4.9-16.4c9.7-16.8,19-34,27.5-51.4
			C238,582.2,250.4,548,254.2,512c2.2-20.2,0.4-41-9.7-57.2c18.4-1.6,38-6.3,50.7-20.2c5.1-5.5,7.9-13.1,4.7-20.4
			c-3.8-8.5-13.5-8.5-21.6-7.5c-24.9,2.8-47.3,18.4-72,5.1c-12.1-6.5-21.2-17.2-28.9-28.3c-5.5-7.7-12.7-16.8-16-26.5
			c21,20.2,45.9,36.2,76.6,32.3c31.7-4,68.7-18.8,90-43.7C335.5,337.6,347,322.6,341.1,310.7z M142.8,423.5c2.6,2.6,5.3,5.3,8.1,7.7
			c-3.4,0.8-6.7,1.8-10.1,2.8C141.4,430.6,142,427.1,142.8,423.5z" style="fill:#F7D3BD;"/>
		<path d="M184,434.6c-5.9-6.9-14.2-16.8-23.7-18.2c-7.7-1.2-13.5,3.6-20,6.5c3.8-16.2,9.7-31.7,17.4-46.5
			c14.4-3,14.6-22.2,19.6-34.4c6.7-16.2,21.2-31.1,7.9-47.7c-6.7-8.3-14-16-21-23.9c-6.1-6.7-12.1-15.4-19.6-20.6
			c-5.3-3.6-11.1-3.8-16.8-1c-9.7,5.1-18.6,8.1-27.3-1c-4.7-4.7-11.3,0.6-10.1,5.7c-16.4,8.5-28.1,23-37.4,38.8
			c-11.5,19.6-20.8,41-28.5,62.5C8.9,397.6-6.8,451.2,8.3,496.3c13.5,40.6,49.7,61.9,92,56.6c22.6-2.8,43.7-12.1,64.5-21.4
			c18.2-8.1,34.8-18.2,38.8-39.2C207.7,470.8,198,450.6,184,434.6z" style="fill:#F087B1;"/>
		<path d="M183.2,529.4c-0.2-7.9-12.3-7.9-12.1,0c0.6,26.1-9.7,52-17,76.6c-7.1,24.1-14,48.1-21,72.2
			c1.6,3.8-2.4,20.2-0.8,24.1c2.4,0,10.5-14,11.3-16.8c7.7-26.7,15.6-53.4,23.3-79.9C174.1,580.8,184,555.3,183.2,529.4z" style="fill:#57455E;"/>
		<path d="M137.9,171.8c-9.7-8.5-22.4-9.9-33.8-4C92,174,85.6,186.1,80.5,198.1C67,230.2,56.9,264,49.6,298.1
			c-2.4,11.7-2.6,22.4,10.5,27.1c5.5,1.8,11.5,2,17.2,2.2c6.7,0.4,15,2,21.6-0.6c7.1-2.8,8.3-9.9,9.5-16.6
			c1.8-9.7,3.6-19.4,5.3-28.9c3.8-20.8,7.7-41.6,11.5-62.3h0.2c9.5-2.4,20.8-6.7,24.7-16.6C154.5,191.2,146,179.1,137.9,171.8z" style="fill:#57455E;"/>
		<path d="M134.5,217.7c-7.9,0-7.9,12.1,0,12.1C142.2,229.8,142.2,217.7,134.5,217.7z" style="fill:#57455E;"/>
		<path d="M142.2,232.8c-1.6-2.6-5.5-4-8.3-2.2c-2.8-0.4-6.3,1.2-6.9,4.2c-0.8,3.2,1,6.7,4.2,7.5
			c2.8,0.8,6.3,0.4,8.7-1.2C142.6,239.3,144,235.7,142.2,232.8z" style="fill:#57455E;"/>
		<path d="M171.7,357.8c-11.9-13.1-22.2-27.3-30.7-42.9c-3.8-6.9-14.4-0.6-10.5,6.1c9.1,16.4,20,31.3,32.8,45.3
			C168.5,372.1,177,363.4,171.7,357.8z" style="fill:#57455E;"/>
		<path d="M139.6,399.8c-4.4,20-7.5,40.2-9.3,60.7c-0.6,7.7,11.5,7.7,12.1,0c1.6-19.4,4.7-38.4,8.9-57.4
			C152.9,395.4,141.2,392.2,139.6,399.8z" style="fill:#57455E;"/>
		<path d="M241.9,452.6c-13.7-6.1-28.1-9.1-43.3-8.3c-7.7,0.4-7.9,12.5,0,12.1c12.9-0.6,25.3,1.4,37,6.7
			C242.7,466.1,248.9,455.8,241.9,452.6z" style="fill:#57455E;"/>
		<path d="M211.9,695.4c-10.7-15-26.1-20-42.9-24.5c-5.3-1.4-14-5.7-19.2-2c-2,0.4-3.8,1.6-4.9,3.8
			c-2.6,6.3-5.3,12.5-7.9,18.8c-1,2.2,0.6,5.9,2.8,6.9c16.8,7.5,34.4,12.1,52.8,13.5c6.1,0.4,15.2,2.2,20-2.4
			C217,705.1,215.2,699.7,211.9,695.4z" style="fill:#56597A;"/>
	</g>
	<g>
		<path d="M134.9,595.5c-3.2-14.6-6.9-31.9-16.4-44.1c-7.3-9.1-17.2-12.1-27.9-12.7c-1-8.5-3.4-16.6-8.9-23
			c-1.6-2-5.3-2.4-7.3-1c-9.9,6.7-14.4,16.8-16.2,28.3c-20.6,6.5-36.8,20.6-41.2,44.3c-3.4,18-3,37-3.2,55
			c-0.4,20.6-0.2,41.4,0.2,62.1c0.2,7.9,12.3,7.9,12.1,0c-0.8-32.6-1-65.3,0.8-97.9c0.8-14.4,2.8-29.7,13.5-40.4
			c4.7-4.4,10.1-7.7,16.2-10.1c-1.4,15.2-1.6,30.5-2.2,45.5c-1,39.4,0,78.6,3.2,118.1c0.6,7.7,12.7,7.9,12.1,0
			c-2.8-34-4-68.1-3.6-102.3c0.2-17,0.8-34.2,2-51.2c0.2-4,0.4-8.9,0.8-13.5c3.2-0.6,6.3-1,9.5-1.2c0,1,0,2.2,0,3.2
			c0,11.9,0,23.7,0,35.6c0,23.7,0,47.5,0,71.2c0,7.9,12.1,7.9,12.1,0c0-27.7,0-55.4,0-83.1c0-8.3,0.8-18,0.8-27.5
			c2.4,0.2,4.7,0.4,6.9,1c8.7,2.2,13.1,9.3,16.4,17c5.9,14.2,9.1,29.5,11.5,44.7c5.3,32.8,4.4,66.1,4,99.1c-0.2,7.9,11.9,7.9,12.1,0
			C142.6,673.6,143.2,634,134.9,595.5z M76.1,529.4c1.2,3,1.8,6.5,2.2,9.9c-2.4,0.2-4.9,0.6-7.3,1C71.8,536.1,73.4,532.5,76.1,529.4
			z" style="fill:#57455E;"/>
		<path d="M149.5,529.4c-12.5-21.4-37.8-21.6-61.3-18.8c-23.5-2.4-47.7-1.8-67.3,12.9c-8.5,6.3-17.6,16.4-18.8,27.3
			C0.5,565,14,569.5,24.9,573.5c28.1,10.1,62.3,15.6,91.8,9.1C139.8,577.8,163.8,554.1,149.5,529.4z" style="fill:#F7D16F;"/>
	</g>
	<path d="M176,504c-51.4,0.4-103.3-19.4-153.7-1.2c-6.1,2.2-4.9,10.5-0.2,11.9v2.2c0,0.8,0.2,1.8,0.6,2.6
		c-1,2-0.8,4.4,1.2,6.5c45.3,45.5,119.9,38.8,157.3-12.9C183.8,509.2,180.2,504,176,504z" style="fill:#F087B1;"/>
</g>
</svg>
