<?xml version="1.0" encoding="utf-8"?>
<!-- Generator: Adobe Illustrator 23.0.2, SVG Export Plug-In . SVG Version: 6.00 Build 0)  -->
<svg version="1.1" id="Capa_1" xmlns="http://www.w3.org/2000/svg" xmlns:xlink="http://www.w3.org/1999/xlink" x="0px" y="0px" viewBox="0 0 800 783.3" style="enable-background:new 0 0 800 783.3;" xml:space="preserve">

<g>
	<g>
		<path d="M798.9,346.5c-4.1-42.6-17.3-83.7-34-122.9c-15.5-36.4-33-73.3-60.1-102.7c-26.8-29.1-62.4-47.8-98.1-63.3
			c-37.1-16-75.1-29.7-114.3-40c-76.4-19.9-159-26.4-235.2-2.1C183.4,39,123,91.6,76.4,152.6C30.9,212.3,3,281.4,0.2,356.8
			c-2.4,69.9,16,140.9,53.2,200.1c9,14.4,19.3,27.7,30.4,40.5l0,0c-6.4,7.5,3.9,18.4,11.8,22.2c7.8,3.6,17.5,3.6,26,4.7
			c11.8,1.6,23.5,3.3,35.3,4.9c46,6.4,92.1,12.7,138.1,19.1c46,6.4,92.1,12.7,138.1,19.1c41.5,5.7,83.2,13.1,125.2,13.7
			c38.2,0.5,77.5-5.9,110-27.1c29.2-19.3,50.4-48.2,67.1-78.5c18.4-33.6,33.6-69.7,46.4-105.8C795.6,429.9,803,388.8,798.9,346.5z" style="fill:#56597A;"/>
		<path d="M699.3,665.9c-4.4-20.9-28.6-32.6-46.8-38.5c-24-7.7-49.1-11.1-73.1-19.1c-51.7-17.1-100.7-42.9-154.4-53.5
			c-56.1-11.3-113.8-8.2-170.6-4.9c-9.5,0.5-18.9,1.3-28.2,3.3c-15.8,0.3-31.8,1.3-47.7,2.9c-43.9,4.4-107.2,10.1-123.6,60.1
			c-15,46,29.7,92.7,64.6,116.1c21.7,14.5,46.2,21.9,71.8,26.1c28.4,4.6,57,8,85.5,11.4c58.8,7.3,117.7,13.2,176.9,13.5
			c29.7,0.2,59.4-1,89.1-4.2c26-2.8,52.2-6.4,76.9-15.3c22-8,42.6-20.2,57.8-38.2C690.7,710.3,703.6,686.7,699.3,665.9z" style="fill:#B4C7E7;"/>
		<path d="M367.1,594.1c4.4-4.4-2.4-11.4-6.9-6.9c-15.5,15.7-31.3,34-34.3,56.6c-2.4,18.8,4.4,38.7,21.1,48.8
			c5.4,3.3,10.3-5.2,4.9-8.5c-14.7-9-19.3-27.9-15.5-43.9C341,621.9,354.3,607.2,367.1,594.1z" style="fill:#74A2D6;"/>
		<path d="M362.6,689.4c-1-0.3-2-0.7-2.8-0.7c-1-1-2.4-1.3-4.2-1c-6,1.5-10.3,7.3-10.1,13.5c0.2,6.5,5.5,11.3,11.8,11.9
			c5.9,0.5,11.6-3.1,12.9-9.1C371.4,698.3,368.3,691.7,362.6,689.4z" style="fill:#57455D;"/>
		<path d="M568.4,690.9c-0.8-1.1-2-2-3.8-2.1c-9-0.5-16.3,9-12.6,17.5c3.9,8.7,15.7,10.3,21.2,2.4
			C577.5,702.2,575.1,693.9,568.4,690.9z" style="fill:#57455D;"/>
		<path d="M523.4,729.4c-3.1-0.7-6,0-8.5,1.3c-0.5,0.2-1,0.3-1.3,0.5c-6.2,3.4-8.3,12.1-4.7,18.1
			c3.9,6.9,13.1,7.3,18.9,2.8c0.2-0.2,0.2-0.2,0.3-0.3c0.7-0.3,1.1-0.8,1.8-1.3C537.1,743.6,532.8,731.6,523.4,729.4z M520.1,743.6
			c0.2-0.3,0.3-0.7,0.8-1c0.2-0.2,0.3-0.2,0.5-0.3l0.2,0.2c0.2,0.5-0.5,1-1.3,1.3C520.3,743.8,520.3,743.6,520.1,743.6z" style="fill:#57455D;"/>
		<path d="M568.1,686c-48.5-14-97.4-26-146.9-36.1c-1.3-0.3-2.6,0-3.6,0.5c-0.8-0.2-1.6-0.2-2.6,0.3
			c-21.7,9.1-42.6,19.9-62.5,32.8c-1.1,0.8-1.8,1.8-2.1,2.8c-4.6,0.8-5.9,8.2-0.5,9.5c42.3,10.6,84.7,21.2,127,31.8
			c10.4,2.6,20.9,5.2,31.3,7.8c7.3,1.8,13.7,2.8,20.6-1.5c7.3-4.6,13.9-11.4,20.1-17.5c7.5-7.2,14.5-14.7,21.4-22.5
			C572.6,691.4,571.7,687,568.1,686z" style="fill:#74A2D6;"/>
		<path d="M434.6,561.5c4.4-4.4-2.4-11.4-6.9-6.9c-15.5,15.7-31.3,34-34.3,56.6c-2.4,18.8,4.4,38.7,21.1,48.8
			c5.4,3.3,10.3-5.2,4.9-8.5c-14.7-9-19.3-27.9-15.5-43.9C408.4,589.2,421.5,574.5,434.6,561.5z" style="fill:#74A2D6;"/>
		<path d="M198.5,280.4c-2.1-3.3-4.1-6.4-6.2-9.6c-1.8-2.9-5.2-2.9-7.7-1c-22.2,17.8-52.7,29.1-63,57.9
			c-4.6,13.1-2.3,26.9,2.8,39.3c2.3,5.4,4.7,11.3,9.3,15.3c5.2,4.9,12.6,4.7,18.4,8.5c2.8,1.8,6.2,0,7.2-2.9c0.7-1.8,0.8-3.3,1-4.9
			c0.5-0.5,0.8-1.1,1-2c0.5-2.4-0.8-5.4-3.4-6c-1.3-0.3-2.6-0.5-4.1-0.8c-0.8-0.7-1.8-1.3-2.6-2c-1-0.7-1.8-1.3-2.9-1.3
			c-11.8-13.5-16.3-31.3-3.9-47.5c12.7-16.5,32.2-28.4,51.3-35.9C198.4,286.4,200.5,283.2,198.5,280.4z" style="fill:#57455D;"/>
		<path d="M295.5,230.1c-5.2-10.8-14-19.3-25.1-23.8c-11.9-5.1-26.9-8.8-39.8-7.3c-22.4,2.6-41.9,22.5-46.4,44.2
			c-4.9,24.2,10,49.6,34.4,55.2c0.7,0.2,1.1,0.2,1.6,0.2c10.9,3.9,22.5,5.2,34.3,5.9c10.8,0.7,22.7,0.5,31.8-6.4
			c9.5-7.2,12.9-20.6,14.4-31.8C302.3,254,300.9,241.4,295.5,230.1z" style="fill:#B4C7E7;"/>
		<path d="M207.7,308c-0.5-1.1-1.5-2.1-3.3-2.4c-11.1-2-25-4.6-35.6,0.5c-10.9,5.2-13.1,17-14.4,27.7
			c-4.1,32.2-6.9,64.5-8.3,96.8c-0.5,10.1-2.4,22.9,9.5,26.9c12.1,4.2,28.9,3.9,41.5,2.8c13.4-1.3,11.9-12.7,12.4-23.7
			c0.7-16.2,1.3-32.3,2-48.3c0.8-18.3,1.5-36.6,2.3-54.8C214.2,325.6,215.2,312.4,207.7,308z" style="fill:#EF86B0;"/>
		<path d="M272.1,243.7c-0.7-8-2.6-17.1-9.5-22.2c-3.1-2.3-6.4-3.1-9.6-2.9c-19.9-4.9-28.4,17.3-27.9,33.5
			c0.5,15.2,5.1,40.6,26.1,36.6C271.3,284.8,273.6,260.3,272.1,243.7z" style="fill:#F7D3BC;"/>
		<path d="M272,223.3c-5.5-7.5-15.2-10.9-24.3-10c-16.3,1.8-30.5,19.3-28.7,35.6c-11.1,1.5-18.6,15.7-7.8,25
			c9.8,8.5,22.2-1.1,23.7-10c0.7-0.3,1.1-0.8,1.8-1.1l36.1-5.1c2.8-0.3,4.1-3.6,3.3-6.2C277.5,241.7,278,231.4,272,223.3z" style="fill:#57455D;"/>
		<path d="M404.7,409.4c-5.9-8.5-18.8-10.1-27.4-14c-11.3-5.2-21.7-12.1-31.3-19.9c-19.3-15.8-35.3-35.6-49.5-56
			c-6-8.7-11.9-23-23.2-26c-7.7-2.1-16.6-1.6-24.5-2.3c-9.1-0.7-18.1-1.3-27.3-2.1c-1.3-0.2-2.3,0.2-2.9,0.8
			c-10.1-1-17.3,5.2-22.5,13.7c-7.7,12.6-12.2,28.1-16.2,42.1c-4.2,14.5-7.3,29.5-8.8,44.7c-1.1,10.9-0.8,23.7,6.2,32.5
			c3.8,4.7,10.9,6.7,11.6,13.1c1,8.3-1.5,18.4-2.1,26.9c-1.3,17.1-2.4,34.1-3.3,51.3c-2,34.8-3.1,69.5-3.6,104.3
			c-0.2,9.3-0.3,18.6,0.3,27.9c0.5,6.5,0.7,14.7,4.6,20.2c4.1,5.5,11.4,6.9,17.8,8.5c9.1,2.3,18.3,4.1,27.4,5.4
			c3.6,0.5,8.3-3.3,5.5-7.2c-2.8-3.8-5.5-7.7-8.3-11.4c11.3-1.1,22.7-1.3,34-0.8c3.4,0.2,5.2-3.3,4.7-6.2
			c-2-9.8-14.2-11.8-12.6-22.9c1.8-11.9,5.9-23.7,8.7-35.4c5.7-24.5,10.8-49.1,15.2-73.8c8.5-47.5,14.4-95.5,17.8-143.6
			c21.9,15.7,45.4,28.6,70.4,38.5c9.3,3.6,22,10.6,32.3,8.5C405.5,424.5,409.4,416,404.7,409.4z" style="fill:#FFFFFF;"/>
		<path d="M276.6,578.8c1-3.1-1.6-6-4.7-6.2c-18.3-0.5-36.4-1-54.7-1.6c-8.5-0.2-17.1-1-25.8-0.8
			c-4.7,0.2-9,1.1-11.3,5.5c-0.7,1.3-0.7,2.4-0.3,3.4c-1.3,12.7-2.4,25.5-3.4,38.2c-1,11.6-3.8,24.5-2,36.1
			c3.1,18.8,27.7,25.5,43.4,29.2c6,1.5,17.8,5.2,20.2-3.8c1-3.3-0.8-6.5-2.8-9.1c-1-1.1-2.1-1.8-1.6-2.8c0.3-0.7,9.1,0.2,9.8,0.2
			c2.6,0,5.9,0.3,9.1,0.3c0.5,0.3,1.1,0.5,2,0.5c7.3,0.5,17.5-1.5,17.8-10.8c0.2-3.8-1.6-6.7-3.9-9.6c-2.4-3.1-5.1-6.2-7.7-9.3
			c0.5-7.3,2.6-14.7,4.7-21.9C269,604.2,273,591.5,276.6,578.8z" style="fill:#74A2D6;"/>
		<path d="M283.7,389.8c0.2-13.9-0.3-27.6-1.3-41.5c-0.2-2.8-2.1-4.7-4.9-4.9c-8.3-0.3-16.5-0.2-24.6,1
			c-5.4,0.8-11.3,1.1-13.5,6.7c-2.4,5.9-1.8,14-2.3,20.4c-0.8,9.3-1.5,18.4-2.3,27.7c0,0.3,0,0.7,0,1c-0.3,2.9-0.7,6-1,9
			c-0.2,2.1,0.7,3.4,2.1,4.1c1,3.6,2.8,6.5,6.9,7c9.6,1.3,21.1-5.2,29.1-9.8c3.3-1.8,7.2-3.6,9.5-6.5
			C284.2,399.9,283.6,394.7,283.7,389.8z" style="fill:#F7D06F;"/>
		<path d="M233.6,363c-0.8-1.6-2.4-2.9-4.1-3.3c-2.1-0.5-4.4,0-6,1.6c-1.3,1.3-2.3,3.1-2.1,5.1c0.2,1.3,0.5,2.4,1.5,3.4
			l0.2,0.2c0.2,0.2,0.2,0.3,0.3,0.5c1.3,1.3,2.9,2,4.7,2c2.1-0.2,4.2-1.1,5.4-3.1C234.6,367.2,234.8,365,233.6,363z" style="fill:#74A2D6;"/>
		<path d="M224.8,379.8c-3.9,1.1-6,6.4-3.8,9.8c0.7,0.8,1.3,1.5,2.1,2c0,0,0,0,0.2,0.2c4.1,2.4,9.5-0.7,9.8-5.4
			C233.5,381.9,229.1,378.7,224.8,379.8z" style="fill:#74A2D6;"/>
		<path d="M287.8,294.8c-9.8-6.7-26-4.6-37.4-4.9c-15.2-0.7-31.3-2.8-46.4-0.7c-2.9,0.3-5.9,2.9-4.7,6.2
			c3.3,9,16.5,6.9,24.3,7.2c6.9,0.3,13.7,0.7,20.6,0.8c2.3,0.2,4.7,0.3,7,0.5c7.3,0.5,14.9,0.8,22.2,1.1c5.1,0.2,9.8,0.8,14.4-1.8
			C291.2,301.3,290.8,296.7,287.8,294.8z" style="fill:#EF86B0;"/>
		<path d="M635.7,601.5c-2.9-2.9-3.4,9-7.2,7.7c-6.7-2.1-24.6-8.8-31.3-10.6c-28.1-8-49.6-23.5-77.9-31l-43.1-11.4
			c-11.9-3.1-22.5-5.7-34.6-1.5c-28.2,10.1-55.7,24-81.8,38.5c-5.2,2.9-0.8,10.4,4.2,8.3c0.3,0.2,0.5,0.3,0.8,0.3
			c60.9,21.2,123.1,29.9,185.9,45.2c1.3,0.3,7.2,0,8.2-0.5c0,0,7.5-1.6,8.5-2c25.1-10.3,39-11.3,61.9-25.6
			C635.3,614.9,642.5,608.3,635.7,601.5z" style="fill:#F7D06F;"/>
		<path d="M662.3,539.8c0.3-1.8-0.3-3.6-2.3-4.6c-1.5-0.8-2.8-1.5-4.2-2.3c-0.3-0.8-1.1-1.6-2.3-2.1
			c-68.9-31-139.9-57.3-212.4-78.5c-0.5-0.2-1-0.2-1.5-0.2c-0.7-1-1.8-1.6-2.8-1.6c-3.9-14.4-7.8-28.7-11.8-43.1
			c-1.6-6-11.1-3.4-9.5,2.6c4.1,15.2,8.3,30.4,12.4,45.5c-27.9,18.3-62.2,23.3-92.2,37.7l-8-35.7c-1.3-6.2-10.8-3.6-9.5,2.6
			c10,44.2,19.8,88.5,29.7,132.7c0.3,1.5,1.1,2.4,2.1,2.9c0.3,2.8,2.6,5.2,6,4.4c0.5-0.2,0.8-0.2,1.3-0.3
			c64.6,26.3,132.7,43.1,202.1,50.4c2,0.2,3.4-0.7,4.1-2c13.9-5.7,27.9-11.4,41.8-17.1c11.9-4.9,23.7-9.6,33.8-17.8
			c1.5-1.1,2-2.8,1.6-4.1c7.3-21.7,14.7-43.6,22-65.3C663.4,542.2,663.1,540.7,662.3,539.8z M592.2,516.4c0-0.3,0-0.8,0-1.1
			c7.5,3.1,15,6.2,22.5,9.3c0,0.2,0,0.2,0,0.3c-1.3,7-2.3,14.2-3.3,21.4c-7.5-3.1-14.9-6-22.4-9
			C590.3,530.3,591.4,523.3,592.2,516.4z M556.2,501.1c9.8,3.6,19.4,7.5,29.1,11.3c-1.5,0.7-2.4,2.1-2.8,3.9
			c-0.8,5.7-1.6,11.4-2.6,17.1c-8.5-3.4-17-6.7-25.6-10c0.7-7,1.3-14.2,1.8-21.4C556.2,501.9,556.2,501.4,556.2,501.1z M409.1,582.4
			c-1.6-0.3-3.1-0.8-4.7-1.1c0.7-0.3,1.3-0.7,2-1c0.8-0.5,1.6-0.8,2.6-1.3C408.9,580.1,408.9,581.2,409.1,582.4z M423.8,560.7
			c-2-6.4-3.9-12.9-5.9-19.3c1.5-0.7,2.9-1.1,4.4-1.8c5.9,2.3,11.9,4.7,17.8,7c0,3.1,0,6.2,0,9.3c-5.1,1.6-10,3.3-14.9,5.2
			C424.6,561,424.1,560.8,423.8,560.7z M378.7,522.3c8.8,3.4,17.5,7,26.3,10.4c0.2,0.7,0.5,1.5,0.7,2.1c0,0.3,0,0.7,0,1.1
			c-2.4,1-4.7,2-7.2,2.9c-5.2,2.1-10.6,4.1-15.8,6C381.2,537.3,379.9,529.8,378.7,522.3z M406.5,546.1c0.2,2.9,0.5,5.9,0.7,8.8
			c-4.1-1.5-8-2.8-12.1-4.2C398.8,549.1,402.6,547.6,406.5,546.1z M456.1,521c-2.3-8.5-4.6-16.8-6.9-25.3c9.1,3.1,18.1,6.2,27.1,9.5
			c-0.8,7.3-1.8,14.9-2.6,22.2C467.9,525.2,462,523.1,456.1,521z M472.6,537.3c-0.5,3.6-0.8,7.3-1.3,10.9c-2.9-1.1-5.7-2.3-8.7-3.4
			c-1.1-4.1-2.3-8.3-3.4-12.4C463.6,534.2,468,535.7,472.6,537.3z M451.2,540.6c-5.5-2.1-10.9-4.2-16.5-6.5c3.9-1.6,9.3-3.1,13.1-6
			C448.9,532.3,450.1,536.3,451.2,540.6z M453.8,552c-1.3,0.3-2.6,0.7-3.9,1.1c0-0.8,0-1.8,0-2.6C451,550.9,452.5,551.5,453.8,552z
			 M449.7,563.1c3.8-1,7.5-2,11.3-2.9c2.3-0.5,3.4-2.3,3.4-4.1c4.4,1.8,9,3.4,13.4,5.2c-0.7,5.2-1.5,10.6-2.1,15.8
			c-8.7-2.6-17.5-5.2-26.1-8C449.7,567.2,449.7,565.2,449.7,563.1z M505.1,585.3c-6.5-1.8-13.2-3.4-19.8-5.4c0.7-5.1,1.3-10,2-15
			c6.7,2.6,13.4,5.2,20.2,7.8l0,0C506.5,577,505.7,581.1,505.1,585.3z M534.9,592.5c-6.9-1.5-13.7-3.1-20.4-4.7
			c0.7-3.8,1.5-7.7,2.1-11.4c6.7,2.6,13.5,5.2,20.2,7.8c-0.3,0.5-0.5,1-0.7,1.6C535.9,587.9,535.4,590.2,534.9,592.5z M562.7,598
			c-6-1.1-12.1-2.3-18.1-3.4c0.3-2.1,0.8-4.1,1.1-6.2c0-0.3,0-0.7,0-1c6,2.3,11.9,4.6,18,6.9C563.3,595.4,563,596.7,562.7,598z
			 M570.2,607.7c0.8,0.3,1.6,0.3,2.8,0.2c4.7-1.1,9.3-2.4,14-3.9c-0.2,2.6-0.2,5.2-0.3,8c-6,2.1-12.2,4.2-18.4,6.2
			c-0.2,0-0.3,0.2-0.5,0.2C568.4,614.7,569.2,611.3,570.2,607.7z M573,597.6c0.2-0.5,0.3-1,0.5-1.5c0.3-1.3,0.2-2.4-0.3-3.4
			c0.2,0,0.3-0.2,0.5-0.2c4.6-2.4,9.3-4.9,13.9-7.2c-0.2,2.8-0.2,5.5-0.3,8.2C582.4,594.9,577.7,596.4,573,597.6z M580.6,577.8
			c0.3-1.5,0.7-2.9,1.1-4.4c1.6,0.5,3.3,1,4.7,1.5C584.6,575.8,582.6,576.8,580.6,577.8z M553.2,533.6c8.3,3.3,16.6,6.5,25,9.8
			c-1.1,5.9-2.3,11.8-3.6,17.6c-8-2.4-15.8-4.9-23.8-7.5C551.6,547,552.6,540.3,553.2,533.6z M572.3,570.6c-1.1,4.4-2.3,9-3.4,13.4
			c0,0-0.2,0-0.2,0.2c-0.7,0.3-1,0.7-1.3,1.1c-7-2.6-14.2-5.4-21.2-8.2c0.8-0.7,1.3-1.5,1.5-2.8c0.7-3.6,1.1-7.3,1.8-10.9
			C557,565.7,564.6,568.2,572.3,570.6z M519.4,487.9c9.8,3.4,19.6,7,29.2,10.6c-1.3,0.8-2.1,2.1-2.3,3.9c-0.5,5.9-1,11.8-1.5,17.8
			c-8.8-3.3-17.5-6.7-26.3-10C518.9,502.7,519.3,495.2,519.4,487.9z M518,520.3c8.7,3.3,17.3,6.4,25.8,9.6
			c-0.8,6.9-1.6,13.7-2.6,20.6c-8.3-2.6-16.5-5.4-24.6-8.2C517.2,535,517.6,527.7,518,520.3z M514.9,563.1c0.3-3.6,0.7-7.2,1-10.8
			c8,2.6,16,5.4,24,8c-0.7,3.8-1.1,7.5-1.8,11.4c-0.2,0.8,0,1.6,0.2,2.4c-8-3.1-15.8-6-23.8-9.1
			C514.7,564.4,514.9,563.8,514.9,563.1z M489.4,477.6c6.9,2.3,13.7,4.6,20.6,6.9c0,0.2,0,0.2,0,0.3c-0.2,7.2-0.5,14.5-0.8,21.7
			c-7.3-2.6-14.7-5.4-22-8C487.8,491.6,488.6,484.6,489.4,477.6z M485.8,508.4c7.5,2.8,15.2,5.4,22.7,8.2
			c-0.3,7.5-0.8,14.9-1.5,22.4c-8-2.8-16-5.5-24-8.3C484,523.3,484.8,515.9,485.8,508.4z M481.9,540.7c8.2,2.9,16.2,5.7,24.3,8.5
			c-0.3,4.1-0.7,8.2-1,12.2c-8.2-3.1-16.5-6.4-24.6-9.5L481.9,540.7z M479.9,474.5c-0.8,6.9-1.6,13.9-2.4,20.7
			c-10.4-3.8-20.9-7.3-31.5-10.9c-2-7.3-4.1-14.7-6-22C453.3,466.2,466.7,470.2,479.9,474.5z M439.1,496.2c2,7.2,3.9,14.2,5.9,21.4
			c-1.3,0.2-2.4,0.8-3.1,2.3l0,0c-0.3,0.2-0.8,0.5-1.5,0.8c-2,0.8-3.8,1.8-5.7,2.6c-3.8,1.8-7.5,3.4-11.4,5.1
			c-0.5,0.2-0.8,0.3-1.3,0.5c-2.9-1.1-6-2.4-9.1-3.6c-1.8-5.5-3.4-11.3-5.2-16.8C418.2,504.5,428.7,500.4,439.1,496.2z M430.8,465.3
			c2,7.2,3.9,14.2,5.9,21.4c-10.6,4.2-21.2,8.3-31.7,12.6c-2-6.4-3.9-12.7-5.9-18.9C409.9,476.3,420.7,471.5,430.8,465.3z
			 M401.3,520.8c-4.1-1.6-8-3.3-12.1-4.7c3.1-1.3,6.2-2.4,9.3-3.8C399.5,515.1,400.4,517.9,401.3,520.8z M389.7,483.6
			c2,6.4,4.1,12.9,6,19.4c-6.5,2.6-13.1,5.2-19.6,7.8c-3.1-1.1-6-2.4-9.1-3.6l-4.1-14.4C371.7,489.5,380.7,486.6,389.7,483.6z
			 M366.3,540.3c-6.7-2.4-13.2-4.9-19.9-7.3l16-6.4L366.3,540.3z M353.6,496c0.7,2.1,1.1,4.2,1.8,6.4c-2.9-1.1-5.9-2.3-8.8-3.6
			C349,498,351.3,497,353.6,496z M358.8,514.3l0.8,2.9c-5.7,2.3-11.3,4.4-17,6.7c-1.3-5.9-2.6-11.8-3.9-17.6
			C345.4,508.9,352.1,511.7,358.8,514.3z M350,556.4c-1-4.2-2-8.5-2.9-12.9c6.4,2.3,12.9,4.7,19.3,7c-4.9,1.8-10,3.4-14.9,5.1
			C350.8,555.9,350.3,556.3,350,556.4z M352,565.4c0.7,0,1.3,0,2.1-0.2c5.9-2,11.8-3.9,17.6-6l4.2,15c-4.7-1.1-9.3-2.3-14-3.4
			c-1-1-2.1-1.6-3.6-1.6c-2.1,0-3.9-0.3-5.9-1.5C352.3,567,352.1,566.2,352,565.4z M357.4,589.2c-0.8-3.4-1.6-7-2.3-10.4
			c0.3,0,0.7,0,0.8,0.2c0.5,0.5,1.1,0.8,2,1c5.5,1.3,10.9,2.8,16.5,4.1c-5.4,2.1-10.8,4.1-16.3,5.5
			C357.8,589.4,357.5,589.4,357.4,589.2z M372.4,595.3c3.3-1.1,6.5-2.4,9.6-3.8c0.7,2.8,1.1,5.4,1.8,8.2
			C380.2,598.2,376.3,596.7,372.4,595.3z M389.2,577.5c-1.5-6.7-2.8-13.4-4.1-19.9c7.7,2.8,15.2,5.4,22.9,8c0,1,0.2,2,0.2,2.9
			c-0.5,0.3-1.1,0.5-1.6,0.8C400.6,572.1,394.9,574.9,389.2,577.5L389.2,577.5z M394.9,603.4c-1.1-5.1-2.4-10.3-3.6-15.3
			c6.2,1.5,12.2,2.9,18.4,4.6c0.3,5.4,0.8,10.8,1.1,16.3C405.7,607.2,400.3,605.4,394.9,603.4z M439.9,617.5
			c-6.4-1.8-12.7-3.6-18.9-5.5c0-0.3,0-0.7,0-1c-0.3-5.4-0.8-10.6-1.1-16c6.7,1.6,13.4,3.3,20.1,4.9
			C439.9,605.9,439.9,611.8,439.9,617.5z M419.1,584.8l-0.8-10.3c2.3-1,4.7-2,7.2-2.9c4.9,1.6,9.6,3.3,14.5,4.7c0,4.6,0,9,0,13.5
			C432.9,588.2,426.1,586.5,419.1,584.8z M469.7,625.1c-6.7-1.6-13.4-3.3-20.1-4.9c0.2-0.5,0.2-1,0.2-1.5c0-5.4,0-10.8,0-16.3
			c7.3,1.8,14.7,3.6,22,5.4L469.7,625.1z M449.7,592.3c0-4.2,0-8.5,0-12.7c8.2,2.6,16.5,5.1,24.8,7.5c-0.5,3.6-1,7.3-1.5,10.9
			C465.4,596.1,457.6,594.1,449.7,592.3z M499.5,631.5c-6.9-1.3-13.5-2.8-20.4-4.2l0,0c0.8-5.7,1.5-11.4,2.3-17.1
			c6.5,1.6,13.1,3.3,19.6,4.7C500.3,620.4,499.8,626,499.5,631.5z M482.5,600.3l1.5-10.6c6.5,1.8,12.9,3.6,19.4,5.2
			c-0.5,3.4-1,6.7-1.5,10.1C495.6,603.4,489.1,602,482.5,600.3z M525.1,635.9c-5.4-0.8-10.8-1.6-16.2-2.6c0-0.2,0-0.3,0-0.5
			c0.3-5.2,0.7-10.4,1.3-15.5c6,1.5,12.2,2.9,18.3,4.4C527.6,626.4,526.5,631.2,525.1,635.9z M511.6,607.3c0.5-3.3,0.8-6.7,1.5-10
			c6.7,1.6,13.4,3.3,20.1,4.7c-0.7,3.4-1.5,6.7-2.1,10.1C524.5,610.6,518,609,511.6,607.3z M555.5,629.5c0,0.3-0.7,5.2-0.7,7.3
			c-0.7,0.3-1.1,1-1.6,1.6c-0.2,0.2-0.2,0.3-0.3,0.7c-0.2,0.2-0.2,0.3-0.3,0.7c-5.9-0.7-11.8-1.5-17.8-2.3c1.1-4.4,2.3-8.8,3.3-13.4
			c4.6,1.1,9.1,2.3,13.7,3.4c1.6,0.3,3.1,0,4.1-0.8C555.8,627.6,555.7,628.6,555.5,629.5z M557.8,617.5c-0.2,0.8-0.3,1.6-0.5,2.4
			c-0.5-0.8-1.5-1.5-2.8-1.8c-4.7-1.1-9.5-2.3-14.2-3.4c0.8-3.4,1.5-6.9,2.3-10.4c5.9,1.1,11.6,2.3,17.5,3.4
			C559.3,610.8,558.4,614,557.8,617.5z M564.8,637.2c0.7-3.8,0.7-7.8,1.1-10.9c1,1.3,2.6,2,4.7,1.3c5.2-1.6,10.3-3.4,15.5-5.2
			c0,0.7,0,1.1,0,1.8c0,1.8,0.7,2.9,1.6,3.8C580.2,631,572.5,634.1,564.8,637.2z M593.7,566.9c-3.3-1-6.5-2-9.8-2.9
			c1.3-5.5,2.4-11.3,3.4-16.8c7.7,3.1,15.3,6.2,23,9.3c-0.2,2.1-0.5,4.4-0.7,6.5c-4.2,2.3-8.7,4.6-12.9,6.7
			C596.3,568.3,595.3,567.2,593.7,566.9z M597,624c-0.3,0.2-0.8,0.3-1.1,0.5c0-0.2,0-0.3,0-0.5c0-1.8,0.2-3.6,0.2-5.2
			c7.5-2.8,15-5.7,22.5-8.8c0,0.8-0.2,1.5-0.2,2.3c-0.2,1.1,0.2,2,0.5,2.6C611.8,618.3,604.3,621.1,597,624z M619.8,598.9
			c-7.7,3.3-15.5,6.4-23.3,9.3c0.2-2.4,0.2-5.1,0.3-7.5c8.2-2.8,16.2-6,23.8-9.6C620.3,593.6,620.1,596.2,619.8,598.9z M621.8,579.4
			c-8,3.9-16.3,7.5-24.6,10.6c0.2-2.8,0.2-5.7,0.3-8.5c0-0.5,0-1-0.2-1.3c8.7-4.4,17.3-9,26-13.7
			C622.8,570.9,622.3,575.2,621.8,579.4z M620.8,550.1c0.8-7.2,2-14.4,3.3-21.5c7.7,3.3,15.2,6.5,22.9,10c0.3,0.5,0.8,1,1.5,1.5
			c-7.8,5.4-16,10.3-24.3,15C623.9,553,623.1,550.9,620.8,550.1z M631.1,607.3c-0.8,0.7-1.6,1.1-2.6,1.8c0.2-1.1,0.3-2.4,0.3-3.6
			c1.1-0.5,2.1-1,3.3-1.5L631.1,607.3z M635.7,593.8c-1.3-0.7-2.8-0.8-4.4,0c-0.3,0.2-0.8,0.3-1.1,0.5l0.8-8.5
			c3.1-1.6,6-3.3,9.1-5.1L635.7,593.8z M644.8,567c-0.5,0.2-1,0.3-1.6,0.7c-3.6,2.3-7.3,4.4-10.9,6.4c0.3-3.6,0.8-7.2,1.1-10.9
			c0.2-0.8,0-1.5-0.3-2.1c5.9-3.4,11.8-7,17.3-10.8L644.8,567z" style="fill:#57455D;"/>
		<path d="M433.9,395.8c-6.5-8.2-21.1,1.3-28.1,4.2c-11.4,4.7-22.9,9.8-34,15.2c-12.6,6-25,12.7-37.1,19.6
			c-6,3.4-12.1,7-18,10.8c-3.8,2.3-8.3,4.6-10.6,8.7c-3.6,6.7,1.1,13.7,8.8,12.4c3.1-0.5,6.2-2,9.1-3.6c0.8,0,1.6-0.2,2.4-0.5
			c19.6-10.1,39-20.1,58.6-30.2c16.8-8.7,34.4-16.8,48.5-29.9C436,400.9,435.5,397.9,433.9,395.8z" style="fill:#EF86B0;"/>
		<path d="M393.4,397.3c-11.3-7.2-24.2-12.4-36.4-18.1c-2.8-1.8-5.7-3.8-8.5-5.5c-2.4-1.6-5.2-0.3-6.7,1.8
			c-5.5,7.5-10.6,15.2-15.2,23.3c-2,3.6,0.8,6.9,3.9,7.3c0.5,0.5,1,1,1.6,1.1c7.8,3.1,15.7,6,23.7,9c5.1,2.6,10.1,5.2,15.5,6.5
			c1.5,0.3,3.3,0.7,5.4,1c0.7,0.2,1.3,0.5,2,0.7c8.5,2.9,23.5,9.5,28.2-2.4C411.1,412,401.1,402.2,393.4,397.3z" style="fill:#74A2D6;"/>
		<path d="M391.1,351.9L344,329c-2.1-1-4.1-0.7-5.9,0.8c-22,17.5-37.2,41.8-43.4,69.2c-1,4.6,4.1,7.2,7.2,5.7
			c14.5,2,28.4,5.7,41.9,11.3c2.3,1,5.5-1,6-3.4c4.6-23.3,23.3-38.5,41.3-52.2C393.9,358.4,394.9,353.7,391.1,351.9z" style="fill:#B4C7E7;"/>
		<path d="M302.7,395.2c-2.9-11.6-16.3-12.4-25.8-9.3c-14.9,4.9-28.9,10-44.6,12.4c-2.3,0.3-3.4,2-3.6,3.6
			c-0.7,1-1,2.3-0.5,3.9c2.3,8.5,5.2,16.6,9,24.6c1,2,3.6,2.8,5.5,2.3c14.2-3.4,27.9-8.3,40.8-15.2
			C291.9,413.1,305.8,406.9,302.7,395.2z" style="fill:#74A2D6;"/>
		<path d="M266.1,589.1c-10.3-0.5-20.7-1.1-31-1.8c0.5-3.6,0.8-7.2,1.3-10.8c4.2-32.3,9.5-64.5,15.5-96.6
			c1.1-6.2-8.3-8.8-9.5-2.6c-6.7,36.1-12.4,72.3-17.1,108.7c0,0.2,0,0.3,0,0.5c-14.2-1.1-28.2-2.8-42.4-4.6c-6.2-0.8-6.2,9,0,9.8
			c13.7,1.8,27.4,3.3,41.1,4.4c-1.8,13.9-3.8,27.7-4.4,41.6c-0.5,11.1,1.6,23.3,12.2,28.9c5.5,2.9,10.6-5.5,4.9-8.5
			c-11.3-5.9-7.2-24-6.2-34.1c1-9,2-18.1,3.1-27.1c10.8,0.8,21.5,1.5,32.3,2C272.5,599.2,272.5,589.4,266.1,589.1z" style="fill:#57455D;"/>
		<path d="M228.1,429.1c-12.1,5.4-25.1,5.1-37.4,0.2c-5.9-2.3-8.3,7.2-2.6,9.5c14.9,5.9,30.4,5.2,44.9-1.1
			C238.9,435,233.8,426.5,228.1,429.1z" style="fill:#57455D;"/>
		<path d="M227.3,392.7c-8.8,1.6-17.8,2.4-26.8,2.6c3.6-16.5,7.2-33,11.1-49.5c1.5-6.2-8-8.8-9.5-2.6
			c-4.4,18.4-8.5,37.1-12.4,55.7c-0.7,3.1,1.5,6.2,4.7,6.2c11.9,0.2,23.7-0.8,35.4-3.1C236.1,401,233.5,391.6,227.3,392.7z" style="fill:#57455D;"/>
		<path d="M272.1,362.3c-9.1,0.8-18.1,1.6-27.3,2.3c-6.2,0.5-6.4,10.3,0,9.8c9.1-0.8,18.1-1.6,27.3-2.3
			C278.4,371.6,278.5,361.9,272.1,362.3z" style="fill:#57455D;"/>
		<path d="M267.7,378.7c-6.2,0.5-12.2,1-18.4,1.5c-6.2,0.5-6.4,10.3,0,9.8c6.2-0.5,12.2-1,18.4-1.5
			C274.1,388,274.1,378.2,267.7,378.7z" style="fill:#57455D;"/>
		<path d="M254.8,420.8c-3.1-7-5.5-14.4-7.5-21.7c-1.6-6-11.1-3.4-9.5,2.6c2.3,8.3,5.1,16.2,8.5,24
			C249,431.4,257.3,426.5,254.8,420.8z" style="fill:#57455D;"/>
		<path d="M243.4,263.3c-2.6,0.2-4.9,2.1-4.9,4.9v0.8c0,2.6,2.3,5.1,4.9,4.9s4.9-2.1,4.9-4.9v-0.8
			C248.3,265.5,246,263.1,243.4,263.3z" style="fill:#57455D;"/>
		<path d="M263.8,262.4c-6.4,0-6.4,9.8,0,9.8C270,272.2,270,262.4,263.8,262.4z" style="fill:#57455D;"/>
		<path d="M262.2,276.3h-11.4c-6.4,0-6.4,9.8,0,9.8h11.4C268.4,286.1,268.4,276.3,262.2,276.3z" style="fill:#57455D;"/>
		<path d="M512.9,721.9c-46.2-11.1-91.6-24.6-136.1-41c-5.9-2.1-8.5,7.3-2.6,9.5c44.6,16.3,90.1,29.9,136.1,41
			C516.3,732.9,518.9,723.4,512.9,721.9z" style="fill:#57455D;"/>
		<path d="M528.3,703c-42.8-9.1-84.6-21.7-125.4-37.4c-5.9-2.3-8.5,7.2-2.6,9.5c40.8,15.7,82.6,28.1,125.4,37.4
			C531.7,713.8,534.3,704.3,528.3,703z" style="fill:#57455D;"/>
		<path d="M548.8,690.1c-21.1-3.4-41.6-10.8-62-17c-20.9-6.2-41.9-12.4-62.8-18.8c-6-1.8-8.7,7.7-2.6,9.5
			c20.9,6.2,41.9,12.4,62.8,18.8c20.4,6,41,13.5,62,17C552.4,700.5,555,691.1,548.8,690.1z" style="fill:#57455D;"/>
		<path d="M629,323.7c-1,0.5-2,1-3.1,1.5c-0.3,0-0.7-0.2-0.8,0c2.1-4.2-3.9-9.5-8-5.5c-2.6,2.6-3.1,6.2-2,9.5
			c0,2.1-0.8,3.9-2.1,5.4c-3.4,0.7-6.7,2.3-9.3,5.2c-3.3,3.9,0,9,4.7,8.2c3.4-0.5,6.4-1.8,8.7-3.8c1.1,0.2,2.1,0.7,3.1,1.5
			c2.8,2.6,9,1.1,8.3-3.4c-0.5-4.4,1.1-7.8,5.1-10C639.6,329.4,634.7,320.9,629,323.7z" style="fill:#F7D06F;"/>
		<path d="M515.8,432.2c-2.3-7.5-4.6-15.2-6.9-22.7c-1.8-6-11.3-3.4-9.5,2.6c2.3,7.5,4.6,15.2,6.9,22.7
			C508.2,440.9,517.6,438.2,515.8,432.2z" style="fill:#74A2D6;"/>
		<path d="M538.4,408.4c-2.8,5.7-5.5,11.6-8.2,17.3c-2.8,5.7,5.7,10.6,8.5,4.9c2.8-5.7,5.5-11.6,8.2-17.3
			C549.6,407.7,541.1,402.7,538.4,408.4z" style="fill:#74A2D6;"/>
		<path d="M575.3,427c-7.3,4.6-13.4,10.4-18.1,17.5c-3.6,5.2,4.9,10.1,8.5,4.9c3.9-5.7,8.8-10.3,14.7-13.9
			C585.5,432,580.6,423.6,575.3,427z" style="fill:#74A2D6;"/>
		<path d="M708.5,426.3c-1.3,1.3-2.6,1.5-3.4,0.7c-0.3-1.6-0.8-3.3-1.3-4.7c0,0,0,0,0-0.2c-0.2-0.5-0.3-1-0.7-1.5
			c-2.4-5.2-9.8-1.5-8.8,3.6c-0.2,2.6,0.5,4.9,1.6,6.9c0,2.4-0.5,4.7-1.5,7c-3.1,1.5-5.5,4.4-6.4,8.5c-1,5.1,4.4,7.8,8.2,4.7
			c1.8-1.5,3.3-2.9,4.6-4.7c0.7,0.3,1.3,1.1,1.6,2.4c1.3,6.2,10.4,3.6,9.5-2.6c-0.8-4.7,0.5-9.8,3.6-13.5
			C719.2,428.4,712.9,421.6,708.5,426.3z" style="fill:#F7D06F;"/>
		<path d="M407.6,199.1c-1.6,0.2-3.1,0.5-4.4,1c-3.8-0.8-3.9-10.1-3.9-12.4c0-3.6-3.3-5.1-6-4.6
			c-2.3,0.2-4.2,1.6-3.9,4.6c0.3,2.3,1,8.3-0.7,11.3c-2.4-0.3-5.1,0.3-7.8,2c-3.6,2.1-2.9,7.7,1.1,9c2.6,0.8,5.4,0.7,7.8-0.2
			c2.1,1.8,3.4,6.2,4.1,8.2c2,6,10.9,3.6,9.5-2.6c-0.7-2.3,0.5-4.7,2.6-5.9c1.5-0.2,2.9-0.5,4.4-1.1
			C414.5,206.3,412.4,198.8,407.6,199.1z" style="fill:#F7D06F;"/>
		<path d="M603.7,113.9c-1.6-0.5-3.3-0.8-4.9-0.8c-6.9-2.1-11.4-8.8-11.3-16.3c0.2-3.6-2.9-5.1-5.7-4.6
			c-3.1-0.8-7.3,1.6-6.4,5.9c1.3,5.2,2.1,14-2.4,17.8c-2.1,0-4.6,0.7-7,2.4c-3.6,2.4-2.8,9.6,2.4,9.1c2.1-0.2,4.1-0.7,5.7-1.3
			c2.8,1.1,3.9,6.7,4.6,8.7c1.5,5.1,10,4.4,9.6-1.3c-0.3-5.9,4.2-10.6,9.8-10.4c1.3,0.3,2.8,0.5,4.1,0.7
			C608.1,123.9,608.7,115.5,603.7,113.9z" style="fill:#F7D06F;"/>
		<path d="M283.1,74.2c-2,0-3.8,0.5-5.4,1.1c-1-0.2-1.8-0.8-2.3-1.8c0.8-2.9,1-5.9,0.5-9c-1-5.7-9.1-3.9-9.5,1.5
			c-0.3,0.5-0.5,0.8-0.7,1.5c-0.7,2.1-0.8,4.1-0.5,6c-0.5,0.8-1.1,1.6-2,2.3c-3.3,0.3-6.4,2.1-8.5,5.1c-2.8,3.8,1.8,8,5.5,7.2
			c2.1-0.3,3.9-1.1,5.5-2c0.8,0.7,1.6,1.5,2,1.8c0.5,0.8,1,1.6,1.3,2.4c0.2,2,0.8,3.8,1.8,5.5c2.8,4.7,10.4,1.6,9-3.8
			c-0.3-1.1-0.7-2.3-1.1-3.6c0-1.5,0.7-2.8,1.8-3.6c1.6-0.2,3.4-0.8,5.1-1.6C289.9,81.1,288,74.2,283.1,74.2z" style="fill:#F7D06F;"/>
		<path d="M110.6,444.8c-1.3,0.5-2.4,1-3.6,1.6c-2,0.3-2.6-0.7-2-2.9c0.8-2.8-0.8-4.7-2.9-5.7c-1.5-5.1-9.8-4.7-9.6,1.1
			c0.2,2.4,0.3,7.5-0.8,11.1c-4.6-0.2-8.8,2-11.4,6c-1.6,2.6-0.2,6.5,2.9,7.2c4.2,1,8.2,0.2,11.4-2c2.6,3.1,4.9,9,5.2,10.4
			c1.8,6.2,10.6,3.6,9.5-2.6c-0.7-3.9-2-10.6,1.5-13.7c1.5-0.5,2.9-1.3,4.4-2.6C119,449.8,115,443.3,110.6,444.8z" style="fill:#F7D06F;"/>
		<path d="M117.2,211.4c-3.9,1.6-9.3-0.7-6.9-5.7c1.3-2.6,0-5.1-1.8-6.5c0-0.2-0.2-0.3-0.2-0.7c-2-5.9-11.4-3.4-9.5,2.6
			c1.5,4.7,0.8,9.3-1.6,12.9c-3.9,1-7.2,3.9-8.2,8.2c-1.1,4.2,3.4,7.3,7.2,5.5c2.1-1,3.9-2.3,5.5-3.9c1.3,0.8,2.4,2,2.9,2.6
			c1.5,2.1,2.1,5.1,2.8,7.5c1.6,6,10.8,3.6,9.5-2.6c-1-4.2,0.5-8.5,4.1-10.9C125.1,217.4,122.6,209.1,117.2,211.4z" style="fill:#F7D06F;"/>
		<path d="M495,301.6c-2,0.3-3.9,0.8-5.7,1.6c-2.8,0-5.2-2.3-4.4-5.9c0.5-2.4-0.7-4.2-2.3-5.2V292
			c-2-6-11.4-3.4-9.5,2.6c2.1,6.5-0.7,13.5-6.2,16.8c-1.6,0.5-3.1,1-4.6,2c-4.6,2.9-1.8,10.6,3.8,9c1.5-0.3,2.8-1,3.9-1.6
			c3.6-0.7,7.2,1.6,8.2,5.5c1.6,6,10.8,3.6,9.5-2.6c-1.1-3.8,0.5-8.3,3.6-10.6c2.1-0.3,4.2-1,6.4-2.3C501.2,308.3,500,301,495,301.6
			z" style="fill:#F7D06F;"/>
		<path d="M723,207.4c-3.4,1-7.2-0.2-9.3-2.8c0.5-3.4,0.3-6.9-0.7-10.3c-1.6-5.7-10.1-3.8-9.6,1.5c-1,0.8-1.5,2-1.5,3.6
			c0.2,2.4,0.7,4.6,1.6,6.7c-0.7,2.1-1.8,4.1-3.3,5.9c-4.9,0.5-9.6,2.9-13.2,7.3c-3.3,3.9-0.2,8.8,4.7,8.2c4.9-0.7,9.1-2.8,12.7-5.7
			c4.2,0.7,7.8,3.9,8.8,9.3c1.3,6.2,10.6,3.6,9.5-2.6c-1.1-5.4,1-9.8,5.1-13.1C731.5,212.3,727.4,206.1,723,207.4z" style="fill:#F7D06F;"/>
		<path d="M473.2,365.9c-2.6,0.2-4.9,2.1-4.9,4.9v1.3c0,2.6,2.3,5.1,4.9,4.9c2.6-0.2,4.9-2.1,4.9-4.9v-1.3
			C478.1,368.2,475.9,365.8,473.2,365.9z" style="fill:#FFFFFF;"/>
		<path d="M566.8,260.3c-6.4,0-6.4,9.8,0,9.8S573.1,260.3,566.8,260.3z" style="fill:#FFFFFF;"/>
		<path d="M664.4,490.3c-6.4,0-6.4,9.8,0,9.8C670.7,500.1,670.7,490.3,664.4,490.3z" style="fill:#FFFFFF;"/>
		<path d="M709.9,546.5c-6.4,0-6.4,9.8,0,9.8C716.1,556.3,716.3,546.5,709.9,546.5z" style="fill:#FFFFFF;"/>
		<path d="M739.3,304.4c-6.4,0-6.4,9.8,0,9.8C745.7,314.2,745.7,304.4,739.3,304.4z" style="fill:#FFFFFF;"/>
		<path d="M529.4,529c-6.4,0-6.4,9.8,0,9.8C535.8,538.8,535.8,529,529.4,529z" style="fill:#FFFFFF;"/>
		<path d="M386.4,446.1c-6.4,0-6.4,9.8,0,9.8C392.6,455.9,392.6,446.1,386.4,446.1z" style="fill:#FFFFFF;"/>
		<path d="M302.2,511.7h-1.3c-2.6,0-5.1,2.3-4.9,4.9s2.1,4.9,4.9,4.9h1.3c2.6,0,5.1-2.3,4.9-4.9
			C306.9,513.8,304.8,511.7,302.2,511.7z" style="fill:#FFFFFF;"/>
		<path d="M81,523.8c-2-1.8-5.1-2-6.9,0l-1.3,1.3c-1.8,1.8-2,5.1,0,6.9s5.1,2,6.9,0l1.3-1.3
			C82.8,528.8,83,525.6,81,523.8z" style="fill:#FFFFFF;"/>
		<path d="M157.7,508.9c-6.4,0-6.4,9.8,0,9.8C163.9,518.7,164.1,508.9,157.7,508.9z" style="fill:#FFFFFF;"/>
		<path d="M72.2,356.5h-1.3c-2.6,0-5.1,2.3-4.9,4.9c0.2,2.6,2.1,4.9,4.9,4.9h1.3c2.6,0,5.1-2.3,4.9-4.9
			C76.9,358.8,74.8,356.5,72.2,356.5z" style="fill:#FFFFFF;"/>
		<path d="M160.3,157.3c-2.6,0.2-4.9,2.1-4.9,4.9v1.3c0,2.6,2.3,5.1,4.9,4.9s4.9-2.1,4.9-4.9v-1.3
			C165.2,159.6,163,157.2,160.3,157.3z" style="fill:#FFFFFF;"/>
		<path d="M340.9,138.6c-2.6,0.2-4.9,2.1-4.9,4.9v1.3c0,2.6,2.3,5.1,4.9,4.9c2.6-0.2,4.9-2.1,4.9-4.9v-1.3
			C345.8,141,343.5,138.6,340.9,138.6z" style="fill:#FFFFFF;"/>
		<path d="M417.1,62.3c-6.4,0-6.4,9.8,0,9.8C423.5,72.1,423.5,62.3,417.1,62.3z" style="fill:#FFFFFF;"/>
		<path d="M501.3,159.9c-6.4,0-6.4,9.8,0,9.8S507.7,159.9,501.3,159.9z" style="fill:#FFFFFF;"/>
		<path d="M665.8,145.3c-6.4,0-6.4,9.8,0,9.8C672.1,155,672.1,145.3,665.8,145.3z" style="fill:#FFFFFF;"/>
		<path d="M367.6,272.2c-6.4,0-6.4,9.8,0,9.8C373.8,282,374,272.2,367.6,272.2z" style="fill:#FFFFFF;"/>
	</g>
	<path d="M173.2,695.2c-10.1,0.5-20.2,0-30.4-1.3c-6.2-0.8-8.8,8.7-2.6,9.5c10.9,1.5,21.9,2.1,33,1.6
		C179.6,704.8,179.6,695,173.2,695.2z" style="fill:#57455D;"/>
	<path d="M121,637.5h-18c-6.4,0-6.4,9.8,0,9.8h18C127.4,647.3,127.4,637.5,121,637.5z" style="fill:#57455D;"/>
	<path d="M297.1,726.7c-1-1.1-2-2-3.1-2.8c-0.3-1.5-1.5-2.6-3.4-2.9c-8.7-1.5-17.3-2-26.1-1.5c-0.5,0-1,0-1.5,0
		c-5.9,1-12.1,3.1-13.7,9.5c-1.5,5.2,1.5,9.6,6.2,11.8c12.9,5.9,29.9,1.5,40.8-6.4C298.8,732.5,299.4,729.1,297.1,726.7z
		 M262.7,732.7c-2.8,0.2-3.3-0.8-1.1-2.9c0.5-0.2,1.1-0.3,1.6-0.3c6.9-0.5,13.7-0.3,20.6,0.5c0.2,0.2,0.2,0.2,0.3,0.3
		c-3.8,1.8-7.7,2.8-11.9,3.3C269.4,733.4,265.3,733.7,262.7,732.7z" style="fill:#57455D;"/>
	<path d="M641.5,661.7c-7.8-3.1-16.2-2.3-23.7,1.1c-0.5,0.3-1,0.7-1.3,1c-1.3,0.8-2.8,1.5-4.1,2.3
		c-1.5,0.8-2.4,2.4-2.4,4.2c-0.2,7.8,6.2,13.4,13.7,13.9c4.6,0.3,9.3-1,13.7-2.1c3.8-1,9.5-1.5,12.1-4.6
		C655.2,671,647.2,664.1,641.5,661.7z M620.6,672.8c0.7-0.3,1.5-0.8,2.1-1.1c0.3-0.2,0.5-0.3,0.7-0.5c2.8-1.1,5.5-1.6,8.5-1.5
		c0.7,0,5.5,1,8,2C634.2,673.8,623.7,675.9,620.6,672.8z" style="fill:#57455D;"/>
	<path d="M320.5,612.9c-8.3,0.5-16.5,1.1-24.8,1.6c-6.2,0.5-6.4,10.3,0,9.8c8.3-0.5,16.5-1.1,24.8-1.6
		C326.7,622.2,326.7,612.4,320.5,612.9z" style="fill:#57455D;"/>
	<path d="M149.9,589.4h-18c-6.4,0-6.4,9.8,0,9.8h18C156.3,599.2,156.3,589.4,149.9,589.4z" style="fill:#57455D;"/>
	<path d="M415.3,744.6c-6.9,1-13.7,2-20.6,2.8c-6.2,0.8-3.6,10.3,2.6,9.5c6.9-1,13.7-2,20.6-2.8
		C424.1,753.3,421.5,743.8,415.3,744.6z" style="fill:#57455D;"/>
	<path d="M633.9,723.9c-5.9,0.5-11.9,1.1-17.8,1.6c-6.2,0.7-6.2,10.4,0,9.8c5.9-0.5,11.9-1.1,17.8-1.6
		C640.2,733,640.2,723.2,633.9,723.9z" style="fill:#57455D;"/>
	<path d="M386.7,635.7h-16c-6.4,0-6.4,9.8,0,9.8h16C393.1,645.5,393.1,635.7,386.7,635.7z" style="fill:#57455D;"/>
	<path d="M510,648.5c-6.7-1.3-13.4-1.8-20.2-1c-6.2,0.7-6.2,10.4,0,9.8c5.9-0.7,11.8-0.5,17.6,0.7
		C513.4,659.2,516,649.8,510,648.5z" style="fill:#57455D;"/>
</g>
</svg>
