<!--?xml version="1.0" encoding="UTF-8" standalone="no"?-->
<svg xmlns:dc="http://purl.org/dc/elements/1.1/" xmlns:cc="http://creativecommons.org/ns#" xmlns:rdf="http://www.w3.org/1999/02/22-rdf-syntax-ns#" xmlns:svg="http://www.w3.org/2000/svg" xmlns="http://www.w3.org/2000/svg" xmlns:xlink="http://www.w3.org/1999/xlink" id="svg96933" viewBox="0 0 1024 768" height="768px" width="1024px" version="1.1">
  <metadata id="metadata96939">
    <rdf:rdf>
      <cc:work rdf:about="">
        <dc:format>image/svg+xml</dc:format>
        <dc:type rdf:resource="http://purl.org/dc/dcmitype/StillImage"></dc:type>
      </cc:work>
    </rdf:rdf>
  </metadata>
  <defs id="defs96937"></defs>
  <g id="logo-group">
    <g id="title" style="font-style:normal;font-weight:700;font-size:72px;line-height:1;font-family:'pixus Bold';font-variant-ligatures:none;text-align:center;text-anchor:middle" aria-label="pixus">
      <path id="path96941" style="font-style: normal; font-weight: 700; font-size: 72px; line-height: 1; font-family: &quot;pixus Bold&quot;; font-variant-ligatures: none; text-align: center; text-anchor: middle; fill: rgb(0, 0, 0);" d="m 469.04187,-25.416 c -1.07999,-2.448 -2.51999,-4.608 -4.392,-6.552 -1.944,-1.872 -4.10399,-3.312 -6.552,-4.392 -2.52,-1.08 -5.18399,-1.584 -7.99199,-1.584 -2.73601,0 -5.47201,0.504 -7.99201,1.584 -2.44799,1.08 -4.608,2.52 -6.552,4.392 -1.872,1.872 -3.312,4.104 -4.392,6.552 -1.008,2.52 -1.584,5.184 -1.584,7.992 v 30.6 l 10.8,3.6 V 0.648 c 0.57601,0.288 1.152,0.576 1.728,0.792 2.52,1.08 5.256,1.656 7.99201,1.656 2.736,0 5.47199,-0.576 7.99199,-1.656 2.44801,-1.008 4.608,-2.448 6.552,-4.392 1.87201,-1.872 3.31201,-4.032 4.392,-6.48 1.08,-2.52 1.584,-5.256 1.584,-7.992 0,-2.808 -0.504,-5.472 -1.584,-7.992 z m -18.93599,17.712 c -5.32801,0 -9.72001,-4.392 -9.72001,-9.72 0,-5.328 4.392,-9.72 9.72001,-9.72 5.32799,0 9.71999,4.392 9.71999,9.72 0,5.328 -4.392,9.72 -9.71999,9.72 z" transform="translate(0 333.91) translate(162.18154499999991 -43.78) scale(3.5) translate(-429.58587 37.944)"></path>
      <path id="path96943" style="font-style: normal; font-weight: 700; font-size: 72px; line-height: 1; font-family: &quot;pixus Bold&quot;; font-variant-ligatures: none; text-align: center; text-anchor: middle; fill: rgb(0, 0, 0);" d="m 474.46213,2.52 h 10.87199 v -41.544 l -10.87199,3.6 z" transform="translate(0 333.91) translate(347.94845499999985 -47.56) scale(3.5) translate(-474.46213 39.024)"></path>
      <path id="path96945" style="font-style: normal; font-weight: 700; font-size: 72px; line-height: 1; font-family: &quot;pixus Bold&quot;; font-variant-ligatures: none; text-align: center; text-anchor: middle; fill: rgb(0, 0, 0);" d="m 515.15225,2.52 h 12.816 l -14.616,-20.16 14.472,-19.944 h -13.032 l -7.992,11.16 -7.848,-11.16 h -13.248 l 14.616,19.872 -14.544,20.232 h 12.744 l 8.352,-11.088 z" transform="translate(0 333.91) translate(415.9958749999999 -42.52000000000001) scale(3.5) translate(-485.70425 37.584)"></path>
      <path id="path96947" style="font-style: normal; font-weight: 700; font-size: 72px; line-height: 1; font-family: &quot;pixus Bold&quot;; font-variant-ligatures: none; text-align: center; text-anchor: middle; fill: rgb(0, 0, 0);" d="m 545.09412,3.024 c 4.82401,0 9.36,-1.872 12.744,-5.256 3.384,-3.384 5.256,-7.92 5.256,-12.744 v -22.608 h -10.8 v 22.608 c 0,3.96 -3.24,7.2 -7.2,7.2 -3.95999,0 -7.19999,-3.24 -7.19999,-7.2 v -22.608 h -10.80001 v 22.608 c 0,4.824 1.87201,9.36 5.25601,12.744 3.38399,3.384 7.91999,5.256 12.74399,5.256 z" transform="translate(0 333.91) translate(589.5604199999998 -42.52000000000001) scale(3.5) translate(-527.09412 37.584)"></path>
      <path id="path96949" style="font-style: normal; font-weight: 700; font-size: 72px; line-height: 1; font-family: &quot;pixus Bold&quot;; font-variant-ligatures: none; text-align: center; text-anchor: middle; fill: rgb(0, 0, 0);" d="m 583.50612,2.952 c 7.27201,0 13.17601,-5.904 13.17601,-13.176 0,-7.272 -5.904,-13.176 -13.17601,-13.176 h -3.024 c -1.08,0 -1.87199,-0.864 -1.87199,-1.872 0,-1.08 0.79199,-1.944 1.87199,-1.944 h 15.048 V -38.52 h -15.048 c -7.272,0 -13.176,5.976 -13.176,13.248 0,7.272 5.904,13.176 13.176,13.176 h 3.024 c 1.00801,0 1.872,0.864 1.872,1.872 0,1.08 -0.86399,1.872 -1.872,1.872 H 566.65813 V 2.952 Z" transform="translate(0 333.91) translate(756.734455 -45.79600000000002) scale(3.5) translate(-566.65813 38.52)"></path>
    </g>
  </g>
</svg>
