<?xml version="1.0" encoding="utf-8"?>
<!-- Generator: Adobe Illustrator 23.0.2, SVG Export Plug-In . SVG Version: 6.00 Build 0)  -->
<svg version="1.1" id="Capa_1" xmlns="http://www.w3.org/2000/svg" xmlns:xlink="http://www.w3.org/1999/xlink" x="0px" y="0px" viewBox="0 0 800 817.9" style="enable-background:new 0 0 800 817.9;" xml:space="preserve">

<path d="M706.3,579.2c-55.7-21-116.4-25.4-175.4-24c-64.8,1.6-129.5,8.7-193.9,15.7c-62.2,6.7-125.5,12.7-185.8,30.7
	c-50.6,15.1-106.1,39.8-135.6,85.8C8.9,698,1.2,709.1,1.2,721.3c0,34.1,92,66.6,142.9,76.9c61.1,12.1,124.5,15.9,186.5,18.2
	c68.6,2.8,137.4,1.4,206-3.8c54.1-4,110.8-7.7,162.2-26.8c44.4-16.5,90.6-49.8,98.9-99.7C807.2,629.2,751.7,596.5,706.3,579.2z" style="fill:var(--illu-bg--main);"/>
<g>
	<path d="M291.4,709.3c-8.1-5.6-17.4-8.7-26.6-12.1c-9.9-3.6-16.5-8.7-24.8-14.7c-11.5-8.1-26-8.1-37.5-1.4
		c-26-8.5-55.9,1.8-73.2,23c-8.9,11.1-14.1,25.6-7.9,39.3c5.9,12.9,19.6,21.2,33.1,24.2c19.8,4.2,39.8-2.4,59.7-3
		c20.2-0.6,40,5,60.3,2.8c13.9-1.6,29.3-6.9,32.9-22C311,731.1,302.7,717.2,291.4,709.3z" style="fill:var(--illu-blue--light);"/>
	<path d="M313.6,776.9c-5-2.6-9.7,0-12.9,3.8c-3.2,2.8-4.4,7.7-2.4,11.7c0.8,1.8,2.2,3,4.2,3.6c1.6,0.6,4,0,5.6-0.2
		c2.8-0.4,5.4-1.6,7.3-3.6C319.5,788,319.5,779.8,313.6,776.9z" style="fill:var(--illu-blue--light);"/>
</g>
<g>
	<path d="M560.8,590.5c-6.3-11.3-13.5-20-27.4-21.4c-11.3-1-24.8,0.2-34.9,6.1c-1.4,0.2-2.8,1-3.8,2.4
		c-0.2,0.2-0.2,0.4-0.4,0.6c-0.2,0.2-0.4,0.2-0.4,0.4c-1,0.8-1.6,1.8-1.8,2.8c-13.1,19-20.6,46-19.6,68.8
		c1.2,24.8,18.6,39.4,42.8,40.4c22.6,1,49.8-5.9,59.1-28.5C584.8,637.1,572.9,611.9,560.8,590.5z" style="fill:var(--illu-yellow--main);"/>
	<path d="M547.1,455.3c-4,5.6-7.7,11.1-11.1,16.9c-2.2-4.4-3.6-9.1-4-13.9c-0.6-7.5-12.5-7.7-11.9,0
		c0.6,8.1,3,15.7,6.9,22.8c0.8,1.2,1.8,2,2.8,2.6c-6.1,12.5-10.7,25.4-13.9,38.9c-3-11.7-6.9-23-11.3-34.3c0.8-0.8,1.2-1.6,1.6-2.6
		c2.2-5.2,4.2-10.5,6.3-15.7c1.2-3-1.4-6.5-4.2-7.3c-3.4-1-6.1,1.2-7.3,4.2c-1,2.4-2,4.8-2.8,7.1c-1.6-3.6-3.4-6.9-5.2-10.3
		c-3.6-6.7-13.9-0.8-10.3,5.9c5.2,9.9,9.7,20,13.5,30.5h-11.9c-7.7,0-7.7,11.9,0,11.9h15.9c0,0,0,0,0.2,0
		c7.5,23.6,11.7,48.4,12.5,73.3c0.2,7.7,12.1,7.7,11.9,0c-0.4-10.3-1.2-20.6-2.6-30.7c0.6-0.8,1-1.8,1.2-3.2c1-12.1,3.2-24,6.5-35.5
		c6.9,0.4,13.9-2.2,18.8-7.3c5.4-5.6-3-13.9-8.3-8.3c-1.8,1.8-4,3.2-6.3,3.8c5.7-15.1,13.5-29.3,23.2-42.4
		C562,455.3,551.7,449.4,547.1,455.3z" style="fill:var(--illu-brown--main);"/>
	<path d="M535.4,576c-8.9,5.4-18.2,7.7-28.7,7.3c-7.7-0.4-7.7,11.5,0,11.9c12.3,0.6,24.2-2.6,34.7-8.9
		C547.9,582.4,542,572.1,535.4,576z" style="fill:var(--illu-bg--light);"/>
</g>
<g>
	<path d="M652.4,683.9c-29.9,10.3-52.7,34.3-61.5,64.8c-1,3.6,1.2,6.1,4,6.9c0.6,2.2,2.4,3.8,5.4,3.4
		c15.7-1.8,26.2-13.7,35.5-25.4c10.3-12.9,18-27.2,24-42.4C661.3,687.1,656.4,682.5,652.4,683.9z" style="fill:var(--illu-blue--main);"/>
	<path d="M640.3,688.8l-50,62.2c-4.8,5.9,3.6,14.5,8.3,8.3l50-62.2C653.4,691.2,645.1,682.9,640.3,688.8z" style="fill:var(--illu-bg--light);"/>
</g>
<g>
	<path d="M430.2,654.5c-6.7,0.2-12.9,3.2-17.8,7.5c-1.4-9.7-3.6-19.2-8.3-28c-5.9-11.1-17.6-23-31.5-19.8
		c-13.5,3.2-16.1,17.8-16.1,29.5c-0.2,16.5,3.2,32.7,9.3,47.8c-3.2,3.2-3,9.5,2.6,9.9c9.5,0.6,19,1,28.5,1.6
		c8.3,0.4,17.4,2.2,25.8,1.2c11.3-1.2,19.4-17.4,21.6-27.4C446.6,666.6,442.6,654.1,430.2,654.5z" style="fill:var(--illu-blue--main);"/>
	<path d="M442.8,718.4c1.8-9.5,4-20-5-23.4c-10.9-4.2-26-2.4-37.7-2.8c-13.9-0.2-27.6,0.2-41.4,1.2
		c-1.2,0-2.2,0.6-3,1.2c-3.4-0.4-7.5,2.4-7.5,7.9c0,16.1,0.8,32.1,2.8,47.6c1.4,10.3,5.2,16.7,14.3,17c13.1,0.4,26.8-1.6,40-2.6
		c8.3-0.6,20.6,1.8,27-7.7C438.7,747.5,440.7,730.1,442.8,718.4z" style="fill:var(--illu-white--light);"/>
	<path d="M440.9,643.6c-4.6-2.2-10.1-1.4-12.7,3.2c-2.4,4.2-0.8,8.9,1.6,12.5c1,1.4,2.4,2.4,4,2.8
		c3.2,3.2,7.3,5.4,11.7,6.3c3,0.6,6.5-0.8,7.3-4.2C454.5,655.9,448.2,647.2,440.9,643.6z" style="fill:var(--illu-red--light);"/>
	<path d="M365.5,637.9l-6.7-4.6c-2.6-1.8-6.7-0.6-8.1,2.2c-1.6,3-0.6,6.3,2.2,8.1l6.7,4.6c2.6,1.8,6.7,0.6,8.1-2.2
		C369.3,643,368.3,639.9,365.5,637.9z" style="fill:var(--illu-bg--light);"/>
	<path d="M365.9,667c-2-0.4-3.8-0.8-5.7-1c-1.6-0.4-3.2-0.2-4.6,0.6c-1.2,0.8-2.4,2.2-2.8,3.6c-0.6,3,0.8,6.7,4.2,7.3
		c2,0.4,3.8,0.8,5.7,1c1.6,0.4,3.2,0.2,4.6-0.6c1.2-0.8,2.4-2.2,2.8-3.6C370.7,671.6,369.1,667.8,365.9,667z" style="fill:var(--illu-bg--light);"/>
	<path d="M410.1,643.2c-0.4-3.2-2.6-6.1-5.9-5.9c-3,0.2-6.3,2.6-5.9,5.9c0,0,0,0.6,0,1.2l0,0c0,0.2,0,0.2-0.2,0.4l0,0
		l-0.2,0.2l0,0c-0.2,0.2-0.4,0.4-0.6,0.6c-2.4,2-2.2,6.3,0,8.3c2.6,2.4,5.9,2.2,8.3,0C408.8,651.6,410.5,647.2,410.1,643.2z" style="fill:var(--illu-bg--light);"/>
	<path d="M386.3,621.8c0.2-0.8,0.8-2.6,0.8-2.8c0.6-1.4,0-3.4-0.6-4.6c-0.8-1.2-2.2-2.4-3.6-2.8
		c-1.6-0.4-3.2-0.2-4.6,0.6c-1.4,1-2.2,2-2.8,3.6c-1,2.6-1.4,5.6-1.2,8.3c0.2,1.6,0.6,3,1.8,4.2c1,1,2.8,1.8,4.2,1.8
		c3-0.2,6.3-2.6,5.9-5.9c0-0.6-0.2-1.2-0.2-1.8C386.3,622.2,386.3,622,386.3,621.8L386.3,621.8z" style="fill:var(--illu-bg--light);"/>
	<path d="M397.8,669.6c-0.2-0.2-0.6-0.4-0.8-0.8c0,0,0-0.2-0.2-0.2c-0.2-0.2-0.4-0.4-0.4-0.8c0-0.2-0.2-0.2-0.2-0.4
		c0,0,0,0,0-0.2c0-0.4-0.4-2.2-0.2-0.4c-0.4-3.2-2.4-6.1-5.9-5.9c-3,0.2-6.3,2.6-5.9,5.9c0.6,4.2,2,8.1,5.4,10.9
		c2.4,2,6.1,2.6,8.3,0C400,675.8,400.4,671.8,397.8,669.6z" style="fill:var(--illu-bg--light);"/>
	<path d="M431.2,669.4c-2.2-2-6.3-2.6-8.3,0c0,0.2-0.2,0.2-0.2,0.2c-0.2,0-0.4,0.2-0.6,0.2c0.2,0,0.2,0,0.4,0l0,0
		c-1.2,0.2-2.4,0.6-3.4,1.6c-1,1-1.8,2.8-1.8,4.2c0,1.6,0.6,3.2,1.8,4.2c1,1,2.6,2,4.2,1.8c3-0.4,5.9-1.4,7.9-3.8
		c1-1.2,1.8-2.6,1.8-4.2C432.9,672.2,432.3,670.4,431.2,669.4z" style="fill:var(--illu-bg--light);"/>
</g>
<g>
	<g>
		<path d="M490.8,264v17.8c0,7.7,11.9,7.7,11.9,0V264C502.7,256.5,490.8,256.5,490.8,264z" style="fill:var(--illu-yellow--main);"/>
		<path d="M534,271.3c-2-2-6.3-2.6-8.3,0l-9.5,12.3c-2,2.6-2.4,5.9,0,8.3c2,2,6.3,2.6,8.3,0c3.2-4.2,6.3-8.1,9.5-12.3
			C536,277.3,536.6,273.7,534,271.3z" style="fill:var(--illu-yellow--main);"/>
		<path d="M550.9,306.6c-1.8,3.6-4.8,6.3-7.9,7.7c-3,1.2-5.2,4-4.2,7.3c0.8,2.8,4.4,5.4,7.3,4.2
			c6.5-2.6,11.9-6.9,15.1-13.1C564.8,305.8,554.5,299.9,550.9,306.6z" style="fill:var(--illu-yellow--main);"/>
	</g>
	<g>
		<path d="M499.3,315.4c-39.3,17.8-99.7,37.5-99.3,90.4c0,0.8,0.2,1.6,0.4,2.4c-5.4,8.3-10.1,16.9-13.9,26
			c-0.8-25-0.4-50.4,2.4-75.1c18.6-20.8,37.1-42.4,48.2-68.2c13.1-29.9,11.5-60.9,3.8-92c-0.8-3.6-5.6-5.7-8.7-3.6
			c-52.7,36.1-89.6,103.3-57.3,165.5c0.4,1,1.2,1.6,1.8,2l0.2,0.2c-3.2,30.3-2.6,61.5-1.4,91.8c-1.6-7.9-4.4-15.3-7.9-22.2
			c8.3-21.6-0.4-45.4-18.4-59.7c-23.2-18.4-53.5-19.4-81.9-18.8c-4.2,0-6.3,3.8-5.7,7.5c6.5,44.2,48,84.5,94.4,75.7
			c0.4,0.4,0.8,1,1.2,1.2c6.3,12.3,9.3,26.2,7.5,42c-0.8,7.5,11.1,7.5,11.9,0c0.2-1.6,0.2-3.2,0.4-4.6c2.4,2.8,6.9,3.4,9.1,0.4
			c1.4-1,2.2-2.6,2.2-4.8c0-1,0-2-0.2-2.8c4.4-20,12.5-39.1,23.8-56.1c9.5,3,20.8,0.8,30.1-1.8c12.7-3.4,24.4-9.5,34.5-18
			c21.2-17.6,32.5-44.8,31.9-72.2C508.3,315.8,503.5,313.6,499.3,315.4z" style="fill:var(--illu-blue--main);"/>
		<path d="M433.3,459.3c-35.3-0.2-71.2,4.6-105.9,10.3c-3.6-0.6-8.3,2.4-7.5,7.3c2.6,16.1,5.2,32.3,8.1,48.4
			c2.6,14.3,3.6,31.3,9.5,44.8c4.6,10.7,14.9,12.3,25.4,13.1c14.5,1.2,28.9,0.4,43.2-2.4c10.3-2,20.8-5.6,25.8-15.7
			c6.1-12.5,6.5-29.5,8.3-43.2c2-14.9,3.6-29.9,4.8-45C445.4,466.8,445.2,459.5,433.3,459.3z" style="fill:var(--illu-red--light);"/>
		<path d="M364.5,426.4c-15.9-30.1-42-53.1-73.7-65.4c-7.1-2.8-10.3,8.7-3.2,11.5c28.9,11.3,52.3,32.7,66.6,60.1
			C357.8,439.1,368.1,433.1,364.5,426.4z" style="fill:var(--illu-bg--light);"/>
		<path d="M414.9,218.6c-25,41.2-38.7,88.2-40.2,136.4c-0.2,7.7,11.7,7.7,11.9,0c1.4-46.2,14.7-90.8,38.7-130.4
			C429.2,218,418.9,212.1,414.9,218.6z" style="fill:var(--illu-bg--light);"/>
		<path d="M487.1,327.4c-9.1,15.3-22.4,26.6-35.9,37.9c-15.3,12.9-30.9,25.4-46.8,37.5c-5.9,4.6,0,14.9,5.9,10.3
			c16.7-12.7,33.1-25.8,49.2-39.3c14.1-11.9,28.2-24.2,37.7-40.2C501.3,326.9,491,320.9,487.1,327.4z" style="fill:var(--illu-bg--light);"/>
	</g>
</g>
<g>
	<path d="M683.7,463.6c-17,5-31.1,16.1-39.6,31.1c4.6-23,14.7-44.8,29.9-63.2c4.8-5.9-3.6-14.3-8.3-8.3
		c-27.8,33.7-40.8,77.1-35.3,120.5c1,7.5,12.9,7.5,11.9,0c-0.4-2.8-0.6-5.6-0.8-8.3c28.9-8.5,42-37.1,49.6-64.2
		C692.2,466.6,688.1,462.4,683.7,463.6z" style="fill:var(--illu-blue--main);"/>
	<path d="M735.8,397.4c6.3-5.6,10.3-13.5,4.2-21.4c-5.2-6.7-12.1-6.3-18.4-3.2c0-10.9-1-23.8-10.1-26.2
		c-8.1-2-12.9,5.2-15.5,13.3c-6.5-7.1-15.1-12.7-24.2-9.3c-8.1,3-7.7,10.5-4.8,17.8c-7.9-0.6-15.9,1.4-22.6,6.3
		c-3,2.2-4.2,6.5-1.2,9.3c0.4,0.2,0.6,0.6,1,0.8c-5.9,2.4-10.5,6.3-10.5,12.7c0,7.7,6.9,11.1,14.7,12.3c-4.8,3.6-7.9,8.3-6.7,14.1
		c2,10.7,17.4,6.7,27.8,3.4c0.8,8.7,3.4,19,11.5,20c6.9,0.8,10.3-5.6,12.3-12.5c5.7,6.3,13.1,11.1,21.6,14.1c4,1.4,7.1-2.2,7.5-5.7
		c0.6-5.4,0.4-10.3-0.6-15.3c6.7,0.6,13.7-2.4,17.6-9.3C743.8,410.7,741.6,402.6,735.8,397.4z" style="fill:var(--illu-yellow--main);"/>
	<path d="M721,379.4c-4.8-7.1-11.7-9.1-19.2-8.7c-5.2-0.6-10.3-0.2-14.5,0.8c-10.7,2.6-19.8,10.9-21.8,22
		c-1.8,10.1,2.4,21.6,11.5,27c10.7,6.1,23.6,1.4,32.5-5.7C719.4,406.5,729.3,391.7,721,379.4z" style="fill:var(--illu-bg--light);"/>
	<path d="M686.3,537.8c-0.4-2-1.6-4-3.6-4.6c-9.5-3-21.4-1.8-31.3-2.2c-11.9-0.6-23.8-1.2-35.5-1.6
		c-2.4-0.2-4,1-5.2,2.4c-1.2,0.8-2,2.2-2,4.2c0,19.4-0.6,40.4,3.2,59.7c3.2,15.9,18.2,11.5,30.9,10.7c12.9-0.6,31.7,3.4,36.1-11.9
		c2.8-9.7,3.8-20.2,5.2-30.3C685.1,556,687.9,546.1,686.3,537.8z" style="fill:var(--illu-brown--main);"/>
	<path d="M676,472.6l-35.1,48.4c-4.6,6.1,5.7,12.1,10.3,5.9l35.1-48.4C690.6,472.4,680.3,466.4,676,472.6z" style="fill:var(--illu-bg--light);"/>
</g>
<g>
	<path d="M313.6,80c-10.3-24.6-37.9-35.7-60.9-45c-15.3-6.1-31.3-13.1-47.6-16.3c-11.5-2.2-22.4-2-31.9,4.6
		c-2.2-7.5-6.1-14.3-14.3-16.3c-0.2,0-0.4,0-0.6,0c-1-0.8-2.2-1.2-3.6-1.4c-21-0.8-32.7,25.2-37.1,42C114,62.2,117.3,81,130,89.4
		c-1.2,1-2,2.6-2,4.4v1.4C102.5,106,87.4,129.4,76.5,154c-12.1,27.4-19.4,56.7-22.2,86.4c-2.8,30.3-0.8,61.3,6.3,91
		c4.4,18.8,10.7,49.6,29.9,59.9c0,0.2,0,0.6,0,0.8c-0.6,84.6,4,169.3,14.1,253.4c0.4,3.4,2.4,5.7,5.9,5.9c16.3,0.6,32.5,0,48.8-1.8
		c2.6-0.2,5.2-1.6,5.7-4.4c0.6-2.6,0.6-4.8,0-6.7c10.1-0.6,20.2-1.2,30.1-1.8c6.1-0.4,7.7-7.5,3-11.1c-7.3-5.4-15.1-9.1-23.6-11.3
		c19.6-143.1,38.9-287.4,29.9-432.2c-0.2-2.8-2-4.6-4.2-5.4c15.3-4.6,30.7-9.1,46-13.9c14.9-4.6,30.1-9.5,43-18.6
		C309.6,130.4,324.1,104.6,313.6,80z M177,60.6c1-6.9,0.6-14.5-0.4-21.8c13.3,9.5,28,16.5,43.2,22.4c9.7,3.8,19.6,7.1,29.3,11.1
		c9.3,3.8,26.2,8.3,30.3,18.6c8.7,21.2-46.2,19.4-57.9,19.2c-23.2-0.4-45.8-4.2-67.8-11.1c0-0.8-0.2-1.6-0.4-2.2
		c-0.4-1.4-1-2.6-1.8-3.6C165.3,89.6,175,74.9,177,60.6z" style="fill:var(--illu-brown--light);"/>
	<path d="M202.8,634.1c-4.2-13.1-19.6-18.2-23.4-30.7c-1.4-4.8,1.4-10.1-2.4-14.3c-3.6-3.8-9.1-2.4-13.7-2
		c-16.5,1.4-33.3,1.8-49.6,4.2c-5.7,0.8-10.7,4.2-11.7,8.7c-0.8,0.8-1.4,2-1.4,3.8l-0.4,24.6c0,4.6-0.8,9.7,0.2,14.3
		c2.6,10.3,13.3,9.3,21.8,9.1c7.3-0.2,14.9-0.4,22.2-0.6c5.6-0.2,11.5,0.6,16.7-2c2.8-1.4,4.8-3.4,5.9-5.7c10.3,2,20.6,2,30.9-1
		C202,641.5,204,638.3,202.8,634.1z" style="fill:var(--illu-white--light);"/>
	<path d="M177.2,21c-0.8-5.7-2.6-11.1-6.9-15.5C162.5-2,150.8-1,142.1,3.7c-10.3,5.6-17.4,15.5-22.6,25.8
		c-4.4,8.7-12.1,21.4-6.7,30.7c0.4,0.8,1,1.4,1.8,2c0.8,0.8,2,1.4,3.4,1.6c15.5,2,28.5-5.2,38.3-16.1c4,11.5,11.1,24.6,22.4,17.8
		C191.7,57.8,182.8,33.9,177.2,21z" style="fill:var(--illu-blue--light);"/>
	<path d="M238.7,168.5c-2.8-16.1-5-32.5-8.5-48.6c-2.8-12.3-10.9-14.9-22.2-17.4c-13.7-3.4-27.6-5.4-41.6-2.4
		c-12.1,2.6-32.7,12.5-39.8-3.4c-1.6-3.8-6.7-3.6-9.3-1.2c-32.7,29.1-55.9,67.6-66.4,110c-0.8,3.4,1,6.1,4.2,7.3
		c10.5,4,21.2,6.5,32.1,8.1c-2.2,22-2.4,44.2-0.6,66.2c-4.4,2.2-4,9.7,1,11.1c1,8.5,2.2,17,3.6,25.6c1,5.9,1.6,13.7,6.7,17.8
		c5.2,4.4,12.9,3.2,19.2,3c18.2-0.4,36.5-0.8,54.7-1.2c10.5-0.2,30.3,3.6,37.5-6.5c3.6-5.2,3-12.3,3.2-18.2
		c0.2-9.7,0.4-19.2,0.8-28.9c0.8-35.9,1.4-71.6,1.6-107.4c6.7-2.2,13.5-4.4,20-6.3C237.7,174.6,239.1,171.6,238.7,168.5z" style="fill:var(--illu-yellow--main);"/>
	<path d="M203.4,334.2l-100.3-3.6c-4.6-0.2-6.3,4-5.6,7.3c-1.8,1.2-2.8,3.4-2,6.1c2.6,7.3,4.6,14.7,5.2,22.4
		c0.4,3.6,0.4,7.1,0.4,10.5c0,1.2-1.2,9.7-2.4,9.1c-1.4,2.8-4.2,4.8-8.1,4.8c-0.8,0,0.4,0-0.2-0.2c-3.8,40.4-4.6,80.9-2.2,121.5
		c1.2,20.2,3,40.6,5.7,60.7c1.2,9.3,2.6,18.6,4.2,28c1,6.5-1,16.1,4.8,20.6c5.4,4.4,12.9,2.4,19,1.6c9.7-1.2,19.6-2.8,29.1-4.8
		c13.7-2.8,30.1-4.8,36.5-19c2.8-6.3,3-13.7,3.6-20.6c0.8-11.1,1.8-22.2,2.6-33.3c1.6-20.8,3.2-41.6,4.8-62.6
		c3.6-47.6,7.3-95.2,10.9-142.7C209.5,336.8,206.3,334.2,203.4,334.2z" style="fill:var(--illu-brown--main);"/>
	<path d="M225.8,341.1c-0.6-45.6-6.5-91-14.7-135.8c-4.8-26.4-10.3-52.7-16.1-78.9c-2.6-11.7-7.9-48.8-28.7-34.5
		c-1.6,1.2-3.2,3-3,5.2c2,18.6,3.8,37.1,5.7,55.7c-11.9,0.8-24,1.2-36.1,0.8c-3.8-18.6-7.9-37.3-12.7-55.7c-0.8-3.4-4.2-4.8-7.3-4.2
		c-12.9,2.4-18.4,15.3-17,27.4c1,8.9,4.8,17.4,7.1,26c2.4,8.3,4.4,16.9,5.9,25.4c3.6,19,4.4,38.5,5,57.9c1.6,41.6,2,48.2-19.8,47.6
		c-4.4-0.2-16.5,0.2-16.9,3.8c-3.4,4.8,4.2,10.7,4.2,17c0,1.6-14.9,12.5,0.2,10.9c0.4,23.2,9.3,40,8.7,63.2c2.4,0.4,2.2,1.6,2.4,4.6
		c2.4,20-12.3,54.7,11.5,64.4c2.4,1,11.5,5.9,11.3,8.1c19,1.8,38.1-1.4,56.9-3c15.3-1.2,32.1-3.4,45.6-11.7c2-7.7,2.4-16.7,3.4-24
		C224.8,387.7,226,364.3,225.8,341.1z" style="fill:var(--illu-red--light);"/>
	<path d="M237.7,427.2c-2.4-9.7-16.3-14.3-20.8-3.4c-0.6,1.6-0.6,3.2-0.4,5c-10.9-1.4-22-2-32.9-1.8
		c2-4.2,4.4-9.1,6.1-13.9c0.6-2.6,0.6-5,0.2-7.3c-3.6-15.5-29.3-23.4-43-32.9c-2.8-1.8-5.7-3.4-8.9-4c-5.4-1-9.7-0.4-11.9,4.2
		c-0.4,0.8-1,1.2-1.6,1.2c-0.2,0.2-0.2,0.4-0.4,0.4c-8.5-7.7-23.2-7.7-32.1,0.2c-11.1,9.9-14.5,29.7-6.3,42.4
		c-2.6,2.8-5.2,5.7-7.5,8.7c-3.2,4-5.4,8.1-3.4,13.1c4.6,11.3,19,22.2,28.2,29.5c11.7,9.5,24.4,17.8,38.3,23.8
		c13.5,5.9,16.5-5,21.2-16.1c4.6-10.5,9.1-21,13.7-31.7c1,0.8,2.2,1.2,3.6,1.2c10.7,0,21.6,0,32.5,0c0.4,0,0.6,0,1,0
		c1.8,10.3,5.4,23.2,15.9,18.6C239.1,460.1,239.9,435.9,237.7,427.2z M95.7,406c-0.6,0.6-1,1.2-1.6,1.8c-2.8-7.3-0.2-18,4.8-23.2
		c4.8-4.8,12.5-5.4,17-1.2C109.2,390.9,102.5,398.4,95.7,406z" style="fill:var(--illu-blue--light);"/>
	<path d="M169.9,634.5c-11.1-5.4-10.9-17.8-10.3-28.5c0.6-11.3,1.6-22.6,2-33.9c1-22.8,1.2-45.6,0.4-68.4
		c-0.2-7.7-12.1-7.7-11.9,0c0.8,28,0.4,55.7-1.2,83.7c-1.2,19.4-6.7,47,14.9,57.5C170.7,648,176.8,637.9,169.9,634.5z" style="fill:var(--illu-bg--light);"/>
	<path d="M182.6,171.4c-16.3-5.6-39.1-1-54.7,4c-2.2,0.8-3.6,2.4-4,4.2c-2.2,1.2-3.8,3.4-2.6,6.5
		c4.8,13.5,11.1,28.9,26.4,32.9c13.7,3.8,26.8-5.6,33.1-17C184.9,194.8,194.8,175.8,182.6,171.4z M173.2,190.7
		c-3.6,8.7-11.3,20-22.4,17.2c-9.5-2.4-13.9-12.9-16.9-21.6c9.1-2.8,18.6-4.4,28.2-4.6c2.6,0,10.5-0.6,14.7,0.2
		C174.4,182.5,174,188.5,173.2,190.7z" style="fill:var(--illu-bg--light);"/>
	<path d="M136,62.4c-7.7,0-7.7,11.9,0,11.9C143.5,74.3,143.7,62.4,136,62.4z" style="fill:var(--illu-bg--light);"/>
	<path d="M165.3,67.6c-7.7,0-7.7,11.9,0,11.9S173,67.6,165.3,67.6z" style="fill:var(--illu-bg--light);"/>
	<path d="M153.8,79.1c-4.2,0-8.3-0.4-12.5-1.4c-7.3-1.8-10.5,9.7-3.2,11.5c5.2,1.2,10.3,1.8,15.7,1.8
		C161.5,90.7,161.5,78.9,153.8,79.1z" style="fill:var(--illu-bg--light);"/>
	<path d="M106,381.6c-1-9.1-5.9-18.8-9.1-27.6c-0.4-0.8-0.6-1.8-1-2.6c-8.5-36.9-13.9-74.3-15.7-112.2
		c-0.4-7.5-12.3-7.7-11.9,0c1.2,27.2,1.8,53.9,6.5,80.7c-2.6,0.8-2.4,2.8-2,5.7c1.6,12.3,4.2,24.2,7.7,36.1
		c0.8,5.2,2.2,10.1,4.2,15.3c-3,1.4-4.8,4.6-2.4,7.9c3.6,5,8.1,9.9,14.9,8.7C103.5,392.5,106.6,387.5,106,381.6z" style="fill:var(--illu-brown--light);"/>
	<path d="M181.2,400.2c-14.3-8.5-28.9-16.5-42.6-26c-6.3-4.4-12.3,5.9-5.9,10.3c13.7,9.5,28.3,17.6,42.6,26
		C181.8,414.5,187.7,404.2,181.2,400.2z" style="fill:var(--illu-bg--light);"/>
</g>
</svg>
