<?xml version="1.0" encoding="utf-8"?>
<!-- Generator: Adobe Illustrator 20.1.0, SVG Export Plug-In . SVG Version: 6.00 Build 0)  -->
<svg version="1.1" id="Capa_1" xmlns="http://www.w3.org/2000/svg" xmlns:xlink="http://www.w3.org/1999/xlink" x="0px" y="0px" width="800px" height="600px" viewBox="0 0 800 600" style="enable-background:new 0 0 800 600;" xml:space="preserve">

<g>
	<g>
		<path d="M179.5,425.9c-5.5-3.2-13.7-1.1-19.6-0.6c-5.8,0.5-12.5,0.2-18.2,1.9c-1.6,0.3-3.2,0.8-4.7,1.6
			c-3.4,1.8-8,6.3-5,10.4c3.5,4.7,10.3,1.5,14.8,1.3c6.9-0.3,13.7,1.8,20.7,1.9c5,0.1,11.8-0.7,15.1-5
			C185.6,433.5,183.5,428.3,179.5,425.9z" style="fill:#EDEDED;"/>
		<path d="M156.4,414.8c-5.5,0.4-9.4,5.9-8.9,11.2c0.1,0.7,0.4,1.3,0.8,1.7c0.4,0.7,1.1,1.3,2.2,1.2
			c4.3-0.5,8.6-0.9,12.9-1.4c1-0.1,2.4-0.7,2.5-1.9C166.8,419.9,162.4,414.4,156.4,414.8z" style="fill:#F7D16F;"/>
	</g>
	<g>
		<path d="M413.4,382.2c-1.9-1.4-4.7-1.1-6.9-1.2c-3.8-0.1-7.6-0.3-11.4-0.4c-1.1,0-1.9,0.5-2.3,1.3
			c-3.7,1.3-7.6,3.2-9.9,6.3c-0.6,0.8-0.4,1.9,0,2.7c2.1,4.1,9,2.5,12.6,2.1c3.6-0.4,7.2-0.8,10.8-1.2c2.2-0.3,4.7-0.3,6.6-1.7
			C415.4,388.2,416.1,384.2,413.4,382.2z" style="fill:#F7D3BD;"/>
		<path d="M481.1,371.5c-2.5-1-4.9,0.1-7.2,1c-3.1,1.2-6.3,2.3-9.4,3.5c-0.4,0-0.9,0.1-1.4,0.5c0,0-0.1,0-0.1,0.1
			c-0.1,0-0.1,0-0.2,0.1c-0.6,0.2-1.1,0.6-1.4,1.1c-2.8,2.1-5.4,4.3-7.9,6.8c-0.9,0.9-1.1,2.8,0,3.7c4.5,3.6,9.3,1.7,14.3,0.1
			c3.8-1.2,7.6-2.5,11.4-3.7c2.2-0.7,5.2-1.2,6.5-3.3C487.6,377.9,484.2,372.7,481.1,371.5z" style="fill:#F7D3BD;"/>
		<path d="M481.5,369.8c-5.9-16.9-12.2-33.7-19.2-50.2c-3.1-7.4-6.3-14.8-9.6-22.2c-2.6-5.8-4.9-13.4-11.7-15.5
			c-7.6-2.3-17.1-1.9-25-1.4c-7.8,0.4-15.7,1.6-23.3,3.6c-6.2,1.6-12.9,3.7-14.2,10.8c-0.7,3.9-0.3,8.2,0.7,12.3
			c-0.3,0.4-0.4,0.9-0.3,1.5c2.2,17.3,5,34.5,8.4,51.6c0.8,4.1,1.7,8.3,2.6,12.4c0.7,3.2,0.9,7.4,2.9,10.1c1.5,2.1,3.7,2.6,6.1,2.7
			c4.3,0.3,8.6,0.3,12.9,0.5c1.5,0.1,2.6-1.3,2.6-2.6c1.2-24.8,1.5-49.7,1-74.5c2.1,0,4.1,0.1,6.2,0.4c5.6,16.4,13.1,32.1,22.5,46.6
			c2.4,3.6,4.8,7.2,7.4,10.7c2.3,3.1,4.8,7.2,7.9,9.6c5.6,4.4,15.4-1.1,20.8-3.7C481.2,372.3,481.8,370.8,481.5,369.8z" style="fill:#74A3D7;"/>
		<path d="M520.2,338.6c-2.8-5.2-9.5-7.8-13.6-11.9c-9.3-9.4-13.8-22.4-18-34.6c-4.4-12.7-9.2-24.6-16.3-36
			c-4.1-6.6-8.4-13.3-10.4-20.9c-1.9-7.3-1-14.7,1.4-21.8c4.3-13,12.2-24.7,14.3-38.4c0.7-4.8,1.2-11.5-3.4-14.7
			c-5-3.4-11.2,1.3-14.9,4.6c-5.3,5-9,11.8-15.5,15.5c-8.2,4.7-14.1-0.4-19-6.8c-3.5-4.5-6.8-9-11.8-11.9
			c-4.8-2.7-10.4-4.1-15.9-4.1c-11.7,0-22,6-27.7,16.3c-3.5,6.3-6.6,16.2-15.1,17.1c-6.3,0.7-9.8-7.2-16.4-5.9
			c-5.1,1-7.2,6.5-7.1,11.2c0,5.8,2.9,11.6,5.7,16.5c5.4,9.4,13.3,18.3,15.2,28.9c-4.3,15.1-8.6,30.1-13,45.2
			c-2.5,8.6-5,17.2-7.4,25.9c-1.3,4.4-2.6,8.9-3.8,13.3c-0.9,3.1-2.9,7.3-1.4,10.5c2.5,5.5,12.2,3.9,16.9,3.3c8-1,15-4.1,22.4-7
			c6.8-2.6,13.3-3.5,20.1-0.4c5.4,2.4,10.1,6.3,14.8,9.8c9.3,6.9,19.3,12.5,31.2,8.9c6.6-2,12.4-5.9,18.6-9
			c7.4-3.7,15.1-4.7,23.3-3.4c7.9,1.3,15.5,4.2,23,6.8c3.6,1.3,7.2,2.5,10.9,3.5c3,0.8,6.8,2.3,9.8,1
			C521.5,348.3,522.3,342.4,520.2,338.6z" style="fill:#B6C8E8;"/>
		<path d="M393.6,186.7c-4.4-0.6-6.2,2-6.6,5.6c0,0.1-0.1,0.1-0.1,0.2c-1.8,3.9-0.4,8.3,1.4,11.9
			c1.6,3.2,4.4,6.2,8.3,6.3c3.8,0.2,6.7-2.3,7.3-6C404.8,198,401.2,187.9,393.6,186.7z" style="fill:#F087B1;"/>
		<path d="M374.7,182.2c-3.9,0-3.9,6,0,6C378.6,188.2,378.6,182.2,374.7,182.2z" style="fill:#57455E;"/>
		<path d="M416.7,177.6c-3.9,0-3.9,6,0,6C420.6,183.6,420.6,177.6,416.7,177.6z" style="fill:#57455E;"/>
		<path d="M469.9,317.8c-9.4-17.3-17.6-35.1-24.6-53.4c-1.4-3.6-7.2-2-5.8,1.6c7.2,18.8,15.6,37.2,25.3,54.9
			C466.5,324.2,471.7,321.2,469.9,317.8z" style="fill:#57455E;"/>
		<path d="M412.5,311.3c-2.6-3.9-2.3-10.1-2.8-14.6c-0.6-4.6-1.1-9.2-1.7-13.8c-1.2-9.8-2.4-19.7-3.6-29.5
			c-0.5-3.8-6.5-3.8-6,0c1.4,11.2,2.7,22.3,4.1,33.5c0.6,5.3,1.3,10.5,1.9,15.8c0.5,4.1,0.6,8.3,2.9,11.8
			C409.4,317.5,414.6,314.5,412.5,311.3z" style="fill:#57455E;"/>
		<path d="M374,250.4c-3,21.4-11.2,42.1-17.7,62.7c-1.2,3.7,4.6,5.3,5.8,1.6c6.6-20.5,14.8-41.2,17.7-62.7
			C380.3,248.2,374.5,246.6,374,250.4z" style="fill:#57455E;"/>
	</g>
	<g>
		<path d="M318.1,362.4c-2.6-12.1-15.7-16.2-25.6-20.7c-6.7-3-13.5-6-20.3-8.8c-3.3-1.4-6.7-2.8-10.1-4.2
			c-1.6-0.7-3.5-1.1-4.5-2.6c-0.8-1.1-1.2-3.3-1.5-4.6c-3.7-13.5-7.4-27-11.2-40.5c9.1,2.4,18.7,3.9,27.8,0.8
			c9.7-3.2,16.5-10.8,17.7-21.1c1.4-12.3-2.7-25.9-6.4-37.6c-1.9-6-4-11.8-6.5-17.5c-2.1-4.9-4.5-9.8-9.6-12.3
			c-1.4-0.7-3.5-0.2-3.9,1.6c-3.2,16.7,4.4,32.2,4.9,48.7c0.1,4.1-0.2,8.4-1.6,12.3c-2.1,5.7-7.8,4.1-12.6,3
			c-9.3-2.1-18.1-5.6-26.4-10.2c-0.5-0.3-0.9-0.3-1.3-0.3V247c0-0.1,0-0.2,0-0.3c5.1-2,8.4-6.7,10-11.8c1.9-6.1,2.9-14.9,0.8-21
			c-1.6-4.8-5.9-8.3-10.8-8.9c-3.1-0.4-6.1,0.5-8.1,2.5c-5.4,4.5-9,14.4-9.6,19.5c-0.7,5.7-0.1,12.1,4,16.5c1,1.1,2.1,2,3.4,2.6
			c0,0.2-0.1,0.4-0.1,0.5c-5.9,0.6-12.1,1.5-17,5c-5.8,4.1-8,10.7-9.9,17.2c-3.9,12.7-8.5,25.1-14.8,36.7c2.3-14.2,8.6-27.7,10.9-42
			c0.7-4.2,3.6-16.7-3.8-16.7c-2.6,0-4.9,2.2-6.3,4.2c-2.8,4.1-4.8,9-6.8,13.5c-3.9,8.6-7.3,17.4-10.6,26.2
			c-3.2,8.3-6.4,16.9-6.1,25.9c0.3,7.4,3,14.8,9.1,19.3c6.2,4.5,13.8,4.3,20.3,0.4c7-4.2,11.5-11.3,14.8-18.6
			c1.9-4.2,3.5-8.5,5.1-12.8c-0.5,16.1-0.6,32.5,6.4,47.3c1.2,2.6,2.7,5,4.3,7.3c-4.4,0.1-9.2,0.6-13,2.2c-3.7,1.6-4,6.8-4.3,10.8
			c-3.7,0.1-7.3,0.8-8.9,4.6c-3.3,7.9-6.2,16.1-9.3,24.1c-0.6,1.7,1,3.3,2.5,3.3c5.7,0.1,9.5-3.8,13-7.8c1.2-1.4,2.1-2.6,3.9-3.4
			c2.2-0.9,3.7-0.1,6,0.5c3.7,0.9,7.4,1.4,11.1,1.9c16.2,2,32.8,2.3,49,2.7c13.8,0.4,30.6,1.3,42.2-7.7c3.4-2.7,5.6-6,6.5-9.4
			c2.1-0.9,3.9-3,5-5C318.4,372.3,319.1,367.2,318.1,362.4z" style="fill:#F7D3BD;"/>
		<path d="M233,203.3c1.9-7.2-3.9-15-12.2-12.9c-7.7,1.9-9.5,10.4-5.6,15.9c-3.7,2.4-6.7,5.6-8.6,9.6
			c-1.8,3.6-3.8,9.5-1.9,13.3c2,4,6,3.6,10.3,1.4c0.3,0,0.7-0.1,1-0.2c-1.9,1.5-1.4,5.4,1.8,5.4c3.7,0,3.8-5.4,0.5-5.9
			c3.4-1,6.4-3,8.6-5.8c2.1,2.5,5,4.9,7.7,5.8c-3.3,0.6-3.1,5.9,0.6,5.9c3.2,0,3.8-4.2,1.6-5.6c2.1,0,3.9-1.3,4.8-4.6
			C243.9,217.6,240.1,207.8,233,203.3z" style="fill:#57455E;"/>
		<path d="M198.1,203.6c1.6-9.3-2.4-19.4-10.3-24.9c-8.3-5.7-22.9-5.8-30.6,0.8c-8.3,7.2-13,18.7-11.1,29.6
			c1.9,10.7,10.8,19.3,21.5,20.7c1.9,6.5,4.2,12.8,7.3,18.8c2.1,4.2,5,10.9,11,9.6c5.5-1.2,4.4-7.4,3-11.4
			c-2.5-7.1-5.4-14.1-8.2-21.1C189.4,221.4,196.4,213.4,198.1,203.6z" style="fill:#56597A;"/>
		<path d="M321.5,366.2c-0.6-7.6-5-14-11.1-18.4c-7.5-5.6-16.6-7.9-25.3-11c-4.6-1.6-8.9-3.6-13.1-6.1
			c-3.5-2-7.2-4.1-11.3-4.4c-4.5-0.3-8.6,1.9-12.6,3.8c-5.5,2.5-10.9,4.9-16.4,7.4c-7.8,3.5-16.2,7.4-20.2,15.3
			c-1.8-0.4-3.9,1-3.1,3.1c0.3,0.9,0.6,1.7,0.9,2.6c-1.8,0-3.6-0.2-5.2,1.4c-2,2-1.9,5.4-2.2,8c-1.1,8.9-2.2,17.7-3.3,26.6
			c-0.1,1.2,0.9,2.2,1.9,2.5c10.1,3.3,20,5.8,30.6,5.9c10.5,0.1,21-0.5,31.4-1.1c10.1-0.6,20.5-1.5,30.3-3.9c3.5-0.8,7.1-2,10.2-3.9
			c3.5-2.1,5.4-5,7.9-8.2c2.5-3.2,6.1-5.3,8.2-8.9C321.1,373.7,321.8,369.9,321.5,366.2z" style="fill:#74A3D7;"/>
		<path d="M292.4,253.1c-1-5.8-8.6-5.2-13.1-5.9c-3.5-0.6-10.2-3.3-12,1.5c-0.9,2.4,1.2,7.5-1.9,8.8
			c-2.7,1.1-7.7-0.5-10.3-1c-7.7-1.4-15.1-3.8-22.2-7c-1.4-0.6-2.7-0.3-3.6,0.9c-2.3,3.3-6,8.6-10.7,7.1c-3.8-1.2-5.4-6-6.1-9.5
			c-0.3-1.3-2-2.3-3.2-1.8c-16.3,5.4-23,22.1-27.7,37.2c-1.4,4.5-2.7,9-4.4,13.3c-1.8,4.6-4.6,8.4-6.8,12.8c-2,3.9,0.9,8.2,2.3,11.8
			c2,5.1,4.1,10.3,6.1,15.4c0.8,2,2.8,2.5,4.4,1.2c6.7-5.3,12.3-11.6,16.6-18.8c0.1,5.6,0.6,11.2,1.5,16.8
			c1.2,7.9,2.9,15.8,7.4,22.5c0.1,0.2,0.3,0.3,0.5,0.4c0,0,0,0,0,0c8.3,2.6,17.4-0.3,21.1-8.2c1.4-3.1,3.1-3.8,4.4-3.5
			c8.9-4.9,18-9.4,27.3-13.7c1-0.4,1.6-2,1.2-3c-5.6-13.9-9-28.4-12.1-43c10.8,0,24.2,0.9,32.5-6.2c3.7-3.2,6-7.7,7.2-12.4
			C292,264.1,293.2,257.9,292.4,253.1z" style="fill:#F087B1;"/>
		<path d="M298.6,338.1c-4.7-2.1-9.5-4.2-14.4-6c-4.8-1.7-9.9-2.3-14.7-4c-5.3-1.9-7.5-6.8-9.3-11.8
			c-1.8-5.2-3.4-10.5-5.4-15.6c-1.8-4.8-3.7-9.5-5.8-14.2c-1.2-2.7-2.4-5.5-3.7-8.2c-0.8-1.6-1.4-3.7-2.9-4.8
			c-0.5-0.4-1.1-0.6-1.7-0.7c-0.1,0-0.1,0-0.2-0.1c0.2-0.3,0.3-0.7,0.3-1.2c0-7.3-0.3-14.7-0.8-22c-0.3-3.4-5.5-3.4-5.3,0
			c0.6,7.3,0.8,14.6,0.8,22c0,0.4,0.1,0.7,0.2,1c-2.7,0.5-5.4,1.7-7.6,2.3l-10.1,2.9c-0.2,0.1-0.4,0.1-0.5,0.1
			c-1.8-10.4-3.4-20.7-4.7-31.2c-0.4-3.3-5.7-3.4-5.3,0c1.4,10.9,3,21.7,4.9,32.5c-0.9,0.3-1.8,0.6-2.6,1c-4.7,2.5-2.9,8.2-2.5,12.6
			c0.6,6.5,1.4,13,2.4,19.5c0.5,3.4,1,6.8,1.6,10.2c0.5,3.2,1.9,7.2,1.6,10.4c-0.5,5.7-8.1,7-11,11.4c-2.2,3.4-2.2,8,1.1,10.7
			c0.9,0.8,2.1,1,3.2,0.4c2.6-1.4,5.1-2.9,7.7-4.3c1.2-0.7,2.3-1.3,3.5-2c-0.3,0.2,2.2-1.4,2.8-2.2c0.9,1.4,3,5.8,3.3,6.4
			c1.4,2.4,3,4.8,4.6,7.2c2.9,4.2,6.1,8.3,9.5,12.1c2.8,3.2,5.2,6.5,9.8,5.1c5.1-1.5,10.2-5.2,14.8-7.8c4.9-2.8,9.7-5.7,14.4-8.7
			c8.5-5.4,17.2-11,22.8-19.5C300.2,340.6,299.8,338.7,298.6,338.1z" style="fill:#EDEDED;"/>
		<path d="M230.3,237.4h-5.8c-3.9,0-3.9,6,0,6h5.8C234.2,243.4,234.2,237.4,230.3,237.4z" style="fill:#57455E;"/>
		<path d="M230,365.1c-9.8,0.3-19.6,0.7-29.3,1c-3.9,0.1-3.9,6.1,0,6c9.8-0.3,19.6-0.7,29.3-1
			C233.9,370.9,233.9,364.9,230,365.1z" style="fill:#57455E;"/>
		<path d="M314.7,386.4c-2.5-13.9-11.6-25.9-24.3-32.1c-3.5-1.7-6.5,3.5-3,5.2c11.5,5.6,19.3,15.9,21.5,28.5
			C309.5,391.8,315.3,390.2,314.7,386.4z" style="fill:#57455E;"/>
		<path d="M200.1,290.6c-0.2-3.8-6.2-3.9-6,0c0.6,11.3,1,22.7,1.4,34c0.1,3.9,6.1,3.9,6,0
			C201.1,313.2,200.7,301.9,200.1,290.6z" style="fill:#57455E;"/>
		<path d="M192.4,192.6c-3.1-7.4-17-16.6-25.1-12.1c-0.4,0-0.8,0-1.3,0.2c-10.2,4.2-15.2,15.6-14.5,26.3
			c0.8,13.6,14.7,14.9,25.3,11.5C187.4,215.1,197.4,204.4,192.4,192.6z M173.7,213.2c-3.4,0.9-7.4,1.6-10.9,0.7
			c-4.7-1.3-5.6-5.5-5.3-9.8c0.3-6.7,3.2-14.4,9.7-17.4c0.7,0.2,1.4,0.1,2.2-0.5c2.8-2.1,8.1,0.7,10.8,2.1c3.4,1.8,6.6,4.5,7.3,8.5
			C189.2,205.4,180.9,211.3,173.7,213.2z" style="fill:#57455E;"/>
		<path d="M188,241.8c-3.4-4.1-7.6-0.1-10.9,2.1c-0.8,0.5-1.2,1.3-1.3,2.1c-0.6,0.7-1,1.6-0.8,2.7
			c0.7,4.2,2.3,8.9,6.9,10.3c4,1.2,7.9-1.3,9.1-5.2C192.1,249.9,190.5,244.8,188,241.8z" style="fill:#57455E;"/>
	</g>
	<g>
		<path d="M668.9,413.6c-2.8-7-6.4-13.7-10.9-19.8c-4.2-5.7-12.4-11.7-12.3-19.3c0-4.8,2.6-9.4,4.5-13.6
			c1.6-3.6,3.3-7.3,4.9-10.9c1.8-3.9,7.7-12.5,2.8-16.3c-5.7-4.5-11.8,6.6-14.6,10c-2.4,3-4.8,6.1-7.3,9c-3.3,3.7-6.9,3.7-11.6,4
			c-17.3,1-34.7,2.1-52,3.1c0,0,0-0.1,0-0.1c-1.2-4.4-4.2-9.2-8.9-10.3c-3-0.7-5.9,0.4-7.7,2.6c-2-1-4.1-1.6-6.3-1.8
			c-1.8-0.2-3.9,0.5-5.5-0.5c-0.7-0.4-1.2-1.6-1.8-2.2c-1.8-1.7-4-2.4-6.3-2.5c-0.1,0-0.3-0.1-0.4-0.1c-2-0.1-4,0.3-5.8,1
			c-0.4,0-0.7,0.1-1.1,0.3c-5.8,2.5-12.8,9.1-12.6,15.9c-0.4,1.5-0.7,3-0.9,4.7c0,0.1,0,0.1,0,0.2c-1.4,1.1-2.7,2.1-4,3.2
			c-4.9,4.1-11.9,9.1-11.3,16.4c0.6,7.1,7.2,8.5,13.1,6.9c5.6-1.5,11.1-3.1,16.6-4.8c-4,7.3-7.9,14.6-11.9,21.9
			c-1.5,2.7-4.6,6.5-3.7,9.8c0.6,2.3,3,3.8,5.3,3.8c3,0,5.3-2.2,7.3-4.2c3.2-3.1,6.1-6.4,8.8-9.9c4.2-5.4,10.1-18.3,18.7-16.3
			c-1.3,6.2-3.8,12-7.6,17.1c-3.6,4.8-8.3,8.4-8.6,14.8c-0.1,1.2,0.9,2.2,1.9,2.5c7.4,2.5,14.5-4.7,19.3-9.5
			c2.8-2.8,5.4-5.9,7.6-9.2c2.1-3.1,4.2-9.4,7.5-11c2.1-1,5-0.6,7.3-0.7c2.5-0.1,4.9-0.3,7.4-0.5c4.6-0.4,9.2-1,13.8-1.7
			c2.4-0.4,4.8-0.8,7.2-1.3c1.7,5.7,4.3,11.1,8,15.9c2.7,3.5,7.9,10.6,13,9.6c5.8-1.2,3.5-9.9,2.1-13.5c-2.1-5.5-5.8-10.1-8-15.5
			c1.4-0.4,2.9-0.8,4.3-1.2c9.2,12.5,21.5,22,36.1,27.5C667.4,417.5,669.6,415.4,668.9,413.6z" style="fill:#C39A8A;"/>
		<path d="M572.5,361.2c-2.6,20.5-25.6,26.2-42.8,26.7c-3.9,0.1-3.9,6.1,0,6c21-0.6,45.8-8.6,48.8-32.7
			C579,357.4,573,357.4,572.5,361.2z" style="fill:#F7D16F;"/>
		<path d="M579.8,361.7c-1.6-2.9-4.4-4.7-7.1-6.5c-2.6-1.9-5.6-5-8.9-5.7c-0.4-0.1-0.7-0.1-1-0.1
			c-0.3,0-0.5-0.1-0.8-0.1c-6.2,0.4-8.8,5.4-7.6,11.1c1.2,6.1,4.3,14.7,8.8,19.2c4.6,4.5,10.7,2.4,14.5-2
			C581.5,373.3,582.7,366.8,579.8,361.7z M568.2,359.2c-0.8,0.6-1.3,1.7-1.1,3c0.2,1.2,0.3,2.4,0.3,3.7c-0.2,0-0.4,0.1-0.6,0.1
			c-0.2,0.1-0.3,0.1-0.5,0.2c-0.1-0.3-0.2-0.5-0.3-0.7c-1.3-2.4-3.2-5.2-2.8-8.1c0.2-1.6-0.4-1.1,0.9-1.2c0.8-0.1,3,2.1,3.6,2.6
			C567.8,359,568,359.1,568.2,359.2z" style="fill:#C39A8A;"/>
		<path d="M507.3,378.3c-1.1-1.1-2.5-1.5-4-1.5c-0.6,0-1.2,0.1-1.8,0.3c-0.3,0.1-0.6,0.3-0.8,0.5
			c-0.2,0.2-0.5,0.4-0.7,0.6c-1.1,1.1-1.2,3.2,0,4.2c0.1,0.1,0.3,0.3,0.5,0.4c0.1,0.2,0.3,0.3,0.4,0.5c1.1,1,2.6,1.3,4,0.9
			c1.3-0.4,2.2-1.3,2.9-2.4C508.5,380.9,508.2,379.2,507.3,378.3z" style="fill:#57455E;"/>
		<path d="M510.6,389.3c-0.5-1.5-2.1-2.6-3.7-2.1c-0.7,0.2-1.3,0.4-2,0.7c-1.5,0.5-2.6,2.1-2.1,3.7
			c0.5,1.5,2.1,2.6,3.7,2.1c0.7-0.2,1.3-0.4,2-0.7C510,392.5,511.1,390.9,510.6,389.3z" style="fill:#57455E;"/>
		<path d="M527.1,359.1h-0.3c-0.1,0-0.1,0-0.2,0c0.8-0.7,1.6-1.4,2.4-2.1c3-2.4-1.3-6.6-4.2-4.2
			c-4.2,3.4-7.8,7.4-10.9,11.8c-2.2,3.2,3,6.2,5.2,3c1.4-2.1,3-4,4.8-5.8c0,0.1,0,0.2,0,0.3c0.1,1.6,1.3,3,3,3h0.3
			c1.6,0,3.1-1.4,3-3C530,360.5,528.7,359.1,527.1,359.1z" style="fill:#57455E;"/>
		<path d="M544.1,365.1c-3.9,0-3.9,6,0,6C547.9,371.1,547.9,365.1,544.1,365.1z" style="fill:#57455E;"/>
		<path d="M542.5,380.4c-5,2.6-10.1,4.7-15.5,6.4c-3.7,1.1-2.1,6.9,1.6,5.8c5.8-1.8,11.5-4.2,16.9-7
			C548.9,383.8,545.9,378.6,542.5,380.4z" style="fill:#57455E;"/>
		<path d="M628.8,387.1c-6.4,2.8-13.1,4.9-20,6.2c-3.8,0.8-2.2,6.5,1.6,5.8c7.4-1.5,14.5-3.8,21.4-6.9
			C635.4,390.7,632.3,385.5,628.8,387.1z" style="fill:#57455E;"/>
		<path d="M586.3,363.2c-0.9-3.8-6.7-2.2-5.8,1.6c1.5,6.2-1.3,13.7-8.7,13.6c-6.4-0.1-10.8-5.6-13-11
			c-1.5-3.5-7.3-2-5.8,1.6c3.6,8.7,11.1,17,21.5,15.2C584.5,382.6,588.4,372.2,586.3,363.2z" style="fill:#57455E;"/>
	</g>
</g>
</svg>
