<?xml version="1.0" encoding="utf-8"?>
<!-- Generator: Adobe Illustrator 23.0.2, SVG Export Plug-In . SVG Version: 6.00 Build 0)  -->
<svg version="1.1" id="Capa_1" xmlns="http://www.w3.org/2000/svg" xmlns:xlink="http://www.w3.org/1999/xlink" x="0px" y="0px" viewBox="0 0 800 663.1" style="enable-background:new 0 0 800 663.1;" xml:space="preserve">

<g>
	<path d="M798.8,274.9c-5.6-70.8-32.4-140.3-83.3-190.9c-24.7-24.5-54.5-43-87.4-54.5C590.3,16.3,550.2,12,510.6,8.1
		C429.4,0.4,346.2-7.9,265.4,8c-68.6,13.5-131.6,46.9-179.7,97.8C39.9,154.2,9.4,215.9,1.9,282.3c-7.8,68.1,8.4,139.4,45.6,197.1
		c8.8,13.7,18.9,26.5,29.9,38.5c1.7,1.9,4,1.7,5.6,0.6c0.2,0.2,0.2,0.2,0.3,0.3c63.5,42.7,143.2,41.9,216.8,42.8
		c90.2,1.1,180.2,2,270.3,3.1c64.7,0.8,142-0.2,182.8-59.3c21.1-30.4,29.9-68.9,37.1-104.7C798.3,359.3,802.2,316.9,798.8,274.9z" style="fill:#56597A;"/>
	<path d="M760.4,519.4c-29.3-43.6-93.3-47.8-142-54.5c-60.4-8.2-121.2-12.9-182.2-14c-61-1.1-122.1,1.6-182.8,7.8
		c-30.3,3.1-60.4,7.1-90.5,11.9c-24.4,4-51.2,6.5-73.6,17.4c-5.1,2.5-9.8,5.6-14,9.3c-1.1-0.3-2.3-0.2-3.6,0.5
		c-20.9,11.6-41,27-51.2,48.4c-9.3,19.9-9.5,44.4,5,62.1c14.7,18.2,40,25.4,62.4,31c28.9,7.3,58.5,11,88.1,13.3
		c60.4,4.8,121.2,7.6,181.7,9.3c61.3,1.9,122.6,1.6,183.7-3.7c29.5-2.5,59-6.4,88.1-11.5c27.6-5,56.2-10.2,82.1-21.3
		c22.5-9.5,42.7-24.8,52.9-46.4C774.1,559.9,772.8,537.8,760.4,519.4z" style="fill:#B4C7E7;"/>
	<path d="M239.6,219.3c-1.9-2.5-4.5-1.9-6.2-0.2c-9.6-2.2-25.1-3.9-31.8,3.9c-3.4,4-3.6,10.7-4.3,15.5
		c-1.4,7.8-2.5,15.5-3.6,23.4c-4.2,31.7-6.5,64.2-4.7,96.1c0.6,10.4,3.3,20.9,13.8,25.1c11,4.3,26.2,2.9,37.6,0.5
		c13.3-2.9,13.8-18,16.4-29c3.6-14.7,6.7-29.6,7.9-44.7C267.7,277.1,260.1,245.6,239.6,219.3z" style="fill:#EF86B0;"/>
	<path d="M216.1,172.8c-0.9-1.6-2.6-2.3-4.8-1.4c-26.1,10.4-39.6,35.7-42.4,62.4c-0.5,3.3-0.8,6.7-0.9,10.2
		c0,3.9,0.2,8.1,0.6,12.1c1.7,26.5,9.9,60.1,39.3,63.8c4.7,0.6,6.2-6.7,2.3-8.7c-19.6-10.6-30.1-35.2-32.4-57.4
		c-0.2-4.5-0.3-8.5-0.2-11.9c0-2.2,0.2-4.3,0.5-6.7c3.9-23.7,22-39.4,41-53.7C223.2,178.5,220.1,171.8,216.1,172.8z" style="fill:#57455D;"/>
	<path d="M329.8,120.9c-15.8-21.9-43.6-34.5-70.5-30.9c-25.4,3.4-48.3,22.5-54.5,47.6c-6.4,26.4,7.9,54.6,32.7,65
		c0.3,2,1.7,4.2,4.3,4.5c17.2,2,34.8,2.3,52.1,0.6c13.2-1.4,25.4-5,34.6-15.1C347.3,172.5,345.3,142.4,329.8,120.9z" style="fill:#B4C7E7;"/>
	<path d="M611.6,530.3c-7.3-8.7-16.3-14.9-26.7-18.8c-12.3-84.1-15.5-169.5-9.8-254.3c0-0.8,0-1.4-0.3-2
		c13.5-9.6,30.1-30.4,10.1-39.1c-4.8-2.2-10.2-2.2-15.4-2.5c-8.1-0.3-16.3-0.5-24.4-0.6c-15.2-0.3-30.4-0.6-45.6-0.6
		c-15.2-0.2-30.4,0-45.6,0.2c-14.1,0.2-29.9-1.4-43.9,1.4c-8.7,1.9-15.4,8.7-12.6,18c3.3,11,15.8,19.1,25.4,23.9
		c0.2,0,0.2,0,0.3,0.2c2.3,52.9,3.9,105.8,4.8,158.8c0.5,26.8,0.8,53.5,0.8,80.4c0,6.8,0.5,14,0,20.8c-0.5,7.1-4.7,8.8-10.7,11.2
		c-8.2,3.1-15.1,9-13.2,18.5c0.5,2,2.5,3.4,4.5,3.4c66.4-0.9,132.7-4.5,198.8-10.7C612.5,537.9,614.2,533.6,611.6,530.3z" style="fill:#EF86B0;"/>
	<path d="M547.1,291.6c-0.2-4,0.5-9.6-1.7-13.3c-3.7-6.5-19.7-5.6-26.2-6.1c-24.2-1.7-48.6,1.4-71.7,8.4
		c-1.6,0.5-2.5,1.6-2.9,2.6c-0.8,0.8-1.2,1.7-1.2,3.1c0,7.6-0.2,20.2,8.4,23.4c4.3,1.6,9.6,1.1,14,1.4c6.7,0.3,13.3,0.6,20,0.9
		c12.9,0.3,25.8,0.5,38.5,0.2c6.5-0.2,20.5,2.5,23.1-6.1C548.8,301.9,547.4,296.1,547.1,291.6z" style="fill:#FFFFFF;"/>
	<path d="M286.8,152.3c-4-9.3-16.1-15.1-23.7-10.1c-14.9,1.6-16,23-14.4,35.4c1.7,13.8,14.9,30.9,30.6,22
		c6.5-3.7,9.9-10.9,11-18C291.5,172.5,290.5,160.7,286.8,152.3z" style="fill:#F7D3BC;"/>
	<path d="M403.2,190.6c-2.9-7.6-11.2-9.3-16.3-2.6c-3.7,4.8-6.1,11.2-8.8,16.4c-2.9,5.4-5.9,10.9-9.2,16.1
		c-6.2,10.2-13.3,19.9-21.7,28.4c-13.5-15.8-27-31.5-40.5-47.3c-0.6-0.6-1.2-1.1-1.9-1.4c-0.6-1.4-2-2.5-4-2.5
		c-17.5-0.2-34.9,1.1-52.3,3.6c-0.6,0.2-1.1,0.3-1.4,0.5c-1.9-0.5-3.9,0-5,2c-23.7,43.3-48,87.7-83.6,122.6
		c-4.3,4.2-8.7,8.2-13.3,12.1c-4,3.4-9,6.4-11.3,11.3c-3.6,7.3,0,15.2,8.2,16.6c20.9,3.6,44.1-16.6,58.8-28.9
		c15.5-13,29.3-28.1,41.1-44.7c-10.1,57-19.9,113.9-24.7,171.6c-2.6,31.3-3.9,62.7-2.8,94.2c0.3,11.6-2.2,28.2,10.7,33.7
		c12.1,5.3,27,4.7,39.6,1.9c2.8-0.6,4.3-4.3,2.8-6.8c-3.7-5.7-9-6.5-14.6-9.6c-7.9-4.3-3.4-21.6-2.8-29.3
		c1.7-21.9,4.2-43.6,7.4-65.3c5-34,11.8-67.7,20.2-100.9c6.1,41.1,9.9,82.7,13,124.1c0.9,11.6,1.7,23.3,2.5,34.9
		c0.8,10.6,0.8,21.6,2.3,32c2.8,18.3,32.4,14.3,44.8,10.2c4-1.2,4.3-6.2,1.1-8.5c-4.3-3.1-8.4-4-10.9-9.3c-2-4-2.5-9-2.6-13.5
		c-0.5-11.5,0.6-23,0.9-34.5c0.8-26.1,0.9-52.3,0.6-78.5c-0.5-49.7-2.8-99.2-6.7-148.7c12.9,8.8,30.1,7.4,43.5-3.1
		c18.5-14.4,29.2-41.4,34.6-63.6C402.9,214.8,406.9,200.2,403.2,190.6z" style="fill:#FFFFFF;"/>
	<path d="M312.9,196.5c-9.5-5-22.7-3.7-32.7-3.1c-1.1,0-2,0.2-3.1,0.2c-11.9,0.2-23.9-0.2-35.7,0.9
		c-5.6,0.5-12.4,2.6-11.9,9.6c0.6,8.1,10.7,8.7,16.8,9.3c12.6,1.2,25.3,1.1,38,0.5c5.9-0.3,11.8-0.6,17.5-1.1
		c3.9-0.3,8.2-0.3,11.5-2.6C318.3,206.4,318.5,199.6,312.9,196.5z" style="fill:#EF86B0;"/>
	<path d="M318.5,263.1c-0.2-2.9-2.9-5.4-5.9-4.5c-14.3,4.3-29.5-0.5-43.6,4c-2.3-0.8-5.3,0.2-6.2,2.8
		c-2,1.6-1.7,4.2-0.5,5.9c-0.5,16.1-0.8,32.7,1.2,48.7c1.9,14,18.3,11.9,29.2,11.2c11.3-0.9,26.4-1.7,27-15.8
		C320.8,298.2,318.9,280.3,318.5,263.1z" style="fill:#F7D06F;"/>
	<path d="M215.6,319.1c-4.2-10.6-14.1-21.1-21.3-29.5c-2-2.5-4.8-1.7-6.4,0.2c-1.1,0-2.2,0.3-3.1,1.4
		c-9.2,9-18.5,18-27.6,26.8c-7.9,7.8-17.8,15.2-24.5,24.4c-11.3,15.5,5.9,30.7,20.3,28.4c18.9-2.9,38.2-18.3,52.3-31.5
		C210.8,334,219.2,327.8,215.6,319.1z" style="fill:#74A2D6;"/>
	<path d="M402.7,185.2c-4.8-4.7-11.3-4.8-16.1-0.2c-6.7,6.5-9.6,16.6-13.5,24.8c-4.8,10.2-11,19.9-18,28.9
		c-0.5,0.5-0.6,1.1-0.8,1.6c-1.7,1.2-2.6,3.4-1.1,5.7c5.1,7.3,11.3,13.5,19.2,17.8c5.6,3.1,13.3,7.6,18.2,1.4
		c5.4-7,8.7-17.5,11-25.9c2.8-9.8,4.5-19.9,5.7-30.1C408.2,201.2,409.1,191.4,402.7,185.2z" style="fill:#74A2D6;"/>
	<path d="M255.6,284.2c-0.6-0.3-1.2-0.6-1.9-0.6c-0.9-0.3-1.9-0.5-2.9-0.2c-3.6,0.6-5.6,5-4.7,8.2
		c0.6,2,2.3,3.7,4.3,4.3c2,0.6,4.2,0,5.7-1.2c1.6-1.2,2.6-3.1,2.5-5.3C258.7,287.1,257.5,285.3,255.6,284.2z" style="fill:#74A2D6;"/>
	<path d="M258,313.8c-0.9-3.1-3.9-5-7-5c-2,0-3.9,1.4-4.5,3.4c-0.2,0.8-0.3,1.6-0.3,2.3c-0.2,0.9-0.2,1.9,0,2.8
		c0.8,3.3,4.2,5.4,7.4,4.3C256.9,320.8,259,317.2,258,313.8z" style="fill:#74A2D6;"/>
	<path d="M249.9,571.7c-0.8-9.6,0-19.1,1.7-28.6c1.7-9.6,5-19.7,5.6-29.5c0.3-6.2-3.4-8.2-9-8.7
		c-10.1-0.9-20.5-0.6-30.6,0.3c-3.4,0.3-5,3.6-4.3,6.2c-0.2,0.3-0.2,0.8-0.3,1.2c-1.7,18.2-1.7,36.5,0.3,54.6
		c1.2,11.3,2.9,25.4,16.3,28.4c6.7,1.6,14,0.6,20.8,0.6c5,0,14,1.9,18.2-1.6C279.1,586,255.5,574.5,249.9,571.7z" style="fill:#74A2D6;"/>
	<path d="M349.5,579.5c-1.9-4.2-5.1-6.7-8.8-9c-7-4.5-8.7-8.2-8.4-16.8c0.6-16,1.7-32,2.5-48c0.2-3.3-3.1-5-5.9-4.5
		c-7,1.4-14.1,2.2-21.3,2.2c-4.5,0-9.5-1.1-13.5,1.2c-1.1,0.6-2,1.4-2.8,2.3c-1.6,0.6-2.6,2-2.3,4.2c1.2,12.1,2.5,24.2,3.7,36.2
		c1.1,10.9,1.1,23,3.6,33.7c2.2,8.8,11.2,9.3,18.9,9.8c10.7,0.6,21.4-0.9,31.5-4.3C349.8,585.2,350.9,582.3,349.5,579.5z" style="fill:#74A2D6;"/>
	<path d="M300,127.1c-9-10.2-22.7-3.9-27.2,6.7c-4.3-1.1-8.7,0.5-12.6,3.1c-4.2-6.4-15.4-7-20.3,0.3
		c-3.1,4.5-4,10.9-1.4,15.8c1.4,2.8,3.7,4.3,6.4,5.3c-0.6,1.2-1.2,2.6-1.6,4c-1.1,4.7-2,11.9,2.2,15.2c3.9,3.1,8.7,1.6,12.3-1.1
		c2-1.4,4-3.1,5.9-4.8c4.5-2.6,8.4-5.7,11.9-9.5c5,6.4,13.7,13.8,19.9,9c6.1-4.8,3.3-15.4-0.5-22.8C303,145.3,306.8,134.9,300,127.1
		z" style="fill:#57455D;"/>
	<path d="M686.2,221.8c-1.4,0-2.6,0.2-3.9,0.3c-4,0.2-8.7-0.5-8.5-4.8c0-1.2-0.5-2.3-1.1-3.1c-1.7-3.7-8.7-2.9-9,2.2
		c-0.3,5.9-3.6,11.3-8.7,14.3c-1.1,0.3-2,0.8-2.9,1.4c-4.3,2.6-1.6,10.6,3.6,8.5c0.3-0.2,0.8-0.3,1.1-0.5l0,0c3.4-2,8.2-0.9,9.6,3.1
		c1.7,4.8,9.3,4.3,9.2-1.2c-0.2-5.6,3.6-9.9,8.8-10.6c0.6,0,1.2,0,1.9-0.2C692.1,230.5,692.3,222,686.2,221.8z" style="fill:#F7D06F;"/>
	<path d="M672,400.9c-0.9,0.3-1.7,0.6-2.5,1.1c-2.8,0.8-5.7-0.5-7.3-2.6c0-0.3,0.2-0.6,0.2-0.9c0.3-2.2-0.8-3.4-2.2-4
		c-2.3-3.4-9.2-0.8-8.2,4.3c0.2,0.8,0.3,1.4,0.6,2.2c-0.8,2.3-2.2,4.2-3.9,5.7c-1.4,0.6-2.6,1.6-3.7,2.6c-3.6,3.9,0.9,9.9,5.6,7.3
		c1.1-0.6,2-1.2,2.8-1.9c3.4-0.6,6.8,5.1,8.2,7.4c2.6,4.5,9.9,1.6,8.5-3.6c-0.9-3.3,0.3-6.4,3.1-8.1c0.8-0.3,1.7-0.6,2.5-1.1
		C680.2,406.9,677.1,399.3,672,400.9z" style="fill:#F7D06F;"/>
	<path d="M134.3,173.7c-4-0.3-7.8,0.6-10.9,2.3c-3.9,0.2-7.4-0.8-8.5-4.5c0.9-2.9,1.6-5.9,1.7-9.2c0.3-6.1-9-5.9-9.3,0
		c0,0.9-0.2,1.7-0.3,2.5c-0.9,0.8-1.7,1.9-1.7,3.4c0,0.8,0,1.6,0,2.3c-1.2,2.8-3.3,5.3-5.6,7.3c-1.7,0.8-3.4,1.9-4.8,3.4
		c-3.3,3.9,0.8,10.1,5.6,7.3c1.4-0.8,2.8-1.7,4-2.8c4.7-0.9,9,7.9,10.4,11.5c2.2,5.4,10.7,3.4,9-2.5c-1.2-4.3,0-8.1,2.8-10.2
		c2.9-0.3,5.9-1.1,8.5-2C140.3,180.8,139.7,174,134.3,173.7z" style="fill:#F7D06F;"/>
	<path d="M118.8,418.6c-1.9-0.2-3.7,0.3-5.4,0.9c-3.1-0.3-5.6-2.5-5.7-6.4c-0.2-3.3-2.6-4.7-5.1-4.5
		c-2.6-2.5-8.1-1.4-7.9,3.3c0.2,5.1,0.6,11.8-2.2,16.4c-2,1.1-3.7,2.8-4.8,5.1c-1.9,3.9,2.2,9.2,6.4,6.4c1.9-1.2,3.4-2.8,4.7-4.3
		c2.6-0.3,5.7,3.9,7.8,7.4c0.8,2,1.9,4,2.8,6.1c2.3,4.7,10.2,1.4,8.5-3.6c-0.9-2.5-1.9-5.1-3.1-7.6c-1.1-3.4-1.6-7,0.5-8.7
		c1.6-0.2,3.3-0.5,5-1.2C124.6,425.7,124.3,418.7,118.8,418.6z" style="fill:#F7D06F;"/>
	<path d="M375.7,55.8c-2.3,0.5-4.5,1.2-6.4,2.5c-4.8,0.5-9.3-2.3-9.8-8.4c-0.2-2.3-1.7-3.7-3.4-4.2
		c-2.2-4.7-10.2-2.2-8.7,3.4c1.4,4.8,0.3,9.9-2.6,13.8c-2.9,1.2-5.7,3.1-8.1,5.7c-2.6,3.1-0.2,9.8,4.5,7.8c3.1-1.2,5.9-3.1,8.2-5.3
		c4.5-1.7,9.3-1.1,10.2,5.3c0.8,5.7,9.6,6.1,9.3,0c-0.2-3.9,1.1-7,3.7-9.2c2.2-0.5,4.3-1.6,6.5-2.9
		C383.6,61.4,380.9,54.7,375.7,55.8z" style="fill:#F7D06F;"/>
	<path d="M368.4,324.4c-6.1,0-6.1,9.3,0,9.3C374.3,333.7,374.5,324.4,368.4,324.4z" style="fill:#FFFFFF;"/>
	<path d="M390.2,412.4c-2.5,0.2-4.7,2-4.7,4.7v1.1c0,2.5,2.2,4.8,4.7,4.7c2.5-0.2,4.7-2,4.7-4.7V417
		C394.8,414.5,392.6,412.2,390.2,412.4z" style="fill:#FFFFFF;"/>
	<path d="M603.2,412.4h-1.1c-2.5,0-4.8,2.2-4.7,4.7c0.2,2.5,2,4.7,4.7,4.7h1.1c2.5,0,4.8-2.2,4.7-4.7
		C607.7,414.5,605.9,412.4,603.2,412.4z" style="fill:#FFFFFF;"/>
	<path d="M697.4,313.1c-2.5,0.2-4.7,2-4.7,4.7v1.1c0,2.5,2.2,4.8,4.7,4.7s4.7-2,4.7-4.7v-1.1
		C702.1,315.2,699.9,312.9,697.4,313.1z" style="fill:#FFFFFF;"/>
	<path d="M733.6,443.4h-1.1c-2.5,0-4.8,2.2-4.7,4.7s2,4.7,4.7,4.7h1.1c2.5,0,4.8-2.2,4.7-4.7
		C738.1,445.6,736.2,443.4,733.6,443.4z" style="fill:#FFFFFF;"/>
	<path d="M618,297.8c-1.9-1.7-4.8-1.9-6.5,0l-1.1,1.1c-1.7,1.7-1.9,4.8,0,6.5c1.9,1.7,4.8,1.9,6.5,0
		c0.3-0.3,0.6-0.6,1.1-1.1C619.7,302.7,619.8,299.6,618,297.8z" style="fill:#FFFFFF;"/>
	<path d="M672.6,144.4c-2.5,0.2-4.7,2-4.7,4.7v1.1c0,2.5,2.2,4.8,4.7,4.7c2.5-0.2,4.7-2,4.7-4.7V149
		C677.2,146.5,675.1,144.2,672.6,144.4z" style="fill:#FFFFFF;"/>
	<path d="M443.1,54.7c-1.9-1.7-4.8-1.9-6.5,0l-1.1,1.1c-1.7,1.7-1.9,4.8,0,6.5c1.9,1.7,4.8,1.9,6.5,0
		c0.3-0.3,0.6-0.6,1.1-1.1C444.8,59.6,444.9,56.4,443.1,54.7z" style="fill:#FFFFFF;"/>
	<path d="M556.8,46.5l-1.1-1.1c-1.7-1.7-4.8-1.9-6.5,0c-1.7,1.9-1.9,4.8,0,6.5c0.3,0.3,0.6,0.6,1.1,1.1
		c1.7,1.7,4.8,1.9,6.5,0C558.5,51.1,558.7,48.3,556.8,46.5z" style="fill:#FFFFFF;"/>
	<path d="M303.4,50.6l-1.1-1.1c-1.7-1.7-4.8-1.9-6.5,0s-1.9,4.8,0,6.5l1.1,1.1c1.7,1.7,4.8,1.9,6.5,0
		S305.3,52.4,303.4,50.6z" style="fill:#FFFFFF;"/>
	<path d="M176,89.6c-6.1,0-6.1,9.3,0,9.3C181.9,98.9,182.1,89.6,176,89.6z" style="fill:#FFFFFF;"/>
	<path d="M127.4,243.7c-6.1,0-6.1,9.3,0,9.3C133.3,253,133.3,243.7,127.4,243.7z" style="fill:#FFFFFF;"/>
	<path d="M53.9,246.8h-1.1c-2.5,0-4.8,2.2-4.7,4.7s2,4.7,4.7,4.7h1.1c2.5,0,4.8-2.2,4.7-4.7
		C58.4,249,56.5,246.8,53.9,246.8z" style="fill:#FFFFFF;"/>
	<path d="M107.7,369.9h-1.1c-2.5,0-4.8,2.2-4.7,4.7s2,4.7,4.7,4.7h1.1c2.5,0,4.8-2.2,4.7-4.7
		C112.2,372,110.4,369.9,107.7,369.9z" style="fill:#FFFFFF;"/>
	<path d="M39.5,337.9c-6.1,0-6.1,9.3,0,9.3C45.4,347.2,45.5,337.9,39.5,337.9z" style="fill:#FFFFFF;"/>
	<path d="M179.1,422.6c-2.5,0.2-4.7,2-4.7,4.7v1.1c0,2.5,2.2,4.8,4.7,4.7c2.5-0.2,4.7-2,4.7-4.7v-1.1
		C183.8,424.9,181.6,422.6,179.1,422.6z" style="fill:#FFFFFF;"/>
	<path d="M591.9,113.5c-1.7-0.2-3.4,0.2-5.1,0.6c-5-0.5-7.9-5.3-6.1-10.7c0.9-2.8-0.8-4.8-2.9-5.4
		c-0.6-5.4-9.2-5.3-9.3,0.6c0,7.3-3.1,13.2-8.8,17.7c-4.2,3.4,1.2,9.9,5.6,7.3c5.6-3.3,8.1,6.7,8.8,10.1c1.2,5,9.8,4,9.2-1.2
		c-0.5-4,1.2-7.4,4.5-8.8c1.7,0,3.3-0.3,5.1-0.8C598.1,121.3,597,113.8,591.9,113.5z" style="fill:#F7D06F;"/>
	<path d="M449,142.7c-3.1,1.2-7.8,0-8.1-3.9c-0.5-4.5-6.2-5.6-8.4-3.1c-1.2,0.6-2.2,2-2,3.9c0.3,3.9-0.2,7.4-1.6,10.7
		c-2.6,2-4.5,5-5.1,8.2c-0.9,4.3,4.5,8.1,7.8,4.5c1.7-1.9,3.1-3.9,4.3-5.9c1.9-0.8,3.9-0.3,5,1.4c0.2,1.2,0.5,2.6,0.9,3.9
		c1.7,4.5,9.5,4.3,9.2-1.2c0-1.4-0.3-2.9-0.8-4.2c-0.2-2.6,0.9-4.8,3.3-6.7C457,147.6,453.2,141,449,142.7z" style="fill:#F7D06F;"/>
	<path d="M496.2,114.4c-6.1,0-6.1,9.3,0,9.3S502.2,114.4,496.2,114.4z" style="fill:#FFFFFF;"/>
	<path d="M544.6,166.9c-1.9-1.7-4.8-1.9-6.5,0l-0.8,0.8c-1.7,1.7-1.9,4.8,0,6.5c1.9,1.7,4.8,1.9,6.5,0
		c0.3-0.3,0.6-0.6,0.8-0.8C546.3,171.7,546.4,168.6,544.6,166.9z" style="fill:#FFFFFF;"/>
	<path d="M605.2,181.8c-6.1,0-6.1,9.3,0,9.3C611.1,191.1,611.1,181.8,605.2,181.8z" style="fill:#FFFFFF;"/>
	<path d="M443.4,188.4c-2.5,0.2-4.7,2-4.7,4.7v0.8c0,2.5,2.2,4.8,4.7,4.7c2.5-0.2,4.7-2,4.7-4.7v-0.8
		C448,190.8,446,188.4,443.4,188.4z" style="fill:#FFFFFF;"/>
	<path d="M365.8,168.6c-1.9-1.7-4.8-1.9-6.5,0l-0.8,0.8c-1.7,1.7-1.9,4.8,0,6.5c1.9,1.7,4.8,1.9,6.5,0l0.8-0.8
		C367.5,173.4,367.7,170.3,365.8,168.6z" style="fill:#FFFFFF;"/>
	<path d="M390.6,109.3c-6.1,0-6.1,9.3,0,9.3C396.7,118.6,396.7,109.3,390.6,109.3z" style="fill:#FFFFFF;"/>
	<path d="M534.5,285c-24.5,1.4-48.9,2.2-73.4,2.3c-6.1,0-6.1,9.3,0,9.3c24.5,0,48.9-0.8,73.4-2.3
		C540.5,293.8,540.5,284.5,534.5,285z" style="fill:#57455D;"/>
	<path d="M553.9,363.5c-1.1-9.5,0.9-23.9-11.8-24.4c-14.6-0.6-29.6,0.8-44.2,1.6c-7.6,0.3-15.2,0.8-22.8,1.2
		c-5.7,0.3-12.7-0.3-18.2,1.4c-10.7,3.3-6.4,20-5.4,28.2c0.6,5.9,9.9,5.9,9.3,0c-0.6-4.8-0.9-9.5-1.1-14.3c0-0.9,0-1.9,0-2.8
		c-0.6-1.9-0.2-2.6,1.6-2.3c1.4-0.8,6.2-0.5,7.6-0.5c9.6-0.6,19.2-1.1,28.9-1.6s19.2-0.8,29-1.1c2.3,0,13.3-1.9,15.2-0.3
		c2.8,2.2,2.2,11.8,2.5,15.1C545.3,369.4,554.7,369.5,553.9,363.5z" style="fill:#57455D;"/>
	<path d="M519.4,513.5c-30.7,3.3-61.5,4.2-92.2,2.6c-6.1-0.3-5.9,9,0,9.3c30.7,1.6,61.6,0.6,92.2-2.6
		C525.3,522.2,525.3,512.9,519.4,513.5z" style="fill:#57455D;"/>
	<path d="M501.1,249.6c-26.5,5.1-54,3.9-80.8,2.9c-6.1-0.2-6.1,9.2,0,9.3c27.8,0.9,56,2,83.3-3.3
		C509.3,257.5,506.9,248.5,501.1,249.6z" style="fill:#57455D;"/>
	<path d="M257.6,519c-3.3-5.1-9.3-4-14.6-4c-9.3,0-18.5,0-27.8,0c-6.1,0-6.1,9.3,0,9.3c6.4,0,12.7,0,19.1,0
		c2.9,0,5.9,0,8.8,0c1.9,0,7.6,0.9,6.7-0.6C252.8,528.8,260.9,524.1,257.6,519z" style="fill:#57455D;"/>
	<path d="M334.5,513.5c-13.2-0.8-26.2-0.5-39.3,0.9c-5.9,0.6-5.9,9.9,0,9.3c13-1.4,26.2-1.9,39.3-0.9
		C340.5,523.2,340.5,513.9,334.5,513.5z" style="fill:#57455D;"/>
	<path d="M213.1,332c-9.8-12.1-19.9-23.9-30.3-35.5c-4-4.5-10.6,2.2-6.5,6.5c10.4,11.6,20.5,23.6,30.3,35.5
		C210.3,343.3,216.8,336.6,213.1,332z" style="fill:#57455D;"/>
	<path d="M392.6,252.8c-10.1-6.2-19.9-12.9-29-20.3c-4.7-3.7-11.2,2.8-6.5,6.5c9.8,7.9,20.2,15.2,30.9,21.7
		C393.1,264,397.8,255.9,392.6,252.8z" style="fill:#57455D;"/>
	<path d="M305.3,275.2c-8.7,0.3-17.2,0.8-25.9,1.1c-5.9,0.3-6.1,9.6,0,9.3c8.7-0.3,17.2-0.8,25.9-1.1
		C311.3,284.2,311.3,274.9,305.3,275.2z" style="fill:#57455D;"/>
	<path d="M304.5,299.9c-7.6,0.5-15.1,1.1-22.7,1.6c-5.9,0.5-6.1,9.8,0,9.3c7.6-0.5,15.1-1.1,22.7-1.6
		C310.4,308.9,310.4,299.6,304.5,299.9z" style="fill:#57455D;"/>
	<path d="M275,358.1c-1.7,10.4-2.3,20.8-1.4,31.3c0.5,5.9,9.8,6.1,9.3,0c-0.8-9.6-0.6-19.2,1.1-28.9
		C285,354.6,276,352.2,275,358.1z" style="fill:#57455D;"/>
	<path d="M243.1,260.8c-0.2-6.1-9.5-6.1-9.3,0c0.3,13.7,0,27.3-0.8,41c-0.3,6.1,9,5.9,9.3,0
		C243.2,288.1,243.4,274.4,243.1,260.8z" style="fill:#57455D;"/>
	<path d="M333.8,285.9c-1.4-13-3.3-25.9-5.6-39c-1.1-5.9-10.1-3.4-9,2.5c2.2,12.1,3.9,24.2,5.3,36.5
		C325.1,291.8,334.5,291.8,333.8,285.9z" style="fill:#57455D;"/>
	<path d="M263.5,174.6h-0.2c-2.5,0-4.8,2.2-4.7,4.7c0.2,2.5,2,4.7,4.7,4.7h0.3c2.5,0,4.8-2.2,4.7-4.7
		C268,176.8,266.2,174.6,263.5,174.6z" style="fill:#57455D;"/>
	<path d="M284.3,174.2H284c-2.5,0-4.8,2.2-4.7,4.7c0.2,2.5,2,4.7,4.7,4.7h0.3c2.5,0,4.8-2.2,4.7-4.7
		C288.8,176.3,287,174.2,284.3,174.2z" style="fill:#57455D;"/>
	<path d="M278.7,184.6c-3.1,0.3-6.2,0.6-9.2,0.9c-2.5,0.3-4.7,2-4.7,4.7c0,2.3,2.2,5,4.7,4.7c3.1-0.3,6.2-0.6,9.2-0.9
		c2.5-0.3,4.7-2,4.7-4.7C283.4,186.9,281.2,184.3,278.7,184.6z" style="fill:#57455D;"/>
	<path d="M661.6,508.1c-8.4-0.6-16.8-1.2-25.1-1.9c-6.1-0.5-5.9,8.8,0,9.3c8.4,0.6,16.8,1.2,25.1,1.9
		C667.5,517.9,667.5,508.6,661.6,508.1z" style="fill:#57455D;"/>
	<path d="M649.8,588.3c-7.8-0.6-15.7-1.4-23.4-2c-5.9-0.5-5.9,8.8,0,9.3c7.8,0.6,15.7,1.4,23.4,2
		C655.8,598.3,655.8,589,649.8,588.3z" style="fill:#57455D;"/>
	<path d="M518.2,587.4c-4.8-4-11.2-5.9-17.4-6.2c-0.5-0.5-1.2-0.9-2.2-1.1c-10.4-2-20.5,2.3-25.6,11.8
		c-1.2,2.3-0.5,5,1.7,6.4c6.8,4.3,14.4,7.1,22.5,7.8c6.7,0.5,16.8,0.3,22.2-4.2C524.6,597.8,522.8,591.5,518.2,587.4z M510.3,596
		c-1.7,1.2-5.1,0.9-7,1.1c-6.8,0.5-13.3-1.1-19.2-4c2.2-2.2,5.1-3.6,8.2-3.9c0.8,1.1,2,1.9,3.7,1.7c4.3-0.5,8.8-0.2,12.7,1.9
		c1.6,0.5,2.8,1.4,3.7,2.6L510.3,596z" style="fill:#57455D;"/>
	<path d="M386.3,483.4c-4.5,2.5-9.8,3.6-14.9,2.6c-5.9-0.9-8.4,7.9-2.5,9c7.8,1.2,15.2,0.2,22-3.6
		C396.2,488.6,391.6,480.5,386.3,483.4z" style="fill:#57455D;"/>
	<path d="M153.8,568.6c-1.6-13.7-21.6-13.8-31-10.9c-9.8,1.4-25.3,5.1-25.8,16.4c-0.6,14.1,25,9.9,32.9,9.3
		C138.5,582.9,155.2,581.2,153.8,568.6z M124,574.5c-2.3,0.2-15.7,1.2-16.1-1.1c-0.8-3.4,11-5.7,16-6.5c0.3,0,0.6,0,1.1-0.2
		c0.3,0,0.6,0,0.8-0.2c0.8-0.2,1.4-0.3,2-0.6c2.2-0.6,4.5-0.9,6.8-0.8c2.6,0.2,5.1,0.8,7.4,1.9c0.2,1.6,0.3,3.3,0.3,4.8
		C140,575.2,127.1,574.4,124,574.5z" style="fill:#57455D;"/>
	<path d="M160.8,509.5c-7.3-0.6-14.6,0.5-21.4,3.3c-5.4,2.2-3.1,11.2,2.5,9c6.2-2.5,12.3-3.4,18.9-2.9
		C166.9,519.3,166.7,510,160.8,509.5z" style="fill:#57455D;"/>
	<path d="M346.7,621.7l-25.1-2c-5.9-0.5-5.9,8.8,0,9.3l25.1,2C352.6,631.6,352.6,622.3,346.7,621.7z" style="fill:#57455D;"/>
	<path d="M207.8,614.3c-7.9-0.8-15.7-1.6-23.6-2.2c-5.9-0.6-5.9,8.7,0,9.3c7.9,0.8,15.7,1.6,23.6,2.2
		C213.7,624,213.7,614.7,207.8,614.3z" style="fill:#57455D;"/>
	<path d="M418.7,574.8h-18.5c-6.1,0-6.1,9.3,0,9.3h18.5C424.8,584.2,424.8,574.8,418.7,574.8z" style="fill:#57455D;"/>
	<path d="M721.8,550c-6.7-0.6-13.3-1.1-20-1.7c-5.9-0.5-5.9,8.8,0,9.3c6.7,0.6,13.3,1.1,20,1.7
		C727.8,559.8,727.8,550.5,721.8,550z" style="fill:#57455D;"/>
</g>
</svg>
