<?xml version="1.0" encoding="utf-8"?>
<!-- Generator: Adobe Illustrator 23.0.2, SVG Export Plug-In . SVG Version: 6.00 Build 0)  -->
<svg version="1.1" id="Capa_1" xmlns="http://www.w3.org/2000/svg" xmlns:xlink="http://www.w3.org/1999/xlink" x="0px" y="0px" viewBox="0 0 800 715.6" style="enable-background:new 0 0 800 715.6;" xml:space="preserve">

<g>
	<path d="M773,204.7c-30.8-72-81.3-140.1-156.4-169.3c-40.1-15.7-83.8-23.2-126.2-30.2c-21.9-3.7-44-6.2-66.2-4.7
		c-21.6,1.3-42.3,7.2-62.8,13.5C321.6,26.1,281,33.7,240.6,43.3c-38.7,9.1-77.5,21-111.1,43C65.3,128.2,23.2,200.4,7.3,274.4
		c-16,74.2-6.3,155.2,34.6,220c37.3,58.7,98.5,103.3,167,117.1c7.6,1.5,15.3,2.6,22.9,3.4c8.1,1.5,16.3,2.5,24.5,3.4
		c41.4,4.1,83.6,3.2,125.2,2.1c83.9-2.3,170.4-12,247-48.7c62.2-29.8,118.4-77.9,148.6-140.7C812.1,358.8,803.9,276.7,773,204.7z" style="fill:#56597A;"/>
	<path d="M513,610.3c1.5-0.6,2.6-1.9,2.5-4c-3.8-56.5-7.6-113-11.4-169.5c-1.9-28.3-3.8-56.5-5.7-84.8
		c-1.3-20.4-7.2-49,9.7-64.9c2.9-2.8,0.4-7.2-3.1-7.5c-83.6-6.7-167.9-2.3-250.3,12.6c-4.1,0.7-3.8,6-1,8.1
		c17.5,12.5,17.9,36.5,16.4,55.9c-2.1,27.3-6,54.3-8.2,81.6c-4.7,58.1-6.7,116.5-8.7,174.8c0,1.9,0.9,3.1,2.1,3.7
		c0.4,1.8,1.8,3.5,4.1,3.7c45.5,2.6,91.1,5.3,136.6,7.9c39,2.2,80.7,7.5,117.2-10.1C516.8,616,515.7,611.7,513,610.3z" style="fill:#F087B1;"/>
	<path d="M547.1,689.1c-5.1-10.3-10.3-20.4-15.4-30.7c-4.3-8.5-7.6-20-17-24.2c-8.4-3.8-19.2-3.4-28.2-4.3
		c-12.5-1.3-24.8-2.3-37.3-3.2c-23.9-1.6-48-2.6-71.9-2.9c-26.9-0.3-53.7,0.3-80.6,1.8c-8.7,0.4-47.2-1-44,16.1
		c-12.8,21.6-23.5,44.3-32,68.1c-1,2.8,1.6,5.6,4.3,5.6c97.1,1.3,194.3-2.8,291.3-7.2c5.9-0.3,11.6-0.6,17.5-0.9
		c4-0.1,9.1,0.4,12.8-1.2C554.8,703,549.9,694.5,547.1,689.1z" style="fill:#F7D16F;"/>
	<path d="M404.5,652.8c-3.1-7.6-5-20.4-15.4-20c-5.1,0.1-10.7,1.8-16.1,4c-0.7,0.1-1.3,0.3-2.1,0.6
		c-1.3,0.4-2.5,1.2-3.5,1.9c-4.8,2.3-9.5,4.8-13.5,7c-0.4,0.3-0.7,0.4-1,0.7c-3.7,0.7-7.3,0.9-11,0.4c-12.8-1-24.7-6.7-37.3-8.7
		c-1.6-0.3-3.1,0.3-4,1.3c-1,0.4-2.1,1.3-2.5,2.6c-5.6,14.2-11.2,28.5-16.7,42.7c-1.2,2.9,1.8,5.3,4.3,5.6c13.2,1.8,26.4,3.1,39.6,4
		c8.7,0.6,22.6,4,30.7-0.9c1.2-0.7,2.1-1.5,2.8-2.3c0.9,0.6,2.1,0.7,3.4,0.4c13.1-3.5,27.4-7.6,39.2-14.4
		C412,671.6,408.5,662.8,404.5,652.8z M391.8,644.7c-0.1,0-0.3-0.1-0.4-0.1c-0.4-0.6-0.9-1-1.5-1.6c-0.4-0.4-0.7-0.7-1.2-0.9
		C389.8,642.2,390.9,643,391.8,644.7z" style="fill:#FFFFFF;"/>
	<path d="M510.8,661.2c-6.3-5.9-15-8.1-23.2-9.4c-10.7-1.6-21.7-2.3-32.4-3.5c-2.2-0.3-3.5,0.9-4,2.5
		c-0.6,0.3-1.2,0.9-1.6,1.8c-2.5,5.1-5,10.3-7.5,15.4c-1.8,3.7-4.5,7.8-4.5,11.9c0,8.8,9.2,9.8,16,11.2c10.9,2.1,21.7,4.3,32.7,6
		c7.3,1.2,15.6,2.1,22.5-1.3C522.5,688.9,521,670.7,510.8,661.2z" style="fill:#FFFFFF;"/>
	<path d="M411.3,228.7c-0.4-5.1,0-13.2-3.8-17.2c-3.5-3.8-10.4-3.1-15.1-3.1c-7.9-0.1-15.7,0.7-23.3,1.9
		c-0.7,0.1-1.3,0.4-1.9,0.7c-2.1,0.4-4,1.3-5.3,3.2c-2.6,3.7-1.9,9.1-1.9,13.4c0,6.5-0.7,13.6,0.4,20.1
		c1.8,10.7,13.8,10.6,22.6,10.7c7.9,0.1,23.8,1.3,27.6-7.8C412.9,244.3,411.7,235.3,411.3,228.7z" style="fill:#F7D3BD;"/>
	<path d="M111.1,347.7c-10.1-6.3-23.8-7.9-34.6-2.5c-3.4,1.8-6.3,4-8.7,6.7c-7.3,5.3-12.9,12.9-15.1,22.3
		c-4.4,20,7.9,42.4,28,47.5c18.6,4.7,39.9-5.7,47.7-23.3C136.6,380.2,127.5,358,111.1,347.7z" style="fill:#B6C8E8;"/>
	<path d="M736.9,421.3c-11-19.8-35.7-30.7-56.2-20.5c-14.1,3.1-26.4,12.9-31.8,26.9c-7.3,18.9,1,40.9,17,52.8
		c16.7,12.5,40.4,11.4,57.4,0.1c9-6,16.9-15.1,19.5-25.7C745.4,443.4,742.3,431.1,736.9,421.3z" style="fill:#B6C8E8;"/>
	<path d="M716.5,217.6c-1.6-13.4-8.4-27-21-33c-2.6-1.3-5.6-2.2-8.4-2.8c-20-10.1-46.1-6-61.2,10.9
		c-15.6,17.3-16.3,45-2.9,63.8c13.6,19.1,40.2,25.5,61.8,17C706.8,264.7,719.4,240.6,716.5,217.6z" style="fill:#74A3D7;"/>
	<path d="M143,250.8c-2.5,2.2-7.2-1.2-6.5-4.1c0.6-2.5-0.7-4.3-2.6-5.1c0-0.1,0-0.4,0.1-0.6c0.7-5.6-8.1-5.6-8.8,0
		c-0.6,5.4-3.7,9.8-8.1,12.8c-1.2,0.4-2.5,1.2-3.5,1.9c-4.7,3.4-0.7,9.8,4.4,7.6c0.9-0.4,1.8-0.9,2.5-1.3c5.9-1.9,13.2,2.3,13.1,9.2
		c-0.1,5.7,8.2,5.4,8.8,0c0.6-5.6,2.9-10.1,6.7-14.1C153.2,253,147.3,247.1,143,250.8z" style="fill:#F7D16F;"/>
	<path d="M172.5,511.8c-2.3,0.3-10.6,1.3-10.7-2.5c-0.1-5.3-8.1-5.7-8.8-0.9c-0.4,0.4-0.7,1.2-0.9,2.1
		c-0.7,4.7-2.8,8.8-6.2,11.7c-2.6,0.9-5.1,2.3-7.5,4.4c-3.2,2.8,0.1,8.8,4.3,7.3c2.8-1,5.3-2.3,7.5-4c5.6-1.5,11.9,0.4,15.3,5.3
		c3.2,4.5,10.6,0.6,7.6-4.4c-2.5-4.3-1.3-8.5,2.3-11.4C178.4,516.9,176.2,511.2,172.5,511.8z" style="fill:#F7D16F;"/>
	<path d="M608.5,376.4c-0.3,0.3-0.6,0.4-0.9,0.7l0,0c-1.8,1.5-4-0.3-4.8-2.2c0-1,0-2.1,0-3.1c0-1.9-1-3.2-2.3-3.8
		c-1-4.3-7.8-5.6-8.4-0.6c-1,6.7-4,12.3-9.4,16.6c-3.8,3.1,0.6,7.9,4.3,7.3c5.7-0.9,11.2,1.5,15,5.9c3.2,3.7,7.9-0.4,7.3-4.3
		c-0.4-3.4,1-6.7,3.7-8.8l0,0c0.3-0.1,0.6-0.4,0.9-0.7C617.6,380.2,612.4,373.4,608.5,376.4z" style="fill:#F7D16F;"/>
	<path d="M490.8,90.5c-3.7,1.5-7.2,0.6-9.2-2.9c-0.6-1.2-1.6-1.8-2.8-2.1c-3.1-1.6-7.8,0.6-6.5,4.8
		c0.1,0.4,0.3,0.9,0.3,1.3c-0.3,1.8-0.6,3.5-0.3,5.1c-0.4,1.5-1.2,2.8-2.2,4c-3.2,0.7-6.3,2.2-9,4.4c-2.8,2.3-0.6,7.9,3.1,7.5
		c3.5-0.4,6.7-1.8,9.5-3.8c4.5-0.3,9.4,1.9,11.7,6c2.5,4.3,9.4,1.5,8.1-3.4c-1.5-5.3-0.7-10,2.1-14.7
		C497.7,93.9,494.5,89.1,490.8,90.5z" style="fill:#F7D16F;"/>
	<path d="M258.4,132.9c-2.8,1.5-5.4-0.6-6-3.2c-0.4-1.9-1.8-2.9-3.4-3.1c-2.6-3.7-9.5-1.3-7.8,3.5
		c1.5,4,0.7,8.5-1.8,11.9c-4,0.6-7.8,2.5-10.7,5.7c-2.2,2.5-1,7.9,3.1,7.5c4.3-0.4,8.1-2.2,11.2-4.8c3.1,0,6,1.3,7.9,4
		c2.8,4,9.2,1.6,8.1-3.4c-0.9-4,0.3-7.9,3.7-10.4C267.2,137.2,263.5,130.3,258.4,132.9z" style="fill:#F7D16F;"/>
	<path d="M745.1,219.2c-1.2-3.2-4.1-4.5-7-5.4c-5.9-1.9-12-2.9-17.9-4.4c-5.4-1.3-7.8,7.2-2.3,8.5
		c3.4,0.9,6.7,1.6,10.3,2.5c1.8,0.4,3.4,0.9,5.1,1.3c2.9,0.6,3.4,0.7,1.3,0.6c-1.5,1.6-8.4,2.5-10.6,3.1c-2.6,0.7-5.3,1.5-7.9,2.1
		c-14.2,3.4-28.8,5.9-43.4,7.2c-6.7,0.6-73.8,2.3-80.7-4.8c6.6-2.8,13.4-5.6,20-8.2c5.1-2.2,2.9-10.7-2.3-8.5
		c-6.2,2.5-12.3,5.1-18.3,7.6c-3.4,1.5-7.5,2.1-8.5,6c-1.9,7.3,5.7,12.2,11.9,13.8c10.4,2.8,22.3,3.1,33,3.7
		c11.9,0.6,23.8,0.6,35.5-0.1c23.2-1.5,46.2-5.3,68.5-11.7C737.2,230.5,747.9,227.4,745.1,219.2z" style="fill:#F7D3BD;"/>
	<path d="M219.8,406c-2.3,0.1-4.4,1.9-4.4,4.4v2.2c0,2.3,2.1,4.5,4.4,4.4c2.3-0.1,4.4-1.9,4.4-4.4v-2.2
		C224.2,408.1,222.1,405.9,219.8,406z" style="fill:#FFFFFF;"/>
	<path d="M184.6,320.2c-5.7,0-5.7,8.8,0,8.8C190.1,329,190.1,320.2,184.6,320.2z" style="fill:#FFFFFF;"/>
	<path d="M244,225.5c-5.7,0-5.7,8.8,0,8.8C249.6,234.3,249.6,225.5,244,225.5z" style="fill:#FFFFFF;"/>
	<path d="M156,146.3c-5.7,0-5.7,8.8,0,8.8C161.5,155.1,161.5,146.3,156,146.3z" style="fill:#FFFFFF;"/>
	<path d="M469.5,179.1c-5.7,0-5.7,8.8,0,8.8C475.1,188,475.1,179.1,469.5,179.1z" style="fill:#FFFFFF;"/>
	<path d="M554.3,267.5c-2.3,0.1-4.4,1.9-4.4,4.4v1.8c0,2.3,2.1,4.5,4.4,4.4c2.3-0.1,4.4-1.9,4.4-4.4v-1.8
		C558.7,269.7,556.7,267.5,554.3,267.5z" style="fill:#FFFFFF;"/>
	<path d="M683.5,331.2c-2.3,0.1-4.4,1.9-4.4,4.4v1.8c0,2.3,2.1,4.5,4.4,4.4c2.3-0.1,4.4-1.9,4.4-4.4v-1.8
		C687.9,333.4,685.8,331.2,683.5,331.2z" style="fill:#FFFFFF;"/>
	<path d="M763,288.8c-2.3,0.1-4.4,1.9-4.4,4.4v1.8c0,2.3,2.1,4.5,4.4,4.4c2.3-0.1,4.4-1.9,4.4-4.4v-1.8
		C767.4,290.8,765.5,288.6,763,288.8z" style="fill:#FFFFFF;"/>
	<path d="M755.9,370.1c-2.3,0.1-4.4,1.9-4.4,4.4v1.8c0,2.3,2.1,4.5,4.4,4.4s4.4-1.9,4.4-4.4v-1.8
		C760.4,372.3,758.3,370.1,755.9,370.1z" style="fill:#FFFFFF;"/>
	<path d="M589.7,516.9c-5.7,0-5.7,8.8,0,8.8C595.4,525.7,595.4,516.9,589.7,516.9z" style="fill:#FFFFFF;"/>
	<path d="M543.8,462.1H542c-2.3,0-4.5,2.1-4.4,4.4c0.1,2.3,1.9,4.4,4.4,4.4h1.8c2.3,0,4.5-2.1,4.4-4.4
		C548,464.1,546.3,462.1,543.8,462.1z" style="fill:#FFFFFF;"/>
	<path d="M593.2,430.2c-2.3,0.1-4.4,1.9-4.4,4.4v1.8c0,2.3,2.1,4.5,4.4,4.4c2.3-0.1,4.4-1.9,4.4-4.4v-1.8
		C597.6,432.4,595.6,430.2,593.2,430.2z" style="fill:#FFFFFF;"/>
	<path d="M531.3,341.9c-5.7,0-5.7,8.8,0,8.8C537,350.7,537,341.9,531.3,341.9z" style="fill:#FFFFFF;"/>
	<path d="M556.1,74.8c-5.7,0-5.7,8.8,0,8.8S561.8,74.8,556.1,74.8z" style="fill:#FFFFFF;"/>
	<path d="M573.9,157.9c-5.7,0-5.7,8.8,0,8.8C579.4,166.7,579.4,157.9,573.9,157.9z" style="fill:#FFFFFF;"/>
	<path d="M663.9,103.1c-5.7,0-5.7,8.8,0,8.8C669.7,111.9,669.7,103.1,663.9,103.1z" style="fill:#FFFFFF;"/>
	<path d="M389.8,69.5c-5.7,0-5.7,8.8,0,8.8S395.6,69.5,389.8,69.5z" style="fill:#FFFFFF;"/>
	<path d="M297.8,74.8c-5.7,0-5.7,8.8,0,8.8C303.6,83.6,303.6,74.8,297.8,74.8z" style="fill:#FFFFFF;"/>
	<path d="M377.5,150.8c-5.7,0-5.7,8.8,0,8.8C383.1,159.6,383.2,150.8,377.5,150.8z" style="fill:#FFFFFF;"/>
	<path d="M92.3,201.6c-1.8-1.6-4.5-1.8-6.2,0c-0.6,0.6-1.2,1.2-1.8,1.8c-1.6,1.6-1.8,4.5,0,6.2c1.8,1.6,4.5,1.8,6.2,0
		l1.8-1.8C94,206.3,94,203.2,92.3,201.6z" style="fill:#FFFFFF;"/>
	<path d="M46.8,285.2c-5.7,0-5.7,8.8,0,8.8C52.5,294,52.5,285.2,46.8,285.2z" style="fill:#FFFFFF;"/>
	<path d="M216.6,561.1c-5.7,0-5.7,8.8,0,8.8S222.3,561.1,216.6,561.1z" style="fill:#FFFFFF;"/>
	<path d="M129.8,446.2c-2.3,0.1-4.4,1.9-4.4,4.4v1.8c0,2.3,2.1,4.5,4.4,4.4c2.3-0.1,4.4-1.9,4.4-4.4v-1.8
		C134.2,448.3,132.3,446.1,129.8,446.2z" style="fill:#FFFFFF;"/>
	<path d="M66.3,474.5c-5.7,0-5.7,8.8,0,8.8C71.9,483.3,71.9,474.5,66.3,474.5z" style="fill:#FFFFFF;"/>
	<path d="M129.4,380c-8.7-1.3-17.3-1.8-26.1-0.9c-5.6,0.4-5.7,9.2,0,8.8c7.9-0.7,15.8-0.6,23.8,0.6
		C132.6,389.4,135,380.9,129.4,380z" style="fill:#57455E;"/>
	<path d="M87.4,356h-23c-5.7,0-5.7,8.8,0,8.8h23C93.2,364.8,93.2,356,87.4,356z" style="fill:#57455E;"/>
	<path d="M89.2,398.4H76.9c-5.7,0-5.7,8.8,0,8.8h12.3C94.9,407.2,94.9,398.4,89.2,398.4z" style="fill:#57455E;"/>
	<path d="M392.9,233.1c2.2-2.6,4.4-5.3,6.5-7.9c3.4-4.5-4.3-9-7.6-4.4c-1.5,1.9-3.1,3.8-4.7,5.7
		c-2.9-3.4-5.9-6.7-8.7-10c-3.7-4.3-10,1.9-6.2,6.2c2.9,3.4,6,6.9,9,10.3c-3.2,3.2-6.5,6.3-10,9.2c-4.4,3.7,1.9,9.8,6.2,6.2
		c3.4-2.8,6.5-5.7,9.5-8.8c1.9,2.2,3.8,4.3,5.6,6.5c3.7,4.3,10-1.9,6.2-6.2C396.7,237.7,394.8,235.3,392.9,233.1z" style="fill:#57455E;"/>
	<path d="M391.6,645.9c-5,6.7-10.1,13.5-15.1,20.4c-3.8-0.3-7.3-1-10.9-2.3c-0.1-4.1-0.4-8.2-0.7-12.5
		c-0.4-4.7-6.6-5.4-8.4-2.2c-1.6-1.3-4-1.8-6-0.1c-4.7,4-9.4,7.9-14.1,11.9c-2.5,2.1-5,4.3-7.6,6.3c-1.6,1.3-4.5,5.1-6.5,5.4
		c-0.1,1.8-0.4,1.9-1,0.1c-0.7-1.2-1.3-2.5-2.1-3.7c-1.3-2.5-2.6-5-4-7.3c-3.1-5.7-6.2-11.4-9.2-17.3c-2.6-5-10.3-0.6-7.6,4.4
		c4,7.3,7.9,14.8,11.9,22.2c2.3,4.4,4.8,12.3,11.2,12c5.3-0.3,10.9-7.5,14.5-10.6c6.7-5.7,13.5-11.4,20.2-17
		c0.7,11.3,0.7,22.5,0,33.7c-0.4,5.7,8.4,5.6,8.8,0c0.3-5.3,0.6-10.7,0.6-16c5.4,1.8,12.6,3.5,16.3,0.1c3.1-2.9,5.4-7.3,7.9-10.7
		c3.1-4.1,6.2-8.2,9.2-12.3C402.5,645.8,394.8,641.4,391.6,645.9z" style="fill:#57455E;"/>
	<path d="M508.8,660.7c-9.4,2.3-18.8,5.6-28.3,7.3c-5.1,0.9-6.5-1.2-10-4.8c-3.7-3.7-7.2-7.3-10.9-10.9
		c-4-4-10.3,2.2-6.2,6.2c4.5,4.7,9.1,9.2,13.8,13.9c2.6,2.6,4.7,5,8.7,5.3c4.8,0.3,10.7-2.2,15.4-3.4c6.6-1.8,13.2-3.4,19.8-5.1
		C516.6,667.8,514.3,659.3,508.8,660.7z" style="fill:#57455E;"/>
	<path d="M706.6,427.1c-17.5,0.4-33.7-5.7-46.5-17.8c-4.1-4-10.4,2.3-6.2,6.2c14.4,13.5,33,20.8,52.7,20.2
		C712.2,435.8,712.4,427,706.6,427.1z" style="fill:#57455E;"/>
	<path d="M736.6,460c-15.4-2.2-30.1-7-43.7-14.7c-5-2.8-9.4,4.8-4.4,7.6c14.2,7.9,29.6,13.2,45.8,15.6
		C739.8,469.2,742.2,460.7,736.6,460z" style="fill:#57455E;"/>
	<path d="M696.5,463.8c-16-4.1-30.8-11.3-43.6-21.7c-4.4-3.5-10.7,2.6-6.2,6.2c14.1,11.3,29.9,19.5,47.5,23.9
		C699.6,473.8,702,465.3,696.5,463.8z" style="fill:#57455E;"/>
	<path d="M673.2,203.5c-14.7,1-29.2,0.3-43.7-2.2c-5.6-1-7.9,7.5-2.3,8.5c15.3,2.6,30.7,3.7,46.1,2.6
		C678.9,211.9,678.9,203.1,673.2,203.5z" style="fill:#57455E;"/>
	<path d="M686.3,254c-5.6,2.6-11.4,3.4-17.5,2.6c-5.6-0.6-5.6,8.2,0,8.8c7.6,0.9,15-0.6,21.9-3.8
		C695.9,259.1,691.4,251.5,686.3,254z" style="fill:#57455E;"/>
	<path d="M469.8,473.2c-0.3-24.4-0.3-48.6,0.1-72.9c0.4-23.5,3.1-47.7-2.1-70.9c-0.4-1.8-1.6-2.8-2.9-3.1
		c-0.3-1.9-1.6-3.8-4.3-3.8c-51.4-0.9-102.7-1.6-153.9-2.5c-3.2,0-4.7,2.9-4.1,5.4c-2.2,0-4.5,1.3-4.7,4.3
		c-5.4,93.2-12.3,186.4-20.8,279.2c-0.6,5.6,8.4,5.6,8.8,0c8.5-93,15.4-186.1,20.8-279.2c0-0.3,0-0.6,0-0.9c0,0,0,0,0.1,0
		c50.9,0.9,101.7,1.6,152.6,2.5c0,0.1,0,0.3,0,0.4c5.1,23.6,2.1,48.9,1.6,72.9c-0.4,23.8-0.4,47.7,0,71.5
		c0.7,48.1,3.1,96.3,6.9,144.1c0.4,5.6,9.2,5.7,8.8,0C472.9,571.4,470.6,522.2,469.8,473.2z" style="fill:#57455E;"/>
	<path d="M427.4,546.3c-0.9-16.9-1.9-33.9-2.8-50.8c-0.1-2.5-1.9-4.3-4.4-4.4c-31.7-1.2-63.4-2.3-94.9-4.3
		c-2.5-0.1-4.1,2.2-4.4,4.4c-3.7,32.6-5.4,65.4-5.6,98.2c0,0.1,0,0.3,0,0.4c-0.9,2.5,0.4,6.2,4,6.5c33.6,3.1,67.4,2.8,101-1
		c2.1-0.3,3.5-1.2,4.3-3.2C429.5,577.2,428.3,561.7,427.4,546.3z M324.1,588c0.1-30.8,1.9-61.5,5.1-92c28.9,1.8,58,2.8,86.9,3.8
		c0.7,14.5,1.6,29.2,2.3,43.7c0.7,14.5,2.3,29.3-1.6,43.4C386,590.2,355.1,590.4,324.1,588z" style="fill:#57455E;"/>
	<path d="M433.6,358.8c-2.1-3.5-5.7-4.4-9.7-4.8c-7.6-0.9-15.3-1.3-22.9-1.9c-14.7-1.3-29.5-2.5-44.2-3.8
		c-5.3-0.4-13.6-2.9-18.8-0.9c-4.3,1.6-4.5,6.7-5.3,10.6c-6.9,31.8-10.6,64.3-11.3,96.8c0,3.5,3.2,4.8,5.9,4
		c0.6,0.4,1.3,0.6,2.2,0.7c29.3,1.5,58.7,1.5,87.9,0.1c3.8-0.1,9,0.4,11.7-2.8c3.1-3.5,2.5-10.9,2.9-15.1
		c1.6-14.8,2.5-29.8,2.9-44.6c0.1-7.2,0.3-14.4,0.1-21.7C435.3,370.3,436.4,363.3,433.6,358.8z M426.7,385.6c0,7.6-0.3,15.4-0.6,23
		c-0.3,7.6-0.9,15.4-1.6,23c-0.3,3.8-0.7,7.6-1.2,11.4c-0.1,1.9-0.4,3.8-0.6,5.7c1.3,1.9,0.6,2.5-2.2,1.8c-3.1,1-8.1,0.4-11.3,0.4
		c-3.8,0.1-7.6,0.3-11.3,0.3c-7.6,0.1-15.1,0.3-22.7,0.3c-14.8,0-29.6-0.4-44.5-1c0.9-29.5,4.1-58.8,10.3-87.7
		c0.4-1.9,0.7-3.7,1.2-5.6c-0.1-3.1,0.6-3.7,2.1-1.5c3.2-0.7,8.1,0.7,11.4,1c7.6,0.6,15.3,1.3,22.9,1.9c7.6,0.6,15.3,1.3,22.9,1.9
		c3.8,0.3,7.6,0.6,11.4,1c2.8,0.3,9-0.4,11.4,1C429,365.5,426.7,380.5,426.7,385.6z" style="fill:#57455E;"/>
	<path d="M451.3,469.1c-3.4-9-15.7-11.3-21.7-3.7c-4.7,6-2.3,14.7,4,17.2c1.2,1.3,2.6,2.2,4.4,2.6
		C447.4,487.6,454.6,477.5,451.3,469.1z" style="fill:#F7D16F;"/>
</g>
</svg>
