<?xml version="1.0" encoding="utf-8"?>
<!-- Generator: Adobe Illustrator 20.1.0, SVG Export Plug-In . SVG Version: 6.00 Build 0)  -->
<svg version="1.1" id="Capa_1" xmlns="http://www.w3.org/2000/svg" xmlns:xlink="http://www.w3.org/1999/xlink" x="0px" y="0px" width="800px" height="600px" viewBox="0 0 800 600" style="enable-background:new 0 0 800 600;" xml:space="preserve">

<g>
	<path d="M368.7,331.8c-3.4-7.9-10.4-13.2-18-16.7c0.6-0.7,1.2-1.4,1.8-2.1c9-11.6,9.1-28.1,8.2-42.1
		c-1.9-30-14.2-59.1-38.8-77.4c-1.3-0.9-2.5-0.6-3.3,0.2c-0.1-0.3-0.1-0.5-0.2-0.8c0.9-0.6,1.8-1.4,2.7-2.3c7.1-8,4.6-23.7-0.9-31.9
		c-2.6-3.9-7.1-6.4-11.7-4.4c-2.8,1.2-4.5,3.4-5.6,5.9c-6.1,6.2-8.4,15.4-5,24c1.6,4.1,4.8,7.5,8.5,9.3c-0.1,1,0.1,2,0.5,2.9
		c-13.9,8.5-28.5,18.5-31.1,36.1c-1.4,9.4-4.3,17.2-4.9,26.7c-0.6,8.8-1.9,18-0.8,26.8c0.6,5.1,2.4,9.9,5.5,13.7
		c-1.6,11.9-1.2,23.3,6.3,32.7c-5.6-0.9-11.2-1.6-16.7-1.8c-7.1-0.3-8.8,6.1-10.5,12c-0.1,0.5-0.2,0.9-0.1,1.3
		c-2.6,0.8-5,2.2-7.2,4.2c-5.2,4.8-7.6,12-9.6,18.6c-0.8,2.6,2.2,4.6,4.4,3.4c4-2.1,10.5-7.3,15.1-6.2c3.8,0.9,7.9,3.9,11.6,5.5
		c8,3.6,16.3,6.7,24.6,9.5c15.5,5.1,32.9,9.4,48.7,3.2c11.5-4.5,19.2-13.7,22-25.2c0.4-0.2,0.8-0.4,1.1-0.8
		C371.2,349.2,372.2,339.9,368.7,331.8z" style="fill:var(--illu-brown--main);"/>
	<path d="M445.5,330.5c2.9-4.9,7-11.5,4.8-16.2c-1.5-3.2-5.4-3.7-8.4-4.2c-4.1-0.7-8.2-1.1-12.4-1.2
		c-4.7,0-16.1-0.8-17.6,5.3c-0.8,3.2,1.2,7,2.4,9.8c0.8,1.8,1.7,3.6,2.6,5.3c-9.6,5.4-18.8,12.6-18.9,24.6c0,12,7.1,23.5,16.9,30.1
		c20.4,13.9,51.2,1,53.1-24.4C469.3,344.7,457.5,336.3,445.5,330.5z" style="fill:var(--illu-blue--light);"/>
	<path d="M347.4,409.2c-5.1-1.7-10.7,0.4-15.7,3.6c2.4-6.4,3.8-13.2,4.1-20.2c0.1-2.3-2.6-3.8-4.5-2.6
		c-9.7,6-18,18.4-15.2,30.1c-0.3,1.8,0,3.7,1.3,5.3c5.6,6.5,18.5,4,24.5-0.3C345,422.8,355.2,411.8,347.4,409.2z" style="fill:var(--illu-white--main);"/>
	<path d="M332.5,439.3c-1.1-5.8-5.1-10.4-9.5-14.1c-0.6-0.5-1.3-0.7-2-0.7c-0.3-0.4-0.8-0.7-1.3-0.9
		c-5.7-2-12.8-3.6-17.6,1.3c-3.9,3.9-6.2,12-2.3,16.6c3.6,4.2,9.9,4.7,14.6,2.3c0.3-0.1,0.5-0.3,0.8-0.4c0.1,0.2,0.1,0.4,0.2,0.5
		c1.8,4.4,6.3,8.1,11.4,7C332.1,449.7,333.3,443.9,332.5,439.3z M304.6,437.8c-2.2-2.3,0.3-8,2.6-9.4c2.6-1.6,5.9-0.8,8.7,0.2
		c0,0.1,0,0.2,0,0.3c0,0.6,0,1.2,0,1.8c-0.6,1.6-1.1,3.2-1.4,4.9c-0.4,0.6-0.8,1.2-1.4,1.7C311.1,439.2,306.8,440.2,304.6,437.8z
		 M326.7,442.7c-1.6,5.2-5.7-0.3-6.2-2.7c-0.2-0.8-0.2-1.6-0.1-2.5c0.8-1.6,1.3-3.4,1.5-5.3C324.8,435.2,327.8,439.2,326.7,442.7z" style="fill:var(--illu-red--light);"/>
	<path d="M562.3,283.1c-6.1,0.5-12-3.8-17.9-5.2c-5.1-1.2-10.5-1.6-15.8-1.2c-0.7,0.1-1.3,0.1-2,0.2
		c6.3-10.1,5.3-20.1,1-31.1c-0.5-1.4-2.1-2.7-3.7-2.1c-13.8,5.3-21.6,21.4-25.5,35.8c-0.7-5.3-3.8-10.5-7.6-14.3
		c-9.4-9.4-22.9-12.5-35.4-15.1c-1.9-0.4-3.8,0.8-3.8,2.9c0.1,10.5,7.3,18.7,14.4,25.6c7,6.9,15.2,12.4,25.2,12.9
		c1.1,0.9,2.6,1.2,3.8-0.2c0.6-0.7,1.2-1.4,1.6-2.2c0.3,1.7,2,2.7,3.4,2.6c0.6,0.6,1.5,1,2.4,1.1c16.8,13.5,49.1,12.8,62.5-5.1
		C566.2,285.9,564.4,282.9,562.3,283.1z" style="fill:var(--illu-blue--main);"/>
	<path d="M380.7,420.8c-4.9-8.1-9.8-16.2-14.8-24.4c-2-3.3-7.2-0.3-5.2,3c4.9,8.1,9.8,16.2,14.8,24.4
		C377.5,427.1,382.7,424.1,380.7,420.8z" style="fill:var(--illu-blue--main);"/>
	<path d="M392.5,404.7c-0.6-3.8-6.4-2.2-5.8,1.6c1.1,6.4,1.5,12.7,1.5,19.2c0,3.9,6,3.9,6,0
		C394.2,418.5,393.6,411.6,392.5,404.7z" style="fill:var(--illu-blue--main);"/>
	<path d="M383.3,437.8c-6.5-1.2-12.9-2.4-19.4-3.7c-3.8-0.7-5.4,5.1-1.6,5.8c6.5,1.2,12.9,2.4,19.4,3.7
		C385.4,444.3,387.1,438.5,383.3,437.8z" style="fill:var(--illu-blue--main);"/>
	<path d="M369.3,424.4c-3.3-1.4-6.6-2.8-9.9-4.1c-1.5-0.6-3.3,0.7-3.7,2.1c-0.5,1.7,0.6,3.1,2.1,3.7
		c3.3,1.4,6.6,2.8,9.9,4.1c1.5,0.6,3.3-0.7,3.7-2.1C371.9,426.4,370.8,425,369.3,424.4z" style="fill:var(--illu-blue--main);"/>
	<path d="M355.5,245.2c-4.3-19.4-9.8-40.4-28-51.4c-1.1-0.6-2.8-0.5-3.6,0.5c-4.8,5.5-17.5,18-23.7,7
		c0-0.1-0.1-0.1-0.1-0.2c-0.4-1.8-2.3-3.3-4.3-2c-25.6,17.1-28.8,49.3-28.4,77.5c0,1.6,1.4,3,3,3c7.2,0.1,14.4-0.2,21.6-0.9
		c5.9,12.2,20.3,19.5,33.7,15.8c3.1-0.9,5.9-2.2,7.3-5.2c2-4.8,2.6-10.7,3.6-15.8c1.1-5.6,2-11.2,2.9-16.7c0.5-3.1,2.1-3.4,4.8-4.4
		c3-1.1,6.1-2.2,9.1-3.4C355,248.3,355.9,246.9,355.5,245.2z" style="fill:var(--illu-yellow--main);"/>
	<path d="M377,341.9c0.6-6.9-5.3-13.6-10.4-18.2c-3.4-3-16.9-15.2-20.4-7.6c-4.8,4.4-10.1,8.2-16,11.2
		c-2.7,1.4-9.7,5.5-12.2,1.7c-2.2-3.3,1.9-7.9,3.8-10.1c1.6-1.8,0.8-4.2-1.3-5c-13.6-5.4-27.3-10.9-40.8-16.5
		c-0.9-0.4-1.6-0.3-2.2,0.1c-1.3-0.1-2.6,0.5-3.1,2.1c-2.7,9-3,18.3-0.9,27.3c-3.1,0.1-6.1,1.8-8.2,4.6c-1.9,2.5-2.9,5.6-4,8.5
		c-1.8,5-3.7,10-5.3,15.1c-1,2.9-1.5,5.8,1,8.2c3,3,8.1,5,11.8,6.9c7.8,4,16,7.3,24.5,9.9c16.2,4.9,35.7,8.9,52,2.1
		c6.6-2.8,12.5-7.3,16.4-13.4c1.9-3.1,2.2-6.5,3.8-9.6c1.6-3.1,6.4-3.6,8.7-6.3C376.8,349.7,377.5,345.8,377,341.9z" style="fill:var(--illu-bg--main);"/>
	<path d="M252.6,363.9c-2-2.1-4-4.3-6-6.4c1.7-3.1,3.3-6.2,5-9.3c1.8-3.4-3.4-6.4-5.2-3c-3.8,7.1-7.6,14.2-11.4,21.3
		c-1.8,3.4,3.4,6.4,5.2,3c1.1-2.1,2.3-4.3,3.4-6.4c1.6,1.7,3.2,3.4,4.7,5.1C251,371,255.3,366.7,252.6,363.9z" style="fill:var(--illu-blue--light);"/>
	<path d="M259.8,329.4c-1.3-0.8-3.4-0.4-4.1,1.1c-1.5,3.4-3,6.7-4.5,10.1c-0.7,1.5-0.4,3.2,1.1,4.1
		c1.3,0.8,3.4,0.4,4.1-1.1c1.5-3.4,3-6.7,4.5-10.1C261.5,332,261.3,330.3,259.8,329.4z" style="fill:var(--illu-blue--light);"/>
	<path d="M349.4,274.3c-1.3-2-5.3-1.4-5.6,1.7c-0.2,2.3-0.5,4.5-0.7,6.8c-0.8-0.4-1.7-0.5-2.6-0.2
		c0.1-1.3,0.2-2.6,0.3-3.9c0.3-3.9-5.7-3.8-6,0l-0.2,2.5c-0.6-0.1-1.2-0.1-1.8,0.1c0-0.9,0.1-1.7,0.1-2.6c0.1-2.2-1.8-3.1-3.5-2.8
		c-1.9-1.4-5.1-0.6-4.7,2.2c0.1,1,0.2,2,0.3,3c-0.2-1-0.3-2.1-0.5-3.1c-0.4-2.3-2.7-2.6-4.2-1.7c-1.3-1.6-4.2-1.5-5.1,0.4
		c0.1-0.7,0.1-1.3,0.2-2c0.4-3.5-4.5-3.8-5.7-1c0-0.1,0-0.2,0-0.3c0.2-3.9-5.8-3.8-6,0c-0.4,7.3,0.3,14.4,1.9,21.5
		c0.5,2.3,3,2.6,4.5,1.6c1.7,2,5.6,1.4,5.3-1.7c-0.6-5.1-0.7-10.3-0.4-15.4c0.3,7.1,0.6,14.3,0.9,21.4c0.1,2.9,3.6,3.6,5.2,2.1
		c0.9,1.6,3.1,1.9,4.5,0.9c0.3,0.5,0.8,0.8,1.3,1c1.6,1.6,5.2,0.9,5.3-2c0-0.7,0.1-1.5,0.1-2.2c0.3,0.2,0.7,0.4,1.1,0.4
		c-0.1,2.5,2.6,3.3,4.4,2.3c-0.1,1.6-0.2,3.2-0.2,4.8c-0.1,2.6,2.7,3.5,4.5,2.5c1.2-0.1,2.5-1,2.7-2.2c0.1-0.3,0.1-0.5,0.2-0.8
		c1.1-0.1,2.2-0.7,2.7-2c3.8-9.5,6.2-19.3,7.2-29.5C355,273,351.1,272.4,349.4,274.3z" style="fill:var(--illu-blue--main);"/>
	<path d="M357,304.4c-2.6-4.1-11.4-4.1-15.6-5c-14-2.9-27.9-5.8-41.9-8.8c-3.8-0.8-5.4,5-1.6,5.8l9.1,1.9
		c-1.2,1-1.4,2.9-0.5,4.2c-5-2.8-9.8-6.2-14.4-8.9c-3.3-2-6.4,3.2-3,5.2c1.8,1,3.5,2.1,5.3,3.2c-7.8-1.8-15.9-5.4-15.7-14.4
		c0.1-3.9-5.9-3.9-6,0c-0.2,11.1,9.5,17.6,19.2,20c6.7,1.6,13.6,2.8,20.6,3.9c3.3,1.3,6.7,2.2,10.4,2.7c6,0.8,12.1,1.2,18.2,1.3
		c4.4,0,9.7,0.3,13.4-2.4C356.9,311.2,358.9,307.4,357,304.4z M308.8,303.7c0.8,0,1.5,0,2.3,0c-0.1,0.4-0.2,0.8-0.2,1.2
		c-0.8-0.4-1.6-0.8-2.4-1.2C308.6,303.6,308.7,303.7,308.8,303.7z" style="fill:var(--illu-brown--main);"/>
	<path d="M328.6,173c1.8-11.8-5.6-24.8-18.5-23.9c-12.7,0.8-20.9,13.9-25,24.5c-3.9,10-7.7,27.8,5.9,32.2
		c5.6,1.8,11.9-0.5,15.1-5.4c3-4.5,2.9-10.3,2.5-15.8c0.3,0.1,0.6,0.2,0.9,0.2c1.6-0.1,3-1.3,3-3v-0.4c0-1.6-1.4-3.1-3-3
		c-0.5,0-1,0.2-1.4,0.4c0-0.2,0-0.4,0-0.7c0-0.2,0-0.4-0.1-0.6c0.1-0.1,0.2-0.1,0.2-0.2c0.9-0.7,3.5-3.7,4.7-3.9
		c1.2-0.2,5.5,3.9,7.3,4.8c0.9,0.4,1.7,0.7,2.5,0.8c-1.9,1.5-1.3,5.4,1.8,5.4c3.5,0,3.8-4.9,1-5.8C327,177.6,328.1,175.7,328.6,173z
		" style="fill:var(--illu-bg--light);"/>
	<path d="M322,187.5c-0.5-1.6-2.1-2.5-3.7-2.1c-1.4,0.3-2.5,0.4-4,0.3c-1.6-0.1-3.1,1.4-3,3c0.1,1.7,1.3,2.9,3,3
		c1.9,0.1,3.8-0.1,5.6-0.5C321.5,190.8,322.5,189,322,187.5z" style="fill:var(--illu-bg--light);"/>
	<path d="M294.9,281.7c-4.7-5.3-4.1-13.1-4.1-19.7c0-8.1,0.2-16.2,0.5-24.3c0.1-3.9-5.9-3.9-6,0
		c-0.3,9.8-0.7,19.6-0.5,29.4c0.1,6.9,1.2,13.5,5.8,18.9C293.2,288.8,297.4,284.6,294.9,281.7z" style="fill:var(--illu-bg--light);"/>
	<path d="M343.8,227.6c-0.2-1.6-1.3-3-3-3c-1.5,0-3.2,1.4-3,3c0.4,3.4,0.7,6.7,1.1,10.1c0.2,1.6,1.3,3,3,3
		c1.5,0,3.2-1.4,3-3C344.5,234.3,344.1,230.9,343.8,227.6z" style="fill:var(--illu-bg--light);"/>
	<path d="M368.1,256.9c-0.9-2-2.4-3.5-4.2-4.3c1.1-4.7-2.2-10.3-7.4-11.9c-6.2-1.9-13.5-0.3-17.8,4.2
		c-4.6-4.1-14.2-3.1-19.7,1.4c-5.4-8.3-18.8-7.7-25.9-0.6c-3.9,3.9-5.9,10.1-2.9,15.1c0.7,1.2,1.6,2.2,2.7,2.9
		c-2.7,4-3,9.5,0.5,13.9c3.4,4.3,8.6,5.3,13.1,3.8c1.3,2.2,3.7,3.7,6.8,3.9c3.7,0.1,6.8-1.6,8.9-4.3c4.2,4.3,11.3,5.1,17.4,3.7
		c3.3-0.7,8.3-3.4,10.1-6.8c5.7-1.3,13.5-5.9,15.2-7.6C368.2,266.7,370.1,261.5,368.1,256.9z" style="fill:var(--illu-red--light);"/>
	<path d="M318.5,260.1c-1.2,1.3-2.3,2.6-3.3,4.1c-0.7-1-1.3-2-2-3c-2.1-3.2-7.3-0.2-5.2,3c1.5,2.3,3.1,4.7,4.6,7
		c1.2,1.8,4,2.1,5.2,0c1.4-2.5,3-4.8,5-6.9C325.3,261.5,321.1,257.3,318.5,260.1z" style="fill:var(--illu-bg--light);"/>
	<path d="M351,249.6c-1.2,1.6-2.3,3.2-3.3,4.9c-1.6-1.3-3.2-2.7-4.7-4.2c-2.8-2.7-7,1.5-4.2,4.2c2.6,2.5,5.4,4.8,8.3,7
		c1.3,0.9,3.4,0.3,4.1-1.1c1.4-2.8,3.1-5.4,4.9-7.9C358.5,249.6,353.3,246.6,351,249.6z" style="fill:var(--illu-bg--light);"/>
	<path d="M317.2,243.7c-2,0.7-3.8,1.6-5.5,2.7c-0.5-1.3-1.2-2.6-2.1-3.8c-2.2-3.1-7.4-0.1-5.2,3c1.4,1.9,2.3,4,2.6,6.3
		c0.3,2.3,3.3,4.3,5.1,2.1c1.8-2.1,4-3.7,6.6-4.6C322.5,248.2,320.9,242.4,317.2,243.7z" style="fill:var(--illu-bg--light);"/>
	<path d="M346.4,315.4c-10.1,0.5-20-0.7-29.8-3.5c-3.7-1.1-5.3,4.7-1.6,5.8c10.2,3,20.7,4.2,31.4,3.8
		C350.3,321.2,350.3,315.2,346.4,315.4z" style="fill:var(--illu-bg--light);"/>
	<path d="M357.6,298.5c-2-1.4-4.3-2.1-6.8-2.3c-1.6-0.1-3,1.5-3,3c0,1.7,1.4,2.9,3,3c1.2,0.1,2.5,0.6,3.7,1.4
		c1.3,0.9,3.3,0.3,4.1-1.1C359.6,301.1,359,299.4,357.6,298.5z" style="fill:var(--illu-bg--light);"/>
	<path d="M319.8,356.8c-9.9-2.7-20.9-4.5-30.2-9c-8.1-4-13.6-11.4-15.6-20.2c-0.9-3.8-6.6-2.2-5.8,1.6
		c1.2,5.4,3.7,10.4,7.1,14.7c-4.9-0.9-9.8-2-14.7-3c-3.8-0.8-5.4,5-1.6,5.8c6.8,1.4,13.6,3,20.5,4c0.9,0.1,1.6-0.1,2.2-0.5
		c0.7,0.5,1.4,1,2.2,1.5c10,6.2,23.1,8,34.3,11.1C321.9,363.6,323.5,357.8,319.8,356.8z" style="fill:var(--illu-bg--light);"/>
	<path d="M370.1,363c-7.3-16.3-20.1-29.6-36.1-37.4c-3.5-1.7-6.5,3.5-3,5.2c15.2,7.5,27,19.8,33.9,35.3
		C366.5,369.5,371.7,366.5,370.1,363z" style="fill:var(--illu-bg--light);"/>
	<path d="M414.9,366c-6-6.5-6.5-16.2-1.5-23.4c2.2-3.2-3-6.2-5.2-3c-6.5,9.5-5.3,22.3,2.5,30.7
		C413.3,373.1,417.5,368.8,414.9,366z" style="fill:var(--illu-white--main);"/>
	<path d="M420.8,374.1c-1.6,0.1-3,1.3-3,3v0.5c0,1.6,1.4,3.1,3,3c1.6-0.1,3-1.3,3-3v-0.5
		C423.8,375.5,422.4,374,420.8,374.1z" style="fill:var(--illu-white--main);"/>
	<path d="M444.6,312.3c-10.3,1.9-20.7,3.1-30.6-1c-3.6-1.5-5.1,4.3-1.6,5.8c10.9,4.4,22.6,3,33.8,1
		C450,317.4,448.4,311.6,444.6,312.3z" style="fill:var(--illu-bg--light);"/>
	<path d="M551.4,285.4c-13.3,0.3-30.6,0.5-43.7,6.5c2.7-10.3,7-20.1,12.8-29.2c2.1-3.3-3.1-6.3-5.2-3
		c-7.1,11.3-12,23.6-14.7,36.5c-0.2,0.2-0.5,0.3-0.7,0.5c-7.6-16.8-20.6-30.9-37-39.7c-3.4-1.8-6.4,3.3-3,5.2
		c16.1,8.7,28.5,22.6,35.4,39.1c-2.8,3.5-4.9,7.8-5.9,13.1c-0.7,3.8,5,5.4,5.8,1.6c0.6-2.9,1.5-5.4,2.7-7.6c0.2,0.7,0.4,1.3,0.6,2
		c-0.1,1.8-0.3,3.5-0.3,5.3c-0.1,1.8,1.3,2.8,2.7,2.9c1.8,1.6,5.6,0,5-3.1c-0.4-1.9-0.8-3.8-1.3-5.7c0.3-3.4,0.8-6.8,1.4-10.1
		c12.3-8.2,31.8-7.9,45.4-8.2C555.2,291.3,555.3,285.3,551.4,285.4z" style="fill:var(--illu-bg--light);"/>
	<path d="M527.7,315.9c0.2-1.6-0.9-3.1-2.6-3.4c-10.7-1.6-21.5-2.7-32.3-3.1c-3.8-0.1-16.8-2.4-18,3.2
		c-0.3,0.5-0.4,1.1-0.3,1.9c2.5,12,5,24,7.5,35.9c0.8,3.8,1.6,8,5.5,9.7c4.1,1.8,9.8,1.9,14.2,2.2c4.5,0.3,9.7,0.4,14-1.2
		c3.8-1.4,4.2-4.4,5-8C523.7,340.8,526.3,328.4,527.7,315.9z" style="fill:var(--illu-brown--light);"/>
	<path d="M323.8,416.1c-3.9,0-3.9,6,0,6C327.7,422.1,327.7,416.1,323.8,416.1z" style="fill:var(--illu-bg--light);"/>
</g>
</svg>
