<?xml version="1.0" encoding="utf-8"?>
<!-- Generator: Adobe Illustrator 23.0.2, SVG Export Plug-In . SVG Version: 6.00 Build 0)  -->
<svg version="1.1" id="Capa_1" xmlns="http://www.w3.org/2000/svg" xmlns:xlink="http://www.w3.org/1999/xlink" x="0px" y="0px" viewBox="0 0 800 559.8" style="enable-background:new 0 0 800 559.8;" xml:space="preserve">

<g>
	<path d="M796.3,195.7C785.8,134.8,751.5,79.2,692.6,46C636.9,14.5,569,3.3,503.3,0.7C358.2-5,197.6,21.4,91.3,119.3
		c-45.5,41.9-79.3,95.5-88.7,153.1c-11.2,69.3,15.1,136.5,51.8,195.7c9.6,15.5,20,30.6,30.9,45.6c2.4,3.3,6.8,2.7,9.2,0.3
		c39.6,9.5,80.6,12.3,121.6,13.6c42.4,1.3,84.9,1.8,127.4,2.1c88.1,0.5,176.6-1.8,263.8-15.4c34.4-5.4,74.3-10.3,102.9-30
		c13.8-9.5,22.9-22.4,30.1-36.4c8.5-16.7,15.9-33.8,23.1-51C790,332.4,808.1,263.5,796.3,195.7z" style="fill:#56597A;"/>
	<path d="M756.6,468.1c-10.8-5-22.6-9.1-34.7-12.7c-24.2-7.2-50.5-11.7-77.3-14.4c-56.3-5.5-115.1-2.9-172.8,1.4
		c-33.3,2.6-66.8,5.9-100,10.3c-61,4.7-121.6,14.4-180.4,28.7c-32.2,7.8-63.6,17-94.2,27.6c-13.1,4.5-27.2,8.8-39.2,14.6
		c-7.9,3.7-14.4,9.4-12.2,15.8c2.2,6.2,11.7,9.1,20.4,10.6c16.2,2.7,33.6,3.6,50.2,4.7c32.7,2.4,65.8,4,99,4.6
		c67,1.3,134.7-0.6,202.2-4.5c66.1-3.8,132.7-9,197.9-20c32.2-5.5,64-12.3,94.7-21.2c18.6-5.4,55.4-13.1,59.7-28.7
		C772.5,477.2,764.9,472,756.6,468.1z" style="fill:#B4C7E7;"/>
	<path d="M358.8,132c-28.2-29.1-84-12.8-95,25c-7.7,26.5,13.1,46.1,32.9,59.9c1.3,0.9,2.7,0.9,3.8,0.5
		c0.6,0.3,1.3,0.4,2.1,0.3c13.6-2.3,27.2-5.5,40.3-10.1c8.7-3.1,17.9-7.3,23.3-15.3c5.9-8.7,5.1-20.3,4.2-30.4
		C369.6,151,366.6,140.1,358.8,132z" style="fill:#B4C7E7;"/>
	<path d="M332.7,164.8c-3.6-5.1-8.6-10.3-15-10.5c-1.4,0-2.8,0.1-4.1,0.5c-0.5-0.1-1.2,0-1.8,0.1
		c-16,5.5-15.1,25.1-10.3,39c2.6,7.1,5.5,11.9,12.6,14.2c6.9,2.3,14.9,3.2,20.5-2.4C345.5,195.1,340.5,175.9,332.7,164.8z" style="fill:#F7D3BC;"/>
	<path d="M428,111.6c-6.2-6.4-12.6-0.3-13.8,6.4c-2.6,12.7-4.6,25.4-10,37.4c-5.5,12.3-15.3,20.8-27,26.8
		c-12.6,6.5-25.9,10.3-39.7,13.3c-11.9,2.6-23.8,5.6-33.2,13.8c-0.4,0.3-0.6,0.6-0.8,1c-9.2,11.8-19.1,23.5-27.2,36
		c-7.1,10.9-11.9,23.3-8.7,36.1c2.9,11.9,12,21.7,22.6,28.3c9.7,6.3,21.3,12.4,32.9,16.2c3.7,29.1,3.8,58.6,2.3,87.9
		c-0.8,14.5-1.9,29.1-3.2,43.6c-0.8,8.7,1.2,39.1-13.7,38.2c-5.6-0.4-7.1,7.1-1.5,8.3c13.5,2.9,27.2,2.8,40.8-0.1
		c1.8-0.4,3.7-1.5,4-3.5c4.1-46.9,10.8-93.7,19.9-140.1c7.9,29.5,15,59.2,21,89.1c1.7,8.5,3.3,16.9,4.9,25.5
		c1.3,6.8,1.2,15.8,4.6,22c6.4,11.3,27.9,3.1,36.9-0.8c4.1-1.8,3.3-7.1-0.8-8.1c-11.9-2.9-13.2-16.5-13.8-26.3
		c-0.6-10.6-1.3-21.3-2.2-31.9c-2.1-21.8-5.1-43.6-9.2-65.1c-8.1-42.2-20.3-83.6-36-123.6c-0.3-0.6-0.5-1-0.9-1.4
		c2.7-2.7,9.1-5.5,10.5-6.4c4.7-2.7,9.2-5.9,13.5-9.4c7.9-6.5,14.9-14.2,20.4-22.9c11.8-18.2,17.2-40,15.6-61.7
		C435.2,132,434.3,118.2,428,111.6z M319.5,301.5c-6.8-5-13.6-9.7-19.9-15.5c-3.5-3.2-3.2-4.2-1.2-8.3c1.3-2.4,3.5-4.6,5-6.8
		c1.9-2.7,1-3.1,2.8,0c1.5,2.8,3.6,5.5,5.1,8.3C315.1,286.2,317.8,293.7,319.5,301.5z" style="fill:#FFFFFF;"/>
	<path d="M326.5,156.2c-8.1-4.6-18.7-3.8-25.5,2.7c-8.1,7.8-8.1,20.9-3.5,30.5c0.6,3.8,1.7,7.8,4.2,10.6
		c0.9,1,2.6,1.4,3.7,1c4-1.3,4.4-5.8,4.9-9.5c0.4-2.7,0.5-5.5,0.4-8.2c2.4,1.8,5.1,3.2,7.9,2.7c2.9-0.5,6-2.7,8.6-4.1
		c2.6-1.3,5.5-2.4,7.7-4.2C342.5,171.2,332.8,160,326.5,156.2z" style="fill:#57455D;"/>
	<path d="M314.6,188.3h-0.3c-2.1,0.3-4,2.3-3.6,4.5c0.3,2.2,2.2,3.8,4.5,3.6h0.3c2.1-0.3,4-2.3,3.6-4.5
		C318.7,189.7,316.8,188,314.6,188.3z" style="fill:#57455D;"/>
	<path d="M330.1,181.2c-5.1,0.5-4.4,8.6,0.8,8.1C336.1,188.7,335.4,180.7,330.1,181.2z" style="fill:#57455D;"/>
	<path d="M335.7,191.4c-0.9-2.2-3.2-2.9-5.3-2.3c-3.8,1.2-7.4,2.9-10.8,5.1c-4.4,2.8,0.4,9.4,4.7,6.5
		c2.8-1.8,5.8-3.1,9-4.1C335.5,196,336.5,193.3,335.7,191.4z" style="fill:#57455D;"/>
	<path d="M371.8,182.5c-3.7-4.2-8.1-1.7-12.6,0.3c-8.6,3.7-17,7.4-25.6,11.2c-8.1,3.6-16.3,7.1-24.4,10.6
		c-5.8,2.6-12.6,4.2-15.9,9.9l0,0c-0.1,0.1-0.3,0.3-0.3,0.5c-0.9,1.8,0,4,1.5,5.1c0.3,0.3,0.6,0.4,1,0.5c0.9,1.5,2.8,2.6,4.7,1.7
		c7.3-3.7,14.7-7.3,22-11c0.3-0.1,0.5-0.4,0.8-0.5c5.9-2.3,11.8-4.6,17.7-6.9c6.7-2.7,13.6-5.1,20.3-7.9c4.4-1.9,9.4-4.4,11-9.1
		C372.7,185.3,372.8,183.7,371.8,182.5z" style="fill:#EF86B0;"/>
	<path d="M605.1,253.3c-24.4-4.1-49.1-4.5-73.6-1.2c-2.1,0.3-3.3,1.7-3.6,3.6c-0.5,0.6-0.8,1.5-0.6,2.6
		c1.7,13.2,2.7,26.7,4.9,39.7c1.5,9,7.8,10.1,15.1,5.8c20.9-12.6,40.8-27.6,59.5-43.3C609.4,258.4,608.7,253.9,605.1,253.3z" style="fill:#EF86B0;"/>
	<path d="M569.8,127.3c-6.7-6.8-15.9-9.4-25.3-8.5c-1,0.1-2.6,0.3-4.1,0.5c-14-1.2-27.9,7.7-32.2,21.4
		c-5,16.3,3.7,34.4,19.2,41c15.4,6.5,34.1,2.2,44.4-11.3C581.9,157.5,581.6,139.2,569.8,127.3z" style="fill:#F7D06F;"/>
	<path d="M376,269.3c-3.6-9.2-7.6-18.8-12-27.7c-3.2-6.3-8.3-7.6-14.9-5.5c-8.2,2.6-37,12-23.7,25
		c0.3,0.3,0.4,0.4,0.6,0.5c3.3,7.9,6.9,15.6,10.9,23.3c2.9,5.5,5.4,13.7,12.9,12.9c4.6-0.5,10-3.5,14.2-5.3
		c3.7-1.5,8.3-2.9,11.5-5.5C381,282.8,378,274.8,376,269.3z" style="fill:#F7D06F;"/>
	<path d="M355,440.7c-0.8,0-1.5,0-2.3,0c-0.3,0-0.4,0-0.6,0c-8.7,0.4-17.3,0.8-26,1.3l0,0c-1.9-0.4-4,0.6-4.1,3.2
		c-0.4,10.8-0.3,21.8-1.3,32.6c-1,11.5-13.8,11.7-18.3,20.8c-7.7,15.5,34.7,9.5,40.6,8.6c3.3-0.5,8.6-0.6,11.3-2.9
		c3.1-2.7,2.6-8.7,2.9-12.4c1-11.4,2.2-22.7,3.2-34.1C361.1,450.8,364.3,441.3,355,440.7z" style="fill:#74A2D6;"/>
	<path d="M437.9,482.9c-8.8-5-9-20.5-9.2-29.6c-0.3-8.7,0.9-13.1-8.6-15.4c-9.2-2.2-18.7-3.1-27.4,1.2
		c-0.6,0.4-1.2,0.8-1.5,1.3c-1.9,0.3-3.5,1.8-2.8,4.1c2.4,11,4.9,22,7.3,33.2c1.3,5.9,2.6,11.9,4,17.8c0.6,2.8,1,6,3.2,8.2
		c5.5,5.4,18.7,1.8,25.1,0.6c5.9-1.2,19.9-2.4,22-9.1C452,488.2,442.1,485.4,437.9,482.9z" style="fill:#74A2D6;"/>
	<path d="M427.9,107.7c-10.6-5.6-14.5,5.9-16.2,13.8c-3.1,14.4-8.2,28.1-15.1,41c-1.7,3.2,1.4,5.8,4.2,5.5
		c9.5,3.1,19,5.8,28.6,8.3c1.8,0.4,3.1-0.3,3.7-1.3c1.3,0,2.6-0.8,3.1-2.4c4.1-11.3,5.6-23.2,4.4-35.3
		C439.6,128.2,437,112.5,427.9,107.7z" style="fill:#74A2D6;"/>
	<path d="M331.6,310.2c-8.7-7.1-17.7-13.7-26.2-21.3c-1.7-1.5-4.2-1-5.6,0.6c-4.9,5.4-10.3,10-16.3,14
		c-1.9,1.3-2.1,3.3-1.2,4.9c0.1,1.3,0.8,2.4,2.3,3.1c11.2,5,22.4,10,33.6,14.9c5.6,2.4,15.8,8.5,20.3,0.8
		C342.2,320.6,336.5,314,331.6,310.2z" style="fill:#74A2D6;"/>
	<path d="M317.9,262.9c-0.8-0.6-1.7-1-2.7-1.2c-1-0.4-2.2-0.4-3.2,0c-1.5,0.6-3.1,2.1-3.2,3.8c0,0.9,0,1.8,0.5,2.6l0,0
		v0.1c0.3,0.8,0.8,1.3,1.3,1.7c0.6,1.5,1.9,2.9,3.6,3.1c1.8,0.3,3.6-0.6,4.6-2.2C320.6,268.4,320.4,264.9,317.9,262.9z" style="fill:#74A2D6;"/>
	<path d="M327,280.6c-1.5-2.1-4.7-3.1-7.1-1.9c-1,0.5-1.8,1-2.2,2.1c-0.1,0.3-0.3,0.6-0.3,1c-0.3,0.8-0.4,1.7-0.4,2.6
		c0.1,1.7,0.9,3.3,2.2,4.4c1.3,0.9,2.7,1.3,4,1c0.5,0,1-0.1,1.5-0.4c2.4-0.9,3.5-3.2,3.2-5.5C328.1,282.8,327.7,281.6,327,280.6z" style="fill:#74A2D6;"/>
	<path d="M529.7,255.5c-0.8-5.1-8.7-4.4-8.1,0.8c8.7,62.4,12.2,125.5,10,188.6c-0.1,5.1,7.8,6.5,7.9,1.4
		C541.7,382.4,538.5,318.5,529.7,255.5z" style="fill:#57455D;"/>
	<path d="M566.2,259.6c-2.6-4.2-8.1-0.1-7.1,3.8c0.3,0.8,1,3.2,0.3,4c-0.6,0.6-2.7,0.1-3.5,0.1c-0.6,0-1.4,0.1-2.1,0.3
		c0-0.4,0-0.8,0-1.2c0.1-2.2-1-4.2-3.3-4.6c-1.9-0.4-4.6,1.2-4.6,3.3c-0.1,5-0.1,10,3.2,14c2.9,3.5,7.4,4.4,11.7,3.3
		c4.4-1,7.4-4.5,8.6-8.7C570.7,268.8,568.8,263.9,566.2,259.6z" style="fill:#57455D;"/>
	<path d="M597.5,151.4c-2.6-6.2-12.2-8.7-18.1-10.4c-5-1.5-6.3,6.5-1.4,7.9c2.8,0.8,6.4,1.8,8.8,3.6
		c0.5,0.5,1.2,0.6,1.8,0.5c-1.3,0.1-2.7,0.3-4,0.4c-5.8,0.6-11.4,1.3-17.2,1.8c-11,1.2-22,2.3-33.1,3.5c-11,1.2-22,2.2-33.1,3.3
		c-2.1,0.3-4.9,0.9-6.9,0.6c-3.8-0.5-4.1-2.9-0.6-4.5c4.2-1.8,8.5-1.9,12.6-4.2c4.5-2.6-0.3-9.1-4.7-6.5c-6.2,3.5-13.6,2.2-17.8,8.8
		c-2.7,4.2-1.8,9.6,2.3,12.4c5.1,3.6,12.9,1.5,18.6,1c10.1-1,20.3-2.1,30.5-3.1c9.7-1,19.4-2.1,29.1-3.1c8.7-0.9,18.6-0.8,27-3.1
		C596,159.6,599.6,156.1,597.5,151.4z" style="fill:#74A2D6;"/>
	<path d="M268.6,496.4c-3.7,0.8-7.3,0.8-11,0.1c-5.1-1-6.4,7.1-1.4,7.9c4.4,0.8,8.8,0.9,13.2,0c2.2-0.4,3.8-2.2,3.6-4.5
		C272.8,498.1,270.8,496.1,268.6,496.4z" style="fill:#57455D;"/>
	<path d="M525.5,474.5c-3.1-5.6-13.6-4.9-18.7-3.3c-5.9,1.7-10.6,6.2-11.5,12.4c-0.1,1.3,0.1,2.3,0.8,2.9
		c0.3,0.9,1,1.8,2.2,2.3c6.2,2.6,13.1,2.6,19.1-0.3C522.1,486.3,528.8,480.6,525.5,474.5z M510.1,482.6c-2.1,0.4-4.1,0.3-6.2-0.1
		c0.9-1.4,2.2-2.4,4-3.2c1.9-0.8,4.4-0.9,6.4-0.8c1.3,0,3.5,1,3.7-0.5C517.8,480.4,512.1,482.2,510.1,482.6z" style="fill:#57455D;"/>
	<path d="M480,445.6c-4-0.4-7.9,0.1-11.5,2.1c-1.9,1-3.2,3.1-2.3,5.3c0.8,1.9,3.3,3.3,5.3,2.3c2.3-1.2,4.7-1.8,7.3-1.5
		c2.2,0.3,4.2-1,4.6-3.3C483.5,448.2,482.1,445.8,480,445.6z" style="fill:#57455D;"/>
	<path d="M580.6,465.9c-1.8-1.5-4.1-1-5.6,0.6c-1.4,1.5-3.6,2.1-5.6,1.7c-5.1-0.8-6.5,7.2-1.4,7.9c5,0.8,9.7-1,13.2-4.6
		C582.8,470.2,582.1,467.2,580.6,465.9z" style="fill:#57455D;"/>
	<path d="M301.3,470.7c-3.1,1.3-6.4,1.9-9.9,1.8c-2.2-0.1-4.2,1-4.6,3.3c-0.4,1.9,1.2,4.6,3.3,4.6
		c4.9,0.3,9.5-0.4,14.1-2.2C309.1,476.3,306.1,468.8,301.3,470.7z" style="fill:#57455D;"/>
	<path d="M475.9,360.6c-0.3,0.3-0.5,0.5-0.8,0.8l0,0c-0.6,0.6-2.4-1-2.3-1.4c0.4-3.6-3.3-5.4-5.9-4.4
		c-1.7,0.5-2.8,1.9-2.4,4.1c0.4,2.6-0.5,5-2.9,6c-4.7,2.1-1.9,9.6,2.9,7.6c2.8-1.2,6.2-0.8,8.2,1.7c2.9,3.5,8.5,0.6,7.1-3.8
		c-0.5-1.4-0.1-2.9,1-4l0,0c0.3-0.3,0.5-0.4,0.8-0.6C484.7,363.1,479.4,357.5,475.9,360.6z" style="fill:#F7D06F;"/>
	<path d="M612.5,354.8c-0.4,0.1-0.8,0.1-1,0.3l0,0c-2.1,0.5-4.5-1.8-4.4-3.8c0.3-2.9-2.3-4.7-4.6-4.6
		c-2.4-0.4-5.3,1-4.9,4.2c0.4,3.2-0.8,6.4-3.6,8.2c-0.5,0.3-1,0.5-1.4,0.9c-3.7,2.4-0.3,9.2,3.8,7.1c0.3-0.1,0.6-0.4,0.9-0.5l0,0
		c2.4-1.7,5.9-1,7.7,1.2c0.3,0.8,0.8,1.4,1.3,2.2c2.8,3.3,9,0.5,7.1-3.8c-0.3-0.5-0.5-1-0.8-1.5c-0.3-0.6-0.3-1.4,0.5-1.5l0,0
		c0.4,0,0.8-0.1,1-0.3C618.8,361.5,617,353.9,612.5,354.8z" style="fill:#F7D06F;"/>
	<path d="M473.3,252.3c2.3-2.4-0.1-7.3-3.6-6.5c-1.9,0.4-3.6,1.3-5,2.4c-1.3,0-2.4-1-2.7-2.4c0.1-1,0.1-2.2,0-3.3
		c-0.5-5.1-8.6-4.4-8.1,0.8l0,0l0,0c-0.1,0.6-0.1,1.2-0.1,1.8c-0.4,1.7-1.7,2.9-3.5,3.6c-4.9,2.1-2.1,9.2,2.9,7.6
		c3.5-1.4,7.2,0.3,8.5,3.8c2.2,4.7,9.4,2.1,7.6-2.9c-0.3-0.5-0.4-1.4-0.3-2.1C470.7,254.6,472.1,253.7,473.3,252.3z" style="fill:#F7D06F;"/>
	<path d="M227.7,217.6c-1.4,0.3-2.6,0.8-3.6,1.4c-0.1-0.5-0.4-1.3-0.6-1.9c-0.1-0.6-0.3-1.3-0.5-1.8v-0.1
		c-0.1-0.6-0.3-1.2-0.5-1.7c-0.5-1.4-1.2-2.9-1.9-4.2c-2.3-4.6-9.9-1.8-7.6,2.9c0.4,0.9,1.7,3.7,2.3,6.3c0,0.3,0.1,0.5,0.1,0.8
		c0.3,1.5,0.3,2.9-0.4,3.8c-1.4,0-2.9,0.3-4.5,0.9c-3.6,1.4-3.2,7.2,0.8,7.8c1.7,0.3,3.3,0,4.9-0.5c1.5,0.3,2.8,1.4,3.2,3.2
		c1,5,9,4.4,8.1-0.8c-0.3-1-0.9-4-0.6-5.9c2.1-0.6,3.8-2.1,4.7-4.2C232.8,220.7,230.8,217,227.7,217.6z" style="fill:#F7D06F;"/>
	<path d="M248.3,384.9c-1.7,0.3-3.1,0.8-4.5,1.5c-2.8,0.1-5.6-2.1-6-4.9c-0.4-3.2-3.7-4.1-6-3.1
		c-2.4,0.4-4.5,2.4-3.2,5.3c1.7,3.7,0.9,7.6-1.9,10.1c-0.6,0.4-1.2,0.9-1.8,1.3c0,0,0,0-0.1,0l0,0c-0.3,0.3-0.5,0.4-0.8,0.6
		c-3.3,3.6,1.8,7.9,5.5,5.8c0.9-0.5,1.7-1.2,2.4-1.8c2.2-0.6,4.7,0.6,5.8,2.7c0.1,0.3,0.1,0.4,0.3,0.6c2.3,4.7,9.1,2.1,7.6-2.9
		c-0.1-0.3-0.1-0.5-0.3-0.6c-0.6-2.1-0.1-4.5,1.5-5.8c1.5-0.4,2.9-0.9,4.4-1.8C254.5,390.1,252.2,384.4,248.3,384.9z" style="fill:#F7D06F;"/>
	<path d="M142.7,284.8c-3.3-1.4-6.9-0.8-9.6,1.3c-1-0.5-1.7-1.7-1.7-3.3c0.1-2.9-2.3-4.6-4.6-4.6
		c-3.2-2.6-8.5,1.7-5.8,5.6c1.5,2.2,2.1,4.7,1.5,7.1c-3.1,1.9-4.7,5.6-3.6,9.5c0.9,3.2,5,3.1,6.9,1c1-1,1.8-2.1,2.4-3.2
		c0.1,0.1,0.4,0.3,0.5,0.5c0.8,0.8,1.3,1.9,1.7,2.9c0.1,0.4,0.3,0.6,0.4,1c1.9,4.9,9.5,1.9,7.6-2.9c-0.1-0.4-1-2.9-1.2-5.1
		c2.1-0.4,4-1.3,5.9-2.9C145.6,289.8,145.6,286.1,142.7,284.8z" style="fill:#F7D06F;"/>
	<path d="M289.2,355.3c-5.1,0.5-4.4,8.6,0.8,8.1C295.2,362.9,294.5,354.8,289.2,355.3z" style="fill:#FFFFFF;"/>
	<path d="M292.3,408.3c-2.2,0.4-3.8,2.2-3.6,4.5l0.1,1.2c0.3,2.1,2.3,4,4.5,3.6c2.2-0.4,3.8-2.2,3.6-4.5l-0.1-1.2
		C296.5,409.8,294.5,407.9,292.3,408.3z" style="fill:#FFFFFF;"/>
	<path d="M213.7,444c-5.1,0.5-4.4,8.6,0.8,8.1C219.6,451.6,218.8,443.5,213.7,444z" style="fill:#FFFFFF;"/>
	<path d="M183.7,375.8c-5.1,0.5-4.4,8.6,0.8,8.1C189.7,383.3,188.8,375.2,183.7,375.8z" style="fill:#FFFFFF;"/>
	<path d="M235.1,311.2l-1.2,0.1c-2.1,0.3-4,2.3-3.6,4.5c0.4,2.2,2.2,3.8,4.5,3.6l1.2-0.1c2.1-0.3,4-2.3,3.6-4.5
		C239.2,312.6,237.4,311,235.1,311.2z" style="fill:#FFFFFF;"/>
	<path d="M186.5,237.6c-5.1,0.5-4.4,8.6,0.8,8.1C192.6,245.1,191.7,237,186.5,237.6z" style="fill:#FFFFFF;"/>
	<path d="M236.5,158.7c-1,0.3-2.1,0.5-2.7,1.4c-0.6,0.8-1,1.9-0.9,2.9c0,0.1,0.1,0.4,0.1,0.5c0,0.1,0,0.3,0,0.4
		c0.4,2.3,2.2,3.7,4.5,3.6c2.6-0.1,4.2-2.6,4-5C241.1,160.5,239,158.2,236.5,158.7z" style="fill:#FFFFFF;"/>
	<path d="M258.6,232.6c-5.1,0.5-4.4,8.6,0.8,8.1C264.6,240.2,263.7,232.1,258.6,232.6z" style="fill:#FFFFFF;"/>
	<path d="M377.5,117.7c-2.2,0.4-3.8,2.2-3.6,4.5l0.1,1.2c0.3,2.1,2.3,4,4.5,3.6s3.8-2.2,3.6-4.5l-0.1-1.2
		C381.6,119.2,379.6,117.4,377.5,117.7z" style="fill:#FFFFFF;"/>
	<path d="M475.5,106.4c-5.1,0.5-4.4,8.6,0.8,8.1C481.5,113.9,480.7,105.9,475.5,106.4z" style="fill:#FFFFFF;"/>
	<path d="M424.6,247.1c-2.2,0.4-3.8,2.2-3.6,4.5l0.1,1.2c0.3,2.1,2.3,4,4.5,3.6c2.2-0.4,3.8-2.2,3.6-4.5l-0.1-1.2
		C428.8,248.7,426.8,246.7,424.6,247.1z" style="fill:#FFFFFF;"/>
	<path d="M481.9,203.8c-5.1,0.5-4.4,8.6,0.8,8.1C487.9,211.2,487,203.3,481.9,203.8z" style="fill:#FFFFFF;"/>
	<path d="M568.1,220.3c-5.1,0.5-4.4,8.6,0.8,8.1C574.2,227.9,573.4,219.8,568.1,220.3z" style="fill:#FFFFFF;"/>
	<path d="M606.6,181.4c-5.1,0.5-4.4,8.6,0.8,8.1C612.6,188.8,611.7,180.9,606.6,181.4z" style="fill:#FFFFFF;"/>
	<path d="M627.1,299c-5.1,0.5-4.4,8.6,0.8,8.1C633,306.5,632.2,298.5,627.1,299z" style="fill:#FFFFFF;"/>
	<path d="M568.7,331.6c-5.1,0.5-4.4,8.6,0.8,8.1C574.7,339.2,573.9,331.1,568.7,331.6z" style="fill:#FFFFFF;"/>
	<path d="M598.4,409.5c-5.1,0.5-4.4,8.6,0.8,8.1C604.4,417.1,603.7,409,598.4,409.5z" style="fill:#FFFFFF;"/>
	<path d="M504.1,397.5c-5.1,0.5-4.4,8.6,0.8,8.1C510.1,404.9,509.2,397,504.1,397.5z" style="fill:#FFFFFF;"/>
	<path d="M437.8,399.4c-5.1,0.5-4.4,8.6,0.8,8.1C443.7,407,442.9,398.9,437.8,399.4z" style="fill:#FFFFFF;"/>
	<path d="M472.8,303.9l-1.2,0.1c-2.1,0.3-4,2.3-3.6,4.5c0.4,2.2,2.2,3.8,4.5,3.6l1.2-0.1c2.1-0.3,4-2.3,3.6-4.5
		C476.9,305.3,475,303.7,472.8,303.9z" style="fill:#FFFFFF;"/>
	<path d="M352.2,245.8c-5.9,3.7-11.9,7.6-17.8,11.3c-4.2,2.7-0.4,9.2,3.8,6.7l17.8-11.3
		C360.2,249.8,356.4,243.2,352.2,245.8z" style="fill:#57455D;"/>
	<path d="M360,256.6c-7.2,3.1-13.6,7.1-19.4,12.4c-3.6,3.3,1.8,8.8,5.4,5.4c4.7-4.4,10-7.9,15.9-10.4
		C366.5,262.1,364.5,254.7,360,256.6z" style="fill:#57455D;"/>
	<path d="M365.9,272.4c-4.9,2.9-10,5.4-15.4,7.1c-4.7,1.5-2.7,9,2.1,7.4c6-1.9,11.8-4.6,17.3-7.9
		C373.9,276.5,370.1,269.8,365.9,272.4z" style="fill:#57455D;"/>
	<path d="M374.3,343.1c-0.1-5-7.8-5-7.7,0c0.4,10,0.6,20,1,30c0.1,5,7.8,5,7.7,0C375,363.1,374.7,353.1,374.3,343.1z" style="fill:#57455D;"/>
	<path d="M355,452.2c-10.8-0.9-21.7-1.9-32.4-2.8c-4.9-0.4-4.9,7.3,0,7.7c10.8,0.9,21.7,1.9,32.4,2.8
		C359.8,460.4,359.8,452.7,355,452.2z" style="fill:#57455D;"/>
	<path d="M426.8,444.5c-12.2-0.8-24.2,0.3-36.1,2.9c-4.9,1.2-2.8,8.5,2.1,7.4c11.3-2.6,22.6-3.5,34.1-2.7
		C431.6,452.6,431.6,444.9,426.8,444.5z" style="fill:#57455D;"/>
	<path d="M305.6,293.9c-6,5.3-12,10.4-18.5,15.1c-3.8,2.9,0,9.6,3.8,6.7c6.8-5.3,13.5-10.6,20-16.4
		C314.7,296,309.3,290.6,305.6,293.9z" style="fill:#57455D;"/>
	<path d="M435.6,165.5c-11.5-3.1-22.9-6-34.5-9.1c-4.7-1.3-6.8,6.2-2.1,7.4l34.5,9.1
		C438.3,174.1,440.3,166.6,435.6,165.5z" style="fill:#57455D;"/>
	<path d="M388.9,250.8c-3.5-11.3-8.8-21.7-16-31c-2.9-3.8-9.6,0-6.7,3.8c6.8,8.8,11.9,18.6,15.3,29.2
		C383,257.6,390.5,255.6,388.9,250.8z" style="fill:#57455D;"/>
	<path d="M520.6,145.9h-10.3c-5,0-5,7.7,0,7.7h10.3C525.5,153.5,525.5,145.9,520.6,145.9z" style="fill:#57455D;"/>
	<path d="M569.3,133h-12.8c-5,0-5,7.7,0,7.7h12.8C574.2,140.7,574.2,133,569.3,133z" style="fill:#57455D;"/>
	<path d="M538.9,187.3c-0.6-2.2-2.7-3.1-4.7-2.7c-2.8,0.5-5.6,1.2-8.6,1.7c-2.1,0.4-3.2,2.8-2.7,4.7
		c0.6,2.2,2.7,3.1,4.7,2.7c2.8-0.5,5.6-1.2,8.6-1.7C538.3,191.6,539.4,189.2,538.9,187.3z" style="fill:#57455D;"/>
	<path d="M385.7,482c-4.1-0.3-8.1,0.3-12,1.2c-4.9,1.2-2.8,8.6,2.1,7.4c3.3-0.8,6.7-1,10-0.9
		C390.7,489.9,390.6,482.2,385.7,482z" style="fill:#57455D;"/>
	<path d="M156.5,403.8c-6-13.2-24.1-25.1-36.4-13.1c-10.1,5-17,15.6-15.9,27.9c1.5,16.8,20.6,32.3,37.6,26.8
		C159.2,439.7,163.6,419,156.5,403.8z" style="fill:#EF86B0;"/>
	<path d="M764.7,235.7c-1.9-12.4-11-21.5-22-24.4c-0.3-0.9-0.8-1.7-1.8-2.2c-14.6-7.6-27.9-0.1-35.6,12
		c-5.5,4.2-9.7,9.9-12,16.7c-4.4,12.8-0.5,28.3,10.4,36.7c10.1,7.7,24.7,7.4,35.5,1.2c2.3-1.3,4.2-2.8,6-4.6
		C758,264.7,767,251.5,764.7,235.7z" style="fill:#74A2D6;"/>
	<path d="M711.2,132.5c-0.6,0.4-1.5,0.4-2.2,0.1c-0.3-1.2-0.6-2.3-1.2-3.3c0.3-3.3-4-4.9-6.3-3.1
		c-1.7,0.9-2.8,2.8-1.5,4.7c0.1,1.8,0.6,3.5,1.7,4.9c0,1.4-0.4,2.9-1.3,4.1c-1.5,0.8-2.8,1.9-3.7,3.6c-1.8,3.3,1.8,7.3,5.3,5.3
		c1-0.5,1.9-1.3,2.7-2.1c0.5,0,0.9,0.3,1,0.6c1.8,4.5,8.8,2.8,7.4-2.1c-1-2.6-0.4-4.9,2.1-6.3C719.2,136.5,715.6,130.1,711.2,132.5z
		" style="fill:#F7D06F;"/>
	<path d="M728.6,385.7c-1.5,0.4-3.1,0.8-4.6,1l-0.6-2.9c-1.2-4.9-8.6-2.8-7.4,2.1c0.3,0.9,0.4,1.8,0.6,2.7
		c-0.8,0.3-1.7,0.4-2.4,0.6c-4.9,1.2-2.8,8.6,2.1,7.4c0.8-0.1,1.4-0.4,2.2-0.5c0.4,1.4,0.6,2.9,1,4.4c1.2,4.9,8.6,2.8,7.4-2.1
		l-1-4.1c1.7-0.4,3.2-0.8,4.9-1.2C735.4,392,733.4,384.5,728.6,385.7z" style="fill:#F7D06F;"/>
	<path d="M92.7,202.8c-0.8,0.1-1.7,0.4-2.4,0.5c-0.3-1.3-0.6-2.6-1-4c-1.4-4.7-8.8-2.7-7.4,2.1c0.4,1.2,0.6,2.3,0.9,3.5
		c-2.1,0.4-4.1,0.9-6.2,1.3c-4.9,1-2.8,8.5,2.1,7.4c1.7-0.4,3.3-0.6,5-1c0,1.3,0,2.7-0.1,4.1c-0.4,5,7.3,4.9,7.7,0
		c0.1-1.9,0.1-3.7,0.1-5.6c1.2-0.3,2.3-0.5,3.5-0.8C99.6,209.2,97.6,201.7,92.7,202.8z" style="fill:#F7D06F;"/>
	<path d="M67.6,341c-1.8,1.2-3.7,2.2-5.6,2.8c-0.3-3.5-0.9-6.8-1.7-10.3c-1.2-4.9-8.5-2.8-7.4,2.1
		c0.8,3.2,1.3,6.5,1.4,9.7c-1.4,0.1-2.8,0-4.2-0.1c-4.9-0.5-4.9,7.2,0,7.7c1.4,0.1,2.9,0.1,4.4,0.1c0,0.9-0.1,1.7-0.1,2.6
		c-0.4,5,7.3,4.9,7.7,0c0.1-1.3,0.1-2.6,0.1-3.7c3.2-0.9,6.4-2.3,9.2-4.2C75.5,344.9,71.7,338.3,67.6,341z" style="fill:#F7D06F;"/>
	<path d="M382.3,39.5c-1.4,0.3-2.8,0.6-4.2,0.9c-0.4-1.4-0.6-2.9-1-4.4c-1.2-4.9-8.6-2.8-7.4,2.1c0.3,1.3,0.6,2.7,0.9,4
		l-2.8,0.6c-4.9,1-2.8,8.5,2.1,7.4c0.9-0.1,1.8-0.4,2.6-0.5c0.4,1.5,0.8,3.1,1.2,4.6c1.2,4.9,8.6,2.8,7.4-2.1
		c-0.4-1.4-0.6-2.8-1-4.2c1.5-0.4,2.9-0.6,4.5-1C389.2,45.7,387.2,38.3,382.3,39.5z" style="fill:#F7D06F;"/>
	<path d="M606.7,49.2c-2.9,0.3-5.8,0.8-8.6,1.3c-0.4-1.5-0.8-3.2-1.2-4.7c-1.2-4.7-8.6-2.8-7.4,2.1l1.2,4.7
		c-1.8,0.6-3.6,1.3-5.4,2.1c-4.5,1.9-0.6,8.6,3.8,6.7c1.2-0.5,2.2-0.9,3.3-1.3c0.4,1.3,0.6,2.6,1,3.8c1.2,4.7,8.6,2.8,7.4-2.1
		c-0.4-1.3-0.6-2.6-1-3.8c2.2-0.5,4.5-0.8,6.7-1C611.6,56.4,611.6,48.7,606.7,49.2z" style="fill:#F7D06F;"/>
	<path d="M214.9,91.9c-0.9,0.6-1.9,1.2-2.8,1.7c-0.9-2.8-1.9-5.6-3.2-8.3c-2.2-4.5-8.8-0.5-6.7,3.8
		c1.3,2.6,2.2,5.1,2.9,7.8c-2.3,1-4.6,1.9-7.1,2.6c-4.7,1.4-2.7,8.8,2.1,7.4c2.2-0.6,4.4-1.4,6.4-2.3c0,0.6,0.1,1.2,0.1,1.8
		c0.3,4.9,7.9,5,7.7,0c-0.1-1.8-0.3-3.5-0.5-5.1c1.7-0.9,3.3-1.8,5-2.8C222.9,95.9,219.1,89.2,214.9,91.9z" style="fill:#F7D06F;"/>
	<path d="M158.5,151.2c-5,0-5,7.7,0,7.7S163.5,151.2,158.5,151.2z" style="fill:#FFFFFF;"/>
	<path d="M134.2,225.6c-5,0-5,7.7,0,7.7C139.2,233.3,139.2,225.6,134.2,225.6z" style="fill:#FFFFFF;"/>
	<path d="M56.6,269.3c-5,0-5,7.7,0,7.7S61.6,269.3,56.6,269.3z" style="fill:#FFFFFF;"/>
	<path d="M134.2,353.5c-5,0-5,7.7,0,7.7C139.2,361.2,139.2,353.5,134.2,353.5z" style="fill:#FFFFFF;"/>
	<path d="M462.7,44.5c-5,0-5,7.7,0,7.7C467.7,52.2,467.7,44.5,462.7,44.5z" style="fill:#FFFFFF;"/>
	<path d="M666.6,83.2c-5,0-5,7.7,0,7.7C671.6,90.9,671.6,83.2,666.6,83.2z" style="fill:#FFFFFF;"/>
	<path d="M664.9,204.6c-5,0-5,7.7,0,7.7C669.9,212.3,669.9,204.6,664.9,204.6z" style="fill:#FFFFFF;"/>
	<path d="M684.4,314.7c-5,0-5,7.7,0,7.7C689.3,322.4,689.3,314.7,684.4,314.7z" style="fill:#FFFFFF;"/>
	<path d="M762.1,319.4c-5,0-5,7.7,0,7.7C767,327.1,767,319.4,762.1,319.4z" style="fill:#FFFFFF;"/>
	<path d="M668.3,405.2c-5,0-5,7.7,0,7.7C673.1,412.9,673.1,405.2,668.3,405.2z" style="fill:#FFFFFF;"/>
	<path d="M305.8,62.2c-2.1,0.1-3.8,1.7-3.8,3.8v1.7c0,2.1,1.8,4,3.8,3.8c2.1-0.1,3.8-1.7,3.8-3.8V66
		C309.6,64.1,307.8,62.2,305.8,62.2z" style="fill:#FFFFFF;"/>
	<path d="M101.8,476.5c-5,0-5,7.7,0,7.7C106.8,484.1,106.8,476.5,101.8,476.5z" style="fill:#FFFFFF;"/>
	<path d="M71.2,402c-5,0-5,7.7,0,7.7C76,409.7,76,402,71.2,402z" style="fill:#FFFFFF;"/>
	<path d="M720.7,258.8c-7.6,1.3-15.3,2.7-22.8,4c-4.9,0.9-2.8,8.3,2.1,7.4c7.6-1.3,15.3-2.7,22.8-4
		C727.6,265.3,725.6,257.9,720.7,258.8z" style="fill:#57455D;"/>
	<path d="M751.2,217.4c-4.5,1.3-8.8,1.8-13.5,1.8c-5,0-5,7.7,0,7.7c5.3,0.1,10.5-0.6,15.5-2.1
		C758,223.5,756.1,216.1,751.2,217.4z" style="fill:#57455D;"/>
	<path d="M762.1,247c-1.2-1.8-3.3-2.3-5.3-1.4c-1,0.5-2.2,1-3.2,1.7c-1.8,0.9-2.4,3.6-1.4,5.3c1.2,1.8,3.3,2.3,5.3,1.4
		l3.2-1.7C762.6,251.4,763.3,248.7,762.1,247z" style="fill:#57455D;"/>
	<path d="M722,238c-0.5-1.8-2.8-3.5-4.7-2.7c-3.3,1.3-6.7,1.8-10.3,1.5c-5-0.4-4.9,7.3,0,7.7c4.2,0.3,8.5-0.4,12.3-1.8
		C721.3,242,722.6,240.2,722,238z" style="fill:#57455D;"/>
	<path d="M152.6,419.3c-2.8,2.4-6.4,3.7-10.1,3.8c-5,0.1-5,7.8,0,7.7c5.9-0.1,11.2-2.3,15.6-6.2
		C161.7,421.5,156.3,416.1,152.6,419.3z" style="fill:#57455D;"/>
	<path d="M120.3,406.8l-14.6,4.7c-4.7,1.5-2.7,9,2.1,7.4l14.6-4.7C126.9,412.7,124.9,405.3,120.3,406.8z" style="fill:#57455D;"/>
	<path d="M199,507.5c-4.9,0.5-9.7,1-14.6,1.5c-4.9,0.5-4.9,8.2,0,7.7c4.9-0.5,9.7-1,14.6-1.5
		C203.8,514.7,204,507,199,507.5z" style="fill:#57455D;"/>
	<path d="M150,524.5c-3.1-5-8.6-2.7-12.7-4.6c-0.6-0.9-1.7-1.5-3.1-1.4l0,0c-0.4,0-0.8,0-1.2,0.1
		c-8.2,0.9-15.1,4-21.4,9.5c-1.8,1.5-1.4,5,0.8,6c10.3,5,24.7,6.8,34.9,0.3C150.8,532.2,152.3,528.1,150,524.5z M138.1,529.9
		c-5.3,1.4-10.5,1.3-15.6-0.1c3.2-1.8,6.8-2.9,10.5-3.5c1.4,0.9,2.9,1.3,4.6,1.5c0.3,0,4.7,0.1,4.7,0.3
		C142.4,528.9,138.5,529.8,138.1,529.9z" style="fill:#57455D;"/>
	<path d="M706.8,468.5c-4.2-3.1-9.2-1.9-13.7-0.3c-1,0.4-1.7,1-2.1,1.8c-8.1,0.1-21.5,1.9-23.6,9.7
		c-2.4,9.4,12.9,10,18.6,9.6c7.6-0.4,21.7-3.3,24.1-11.9C711.2,474,709.7,470.6,706.8,468.5z M701.1,476.8c-0.1,0.9-6,2.9-6.3,3.1
		c-3.7,1.3-7.7,1.9-11.8,1.8c-1.9,0-4-0.6-5.9-0.6c-3.8-0.1,0.1-0.4,2.2-1.2c4.7-1.8,9.6-2.3,14.7-2.1c2.2,0.1,3.3-1.3,3.6-2.9
		C699.7,474.3,701.7,474.1,701.1,476.8z" style="fill:#57455D;"/>
	<path d="M635.8,460.3h-8.1c-5,0-5,7.7,0,7.7h8.1C640.8,468,640.8,460.3,635.8,460.3z" style="fill:#57455D;"/>
	<path d="M398.4,534.3c-0.6-2.2-2.7-2.9-4.7-2.7c-4.9,0.6-9.6,1.3-14.5,2.1c-2.1,0.3-3.2,2.9-2.7,4.7
		c0.6,2.2,2.7,2.9,4.7,2.7c4.9-0.6,9.6-1.3,14.5-2.1C397.8,538.6,398.9,536.1,398.4,534.3z" style="fill:#57455D;"/>
	<path d="M487,525h-8.1c-5,0-5,7.7,0,7.7h8.1C491.9,532.7,491.9,525,487,525z" style="fill:#57455D;"/>
	<path d="M302.5,528.2h-12.9c-5,0-5,7.7,0,7.7h12.9C307.4,535.9,307.4,528.2,302.5,528.2z" style="fill:#57455D;"/>
</g>
</svg>
