<?xml version="1.0" encoding="utf-8"?>
<!-- Generator: Adobe Illustrator 20.1.0, SVG Export Plug-In . SVG Version: 6.00 Build 0)  -->
<svg version="1.1" id="Capa_1" xmlns="http://www.w3.org/2000/svg" xmlns:xlink="http://www.w3.org/1999/xlink" x="0px" y="0px" width="800px" height="600px" viewBox="0 0 800 600" style="enable-background:new 0 0 800 600;" xml:space="preserve">

<g>
	<path d="M611.1,394.5c-17.5-20.9-34.4-42.6-52.7-62.8c-8.1-9-20.9-7.2-32-7.8l-41.9-2.4c-54.8-3.1-109.7-6.9-164.6-7.7
		c-30.3-0.4-60.6,0.2-90.9,2.6c-11.7,0.3-23.5,0.6-35.2,0.9c-0.6,0-1.1,0.2-1.5,0.4l-1.2,0c-2,0-3.3,1.9-2.9,3.8
		c3.3,15.7,7.3,31.3,12,46.6c2.1,6.8,4.3,13.5,6.7,20.1c1.7,4.8,3.3,11,8.6,13.1c5.6,2.2,13.8,0.9,19.7,1c8.6,0.1,17.3,0.1,25.9,0.2
		c15.8,0.1,31.6,0.3,47.4,0.4c63.7,0.5,127.4,1.2,191.1,0.2c36.5-0.5,73-1.6,109.4-3.5C611.7,399.5,612.8,396.5,611.1,394.5z" style="fill:var(--illu-yellow--main);"/>
	<path d="M351.7,362.3c-2.3-9.7-5.3-19.2-9-28.5c-2.7-6.7-5.3-14.9-11.1-19.5c-5.6-4.4-13.1-4.3-19.9-3.6
		c-4.5,0.4-9.3,1.3-12.6,4.2c-5-4-14.5-2.3-21.4-1c-0.1,0-0.1-0.1-0.2-0.1c-6.9-2.8-15.2-2.1-16.3,6.7c-0.5,4.6,1.3,9.1,2.7,13.3
		c2.1,6,4.1,11.9,6.2,17.9c1.5,4.4,2.5,10.7,6,14c3.2,3,8.4,2.9,12.4,3.4c6.1,0.8,17.7,3.9,22.2-1.8c4,2.3,8.8,2.8,13.6,2.4
		c8.5-0.7,17-2.5,25.4-3.8C351.3,365.8,352.1,363.8,351.7,362.3z" style="fill:var(--illu-white--main);"/>
	<path d="M493.9,327.4c-1.3-2.7-3.9-3.8-6.8-4.2c-5.6-0.8-11.3-1.2-16.9-1.8c-1-0.1-1.7,0.2-2.2,0.7
		c-5.1,0-10.1,0.1-15.2,0.3c-4.9,0.2-9.7,0.3-14.6,0.5c-3.5,0.1-7.8-0.3-11.1,1.3c-3.3,1.6-4.6,4.8-6,7.9c-1.8,4.1-3.4,8.2-4.8,12.4
		c-1.3,4-2.4,8-3.4,12.1c-0.7,3-1.9,6.8-0.8,9.8c0.8,2.1,2.3,3.2,4.5,3.8c4.7,1.3,9.9,1.6,14.8,2.3c9.2,1.4,18.4,3.3,27.7,4.3
		c15.1,1.7,24.9-15.8,29.9-27.6c1.6-3.9,3.1-7.9,4.4-11.9C494.3,334.3,495.4,330.6,493.9,327.4z" style="fill:var(--illu-white--main);"/>
	<path d="M453.1,325.1c-1.7,7.9-3.5,15.9-5.2,23.8c-0.8,3.8-1.7,7.6-2.5,11.4c-0.7,3-2.3,7-1.9,10.1c0.2,1.6,1.2,3,3,3
		c0.1,0,0.2,0,0.4,0c1.3,0,2.5-0.9,2.9-2.2c0-0.1,0.1-0.2,0.1-0.3c0.3-1,0.1-1.8-0.3-2.4c0.2-3.1,1.7-6.7,2.3-9.5
		c0.8-3.5,1.5-7,2.3-10.5c1.6-7.3,3.2-14.6,4.8-21.9C459.7,322.9,453.9,321.3,453.1,325.1z" style="fill:var(--illu-bg--light);"/>
	<path d="M312.4,366.5c-2.6-7.4-3.1-15.4-4.9-22.9c-1.9-8.2-4.4-16.3-6.8-24.3c-1.1-3.7-6.9-2.1-5.8,1.6
		c2.5,8.1,4.9,16.1,6.8,24.3c1.8,7.6,2.3,15.6,4.9,22.9C307.9,371.7,313.7,370.2,312.4,366.5z" style="fill:var(--illu-bg--light);"/>
	<path d="M438.6,336c-2.5-0.4-5.1-0.8-7.6-1.2c-1.6-0.3-3.2,0.4-3.7,2.1c-0.4,1.4,0.5,3.4,2.1,3.7
		c2.5,0.4,5.1,0.8,7.6,1.2c1.6,0.3,3.2-0.4,3.7-2.1C441.1,338.2,440.2,336.2,438.6,336z" style="fill:var(--illu-bg--light);"/>
	<path d="M437.1,345c-2.6-0.6-5.3-0.8-7.9-0.5c-1.6,0.2-3,1.3-3,3c0,1.5,1.4,3.2,3,3c2.1-0.2,4.2-0.1,6.3,0.3
		C439.3,351.6,440.9,345.8,437.1,345z" style="fill:var(--illu-bg--light);"/>
	<path d="M436.3,356.1h-7.6c-3.9,0-3.9,6,0,6h7.6C440.1,362.1,440.2,356.1,436.3,356.1z" style="fill:var(--illu-bg--light);"/>
	<path d="M471.9,334.5c-2.4,0.2-4.5-0.1-6.8-0.9c-1.5-0.6-3.3,0.6-3.7,2.1c-0.5,1.7,0.6,3.1,2.1,3.7
		c2.7,1,5.5,1.4,8.4,1.1c1.6-0.1,3-1.3,3-3C474.9,336,473.5,334.4,471.9,334.5z" style="fill:var(--illu-bg--light);"/>
	<path d="M469.7,346.7c-0.4-1.5-2.1-2.6-3.7-2.1c-0.8,0.2-0.9,0.2-1.6,0.2c-0.3,0-0.9-0.1-1.2-0.2
		c-1.5-0.7-3.2-0.4-4.1,1.1c-0.7,1.3-0.4,3.4,1.1,4.1c2.4,1,4.8,1.4,7.4,0.6C469.2,349.9,470.2,348.3,469.7,346.7z" style="fill:var(--illu-bg--light);"/>
	<path d="M338.3,352.4c-5.6,1.5-11.2,2.3-16.9,2.6c-3.8,0.2-3.9,6.2,0,6c6.3-0.3,12.4-1.2,18.5-2.8
		C343.7,357.2,342.1,351.4,338.3,352.4z" style="fill:var(--illu-bg--light);"/>
	<path d="M328.9,347c-0.5-1.7-2.1-2.4-3.7-2.1c-2.1,0.4-4.2,0.5-6.3,0.5c-3.9-0.1-3.9,5.9,0,6c2.7,0,5.3-0.2,7.9-0.7
		C328.4,350.4,329.3,348.5,328.9,347z" style="fill:var(--illu-bg--light);"/>
	<path d="M480.2,238.5c6.7-6.6,9.1-19.5,5.6-27.7c-2.4-5.6-8.8-8.2-13.4-6.5c-10.4,1.8-13.9,14-13.4,23.4
		c0.2,4.6,2.5,9.3,5.9,12.1c-0.3,0.1-0.6,0.4-0.9,0.7c-13.1,13.6-27,26.3-41.8,38c-1.3,1-3.8,4.1-5.6,3.2c-1.1-0.5-2.4-4.9-3-6
		c-2.1-4-4.4-7.8-7-11.5c-3.5-5-7.9-12.1-14.9-9c-1.2,0.5-1.7,2.2-1.4,3.4c2.3,8.8,5.6,17.4,9.8,25.5c3.6,6.8,8,15.7,15.2,19.2
		c6.6,3.2,13.5,0.8,19-3.4c5.7-4.3,10.5-9.9,15.3-15.4c0.8,10.9,1.5,21.9,2.3,32.8c0.1,1.6,1.3,3.1,3,3c8.4-0.3,16.8-0.6,25.2-0.8
		c-1.5,7.1-3.7,14-6.8,20.6c-3.5,7.5-7.8,14.4-13,20.8c-4.5,5.6-8.8,10.9-7.5,18.4c0.3,1.9,2.9,2.7,4.4,1.8
		c25.7-15.5,44-42.2,49.4-71.7C511.4,284.5,507.8,248.6,480.2,238.5z" style="fill:var(--illu-brown--main);"/>
	<path d="M349.6,309.8c-0.8-15.6-4.8-31-11.9-44.9c-7.4-14.6-20.1-27.7-37.5-27.5v-0.8c0-0.3-0.1-0.6-0.2-0.9
		c4.6-5.4,4.1-16.2,3.4-22.4c-0.6-5.1-2-11.5-6.3-14.8c-2.3-1.8-5.3-2-7.5-0.6c-8.4,1.9-13.5,11.5-13.4,19.9
		c0.1,7.3,4.4,17.4,11.8,20.3c0,0.2,0.1,0.4,0.1,0.5c-13.4,1.2-23.9,12.2-29.6,24c-6.6,13.5-8.7,29-6.8,43.9
		c1.9,14.5,7.5,28.3,16.6,39.8c3.5,4.5,9,12.1,15.4,12.1c7.3,0,6.3-7.7,3.9-12.2c-5.6-10.5-11.6-22-14.4-33.9
		c13.9-0.1,27.7,0.4,41.5,1.5c1.2,0.1,2.7-1,2.9-2.2c1.4-8.4,2-16.9,2-25.3c5.6,11.5,9,24.1,9.7,37c0.4,8.3-1.2,17.1,1,25.2
		c1.4,5.2,6.5,7.9,11.2,4.2c5-4,5.7-13.5,6.6-19.3C349.5,325.8,350,317.8,349.6,309.8z" style="fill:var(--illu-brown--light);"/>
	<path d="M255.3,365.8c-3-6.4-6.3-12.8-9.6-19.1c-2.1-4.1-5.2-5-9.7-4c-4.1,0.8-8,3.4-9,7.7c-0.6,2.6,0,5.3,1.5,7.3
		c1,3.1,2.4,5.9,4,8.9c2.2,4.2,4,9.6,7.6,12.6c0.5,0.4,1,0.6,1.5,0.7c1,0.8,2.1,1.5,3.4,2c3.8,1.3,8.3,0.7,10.8-2.6
		C259,375.2,257.3,369.9,255.3,365.8z" style="fill:var(--illu-blue--main);"/>
	<path d="M487.9,241.7c-0.9-0.5-2.1-0.6-3,0c-6.9,4.5-15,4.2-21.7-0.5c-1.3-0.9-2.6-0.6-3.4,0.3
		c-0.3,0.1-0.5,0.3-0.8,0.5c-10.4,9.6-20.9,19.2-31.3,28.8c-3.4,3.1-6.4,5.6-3.6,10.2c3.6,6.1,8.3,11.9,12.4,17.7
		c1.1,1.6,3.2,2,4.7,0.6c1.6-1.5,3.2-2.9,4.8-4.4c0,3.3,0.1,6.7,0.4,10c0.2,4-0.2,9.5,1.6,13.2c1.5,3,5,2.5,7.9,2.6
		c5.2,0.2,10.4,0.4,15.7,0.6c4.7,0.2,10.1,1.1,14.7,0.5c2.8-0.4,4.2-2.1,4.9-4.8c1.7-6.8,2-14.3,1.7-21.5c5.9-1.7,11.8-3.4,17.7-5.1
		c1.3-0.4,2.1-1.6,2.2-2.9C513.6,269.1,503.9,251.2,487.9,241.7z" style="fill:var(--illu-red--light);"/>
	<path d="M348,278.3c-0.9-4.3-1.9-8.7-3.9-12.6c-2.3-4.4-5.9-7.9-9.4-11.4c-6.6-6.6-13.7-13.2-22.4-16.9
		c-2.7-1.1-6.7-3-9.6-1.5c-1.3,0.7-1.7,1.7-2.5,2.9c-1.1,1.8-1.4,3-3.9,3.1c-2.3,0.1-4.5-1.5-6-2.9c-2.3-2.1-3.9-4.3-7.4-3.8
		c-4.2,0.7-8.7,4.4-12.1,6.6c-7.5,4.9-14.2,10.9-17.8,19.3c-3.7,8.5-4.3,17.8-4.2,26.9c0.1,12.1,1.6,23.8,4.5,35.5
		c2.1,8.6,5.2,17.1,13,22c0.7,0.4,1.3,0.5,1.9,0.4c0.6,0.4,1.4,0.6,2.4,0.2c4.2-1.4,8.3-2.9,12.5-4.3c1.4-0.5,2.7-2.1,2.1-3.7
		c-3.2-7.7-5.8-15.6-7.9-23.6c11.4,1.7,22.9,2.3,34.4,1.4c4.9-0.3,6.9-1.1,7.7-6c0.8-5.1,1.6-10.1,2.4-15.2
		c9.2,12.9,7.6,30.4,5.6,45.6c-0.3,1.9,0.7,3.8,2.9,3.8c5,0,10-0.1,14.9-0.1c1.3,0,2.6-0.9,2.9-2.2C353.5,321,352.3,299.3,348,278.3
		z" style="fill:var(--illu-blue--light);"/>
	<path d="M427.2,246.1c-3.8-4.1-8.1-7.7-12.9-10.5c-2.9-1.7-6.4-3.8-9.9-4.4c-1-1.5-3-2.2-4.4-0.5
		c-3.2,4-6.1,8.1-8.7,12.4c-2.7,3.3-5.4,6.7-8.1,10.1c-3,3.8-4.9,9.5,1.8,10.3c7.6,0.9,16.2-3,23.3-5.3c6.5-2,13.6-3.4,18.9-7.9
		C428.5,249.2,428.2,247.2,427.2,246.1z" style="fill:var(--illu-blue--light);"/>
	<path d="M302.5,200.6c-8.4-9.5-21.5-5.4-27.9,4.2c-3.8,5.8-5.3,12.7-7.5,19.2c-1.3,3.9-3,7.7-5,11.3
		c-1.8,3.3-4.4,6.3-5.8,9.8c-4.7,11.5,8.2,20.7,18.5,17c14.5-5.2,14.9-21.1,14.5-34.5c0.5,0.5,1.2,0.9,2.1,0.9c3.9,0,3.9-6,0-6
		c-1,0-1.8,0.4-2.3,1c0-0.6,0-1.2-0.1-1.7c5.6-1.6,12-4.1,15.5-8.4C308.2,208.8,305.9,204.3,302.5,200.6z" style="fill:var(--illu-bg--light);"/>
	<path d="M303.6,217.8c-3.9,0-3.9,6,0,6C307.5,223.8,307.5,217.8,303.6,217.8z" style="fill:var(--illu-bg--light);"/>
	<path d="M307,227.6c-0.5-1.5-2.1-2.6-3.7-2.1c-1.2,0.4-2.3,0.8-3.5,1.2c-1.5,0.5-2.6,2.1-2.1,3.7
		c0.5,1.5,2.1,2.6,3.7,2.1c1.2-0.4,2.3-0.8,3.5-1.2C306.4,230.7,307.5,229.2,307,227.6z" style="fill:var(--illu-bg--light);"/>
	<path d="M508.8,252.7c-0.3-6.5-3.9-10.7-8.2-15.1c-2.9-3-4.5-5.6-4.6-10c-0.1-3.3-0.2-6.6-1.1-9.8
		c-1.4-5.6-4.6-10.8-9.4-14c-12-7.9-27.6-0.8-31,12.6c-0.3,1.3,0.2,2.7,1.4,3.4c4.6,2.6,9.4,4,14.6,4c0.1,0.3,0.1,0.5,0.3,0.8
		c0.5,1,1,2,1.6,3c-1.1,0.4-2,1.5-1.9,2.8c0.1,1.6,1.3,3,3,3h0.5c0.4,0,0.9-0.1,1.2-0.3c0.3,0.5,0.6,1.1,0.8,1.6
		c2.1,4.3-0.2,6.9-1.8,10.9c-2.1,5.3-2.2,11,0.4,16.1c5.3,10.4,18.9,13,27.9,5.7C506.8,263.9,509.1,258.3,508.8,252.7z" style="fill:var(--illu-bg--light);"/>
	<path d="M460.7,224.5c-3.9,0-3.9,6,0,6C464.5,230.5,464.5,224.5,460.7,224.5z" style="fill:var(--illu-bg--light);"/>
	<path d="M469.8,233.1l-4.6-0.6c-1.6-0.2-3.1,1.5-3,3c0.1,1.8,1.3,2.8,3,3l4.6,0.6c1.6,0.2,3.1-1.5,3-3
		C472.8,234.3,471.5,233.3,469.8,233.1z" style="fill:var(--illu-bg--light);"/>
	<path d="M492.8,283.1c-0.5-3.8-6.3-2.2-5.8,1.6c1.3,9,1.8,18,1.7,27.1c-0.1,3.9,5.9,3.9,6,0
		C494.9,302.2,494.2,292.6,492.8,283.1z" style="fill:var(--illu-bg--light);"/>
	<path d="M442.5,286.9c-0.5,4.2-0.7,8.4-0.6,12.7c0.1,3.9,6.1,3.9,6,0c-0.1-4.2,0.1-8.5,0.6-12.7
		C448.9,283.1,442.9,283.1,442.5,286.9z" style="fill:var(--illu-bg--light);"/>
	<path d="M413.4,237.5c-8.5,4.8-16.5,10.5-23.8,16.9c-2.9,2.6,1.3,6.8,4.2,4.2c7-6.1,14.5-11.4,22.6-16
		C419.8,240.8,416.8,235.6,413.4,237.5z" style="fill:var(--illu-bg--light);"/>
	<path d="M263,375.2c-1.2-0.8-2.4-1.7-3.6-2.5c-1.3-0.9-3.4-0.3-4.1,1.1c-0.8,1.5-0.3,3.1,1.1,4.1
		c1.2,0.8,2.4,1.7,3.6,2.5c1.3,0.9,3.4,0.3,4.1-1.1C264.9,377.8,264.4,376.2,263,375.2z" style="fill:var(--illu-bg--light);"/>
	<path d="M278.8,314.5c-5.8-11.1-3.5-25.2-3.1-37.3c0.1-3.9-5.9-3.9-6,0c-0.5,13.4-2.5,28,3.9,40.3
		C275.4,321,280.5,317.9,278.8,314.5z" style="fill:var(--illu-bg--light);"/>
	<path d="M323.4,270.2c-0.4-3.8-6.4-3.8-6,0c0.9,8.9,0.6,17.8-1.1,26.6c-0.7,3.8,5.1,5.4,5.8,1.6
		C323.9,289,324.3,279.6,323.4,270.2z" style="fill:var(--illu-bg--light);"/>
	<path d="M367.8,362.2c-5.5,5.9-10.7,12.2-15.4,18.8c-2.3,3.1,2.9,6.1,5.2,3c4.4-6.2,9.3-12,14.4-17.6
		C374.7,363.6,370.5,359.4,367.8,362.2z" style="fill:var(--illu-bg--light);"/>
	<path d="M495.8,355c-1.8,6-3.5,12-5.3,18c-1.1,3.7,4.7,5.3,5.8,1.6c1.8-6,3.5-12,5.3-18
		C502.7,352.9,496.9,351.3,495.8,355z" style="fill:var(--illu-bg--light);"/>
	<path d="M508.5,350.4c-0.9-3.8-6.7-2.2-5.8,1.6c1.3,5.5,2.1,11,2.5,16.6c0.2,3.8,6.2,3.9,6,0
		C510.8,362.4,509.9,356.3,508.5,350.4z" style="fill:var(--illu-bg--light);"/>
	<path d="M421.7,400.2c-12.4-28-24.8-56-37.2-84c-1.6-3.5-6.7-0.5-5.2,3c12.4,28,24.8,56,37.2,84
		C418.1,406.8,423.3,403.7,421.7,400.2z" style="fill:var(--illu-bg--light);"/>
</g>
</svg>
