<?xml version="1.0" encoding="utf-8"?>
<!-- Generator: Adobe Illustrator 23.0.2, SVG Export Plug-In . SVG Version: 6.00 Build 0)  -->
<svg version="1.1" id="Capa_1" xmlns="http://www.w3.org/2000/svg" xmlns:xlink="http://www.w3.org/1999/xlink" x="0px" y="0px" viewBox="0 0 800 673" style="enable-background:new 0 0 800 673;" xml:space="preserve">

<g>
	<g>
		<g>
			<path d="M433.6,121.2c-22.5,2.3-31.7,29.2-20,46.9c1.9,2.9,4.8,5.7,5.9,8.8c2.3,6.5-2.3,9.3-6.7,12.6
				c-4.4,3.4-9.2,6.5-12.2,11.4c-6.7,10.9-4,24.6,4.6,33.4c0.8,0.8,1.7,1.3,2.7,1.7c3.1,4,7.4,6.7,13.2,6.9
				c10.7,0.6,16.8-8.4,18.1-18.1c0.8-5.5,0-11.4,1.1-17c1.1-6.5,4.6-12.4,8.2-17.7c6.1-9.3,13.5-18.1,16.8-29
				C471.8,140.5,455.7,118.9,433.6,121.2z" style="fill:#B6C8E8;"/>
		</g>
		<g>
			<path d="M454.2,219.2c-0.6-2.7-3.6-4.8-6.3-4.8c-18.9,0.6-37.6,2.9-56.3,6.9c-2.9,0.6-4.6,3.4-4.8,6.3
				c-1,15.4-1.7,30.9-2.7,46.3c-0.2,4.6,3.4,6.5,7.1,6.1c2.7,5.7,10.9,5,17.2,4.6c12.6-0.4,28.2,1.5,40.4-1.5
				c9.7-2.5,8.6-13.9,8.8-21.9C458.2,246.9,456.9,233,454.2,219.2z" style="fill:#F7D16F;"/>
			<path d="M510.9,212.7c-19.6,0-39.1,1.3-58.7,4c-8,1.1-8.2,13.9,0,12.8c19.5-2.5,39.1-3.8,58.7-4
				C519.2,225.7,519.2,212.7,510.9,212.7z" style="fill:#57455E;"/>
		</g>
	</g>
	<g>
		<path d="M788.5,294.6c-0.2-2.9-1.9-4.8-3.8-5.5c0.2-3.4-1.7-6.9-6.1-6.5c-99.4,6.1-198.5,12.4-298.1,13.2
			c-98,1-196.3-3.4-294.3-6.5c-56.3-1.7-112.5-3.4-168.8-5.3c-5.5-0.2-7.4,5.7-5.3,9.5c-1,1-1.7,2.5-1.7,4.4
			c0.8,69.6,1.3,139,2.1,208.6c0.2,11.4-2.1,26.5,4.4,36.8c6.7,10.3,20.4,10.3,31.3,11.4c33.6,3.2,67.3,5.1,101.1,5.9
			c136.9,3.6,273.9-8.6,410.2-18.3c78-5.5,156-11.1,234-16.4c3.2-0.2,6.7-2.7,6.5-6.5C796,444.5,792.2,369.5,788.5,294.6z" style="fill:#74A3D7;"/>
		<path d="M486.8,326c0-9,0-17.9-0.2-26.9c0-3.4-2.9-6.5-6.5-6.5c-81.4,2.5-163.1,1.1-244.5-4c-4.4-0.2-6.5,3.2-6.1,6.7
			c-0.2,0.6-0.2,1.1-0.2,1.7c-1.1,82.4-2.5,165-3.6,247.4c-0.2,0.6-0.6,1.3-0.6,2.1c-0.4,4.8,0,8.4,1.5,13c0.8,2.5,3.4,5,6.3,4.8
			c76.7-4.6,153.5-7.4,230.2-8.4c1.3,0,2.5-0.4,3.4-1c3.1,0,5.9,0,9-0.2c3.4,0,6.3-2.9,6.5-6.5c1.1-72.7,2.3-145.5,3.6-218.2
			C486.4,328.9,486.8,327.5,486.8,326z" style="fill:#B6C8E8;"/>
		<path d="M794.7,280.3c0-1.1-0.4-2.3-1-3.1c-0.2-3.1-2.1-6.1-6.1-5.9c-102.8,1.9-205.6,3.8-308.2,5.9
			c-50.7,1-101.3,1.9-152,2.9c-51.3,1-102.6,2.7-153.7-0.2c-54.2-2.9-108.3-13.4-162.5-4.6c-1.7-0.4-3.6,0-5,1
			c-3.8,1.3-4.4,5.5-2.7,8.6c0,3.2,0,6.5,0,9.7c0,3.6,2.9,6.1,6.5,6.5c24.4,2.3,48.8,0.4,73.2-0.6c25.2-1,49.6,0.8,74.6,4
			c50.2,6.5,99.7,6.9,150.3,7.1c102.2,0.4,204.6,1.9,306.9-0.4c58.2-1.3,116.1-4.2,174.1-10.3c3.4-0.4,6.7-2.7,6.5-6.5
			C795.2,289.8,794.8,285,794.7,280.3z" style="fill:#56597A;"/>
		<path d="M779.6,366.8c-98,7.4-196.3,10.5-294.7,9.2c-8.2-0.2-8.2,12.8,0,12.8c98.2,1.3,196.6-1.7,294.7-9.2
			C787.8,379,787.8,366.3,779.6,366.8z" style="fill:#57455E;"/>
		<path d="M788.5,443.5l-303.4,14.1c-8.2,0.4-8.2,13.4,0,12.8l303.4-14.1C796.8,456.1,796.9,443.1,788.5,443.5z" style="fill:#57455E;"/>
		<path d="M666.7,478.8c-15.8-0.6-31.7-0.6-47.5-0.2c-8.2,0.2-8.4,13,0,12.8c15.8-0.4,31.7-0.2,47.5,0.2
			C675.1,492,675.1,479,666.7,478.8z" style="fill:#57455E;"/>
		<path d="M656.6,400c-14.7,1-29.4,1.5-44.1,1.7c-8.2,0.2-8.4,13,0,12.8c14.7-0.4,29.4-1,44.1-1.7
			C664.8,412.4,664.8,399.5,656.6,400z" style="fill:#57455E;"/>
		<path d="M647.4,328.3h-41.8c-8.2,0-8.2,12.8,0,12.8h41.8C655.8,341.3,655.8,328.3,647.4,328.3z" style="fill:#57455E;"/>
		<path d="M438.4,416.2c-3.8-8.2-14.3-7.6-21.9-8.2c-49.6-3.4-99.2-3.6-148.8-0.4c-3.8,0.2-6.1,2.9-6.5,6.5
			c-4,35.5-5.9,71.1-5.5,106.8c0,3.8,2.9,5.9,5.7,6.1c1.3,1.9,3.6,3.1,6.5,2.5c54.2-10.7,109.3,7.1,163.6-3.8
			c2.9-0.6,4.6-3.4,4.8-6.3c1-25,2.1-49.8,2.9-74.8C439.5,436.1,442.2,424.4,438.4,416.2z" style="fill:#57455E;"/>
		<path d="M294.2,347.8c-3.6-4.6-9.7-6.7-15.3-4.6c-1.5,0.6-2.7,1.3-3.8,2.3c-5.5,2.7-9.3,8.6-7.8,15.8
			c1.3,5.9,6.5,9.9,12.2,10.7c5.9,0.8,11.4-2.3,14.7-7.2C297.4,359.6,297.8,352.7,294.2,347.8z" style="fill:#56597A;"/>
		<path d="M342.1,347.4c-4-5-11.6-6.9-17.4-3.8c-1,0.6-1.7,1.1-2.7,1.7c-4,1.7-7.1,6.1-7.2,10.7
			c-0.2,6.1,4.4,11.3,9.9,13c5.9,1.9,13,0.2,17-4.8C345.9,359.4,346.1,352.3,342.1,347.4z" style="fill:#56597A;"/>
		<path d="M378.7,341.1c-1,0-1.9,0.4-2.7,1c-4.2,2.9-7.6,7.1-8,12.4c-0.4,5,2.1,9.7,6.5,12c9.7,5.1,21.7-4.8,22.3-14.7
			C397.4,341.5,386.5,337.1,378.7,341.1z" style="fill:#56597A;"/>
		<path d="M398.7,446.8c-35.9,0.4-71.7-0.8-107.4-3.6c-8.2-0.6-8.2,12.2,0,12.8c35.7,2.9,71.5,4,107.4,3.6
			C406.9,459.5,406.9,446.6,398.7,446.8z" style="fill:#FFFFFF;"/>
		<path d="M406.9,471.5c-37,0-73.8,1.3-110.8,3.6c-8.2,0.6-8.2,13.4,0,12.8c36.8-2.3,73.8-3.6,110.8-3.6
			C415.3,484.3,415.3,471.5,406.9,471.5z" style="fill:#FFFFFF;"/>
	</g>
	<g>
		<path d="M718.7,38.8C709,19,688.4,5.4,667.1,1.4c-31.9-6.1-62.7,8-80.1,33.2c-3.8,5-6.9,10.7-9,17.2
			c-0.2,0.4-0.2,0.8-0.4,1.1c-1.5,4.2-2.7,8.4-3.4,13c-0.4,1.9,0.2,3.6,1.1,5c0.4,20.6,11.1,41.4,27.5,53.6
			c25.2,18.7,60.3,17.9,87.7,4.4c13.5-6.7,26.3-17,31.9-31.3c1.3-3.4,2.3-7.1,2.9-10.9C730.2,71.2,726,53.7,718.7,38.8z" style="fill:#F087B1;"/>
		<path d="M701.6,46.6c-7.2-14.9-22.7-24.8-38.7-27.8c-23.8-4.6-46.9,6.1-59.7,24.8c-2.9,3.8-5.1,8-6.7,12.8
			c0,0.4-0.2,0.6-0.2,1c-1.1,3.1-1.9,6.3-2.5,9.7c-0.2,1.5,0.2,2.7,0.8,3.6c0.4,15.4,8.2,30.9,20.6,40.1c18.9,13.9,45,13.4,65.4,3.2
			c10.1-5,19.6-12.6,23.8-23.5c1-2.7,1.7-5.3,2.1-8.2C710.2,70.8,706.9,57.7,701.6,46.6z" style="fill:#FFFFFF;"/>
		<path d="M664.8,61.7c-3.1,3.6-6.1,7.1-9.3,10.5c-0.8-9.7-1.7-19.3-2.5-29c-0.8-8.2-13.5-8.2-12.8,0l3.6,43.1
			c0.4,5.5,6.7,8.4,11.1,4.6c6.9-6.3,13.4-12.8,19.3-20C679.1,64.5,670.1,55.4,664.8,61.7z" style="fill:#57455E;"/>
	</g>
	<g>
		<g>
			<g>
				<path d="M259.1,499c-23.1-19.8-53-29.9-83.2-28.8c0-0.2,0-0.4-0.2-0.8l0,0c33-4.6,50.2-35.5,60.6-63.9
					c12.4-33.6,17.7-70.6,14.9-106.4c-0.8-8.8-4.2-23.1-16.4-19.1c-12.8,4.2-12,26.5-13.9,37c-5.7,33.2-12.6,68.1-36.2,93.3
					c-1.1-30.3-4.8-70.4-41.2-71.7c0-0.4-0.2-1-0.4-1.3c7.8-4.4,13-12.8,16.4-21c5.5-13.4,8-28.6,2.3-42.1
					c-4.8-11.1-15.3-21-28-19.1c-16.6,2.3-23.8,15.3-26.5,30.5c-6.7,14.1-6.7,32.6,1.9,43.7c1.9,2.5,4.2,4.6,6.9,6.5
					c0,0.8-0.2,1.7-0.2,2.5C80,338.8,59.8,372.4,51,403.6c-5.5,19.8-9.2,40.4-11.3,61c-1.5,15.3-4.8,33.9,11.1,42.9
					c0.6,0.4,1.1,0.6,1.7,0.8c-0.2,33,3.6,73.4,36.6,90.4c2.9,1.5,5.7,2.7,8.6,3.4c-17.9,5.9-40.6,12.4-39.1,34.7
					c1.5,21.9,23.1,32.2,42.9,31.7c7.1-0.2,20.6-0.4,21-10.3c0.2-4.2-3.2-8-7.6-11.1c26.3-3.8,52.4-9.5,77.2-19.6
					c24.6-10.1,49.8-25,59.9-50.9c1.5-4,2.5-7.8,3.2-11.8c9.5-6.9,15.1-17.7,17-29.6C274.4,520.4,270.2,508.7,259.1,499z" style="fill:#C39A8A;"/>
				<path d="M157.8,258.7c-10.7-9-26.9-9.5-38.5-1.9c-13.7,9-16.6,25.9-17.5,41.2c0,1.1,0.2,2.1,0.6,3.1
					c-0.4,4.4,4.4,9.3,9.7,6.7c11.1-5.3,22.3-10.9,33.4-16.2c6.5,7.4,16.6,16.6,22.1,4C172.7,282.9,167.7,267.1,157.8,258.7z" style="fill:#B6C8E8;"/>
				<path d="M130,652.5c-4.8-9-15.4-8.6-22.7-14.1c-8.6-6.7-13.5-19.1-18.7-28.4c-1.7-3.2-5-3.6-7.6-2.7
					c-1.7-1-3.8-1.1-6.1,0.2c-13.5,7.8-28.2,20-22.3,37.6C59,664,84,670.8,101.8,672.8C113.2,673.9,140.3,671.6,130,652.5z" style="fill:#56597A;"/>
				<path d="M174,643.6c-1-5.5-4.2-12.6-9.3-15.4c-6.5-3.8-13.9,2.9-19.1,6.1c-1.5,1-2.5,2.3-2.7,3.8
					c-1,0.6-1.7,1.3-2.5,2.3c-1.7,2.7-0.8,7.4,2.3,8.8c6.5,3.1,13.9,5.9,21.2,6.5C171.2,656.2,175.4,650.6,174,643.6z" style="fill:#56597A;"/>
				<path d="M267.5,511.8c-9.3-14.3-24.6-24.8-39.7-32.2c-14.5-7.2-30.7-13.9-46.7-7.6c-9.3,3.6-17.9,9.3-27.1,13.7
					c-11.1,5.3-22.7,9.9-34.3,13.9c-22.1,7.6-44.6,13.5-67.1,19.5c-5.7,1.5-5.5,8.4-1.9,11.4c0.6,22.7,13.2,59.9,36,72.7
					c-4,1.9-8.2,3.6-12.2,5.5c-2.9,1.3-4.2,6.3-2.3,8.8c5.9,8,11.6,16.2,17.7,24.2c4.2,5.3,8.8,9.7,15.8,10.3
					c8.2,0.8,17.2-1.1,25.4-2.1c10.3-1.1,20.4-2.5,30.5-4.6c32.8-6.7,66.4-21.9,84.5-51.5c4-6.7,5.9-14.9,10.5-21.4
					c5-7.2,12.4-10.9,16-19.3C278.4,539.6,275.5,523.8,267.5,511.8z" style="fill:#F087B1;"/>
				<path d="M255.3,320.7c-0.6-2.9-3.6-4.6-6.3-4.8c-11.3-1-22.3-2.1-33.6-3.1c-3.8-0.4-6.1,3.2-6.5,6.5
					c-2.7,24.6-9.7,48.4-20.6,70.4c-4.8-23.6-14.9-46.3-40.2-54.2c-3.1-1-5.5,0.8-7.2,3.1c-6.5,8.4-18.7,6.7-24.8-0.8
					c-1.9-2.3-4-2.5-6.1-1.9c-2.5,1-5,1.9-7.6,2.3c-35.3,5-51.7,45.2-60.8,75.9c-5.9,19.8-9.2,40.4-9.9,61c-0.4,8.4-1,17.7,1.1,25.9
					c1,3.4,2.5,6.5,4.8,9.2c1.5,1.7,10.1,6.3,10.9,8.6c-0.2,1-0.4,1.9-0.2,3.1c0.2,2.1,0.2,4.2,0.4,6.3c-1,5,3.4,9,8,7.8
					c27.7-7.2,55.3-14.7,83-21.9c23.5-6.3,44.2-12.2,57.6-33.9c1.9-3.1,0.6-6.9-2.3-8.8c-1.3-1-2.9-1.9-4.2-3.1
					c10.9-6.1,18.9-13.9,25-23.1c8.2-9.2,14.7-20,20-31.1C249.6,385,260.4,353.3,255.3,320.7z M171.6,441c-1.9-3.4-4.6-5.9-3.1-9
					c1.5-2.9,13.2-4.8,16.2-5.7c11.1-3.8,19.6,2.9,16,13.7c-2.5,7.4-13.5,13.9-19.8,18.5C178.2,454.2,173.9,445.6,171.6,441z" style="fill:#FFFFFF;"/>
				<path d="M194.1,208.2c-5.3-14.9-20.2-17.7-32.8-13.2c-1.3-9.5-8.2-17.9-19.5-19.5c-12.2-1.9-21.6,5.5-25,15.6
					c-11.8-6.9-25.6-6.5-31.7,10.3c-5.5,15.1,1.7,32.8,15.8,40.2c1.1,10.5,2.5,21.2,3.6,31.7c0.4,3.2,2.7,6.9,6.5,6.5
					c17-1.9,34.1-3.8,51.1-5.5c3.6-0.4,6.1-2.7,6.5-6.5c0.8-9.2,1.1-18.5,1-27.7C185.5,238.5,200.7,226.3,194.1,208.2z" style="fill:#F087B1;"/>
				<path d="M124.1,306h-0.6c-3.4,0-6.7,3.1-6.5,6.5c0.2,3.4,2.9,6.5,6.5,6.5h0.6c3.4,0,6.7-3.1,6.5-6.5
					C130.2,309,127.5,306,124.1,306z" style="fill:#57455E;"/>
				<path d="M155.7,305.4c-3.4,0.2-6.5,2.9-6.5,6.5v0.6c0,3.4,3.1,6.7,6.5,6.5c3.4-0.2,6.5-2.9,6.5-6.5v-0.8
					C162.2,308.5,159.4,305.2,155.7,305.4z" style="fill:#57455E;"/>
				<path d="M147.2,317.8c-4.4,0.6-8.8,1.1-13.2,1.5c-3.4,0.4-6.5,2.7-6.5,6.5c0,3.2,3.1,6.9,6.5,6.5
					c4.4-0.6,8.8-1.1,13.2-1.5c3.4-0.4,6.5-2.7,6.5-6.5C153.6,321.1,150.6,317.4,147.2,317.8z" style="fill:#57455E;"/>
				<path d="M257.4,575.9c-11.6-40.6-49.4-67.3-91.7-63.7c-8.2,0.8-8.2,13.5,0,12.8c36.6-3.1,69.2,18.7,79.3,54.2
					C247.3,587.3,259.7,583.9,257.4,575.9z" style="fill:#57455E;"/>
				<path d="M171.4,578.7c-33,5.1-65.4,13-97.3,23.5c-7.8,2.7-4.4,15.1,3.4,12.4c31.7-10.5,64.1-18.3,97.3-23.5
					C183,590,179.6,577.6,171.4,578.7z" style="fill:#57455E;"/>
			</g>
			<path d="M161.3,253.7c-3.4,0.2-7.1,0.4-10.5,0.6c-0.4-4.8-0.6-9.7-1-14.5c-0.6-8.2-13.4-8.2-12.8,0
				c0.4,5.1,0.6,10.1,1,15.3c-2.9,0.2-5.9,0.4-8.8,0.6c-1-5.9-2.1-11.6-3.1-17.5c-0.6-3.4-4.8-5.3-8-4.6c-3.6,1-5.1,4.6-4.6,8
				c1,5,1.7,10.1,2.7,15.1c-2.7,0.2-5.1,0.4-7.8,0.6c-8.2,0.6-8.2,13.5,0,12.8c17.5-1.3,35.1-2.5,52.8-3.4
				C169.5,266.1,169.7,253.4,161.3,253.7z" style="fill:#57455E;"/>
			<path d="M138.2,205.7c-1.5-7.4-6.7-14.3-13.5-17.5c-3.1-1.5-6.9-1-8.8,2.3c-1.7,2.9-0.8,7.2,2.3,8.8
				c4.4,2.1,6.7,5.3,7.6,9.9c0.6,3.4,4.8,5.3,8,4.6C137.4,212.5,138.9,209.1,138.2,205.7z" style="fill:#57455E;"/>
			<path d="M168.5,192.9c-1.9-2.9-5.7-4.2-8.8-2.3c-2.1,1.3-4.4,2.7-6.5,4c-2.9,1.7-4.2,5.9-2.3,8.8
				c1.9,2.9,5.7,4.2,8.8,2.3c2.1-1.3,4.4-2.7,6.5-4C169.1,200,170.4,195.8,168.5,192.9z" style="fill:#57455E;"/>
		</g>
		<path d="M174.4,473.8c-38.5,22.7-81.4,36.4-126.1,39.9c-8.2,0.6-8.2,13.5,0,12.8c46.9-3.6,92.1-17.5,132.7-41.6
			C188.2,480.7,181.7,469.6,174.4,473.8z" style="fill:#57455E;"/>
		<path d="M151.7,420.8c-25.2,11.4-49.8,23.6-74,36.6c3.6-20,7.2-40.1,10.7-60.1c1.5-8-10.9-11.6-12.4-3.4
			c-4.4,24.6-8.8,49.2-13.2,73.6c-1,5.3,4.2,10.1,9.5,7.2c28-15.4,56.6-29.9,85.8-43.1C165.7,428.6,159.2,417.4,151.7,420.8z" style="fill:#57455E;"/>
		<path d="M138.8,350.1c-0.8-8.2-13.5-8.2-12.8,0c0.6,7.2,1.3,14.5,1.9,21.6c0.8,8.2,13.5,8.2,12.8,0
			C140.1,364.6,139.5,357.3,138.8,350.1z" style="fill:#57455E;"/>
	</g>
</g>
</svg>
