<?xml version="1.0" encoding="utf-8"?>
<!-- Generator: Adobe Illustrator 23.0.2, SVG Export Plug-In . SVG Version: 6.00 Build 0)  -->
<svg version="1.1" id="Capa_1" xmlns="http://www.w3.org/2000/svg" xmlns:xlink="http://www.w3.org/1999/xlink" x="0px" y="0px" viewBox="0 0 800 594" style="enable-background:new 0 0 800 594;" xml:space="preserve">

<g>
	<path d="M789.3,446.9c-15-22-40.5-28.7-62.8-33.5c-29.2-6.2-58.7-9.2-88.3-8.8c-6.3,0-12.8,0.3-19.2,0.7
		c-118.5-4.7-237.2-1.2-355.2,10.5c-59.5,5.8-119.8,11.8-178.7,24.2c-22.7,4.8-46.7,16-56.5,42.3c-7.8,21-1.3,43.3,12.8,58
		c15.7,16.3,36.3,24.2,56.5,29.7c28.5,7.8,57.5,13.8,86.5,17.8c60,8.5,120.2,7.7,180.3,1.5c61.3-6.2,122.7-14.3,184-21.7
		c58.2-7,117-11.8,174.2-27.3c14.2-3.8,28.2-8.3,42-13.8c10.3-4.2,21.2-8.7,28-19C804.6,489.9,800.6,463.4,789.3,446.9z" style="fill:var(--illu-yellow--main);"/>
	<g>
		<path d="M189.1,100.7c10.3-6.7,22-14.7,26.2-26.8c10.2-30-27.3-46.8-48.3-56.5c-13.8-6.3-28.3-11.7-43.7-13
			c-9.8-0.8-28.5-1.3-34.2,9.2c-0.8,1.5-1.2,2.8-1.3,4c-1.2-0.2-2.3-0.2-3.7,0l0,0c-1-0.2-2,0-3,0.5c-17.7,8.5-21.2,30-15.7,47.3
			c3.3,10,12.3,19.3,22.2,20.2c0.2,0.3,0.2,0.7,0.3,1c0.2,0.8,0.7,1.5,1.2,2c-9.5,10-19.8,19.3-30.7,27.8c-2.7,2-7.5,7-11,7.8
			c-8.2,1.8-9-4.5-9.3-9.8c-0.3-7.2,1.3-14.7,3.5-21.5C45.8,79.4,52.8,67,58.1,54c2.7-6.2,13.5-26.8,2.3-30.7
			c-4.2-1.3-7.2,1.5-10,4.2c-5.5,5.2-10.7,10.8-15.3,16.8c-8.3,10.7-15.3,22.5-20.7,35c-8.8,20.8-21.2,56.2,0.2,73.5
			c19.2,15.7,46.7,8.8,62.5-7.8L66.9,323.2c-3.5,60.3-5.2,119.8,3,180c0.2,1.7,2,3,3.5,3.5c13.2,3.7,26.7,6.2,40.2,8
			c2.5,0.3,5.2-2.5,5-5c-0.3-6.2-3.7-9.7-8.5-13c-3.8-2.7-7.5-4.8-9-9.3c-1.3-4-1.2-8.5-1-12.7c0.8-22.3,2.7-44.7,4-67
			c2-33,4-65.8,6-98.8c8.7,38.3,17.3,76.8,26,115.2c2.7,11.8,5.3,23.8,8,35.7c2.8,12.5,4.8,25.7,8.5,37.8
			c2.3,7.7,7.3,10.8,15.2,11.5c12.2,1,24.7-0.2,36.7-2.7c5.3-1.2,4.2-8,0-9.7c-14.2-5.7-19.8-21-21.5-35c-2-15.5-1.8-31.7-2.7-47.3
			c-1.5-30.7-3.5-61.3-6-91.8c-4.7-58-10.8-115.8-18.5-173.3c-0.5-10.2-2-20.2-4.3-30.2C164.6,114.4,177.3,108.4,189.1,100.7z
			 M107.3,72.9c6-12.5,2.7-29.8-3.3-41.7c0.5,0.2,1,0.3,1.5,0.5c14,4,28.3,6,42.3,10c7.5,2.2,14.8,5,21.7,9c4.3,2.7,8.7,4.7,8.5,10
			c0,6-5.8,8-11.2,9.3c-8.5,2.2-17.7,1.7-26.3,1.8c-10.7,0.3-21.3,0.5-32,0.8C107.9,72.7,107.6,72.7,107.3,72.9z" style="fill:var(--illu-brown--light);"/>
		<path d="M118.4,497.6c-3.2-2.8-6-5.3-8.2-8.8c-1.7-2.7-2.7-5.7-5.5-7.5c-5.5-3.5-15.2-2.7-21.5-3.5
			c-6.7-0.8-13.2-2.2-17.3,4.2c-0.3,0.3-0.5,0.8-0.5,1.2c-0.7,0.8-1,1.8-1,3c0.2,6-1.8,16,2,21.3c3.8,5.3,13.7,6,19.5,7.2
			c8.8,1.8,17.7,2.8,26.7,3.3c5.5,0.3,12,0.8,13.2-5.8C126.8,506.1,122.4,501.2,118.4,497.6z" style="fill:var(--illu-bg--main);"/>
		<path d="M211.8,496.7c-4.7-4.3-10.2-7.7-14.5-12.3c-3.7-4.2-6.3-10.8-10.8-14c-7.3-5-25.7-2.7-33,1.7
			c-1.3,0.8-2.3,1.7-3,2.8c-2.7,0.5-4.8,2.8-4,6c2,6.5,3,15.8,7.3,21.5c4,7.3,11.3,9.3,20.3,10.2c10.3,1,20.5,1.2,30.2-2.2h0.2
			C211.8,509.7,218.6,503.2,211.8,496.7z" style="fill:var(--illu-bg--main);"/>
		<path d="M189.1,448.4c-0.2-7.5-0.5-15.2-0.8-22.7c-1.3-32.3-3.8-64.8-7.3-97c-1.7-15.5-3.7-31-5.8-46.3
			c-0.7-4.5-1.5-8.2-2.8-11.2c-0.2-7.8-1.2-15.5-3.5-23.2c-0.2-0.8-0.7-1.5-1-2c-0.8-1.3-2.5-2.3-4.3-2.5
			c-23.5-2.3-46.8,1.3-69.8,5.5c-8.2,1.5-17.2,3.2-22.7,9.8c-4.5,5.5-5.7,12.8-2.3,19c-3.8,68-6.2,136-7,204c0,2.7,2.3,5,5,5
			l30.7,0.2c2.3,0,4.2-1.5,4.8-3.7c4-12.7,2.7-25.5,3.3-38.7c0.7-15.5,4.2-30.7,7.2-46c2.3-12.2,4.2-24.3,5.2-36.5
			c1.2,5.3,2.3,10.7,3.7,15.8c6,27,13,53.7,20.8,80.2c1.2,7,2,14.2,3,21.2c0.3,3.2,2.8,5.7,6.3,4.8c8-2,16.2-3.7,24-6.2
			c5-1.7,9.7-4,12-9c1-2,1.5-4.3,1.7-6.7C189.9,457.9,189.1,452.6,189.1,448.4z" style="fill:var(--illu-blue--main);"/>
		<path d="M219.1,59.7c-4.3-17-21-27.7-35.2-36.2c-16.8-10.2-35.2-18-54.2-23.3c-2.2-0.7-4.5,0.3-5.7,2.3
			c-5.5,10-10,20.3-13.5,31.2c-0.8,2.7,1,5.3,3.5,6.2c4.8,1.7,58,19.7,58.2,19.5c-1,2.8-22.5,3.5-25.5,3.8
			c-10.5,1.3-21.2,2.5-31.7,3.8c-0.2,0-0.2,0-0.3,0c-2.8-1.3-7.3,0-7.8,4.2c-0.7,6-1.2,12.2-1.8,18.2c-0.5,4.8-1.7,3-5.5,1.2
			c-2.5-1.2-5-2.5-7.3-3.7c-3-1.5-6-0.2-7.3,2.8c-0.3,0.2-0.7,0.3-0.8,0.7c-5.5,4.8-10.8,9.7-15.8,15c-5,5.3-9.7,12-17.7,12
			c-0.7,0-1.3,0.2-1.8,0.3c-2-0.8-3.5-2.7-4.3-6.2c-1.5-6.2,0.3-13.5,2-19.3c1.7-5.7,3.8-11,6-16.5c1.5-4.2,4.5-9.3,4.3-13.8
			c-0.2-9.5-14.2-9.5-20.8-11.2c-0.8-0.2-1.5-0.2-2.2,0c-2.2-1-4.8-0.8-6.2,1.8c-1.2,2-2.2,4-3.2,6C10.8,83.9-9.4,120.9,7.1,146
			c4.2,11.3,13.3,21.2,25.7,23c11.8,1.7,25-3,36.7-8.2c-1,40.2-2,80.2-3.2,120.3c0,2.8,2.3,4.8,5,5c9.5,0.7,19-0.8,27.7-4.8
			c4.3-2,8.3-4.5,12-7.3c4-3.2,8.8-11,14.7-10c2.2,0.3,4.8,3,7,4.2c2.5,1.3,5.2,2.7,7.8,3.8c4.8,2.2,9.8,3.8,15,5
			c6.7,1.7,16.8,4.7,19.3-4.3c1.3-4.7-0.2-10.7-0.5-15.2c-0.5-6.5-1-13-1.5-19.5c-1.2-13-2.3-26-3.5-39c-2.5-25.7-5.5-51.2-8.8-76.7
			c15.2-3.7,27.7-13.3,39.5-23.2C211.8,88.7,223.4,76.9,219.1,59.7z" style="fill:var(--illu-red--light);"/>
		<path d="M112.1,34.2c-3.7-6.8-8.8-13.7-15.2-18.2C68.3-4.3,48.6,47,64.8,67c0.7,1,1.7,1.5,2.5,1.7
			c1.8,1.3,4.3,1.7,6.3-0.3c0.5-0.5,0.8-0.8,1.3-1.3c-0.2,2.7,1.5,5.3,4.8,5.3c6.5,0,6.5-10,0-10c-0.3,0-0.5,0-0.8,0
			c2.7-3.3,5-7,6.8-10.8c3.7,2,8.3,4,12.8,5.5c-0.3,0.7-0.5,1.3-0.5,2.2c0.2,2.7,2.2,5,5,5h1c2.7,0,5.2-2.3,5-5c0-0.3,0-0.7-0.2-0.8
			c3.5-0.5,6.3-2.3,7.7-6.2C118.8,46.4,114.8,39.2,112.1,34.2z" style="fill:var(--illu-bg--light);"/>
		<path d="M106.4,66.9c-1.3-2.3-4.5-3.2-6.8-1.8c-3,1.7-6.2,3.5-9.2,5.2c-2.3,1.3-3.2,4.5-1.8,6.8
			c1.3,2.3,4.5,3.2,6.8,1.8c3-1.7,6.2-3.5,9.2-5.2C106.9,72.4,107.8,69.2,106.4,66.9z" style="fill:var(--illu-bg--light);"/>
		<path d="M119.9,73.2c-4.2-5-11.2,2.2-7,7c0.8,1,14,16.8,12.5,18.8c-0.7,0.8-12.3-3.2-15-3.3c-0.5,0-0.8,0-1.3,0
			c-3.2-3.3-10.2-0.7-8.5,4.7l0,0c-2.7,2.7-5.3,5.8-7.8,8.8c-0.5-3.3-0.7-6.7-0.7-10c0-6.5-10-6.5-10,0c0,7.7,1.2,15,3.2,22.5
			c1,3.5,5.8,5.2,8.3,2.2c3.3-3.7,6.5-7.5,9.8-11.2c0.2-0.2,0.3-0.3,0.5-0.5c12.5,47,17,95.7,13.3,144.2c-0.5,6.5,9.5,6.3,10,0
			c3.7-50.3-1.2-101-14.3-149.7c0.2,0,0.3,0,0.7,0.2c5.7,1,15.5,5,20.7,1.2C144.3,100.4,124.8,79,119.9,73.2z" style="fill:var(--illu-bg--light);"/>
		<path d="M124.3,305.9c0-6.5-10-6.5-10,0c0.2,20.7-0.8,41.3-2.8,61.8c-0.7,6.3,9.3,6.3,10,0
			C123.6,347.2,124.4,326.6,124.3,305.9z" style="fill:var(--illu-bg--light);"/>
		<path d="M107.6,479.9c-2.3-1.2-5.5-0.7-6.8,1.8c0,0-0.3,0.5-0.3,0.7l-0.2,0.2c-0.2,0.2-0.3,0.2-0.5,0.2l0,0
			c-2.5,0.8-4.3,3.5-3.5,6.2c0.8,2.5,3.5,4.3,6.2,3.5c3-0.8,5.5-2.8,7-5.7C110.6,484.6,110.1,481.2,107.6,479.9z" style="fill:var(--illu-bg--light);"/>
		<path d="M115.4,491.7c-2.8-0.7-5.3,0.8-6.2,3.5c-0.3,0.8-0.5,1.7-0.8,2.5c-0.8,2.5,1,5.5,3.5,6.2
			c2.8,0.7,5.3-0.8,6.2-3.5c0.3-0.8,0.5-1.7,0.8-2.5C119.8,495.4,118.1,492.2,115.4,491.7z" style="fill:var(--illu-bg--light);"/>
		<path d="M193.6,471.9c-0.8-0.8-2.3-1.5-3.5-1.5c-1.3,0-2.7,0.5-3.5,1.5c-0.7,0.7-1,1.5-1.2,2.2
			c-2,1.2-3.3,3.5-2.7,5.8c0.8,2.5,3.5,4.3,6.2,3.5c1.7-0.7,3.2-1.5,4.3-3c1.2-1.5,1.7-3,1.8-5C195.1,474.2,194.4,472.6,193.6,471.9
			z" style="fill:var(--illu-bg--light);"/>
		<path d="M204.8,482.4c-2.2-2-5-1.8-7,0c-1.3,1.2-2.7,2.3-4,3.3c-2,1.7-1.8,5.3,0,7c2.2,2,5,1.8,7,0
			c1.3-1.2,2.7-2.3,4-3.3C206.8,487.7,206.8,484.1,204.8,482.4z" style="fill:var(--illu-bg--light);"/>
	</g>
	<g>
		<path d="M523.1,295.6c-0.3-3.5-3-5.3-6.3-4.8c-17.3,2.5-33.2,10.5-50.2,14.8c-17.3,4.3-35.3,5.2-52.8,2.8
			c-7.8-29.8-21.2-64.7-56.7-67.3c-2-0.2-3.5,0.8-4.2,2.2c-0.2-0.7-0.5-1.3-0.8-1.8c0,0,0,0,0-0.2l0,0l0,0c2.8-3.2,4.7-6.7,5.7-10.7
			c2.5-4.7,4-10,3.8-15.3c0-6.7-2.5-13.2-6.7-18.5c-1.2-2.7-2.5-5.3-4.5-7.5c-4.3-6-10.7-10-18.8-9.8c-2.2,0-3.7,1.2-4.3,2.8
			c-2,0.7-4,1.8-5.7,3.3c-6,5.8-7,15.7-7.3,23.5c-0.7,12.7,1.7,31.3,15.7,35.2v0.5c-22,0.3-32,33.5-38.5,50.2
			c-5.8,15.2-10.8,30.7-14.7,46.5c-3.3,13.2-8.2,28.7-4.5,42.2c2.2,8.2,7,14.3,13.5,18.8c-4.5,18.2,6,35.8,21.5,45.2
			c1.2,0.7,2.3,1.3,3.5,2c-7.3,0.8-14.5,1.7-21.8,2.5c-8.7,1-20.5,0-24.8,9.2c-4.3,9.2-4,22.8-4.2,32.8c0,3.5,3.2,5.5,6.3,4.8
			c4-0.8,6.2-3,8.7-6.2c1.2-1.7,2.2-4.3,3.8-5.3c3.7-2.3,8,0,11.2,1.3c11,4.8,22.2,8.7,34,10.7c23,4.2,48,3,70-5
			c11.5-4.2,24-11.8,29.7-22.8c18.2-3,26.2-23.8,22.5-43.8c-4.2-23.3-19.5-28.8-40.8-31c-0.8-0.2-1.5,0-2.2,0.3
			c-1.8-4.8-6.8-7.5-12.7-9.2c0.2-0.5,0.2-1,0.2-1.5c-1-16.8-1.5-33.7-1.5-50.5c1.2,0.7,2.5,1.2,3.8,1.5c6.3,1.7,13.3,1.7,20,1.7
			c18.7,2.7,38.7-1.8,56.3-6.8c12.8-3.7,25.8-8.5,37.8-14.7C515.3,313.2,524.1,306.2,523.1,295.6z" style="fill:var(--illu-brown--light);"/>
		<path d="M289.8,458.6c0.5-4-3.2-5.5-6.2-4.5c-1.2-1.3-2.8-2.2-4.8-1.7c-11,2.3-15,7.5-17.2,18.3
			c-1.5,7.5-3.2,15-4.3,22.7c-0.5,3.7-0.5,7.5,2.8,10c8.7,6.5,18.7-9.3,22.8-14.5c3.3-4,6-7.8,6.7-13.2
			C290.4,470.1,289.1,464.4,289.8,458.6z" style="fill:var(--illu-blue--main);"/>
		<path d="M361.4,202.1c-1.8-10.5-13-21.7-22.8-25.3c-11.5-4.2-20.5,3.5-24.5,13.8c-2.5,6.5-3.5,13.7-4,20.5
			c-0.3,4.8-1.3,11.8,3,15.3c1.7,1.3,3.5,1.7,5.3,1.3c1.3,1,3.2,1.3,5.2,0c1.2-0.7,2.2-1.5,3.3-2.2c0.3,2.2,2,4,4.7,4
			c5.7,0,6.3-7.7,2.2-9.5c4.5-4.2,8.5-8.8,11.8-14.2c3.5,1.5,7,2.3,11.2,2.7C360.1,208.6,361.9,204.9,361.4,202.1z" style="fill:var(--illu-bg--light);"/>
		<path d="M418.9,310.4c-9-31.2-24.3-66.3-62-69.5c-2.2-0.2-4.3,1.7-4.8,3.7c-2.3,9.7-13,13.5-22.2,8.5
			c-6.8-3.7-12.3-10.2-20.2-3.7c-7.2,6.3-11.2,19-14.8,27.7c-2.5,6-4.8,12.2-7,18.3c-1.8,5.2-8.8,24.2-4,25.2
			c7.8,1.5,15.5,3.2,23.3,4.7c-0.5,11.2-1.2,22.3-1.7,33.5c-0.5,8.5-3.3,18,6.5,21.3c12,4,26.2,5,38.7,7.3c12.8,2.5,26.3-2,39.3,0.5
			c3,0.7,5.8,5.5,5.7,2c-0.5-14-1-27.8-1.3-41.8c-0.2-8.2,1.3-12,7.2-17.7c5.3-5.2,10.7-10.3,16-15.3
			C418.9,314.1,419.4,312.1,418.9,310.4z" style="fill:var(--illu-yellow--main);"/>
		<path d="M439.6,408.4c-2.2-1.2-4.5-2.2-6.8-3.2c-10.3-4.5-26.5-12.8-34.2-1.2c-5.5,8.3-16.5,7-25.7,7.7
			c-8.7,0.5-17.2,0.8-25.8,0.8c-13.3-0.2-26.5-1.3-39.2-4.8c-3.7-0.5-7.3-1-10.8-1.8c-4-1-7.8-1.7-11.5-3.3
			c-1.5-0.7-2.8-2.2-3.8-2.8c-0.3,0.5-0.2,2.7-0.2,3.3c-0.8,17.2,6.5,33.3,19.3,44.2c-7.2,2.5-14.5,4-22,4.7c-2.7,0.2-5,2.2-5,5
			c-0.2,7.7-1.5,16.2-0.2,23.7c1,5.7,4.7,8.2,9.5,10.2c15.8,6.5,32.2,11.7,49.3,12.7c16.7,1,34-0.3,50.7-2.3
			c13.8-1.7,28-6,37.2-17.2c1.8-2.2,2.8-4.7,4.5-7.2c2.2-3.3,6.7-3.7,9.7-6.3C450.8,455.9,456.4,417.6,439.6,408.4z" style="fill:var(--illu-bg--main);"/>
		<path d="M351.8,210.6c-6.5,0-6.5,10,0,10S358.3,210.6,351.8,210.6z" style="fill:var(--illu-bg--light);"/>
		<path d="M357.9,225.6c-1.5-2.5-4.3-3-6.8-1.8c-3.2,1.5-6.5,3-9.7,4.5c-2.5,1.2-3,4.7-1.8,6.8c1.5,2.5,4.3,3,6.8,1.8
			c3.2-1.5,6.5-3,9.7-4.5C358.6,231.2,359.3,227.7,357.9,225.6z" style="fill:var(--illu-bg--light);"/>
		<path d="M324.9,448.2c-8.2-1.3-16.3-2.8-24.5-4.2c-6.3-1-9,8.5-2.7,9.7c8.2,1.3,16.3,2.8,24.5,4.2
			C328.6,458.9,331.3,449.4,324.9,448.2z" style="fill:var(--illu-bg--light);"/>
		<path d="M393.3,303.2c-3.3-6.3-5.8-13-7.7-20c-1.5-6.2-11.2-3.7-9.7,2.7c1.8,7.8,4.8,15.3,8.7,22.3
			C387.6,314.1,396.3,309.1,393.3,303.2z" style="fill:var(--illu-bg--light);"/>
		<path d="M305.8,305.7c-1.7,21.3-3.2,42.7-4.8,64c-0.5,6.5,9.5,6.3,10,0c1.7-21.3,3.2-42.7,4.8-64
			C316.3,299.2,306.3,299.4,305.8,305.7z" style="fill:var(--illu-bg--light);"/>
	</g>
	<g>
		<g>
			<path d="M729.6,497.4c-0.3,0-0.5,0.2-0.8,0.3c-1.7-0.8-3.8-0.8-5.5,1c-4.7,5-9,10.8-7.3,18c1.7,6.7,8.2,10.3,14.7,8
				c6.8-2.5,9.7-9.7,10.7-16.2C742.6,501.2,737.1,495.2,729.6,497.4z" style="fill:var(--illu-red--light);"/>
			<path d="M714.6,480.6c-2-1.8-5.2-2-7,0l-1,1c-1.8,1.8-2,5.2,0,7c2,1.8,5.2,2,7,0l1-1
				C716.6,485.7,716.6,482.4,714.6,480.6z" style="fill:var(--illu-red--light);"/>
			<path d="M700.6,500.2c-6.5,0-6.5,10,0,10C707,510.2,707,500.2,700.6,500.2z" style="fill:var(--illu-red--light);"/>
			<path d="M695.3,522.4h-1c-2.7,0-5.2,2.3-5,5s2.2,5,5,5h1c2.7,0,5.2-2.3,5-5S698.1,522.4,695.3,522.4z" style="fill:var(--illu-red--light);"/>
		</g>
		<g>
			<path d="M615,507.7c-0.3-0.5-0.7-1-1.2-1.5l0,0c-0.2-0.2-0.5-0.5-0.7-0.7c-3.8-4-10.5-5.5-15.8-3
				c-6,2.8-8.3,9.2-7.7,15.3c-2.2,7.8,1,17.5,10.7,17.5c4.7,0,8.5-2.5,11.2-6.2C617.1,524.4,618.5,513.7,615,507.7z" style="fill:var(--illu-red--light);"/>
			<path d="M588.5,488.6c-6.5,0-6.5,10,0,10C594.8,498.6,595,488.6,588.5,488.6z" style="fill:var(--illu-red--light);"/>
			<path d="M568.3,511.9c-2.7,0.2-5,2.2-5,5v1c0,2.7,2.3,5.2,5,5c2.7-0.2,5-2.2,5-5v-1
				C573.3,514.2,571,511.7,568.3,511.9z" style="fill:var(--illu-red--light);"/>
			<path d="M580,530.9c-2.7,0.2-5,2.2-5,5v1c0,2.7,2.3,5.2,5,5c2.7-0.2,5-2.2,5-5v-1C585,533.2,582.6,530.7,580,530.9z" style="fill:var(--illu-red--light);"/>
		</g>
	</g>
	<g>
		<g>
			<path d="M492.6,275.4c-2.2-5.3-5.7-9.7-10.7-12.7c-5.5-3.3-10.7,5.3-5,8.7c2.5,1.5,5,4,6,6.7c1,2.5,3.3,4.3,6.2,3.5
				C491.5,280.9,493.6,277.9,492.6,275.4z" style="fill:var(--illu-red--light);"/>
			<path d="M515.3,252.2c-0.3-6.3-10.3-6.5-10,0c0.3,6.7,0.7,13.3,1.2,20.2c0.3,6.3,10.3,6.5,10,0
				C516.1,265.7,515.8,259.1,515.3,252.2z" style="fill:var(--illu-red--light);"/>
			<path d="M536.6,274.9c-2.3-0.7-5.7,0.8-6.2,3.5c-0.7,4.7-1.5,9.2-2.2,13.8c-0.3,2.7,0.7,5.3,3.5,6.2
				c2.3,0.7,5.7-0.8,6.2-3.5c0.7-4.7,1.5-9.2,2.2-13.8C540.5,278.4,539.5,275.7,536.6,274.9z" style="fill:var(--illu-red--light);"/>
			<path d="M577.1,272.9c-2.8-0.8-5.2,1-6.2,3.5c-1.7,4.2-4,8-6.7,11.7c-1.5,2.2-0.3,5.5,1.8,6.8
				c2.5,1.5,5.3,0.3,6.8-1.8c3.2-4.3,5.7-9.2,7.7-14C581.6,276.6,579.5,273.6,577.1,272.9z" style="fill:var(--illu-red--light);"/>
			<path d="M553.6,240.1c-2.8-0.8-5.2,1-6.2,3.5c-1.5,3.7-1.5,7.3-0.8,11.2c0.5,2.7,3.7,4.2,6.2,3.5
				c2.8-0.8,4-3.5,3.5-6.2c-0.3-1.7,0-3.7,0.8-5.8C558.1,243.7,556,240.7,553.6,240.1z" style="fill:var(--illu-red--light);"/>
		</g>
		<path d="M688.1,486.9c-4.8-12-12.7-22.2-19.3-33.2c-7-11.2-13.3-22.8-18.8-34.8c-11.7-24.8-20.2-51.2-25.8-78
			c-0.2-0.7-0.3-1.2-0.7-1.7c10.8-18.3,21.7-36.7,32.5-55c8.5-14.5,21.5-31.3,13.2-48.7c-1.5-3.2-5.7-3-7.8-1
			c-18,15.8-29.2,37.2-44.3,55.3c-7.7,9.2-16.3,17.3-27,22.8c-12.8,6.5-27.3,9-41.5,10.8c-15.2,1.8-30.3,3.3-45.3,5
			c-14,1.5-28.3,3.8-42.3,2.7c-24.7-2-46.2-29.3-71.7-16.7c-0.3,0.2-0.5,0.3-0.7,0.5c-14.3,6.5-29,13.3-40.5,24.7
			c-8.5,8.3-18.5,22.5-16.5,35.2c2,12.8,19.3,13.5,29.5,13.5c2.5,0,5-0.2,7.3-0.3c0.2,0,0.3-0.2,0.5-0.2c3,0.2,6.2,0.3,9.2,0.7
			c5.3,0.5,14,0.3,18.5,3.8c8,6.3-2,13.5-7.5,15.8c-3.2,1.5-6.5,2.5-9.8,3.2c-3.2,0.3-6.2,0.3-9.3,0.5c-0.3,0-0.7,0-1,0.2
			c-0.2,0-0.3,0-0.7,0c-2.2-0.2-3.5,0.8-4.2,2.2c-0.3,0.3-0.8,0.7-1.2,1.2c-13,17.7-26,35.2-39,52.8c-6.2,8.3-12.3,16.7-18.5,25
			c-5.3,7.2-10.5,13.8-10.7,23.2c0,3.5,3.2,5.3,6.3,4.8c18.3-3.3,32-17.8,44.7-30.5c7.5-7.5,14.7-15.2,21.7-23.2
			c3.3-3.8,6.5-7.7,9.7-11.5c2.8-3.5,6.2-10,10-12.7c6-4.2,12.7-1.5,18.8,0.3c6.7,1.8,7,2.8,4.5,9.3c-3.8,9.8-8.2,19.5-13.2,28.8
			c-10,18.7-22.2,36.2-36.2,52c-2,2.3-2,6.2,1,7.8c20.7,11.3,36.8-8.5,47.5-23.7c15-21.3,28.2-43.8,39.2-67.3c2.3-5,4-11.2,7.3-15.7
			c4.5-6.3,15.7-6.8,22.8-8.5c14-3.2,28.2-6.3,42.2-9.7c15.3-3.5,30.7-7,46-10.5c-4.3,19.7-11.3,38.5-15.8,58c-1.7,7-10,39.5,8.2,33
			c13.7-4.8,21-24.8,25-37.3c6.2-19.8,10.3-40.5,14-60.8c1.8-0.5,3.8-0.8,5.7-1.3c10,20.2,20.2,40.3,33.2,58.8
			c11.3,16,25.2,32,45,36.7C685.3,493.9,689.6,490.7,688.1,486.9z" style="fill:var(--illu-blue--light);"/>
		<path d="M427.6,345.2c-2.2-7.7-20.5-49.5-32.8-33.2c-6.7,9-8,21.3-6.3,33c-0.2,8.7,1.8,16.8,7.3,22.5
			c0,0.2,0.2,0.2,0.2,0.3c0.8,1.3,1.8,2.2,3.2,2.3c0,0,0,0,0.2,0C414.4,380.4,431.6,360.6,427.6,345.2z" style="fill:var(--illu-bg--main);"/>
		<path d="M598.5,331.1c-5.8-9.3-15.2-17.8-26.7-18.3c-7.7-0.3-15.8,1.8-23.3,3c-9.2,1.5-18.3,3-27.5,4.5
			c-8.7,1.3-17.2,2.8-25.8,4.2c-8,1.3-16.5,1.7-23.2,6.7c-2.7,2-2.7,5.3-1.2,7.5c-5.2,9.3-9.3,19.8-10.3,30.2
			c-0.8,9.5,7,15,15.8,11.7c7-2.5,10-9,18.7-7.5c7.3,1.2,13.3,6,19.5,9.7c10.5,6.2,20.5,8,32.3,5c7-1.8,13.8-4.7,21.2-4.8
			c6.3-0.2,12.7,1.5,18.7-1.3c3.7-1.7,6.5-4.5,7.8-8.3c2-6.3-3.2-12.2,1.2-17.8c2.8-3.5,5.8-4.8,6.5-9.8
			C603.1,340.2,601.1,335.2,598.5,331.1z" style="fill:var(--illu-red--light);"/>
		<path d="M491.6,394.2c-5.3-4.3-12.8-5.2-19.5-6.2c-9.5-1.5-19.2-2.2-28.8-2c-2,0-3.5,1-4.2,2.5
			c-4.8,3.3-9.3,7.2-9.8,13.5c-0.3,5.2,2.3,9.5,7.2,11.3c7.7,2.8,17.3,3.5,25.3,5.5c7.3,1.8,14.8,3.2,22.2,0.7
			C494.8,415.7,502.5,402.7,491.6,394.2z" style="fill:var(--illu-red--light);"/>
		<path d="M363.4,335.7c-6.5,0-6.5,10,0,10C369.9,345.7,369.9,335.7,363.4,335.7z" style="fill:var(--illu-bg--light);"/>
		<path d="M337.4,358.4c-5.3-1.5-11,4.3-8.2,9.5c1.3,2.3,4,3.5,6.5,3c1,0,2.2-0.2,3-0.7c2-1.2,3.2-3.5,3.2-5.7
			C341.9,361.6,340.1,359.2,337.4,358.4z" style="fill:var(--illu-bg--light);"/>
		<path d="M602.6,396.4c-10.5,3.2-21.3,5.7-32.3,7c-7.3,1-7.2,11,0.2,10c12.2-1.5,23.8-3.8,35.5-7.3
			C613,403.9,609.8,394.4,602.6,396.4z" style="fill:var(--illu-bg--light);"/>
	</g>
</g>
</svg>
