<?xml version="1.0" encoding="utf-8"?>
<!-- Generator: Adobe Illustrator 23.0.2, SVG Export Plug-In . SVG Version: 6.00 Build 0)  -->
<svg version="1.1" id="Capa_1" xmlns="http://www.w3.org/2000/svg" xmlns:xlink="http://www.w3.org/1999/xlink" x="0px" y="0px" viewBox="0 0 800 672.3" style="enable-background:new 0 0 800 672.3;" xml:space="preserve">

<g>
	<path d="M710.9,508.3C685,467.8,658.3,428,630.6,389c-0.2-0.9-0.4-1.9-0.9-2.4c3.2-60.8,5.4-121.4,6.3-182.2
		c0.2-7.6-11.7-8.4-11.9-0.6c-0.9,60.8-3.2,121.6-6.3,182.4c-0.7,0.6-1.5,1.3-2.2,2.6c-21.9,45.5-47.2,89.6-75.8,131.4
		c-4.3,6.3,5.8,12.8,9.9,6.5c11.3-16.4,21.7-33.1,32-50.2c8.4,2.8,16.2,6.1,23.8,10c2.4,1.3,5,3,7.2,4.5c-0.9,12.5-2,24.9-3,37.4
		c-0.6,6.5,10.2,8.7,11.5,2.2c0.2-1.1,0.4-2.6,0.7-3.7c0.2-0.9,0.2-1.9,0-2.6c0.7-9.7,1.5-19.1,2.4-28.8c0.4,0,0.9,0,1.3,0
		c7.2-0.7,13.9-6.5,20.3-9.7c9.1-4.5,18.6-8.2,28.4-10.6l0,0c8.7,13,17.1,26.2,25.7,39.4C704.4,520.2,714.8,514.7,710.9,508.3z
		 M605.1,473c-5.8-2.8-11.5-5.2-17.1-7.1c10.4-18.2,20.4-36.4,29.9-55.2c-0.9,22.5-2.4,45-3.9,67.3
		C610.9,476.2,607.9,474.1,605.1,473z M651.6,469.9c-7.6,3.2-14.7,8.4-22.3,11.3c-1.3,0.6-2.6,0.7-3.9,0.7
		c1.9-24.5,3.2-48.9,4.3-73.4c13,18.4,25.7,37.2,38.1,55.6C662.4,465.8,656.8,467.4,651.6,469.9z" style="fill:var(--illu-bg--light);"/>
	<path d="M722.6,5.1c-1.5,8.7-3,17.5-4.5,26.2c-1.3,7.4,10.4,7.8,11.9,0.6c1.5-8.7,3-17.5,4.5-26.2
		C735.6-1.7,723.7-2.5,722.6,5.1z" style="fill:var(--illu-yellow--main);"/>
	<path d="M759.8,7.2c-6.5,6.3-11.5,13.8-15.1,22.1c-3,7.1,8.4,10.6,11.3,3.7c2.8-6.3,6.7-12.3,11.7-16.9
		C773.1,10.7,765.2,2,759.8,7.2z" style="fill:var(--illu-yellow--main);"/>
	<path d="M791,44.9c-7.8,3.3-15.8,6.7-23.6,10c-7.1,3-1.5,13.4,5.6,10.4l23.6-10C803.5,52.3,797.9,41.9,791,44.9z" style="fill:var(--illu-yellow--main);"/>
	<path d="M736.9,182.5c1.3-42.4,2-85,2.2-127.3c0-3.2-3.3-5.8-6.3-5.6C665.9,53.8,599,53.5,532,47.7
		c-3-3.3-10.2-1.5-10.6,4.3c-2,37.4-4.1,74.5-6.1,112.1c-0.6,10.6-5.8,30.5,4.3,38.5c4.6,3.7,11,3.3,16.7,3.5
		c9.9,0.4,19.5,0.9,29.4,1.3c36.4,1.5,73.2,3.3,109.7,4.6c9.1,0.4,18.4,0.7,27.5,1.1c7.1,0.2,16.2,2,23.2-0.2
		C739.1,209.6,736.7,192.9,736.9,182.5z" style="fill:var(--illu-bg--main);"/>
	<path d="M719.4,152.5c-0.6-26.8-1.1-53.5-1.9-80.3c0-4.1-3.2-6.5-7.2-6.1c-54.7,5.8-109.9,4.1-164.1-4.1
		c-3.3-0.6-5.4,1.5-5.8,4.1c-1.5,0.7-2.8,2.4-3,4.5c-3.3,35.5-4.3,71.2-3,106.9c0.2,3.5,2.2,5.6,5.8,6.1
		c51.7,8.9,104.3,11.9,156.5,8.6c7.2-0.4,18.8,0.9,22.3-7.2C722.6,176.3,719.6,162.2,719.4,152.5z" style="fill:var(--illu-white--light);"/>
</g>
<g>
	<path d="M399.3,91.2c-6.3,2.4-12.1,6.7-18.2,9.7c-7.2,3.5-15.1,6.7-22.9,9.1c-15.2,4.6-30.9,7.6-46.8,8.7
		c-34.9,2-70.1-5.6-100.6-22.5c-0.7-0.4-1.3-0.6-2.2-0.7c0-0.6-0.2-1.3-0.6-2l0,0c0-0.2,0-0.2,0-0.4c0-0.2-0.2-0.6-0.2-0.7
		c0-0.2,0-0.6,0-0.7c0-0.2,0-0.2,0-0.4c2.8-0.7,5.4-2.2,7.6-3.9c10.6-7.6,12.8-20.6,12.8-32.9C228.1,36,215.7-1,191.1,16.8
		c-15.1,11-21.2,29.7-19.3,47.8c0,2.8,0.6,5.6,1.3,8.2c0.6,2.6,1.3,5.2,2.2,7.4c0.4,0.7,0.7,1.3,1.1,2c1.5,3.5,3.9,6.3,7.2,8.2v1.1
		c-0.6,0.4-1.1,0.9-1.5,1.5c-8.4,13-21.9,19.9-36.2,24.7c-16.4,5.2-33.8,8.7-50.6,11c-19.7,2.8-37.2,0.6-56.3-3.5
		c-13.2-2.8-25.7-3.7-37,4.6c-2.6,2-2.4,6.1-0.4,8.4c17.1,19.1,44.1,27.7,68.2,33.1c23.8,5.6,48,7.4,72.5,6.1
		c-8.2,65.2-18,130.5-29.7,195.2c-6.1,32.9-12.6,65.8-19.5,98.5c-3.5,16.4-6.9,32.7-10.8,48.9c-2,7.8-4.5,13.6-10.8,18.8
		c-5,4.1-9.7,7.8-13.6,13c-2.2,2.8-0.6,8.2,3.2,8.9c12.3,2.4,24.7,2.6,36.6-1.1c9.7-3,13.6-8.2,16.7-17.8
		c8.7-27.9,16.7-55.8,25.3-83.8c14.7-48.3,29.2-96.7,43.9-145c8.6,48.5,10.2,98,12.8,147c1.3,27.3,3.2,54.5,6.1,81.4
		c0.9,7.8-0.2,21.2,9.3,24.2c5.8,1.9,13.2,0.2,19.3,0c7.8-0.2,15.8-0.4,23.6-0.6c4.5-0.2,7.6-4.3,5.6-8.7c-2.2-4.3-5.2-6.5-9.5-8.7
		c-3.9-2-5.9-2.2-7.6-6.1c-2-4.1-1.1-9.9-1.3-14.5c-0.6-16.9-0.7-33.8-0.9-50.7c-0.4-35.7,0-71.4,0.4-107.1
		c0.6-67.9,0.7-135.7-3.7-203.6c50.6,5.9,102.6-4.6,146.5-31.4c10.4-6.5,24.2-13.9,28.8-26C416.4,98.3,411,86.7,399.3,91.2z" style="fill:var(--illu-brown--light);"/>
	<path d="M248,515.4c0.4-12.3,0.4-24.7,0.6-37.2c0.2-22.7,0-45.4-0.4-68.2c-0.4-22.7-1.1-45.4-2-68
		c-0.4-11-0.9-22.1-1.5-33.1c-0.6-10.6,0.2-22.9-2.2-33.3c-2-8.7-10.6-10.6-18.2-12.5c-11.5-2.6-23.1-3.7-34.8-3.7
		c-11,0-22.3,0.9-33.3,2.2c-7.8,0.7-20.3,0-26.2,6.1c-1.9,0.7-3.2,2.4-3.5,4.6c-13.8,83.7-28.6,167.1-44.1,250.4
		c-0.6,3.2,0.4,6.5,3.7,7.4c9.9,3,19.9,4.5,30.5,5.2c3.3,0.2,5.8-2.4,6.1-5.8c0.4-2.6,0.7-5.2,1.1-7.4
		c13.8-59.3,31.8-117.5,54.3-173.8c4.3,38.5,8.7,77.1,13,115.6c1.1,11,2.6,21.9,3.7,32.9c1.1,10.2,0.4,23.4,3.9,33.3
		c2.2,6.5,7.6,7.8,13.9,6.9c8.6-1.3,19.7-2.6,27.7-6.3C246.7,527.9,247.8,521.7,248,515.4z" style="fill:var(--illu-blue--main);"/>
	<path d="M118.4,525.6c-8.4-1.5-16.7-3.3-25.1-5c-2-2.6-5.6-3.5-8.4-0.6c-6.9,7.2-13.8,13.9-21.7,19.9
		c-4.5,3.3-11.9,7.2-11.9,13.8c0,2,0.7,4.1,2.8,5.4c12.3,7.2,32.2,3.2,45.4,0.6c5.4-0.9,12.6-1.1,16.4-5.8
		c4.6-5.4,5.4-15.8,6.3-22.5C122.7,529.5,120.7,526.2,118.4,525.6z" style="fill:var(--illu-yellow--main);"/>
	<path d="M269.4,553.7c-3.7-5-9.1-7.2-13.4-11.5c-5-4.6-7.8-10.6-9.5-17.1c-0.7-3-3.9-5.4-7.1-4.5
		c-10.6,3.2-21.2,4.3-32.2,3.7c-3-0.2-5,1.5-5.6,3.7c-1.9,1.1-3,3.2-2.6,5.9c1.3,7.6,1.1,19.3,5.2,26.4c3,5.4,7.6,5.4,13.2,5.4
		c9.1,0.2,18.4,0,27.5-0.2c8.2,0,15.4,0.2,22.9-2.8C271.6,561.5,271.4,556.5,269.4,553.7z" style="fill:var(--illu-yellow--main);"/>
	<path d="M232,42.5c-1.9-8.6-4.6-18.2-10.2-25.3c-9.1-11.5-23.6-13.2-34.9-4.1c-13.6,11-19.7,29.9-19,47.2
		c0.2,4.6,4.3,7.1,8.7,5.6c0.7-0.4,1.9-0.7,2.6-0.9c0,0,0,0,0.2,0c1.1-0.4,2.4-0.7,3.5-1.1c0.2,2.8,2,5.4,5.4,5.4
		c5.9,0.2,7.4-6.7,4.5-10c4.3-2.6,8.4-5.6,11.9-8.9c0.2-0.2,0.4-0.4,0.7-0.6c2.4,3.5,5.6,7.2,8.7,10.6c-5.8,1.5-5.8,11.3,1.3,11.7
		c4.1,0.2,6.1-3.2,5.9-6.3c3.5,1.5,6.9,1.3,9.9-1.9C235.5,58.5,233.3,48.3,232,42.5z" style="fill:var(--illu-bg--light);"/>
	<path d="M207.1,73.2c-4.1,1.1-8.2,1.5-12.5,0.9c-3.2-0.4-6.1,2.6-6.1,5.8c-0.2,3.3,2.4,5.9,5.8,6.1
		c5.4,0.6,10.6,0.2,15.6-1.3C217,82.6,214.4,71.1,207.1,73.2z" style="fill:var(--illu-bg--light);"/>
	<path d="M90.9,529.5c-0.2-0.2-0.2-0.2-0.2-0.2l0,0c-0.2-0.2-0.6-0.6-0.7-0.7c-0.6-0.6-1.3-1.3-2-2
		c-0.6-0.6-0.9-1.1-1.5-1.9c0,0,0-0.2-0.2-0.2c-0.2-0.4-0.6-0.9-0.7-1.3c-1.5-2.8-5.2-4.1-7.8-2.6c-2.6,1.5-4.1,5.2-2.6,7.8
		c2.6,4.3,5.8,7.6,9.5,10.8c2.4,2,6.7,0.7,8.4-1.9C94.5,534.7,93.5,531.6,90.9,529.5z" style="fill:var(--illu-bg--light);"/>
	<path d="M80.9,539.2c-2.6-2.8-5.2-5.4-8.2-7.6c-2.4-2-6.7-0.7-8.4,1.9c-1.9,3-0.7,6.1,1.9,8.4l0.2,0.2
		c0.2,0.2,0.4,0.4,0.7,0.6c0.6,0.6,1.1,1.1,1.9,1.5c1.1,0.9,2.2,2.2,3.2,3.3c2,2.4,6.1,2.6,8.4,0.4
		C82.9,545.3,83.1,541.6,80.9,539.2z" style="fill:var(--illu-bg--light);"/>
	<path d="M251.5,523.2c-2.4-2.4-5.8-2.6-8.4-0.4l-8.9,7.1c-2.4,2-2.6,6.1-0.4,8.4c2.4,2.4,5.8,2.6,8.4,0.4
		c3-2.4,5.9-4.6,8.9-7.1C253.4,529.5,253.6,525.3,251.5,523.2z" style="fill:var(--illu-bg--light);"/>
	<path d="M258.2,534.2c-2.2-2.4-5.9-2.4-8.4-0.4c-3,2.6-5.2,3.9-8.6,5.9c-2.8,1.5-3.9,5.2-2.6,7.8
		c1.3,2.6,5.2,4.1,7.8,2.6c3.9-2.2,7.6-4.6,11-7.6C260.1,540.5,260.3,536.6,258.2,534.2z" style="fill:var(--illu-bg--light);"/>
	<path d="M396.7,124.5l-9.5-23.6c-0.4-0.9-1.3-1.9-2.4-2.4c-1.9-0.9-4.3-1.1-5.9-0.2c-0.2,0.2-0.4,0.2-0.6,0.4
		c-25.8,8.6-52.2,16.9-79.7,18c-27.7,0.9-55.4-5.2-80.1-17.5c-0.6-0.4-1.1-0.7-1.5-1.3c-3.5-3.2-8.2-1.1-9.9,1.9
		c-10.2,3.5-21.2,2.2-30.7-3.9c-2-1.3-5.6-1.3-7.2,0.6c-16,18.2-37.2,21-60,21.9c-24.4,1.1-48.3,2.2-72.7,3.3
		c-2.6,0.2-5.2,1.3-5.9,4.1c-3,9.7-5.8,19.3-8.7,29c-0.9,3,0.6,6.5,3.7,7.4c35.9,10.2,72.5,18,109.3,23.2
		c-6.5,29.9-12.3,60-17.1,90.3c-0.4,2.6,1.9,5.2,4.1,5.9c17.8,5.6,37.7,1.5,56.1,1.1c20.1-0.4,40.3,0.2,60.4,1.5
		c3,0.2,6.5-2.6,6.1-5.8c-2.6-34.9-2.2-69.9,0.7-104.8c25.8,3,51.3-2.6,75.7-11.5c6.7-2.4,13.4-5,19.9-7.4
		c18.8-4.6,37-11.3,53.4-22.1C396.9,130.6,397.8,127.6,396.7,124.5z" style="fill:var(--illu-red--light);"/>
	<path d="M134.4,163.5c-1.9,10.4-3.3,21-5.2,31.2c-1.1,7.4,10.6,8.2,11.9,0.6c1.9-10.4,3.3-21,5.2-31.2
		C147.4,156.6,135.5,156.1,134.4,163.5z" style="fill:var(--illu-bg--light);"/>
	<path d="M255.6,182.1c-2.2-8.9-4.3-17.8-6.5-26.6c-1.9-7.2-13.4-4.6-11.7,2.6c2.2,8.9,4.3,17.8,6.5,26.6
		C245.8,192.1,257.3,189.5,255.6,182.1z" style="fill:var(--illu-bg--light);"/>
	<path d="M181.3,307.6c-0.9,15.6-4.3,30.7-10.2,45c-2.8,7.1,8.6,10.6,11.3,3.7c6.1-15.6,9.7-31.6,10.8-48.1
		C193.5,300.5,181.8,300,181.3,307.6z" style="fill:var(--illu-bg--light);"/>
	<path d="M147.1,287.7c-2.2,11.7-11.5,21.2-22.7,24.2c-7.2,2-4.6,13.4,2.6,11.7c16.9-4.5,28.8-18,32-35.1
		C160.3,280.8,148.4,280.4,147.1,287.7z" style="fill:var(--illu-bg--light);"/>
	<path d="M243.4,307.9c-11.5-3.2-20.4-11.7-23.6-23.1c-2-7.2-13.6-4.6-11.7,2.6c4.3,15.4,16,27.5,31.6,31.8
		C247.1,321.3,250.6,310,243.4,307.9z" style="fill:var(--illu-bg--light);"/>
</g>
<g>
	<path d="M367.2,244.6c-0.7-9.1-0.9-21.7-11.9-24.2c-4.1-0.9-8.6-1.3-13-1.5c-2.8-4.6-5.4-10.2-8.9-13.9
		c-3.7-4.1-8.7-3-13.6-2.2c-5.2,0.7-12.6,0.7-16.9,4.1c-3.2,2.4-4.6,6.9-5.9,10.8c-7.1,0-13.9,0.7-20.6,3.9
		c-0.6,0.2-0.9,0.6-1.3,0.7c-2.2,0.6-4.1,2.2-4.5,5.2c-1.1,13.8-0.9,28.3,2,41.8c2,9.3,6.7,15.8,16.7,16.7c14.5,1.5,29.9,0,44.4-0.7
		c9.5-0.4,24.2,1.1,30.1-7.8C369.4,268.9,368.1,254.2,367.2,244.6z" style="fill:var(--illu-blue--light);"/>
	<path d="M402.5,507.2c-10.2-25.3-19.3-50.9-27.7-77c-7.8-24.7-15.1-49.8-21.9-74.7c-3.3-12.5-6.7-25.1-10-37.7
		c-1.5-5.9-2.4-15.8-5.8-22.5c4.6,0,9.5,0,14.5,0.2c7.4,0.4,8.6-11.5,0.9-11.9c-21.9-0.7-43.9,0-65.8,2.8
		c-7.4,0.9-5.4,12.6,2.4,11.7c2.2-0.2,4.3-0.6,6.5-0.7c-27.7,90.3-72.1,175.7-111.5,261.4c-2.2,4.5,2.8,8.4,6.7,7.8
		c19.5-2,25.8-29.9,32-44.6c5-11.5,9.9-22.9,14.9-34.6c4.3-8.6,8.6-17.1,12.6-25.7c0.6,0.2,1.1,0.2,2,0.2c13-1.3,26-1.5,39-0.9
		c-0.4,33.8,0.7,67.5,3.7,101.1c0.4,4.6,6.5,5.8,9.7,3.3c13-10,15.6-26.6,16.5-42c1.1-19.7,2-39.4,2.6-59.3
		c12.1,1.3,23.8,2.4,35.9,2.4c6.9,19.3,14.1,38.5,21.9,57.4c4.6,11.9,9.9,23.4,15.1,35.1c3.7,8.6,7.8,17.8,18.4,18.2
		c3.3,0.2,5.9-2.2,6.3-5.6C424.4,549.1,410.7,527.3,402.5,507.2z M255.6,449.8c14.9-31.2,28.8-62.8,42-94.8
		c-3.7,31.2-5.9,62.6-6.5,94.1C279.2,448.5,267.5,448.7,255.6,449.8z M323.8,452c0.7-34.6,0.7-69.2,0-103.4
		c8.6,33.8,18.4,67.1,29.6,100c0.6,2,1.3,3.9,2.2,5.9C344.9,454.6,334.3,453.5,323.8,452z" style="fill:var(--illu-bg--main);"/>
	<path d="M322.9,210.2c-3.5,0-6.9,0.6-10.4,0.2c-3.2-0.4-6.1,2.6-6.1,5.8c-0.2,3.3,2.4,5.8,5.8,6.1
		c2.6,0.4,5.2,0,7.8-0.2c2.6-0.2,5.2,0.6,7.4-0.7C333.5,217.4,329.1,207.9,322.9,210.2z" style="fill:var(--illu-white--light);"/>
	<path d="M335.9,296.2c-13,0.4-26.2,1.3-39.2,2.8c-7.4,0.7-5,12.5,2.6,11.7c2.4-0.2,5-0.4,7.2-0.7
		c-4.5,15.1-9.5,30.1-16.4,44.2c-3.3,6.7,6.5,13.2,9.9,6.5c5-9.9,8.9-20.1,12.5-30.7c1.9,7.8,3.5,16,5.2,24.2c1.3,7.4,13,5,11.7-2.6
		c-2.8-14.1-6.1-28.4-9.7-42.6c5.2-0.4,10.4-0.6,15.6-0.7C343,307.8,343.6,296.1,335.9,296.2z" style="fill:var(--illu-bg--light);"/>
	<path d="M345.8,252.2c-0.4-11.3-9.3-19.1-19.7-20.1c-12.5-3.3-27.7,6.5-29,19.5c-1.3,13.8,10.6,24.4,23.8,24.2
		C333.9,275.4,346.3,266.1,345.8,252.2z" style="fill:var(--illu-bg--light);"/>
	<path d="M287.4,226.2c-7.6-0.4-8.2,11.5-0.6,11.9S295,226.5,287.4,226.2z" style="fill:var(--illu-red--light);"/>
</g>
<g>
	<g>
		<path d="M490.4,626.9c-3.2-6.5-9.7-6.1-16-5c-11.3,2-22.1,5-33.5,5.6c-9.1,0.6-38.5,2.2-34.9,17.5l0,0
			c0,0.4,0,0.6,0,0.9c0.2,14.1,8.2,19.9,22.1,18.6c6.9-0.6,14.9-3,20.3-7.2c5.8,4.5,14.9,5.9,22.7,3.5c7.2-2.2,15.6-5.6,19-12.8
			C492.6,642.4,493.2,632.7,490.4,626.9z" style="fill:var(--illu-bg--main);"/>
		<path d="M473.7,552.2c0.2-3-2.4-6.3-5.8-6.1c-17.3,0.4-34.9,0.7-52.2,1.1c-4.1,0-6.1,3.2-5.9,6.3
			c-0.4,0.7-0.7,1.9-0.6,3.2c1.9,29.4,3.5,58.6,5.2,88.1c0.2,3.2,2.2,5.9,5.8,6.1c7.2,0.4,21.9,2.2,28.4-3.7
			c6.9,0.7,13.4,0.7,20.4-0.2c2.4-0.4,4.6-3.2,4.5-5.6C472.4,611.5,472.6,581.8,473.7,552.2z" style="fill:var(--illu-red--light);"/>
		<path d="M488.9,475.3c-2.2-4.5-4.5-7.6-8.9-8.4c-5.4-0.7-11-0.2-16.4-0.2c-12.1-0.2-24.4-0.2-36.2-0.4
			c-0.2,0-0.2,0-0.4,0c-0.7-2.8-23.2-13.9-25.1-10.2c-6.1,12.8-4.1,19.3-5.2,44.2c-0.4,10.6-0.9,25.1,2,34.9
			c6.5,22.5,27.7,19.5,42.9,18.6c9.7-0.6,19.7-0.4,29.6-2.4c7.2-1.5,15.1-5.6,20.3-13.8C502.7,519.9,496,490.3,488.9,475.3z" style="fill:var(--illu-red--light);"/>
		<path d="M511.2,417.8c-4.5-22.7-11.3-50.2-36.2-57.8c-0.2,0-0.2,0-0.4,0c-11-8.2-25.1-13.2-37.9-15.8
			c-12.8-2.6-28.1,0.7-34.6,12.8c-3.7,3-6.9,6.5-9.1,10.8c-0.4,0.4-0.6,0.7-0.7,1.1c-10.2,24.2-15.8,50.9-14.5,77.1
			c0.6,12.1,6.1,27,16.4,33.3c0.7,3.7,1.5,7.6,2.6,11.5c4.3,15.8,18,18,32,18.6c16.7,0.6,34.4-1.9,50.2-8.2
			c12.6-5,14.9-16.4,16.2-28.6c6.1-4.1,11-9.9,14.1-16.7C515.1,444,513.8,430.6,511.2,417.8z" style="fill:var(--illu-yellow--main);"/>
		<path d="M477,280.6c-4.3-10.2-11.9-20.4-23.4-22.7c-12.1-2.2-23.6,3.9-31.8,12.5c-9.3,10-13.6,23.2-15.8,36.6
			c-2.8,18.2-2.6,37.2-3.5,55.4c0,0.7,0.2,1.5,0.4,2.2c-1.1,6.7,0,13.8,4.3,19.7c6.7,9.3,18.2,10.8,28.8,11.7
			c10.8,0.9,22.9,0.9,32.3-5.4c9.7-6.7,12.5-18.2,13.6-29.2C485.4,334.9,487.8,306.1,477,280.6z" style="fill:var(--illu-bg--light);"/>
		<path d="M499.9,403.9c0.6-7.6-11.3-8.2-11.9-0.6c-1.5,23.2,4.3,46.3,1.5,69.5c-0.9,7.4,10.8,8.2,11.9,0.6
			C504.3,450.2,498.4,427.1,499.9,403.9z" style="fill:var(--illu-bg--light);"/>
		<path d="M401.6,449l1.9-39.6c0.4-7.6-11.5-8.2-11.9-0.6l-1.9,39.6c-0.2,5.6-0.2,11.3-0.9,16.9
			c-0.6,5.6-2.6,10.6-2.4,16.4c0.2,7.4,12.1,8.2,11.9,0.6c-0.2-5.2,1.5-9.9,2.2-14.9C401.4,461.3,401.4,455.2,401.6,449z" style="fill:var(--illu-bg--light);"/>
		<path d="M502.5,537.9c-7.1-2.2-15.4-0.6-22.7-0.4c-8.7,0.4-17.1,0.7-25.8,1.1c-8.6,0.4-16.7,0.7-25.3,0.9
			c-0.6-0.4-1.3-0.7-2.4-0.7c-12.8-0.4-26-0.4-38.7,1.1c-9.5,1.1-12.8,7.2-13.8,16.4c0,0.9,0,1.9,0.4,2.4
			c-0.6,10.8,9.1,13.9,18.4,12.8c-0.2,23.2-0.4,46.3-0.6,69.7c0,7.6-2.8,20.1,3.5,26.2c5.4,5.2,13.8,4.1,20.3,2.6
			c1.9-0.4,3.7-2.2,3.7-4.3c-1.9-33.5-2.8-67.1-3-100.6c14.5-0.6,28.8,0.2,42.9,2.6c3.5,0.6,10.2,0.6,12.5,3.9c1.3,2.2,0,9.5,0,12.1
			c0,8.2-0.2,16-0.2,24.2c-0.2,16-0.2,32.2-0.4,48.1c0,5-0.9,9.1,3.9,11.7c3.9,2.2,8.9,1.3,12.6-0.9c10.4-6.7,7.6-23.8,7.8-34.4
			l1.1-48.9l0.2-12.3c0-2.6-0.7-7.1,0.9-9.1c2.4-2.8,8.7-0.6,12.1-4.5C516.2,550.2,510.3,540.3,502.5,537.9z" style="fill:var(--illu-blue--main);"/>
	</g>
	<path d="M452.3,654.6c-1.9-27.9-2.6-55.8-2.6-83.7c0-7.4-11.9-8.4-11.9-0.6c0,28.1,0.7,55.8,2.6,83.7
		C441,661.7,452.7,662.3,452.3,654.6z" style="fill:var(--illu-bg--light);"/>
	<path d="M415.3,561.7c-7.1-0.9-14.5-0.6-21.6,1.3c-7.2,2.2-4.6,13.6,2.6,11.7c6.1-1.9,12.1-2.2,18.4-1.1
		c3.2,0.4,6.1-2.8,6.1-5.8C421.1,564.5,418.5,562.2,415.3,561.7z" style="fill:var(--illu-bg--light);"/>
	<path d="M492.5,556.9c-5.2,0.4-10,0.7-15.2,1.3c-3.2,0.2-6.1,2.2-6.1,5.8c-0.2,3,2.4,6.5,5.8,6.1
		c5.2-0.4,10-0.7,15.2-1.3c3.2-0.2,6.1-2.2,6.1-5.8C498.2,560.2,495.6,556.7,492.5,556.9z" style="fill:var(--illu-bg--light);"/>
</g>
</svg>
