<?xml version="1.0" encoding="utf-8"?>
<!-- Generator: Adobe Illustrator 23.0.2, SVG Export Plug-In . SVG Version: 6.00 Build 0)  -->
<svg version="1.1" id="Capa_1" xmlns="http://www.w3.org/2000/svg" xmlns:xlink="http://www.w3.org/1999/xlink" x="0px" y="0px" viewBox="0 0 800 383.3" style="enable-background:new 0 0 800 383.3;" xml:space="preserve">

<g>
	<path d="M799.9,343.3c-0.3-11.9-0.9-23.9-1.8-35.8c0-0.5-0.1-1-0.4-1.4c-4-74.8-9.6-149.6-16.9-224.2
		c-2.6-26-5.4-52.1-8.3-78.1c-0.3-2-1.5-3.8-3.8-3.8C669.9,1.1,571,2.2,472.2,3.3S274.4,5.5,175.6,6.6L7.5,8.6
		C4.5,8.6,0,11.6,0,17.5C0,106.4,1.9,195.2,3.8,284c0.5,25.4,1.1,50.8,1.7,76.1c0,0.8,0.3,1.5,0.6,2.2c1.8,5.6,7.8,9.6,13.9,10.7
		c12.8,2.2,26.7,1,39.6,1.4c29.2,0.6,58.3,1.4,87.6,2c58.2,1.4,116.6,2.9,174.8,4.1c57.7,1.1,115.3,1.7,173,0.1
		c12.3-0.3,24.5-0.8,36.8-1.4c20.2,1.3,40.5,2.6,60.6,3.3c61.4,2.4,122.8-1.1,184-4.9c5.4-0.4,13.3,0.5,18.3-2.6
		c5-3.1,5-8.9,5.1-14.2c0-1,0-2,0-3.1C800.2,351.4,799.9,349.6,799.9,343.3z" style="fill:#56597A;"/>
	<g>
		<path d="M273.6,166.4c-0.3-16.5-0.9-32.9-1.7-49.4c-0.5-8.8-1-17.5-1.7-26.3c-0.4-5.9,0.1-13.4-2.2-19
			c-4.5-11-22.5-5.9-31.4-5.2c-17.1,1.3-104.2,1.3-121.6,0c-8.9-0.6-26.9-5.7-31.4,5.2c-2.3,5.5-1.7,13-2.2,19
			c-0.6,8.8-1.1,17.5-1.7,26.3c-0.9,16.5-1.4,32.9-1.7,49.4s-0.3,32.9,0,49.4c0.1,8.8,0.4,17.6,0.8,26.3c0.1,4.6-0.4,10.7,2,14.9
			c2.9,5.4,8.6,6.1,14.2,7c7,1,14.2,1.8,21.2,2.6c17.7,1.8,35.5,2.7,53.4,2.8c0.4,0,9.3,0,9.6,0s2.7,0,2.9,0
			c17.7-0.1,35.6-1,53.4-2.8c7.2-0.8,14.2-1.5,21.2-2.6c5.6-0.8,11.2-1.7,14.2-7c2.3-4.2,1.8-10.3,2-14.9c0.3-8.8,0.5-17.6,0.8-26.3
			C273.9,199.3,273.9,182.8,273.6,166.4z M115.6,158.5c0.9,0.5,0.3-4.6,0.3-5.9c0.1-7,0.4-14.2,0.6-21.2c0.3-7,0.6-14.2,1.1-21.2
			c0-0.8-0.5-8.6-0.3-8.8c1-1.1,11.1-0.3,12.9-0.3c9.3-0.3,24.6-0.4,37.8-0.5c-0.6,20.6-0.9,41.1-0.5,61.8
			c-18-0.1-34.7-0.8-41.1-1.9C124.4,160,117.3,159.9,115.6,158.5z M149.8,240.7c-5.4-0.9-10.7-1.9-16-2.9c-1.7-0.4-8.4-0.8-9.6-2.2
			c-1.4-1.7-0.8-5.9-0.9-7.7c-0.1-5.5-0.3-11.1-0.3-16.6c0-3.3,0-6.6,0.1-10c0-2.3,1-6.4,0.3-8.3c0.6,0,1.1,0,1.8,0
			c2.8,0.5,6.8,0,9.6,0c11.2,0,22.3,0,33.6,0c0.6,16,1.7,31.9,2.9,47.8c0,0.1,0,0.3,0.1,0.4C161,241.1,151.6,240.9,149.8,240.7z
			 M227.7,235.6c-1.1,1.4-7.9,1.8-9.6,2.2c-5.4,1.1-10.6,2-16,2.9c-1.3,0.3-7.4,0.4-15.1,0.4c-0.8-16.1-1.4-32-2.3-48.1
			c10.7,0,21.6,0,32.3,0c2.8,0,6.9,0.5,9.6,0c0.6,0,1.1,0,1.8,0c-0.9,1.9,0.1,6,0.3,8.3c0,3.3,2.4,7.7,2.4,11
			c0,5.5-2.3,10.1-2.6,15.7C228.4,229.7,229.1,233.9,227.7,235.6z M225.6,160.4c-6.3,1.1-22.1,1.8-39.5,1.9
			c-0.3-20.7-0.6-41.4-1-62.1h0.1c12.3,0.3,24.4,0.5,36.6,0.8c1.8,0,11.9-0.9,12.9,0.3c0.1,0.3-0.4,8-0.3,8.8
			c0.4,7,0.8,14.2,1.1,21.2c0.3,7,0.5,14.2,0.6,21.2c0,1.1-0.6,6.4,0.3,5.9C234.5,159.9,227.5,160,225.6,160.4z" style="fill:#FFFFFF;"/>
		<path d="M308.9,40.2c-2.3-2.7-7.7-2.3-8.9,1.9c-0.8,2.8-1.3,5.6-1.3,8.3c-39.2-2.2-106.5-7-120.3-5.9
			c-38.4,2-87.7,3.8-125.1,5.9c0-2.7-0.5-5.5-1.3-8.3c-1.1-4.1-6.6-4.6-8.9-1.9c-2.8-0.3-5.7,1.5-5.7,4.9c0.3,6.8,0.5,13.4,0.6,20.2
			c0.1,5.4,6.5,6.5,9.4,2.6c1.7-2.3,2.9-4.7,4-7.2c39.7-2.3,86.7-4.1,126.4-6.3c0.4,0,7.8,0.1,8.2,0c38.6,2.2,75.8,4.1,114.4,6.3
			c0.9,2.4,2.3,4.9,4,7.2c2.9,4,9.2,2.8,9.4-2.6c0.3-6.8,0.5-13.4,0.6-20.2C314.6,41.8,311.7,40,308.9,40.2z" style="fill:#57455E;"/>
		<g>
			<path d="M319.6,286.9c-11.9-80.4-18.5-159.9-30.4-240.3c-0.4-2.3-2.8-3.4-4.9-3.7c-22.9-2.4-45.7-1.9-68.6,1.3
				c-2.6,0.4-3.7,2.2-3.7,4.2c-0.3,0.6-0.5,1.4-0.5,2.3c1.1,90.3,27.7,152.7,23.2,269.4c-0.3,5.5,8.3,7.2,10,1.4
				c2.6-8.9,2.3-14.4,11.7-13.9c9.2,0.4,15.1,8.8,23.7,10.9c6.9,1.7,13.3-1.4,17.6-6.6c4-4.7,11.1-24.1,19.4-17.9
				C321.4,296.7,320.1,290.6,319.6,286.9z" style="fill:#F087B1;"/>
		</g>
		<path d="M34.6,293.7c8.3-6.3,15.4,13.2,19.4,17.9c4.5,5.2,10.7,8.3,17.6,6.6c8.7-2,14.7-10.3,23.7-10.9
			c9.4-0.5,18.1,5.9,20.7,14.8c1.7,5.7,9.4,4.1,10-1.4c8.3-89.9,13-180,14.2-270.3c0-0.9-0.1-1.7-0.5-2.3c0-2-1-3.8-3.7-4.2
			c-22.9-3.2-45.6-3.7-68.6-1.3c-2,0.3-4.6,1.4-4.9,3.7c-11.9,80.4-23.7,160.9-35.6,241.3C26.6,291.7,30.5,296.7,34.6,293.7z" style="fill:#F087B1;"/>
		<path d="M147.5,108.1c-5,0-5,7.7,0,7.7C152.5,115.8,152.5,108.1,147.5,108.1z" style="fill:#F7D16F;"/>
		<path d="M155.9,137c-2,0.1-3.8,1.7-3.8,3.8v0.4c0,2,1.8,4,3.8,3.8c2-0.1,3.8-1.7,3.8-3.8v-0.4
			C159.7,138.9,158.1,137,155.9,137z" style="fill:#F7D16F;"/>
		<path d="M147.5,206.2c-2,0.1-3.8,1.7-3.8,3.8v0.4c0,2,1.8,4,3.8,3.8s3.8-1.7,3.8-3.8V210
			C151.3,208,149.5,206.1,147.5,206.2z" style="fill:#F7D16F;"/>
		<path d="M192.7,125.3c-5,0-5,7.7,0,7.7S197.6,125.3,192.7,125.3z" style="fill:#F7D16F;"/>
		<path d="M299.9,290.6c-11.7-57.2-21.5-114.8-29-172.8c-0.6-4.9-8.3-4.9-7.7,0c7.7,58.6,17.5,116.8,29.2,174.8
			C293.5,297.5,300.8,295.5,299.9,290.6z" style="fill:#57455E;"/>
		<path d="M100,135.2C89.6,194.6,79.2,254,68.8,313.3c-0.9,4.9,6.5,6.9,7.4,2C86.6,256,97,196.6,107.4,137.3
			C108.1,132.4,100.7,130.4,100,135.2z" style="fill:#57455E;"/>
		<path d="M65.5,143.4c-10.2,49-21.8,97.8-34.7,146.3c-1.3,4.7,6.1,6.8,7.4,2c12.9-48.4,24.5-97.2,34.7-146.3
			C73.9,140.6,66.5,138.5,65.5,143.4z" style="fill:#57455E;"/>
	</g>
	<g>
		<path d="M585.9,329c-2.9-15.4-10.7-29.9-22.5-40.7c2.9-2.6,6-4.6,9.3-6.5c3.7-2,1.5-6.6-1.9-7.2
			c-30-3.8-60.1-6-90.4-6.4c-14.7-0.3-29.4,0-44,0.6c-10.2,0.4-24.5-1.1-31.9,7.5c-1,1.1-1.7,3.2-0.6,4.6c3.4,4.7,7.5,8.4,12.1,11.4
			c-16.3,9.2-28.2,25-31.9,43.7c-0.9,0.4-1.7,1.1-1.8,2.6c-1.5,9.8-2.8,19.7-3.3,29.6c-0.4,6.6,0.5,12.8,8,14.3
			c4.6,0.9,10,0.3,14.7,0.1c5.1-0.1,10.2-0.1,15.3-0.3c11.5-0.1,22.9-0.3,34.3-0.5c44.6-0.6,89.1-1.1,133.7-1.8
			c1.5,0,3.4-1.1,3.7-2.8C591.7,361,590.8,344.5,585.9,329z" style="fill:#B6C8E8;"/>
		<path d="M394.5,333.2c-4,0.9-7.8,1.1-11.7,0.4c-1.8-0.4-3.4-0.8-5-1.4c-0.4-0.1-0.8-0.3-1-0.4c2.6-1.1,6.6-1.7,8-1.7
			c5-0.1,5-7.8,0-7.7c-4.9,0.1-23.1,5-16.5,13c2.7,3.2,8.7,4.9,12.5,5.6c5.4,1,10.6,0.9,15.8-0.4
			C401.4,339.6,399.4,332.2,394.5,333.2z" style="fill:#57455E;"/>
		<path d="M607.2,332.1c-2-7.5-13.2-8.6-19.4-7.9c-4.9,0.5-4.9,8.2,0,7.7c2.2-0.3,4.3-0.4,6.5,0
			c1.1,0.3,4.7,0.6,5.2,1.9c0,0.1,0.1,0.3,0.1,0.3c-0.1,0-0.3,0.1-0.5,0.4c-0.5,0.5-1.7,0.6-2.3,0.8c-2.3,0.6-4.7,1-7,1.3
			c-4.9,0.8-2.8,8.2,2,7.4C597.9,343.1,609.7,341.2,607.2,332.1z" style="fill:#57455E;"/>
		<path d="M510.2,284.2c-32.6,5.4-65.5,6.5-98.4,3.6c-4.9-0.4-4.9,7.3,0,7.7c33.6,3.1,67.2,1.7,100.5-3.8
			C517.1,290.7,515.1,283.5,510.2,284.2z" style="fill:#57455E;"/>
	</g>
	<g>
		<path d="M365.8,145.6c-13.2,17-26.3,34.1-39.5,51.1c-2.9,3.8,2.4,9.3,5.4,5.4c13.2-17,26.3-34.1,39.5-51.1
			C374.2,147.2,368.9,141.7,365.8,145.6z" style="fill:#F7D16F;"/>
		<g>
			<path d="M378.6,259.2c-0.8-5.5-5.5-9.6-10.9-6.4c-3.3,1.9-5.5,5.9-7.8,8.7c-3.3,4.1-6.8,8.2-11.1,11.2
				c-17.2,12.4-40.3,7.9-53.2-8.3c-0.8-0.9-1.7-1.3-2.6-1.3c1.9-1.7,3.8-3.4,5.7-5.1c16.9-15.2,32.3-34.2,32-58.1
				c0-3.2-3.2-4.5-5.7-3.3c-15.8,6.9-28.3,18.5-40.6,30.6c-0.3-0.8-0.6-1.4-0.9-1.9c-2.2-4.9-5.5-9.2-9.4-12.8
				c-7.4-6.6-16.9-10.3-26.7-10.3c0-0.1,0-0.1,0-0.3c-0.3-0.9-0.6-1.8-1.1-2.6c8.4-8.4,8.8-24,6.5-35c-2.7-12.8-18-24.9-29.5-13.4
				c-0.6,0.6-1,1.3-1.1,2c-7.4,7-10.6,20.4-10.2,29.5c0.4,10.1,6.8,19.4,15.6,22c0,0.4,0,0.8,0.1,1.1c0.3,1.1,0.6,2.4,0.9,3.6
				c0,0.1,0.1,0.3,0.1,0.5c-7.4,3.4-14.8,7.3-20.7,13c-6.8,6.6-10,15.2-11.4,24.4c-1.7,10.9-1.9,22-1.3,32.9
				c0.4,7.5-0.3,20.6,6.4,25.8c5.9,4.6,14.3,2.8,21.1,1c0,22.2,0.1,44.3,0.1,66.5c0,2.8,2.4,4.1,4.9,3.7l0,0c0.3,0,0.4,0.1,0.6,0.1
				c13.2,1,26.4,1.5,39.6,1.3c5.7-0.1,11.5-0.4,17.4-0.8c4.7-0.3,11.4,0.3,15.8-1.8c4-1.9,4.2-5.7,4.5-9.7
				c0.4-5.7,0.5-11.5,0.4-17.4c-0.1-7.3-0.6-14.4-1.4-21.6c-0.1-2.8-0.4-5.5-0.5-8.3c17.6,3.3,34.3-4.5,47.6-16
				C363.1,293.2,381,276.2,378.6,259.2z" style="fill:#C39A8A;"/>
			<path d="M239.9,203.6v0.1C239.9,203.8,239.9,203.8,239.9,203.6L239.9,203.6z" style="fill:#C39A8A;"/>
		</g>
		<path d="M364.8,284.9c-4.3-5.4-8.7-10.7-13-16.1c-1-1.3-3.3-1.4-4.6-0.6c-14.4,8.6-36.8,12.9-46.7-3.6
			c2.9-3.1,5.7-6.3,8.7-9.3c2.2-2.4,4.9-4.9,4.5-8.6c-0.4-4.3-4.9-8.3-7.3-11.5c-3.8-5.1-7.8-10.1-11.6-15.2
			c-1.1-1.5-3.3-2.7-5.2-1.4c-0.9,0.6-1.8,1.1-2.7,1.8c-3.6-8.9-11.9-15.7-21.5-17.9c-5.6-1.3-11.5-1-16.9,1.3
			c-3.6,1.5-6.4,4.1-10.2,4.5c-3.3,0.4-6.5-0.1-9.7,0c-0.6-0.1-1.3-0.3-1.9-0.1c-26.2,4.7-30.8,37.9-32.8,59.4
			c-1.1,11.7-4.2,27.1,4,37c4.5,5.4,11.9,8,18.4,6.3c0.6,21.3,1.4,42.6,2,64.1c0.1,2.2,1.7,3.6,3.8,3.8c13.2,1.3,26.4,2,39.6,2
			c12.1,0,24.9,0.3,36.9-1.7c10-1.7,10.9-7.9,10.6-17c-0.4-11.5-0.8-22.9-1.1-34.3c25.7,4.5,44.4-19,57.6-38.4
			C366.3,287.9,365.8,286.1,364.8,284.9z" style="fill:#74A3D7;"/>
		<path d="M249.1,146.4c-9.6-7.2-20.9-5.4-28.6,3.4c-7.8,8.9-12,20.4-12.3,32.2c-22.6,3.2-31.3,13.9-27.5,32.7
			c0.5,2.3,3.7,3.7,5.6,2.3c15.3-11.5,27.5-7.7,29.7-26.6c0.8,0.1,1.5,0,2.4-0.4c1.8-0.9,3.3-1.8,4.9-2.8c0,0.3,0,0.5,0,0.8
			c0.1,2,1.7,3.8,3.8,3.8h0.4c2,0,4-1.8,3.8-3.8c-0.1-2-1.7-3.8-3.8-3.8c4.6-4,8.4-8.7,11.2-14.2c6.3,6,15.8,12.6,21.7,4.6
			C267,165.7,256.1,151.7,249.1,146.4z" style="fill:#57455E;"/>
		<path d="M269,134.4c-6,3.4-12,6.8-18,10c0-0.1-0.1-0.1-0.1-0.3c-8.8-9.3-17.7-18.8-26.6-28.1
			c-3.6-3.8-7.2-7.8-11.4-11.1c-2.7-2.2-6.9-5.5-10.6-4.3c-4,1.1-3.8,6.1-4.1,9.4c-0.4,6.5,0.5,13,1.1,19.4
			c1.4,12.5,3.3,24.9,5.6,37.3c0.1,0.4,0.1,0.6,0.4,0.9c-5.7,2.8-11.5,5.6-17.2,8.4c-1.5,0.8-1.8,2.3-1.1,3.6c-0.8,2,0.6,4.9,3.3,4
			c15.8-5.4,31.3-11.7,46.2-19.3c13-6.5,28.1-13.4,36.4-25.9C274.5,136,271.3,133,269,134.4z" style="fill:#74A3D7;"/>
		<path d="M213.7,148.4c-2,0.1-3.8,1.7-3.8,3.8v0.9c0,2,1.8,4,3.8,3.8c2-0.1,3.8-1.7,3.8-3.8v-0.9
			C217.6,150.2,215.9,148.2,213.7,148.4z" style="fill:#F7D16F;"/>
		<path d="M208.4,111c-2,0.1-3.8,1.7-3.8,3.8v0.9c0,2,1.8,4,3.8,3.8c2-0.1,3.8-1.7,3.8-3.8v-0.9
			C212.2,112.9,210.4,111,208.4,111z" style="fill:#F7D16F;"/>
		<path d="M233.8,129.2c-2,0.1-3.8,1.7-3.8,3.8v0.9c0,2,1.8,4,3.8,3.8c2-0.1,3.8-1.7,3.8-3.8V133
			C237.6,131,235.8,129.1,233.8,129.2z" style="fill:#F7D16F;"/>
		<path d="M213.7,128.3c-5,0-5,7.7,0,7.7C218.7,136,218.7,128.3,213.7,128.3z" style="fill:#F7D16F;"/>
		<path d="M230.2,142.9c-5,0-5,7.7,0,7.7C235.1,150.5,235.1,142.9,230.2,142.9z" style="fill:#F7D16F;"/>
		<path d="M249.7,178.4c-5,0-5,7.7,0,7.7C254.6,186,254.6,178.4,249.7,178.4z" style="fill:#57455E;"/>
		<path d="M250.4,191.5c-0.5-1.8-2.8-3.4-4.7-2.7c-3.6,1.5-7.2,3.1-10.5,5c-4.3,2.4-0.4,9.1,3.8,6.6
			c2.8-1.5,5.7-3.1,8.7-4.2C249.6,195.4,251,193.7,250.4,191.5z" style="fill:#57455E;"/>
		<path d="M278.5,215.5c-8.2,8.6-16.5,17-24.8,25.3c-2.6-10.6-5.2-21.2-7.8-31.8c-1.1-4.7-8.6-2.8-7.4,2
			c2.7,10.9,5.4,21.7,8,32.7c0.3,1.1,1,1.9,1.8,2.4c-7.8,7.7-15.8,15.3-23.9,22.7c-1.5-9.7-2.9-19.3-4.5-29c-0.8-4.9-8.2-2.8-7.4,2
			c1.8,11.9,3.7,23.7,5.5,35.6c0.5,3.1,4.5,3.4,6.4,1.7c20.4-18.8,40.2-38.2,59.4-58.3C287.3,217.4,281.9,211.9,278.5,215.5z" style="fill:#57455E;"/>
		<path d="M295.5,265.8c-22.2,19.9-48.4,48.8-81.5,43.8c-4.9-0.8-6.9,6.6-2,7.4c19.2,2.9,35.9-3.8,51.1-13.9
			c5.9,24.6,8.3,49.7,7.2,74.9c-0.3,5,7.4,5,7.7,0c1.3-26.6-1.4-53.1-7.9-78.9c-0.1-0.3-0.1-0.5-0.3-0.8
			c11.1-8.4,21.3-18.3,31.2-27.1C304.5,268,299.2,262.5,295.5,265.8z" style="fill:#57455E;"/>
		<path d="M313.6,325.7c-2.4-15.3-5.5-30.4-9.1-45.5c-1.1-4.9-8.6-2.8-7.4,2c3.6,15.1,6.6,30.1,9.1,45.5
			C306.9,332.6,314.3,330.6,313.6,325.7z" style="fill:#57455E;"/>
	</g>
	<g>
		<path d="M460.8,137.6c-1.7,1.9-3.4,0.5-2.6-1.8c1.8-4.5-5.2-6.5-7.3-2.3c-0.9,0.9-1.4,2-1,3.6
			c0.6,3.1-0.6,5.6-2.8,7.7c-2.8,2.4,0.1,7.7,3.7,6.4c1.9-0.6,4-0.3,4.6,1.9c1.3,4,7.7,3.4,7.5-1c-0.1-3.4,1-6.5,3.3-8.9
			C469.5,139.4,464.2,133.9,460.8,137.6z" style="fill:#F7D16F;"/>
		<path d="M430.8,108.9c-1.7,1.9-3.4,0.5-2.6-1.8c1.8-4.5-5.2-6.5-7.3-2.3c-0.9,0.9-1.4,2-1,3.6
			c0.6,3.1-0.6,5.6-2.8,7.7c-2.8,2.4,0.1,7.7,3.7,6.4c1.9-0.6,4-0.3,4.6,1.9c1.3,4,7.7,3.4,7.5-1c-0.1-3.4,1-6.5,3.3-8.9
			C439.5,110.6,434.1,105.2,430.8,108.9z" style="fill:#F7D16F;"/>
	</g>
	<g>
		<path d="M525.9,135.5c0,1.5,1.9,2.9,4.3,3.1c20.2,0.6,40.3,1.3,60.4,0.5c19.8-0.8,38.9-3.2,58.9-2.8
			c36.8,0.6,73.9,5.7,109.9,0.1c0.1,0,0.3,0,0.5,0c0.1,0,0.3,0,0.4,0c2.8,0.6,6.8-0.5,6-3.1c-1.1-4.1-2.3-8.2-3.4-12.3
			c-0.5-1.7-2.8-2.6-5.2-2.4c-74.3,4.2-149.4-5.6-223.4,0.3c-0.5,0-0.9,0.1-1.4,0.3h-2.2c-2.4,0-4.6,1-4.6,2.8
			C526,126.3,525.9,130.9,525.9,135.5z" style="fill:#C39A8A;"/>
		<g>
			<path d="M606.4,168.4c-2.8-13-21.2-15.2-32-15.4c-12.8-0.3-27.7,2.7-33.2,15.7c-4.3,10.2,2.3,23.4,13.9,23.1
				c-1.1,8,1,15.7,6.3,22.2c1.5,1.9,4.6,0.6,5.1-1.4c0.1-0.6,0.4-1.3,0.5-2c0.3,0.8,0.5,1.5,0.9,2.2c1.1,2.6,4.9,1.5,5.6-0.8
				c0.9-2.7,1.4-5.5,1.5-8.3c1.4,0.8,1.8,2.2,2.3,3.7c0.9,2.8,3.3,4.7,6.3,3.7c1.4-0.5,2-1.5,2.3-2.9c0.8-5.7,0.6-11.4,0-17.1
				C596.1,188.1,609.2,181.4,606.4,168.4z" style="fill:#FFFFFF;"/>
			<path d="M564.3,176.2c0-1.7-0.8-3.4-2.3-5c-2.9-2.8-7.3-4.2-11.2-3.8c-0.8,0.1-1.5,0.4-2.2,0.8c-1.1,0.5-2,1.1-2.8,2
				c0,0,0,0.1-0.1,0.1c-1.4,1.1-1.5,3.2-0.8,4.9c2.6,5.9,11.4,10.5,17.4,6.5C564.2,180.3,564.7,178.2,564.3,176.2z" style="fill:#57455E;"/>
			<path d="M602.5,165.5c-2.9-1.8-6.5-0.9-9.6,1c-4.7,1.1-9.2,4.3-10.7,8.9c-1.1,3.2,0.6,6.3,4,6.9
				c3.1,0.5,6.6-0.8,9.3-2C599.8,178.2,609.8,170.1,602.5,165.5z" style="fill:#57455E;"/>
			<path d="M573.3,194.7c-0.5-0.8-1.4-1.5-2.3-1.8c-1-0.3-2-0.1-2.9,0.4c-0.1,0.1-0.3,0.3-0.4,0.4
				c-1.3,0.4-2.3,1.3-2.6,2.6c-0.5,1.9,0.6,4.2,2.7,4.7c1.3,0.3,2.6,0.3,3.7-0.5c1.1-0.6,1.8-1.7,2.3-2.8
				C574.1,196.8,573.8,195.5,573.3,194.7z" style="fill:#57455E;"/>
			<path d="M585.2,195.7c-0.3-0.3-0.4-0.4-0.6-0.6c-1.4-1.4-4-1.5-5.4,0c-1.4,1.5-1.5,4,0,5.4c0.3,0.3,0.4,0.4,0.6,0.6
				c1.4,1.4,4,1.5,5.4,0C586.6,199.7,586.7,197.3,585.2,195.7z" style="fill:#57455E;"/>
		</g>
		<g>
			<g>
				<path d="M748.2,87.3c0-4,1.3-10.3-1.4-13.7c-5.2-6.8-21.6-3.7-28.5-2.7c-7.2,0.9-14,2-21.3,1.8
					c-6.5-0.3-13.5-2.3-19.9-2c-9.4,0.4-8,8.8-7,16.1c0,3.8,0,7.8,0,11.6c0,5.2-1.3,12.1,0.3,17.2c2.8,9.2,19.3,6,26.2,6.1
					c13,0.4,26,0.9,39.1,1.1c3.7,0.1,7.9,0.5,10.6-2.6c2.8-3.2,1.9-8.3,1.9-12C748.2,101.4,748.2,94.4,748.2,87.3z" style="fill:#B6C8E8;"/>
				<path d="M737.4,89.8c-3.4-3.8-4.9-8-10.3-9.6c-2.6-0.8-5.4-0.6-7.9-0.1c-2.6,0.6-5,3.4-7.3,3.8
					c-1.5,0.3-4.1-1.8-5.7-2.3c-2.2-0.6-4.3-0.8-6.5-0.8c-8.3,0.5-18.1,7-16.5,15.7c-2.7,5.4,0.1,11.6,5.2,14.7
					c4.2,2.6,9.1,2.4,13.2,0.3c2.3,3.3,5.6,5.6,10,5.7s8.3-2.3,10.3-5.9c8.7,2.2,19.5,0.4,20.8-10.3
					C743.2,95.8,740.5,93.3,737.4,89.8z" style="fill:#F087B1;"/>
				<path d="M714.2,84.7c-1.8-1-4.2-0.4-5.2,1.4c-1.1,2.2-2.4,4.3-3.6,6.4c-1,1.8-0.4,4.2,1.4,5.2
					c1.8,1,4.2,0.4,5.2-1.4c1.1-2.2,2.4-4.3,3.6-6.4C716.7,88.1,716.2,85.8,714.2,84.7z" style="fill:#57455E;"/>
				<path d="M697.1,96.4c-2.7-0.3-5.2-0.6-7.9-0.9c-2-0.3-3.8,1.9-3.8,3.8c0,2.3,1.8,3.6,3.8,3.8
					c2.7,0.3,5.2,0.6,7.9,0.9c2,0.3,3.8-1.9,3.8-3.8C701,97.9,699.2,96.7,697.1,96.4z" style="fill:#57455E;"/>
				<path d="M732.9,91.7c-11.9-0.5-19,11.7-13.7,22c2.3,4.3,8.9,0.5,6.6-3.8c-2.8-5.4,1.4-10.7,7-10.5
					C737.9,99.6,737.7,91.9,732.9,91.7z" style="fill:#57455E;"/>
				<path d="M749.6,68.1c-6.9,0.6-13.5-0.6-20.3-1.4c-6.6-0.8-13.3-0.1-20,0.3c-14,0.9-28.1,1.8-42.1,2.6
					c-4.9,0.3-5,7.9,0,7.7c14-0.9,28.1-1.8,42.1-2.6c6.3-0.4,12.5-0.9,18.8-0.4c7.3,0.6,14.2,2.3,21.6,1.5
					C754.5,75.2,754.6,67.5,749.6,68.1z" style="fill:#57455E;"/>
			</g>
			<path d="M673.5,82.9v25.8c0,5,7.7,5,7.7,0V82.9C681.2,77.9,673.5,77.9,673.5,82.9z" style="fill:#FFFFFF;"/>
		</g>
		<g>
			<path d="M645,208.1c-0.4-4.1-0.9-8.3-1.4-12.4l-2.6-23.5c-0.5-4.1-0.9-8.3-1.4-12.4c-0.3-2.4-0.1-5.2-1.4-7.3
				c-2.2-3.4-8.6-3.6-12.1-2.4c-5.1,1.7-4.1,7-3.8,11.1c0.9,16.9,1.9,33.8,2.9,50.7c0.1,2,1.4,3.2,2.9,3.6c0.6,1,1.7,1.8,3.2,1.9
				c3.8,0.3,10.7,0.9,13.3-2.9C645.8,212.6,645.3,210.3,645,208.1z" style="fill:#F7D16F;"/>
			<path d="M662.4,198.5c0.1-8.7-0.1-17.2-0.4-25.9c-0.3-5.5,1-13.9-2.2-18.8c-3.2-4.9-10.9-4-15.7-4.5
				c-1.1-0.1-1.9,0.3-2.6,0.8c-2-0.1-4.1,1-4.1,3.7c0.4,17.5,2.3,34.9,4.6,52.1c0.6,4.9,1.7,10.3,6.5,12.9c4.2,2.2,8.9,0.8,11.4-3.1
				C663,210.9,662.3,203.9,662.4,198.5z" style="fill:#F087B1;"/>
			<path d="M681.8,199.1c0.1-8.3,0.3-16.6,0.3-24.8c0-4.1-0.1-8.3-0.1-12.4c0-3.1,0.4-6.6-1.3-9.4
				c-2.9-5.1-11.2-3.2-16.1-3.1c-2,0-3.8,1.8-3.8,3.8c0,2.2,0,4.2,0.1,6.4c-0.1,16.1-0.3,32-0.4,48.1c0,4.3-0.3,9.4,5,10.5
				c4,0.8,11.1,1,14-2.4C683,211.7,681.7,203.9,681.8,199.1z" style="fill:#74A3D7;"/>
			<path d="M711.4,194.2c-4.9-8.9-8.9-18.3-12.1-27.8c-1.9-5.6-2.9-16.3-10.3-17.7c-2.9-0.5-5.5,0.8-7.2,2.8
				c-2.7-0.8-6.1,2.3-4.5,5.7c5,10.1,9.4,20.4,13.2,31c1.7,4.7,3.2,9.4,4.6,14.3c1,3.7,1.4,8.6,4,11.6c3.7,4.5,11.9,2.8,15.4-1.1
				C719.5,207.2,714.4,199.6,711.4,194.2z" style="fill:#B6C8E8;"/>
			<path d="M633,204.5c-5,0-5,7.7,0,7.7C637.9,212.2,637.9,204.5,633,204.5z" style="fill:#57455E;"/>
			<path d="M651.7,205.4c-5,0-5,7.7,0,7.7C656.7,213.1,656.7,205.4,651.7,205.4z" style="fill:#57455E;"/>
			<path d="M670.4,205.4c-2,0.1-3.8,1.7-3.8,3.8v0.9c0,2,1.8,4,3.8,3.8s3.8-1.7,3.8-3.8v-0.9
				C674.3,207.2,672.5,205.3,670.4,205.4z" style="fill:#57455E;"/>
			<path d="M708.8,202.9c-5,0-5,7.7,0,7.7S713.7,202.9,708.8,202.9z" style="fill:#57455E;"/>
		</g>
		<path d="M766.6,213.4c0-1.5-1.9-2.9-4.3-3.1c-20.2-0.6-40.3-1.3-60.4-0.5c-19.8,0.8-38.9,3.2-58.9,2.8
			c-36.8-0.6-73.9-5.7-109.9-0.1c-0.1,0-0.3,0-0.5,0c-0.1,0-0.3,0-0.4,0c-2.8-0.6-6.8,0.5-6,3.1c1.1,4.1,2.3,8.2,3.4,12.3
			c0.5,1.7,2.8,2.6,5.2,2.4c74.3-4.2,149.4,5.6,223.4-0.3c0.5,0,0.9-0.1,1.4-0.3h2.2c2.4,0,4.6-1,4.6-2.8
			C766.5,222.4,766.6,218,766.6,213.4z" style="fill:#C39A8A;"/>
		<g>
			<path d="M753.6,182.2c-0.3-5,0.1-12.6-4.7-15.6c-1.4-0.9-3.1-1.4-4.9-1.7c-0.8-4.3-6.3-7.2-11.5-5.6
				c-1.7,0.5-2.9,1.5-3.2,3.3c-0.1,0.9-0.3,1.8-0.4,2.6c-0.1,0-0.1,0-0.3,0.1c-5,2.6-7,6.9-7.7,12.3c-0.8,6.6-1.1,14.3-0.6,20.9
				c1,11.7,12.9,12.9,22.6,12C756.1,209.4,754.1,191.6,753.6,182.2z" style="fill:#B6C8E8;"/>
			<path d="M740.5,156.2c-3.3-0.5-6.5-0.6-9.8-0.4c-2,0.1-3.4,2.4-3.2,4.3c0.4,2.2,2.3,3.3,4.3,3.2
				c2.6-0.1,5.2,0,7.8,0.4C744.6,164.6,745.4,156.9,740.5,156.2z" style="fill:#57455E;"/>
			<path d="M747.3,192.2c0.1-3.1,0.4-7-1-9.7c-2.9-5.9-12.9-3.6-17.6-1.8c-0.4,0.1-0.6,0.4-1,0.5
				c-1,0.8-1.8,1.9-1.8,3.4c0.1,5.6-1,14,4.1,18.1c4.1,3.3,12.5,3.7,15.4-1.3C747.1,198.8,747.2,195.1,747.3,192.2z" style="fill:#74A3D7;"/>
			<path d="M731.9,177.3c-0.3-4.9-7.8-3.7-7.5,1.1c0.3,6.1,0.4,12.1,0.1,18.3c-0.1,4.9,7.4,5.7,7.7,0.9
				C732.2,190.9,732.1,184.1,731.9,177.3z" style="fill:#FFFFFF;"/>
		</g>
		<g>
			<path d="M649.5,90.7c-0.3-5,0.1-12.6-4.7-15.6c-1.4-0.9-3.1-1.4-4.9-1.7c-0.8-4.3-6.3-7.2-11.5-5.6
				c-1.7,0.5-2.9,1.5-3.2,3.3c-0.1,0.9-0.3,1.8-0.4,2.6c-0.1,0-0.1,0-0.3,0.1c-5,2.6-7,6.9-7.7,12.3c-0.8,6.6-1.1,14.3-0.6,20.9
				c1,11.7,12.9,12.9,22.6,12C652.1,117.8,650,100.1,649.5,90.7z" style="fill:#B6C8E8;"/>
			<path d="M636.5,64.6c-3.3-0.5-6.5-0.6-9.8-0.4c-2,0.1-3.4,2.4-3.2,4.3c0.4,2.2,2.3,3.3,4.3,3.2
				c2.6-0.1,5.2,0,7.8,0.4C640.6,73,641.3,65.4,636.5,64.6z" style="fill:#57455E;"/>
			<path d="M643.3,100.6c0.1-3.1,0.4-7-1-9.7c-2.9-5.9-12.9-3.6-17.6-1.8c-0.4,0.1-0.6,0.4-1,0.5
				c-1,0.8-1.8,1.9-1.8,3.4c0.1,5.6-1,14,4.1,18.1c4.1,3.3,12.5,3.7,15.4-1.3C643,107.3,643.1,103.5,643.3,100.6z" style="fill:#74A3D7;"/>
			<path d="M627.8,85.8c-0.3-4.9-7.8-3.7-7.5,1.1c0.3,6.1,0.4,12.1,0.1,18.3c-0.1,4.9,7.4,5.7,7.7,0.9
				C628.2,99.3,628.2,92.6,627.8,85.8z" style="fill:#FFFFFF;"/>
		</g>
		<g>
			<path d="M606.6,90.7c-0.3-5,0.1-12.6-4.7-15.6c-1.4-0.9-3.1-1.4-4.9-1.7c-0.8-4.3-6.3-7.2-11.5-5.6
				c-1.7,0.5-2.9,1.5-3.2,3.3c-0.1,0.9-0.3,1.8-0.4,2.6c-0.1,0-0.1,0-0.3,0.1c-5,2.6-7,6.9-7.7,12.3c-0.8,6.6-1.1,14.3-0.6,20.9
				c1,11.7,12.9,12.9,22.6,12C609.3,117.8,607.2,100.1,606.6,90.7z" style="fill:#B6C8E8;"/>
			<path d="M593.7,64.6c-3.3-0.5-6.5-0.6-9.8-0.4c-2,0.1-3.4,2.4-3.2,4.3c0.4,2.2,2.3,3.3,4.3,3.2
				c2.6-0.1,5.2,0,7.8,0.4C597.7,73,598.6,65.4,593.7,64.6z" style="fill:#57455E;"/>
			<path d="M600.4,100.6c0.1-3.1,0.4-7-1-9.7c-2.9-5.9-12.9-3.6-17.6-1.8c-0.4,0.1-0.6,0.4-1,0.5
				c-1,0.8-1.8,1.9-1.8,3.4c0.1,5.6-1,14,4.1,18.1c4.1,3.3,12.5,3.7,15.4-1.3C600.1,107.3,600.4,103.5,600.4,100.6z" style="fill:#F7D16F;"/>
			<path d="M585,85.8c-0.3-4.9-7.8-3.7-7.5,1.1c0.3,6.1,0.4,12.1,0.1,18.3c-0.1,4.9,7.4,5.7,7.7,0.9
				C585.4,99.3,585.3,92.6,585,85.8z" style="fill:#FFFFFF;"/>
		</g>
		<g>
			<path d="M563.8,90.7c-0.3-5,0.1-12.6-4.7-15.6c-1.4-0.9-3.1-1.4-4.9-1.7c-0.8-4.3-6.3-7.2-11.5-5.6
				c-1.7,0.5-2.9,1.5-3.2,3.3c-0.1,0.9-0.3,1.8-0.4,2.6c-0.1,0-0.1,0-0.3,0.1c-5,2.6-7,6.9-7.7,12.3c-0.8,6.6-1.1,14.3-0.6,20.9
				c1,11.7,12.9,12.9,22.6,12C566.4,117.8,564.3,100.1,563.8,90.7z" style="fill:#B6C8E8;"/>
			<path d="M550.9,64.6c-3.3-0.5-6.5-0.6-9.8-0.4c-2,0.1-3.4,2.4-3.2,4.3c0.4,2.2,2.3,3.3,4.3,3.2
				c2.6-0.1,5.2,0,7.8,0.4C554.9,73,555.8,65.4,550.9,64.6z" style="fill:#57455E;"/>
			<path d="M557.6,100.6c0.1-3.1,0.4-7-1-9.7c-2.9-5.9-12.9-3.6-17.6-1.8c-0.4,0.1-0.6,0.4-1,0.5
				c-1,0.8-1.8,1.9-1.8,3.4c0.1,5.6-1,14,4.1,18.1c4.1,3.3,12.5,3.7,15.4-1.3C557.3,107.3,557.5,103.5,557.6,100.6z" style="fill:#F087B1;"/>
			<path d="M542.1,85.8c-0.3-4.9-7.8-3.7-7.5,1.1c0.3,6.1,0.4,12.1,0.1,18.3c-0.1,4.9,7.4,5.7,7.7,0.9
				C542.5,99.3,542.5,92.6,542.1,85.8z" style="fill:#FFFFFF;"/>
		</g>
	</g>
	<g>
		<path d="M512.6,211.7c-0.4-4.2-0.9-8.4-1.4-12.6c-0.4-3.1-0.5-7.2-3.2-9.3c-2.7-2-6.6-1.4-9.7-1.4
			c-5,0.1-10.1,0.3-15.1,0.6c-9.6,0.6-19.2,1.5-28.6,2.9c-2.3-2-6.8-1.3-6.5,2.6c0.8,9.8,1,19.8,2.4,29.5c0.9,5.6,3.3,10,9.3,10.9
			c8.9,1.3,19.3-0.8,28.2-1.1c6.3-0.4,16.7,1.1,22.1-2.9C515.3,226.6,513,217.2,512.6,211.7z" style="fill:#FFFFFF;"/>
		<path d="M503.6,189.7c-4.3,3.7-8.6,7.4-12.9,11.1c-2.9,2.6-8.6,9.3-12.1,9.2c-4.2-0.1-9.3-6.1-12.4-8.8
			c-4-3.6-7.8-7.3-11.6-11c-3.4-3.4-8.9,1.9-5.4,5.4c5.1,5.1,10.3,10.1,15.8,14.7c3.7,3.2,8.6,7.5,13.7,7.9
			c4.9,0.4,8.6-4.3,11.9-7.3c6.1-5.2,12.3-10.6,18.4-15.8C512.8,191.9,507.4,186.5,503.6,189.7z" style="fill:#57455E;"/>
		<path d="M451.1,211.2c-4.5,0.8-8.9,0.9-13.4,0.5c-4.9-0.4-4.9,7.3,0,7.7c5.2,0.4,10.3,0.1,15.4-0.8
			C458,217.7,455.9,210.4,451.1,211.2z" style="fill:#F087B1;"/>
		<path d="M453,225.5c-4.3-0.3-8.8,0.4-13,1.5c-4.7,1.4-2.7,8.8,2,7.4c3.6-1,7.2-1.4,11-1.3
			C457.9,233.3,457.9,225.6,453,225.5z" style="fill:#F087B1;"/>
	</g>
	<g>
		<path d="M409.9,165.3c-1.8,4.6,5.6,6.5,7.4,2c2.6-6.4,10-0.9,10.3,3.7c0.4,4.1-2.3,7.8-5.2,10.3
			c-3.8,3.4-8.7,5.7-12.6,8.9c-9.4,7.5-10.2,18.3-5.7,29c1.9,4.5,9.3,2.6,7.4-2c-2.3-5.5-4.3-12-0.5-17.4c2.4-3.4,6.3-5.5,9.6-7.8
			c6.5-4.2,12.9-9.1,14.4-17.1C437.9,159.3,416.5,148.9,409.9,165.3z" style="fill:#FFFFFF;"/>
		<path d="M514.2,136.7c-2.4-8.9-17-16.5-21.1-4.7c-1.7,4.7,5.7,6.6,7.4,2c1-2.8,5.7,2.9,6.1,4c1,2.9,0,5.4-2,7.7
			c-2.9,3.2-7.3,4.9-10.9,7.3c-5.6,3.8-10,9.3-9.1,16.5c0.6,4.9,8.3,4.9,7.7,0c-1.1-9.2,10.6-12,16.1-17
			C513.1,148.5,515.8,142.9,514.2,136.7z" style="fill:#FFFFFF;"/>
	</g>
</g>
</svg>
