<?xml version="1.0" encoding="utf-8"?>
<!-- Generator: Adobe Illustrator 23.0.2, SVG Export Plug-In . SVG Version: 6.00 Build 0)  -->
<svg version="1.1" id="Capa_1" xmlns="http://www.w3.org/2000/svg" xmlns:xlink="http://www.w3.org/1999/xlink" x="0px" y="0px" viewBox="0 0 800 869.6" style="enable-background:new 0 0 800 869.6;" xml:space="preserve">

<g>
	<path d="M784,256.4C764.8,177.2,723.5,104,654.4,58.1C585.5,12.5,498.7-4.4,417.1,2.2c-154.2,12.3-301.3,106.9-371,246
		c-71,141.5-58.6,320,28,452c4.7,7.4,9.9,14.4,15,21.4c14.2,8.6,27.1,19.3,38.5,31.7c181.8,46.9,374.9,47.1,556.5-0.4
		c18.5-4.7,43.2-8,56.1-23.4c13.6-16,17.5-41.5,22.8-61.1c13.4-48.7,23-98.5,29.2-148.7C802.9,432.8,804.7,342.1,784,256.4z" style="fill:#56597A;"/>
	<path d="M344.1,241c-16.5-11.1-34.3,12.3-44,23.2c-14.4,16.2-26.9,35-33.1,55.9c-9.3,31.3-3.3,93.8,41.5,92.3
		c4.7-0.2,6.6-4.3,5.8-7.8c2.1-2.7,2.1-6.8-1.6-8.8c-25.7-13.8-43.4-41.7-31.9-70.7c6-15,15.8-29.4,25.9-42.2
		c9.5-12.1,20.6-26.3,36-30.6C348,250.6,348.4,243.8,344.1,241z" style="fill:#57455E;"/>
	<path d="M394.9,375.5c-7.6-19.9-21.4-36.6-35-52.6c-2.9-3.3-6.6-2.3-8.6,0.4c-11.1-5.6-23.9-2.9-33.5,4.9
		c-13.2,10.5-16.2,27.6-16,43.6c0.2,22,2.9,44.2,4.7,66c1.9,21.6,3.9,43.2,7.4,64.6c2.3,13.6,6.4,29,18.3,37.4
		c12.5,9,31.3,7.2,45.7,3.9c15.6-3.7,23.4-13.6,24.1-29.6c0.8-23,0.4-46.3,0.6-69.5C402.3,421.7,403.1,397.5,394.9,375.5z" style="fill:#F087B1;"/>
	<path d="M762,760.2c-13-47.9-70.3-66.8-116.4-77.9c-126.3-30.6-258.3-37-386.8-19.5c-9.3,0.6-18.5,1.4-27.8,2.5
		c-51.6,5.6-112.1,14.8-143.8,57.2c-13,17.3-19.9,39.3-15.6,60.3c4.3,21.4,20.6,38.3,40.1,49.6c23.7,13.8,51.8,21.2,79,26.7
		c31.5,6.4,63.5,9.5,95.6,10.3c64.6,1.9,128.9-4.3,192.9-9.5c66.2-5.3,132.2-11.3,197.6-22.2C719.4,830.2,775.5,810.6,762,760.2z" style="fill:#B6C8E8;"/>
	<path d="M583.7,402.8c-20.6-48.5-54.9-90.1-97.9-120.3c-9-17.3-36.2-14.6-52.2-12.8c-14.8,1.6-29,6.4-40.1,15.8
		c-8.4,5.8-15.8,13.4-20.8,20.4c-16.2,15.2-30.2,32.9-40.9,52.4c-11.3,20.4-21.2,44.2-21.8,67.7c-0.8,37.6,33.7,67,70.1,61.3
		c0,47.1,1,94.2,3.1,141.3c-0.4-0.4-0.8-0.6-1.2-1c1.6,10.7,3.3,21.4,4.9,32.1c-23.7-4.9-46.5-13.4-69.1-21.8
		c-9.5-3.5-21.6-10.5-31.7-4.9c-8.2,4.5-11.5,14.6-13.2,23.2c0,0.2,0,0.2,0,0.4c-9.7-1.9-19.1-2.3-23.9,8.6
		c-7.8,18.1-12.1,38.3-16,57.6c-0.6,3.3,0.8,6.6,4.3,7.6c5.1,1.6,9.7,0.6,14.2-2.7c2.9-2.3,4.3-5.3,6.8-8c3.9-4.1,6.2-3.1,11.3-1
		c8.4,3.1,16.5,8.4,24.5,12.5c8.2,4.1,16.5,8,24.7,11.9c32.5,15.2,65.4,29.4,98.9,42.4c0,0.2,0.2,0.2,0.2,0.4
		c10.1,2.7,20.6,3.3,30.8,0.6c15.4-3.9,28.2-15,34.1-29.2c10.7,12.1,26.9,17.9,42.4,6c23.7-18.5,16.5-56.8,15.6-82.7
		c-2.3-62.5-6.6-124.8-13.2-187.2c23.4,6.6,48.5,7.2,61.7-17.5C602,452.4,593.5,425.6,583.7,402.8z" style="fill:#FFFFFF;"/>
	<path d="M520.9,200.4c-14.8-39.3-54.3-60.7-95.2-58c-39.7,2.5-84.3,26.7-94,68.1c-6.6,27.8,6.8,49.6,27.1,64
		c0.4,1.2,1,2.5,2.5,3.5c34.6,26.3,81.2,39.3,121.8,18.7C518.7,278.6,535.1,238.3,520.9,200.4z" style="fill:#B6C8E8;"/>
	<path d="M468.3,250.6c-1.2-10.5-2.9-21.8-11.3-29c-3.9-3.3-8.8-5.3-13.6-5.3c-1.2-2.3-3.5-3.7-6.8-2.7
		c-20.2,7.4-28.8,28.2-29.4,48.3c-0.6,19.9,10.5,46.7,34.8,43.4C468.5,302,470.7,271,468.3,250.6z" style="fill:#F7D3BD;"/>
	<path d="M510.8,287.6c-1.2-2.9-2.9-4.1-6-4.5c-45.9-6-92.1-3.1-137,8.6c-3.9,1-5.6,5.6-3.7,9c5.6,10.5,16.2,16.2,28,15
		c1.9-0.2,3.1-1,4.1-2.1c23.7,1,47.1,0.6,70.7-1.9C479.4,310.5,520.3,310.5,510.8,287.6z" style="fill:#F087B1;"/>
	<path d="M499.9,395.6c2.5-5.6-2.7-11.5-8.4-8.4c-4.9,2.5-10.1,5.6-15.6,5.8c-7.4,0.2-10.1-3.9-12.3-10.1
		c-2.1-6-4.5-10.5-10.9-12.1c-2.5-0.6-6,0.4-7,2.9c-3.5,7.8-6.2,15.8-8,24.3c-0.2,1.4-0.2,2.7,0.4,3.9c-5.3,0-10.5,0.6-15.8,2.1
		c-4.9,1.2-6.4,8.8-1.4,11.3c3.1,1.4,16.5,6,18.1,9c1.9,3.5-1.2,12.3-1.9,16.2c-0.8,6.8,7,10.9,11.3,4.7c2.5-3.7,12.3-21.4,15-21.4
		c1,0,8,5.3,9.5,6.2c4.3,2.5,8.4,5.1,12.8,7.6c5.1,3.1,12.1-3.3,8.4-8.4c-3.5-4.9-6.8-9.9-10.3-14.8
		C490.9,409.8,496.5,403.6,499.9,395.6z" style="fill:#F7D16F;"/>
	<path d="M496.9,477.7c-6.6-12.1-17.3-16.7-25.3-26.5c-6-7.4-9.3-13.8-17.9-9.9c-13,5.8-25.9,17.9-38,26.3
		c-4.3,3.1-3.7,9.7-1,13.2c-1.6,1.9-2.5,4.7-2.1,8.2c1.6,11.7-2.1,24.3,2.1,35.4c4.3,11.7,13.4,12.1,21.8,10.7
		c11.5-1.9,22.8-4.9,33.7-9.7c5.8-2.5,11.5-5.3,17.3-8.6c4.1-2.3,10.5-4.3,13.2-9.3C505.5,499.3,500.8,484.7,496.9,477.7z" style="fill:#F7D16F;"/>
	<path d="M233,215c-1.6,0.8-3.1,1.6-4.5,2.7c-4.3,1.2-8.4-1.9-8.8-6.6c1.9-4.5,3.1-9.5,3.3-14.6c0.4-8-11.9-7.8-12.3,0
		c0,1.9-0.4,3.7-0.8,5.6c-0.8,0.8-1.6,1.9-1.9,3.3c-0.2,1-0.4,2.1-0.4,3.1c-3.3,6.6-8.8,12.1-16.2,14.8c-7.2,2.9-4.1,14.8,3.3,11.9
		c3.3-1.4,6.6-2.9,10.3-3.1c2.7-0.2,9,0.4,9.9,3.9c-0.4,1.4-0.8,3.1-1.2,4.5c-1.2,6.4,7.8,11.3,11.3,4.7c1-2.1,1.6-4.1,1.9-6.2
		c1.6-4.7,4.5-8.4,8.8-11.3c1.2-0.6,2.5-1.2,3.7-2.1l0,0l0,0c0.4-0.2,0.8-0.6,1.2-1C246.2,220,238.8,212.2,233,215z" style="fill:#F7D16F;"/>
	<path d="M149.9,394.8c-1.4,0.2-2.7,0.6-3.9,1c-8.4,1-16.5-5.6-15.8-14.8c0.4-6.8-9.3-8-11.7-2.5
		c-3.1,0.8-5.6,3.5-4.7,7.4c1,4.7,0.6,9.3-1,13.4c-5.3,2.7-9.3,7.8-9.5,14.4c-0.2,5.8,6.6,7.6,10.5,4.3c2.9-2.3,5.3-4.9,7.2-8
		c1.9,0.2,3.7,1,4.7,1.9c3.5,2.9,5.1,7.6,6.4,11.5c2.5,7.6,14.2,4.3,11.9-3.3c-1.6-5.6,0.8-10.3,5.3-12.3c1.2-0.2,2.7-0.6,3.9-1.2
		C160.6,403.6,157.9,393.6,149.9,394.8z" style="fill:#F7D16F;"/>
	<path d="M208.3,528.1c-2.9,1.6-5.3,3.7-7.4,6.2c-2.9-1.2-6-4.7-6.6-6.4c-0.8-2.3-1.2-4.9-1.2-7.6
		c0.2-0.8,0.4-1.6,0.4-2.5c0-1.6-0.2-3.1-0.2-4.7c0-1-0.2-1.9-0.6-2.7c-0.2-1-0.2-1.9-0.4-2.9c-1.4-7.8-13.4-4.5-11.9,3.3
		c1.4,7.8-0.6,15.2-4.9,21.2c-4.3,1.9-8,4.9-10.1,9.5c-2.5,5.3,2.9,11.9,8.4,8.4c3.3-2.1,6-4.3,8.4-6.8c2.5-0.4,5.3,0.4,7.6,2.5
		c3.1,2.7,4.5,6.6,5.6,10.5c0.2,0.8,0.4,1.9,0.6,2.7c2.1,7.8,13.4,4.5,11.9-3.3c-1-3.7-0.6-7.2,0.8-10.1c4.1-1.6,7.6-5.1,8.8-10.1
		C218.6,529.9,212.8,525.4,208.3,528.1z" style="fill:#F7D16F;"/>
	<path d="M703.1,344.2c-3.9-0.2-7.6,0.6-10.9,2.3c-6-1.2-9.7-7.8-7-14.8c1.6-4.3-1.6-7.2-5.3-7.4
		c-4.1-4.5-13.2-1.2-10.7,5.3c2.5,6.2,1.2,13-2.5,17.9c-4.3,1-8.4,3.5-11.7,7.6c-3.5,4.5-0.4,12.1,6,10.3c4.1-1.2,8-3.3,11.1-6
		c3.9,0,7.4,2.5,8.4,7.2c0,1.2,0.2,2.7,0.4,3.9c1.4,6.8,12.3,5.3,12.1-1.6c0-1.4-0.2-2.7-0.4-4.1c0.2-2.5,1.2-4.5,3.1-6
		c3.3-0.2,6.8-1.2,10.3-3.1C712,352.6,709.1,344.6,703.1,344.2z" style="fill:#F7D16F;"/>
	<path d="M602,142.9c-4.3-1.9-8.8-1.4-13,0.6c-4.5-2.3-7.6-7.6-9-12.1c-1.4-4.5-0.8-9.9-3.5-13.8
		c-1.2-1.9-2.9-3.1-4.5-3.5c-3.9-3.1-11.5,0.2-9.9,6.4c0,0.4,0.2,0.8,0.4,1.2c0,0.6,0.2,1.2,0.4,1.9c2.1,8.2,3.9,19.9-3.1,25.3
		c-1.4,0.6-2.9,1.4-4.3,2.3c-5.6,3.7-2.1,14.2,4.7,11.3c0.4-0.2,1-0.4,1.4-0.6l0,0c0.2,0,0.2-0.2,0.4-0.2c0.6-0.2,1-0.6,1.6-0.8
		c7.2-3.3,15.2,0.2,15.8,9.5c0.8,7.8,12.8,8,12.3,0c0-0.8-0.2-1.4-0.2-2.3c-0.2-3.3-0.6-8.4,1-11.5c3.7,0,7.4-0.6,11.1-2.3
		C608.9,151.7,606.3,144.5,602,142.9z" style="fill:#F7D16F;"/>
	<path d="M131.8,644.9c-8,0-8,12.3,0,12.3S139.8,644.9,131.8,644.9z" style="fill:#FFFFFF;"/>
	<path d="M218.2,435.1c-8,0-8,12.3,0,12.3C226.2,447.4,226.2,435.1,218.2,435.1z" style="fill:#FFFFFF;"/>
	<path d="M130,292c-2.5-2.3-6.4-2.5-8.6,0c-1,1-2.1,2.1-3.1,3.1c-2.3,2.3-2.5,6.4,0,8.6c2.5,2.3,6.4,2.5,8.6,0
		c1-1,2.1-2.1,3.1-3.1C132.2,298.3,132.4,294.2,130,292z" style="fill:#FFFFFF;"/>
	<path d="M273.7,145.1c-3.3,0.2-6.2,2.7-6.2,6.2v3.1c0,3.3,2.9,6.4,6.2,6.2c3.3-0.2,6.2-2.7,6.2-6.2v-3.1
		C279.9,148,277,144.9,273.7,145.1z" style="fill:#FFFFFF;"/>
	<path d="M329.9,290.1c-3.3,0.2-6.2,2.7-6.2,6.2v3.1c0,3.3,2.9,6.4,6.2,6.2c3.3-0.2,6.2-2.7,6.2-6.2v-3.1
		C336,293.2,333.2,290.1,329.9,290.1z" style="fill:#FFFFFF;"/>
	<path d="M418.7,71.1c-8,0-8,12.3,0,12.3C426.7,83.4,426.7,71.1,418.7,71.1z" style="fill:#FFFFFF;"/>
	<path d="M535.9,58.7c-8,0-8,12.3,0,12.3C544,71.1,544,58.7,535.9,58.7z" style="fill:#FFFFFF;"/>
	<path d="M588.4,283.9c-8,0-8,12.3,0,12.3C596.4,296.3,596.4,283.9,588.4,283.9z" style="fill:#FFFFFF;"/>
	<path d="M677.8,185.2c-8,0-8,12.3,0,12.3C685.7,197.6,685.9,185.2,677.8,185.2z" style="fill:#FFFFFF;"/>
	<path d="M736.5,441.3c-8,0-8,12.3,0,12.3C744.3,453.6,744.5,441.3,736.5,441.3z" style="fill:#FFFFFF;"/>
	<path d="M600.7,536.9c-3.3,0.2-6.2,2.7-6.2,6.2v3.1c0,3.3,2.9,6.4,6.2,6.2s6.2-2.7,6.2-6.2v-3.1
		C606.9,539.8,604,536.7,600.7,536.9z" style="fill:#FFFFFF;"/>
	<path d="M699.4,641.8c-8,0-8,12.3,0,12.3C707.3,654.1,707.5,641.8,699.4,641.8z" style="fill:#FFFFFF;"/>
	<path d="M60.9,521.5c-3.3,0.2-6.2,2.7-6.2,6.2v3.1c0,3.3,2.9,6.4,6.2,6.2s6.2-2.7,6.2-6.2v-3.1
		C67,524.4,64.2,521.3,60.9,521.5z" style="fill:#FFFFFF;"/>
	<path d="M479.4,238.7c-1-13-15-26.9-26.1-32.5c-7.8-4.1-16.7-4.7-24.3-1.9c-4.9-16.7-23.9-31.7-38.9-17.1
		c-14.8,14.2-7.2,35.4,8.4,42.8c-4.5,6.6-6.8,14.6-5.6,23.2c0.4,2.9,1.9,6.6,3.7,9.9c0,1,0.2,1.9,0.6,2.7c0.4,2.1,1,3.9,1.9,6
		c0.8,2.1,3.3,2.9,5.3,3.1c7.2,0.6,12.8-3.3,17.5-8c0.6,2.3,2.5,4.1,5.6,4.1c7.4,0,8-10.9,1.2-12.1c2.7-3.3,5.3-6.8,7.6-10.3
		c5.1,5.3,11.3,9.9,18.7,10.9c-2.3,1-3.7,3.1-3.7,5.6v1.4c0,2.1,1.2,4.1,2.9,5.1c-0.6-0.2-1.4-0.4-2.1-0.4h-13.8c-8,0-8,12.3,0,12.3
		h13.8c6.6,0,7.6-8.4,3.5-11.3c0.6,0.2,1.2,0.4,2.1,0.4c3.3-0.2,6.2-2.7,6.2-6.2V265c0-2.3-1.4-4.5-3.3-5.6
		C471.6,258.2,480.2,250,479.4,238.7z" style="fill:#57455E;"/>
	<path d="M554.7,712.3c-1.4-13.4-17.1-10.1-27.4-10.3l-59.8-2.3c-9.7-0.4-36.2-6.6-38.7,7.8c-0.2,0.6-0.2,1.2,0,1.9
		c0,0.4,0,0.8,0,1.2c2.1,33.9,6.4,69.3,16.5,101.8c4.3,13.8,14.4,14.6,27.4,16.5c15.2,2.1,30.6,3.3,45.9,1
		c11.5-1.6,26.3-4.3,31.7-16c6.6-14.2,4.3-33.3,4.3-48.3C554.7,748.3,556.5,729.6,554.7,712.3z" style="fill:#F087B1;"/>
	<path d="M692.4,535c-1.2,0.4-2.5,0.8-3.5,1.4c-3.3,0.8-6.6-1.2-5.6-5.6c0.8-3.3-1-5.8-3.5-7
		c-3.3-5.1-12.8-1.9-11.1,5.1c1,3.7,0.2,7.4-1.6,10.5c-5.1,0.6-9.7,3.7-11.9,8.4c-2.1,4.7,1.4,10.5,7,9c3.5-0.8,6.6-2.5,9.3-4.5
		c2.3,1.9,4.1,5.6,4.7,7.6c1.6,6.6,12.5,5.3,12.1-1.6c-0.2-4.3,1.2-8,4.7-10.3c1.4-0.4,2.7-1,4.1-2.1
		C702.9,542.9,699.2,532.8,692.4,535z" style="fill:#F7D16F;"/>
	<path d="M371.2,659.1c-1.4-7.2-7.6-10.9-13.8-13.6c-9.7-4.3-19.5-8-29.2-11.9c-10.1-4.1-20.6-9.3-31.9-9
		c-13.6,0.2-26.7,10.1-26.7,23.4c-30.4-12.1-39.9,70.7-39.3,87c0,3.1,2.7,6.6,6.2,6.2c6.6-0.8,11.3-3.3,16-8
		c2.5-2.7,4.3-5.8,6.8-8.4c1.2-1.4,1.9-2.3,2.7-2.3c1.4-0.2,6.4,4.7,7.6,5.6c17.9,13,37,24.1,57,33.7c3.9,1.9,7.4,0.2,9-3.7
		c9.5-22.8,18.5-45.9,27.1-69.1C366.1,680.2,372.8,668.5,371.2,659.1z" style="fill:#74A3D7;"/>
	<path d="M268,557.5c-8,0-8,12.3,0,12.3C275.8,569.8,275.8,557.5,268,557.5z" style="fill:#FFFFFF;"/>
	<path d="M223.1,318.5c-8,0-8,12.3,0,12.3C230.9,330.8,230.9,318.5,223.1,318.5z" style="fill:#FFFFFF;"/>
	<path d="M594.8,614.6l-1.4-1.4c-2.3-2.3-6.4-2.5-8.6,0c-2.3,2.5-2.5,6.4,0,8.6c0.4,0.4,1,1,1.4,1.4
		c2.3,2.3,6.4,2.5,8.6,0C597,620.8,597.2,617.1,594.8,614.6z" style="fill:#FFFFFF;"/>
	<path d="M561.9,453c-10.3-7.6-26.3-5.8-38-9.9c-17.3-6.2-28.4-19.1-43.4-28.8c-6.2-3.9-15.4-6-20.8-1.4
		c-1.2,0.2-2.3,0.6-3.3,1.2c-3.1-0.6-6.4-0.4-9.3,0.2c-12.1,2.5-23.7,9.5-35.4,13.4c-13,4.1-26.1,6.6-39.3,9.7
		c-5.8,1.4-10.9,3.7-14.2,8.2c-1,0.8-1.6,2.1-1.9,3.5c-0.2,0.4-0.4,0.8-0.4,1.2c-0.8,2.7,0.2,4.7,1.9,6.2c2.3,9.9,5.1,19.5,8.6,29.2
		c1.2,3.3,4.1,4.9,7.6,4.3c22.6-4.3,44.4-13,63.8-25.7c5.1-3.3,14.2-9,21.4-15.8c1.4,2.7,2.9,5.3,4.5,7.8
		c7.6,11.5,18.1,21.4,29.8,28.6c11.7,7.4,25.1,12.3,38.9,14.2c5.6,0.8,14,2.7,19.3,0.8c6.2-2.1,8.6-10.1,11.1-15.6
		C567.2,474.6,572.8,461,561.9,453z" style="fill:#74A3D7;"/>
	<path d="M369.1,367.8c-9,24.3-15.4,49.2-19.1,74.9c-1,7.8,10.7,11.1,11.9,3.3c3.7-25.7,10.1-50.6,19.1-74.9
		C383.7,363.5,371.8,360.4,369.1,367.8z" style="fill:#57455E;"/>
	<path d="M394.6,479.9c-5.3-13.6-10.5-26.9-15.8-40.5c-2.9-7.4-14.8-4.1-11.9,3.3c5.3,13.6,10.5,26.9,15.8,40.5
		C385.6,490.6,397.5,487.3,394.6,479.9z" style="fill:#57455E;"/>
	<path d="M561,442.5c-10.1-27.4-22.6-53.7-37.2-78.8c-3.9-6.8-14.6-0.6-10.7,6.2c14.2,24.3,26.1,49.6,36,75.9
		c0.2,0.2,0.2,0.6,0.4,0.8c-0.6,0.4-1.2,1-1.9,1.9c-2.1,3.3-3.3,6.8-4.1,10.3c-0.4,0.4-0.6,1-0.8,1.6c-3.5,10.5-7,21-10.5,31.3
		c-2.5,7.6,9.5,10.7,11.9,3.3c2.9-8.4,5.6-16.9,8.4-25.1c1.4-1,2.5-2.5,2.5-4.7c0.2-3.7,1.2-7.2,3.3-10.5c1.2-2.1,1.2-4.1,0.2-5.8
		C560.6,447.8,562.1,445.6,561,442.5z" style="fill:#57455E;"/>
	<path d="M555.1,701.8c-21.8-7.2-44.6-9.3-67.5-9.3c0-0.4,0.2-1,0-1.6c-3.5-35.8-7-71.4-10.5-107.1
		c-0.8-7.8-13.2-7.8-12.3,0c3.5,35.8,7,71.4,10.5,107.1c0,0.6,0.2,1.2,0.4,1.6c-17.5,0-46.1-2.3-47.9,20.6c-0.2,3.3,3.1,6.2,6.2,6.2
		c4.3,0,8.6,0,13,0c0.8,0.2,1.6,0.2,2.7,0.4c5.3,32.1,11.1,64.2,17.3,96.2c1.4,7.8,13.4,4.5,11.9-3.3c-6-30.2-11.3-60.7-16.5-91.1
		c7.8,1,15.6,1.4,23.4,1.6c0,0.6,0,1,0,1.6c5.3,30,8.2,60.5,8.6,91.1c0,8,12.3,8,12.3,0c-0.4-31.3-3.3-62.1-8.8-93
		c7.6-0.2,15.2-1,22.8-2.1c3.7,28.2,4.5,56.4,2.5,84.5c-0.6,8,11.7,7.8,12.3,0c1.9-29,0.8-57.8-2.9-86.6c7.4-1.4,15-3.3,22.2-5.6
		C561,711.9,560.8,703.7,555.1,701.8z" style="fill:#57455E;"/>
	<path d="M398.1,694.4l-9.3-42.6c-1.6-7.8-13.6-4.5-11.9,3.3c2.3,10.5,4.5,21.2,6.8,31.7c-10.9-3.7-21.8-7.8-32.5-12.1
		c2.7-7,5.3-14.2,7.6-21.2c2.5-7.6-9.3-10.7-11.9-3.3c-2.3,6.6-4.7,13.2-7.2,19.7c-20.2-8.8-39.7-19.1-58.6-30.4
		c-6.8-4.1-13,6.6-6.2,10.7c19.3,11.7,39.5,22.2,60.3,31.5c-8,19.9-17.3,39.5-27.4,58.6c-3.7,7,7,13.2,10.7,6.2
		c10.5-19.5,19.7-39.5,28-60.1c14.2,6,28.8,11.3,43.6,15.8C395.3,703.5,399,698.8,398.1,694.4z" style="fill:#57455E;"/>
	<path d="M470.1,478.5c-11.7,1.2-23.2,2.7-35,3.9c-7.8,0.8-7.8,13.2,0,12.3c11.7-1.2,23.2-2.7,35-3.9
		C477.9,490,478.1,477.7,470.1,478.5z" style="fill:#57455E;"/>
	<path d="M474.7,495.2c-10.9,3.1-21.8,6.2-32.7,9.3c-7.6,2.3-4.3,14,3.3,11.9c10.9-3.1,21.8-6.2,32.7-9.3
		C485.6,504.8,482.3,492.9,474.7,495.2z" style="fill:#57455E;"/>
	<path d="M657.9,780c-10.1,2.5-19.7,2.3-29.8-0.2c-7.6-2.1-10.9,9.9-3.3,11.9c12.1,3.1,24.3,3.3,36.4,0.2
		C669,789.9,665.7,777.9,657.9,780z" style="fill:#57455E;"/>
	<path d="M677.8,709.9c-15-2.1-30.2-3.9-45.2-6c-7.8-1-7.8,11.3,0,12.3c15,2.1,30.2,3.9,45.2,6
		C685.9,723.2,685.7,710.9,677.8,709.9z" style="fill:#57455E;"/>
	<path d="M188.6,725.9H168c-8,0-8,12.3,0,12.3h20.6C196.4,738.2,196.4,725.9,188.6,725.9z" style="fill:#57455E;"/>
	<path d="M323.5,797.3c-3.3-7.2-10.9-9.5-18.1-10.9c-1.4-0.2-2.7,0-3.9,0.4c-14.8-3.1-30.4,0.4-42,10.7
		c-4.3,3.9-8.6,9.3-6.2,15.4c2.7,6.4,11.9,8,17.9,9c15,2.7,37.2,1,49.4-9.3C325.1,808.8,326,802.6,323.5,797.3z M308.7,805.3
		c-2.7,2.1-7.8,3.1-10.9,3.9c-8,1.9-16.5,2.3-24.7,0.6c-1.6-0.2-3.3-0.6-4.9-1.2c-3.9-0.8-4.3-1.2-1-1.2c2.1-2.5,5.6-4.5,8.4-6
		c7.8-3.7,16.2-4.3,24.5-2.3c1.6,0.4,3.1,0.2,4.3-0.4c1.2,0.2,2.5,0.6,3.7,0.8C312.8,802.4,313,804.3,308.7,805.3z" style="fill:#57455E;"/>
	<path d="M180.4,789.7h-22.6c-8,0-8,12.3,0,12.3h22.6C188.2,802,188.2,789.7,180.4,789.7z" style="fill:#57455E;"/>
	<path d="M412.7,812.3h-16.5c-8,0-8,12.3,0,12.3h16.5C420.6,824.6,420.6,812.3,412.7,812.3z" style="fill:#57455E;"/>
</g>
</svg>
