<?xml version="1.0" encoding="utf-8"?>
<!-- Generator: Adobe Illustrator 23.0.2, SVG Export Plug-In . SVG Version: 6.00 Build 0)  -->
<svg version="1.1" id="Capa_1" xmlns="http://www.w3.org/2000/svg" xmlns:xlink="http://www.w3.org/1999/xlink" x="0px" y="0px" viewBox="0 0 800 578.9" style="enable-background:new 0 0 800 578.9;" xml:space="preserve">

<g>
	<path d="M796.1,171.3C792.4,128.1,783,84.1,792,41c0.5-2.5-0.8-5.6-3.6-6c-41.2-8.1-82.6-16.1-124.5-20.4
		c-43.2-4.5-86-2.3-129.3-0.3c-21.7,0.9-43.4,1.4-65.1-0.3c-21.8-1.7-43.5-5.3-65.2-8.4c-42.6-5.9-85-6.8-127.9-4
		c-43.7,2.8-87.4,7.7-131,11.9c-21.4,2-42.7,4.2-64,6.2C66.4,21,45.7,18.4,41,36.4C35.8,56.8,32.5,78,29,98.8
		c-3.6,20.6-7,41.2-9.9,61.8c-5.9,41.7-10.5,83.6-13.6,125.6C1.9,334.2,0,382.4,0,430.4c0,19.8-0.3,41,9.3,58.9
		C17.2,504,32.5,515,49.6,514c0.2,2.5,1.7,5,4.8,5.1c175.2,11.3,350.5,19.5,526,24.5c49.4,1.4,98.7,2.6,148.1,3.6
		c2.3,0,3.9-1.2,4.3-2.9c9.1,3.7,19.4,2.5,28.3-2.2c12.4-6.4,19.7-18.3,23.4-31.3c4.5-15.6,4.6-32.5,5.9-48.6
		c1.5-19.7,2.9-39.2,4.3-58.9C799.9,326.3,802.8,248.6,796.1,171.3z" style="fill:var(--illu-bg--main);"/>
	<path d="M710.8,315.8c11.2-13.6,2.9-31.3-1.5-46c-5.3-17.3-9.3-35.9-16.4-52.5c-5.6-12.9-17.8-24.2-32.5-20.3
		c0.2-1.4,0.2-2.6-0.2-4c14.4-8.4,17.8-31.9,12.4-46.3c-2.8-7.3-9.8-11.9-16.4-12.2c-0.8-0.6-1.7-0.9-2.8-0.9
		c-19.5,0.5-24.6,22.3-23.7,38.4c0.5,8.8,4.8,17.3,11.5,21.5c-0.3,0.8-0.5,1.5-0.8,2.3c-20.6,3.7-35.3,19.5-46.2,36.6
		c-12.9,20.3-24,41.4-38.3,60.7c-7.4,10.1-15.2,20-23.4,29.4c-4,4.6-12.7,12.9-5,18.7c6.4,4.8,16.7-0.8,22.6-3.7
		c9-4.5,17-11,24.3-18c12.7-12.2,24-26,34.9-40.1c-12.2,49.9-24.5,99.7-37.9,149.3c-7.7,28.8-16,57.5-24.8,86
		c-2,6.8-4.2,13.5-6.4,20.3c-1.7,5.6-5.1,12.2-3.9,18.3c0.8,4.2,3.7,6.5,7.1,8.8c6.5,4.5,13.3,8.5,20,12.9c3.7,2.5,7.4-1.5,6.8-5.3
		c-0.5-3.4-2-5.9-3.3-9c-2.5-6-1.5-10.8,1.1-16.6c3.7-7.6,8.7-14.7,12.9-22c9-15.3,17.5-31,25.6-46.8c12.5-24.8,24-50.2,34.4-76.1
		c9.3,55.1,18.4,110.3,27.7,165.4c0.3,1.4,1.9,2.9,3.3,3.3c11,1.9,21.8,1.7,32.8-0.5c3.1-0.6,4.2-4.3,2.8-6.8
		c-1.4-2.6-3.4-4-6.2-5.1c-4.8-1.7-7.6-0.8-7.4-7.3c0.3-10.8,1.7-21.5,2.2-32.4c1.1-22.3,1.1-44.8,0.2-67.1
		c-1.5-37.2-5.7-74.2-12.5-110.7C693.9,331.6,703.8,324.3,710.8,315.8z" style="fill:var(--illu-brown--light);"/>
	<path d="M712.2,273.5c-3.4-11.6-7-23.1-10.8-34.4c-5.6-16.4-10.7-35.9-28.2-43.1c-1.5-0.6-3.4,0.2-4.5,1.2
		c-5.7,5.1-12.9,8.1-20.6,8.5c-8.1,0.5-13.8-3.1-21.1-5.4c-13.9-4.5-23.7,13.2-30.8,22.3c-15.3,19.5-28.3,40.4-39.2,62.6
		c-0.8,1.1-1.5,2.3-2.3,3.4c-1.9,2.9-7.1,9.6-8.7,15.2c-1.5,2-1.7,5.3,1.1,7c10.4,6.4,21.2,17.3,33,8.8c6.2-4.5,11.9-9.8,17.5-15.2
		l-32.4,114.5c-0.9,3.3,1.5,5.6,4.5,5.9c42.6,5.4,86.1,10.5,128.1-1.1c2-0.6,3.3-2.5,3.4-4.5c0.9-11.9,0.6-23.9-0.9-35.6
		c-1.4-10.8-4.8-21.2-6.4-32.1c-1.2-8.4-0.6-16.7,3.6-23.4c5.9-3.4,11.3-7.6,15.2-13c3.1-2.9,5.3-6.4,5.7-11.6
		C719.3,293.5,714.8,282.8,712.2,273.5z" style="fill:var(--illu-yellow--main);"/>
	<path d="M393.1,253.4c-6-27.9-35.6-40.1-61.8-37.8c-27,2.5-52.8,14.1-62.7,40.9c-10.4,28,2.8,58.2,26.6,74.3
		c1.2,0.9,2.5,0.9,3.6,0.6l0,0c21.5,12.4,49.7,10.5,68.8-5.7C386.8,309.4,398.5,278.1,393.1,253.4z" style="fill:var(--illu-blue--light);"/>
	<path d="M369.4,324.8c-8.4-2.9-20-1.4-28.8-1.4c-10.8-0.2-21.8,0.2-32.7,0.6c-5.7,0.2-17.7-1.5-21.7,3.9
		c-2.2,3.1-1.4,5.6,0.5,7.4c0.6,1.7,2,3.1,4.2,3.3c21.2,1.2,42.6,3.9,63.8,3.7c5.6,0,16,0.2,19.5-5.1
		C377.6,332,374.2,326.5,369.4,324.8z" style="fill:var(--illu-red--light);"/>
	<path d="M425.3,336.4c-6.8-7.9-37.6-29.9-43.2-9.9c-2.6,9.1,6.7,11,13.2,12.4c10.7,2.2,18.7,9.9,22.1,19.8
		c0.3,1.4,0.5,2.6,0.6,4c0.9,7.6,2.2,20,13.2,18.3C450.3,378.2,431.5,343.7,425.3,336.4z" style="fill:var(--illu-blue--main);"/>
	<path d="M163.4,508c-2.2-13.5-3.1-27-2.9-40.6c0-1.9-1.4-4.2-3.4-4.5c-9-1.5-17.8-2.3-27-2.3c-0.8,0-1.5,0.2-2.2,0.6
		c-2.8-0.9-6.4,0.5-6.2,4.2c0.3,6.8,0.5,13.6,0.8,20.3c0.2,4.5,2.3,13.9-0.8,17c-3.1,3.1-8.4,4.8-11.8,7.7c-4,3.4-7.4,7.4-10.5,11.6
		c-2.6,3.7,1.7,7.4,5.3,6.8c19.1-2.9,37.6-8.1,55.6-15.3C162.8,512.8,163.9,510.8,163.4,508z" style="fill:var(--illu-blue--main);"/>
	<path d="M223,494.1c-0.5-9.4,0.6-20.1-1.4-29.4c-1.2-5.9-5.4-6.5-10.8-7c-5.1-0.5-10.2-0.9-15.5-1.4
		c-3.1-0.3-6.8-0.9-9.6,1.2c-0.3,0.2-0.5,0.5-0.6,0.6c-1.7,0.5-3.1,1.9-3.1,4.3c0,1.4,0.2,2.8,0.2,4.2c0,1.4,0,2.8,0.2,4.2
		c0.2,4.3,0.3,8.7,0.3,12.9c0.2,6.2,1.7,13.6,0,19.5c-2.2,7.7-12.4,10.1-14.9,18.6c-1.1,3.6,2.3,6.5,5.7,5.7l28-6.7
		c6.4-1.5,14.1-2.6,18.6-7.9C224.7,507.7,223.4,500.6,223,494.1z" style="fill:var(--illu-blue--main);"/>
	<path d="M406.4,338.1c-7-1.1-14.6-0.5-21.7-0.6c-8.2-0.2-16.4-0.3-24.6-0.5c-16.4-0.3-32.7-0.6-49.1-0.8
		c-13.9-0.3-28.8-2-42.1,2.9c-1.5,0.6-2.5,1.5-2.8,2.8c-1.9,0.5-3.3,1.9-3.3,4.3c0.2,5.6-1.7,15.2,2.5,19.7c3.7,4,10.4,0,12.5,3.4
		c2.3,3.6,1.9,11.5,2.5,15.5c0.6,4.5,1.1,9,1.5,13.5c1.1,9.4,2,19.1,2.8,28.7c3.1,37.6,3.7,75.4,2,113.2c-0.2,3.4,3.1,5,5.9,4.5
		l14.2-2c2-0.3,3.4-2.6,3.4-4.5c-0.6-55.1,0-110.3,1.9-165.4c22.1-2,44.5-2.8,66.6-2c0.5,57.3,0.9,114.6,1.4,171.9
		c0,1.5,0.9,3.3,2.3,4c10.2,5.6,21.4-1.2,24.6-11.6c2.2-7,1.4-14.4,1.1-21.7c-0.5-9.6-1.1-19.2-1.4-28.8
		c-1.7-37.3-2.9-74.5-3.6-111.8c3.7,0.2,7.1-0.3,10.8-1.1c1.9-0.5,3.6-2.5,3.4-4.5C416.7,357.1,419.4,340.3,406.4,338.1z" style="fill:var(--illu-brown--light);"/>
	<path d="M405.7,65.9c-0.3-2-2.6-3.4-4.5-3.4C314,60.7,226.8,64.4,140,73.7c-2.3,0.3-4.8,1.9-4.6,4.6
		c0.3,4.5,0.6,9,0.9,13.3c0,3.3,0,6.5,0,9.8c0,4.3-0.8,9.6,1.4,13.6c4,7.6,16.1,7,23.4,7.7c25.2,2.5,50.5,1.4,75.7,0.5
		c51.6-2,103.3-3.9,154.9-5.9c8.4-0.3,18,0.3,18.3-10.4C410.5,93.4,407.8,79.1,405.7,65.9z" style="fill:var(--illu-brown--light);"/>
	<path d="M250.5,102.8c-1.1-8.2-1.2-16.4-0.8-24.8c0.3-6-9-5.9-9.3,0c-0.5,8.2-0.3,16.4,0.8,24.8
		C241.9,108.7,251.2,108.8,250.5,102.8z" style="fill:var(--illu-bg--light);"/>
	<path d="M307.3,77.6c-1.1-5.9-10.1-3.4-9,2.5c1.2,7.4,1.4,14.7,0.6,22.1c-0.6,5.9,8.7,5.9,9.3,0
		C309.2,94,308.9,85.8,307.3,77.6z" style="fill:var(--illu-bg--light);"/>
	<path d="M369.7,78.2c0-6-9.3-6-9.3,0c0,7.4,0.2,14.9,0.8,22.3c0.5,5.9,9.8,6,9.3,0C370,93,369.7,85.6,369.7,78.2z" style="fill:var(--illu-bg--light);"/>
	<path d="M215.8,145.6c-6.8-5.3-13.8-10.4-20.9-15c-2.3-1.5-5.4-4-8.7-6c3.6-4.8,6-10.1,5-16.3
		c-1.4-7.9-8.7-13.9-16.7-11.2c-5.6,2-3.7,11,2,9.1c4.6-1.5,6.4,2.9,5.6,6.8c-0.6,3.1-2.6,5.7-4.8,8.2c-0.3,0-0.8,0-1.1,0.2
		c-3.7,0.8-7.9,4-11.3,5.7l-12.1,6.2c-8.5,4.3-16.9,8.8-25.4,13.2c-5.3,2.8-1.1,11,4.2,8.2c15-7.7,29.9-15.5,44.9-23.4
		c0.8,0.3,1.5,0.5,2.3,0.3c11.2,6.5,21.7,13.6,31.9,21.5C215.5,157,220.4,149.1,215.8,145.6z" style="fill:var(--illu-red--light);"/>
	<path d="M568.4,559.1c-3.3-8.2-9.9-15.3-17.3-19.8c-4.6-2.8-10.7-4.3-15.3-0.8c-5.1,2.8-7.1,9.6-5,14.9
		c-0.2,1.2,0.3,2.5,1.5,3.4c5.9,4.8,11.8,9.4,17.7,14.1c3.9,2.9,7.7,6,12.4,6.8c1.2,0.6,2.6,0.9,3.9,1.1
		C577.3,580,573.1,567.9,568.4,559.1z" style="fill:var(--illu-red--light);"/>
	<path d="M713.3,556.3c-8.4-7-19.5-10.8-30.4-11.6c-3.6-0.3-9.4-1.1-12.7,1.2c-0.3,0-0.8,0-1.1,0c-1.9,0-4,1.4-4.5,3.4
		c-0.9,4.5-0.5,8.4,1.2,12.4c-1.1,2.3-0.5,5.6,2.8,6.4c13,2.9,27.7,4.8,41,2.5C718.8,568.9,720.1,561.9,713.3,556.3z" style="fill:var(--illu-red--light);"/>
	<path d="M263.6,283.7c-0.6-5.9-1.2-11.8-2-17.7c-3.1-24.9-7.6-49.9-17-73.3c-4.5-11.2-9.8-21.8-16.6-31.6
		c-2.6-3.9-5.9-9.8-10.4-11.6c-4.2-1.7-7.7,0.2-11.5,2c-22.9,11.3-50.3,8.2-70.6-6.8c-1.5-1.2-3.3-1.1-4.5-0.3
		c-1.5-0.8-3.4-0.6-5.1,0.9c-23.2,22.6-42.6,48.8-57.2,77.8c-7,13.9-13.2,28.7-17.7,43.7c-1.5,5.1-2.3,10.7,2.2,14.4
		c5.4,4.6,16.1,4.5,22.9,5.7c2.6,0.5,4.6-0.8,5.7-3.3c9.6-24,20.4-48.3,38.1-67.4c-6.5,39.3-9.6,79.3-8.7,119.3
		c0.5,22.5,2.2,44.8,5.1,67.1c0.9,7.3,0.8,16.4,7.1,21.4c7,5.4,18,6.5,26.5,6.8c2.3,0.2,4.8-2.2,4.6-4.6
		c-3.7-39.5,0.8-79,13.2-116.3c5.4,24.5,9.6,49.3,12.4,74c0.8,6.8,1.5,13.8,2,20.6c0.5,5.4-0.2,12.7,2.8,17.7
		c2.2,3.7,5.7,4.8,9.8,5.6c6.8,1.2,13.8,1.7,20.6,2.6c2.6,0.3,4.5-2.3,4.6-4.6c2-56.2,2.9-112.5,2.5-168.8
		c4,18.3,8.2,36.4,12.7,54.7c0.6,2.6,3.3,3.7,5.7,3.3c8.5-1.5,22.5-0.9,24.3-11.8C266.1,297,264.2,289.8,263.6,283.7z" style="fill:var(--illu-white--light);"/>
	<path d="M207.2,227.6c-0.5-7.4-1.5-14.9-2.9-22.1c-0.3-2-2.6-3.4-4.5-3.4c-15.8-0.6-31.6-0.8-47.2-0.3
		c-2.8-1.5-7.1-0.3-7,3.9c0.5,8.1,0.8,16.1,1.2,24c0.3,6.8-0.5,14.7,1.2,21.2c1.2,4.6,4.3,6.5,9,6.8c7.4,0.6,15.2-0.3,22.6-0.3
		c9.1-0.2,24.6,2.6,27.6-9.3C208.8,241.7,207.7,234,207.2,227.6z" style="fill:var(--illu-yellow--main);"/>
	<path d="M132.3,207.7c-0.5-0.3-1.1-0.5-1.5-0.6c0,0,0,0-0.2,0h-0.2c-0.8-0.2-1.5-0.3-2.3,0h-0.2
		c-1.1,0.3-2,0.8-2.8,1.7c-1.4,1.4-2.5,3.7-2.3,5.7c0,0,0,0,0,0.2c0,0.5,0,1.1,0.2,1.5c0.5,2.2,2,4.2,4.2,4.8c2.3,0.6,5-0.2,6.7-1.9
		C137.1,215.7,136.3,210,132.3,207.7z" style="fill:var(--illu-blue--main);"/>
	<path d="M129.3,229.7c-3.9-0.2-7.7,2.9-7.6,7c0,0.3,0.2,0.8,0.2,1.1c0.2,2.6,1.5,5.3,4,6.5c4.2,2.2,9.3-1.7,10.1-5.9
		C137.1,234,134,229.8,129.3,229.7z" style="fill:var(--illu-blue--main);"/>
	<path d="M181.8,103.7c-1.1-7.3-1.2-14.4-0.6-21.8c0.5-5.9-8.7-6.8-9.3-0.8c-0.8,8.1-0.5,16.3,0.6,24.3
		C173.6,111.3,182.8,109.6,181.8,103.7z" style="fill:var(--illu-bg--light);"/>
	<path d="M375.9,246.9c-3.3-5.7-18.1-20.6-23.5-9.1c-2.2,4.5,0.5,10.5,2.3,14.7c2.5,5.4,6,10.2,10.4,14.1
		c1.9,1.7,4,1.5,5.7,0.5c3.7,0.6,7.4-1.2,8.5-5.4C380.7,256.9,378.2,250.7,375.9,246.9z M369.3,254.4c-1.7-2.3-3.7-4.6-4.5-7.1
		c0.3,0.3,0.6,0.8,0.9,1.1C367.2,250.1,368.5,252.3,369.3,254.4z" style="fill:var(--illu-white--light);"/>
	<path d="M654.1,173.4c-6,0-6,9.3,0,9.3S660.1,173.4,654.1,173.4z" style="fill:var(--illu-bg--light);"/>
	<path d="M669.9,173.4c-6,0-6,9.3,0,9.3C675.8,182.7,675.8,173.4,669.9,173.4z" style="fill:var(--illu-bg--light);"/>
	<path d="M663.1,185.8l-9-1.1c-2.5-0.3-4.6,2.3-4.6,4.6c0,2.8,2.2,4.3,4.6,4.6l9,1.1c2.5,0.3,4.6-2.3,4.6-4.6
		C667.7,187.7,665.6,186.1,663.1,185.8z" style="fill:var(--illu-bg--light);"/>
	<path d="M567.5,550c-1.9-1.7-4.8-1.9-6.5,0l-2,2c-1.7,1.7-1.9,4.8,0,6.5s4.8,1.9,6.5,0c0.6-0.6,1.4-1.4,2-2
		C569.2,554.8,569.4,551.7,567.5,550z" style="fill:var(--illu-bg--light);"/>
	<path d="M575,562.2c-0.8-2.3-3.3-4.2-5.7-3.3c-1.1,0.3-2,0.8-3.1,1.1c-1.1,0.5-2.2,1.1-2.8,2.2
		c-0.6,0.9-0.8,2.5-0.5,3.6c0.8,2.3,3.3,4.2,5.7,3.3c1.1-0.3,2-0.8,3.1-1.1c1.1-0.5,2.2-1.1,2.8-2.2
		C575,564.8,575.3,563.3,575,562.2z" style="fill:var(--illu-bg--light);"/>
	<path d="M699.8,545.9c-2-1.9-4.5-1.5-6.5,0c-1.7,1.4-3.4,2.8-5.1,4.2c-1.9,1.5-1.7,5,0,6.5c2,1.9,4.5,1.5,6.5,0
		c1.7-1.4,3.4-2.8,5.1-4.2C701.7,551.1,701.5,547.5,699.8,545.9z" style="fill:var(--illu-bg--light);"/>
	<path d="M710.9,551.1c-1.2-2-4.2-3.1-6.4-1.7l-3.1,2.2c-1.1,0.8-1.9,1.5-2.2,2.8c-0.3,1.1-0.2,2.6,0.5,3.6
		c1.2,2,4.2,3.1,6.4,1.7c1.1-0.8,2-1.4,3.1-2.2c1.1-0.8,1.9-1.5,2.2-2.8C711.7,553.5,711.6,552,710.9,551.1z" style="fill:var(--illu-bg--light);"/>
	<path d="M304.1,368h-12.4c-6,0-6,9.3,0,9.3h12.4C310.1,377.3,310.1,368,304.1,368z" style="fill:var(--illu-bg--light);"/>
	<path d="M405.2,366.9c-4.5-0.5-9-0.9-13.5-1.2c-2.5-0.3-4.6,2.3-4.6,4.6c0,2.8,2.2,4.3,4.6,4.6c4.5,0.5,9,0.9,13.5,1.2
		c2.5,0.3,4.6-2.3,4.6-4.6C409.8,368.9,407.8,367.2,405.2,366.9z" style="fill:var(--illu-bg--light);"/>
	<path d="M223.7,217.4c-0.8-5.9-9.8-3.4-9,2.5c2.2,15,3.1,30,3.3,45.2c0,6,9.3,6,9.3,0
		C227.2,249.2,225.8,233.4,223.7,217.4z" style="fill:var(--illu-bg--light);"/>
	<path d="M191.4,213.9c-9.9,0.5-20,0.9-29.9,1.4c-5.9,0.3-6,9.6,0,9.3c9.9-0.5,20-0.9,29.9-1.4
		C197.5,222.8,197.5,213.6,191.4,213.9z" style="fill:var(--illu-bg--light);"/>
	<path d="M192.5,238.3c-9.3-0.5-18.6-1.1-27.9-1.5c-6-0.3-5.9,9,0,9.3c9.3,0.5,18.6,1.1,27.9,1.5
		C198.6,247.9,198.6,238.6,192.5,238.3z" style="fill:var(--illu-bg--light);"/>
	<path d="M397.1,319.7l-6.7,11.8c-2.9,5.3,5.1,9.9,8.1,4.6c2.2-3.9,4.3-7.7,6.7-11.8C408.1,319,400.1,314.4,397.1,319.7
		z" style="fill:var(--illu-bg--light);"/>
	<path d="M158.5,477c-10.7-0.8-21.2-2.5-31.8-5c-5.9-1.4-8.4,7.6-2.5,9c11.3,2.6,22.6,4.3,34.2,5.3
		C164.5,486.8,164.5,477.5,158.5,477z" style="fill:var(--illu-bg--light);"/>
	<path d="M219.3,471.6c-12.4-1.4-24.8-2.8-37-4c-5.9-0.6-5.9,8.7,0,9.3c12.4,1.4,24.8,2.8,37,4
		C225.2,481.5,225.2,472.2,219.3,471.6z" style="fill:var(--illu-bg--light);"/>
	<path d="M689.3,215.3c-25.2,11.3-54.7,9.6-78.7-4c-5.3-2.9-9.9,5.1-4.6,8.1c27.1,15.3,59.6,16.7,88.1,4
		C699.3,220.8,694.7,212.8,689.3,215.3z" style="fill:var(--illu-blue--main);"/>
	<path d="M695.9,239.3c-33.8,12.9-71.6,11-103.9-5.4c-5.3-2.8-10.1,5.3-4.6,8.1c34.4,17.5,74.8,20.1,111.1,6.4
		C703.8,246.2,701.5,237.1,695.9,239.3z" style="fill:var(--illu-blue--main);"/>
	<path d="M708.8,266.5c-43.8,5.6-91.9,9.9-130.3-16.6c-5-3.4-9.6,4.6-4.6,8.1c39.8,27.4,89.5,23.5,135.1,17.8
		C714.7,275,714.8,265.8,708.8,266.5z" style="fill:var(--illu-blue--main);"/>
	<path d="M649.1,290.1c-28.8,3.4-57.2-3.6-80.9-20.1c-5-3.4-9.6,4.6-4.6,8.1c24.9,17.3,55.5,24.9,85.7,21.4
		C655,298.6,655,289.3,649.1,290.1z" style="fill:var(--illu-blue--main);"/>
	<path d="M708,311.9c-8.7-6.8-16.1-15-21.7-24.5c-3.1-5.1-11.2-0.5-8.1,4.6c6,10.2,13.8,19.1,23.2,26.3
		C706.1,322.1,712.7,315.6,708,311.9z" style="fill:var(--illu-blue--main);"/>
	<path d="M682.3,325.8c-6.5-9.1-10.7-19.2-12.9-30.2c-1.1-5.9-10.1-3.4-9,2.5c2.3,11.8,7,22.6,13.8,32.4
		C677.6,335.5,685.9,330.8,682.3,325.8z" style="fill:var(--illu-blue--main);"/>
	<path d="M617.1,317c-4.5-0.6-9-1.2-13.6-1.9c-2.5-0.3-5,0.6-5.7,3.3c-0.6,2.2,0.8,5.4,3.3,5.7c4.5,0.6,9,1.2,13.6,1.9
		c2.5,0.3,5-0.6,5.7-3.3C621,320.6,619.6,317.3,617.1,317z" style="fill:var(--illu-blue--main);"/>
	<path d="M693.9,354.2c-17,2.2-33.9,1.9-50.8-1.2c-5.9-1.1-8.4,7.9-2.5,9c17.7,3.3,35.5,3.9,53.3,1.5
		C699.8,362.7,699.8,353.4,693.9,354.2z" style="fill:var(--illu-blue--main);"/>
	<path d="M696.9,384.6c-38.1,7-77.1,6.4-115.1-1.5c-5.9-1.2-8.4,7.7-2.5,9c39.7,8.4,80.2,8.8,120,1.5
		C705.2,392.5,702.7,383.5,696.9,384.6z" style="fill:var(--illu-blue--main);"/>
	<path d="M696.4,282.5c-5-16.3-10.7-32.2-17.2-47.9c-2.3-5.4-11.3-3.1-9,2.5c6,14.2,11.3,28.8,16,43.7
		c-10.8,3.6-21.8,7.3-32.7,10.8c-5.6,1.9-3.3,10.8,2.5,9c12.4-4.2,24.9-8.2,37.3-12.4C695.5,287.4,697.2,285.1,696.4,282.5z" style="fill:var(--illu-bg--light);"/>
	<path d="M691.9,328.9c-10.7,2-21.2,3.6-32.1,4.8c-5.9,0.6-5.9,9.9,0,9.3c11.6-1.4,23.1-3.1,34.5-5.3
		C700.1,336.8,697.6,327.9,691.9,328.9z" style="fill:var(--illu-bg--light);"/>
	<path d="M640.3,209.2c-2.3-6.5-10.1-24.3-19.1-13.3c-3.7,4.6,2.8,11.2,6.5,6.5c-0.5,0.6,4.6,12.4,5.1,14.2
		c1.7,5.9,2.6,11.9,3.1,18c0.9,11,0.2,22.1-1.1,33.1c-2.8,23.4-7.4,46.8-11.6,70c-4.6-1.7-9.4-3.3-14.2-4.8
		c-8.4-2.5-19.5-7.3-28.8-7l0.9-2.9c0.8-2.3-0.8-5.1-3.3-5.7c-2.5-0.6-5,0.8-5.7,3.3c-0.6,2.2-1.4,4.3-2,6.7
		c-0.3,0.9-0.2,1.9,0.2,2.8c-3.1,3.4-4,8.5-3.7,13.6c-1.2,3.3-2.5,6.7-3.4,9.9c-1.2,4-3.1,9-1.7,13.2c2.6,7.6,14.2,9.4,20.8,11.2
		c10.7,2.6,21.7,4,32.7,4c9.8,0,15-1.4,18.4-11.2c2.5-6.8,6.2-19.5,1.9-26.3c-0.8-1.2-1.9-2.3-3.1-3.1c5.4-30,12.5-60.6,13.5-90.9
		C646,236.6,644.8,222.4,640.3,209.2z" style="fill:var(--illu-red--light);"/>
	<path d="M600.8,288.2c-5,4.8-9.8,9.4-14.7,14.2c-4.5,4.3-8.8,8.7-15,10.2c-5.7,1.4-3.4,10.4,2.5,9
		c13.8-3.4,24.2-17.3,33.8-26.8C611.7,290.5,605,284,600.8,288.2z" style="fill:var(--illu-blue--light);"/>
	<path d="M629.9,352.3c-10.5,4-21.1,2.9-31.8-0.3c-9.1-2.8-20.1-5.7-26.8-12.9c-4.2-4.3-10.7,2.2-6.5,6.5
		c7.9,8.2,20.3,11.9,31,15.2c12.1,3.7,24.6,5,36.7,0.3C638,359.2,635.5,350.2,629.9,352.3z" style="fill:var(--illu-bg--light);"/>
	<path d="M601.3,349.4c-1.1-3.3-5.3-4.6-7.7-2c-1.4,1.4-2.5,2.9-3.3,4.6c-2.9,4.5-4,10.1-2,15.3c1.2,3.4,5.1,4.5,7.7,2
		C601.6,364.4,603.6,356.5,601.3,349.4z" style="fill:var(--illu-yellow--main);"/>
	<path d="M591.2,308.3c-13.2-2.8-24.8-8.7-34.7-17.7c-4.5-4-11,2.5-6.5,6.5c11.2,10.1,24.2,16.9,38.9,20.1
		C594.5,318.6,597.1,309.6,591.2,308.3z" style="fill:var(--illu-blue--main);"/>
	<path d="M612.6,254.3c-6.8,19.1-14.2,37.9-22.1,56.5c-2.3,5.4,5.7,10.2,8.1,4.6c8.4-19.4,16.1-39,23.1-58.9
		C623.6,251.2,614.6,248.7,612.6,254.3z" style="fill:var(--illu-bg--light);"/>
	<path d="M640.2,135.8c-10.2,6-16.1,18.3-21.2,28.5c-6.7,13.3-12.4,27.1-18.4,40.7c-4.2,9.3-10.1,20.1-1.2,28.7
		c7.1,7,18,6,25.6,0.5c9.6-7.1,12.9-19.4,16.1-30.4c3.3-10.7,6-21.4,8.8-32.2c0.2,0,0.3,0,0.5,0c6.5,0,12.9,0,19.4,0
		c2.2,0,4.3-0.2,6-0.9c1.7-0.3,3.3-1.9,3.6-3.4C683.8,146.6,660.1,124,640.2,135.8z" style="fill:var(--illu-bg--light);"/>
	<path d="M649.5,312.2c-2.8-4.3-7.9-5.7-12.1-4.3c-6.2,0.2-15,2.3-17,8.4c-3.1,3.7-3.9,8.7,1.1,12.4
		c6.2,4.8,18.9,5.3,26,2.5C654.7,328.5,653,317.5,649.5,312.2z" style="fill:var(--illu-brown--light);"/>
</g>
</svg>
