<?xml version="1.0" encoding="utf-8"?>
<!-- Generator: Adobe Illustrator 23.0.2, SVG Export Plug-In . SVG Version: 6.00 Build 0)  -->
<svg version="1.1" id="Capa_1" xmlns="http://www.w3.org/2000/svg" xmlns:xlink="http://www.w3.org/1999/xlink" x="0px" y="0px" viewBox="0 0 800 1017.3" style="enable-background:new 0 0 800 1017.3;" xml:space="preserve">

<g>
	<path d="M687.2,840.2c-49.9-9.2-100.2-14.4-150.9-16.1c-18.1-14.8-43.2-17.6-64.3-9c-108.4-9.5-220.4-15.8-325.6,15.3
		c-25.6,7.5-50.4,17.6-74.1,30C49.8,872.2,22,886.8,8.8,909.5c-30,51.5,42.1,76,78.3,84.1c65.5,14.8,132.8,19.8,199.6,21.9
		c67.7,2,135.7,2.4,203.3,0.8c65.1-1.4,130.2-6.1,193.8-20.2c40.4-9,110.9-22.6,115.8-74.3C805.8,864.4,729.1,847.6,687.2,840.2z" style="fill:#F7D3BD;"/>
	<path d="M391.9,284.5C387.8,222.6,372,106,286.7,109.7l0,0c11.2-5.8,17.8-19.3,19-33.9c2-25.6-9.2-51.2-29.2-67.5
		c-1.7-1.4-3.4-2-5.3-2c-20.7-6.1-35.9,25.9-37.8,41.7c-2.4,21.9,7,53.6,29.7,61.9c0,1.2,0,2,0,3.2c0.3,1.2,0.3,2.4,0.3,3.4
		c-43.2,7.5-63.9,49-71.2,89c-4.9,26.8-7.8,53.9-11.2,80.7c-2.9,22.2-8.6,47.3,5.8,66.8c9.5,13.2,20.7,17,32,15.6
		c2.4,104.3,2,179.7-0.8,284c-1.4,53.2-3.7,106.7-6.3,159.9c-1.2,23.4,2.4,49-16.8,65.6c-11.9,10.7-24.8,19-28.5,35.4
		c-1.7,6.6,4.1,11.9,10.7,10.7c23.9-4.6,42.6-14.8,62.7-27.3c9.2-5.8,13.6-5.3,24.2-2.5c5.3,1.4,9.8,3.4,14.9,4.6
		c12.7,3.2,25.6,4.1,38.7,4.1c4.9,0,8.6-4.1,8.6-8.6c0.5-14.9-10.3-23.1-20.2-32.6c-15.8-15.3-4.1-46.6-1.2-66.3
		c7.8-51.9,15.6-103.4,23.4-155.3c15.6-102.6,30.9-176,46.5-278.6C401.3,356.2,393.2,306.4,391.9,284.5z" style="fill:#C39A8A;"/>
	<path d="M382.5,201.2c-11-34.9-27.3-68.5-58.5-89.5c-3.4-2.4-7.5-0.8-10.3,1.4c-26.8,21.9-67.7,17.8-90.7-7.1
		c-4.1-4.2-10.7-2.5-13.6,1.7c-9.2,13.2-11.2,29.2-11.5,44.9c-0.5,17.3,1.4,37.5-11.5,51c-2.4,2.4-2.9,4.9-2.4,7.5
		c0,0.5-0.3,0.8-0.3,1.4c-3.2,20.7-6.6,41.2-9.8,61.9c-1.7,11-3.4,21.9,8.3,27.6c10.7,5.3,30,9.2,42.1,8.6
		c14.4-0.8,21-16.1,28.1-26.5c10.3-15.6,21.4-30.5,32.2-45.8c5.8-7.8,11.5-15.8,17.6-23.6c2.4-3.2,5.3-9,8.3-11
		c1.2-3.2,3.2-3.4,5.8-0.5c0.8,2.4,1.7,4.2,2.5,6.6c4.9,16.4-5.4,33.1,0.8,48.7c6.1,14.4,20.7,27.6,30.5,39.7
		c5.3,6.3,14.4,0.5,14.8-6.1c0.3-6.6,0.5-13.6,0.8-20.2c9.5-0.3,18.5-6.3,22.7-15.8C396.4,238.7,387.8,217.4,382.5,201.2z" style="fill:#EF7D95;"/>
	<path d="M383.4,370.3c0-3.7-2.5-7.1-6.3-8.3c-29.2-8.6-52.7-29.3-64.6-57.3c-2.4-5.8-9.5-9-14.4-3.7
		c-23.6,23.4-48.7,44.4-75.8,63.6c-4.2-3.7-12.4-3.4-13.9,3.7c-11.2,55.6-19.8,111.4-25.6,167.7c-1.4,13.6-4.6,28.5-3.7,42.1
		c0.5,7.1,3.4,13.2,11,16.1c11,4.1,25.9,1.4,37.5,1.2c14.1,0,28.1-0.3,42.1-0.8c29.2-0.8,58.2-2.4,87-4.9c8.6-0.8,17.6-1.2,22.2-9.8
		c4.2-8.6,2-21.4,2.4-30.2C382,489.8,382.5,430.3,383.4,370.3z" style="fill:#EF7D95;"/>
	<path d="M286.4,7.8c-20.2-13.6-42.9-9-56.5,10.7c-5.4,7.8-9.2,19.7-18.1,24.2c-5.8,2.9-13.2,1.4-19.7,3.2
		c-5.3,1.4-10,4.1-14.4,7.1c-9.2,7.1-12.9,16.4-16.8,27.1c-6.1,17-21.4,17.3-32.6,29.2c-15.6,16.4-15.6,47-8.6,67.1
		c14.4,41.7,83.6,55.6,105.1,13.6c4.9-9.5,9-10,18.5-13.6c5.4-2,10-5.3,14.1-9.2c7.5-8.1,11-19.3,9.8-30c-0.5-5.4-5.3-10.7-5.8-15.6
		c-0.5-6.1,5.3-10.7,6.3-16.1c2.5-10.7-1.7-19.8-7.5-28.1c6.3-4.6,11.9-9.8,16.8-15.8c11.9,10,28.8,17,38.3-0.5
		C324.4,43.4,298.9,16.4,286.4,7.8z" style="fill:#EDEDED;"/>
	<path d="M366.9,308.8c-16.1-18.1-31.7-36.6-46.6-56c2-5.4,3.7-11,5.3-16.8c2-7.5,5.8-18.1,3.7-26.3
		c-5.3-19.8-24.2-8.1-32.9,1.2c-29.2,30.9-46.1,73.1-83.3,96c-9.5,5.8-0.8,20.7,8.6,14.9c25.6-15.6,42.6-39.5,59.7-63.6
		c4.1-5.8,8.1-11.5,12.4-17.3c4.9-6.3,13.6-13.2,17.3-20.2c-0.8,3.4-1.4,7.1-2.4,10.7c-0.8,2.9-1.7,5.8-2.5,8.6
		c-6.3,0-12.4,6.1-7.8,12.4c0.8,0.8,1.4,2,2.4,2.9c-0.8,2.4-2,4.9-2.9,7.1c-4.2,10,10.3,19,14.9,8.6c0,0,0-0.3,0.3-0.3
		c13.2,17,27.3,33.4,41.7,49.5C362.3,329.3,374.6,316.9,366.9,308.8z" style="fill:#C39A8A;"/>
	<path d="M389.1,282.3c-2.9-10.7-19.7-6.1-16.8,4.6c3.7,13.6,6.3,27.1,7,41.2c0.3,6.6,2,13.2-2.9,18.1
		c-2.4,2.4-4.9,2.9-7.1,2.5c0-0.8,0-1.7,0-2.9c-2.4-12.7-19.7-22.6-28.8-30.5c-11.9-10.3-24.4-20.5-33.9-33.1
		c-4.1-5.4-11.2-4.1-14.8-0.3c-1.7,0.3-3.4,0.8-5.3,2.5c-7.1,7.8-64.6,79.2-76.3,66.8c-7.8-8.1-19.8,4.1-12,12
		c13.2,13.9,33.9,0.5,45.8-8.6c19.3-15.6,35.1-35.9,51.5-54.4c0.3,1.4,0.8,2.9,1.7,4.1c12,15.6,25.1,30.5,39.7,43.7
		c10.7,9.5,23.4,19.7,38.3,18.1C411.9,362.8,395.2,303.5,389.1,282.3z" style="fill:#C39A8A;"/>
	<path d="M643,868.5c-0.3-12.9-0.3-26.3-0.5-39.2c-0.3-27.1-0.5-54.1-0.8-81.2c0-4.9-4.1-8.3-8.6-8.6
		c-7.1-0.5-14.4-0.8-21.5-1.4c-2.4-20.2-2.9-40.4-2-60.7c0-2.5-0.8-4.6-2-6.1c0-4.6-4.1-8.3-8.6-8.3c-7.5,0-15.3,0.5-22.7,0
		c-8.3-0.8-5.4-2.4-7-11.2c-1.2-7.5-1.2-17-8.3-21.9c-7-4.6-19-2.5-26.8-2.5c-14.9,0-30-0.3-44.9-0.3c-4.9,0-8.6,4.1-8.6,8.6
		c-0.3,11-0.8,21.9-2,32.9c-12.7-0.3-27.6-0.5-30.2,14.1c-1.7,10,0.3,21.5,0.5,31.7c0.3,9.5,0.5,18.7,0.8,28.1
		c-10.7-1.2-21.4-2-32-2c-4.6,0-8.6,4.1-8.6,8.6c0,11.5,0,23.4-0.3,34.9c-0.8,5.4-1.4,11-1.7,16.1c-1.2,22.7-1.7,45.3-2.5,68
		c-0.5,14.4-6.3,37.5,5.4,49c12,11.9,36.3,7,51.2,6.6c24.4-0.3,49-0.8,73.4-1.7c23.6-0.8,47.3-2,70.5-3.2
		c12.4-0.5,33.4,2.4,37.5-13.6C645.9,894.1,643.3,879.3,643,868.5z" style="fill:#F7D16F;"/>
	<path d="M325.6,874.4c-6.3-9.2-21.9-15.3-22.7-26.5c-1.4-16.4,2-34.6,4.2-50.7c2.4-17.8,5.8-35.8,9.5-53.2
		c1.2-4.6-1.4-9.2-6.1-10.7c-32.6-10-66-11.5-99.4-5.3c-6.6,1.2-7.5,7.8-4.9,12.4c-2,18.7-3.7,37.1-5.8,56
		c-2,18.7-1.7,39.2-5.8,57.7c-3.7,17.8-23.4,32.2-35.8,45.4c-7.5,8.1-19,19.3-11,30.9c13.6,19.8,54.9,0,70.4-8.1
		c7.1-3.7,13.9-8.3,20.5-12.9c9.5-7.1,14.9-6.6,26.5-4.9c19.8,3.2,39.7,6.3,59.9,9.8c5.3,0.8,11.5-2.4,11-8.3
		C335.4,894.4,332.2,883.9,325.6,874.4z" style="fill:#74A3D7;"/>
	<path d="M611.8,727.9c-17.8,0.8-35.9,2.4-54.1,3.4c0.8-19,0.5-37.8-1.2-56.5c3.7-0.3,7.5-0.5,11.2-1.2
		c11-1.2,11-18.5,0-17.3c-29.7,3.2-59,2.9-88.5-1.4c-11-1.4-15.6,14.9-4.6,16.8c21.5,3.2,42.9,4.2,64.6,4.1c1.4,19,2,37.8,1.2,56.8
		c-32,1.7-63.6,2.4-95.3-1.2c-11-1.2-11,16.1,0,17.3c16.8,1.7,33.7,2.4,50.7,2.4c-0.3,57.3,1.2,114.6,4.2,171.9
		c0.5,11,17.8,11.2,17.3,0c-3.2-57.3-4.6-115-4.2-172.3c33.1-0.8,66-3.7,98.9-5.4C622.8,744.5,622.8,727.2,611.8,727.9z" style="fill:#57455E;"/>
	<path d="M269.9,602.6c-4.2,108.5-16.4,187.9-36.6,294.7c-2,11,14.8,15.6,16.8,4.6c20.5-108.4,33.1-189.2,37.5-299.3
		C287.6,591.2,270.3,591.2,269.9,602.6z" style="fill:#57455E;"/>
	<path d="M367.3,221.3c-1.4-11-18.1-6.3-16.8,4.6c2.9,22.6,2.9,45.3-0.3,67.7c-1.4,11,14.9,15.6,16.8,4.6
		C370.8,272.1,370.8,246.9,367.3,221.3z" style="fill:#57455E;"/>
	<path d="M218,228.9c-1.2,24.4-5.4,48.3-12,72.1c-3.2,10.7,13.6,15.3,16.8,4.6c7.1-25.1,11.2-50.4,12.7-76.6
		C235.9,218,218.7,218,218,228.9z" style="fill:#57455E;"/>
	<path d="M272.3,74.2c-11.2,0-11.2,17.3,0,17.3C283.5,91.5,283.5,74.2,272.3,74.2z" style="fill:#57455E;"/>
	<path d="M303.3,72c-11.2,0-11.2,17.3,0,17.3C314.5,89.2,314.5,72,303.3,72z" style="fill:#57455E;"/>
	<path d="M292.3,93.6c-1.7,0.3-3.4,0.3-5.3,0.3c-0.8,0-1.7,0-2.5,0c-0.3,0-2.9-0.3-1.2,0c-2.4-0.3-4.6-0.3-6.6,0.8
		c-1.7,1.2-3.4,3.2-4.1,5.3c-0.8,4.1,1.2,10,6.1,10.7c4.6,0.5,9,0.8,13.2,0.3c2.4-0.3,4.2-0.8,6.1-2.5c1.4-1.4,2.5-4.1,2.5-6.1
		C300.8,97.8,297.2,92.7,292.3,93.6z" style="fill:#57455E;"/>
	<path d="M312,252.6c-4.9,16.1-11.9,31-20.2,45.8c-5.8,9.5,9.2,18.5,14.9,8.6c9.2-15.8,16.4-32.6,21.9-49.9
		C331.8,246.5,315.2,241.9,312,252.6z" style="fill:#57455E;"/>
	<path d="M570.9,522.4v38.3c0,11.2,17.3,11.2,17.3,0v-38.3C588.2,511.2,570.9,511.2,570.9,522.4z" style="fill:#56597A;"/>
	<path d="M620.8,546.1c-4.6,9.5-9.5,18.7-14.1,28.1c-4.9,9.8,10,18.7,14.9,8.6c4.6-9.5,9.5-18.7,14.1-28.1
		C640.6,545,625.7,536,620.8,546.1z" style="fill:#56597A;"/>
	<path d="M664.9,572.1c-9,6.1-17.6,11.9-26.5,17.8c-9.2,6.1-0.5,21,8.6,14.9c9-6.1,17.6-11.9,26.5-17.8
		C682.7,580.7,674,565.6,664.9,572.1z" style="fill:#56597A;"/>
</g>
</svg>
