<?xml version="1.0" encoding="utf-8"?>
<!-- Generator: Adobe Illustrator 23.0.2, SVG Export Plug-In . SVG Version: 6.00 Build 0)  -->
<svg version="1.1" id="Capa_1" xmlns="http://www.w3.org/2000/svg" xmlns:xlink="http://www.w3.org/1999/xlink" x="0px" y="0px" viewBox="0 0 800 559.8" style="enable-background:new 0 0 800 559.8;" xml:space="preserve">

<g>
	<path d="M796.3,195.7C785.8,134.8,751.5,79.2,692.6,46C636.9,14.5,569,3.3,503.3,0.7C358.2-5,197.6,21.4,91.3,119.3
		c-45.5,41.9-79.3,95.5-88.7,153.1c-11.2,69.3,15.1,136.5,51.8,195.7c9.6,15.5,20,30.6,30.9,45.6c2.4,3.3,6.8,2.7,9.2,0.3
		c39.6,9.5,80.6,12.3,121.6,13.6c42.4,1.3,84.9,1.8,127.4,2.1c88.1,0.5,176.6-1.8,263.8-15.4c34.4-5.4,74.3-10.3,102.9-30
		c13.8-9.5,22.9-22.4,30.1-36.4c8.5-16.7,15.9-33.8,23.1-51C790,332.4,808.1,263.5,796.3,195.7z" style="fill:var(--illu-bg--main);"/>
	<path d="M352.3,290.8c-0.4-0.9-1.2-1.5-2.4-1.9c-17.4-4.1-20.4-25.6-19.4-40.6c1-15.8,7.4-30.8,17.7-42.8
		c2.4-2.9-0.1-6.8-3.1-6.7c-1.3-0.8-3.1-0.8-4.5,0.5c-15,14.9-24.4,35.6-24,56.9c0.5,20.1,12.3,40.1,33.8,41.8
		C355,298.4,355.5,292.6,352.3,290.8z" style="fill:var(--illu-bg--light);"/>
	<path d="M403,322c-4-9.5-9.4-18.3-13.3-27.8c-8.8-21.2-14.9-43.5-18.1-66.3c-0.1-1.2-1.4-1.8-2.4-1.8
		c-1.3-0.1-2.4,0-3.6,0.1c-0.4-1.2-1.4-2.1-2.9-1.5c-7.4,2.3-15.4,5.1-20.4,11.5c-5.1,6.8-4.5,15.4-2.6,23.2
		c4.7,20.5,11.8,40.8,19.5,60.5c1.8,4.5,3.6,9.1,5.5,13.6c1.4,3.3,2.6,8.5,6.2,10.1c3.3,1.7,8.1,0.3,11.5-0.3c5-0.8,10.4-1.5,15-3.5
		C405.4,336.7,406.1,329.3,403,322z" style="fill:var(--illu-red--light);"/>
	<path d="M756.6,468.1c-10.8-5-22.6-9.1-34.7-12.7c-24.2-7.2-50.5-11.7-77.3-14.4c-56.3-5.5-115.1-2.9-172.8,1.4
		c-33.3,2.6-66.8,5.9-100,10.3c-61,4.7-121.6,14.4-180.4,28.7c-32.2,7.8-63.6,17-94.2,27.6c-13.1,4.5-27.2,8.8-39.2,14.6
		c-7.9,3.7-14.4,9.4-12.2,15.8c2.2,6.2,11.7,9.1,20.4,10.6c16.2,2.7,33.6,3.6,50.2,4.7c32.7,2.4,65.8,4,99,4.6
		c67,1.3,134.7-0.6,202.2-4.5c66.1-3.8,132.7-9,197.9-20c32.2-5.5,64-12.3,94.7-21.2c18.6-5.4,55.4-13.1,59.7-28.7
		C772.5,477.2,764.9,472,756.6,468.1z" style="fill:var(--illu-blue--light);"/>
	<path d="M569.8,127.3c-6.7-6.8-15.9-9.4-25.3-8.5c-1,0.1-2.6,0.3-4.1,0.5c-14-1.2-27.9,7.7-32.2,21.4
		c-5,16.3,3.7,34.4,19.2,41c15.4,6.5,34.1,2.2,44.4-11.3C581.9,157.5,581.6,139.2,569.8,127.3z" style="fill:var(--illu-blue--main);"/>
	<path d="M597.5,151.4c-2.6-6.2-12.2-8.7-18.1-10.4c-5-1.5-6.3,6.5-1.4,7.9c2.8,0.8,6.4,1.8,8.8,3.6
		c0.5,0.5,1.2,0.6,1.8,0.5c-1.3,0.1-2.7,0.3-4,0.4c-5.8,0.6-11.4,1.3-17.2,1.8c-11,1.2-22,2.3-33.1,3.5c-11,1.2-22,2.2-33.1,3.3
		c-2.1,0.3-4.9,0.9-6.9,0.6c-3.8-0.5-4.1-2.9-0.6-4.5c4.2-1.8,8.5-1.9,12.6-4.2c4.5-2.6-0.3-9.1-4.7-6.5c-6.2,3.5-13.6,2.2-17.8,8.8
		c-2.7,4.2-1.8,9.6,2.3,12.4c5.1,3.6,12.9,1.5,18.6,1c10.1-1,20.3-2.1,30.5-3.1c9.7-1,19.4-2.1,29.1-3.1c8.7-0.9,18.6-0.8,27-3.1
		C596,159.6,599.6,156.1,597.5,151.4z" style="fill:var(--illu-red--light);"/>
	<path d="M268.6,496.4c-3.7,0.8-7.3,0.8-11,0.1c-5.1-1-6.4,7.1-1.4,7.9c4.4,0.8,8.8,0.9,13.2,0c2.2-0.4,3.8-2.2,3.6-4.5
		C272.8,498.1,270.8,496.1,268.6,496.4z" style="fill:var(--illu-bg--light);"/>
	<path d="M525.5,474.5c-3.1-5.6-13.6-4.9-18.7-3.3c-5.9,1.7-10.6,6.2-11.5,12.4c-0.1,1.3,0.1,2.3,0.8,2.9
		c0.3,0.9,1,1.8,2.2,2.3c6.2,2.6,13.1,2.6,19.1-0.3C522.1,486.3,528.8,480.6,525.5,474.5z M510.1,482.6c-2.1,0.4-4.1,0.3-6.2-0.1
		c0.9-1.4,2.2-2.4,4-3.2c1.9-0.8,4.4-0.9,6.4-0.8c1.3,0,3.5,1,3.7-0.5C517.8,480.4,512.1,482.2,510.1,482.6z" style="fill:var(--illu-bg--light);"/>
	<path d="M480,445.6c-4-0.4-7.9,0.1-11.5,2.1c-1.9,1-3.2,3.1-2.3,5.3c0.8,1.9,3.3,3.3,5.3,2.3c2.3-1.2,4.7-1.8,7.3-1.5
		c2.2,0.3,4.2-1,4.6-3.3C483.5,448.2,482.1,445.8,480,445.6z" style="fill:var(--illu-bg--light);"/>
	<path d="M580.6,465.9c-1.8-1.5-4.1-1-5.6,0.6c-1.4,1.5-3.6,2.1-5.6,1.7c-5.1-0.8-6.5,7.2-1.4,7.9c5,0.8,9.7-1,13.2-4.6
		C582.8,470.2,582.1,467.2,580.6,465.9z" style="fill:var(--illu-bg--light);"/>
	<path d="M301.3,470.7c-3.1,1.3-6.4,1.9-9.9,1.8c-2.2-0.1-4.2,1-4.6,3.3c-0.4,1.9,1.2,4.6,3.3,4.6
		c4.9,0.3,9.5-0.4,14.1-2.2C309.1,476.3,306.1,468.8,301.3,470.7z" style="fill:var(--illu-bg--light);"/>
	<path d="M475.9,360.6c-0.3,0.3-0.5,0.5-0.8,0.8l0,0c-0.6,0.6-2.4-1-2.3-1.4c0.4-3.6-3.3-5.4-5.9-4.4
		c-1.7,0.5-2.8,1.9-2.4,4.1c0.4,2.6-0.5,5-2.9,6c-4.7,2.1-1.9,9.6,2.9,7.6c2.8-1.2,6.2-0.8,8.2,1.7c2.9,3.5,8.5,0.6,7.1-3.8
		c-0.5-1.4-0.1-2.9,1-4l0,0c0.3-0.3,0.5-0.4,0.8-0.6C484.7,363.1,479.4,357.5,475.9,360.6z" style="fill:var(--illu-yellow--main);"/>
	<path d="M612.5,354.8c-0.4,0.1-0.8,0.1-1,0.3l0,0c-2.1,0.5-4.5-1.8-4.4-3.8c0.3-2.9-2.3-4.7-4.6-4.6
		c-2.4-0.4-5.3,1-4.9,4.2c0.4,3.2-0.8,6.4-3.6,8.2c-0.5,0.3-1,0.5-1.4,0.9c-3.7,2.4-0.3,9.2,3.8,7.1c0.3-0.1,0.6-0.4,0.9-0.5l0,0
		c2.4-1.7,5.9-1,7.7,1.2c0.3,0.8,0.8,1.4,1.3,2.2c2.8,3.3,9,0.5,7.1-3.8c-0.3-0.5-0.5-1-0.8-1.5c-0.3-0.6-0.3-1.4,0.5-1.5l0,0
		c0.4,0,0.8-0.1,1-0.3C618.8,361.5,617,353.9,612.5,354.8z" style="fill:var(--illu-yellow--main);"/>
	<path d="M314.1,270.8c2.3-2.4-0.1-7.3-3.6-6.5c-1.9,0.4-3.6,1.3-5,2.4c-1.3,0-2.4-1-2.7-2.4c0.1-1,0.1-2.2,0-3.3
		c-0.5-5.1-8.6-4.4-8.1,0.8l0,0l0,0c-0.1,0.6-0.1,1.2-0.1,1.8c-0.4,1.7-1.7,2.9-3.5,3.6c-4.9,2.1-2.1,9.2,2.9,7.6
		c3.5-1.4,7.2,0.3,8.5,3.8c2.2,4.7,9.4,2.1,7.6-2.9c-0.3-0.5-0.4-1.4-0.3-2.1C311.5,273,312.9,272.1,314.1,270.8z" style="fill:var(--illu-yellow--main);"/>
	<path d="M237.8,200c-1.4,0.3-2.6,0.8-3.6,1.4c-0.1-0.5-0.4-1.3-0.6-1.9c-0.1-0.6-0.3-1.3-0.5-1.8v-0.1
		c-0.1-0.6-0.3-1.2-0.5-1.7c-0.5-1.4-1.2-2.9-1.9-4.2c-2.3-4.6-9.9-1.8-7.6,2.9c0.4,0.9,1.7,3.7,2.3,6.3c0,0.3,0.1,0.5,0.1,0.8
		c0.3,1.5,0.3,2.9-0.4,3.8c-1.4,0-2.9,0.3-4.5,0.9c-3.6,1.4-3.2,7.2,0.8,7.8c1.7,0.3,3.3,0,4.9-0.5c1.5,0.3,2.8,1.4,3.2,3.2
		c1,5,9,4.4,8.1-0.8c-0.3-1-0.9-4-0.6-5.9c2.1-0.6,3.8-2.1,4.7-4.2C243.1,203.2,240.9,199.3,237.8,200z" style="fill:var(--illu-yellow--main);"/>
	<path d="M267.6,358.8c-1.7,0.3-3.1,0.8-4.5,1.5c-2.8,0.1-5.6-2.1-6-4.9c-0.4-3.2-3.7-4.1-6-3.1
		c-2.4,0.4-4.5,2.4-3.2,5.3c1.7,3.7,0.9,7.6-1.9,10.1c-0.6,0.4-1.2,0.9-1.8,1.3c0,0,0,0-0.1,0l0,0c-0.3,0.3-0.5,0.4-0.8,0.6
		c-3.3,3.6,1.8,7.9,5.5,5.8c0.9-0.5,1.7-1.2,2.4-1.8c2.2-0.6,4.7,0.6,5.8,2.7c0.1,0.3,0.1,0.4,0.3,0.6c2.3,4.7,9.1,2.1,7.6-2.9
		c-0.1-0.3-0.1-0.5-0.3-0.6c-0.6-2.1-0.1-4.5,1.5-5.8c1.5-0.4,2.9-0.9,4.4-1.8C273.7,363.9,271.5,358.3,267.6,358.8z" style="fill:var(--illu-yellow--main);"/>
	<path d="M142.7,284.8c-3.3-1.4-6.9-0.8-9.6,1.3c-1-0.5-1.7-1.7-1.7-3.3c0.1-2.9-2.3-4.6-4.6-4.6
		c-3.2-2.6-8.5,1.7-5.8,5.6c1.5,2.2,2.1,4.7,1.5,7.1c-3.1,1.9-4.7,5.6-3.6,9.5c0.9,3.2,5,3.1,6.9,1c1-1,1.8-2.1,2.4-3.2
		c0.1,0.1,0.4,0.3,0.5,0.5c0.8,0.8,1.3,1.9,1.7,2.9c0.1,0.4,0.3,0.6,0.4,1c1.9,4.9,9.5,1.9,7.6-2.9c-0.1-0.4-1-2.9-1.2-5.1
		c2.1-0.4,4-1.3,5.9-2.9C145.6,289.8,145.6,286.1,142.7,284.8z" style="fill:var(--illu-yellow--main);"/>
	<path d="M314.6,335.6c-5.1,0.5-4.4,8.6,0.8,8.1C320.6,343.1,319.7,335.1,314.6,335.6z" style="fill:var(--illu-white--light);"/>
	<path d="M332.5,404.9c-2.2,0.4-3.8,2.2-3.6,4.5l0.1,1.2c0.3,2.1,2.3,4,4.5,3.6c2.2-0.4,3.8-2.2,3.6-4.5l-0.1-1.2
		C336.8,406.5,334.7,404.7,332.5,404.9z" style="fill:var(--illu-white--light);"/>
	<path d="M213.7,444c-5.1,0.5-4.4,8.6,0.8,8.1C219.6,451.6,218.8,443.5,213.7,444z" style="fill:var(--illu-white--light);"/>
	<path d="M190.4,323.1c-5.1,0.5-4.4,8.6,0.8,8.1C196.4,330.7,195.6,322.6,190.4,323.1z" style="fill:var(--illu-white--light);"/>
	<path d="M230.5,287.1l-1.2,0.1c-2.1,0.3-4,2.3-3.6,4.5c0.4,2.2,2.2,3.8,4.5,3.6l1.2-0.1c2.1-0.3,4-2.3,3.6-4.5
		C234.6,288.7,232.8,287,230.5,287.1z" style="fill:var(--illu-white--light);"/>
	<path d="M186.5,237.6c-5.1,0.5-4.4,8.6,0.8,8.1C192.6,245.1,191.7,237,186.5,237.6z" style="fill:var(--illu-white--light);"/>
	<path d="M236.5,158.7c-1,0.3-2.1,0.5-2.7,1.4c-0.6,0.8-1,1.9-0.9,2.9c0,0.1,0.1,0.4,0.1,0.5c0,0.1,0,0.3,0,0.4
		c0.4,2.3,2.2,3.7,4.5,3.6c2.6-0.1,4.2-2.6,4-5C241.1,160.5,239,158.2,236.5,158.7z" style="fill:var(--illu-white--light);"/>
	<path d="M292.3,201.6c-5.1,0.5-4.4,8.6,0.8,8.1C298.3,209.1,297.5,201.1,292.3,201.6z" style="fill:var(--illu-white--light);"/>
	<path d="M305.2,115.1c-2.2,0.4-3.8,2.2-3.6,4.5l0.1,1.2c0.3,2.1,2.3,4,4.5,3.6c2.2-0.3,3.8-2.2,3.6-4.5l-0.1-1.2
		C309.5,116.6,307.4,114.7,305.2,115.1z" style="fill:var(--illu-white--light);"/>
	<path d="M475.5,106.4c-5.1,0.5-4.4,8.6,0.8,8.1C481.5,113.9,480.7,105.9,475.5,106.4z" style="fill:var(--illu-white--light);"/>
	<path d="M451.6,136.1c-2.2,0.4-3.8,2.2-3.6,4.5l0.1,1.2c0.3,2.1,2.3,4,4.5,3.6c2.2-0.4,3.8-2.2,3.6-4.5l-0.1-1.2
		C455.7,137.7,453.7,135.9,451.6,136.1z" style="fill:var(--illu-white--light);"/>
	<path d="M552.3,250.3c-5.1,0.5-4.4,8.6,0.8,8.1C558.3,257.8,557.5,249.8,552.3,250.3z" style="fill:var(--illu-white--light);"/>
	<path d="M568.1,220.3c-5.1,0.5-4.4,8.6,0.8,8.1C574.2,227.9,573.4,219.8,568.1,220.3z" style="fill:var(--illu-white--light);"/>
	<path d="M606.6,181.4c-5.1,0.5-4.4,8.6,0.8,8.1C612.6,188.8,611.7,180.9,606.6,181.4z" style="fill:var(--illu-white--light);"/>
	<path d="M627.1,299c-5.1,0.5-4.4,8.6,0.8,8.1C633,306.5,632.2,298.5,627.1,299z" style="fill:var(--illu-white--light);"/>
	<path d="M568.7,331.6c-5.1,0.5-4.4,8.6,0.8,8.1C574.7,339.2,573.9,331.1,568.7,331.6z" style="fill:var(--illu-white--light);"/>
	<path d="M598.4,409.5c-5.1,0.5-4.4,8.6,0.8,8.1C604.4,417.1,603.7,409,598.4,409.5z" style="fill:var(--illu-white--light);"/>
	<path d="M504.1,397.5c-5.1,0.5-4.4,8.6,0.8,8.1C510.1,404.9,509.2,397,504.1,397.5z" style="fill:var(--illu-white--light);"/>
	<path d="M464.2,401.2c-5.1,0.5-4.4,8.6,0.8,8.1C470.2,408.8,469.3,400.7,464.2,401.2z" style="fill:var(--illu-white--light);"/>
	<path d="M510.9,311.2l-1.2,0.1c-2.1,0.3-4,2.3-3.6,4.5c0.4,2.2,2.2,3.8,4.5,3.6l1.2-0.1c2.1-0.3,4-2.3,3.6-4.5
		C515.1,312.6,513.2,311,510.9,311.2z" style="fill:var(--illu-white--light);"/>
	<path d="M520.6,145.9h-10.3c-5,0-5,7.7,0,7.7h10.3C525.5,153.5,525.5,145.9,520.6,145.9z" style="fill:var(--illu-bg--light);"/>
	<path d="M569.3,133h-12.8c-5,0-5,7.7,0,7.7h12.8C574.2,140.7,574.2,133,569.3,133z" style="fill:var(--illu-bg--light);"/>
	<path d="M536.1,175.9c-0.6-2.2-2.7-3.1-4.7-2.7c-2.8,0.5-5.6,1.2-8.6,1.7c-2.1,0.4-3.2,2.8-2.7,4.7
		c0.6,2.2,2.7,3.1,4.7,2.7c2.8-0.5,5.6-1.2,8.6-1.7C535.5,180.2,536.6,177.8,536.1,175.9z" style="fill:var(--illu-bg--light);"/>
	<path d="M385.7,482c-4.1-0.3-8.1,0.3-12,1.2c-4.9,1.2-2.8,8.6,2.1,7.4c3.3-0.8,6.7-1,10-0.9
		C390.7,489.9,390.6,482.2,385.7,482z" style="fill:var(--illu-bg--light);"/>
	<path d="M156.5,403.8c-6-13.2-24.1-25.1-36.4-13.1c-10.1,5-17,15.6-15.9,27.9c1.5,16.8,20.6,32.3,37.6,26.8
		C159.2,439.7,163.6,419,156.5,403.8z" style="fill:var(--illu-yellow--main);"/>
	<path d="M764.7,235.7c-1.9-12.4-11-21.5-22-24.4c-0.3-0.9-0.8-1.7-1.8-2.2c-14.6-7.6-27.9-0.1-35.6,12
		c-5.5,4.2-9.7,9.9-12,16.7c-4.4,12.8-0.5,28.3,10.4,36.7c10.1,7.7,24.7,7.4,35.5,1.2c2.3-1.3,4.2-2.8,6-4.6
		C758,264.7,767,251.5,764.7,235.7z" style="fill:var(--illu-red--light);"/>
	<path d="M711.2,132.5c-0.6,0.4-1.5,0.4-2.2,0.1c-0.3-1.2-0.6-2.3-1.2-3.3c0.3-3.3-4-4.9-6.3-3.1
		c-1.7,0.9-2.8,2.8-1.5,4.7c0.1,1.8,0.6,3.5,1.7,4.9c0,1.4-0.4,2.9-1.3,4.1c-1.5,0.8-2.8,1.9-3.7,3.6c-1.8,3.3,1.8,7.3,5.3,5.3
		c1-0.5,1.9-1.3,2.7-2.1c0.5,0,0.9,0.3,1,0.6c1.8,4.5,8.8,2.8,7.4-2.1c-1-2.6-0.4-4.9,2.1-6.3C719.2,136.5,715.6,130.1,711.2,132.5z
		" style="fill:var(--illu-yellow--main);"/>
	<path d="M728.6,385.7c-1.5,0.4-3.1,0.8-4.6,1l-0.6-2.9c-1.2-4.9-8.6-2.8-7.4,2.1c0.3,0.9,0.4,1.8,0.6,2.7
		c-0.8,0.3-1.7,0.4-2.4,0.6c-4.9,1.2-2.8,8.6,2.1,7.4c0.8-0.1,1.4-0.4,2.2-0.5c0.4,1.4,0.6,2.9,1,4.4c1.2,4.9,8.6,2.8,7.4-2.1
		l-1-4.1c1.7-0.4,3.2-0.8,4.9-1.2C735.4,392,733.4,384.5,728.6,385.7z" style="fill:var(--illu-yellow--main);"/>
	<path d="M92.7,202.8c-0.8,0.1-1.7,0.4-2.4,0.5c-0.3-1.3-0.6-2.6-1-4c-1.4-4.7-8.8-2.7-7.4,2.1c0.4,1.2,0.6,2.3,0.9,3.5
		c-2.1,0.4-4.1,0.9-6.2,1.3c-4.9,1-2.8,8.5,2.1,7.4c1.7-0.4,3.3-0.6,5-1c0,1.3,0,2.7-0.1,4.1c-0.4,5,7.3,4.9,7.7,0
		c0.1-1.9,0.1-3.7,0.1-5.6c1.2-0.3,2.3-0.5,3.5-0.8C99.6,209.2,97.6,201.7,92.7,202.8z" style="fill:var(--illu-yellow--main);"/>
	<path d="M67.6,341c-1.8,1.2-3.7,2.2-5.6,2.8c-0.3-3.5-0.9-6.8-1.7-10.3c-1.2-4.9-8.5-2.8-7.4,2.1
		c0.8,3.2,1.3,6.5,1.4,9.7c-1.4,0.1-2.8,0-4.2-0.1c-4.9-0.5-4.9,7.2,0,7.7c1.4,0.1,2.9,0.1,4.4,0.1c0,0.9-0.1,1.7-0.1,2.6
		c-0.4,5,7.3,4.9,7.7,0c0.1-1.3,0.1-2.6,0.1-3.7c3.2-0.9,6.4-2.3,9.2-4.2C75.5,344.9,71.7,338.3,67.6,341z" style="fill:var(--illu-yellow--main);"/>
	<path d="M382.3,39.5c-1.4,0.3-2.8,0.6-4.2,0.9c-0.4-1.4-0.6-2.9-1-4.4c-1.2-4.9-8.6-2.8-7.4,2.1c0.3,1.3,0.6,2.7,0.9,4
		l-2.8,0.6c-4.9,1-2.8,8.5,2.1,7.4c0.9-0.1,1.8-0.4,2.6-0.5c0.4,1.5,0.8,3.1,1.2,4.6c1.2,4.9,8.6,2.8,7.4-2.1
		c-0.4-1.4-0.6-2.8-1-4.2c1.5-0.4,2.9-0.6,4.5-1C389.2,45.7,387.2,38.3,382.3,39.5z" style="fill:var(--illu-yellow--main);"/>
	<path d="M606.7,49.2c-2.9,0.3-5.8,0.8-8.6,1.3c-0.4-1.5-0.8-3.2-1.2-4.7c-1.2-4.7-8.6-2.8-7.4,2.1l1.2,4.7
		c-1.8,0.6-3.6,1.3-5.4,2.1c-4.5,1.9-0.6,8.6,3.8,6.7c1.2-0.5,2.2-0.9,3.3-1.3c0.4,1.3,0.6,2.6,1,3.8c1.2,4.7,8.6,2.8,7.4-2.1
		c-0.4-1.3-0.6-2.6-1-3.8c2.2-0.5,4.5-0.8,6.7-1C611.6,56.4,611.6,48.7,606.7,49.2z" style="fill:var(--illu-yellow--main);"/>
	<path d="M214.9,91.9c-0.9,0.6-1.9,1.2-2.8,1.7c-0.9-2.8-1.9-5.6-3.2-8.3c-2.2-4.5-8.8-0.5-6.7,3.8
		c1.3,2.6,2.2,5.1,2.9,7.8c-2.3,1-4.6,1.9-7.1,2.6c-4.7,1.4-2.7,8.8,2.1,7.4c2.2-0.6,4.4-1.4,6.4-2.3c0,0.6,0.1,1.2,0.1,1.8
		c0.3,4.9,7.9,5,7.7,0c-0.1-1.8-0.3-3.5-0.5-5.1c1.7-0.9,3.3-1.8,5-2.8C222.9,95.9,219.1,89.2,214.9,91.9z" style="fill:var(--illu-yellow--main);"/>
	<path d="M158.5,151.2c-5,0-5,7.7,0,7.7S163.5,151.2,158.5,151.2z" style="fill:var(--illu-white--light);"/>
	<path d="M134.2,225.6c-5,0-5,7.7,0,7.7C139.2,233.3,139.2,225.6,134.2,225.6z" style="fill:var(--illu-white--light);"/>
	<path d="M56.6,269.3c-5,0-5,7.7,0,7.7S61.6,269.3,56.6,269.3z" style="fill:var(--illu-white--light);"/>
	<path d="M134.2,353.5c-5,0-5,7.7,0,7.7C139.2,361.2,139.2,353.5,134.2,353.5z" style="fill:var(--illu-white--light);"/>
	<path d="M462.7,44.5c-5,0-5,7.7,0,7.7C467.7,52.2,467.7,44.5,462.7,44.5z" style="fill:var(--illu-white--light);"/>
	<path d="M666.6,83.2c-5,0-5,7.7,0,7.7C671.6,90.9,671.6,83.2,666.6,83.2z" style="fill:var(--illu-white--light);"/>
	<path d="M664.9,204.6c-5,0-5,7.7,0,7.7C669.9,212.3,669.9,204.6,664.9,204.6z" style="fill:var(--illu-white--light);"/>
	<path d="M684.4,314.7c-5,0-5,7.7,0,7.7C689.3,322.4,689.3,314.7,684.4,314.7z" style="fill:var(--illu-white--light);"/>
	<path d="M762.1,319.4c-5,0-5,7.7,0,7.7C767,327.1,767,319.4,762.1,319.4z" style="fill:var(--illu-white--light);"/>
	<path d="M668.3,405.2c-5,0-5,7.7,0,7.7C673.1,412.9,673.1,405.2,668.3,405.2z" style="fill:var(--illu-white--light);"/>
	<path d="M305.8,62.2c-2.1,0.1-3.8,1.7-3.8,3.8v1.7c0,2.1,1.8,4,3.8,3.8c2.1-0.1,3.8-1.7,3.8-3.8V66
		C309.6,64.1,307.8,62.2,305.8,62.2z" style="fill:var(--illu-white--light);"/>
	<path d="M101.8,476.5c-5,0-5,7.7,0,7.7C106.8,484.1,106.8,476.5,101.8,476.5z" style="fill:var(--illu-white--light);"/>
	<path d="M71.2,402c-5,0-5,7.7,0,7.7C76,409.7,76,402,71.2,402z" style="fill:var(--illu-white--light);"/>
	<path d="M720.7,258.8c-7.6,1.3-15.3,2.7-22.8,4c-4.9,0.9-2.8,8.3,2.1,7.4c7.6-1.3,15.3-2.7,22.8-4
		C727.6,265.3,725.6,257.9,720.7,258.8z" style="fill:var(--illu-bg--light);"/>
	<path d="M751.2,217.4c-4.5,1.3-8.8,1.8-13.5,1.8c-5,0-5,7.7,0,7.7c5.3,0.1,10.5-0.6,15.5-2.1
		C758,223.5,756.1,216.1,751.2,217.4z" style="fill:var(--illu-bg--light);"/>
	<path d="M762.1,247c-1.2-1.8-3.3-2.3-5.3-1.4c-1,0.5-2.2,1-3.2,1.7c-1.8,0.9-2.4,3.6-1.4,5.3c1.2,1.8,3.3,2.3,5.3,1.4
		l3.2-1.7C762.6,251.4,763.3,248.7,762.1,247z" style="fill:var(--illu-bg--light);"/>
	<path d="M722,238c-0.5-1.8-2.8-3.5-4.7-2.7c-3.3,1.3-6.7,1.8-10.3,1.5c-5-0.4-4.9,7.3,0,7.7c4.2,0.3,8.5-0.4,12.3-1.8
		C721.3,242,722.6,240.2,722,238z" style="fill:var(--illu-bg--light);"/>
	<path d="M152.6,419.3c-2.8,2.4-6.4,3.7-10.1,3.8c-5,0.1-5,7.8,0,7.7c5.9-0.1,11.2-2.3,15.6-6.2
		C161.7,421.5,156.3,416.1,152.6,419.3z" style="fill:var(--illu-bg--light);"/>
	<path d="M120.3,406.8l-14.6,4.7c-4.7,1.5-2.7,9,2.1,7.4l14.6-4.7C126.9,412.7,124.9,405.3,120.3,406.8z" style="fill:var(--illu-bg--light);"/>
	<path d="M199,507.5c-4.9,0.5-9.7,1-14.6,1.5c-4.9,0.5-4.9,8.2,0,7.7c4.9-0.5,9.7-1,14.6-1.5
		C203.8,514.7,204,507,199,507.5z" style="fill:var(--illu-bg--light);"/>
	<path d="M150,524.5c-3.1-5-8.6-2.7-12.7-4.6c-0.6-0.9-1.7-1.5-3.1-1.4l0,0c-0.4,0-0.8,0-1.2,0.1
		c-8.2,0.9-15.1,4-21.4,9.5c-1.8,1.5-1.4,5,0.8,6c10.3,5,24.7,6.8,34.9,0.3C150.8,532.2,152.3,528.1,150,524.5z M138.1,529.9
		c-5.3,1.4-10.5,1.3-15.6-0.1c3.2-1.8,6.8-2.9,10.5-3.5c1.4,0.9,2.9,1.3,4.6,1.5c0.3,0,4.7,0.1,4.7,0.3
		C142.4,528.9,138.5,529.8,138.1,529.9z" style="fill:var(--illu-bg--light);"/>
	<path d="M706.8,468.5c-4.2-3.1-9.2-1.9-13.7-0.3c-1,0.4-1.7,1-2.1,1.8c-8.1,0.1-21.5,1.9-23.6,9.7
		c-2.4,9.4,12.9,10,18.6,9.6c7.6-0.4,21.7-3.3,24.1-11.9C711.2,474,709.7,470.6,706.8,468.5z M701.1,476.8c-0.1,0.9-6,2.9-6.3,3.1
		c-3.7,1.3-7.7,1.9-11.8,1.8c-1.9,0-4-0.6-5.9-0.6c-3.8-0.1,0.1-0.4,2.2-1.2c4.7-1.8,9.6-2.3,14.7-2.1c2.2,0.1,3.3-1.3,3.6-2.9
		C699.7,474.3,701.7,474.1,701.1,476.8z" style="fill:var(--illu-bg--light);"/>
	<path d="M635.8,460.3h-8.1c-5,0-5,7.7,0,7.7h8.1C640.8,468,640.8,460.3,635.8,460.3z" style="fill:var(--illu-bg--light);"/>
	<path d="M398.4,534.3c-0.6-2.2-2.7-2.9-4.7-2.7c-4.9,0.6-9.6,1.3-14.5,2.1c-2.1,0.3-3.2,2.9-2.7,4.7
		c0.6,2.2,2.7,2.9,4.7,2.7c4.9-0.6,9.6-1.3,14.5-2.1C397.8,538.6,398.9,536.1,398.4,534.3z" style="fill:var(--illu-bg--light);"/>
	<path d="M487,525h-8.1c-5,0-5,7.7,0,7.7h8.1C491.9,532.7,491.9,525,487,525z" style="fill:var(--illu-bg--light);"/>
	<path d="M302.5,528.2h-12.9c-5,0-5,7.7,0,7.7h12.9C307.4,535.9,307.4,528.2,302.5,528.2z" style="fill:var(--illu-bg--light);"/>
	<path d="M497,204.8c-4.1-3.5-8.3,1.8-10.6,4.7c-4.5,5.6-7.4,12.2-10.5,18.6c-2.3,4.9-4.5,9.6-6.7,14.5
		c0-3.7-0.4-7.8-1.9-10.6c-2.2-4.1-7.2-3.2-10.1-0.6c-4.1,3.5-6.9,8.8-9.4,13.8c-7.1-18.7-20-34.6-36.9-45.4c-0.5-0.4-1-0.4-1.5-0.4
		c-0.4-1-1.4-1.7-2.7-1.2c-6.8,2.4-13.3,5.4-19.5,9c0-0.1,0-0.3,0-0.3v-1c0.1-0.5,0-1-0.1-1.5c-0.4-0.9-1.3-1.7-2.3-1.5
		c-0.9,0-1.7,0.5-2.1,1.2c-1.9,1.9-3.6,4-5,6.2c-19.7,12-20.6,38.1-13.5,57.8c4.2,11.8,10.1,23.6,17.7,33.6c0.1,0.3,0.4,0.4,0.5,0.6
		c4,27.6,7.1,55.5,12.2,82.9c-12.3,24.1-25.4,47.7-39.2,70.8c-3.5,5.9-7.1,11.7-10.8,17.4c-2.4,4-7.6,9.2-6.4,14.4
		c1,4.5,6.3,8.7,9.5,11.8c4.4,4.1,9,7.7,14,11c2.1,1.3,3.8-0.9,3.6-2.8c-1.2-8.1-4.9-18.7,0.4-25.8c4.7-6.4,10.6-12,15.6-18.3
		c8.7-11,16.7-22.8,23.6-35.1c7.9,26.7,18.7,52.9,32.8,76.8c1.7,2.9,3.7,5.5,7.2,6.2c3.6,0.6,7.8-0.5,11.4-1
		c8.2-1.3,16.2-3.7,22.7-9.1c1.4-1.2,0.6-3.8-1-4.1c-4-0.8-7.8-1.4-11.8-2.2c-2.3-0.4-3.8-0.5-5-2.8c-0.8-1.4-1-3.2-1.4-4.7
		c-2.2-7.3-4.2-14.7-6.3-22c-3.8-14.2-7.3-28.7-10.4-43.1c-2.6-11.8-4.7-23.7-6.8-35.6c5.1-11.9,8.5-24.4,9.9-37.3
		c0.8-7.2,0.9-14.6,0.4-21.8c-0.5-7.4-2.8-15.1-2.2-22.7c0.3-0.3,0.5-0.6,0.8-0.9c25.1,8.7,40.4-27.2,47-45
		c4.6-12.3,8.6-25.8,9.2-39C501.4,215.5,501,208.2,497,204.8z" style="fill:var(--illu-white--light);"/>
	<path d="M420,133c-15.6-16.3-44.4-15.5-64.2-8.8c-20.5,6.8-37.9,25.6-34,48.5c4,22.9,24.4,41.1,46.5,46
		c3.2,3.8,11.9-0.3,15.5-1.5c7.9-2.8,15.4-6.7,22.4-11.4c0.6-0.4,0.9-0.9,1-1.5c7.1-4.7,13.2-11,17.6-18.3
		C434.3,169.6,433.3,147,420,133z" style="fill:var(--illu-blue--light);"/>
	<path d="M500.9,208L500.9,208c-1-5.6-6.7-5.8-10.6-3.1c-1.5-0.1-3.2,1.2-2.7,3.1c1.8,6.5,3.6,13.2,6,19.6
		c-0.1,0.3-0.1,0.5-0.3,0.8c-0.5,1.5,0.5,2.7,1.8,2.9c2.1,4.1,6.3,4.1,7.6-0.5C504.1,225.6,504.4,214.2,500.9,208z" style="fill:var(--illu-blue--main);"/>
	<path d="M429.8,258.9c-2.7-6.2-5-13.7-9.2-19c-1.7-2.1-5.9-5.3-8.7-4c-0.1,0-0.4,0.1-0.5,0.3
		c-5.6,2.7-11.9,4.9-17.2,8.3c-4.2,2.7-5.6,6.8-4.6,11.5c1.3,6,4.6,11.8,7.1,17.4c2.7,6.3,5.3,12.6,8.1,18.8c1.7,3.8,4.4,5.8,8.5,4
		c4.9-2.1,9.5-5.8,13.1-9.6c3.2-3.5,6.8-7.9,7.9-12.7C435.5,268.9,431.9,263.4,429.8,258.9z" style="fill:var(--illu-red--light);"/>
	<path d="M487.4,265.2c-7.8,2.1-15.1,5.4-21.8,10.1c-2.1,1.5-0.9,4.6,1,4.7c3.1,1.9,6.3,4.6,9.7,5.9
		c1.7,0.6,2.9,0.4,4.4-0.8c4.6-4.2,7.6-11.3,9.7-16.9C491.2,266.5,489.1,264.8,487.4,265.2z" style="fill:var(--illu-blue--main);"/>
	<path d="M505.5,256.6c-0.6-8.8-3.5-18.1-5.8-26.7c-2.4-9.4-5.4-18.7-8.6-27.8c-2.1-5.8-3.8-16.2-11.8-16
		c-3.7,0-7.6,1.9-11,3.1c-4.2,1.5-8.3,3.2-12.4,4.9c-8.7,3.7-17.3,7.9-25.5,12.7c-6.7,3.8-15.1,8.1-19,15.1
		c-4.6,8.3-1.2,18.3,1.3,26.8c3.1,10.8,6.7,21.4,10.5,31.9c0.3,0.6,0.6,1,1,1.3c-0.4,2.2,3.1,3.8,4.6,1.5
		c5.5-7.9,10.5-16.2,14.9-24.7c2.3-4.4,4.4-8.8,6.4-13.2c1.8-3.8,3.7-7.8,7.2-10.4c3.7-2.7,9.6-3.3,11.9,1.4
		c1.8,3.6,0.9,8.2,0.1,11.9c-2.1,9.7-5.1,19.2-9.2,28.3c-0.8,1.8,0.5,4.4,2.8,3.6c9.6-3.3,19.1-6.9,28.6-10.8
		C497.5,267,506,264.9,505.5,256.6z" style="fill:var(--illu-yellow--main);"/>
	<path d="M466.1,230.2c-0.3,0-0.4-0.1-0.6-0.1c-2.3-0.6-5,0.1-7.2,1.7c-4.2,3.2-6.7,8.3-9.1,12.8
		c-0.6,1.3-1.3,2.4-2.1,3.6c-0.6,0.9-1.2,1.7-1.8,2.4c-6.5,9.4-12.8,18.8-18.7,28.6c-0.5,0.4-0.9,0.9-1.3,1.4
		c-0.5,0.5-0.9,1.3-0.9,2.1c0,0,0,0,0,0.1c-0.8,1.3-0.3,2.6,0.6,3.1c1,2.1,3.2,3.5,5.1,4.7c4.5,2.8,8.8,5.8,13.5,8.6
		c2.4,1.5,5.5,2.3,7.2-0.4c1-0.3,2.1-0.9,3.1-2.2c7.2-9.1,10.6-21.3,12.8-32.4c0.3-1.3,0.5-2.6,0.6-3.8c0.5-1.7,1-3.3,1.4-5
		C470.6,249.3,475.6,232.9,466.1,230.2z" style="fill:var(--illu-blue--main);"/>
	<path d="M470.6,492.5c-3.3-0.5-6.9-1.5-8.2-5c-1.5-4.1-1.8-8.8-2.6-13.1c-1.8-9.4-3.5-18.7-5.3-28.1l-1.5-8.1
		c-0.3-1.7-0.4-3.5-1.5-4.7c-2.6-2.9-6.8-0.5-9.7,0.4c-10.3,3.5-20.4,6.8-30.6,10.3H411c-1.5,0-3.1,1.2-2.4,2.9
		c6,16.8,12.9,33.2,20.8,49.2c1.9,3.8,3.7,7.8,5.8,11.5c1.5,2.6,3.2,4.4,6.3,5c7.3,1.4,16.2-0.4,23.2-2.6c5.1-1.5,14.4-4.1,16.8-9.6
		C484.4,493.6,475,493.2,470.6,492.5z" style="fill:var(--illu-blue--main);"/>
	<path d="M396.3,444c-6.8-7.2-14.6-13.2-23.5-17.9c-1.9-1-3.8,0.8-3.7,2.4c-5.8,9.1-11.5,18.2-17.3,27.4
		c-5.9,9.4-12.3,18.5-17.7,28.1c-1.7,3.1-1.5,5.9,0.6,8.7c2.8,3.8,6.2,7.3,9.4,10.8c5.5,5.9,11.7,13.7,20.5,13.7
		c1,0,2.2-0.8,2.4-1.8c1.3-6.3-1.2-11.7-2.1-17.8c-1.2-7.6,2.8-14.4,7.7-19.9c4.4-5,9.4-9.2,13.5-14.4s7.7-10.5,10.5-16.4
		C397,445.9,397,444.8,396.3,444z" style="fill:var(--illu-blue--main);"/>
	<path d="M379.6,156.2c-14.2,3.3-17.4,19.4-13.2,31.4c0.3,0.9,0.9,1.3,1.5,1.5c3.6,9.9,12.7,20.3,24.1,14.9
		C411.5,194.8,403.3,150.6,379.6,156.2z" style="fill:var(--illu-brown--light);"/>
	<path d="M424.5,189.4c-2.4-7.7-22.3,4.4-26.3,6.4c-12.3,5.9-24.6,11.9-36.9,17.8c-2.1,0.1-3.3,0.9-4.1,2.1l0,0
		c-1.3,0.6-1.5,1.8-1,2.8c0,1.3,0.5,2.7,1.4,3.6c0.3,0.3,0.4,0.4,0.6,0.6c0.9,0.9,2.2,1.7,3.7,1.9c4.1,0.6,8.8-1.7,12.6-2.9
		c4.6-1.7,9.2-3.5,13.7-5.5c6-2.8,11.9-5.9,17.6-9.5c0.6-0.3,1.3-0.5,1.8-0.8c4.1-1.7,8.2-3.6,11.7-6.5
		C421.9,197.3,425.6,193,424.5,189.4z" style="fill:var(--illu-yellow--main);"/>
	<path d="M396.9,160.3c-5.8-8.3-19.6-8.6-26.8-2.2c-7.7,6.8-8.3,18.8-7.8,28.3c0.4,5.9,1.4,11.9,4,17.3
		c2.4,4.9,7.2,4.7,12,3.6c4.9-1.3,10.5-4.1,9.7-9.9c-0.8-5.9-3.5-11.9-6.3-17.2c4.7-2.4,9.7-5,13.7-8.5
		C399.1,168.9,399.7,164.3,396.9,160.3z" style="fill:var(--illu-bg--light);"/>
	<path d="M389.8,179.1c-5,0-5,7.7,0,7.7S394.8,179.1,389.8,179.1z" style="fill:var(--illu-bg--light);"/>
	<path d="M403.6,172.1c-5,0-5,7.7,0,7.7C408.6,179.8,408.6,172.1,403.6,172.1z" style="fill:var(--illu-bg--light);"/>
	<path d="M406.8,184.2c-1-1.7-3.6-2.6-5.3-1.4c-2.2,1.5-4.5,2.9-6.7,4.5c-1.7,1.2-2.4,3.3-1.4,5.3
		c1,1.7,3.6,2.6,5.3,1.4l6.7-4.5C407.1,188.3,407.9,186,406.8,184.2z" style="fill:var(--illu-bg--light);"/>
	<path d="M450.2,296.9c-7.3,8.6-15.8,15.8-25.4,21.7c-1.4-0.3-3.1,0.4-4,1.5c-12.9,2.3-26.5-8.1-35-16.9
		c-3.5-3.6-8.8,1.9-5.4,5.4c9.9,10.3,25.5,21.4,40.5,19.2c3.8,19.5,7.4,39,10.8,58.6c0.9,4.9,8.2,2.8,7.4-2.1
		c-3.3-19.6-6.9-39.4-10.8-58.8l0,0c10.3-6.3,19.5-14,27.3-23.1C458.8,298.5,453.4,293,450.2,296.9z" style="fill:var(--illu-bg--light);"/>
	<path d="M407.4,432.2l-0.1-0.4c-0.3-0.8-0.8-1.4-1.4-1.9c-0.1-0.3-0.1-0.5-0.3-0.9c-0.3-2.1-0.9-4.1-1.4-6
		c-0.9-3.6-1.7-7.3-2.7-10.9c-1.8-7.3-3.8-14.5-5.9-21.7c-1.4-4.7-8.8-2.7-7.4,2.1c2.6,8.7,4.9,17.6,7.1,26.4c1,4,1.9,8.1,2.8,12.2
		c0.6,2.6,0.9,4.5,3.2,5.9c1.4,0.8,3.6,0.6,4.6-0.6c0.1-0.1,0.1-0.3,0.3-0.3C407.3,434.9,407.9,433.5,407.4,432.2z" style="fill:var(--illu-bg--light);"/>
	<path d="M390.7,453c-7.1-6.2-14-12.2-21-18.3c-3.7-3.2-9.2,2.2-5.4,5.4c7.1,6.2,14,12.2,21,18.3
		C388.9,461.6,394.5,456.2,390.7,453z" style="fill:var(--illu-bg--light);"/>
	<path d="M451.5,440.7c-6.9,0.4-13.7,1.7-20.1,4c-6.5,2.3-12.6,6.8-19.4,8.1c-4.9,0.9-2.8,8.3,2.1,7.4
		c6-1.2,11-4.6,16.7-6.9c6.7-2.8,13.7-4.4,20.9-4.7C456.4,448,456.4,440.3,451.5,440.7z" style="fill:var(--illu-bg--light);"/>
	<path d="M459.4,285.5c-1-1.4-2.6-2.2-4.4-1.8c-0.1,0-0.3,0-0.4,0.1c-0.1,0-0.3,0.1-0.5,0.1c-1.4-0.8-4-2.3-4.5-2.4
		c-1.8-0.8-3.5-1.7-5.3-2.4c-4.1-1.9-8.2-3.8-12.3-5.8c-3.3-1.5-6.4,1.8-5.8,4.5c-0.8,0.3-1.5,0.8-2.1,1.7
		c-2.9,4.9-6.4,9.2-10.4,13.3c-1,1-2.2,2.1-3.2,3.1c-1.2-1.2-1.9-2.6-2.6-4.1c-1.4-2.4-2.7-5.1-4-7.7l-16.4-31.9
		c-2.3-4.4-8.8-0.5-6.7,3.8c4.1,8.1,8.3,16.2,12.4,24.2c3.3,6.5,6.2,15.3,11.2,20.6c9.4,10.3,22-10.9,26.3-17.6
		c0.4-0.6,0.5-1.3,0.6-1.9l13.5,6.3c3.6,1.7,8.1,5.1,12.3,4.2c1.3-0.3,2.4-1.4,2.7-2.7C460.2,287.8,460.2,286.5,459.4,285.5z" style="fill:var(--illu-bg--light);"/>
	<path d="M458.3,229.6l-11.7-26.7c-1.9-4.5-8.6-0.6-6.7,3.8c3.8,8.8,7.7,17.8,11.7,26.7
		C453.7,238,460.2,234,458.3,229.6z" style="fill:var(--illu-bg--light);"/>
	<path d="M412.9,254.4c-1-1.9-3.5-2.3-5.3-1.4c-2.3,1.2-4.5,2.4-6.8,3.6c-1.8,1-2.4,3.5-1.4,5.3c1,1.9,3.5,2.3,5.3,1.4
		c2.3-1.2,4.5-2.4,6.8-3.6C413.4,258.8,413.9,256.2,412.9,254.4z" style="fill:var(--illu-bg--light);"/>
	<path d="M417,272.1c-3.6,1-6.7,2.8-9.4,5.4c-3.6,3.5,1.8,8.8,5.4,5.4c1.7-1.7,3.7-2.8,6-3.5
		C423.8,278.1,421.8,270.7,417,272.1z" style="fill:var(--illu-bg--light);"/>
</g>
</svg>
