<?xml version="1.0" encoding="utf-8"?>
<!-- Generator: Adobe Illustrator 23.0.2, SVG Export Plug-In . SVG Version: 6.00 Build 0)  -->
<svg version="1.1" id="Capa_1" xmlns="http://www.w3.org/2000/svg" xmlns:xlink="http://www.w3.org/1999/xlink" x="0px" y="0px" viewBox="0 0 800 826.7" style="enable-background:new 0 0 800 826.7;" xml:space="preserve">

<g>
	<path d="M698.9,678.8c-17.6-15.3-41.6-21.8-63.4-28.4c-27.2-8.3-54.6-14.7-82.3-19.7c-119.5-21.2-243.6-13-359.2,24.3
		c-0.3-5-4.4-10.1-10.9-8c-28.4,8.5-56.6,18.1-84.4,28.9C74.9,685.4,48.3,694,26.8,708c-16,10.6-29.5,26.6-26.3,46.9
		c2.9,17.6,17.6,29.5,33.1,36.7c21,9.5,44,11.9,66.4,15.3c26.6,4.1,52.8,7.7,79.4,10.6c55.8,6.2,112.2,10.1,168.6,9.1
		c107.1-1.5,214.9-18.9,313.2-62.6c18.9-8.5,41.9-18.1,51-38.3C719.5,708.7,712.5,690.7,698.9,678.8z" style="fill:#56597A;"/>
	<path d="M448.3,436.2c-19.4-14.5-45.2-12.1-67.8-7.7c-3.9-29.8-10.1-59.3-18.3-88.5c-5.9-20.4-12.4-41.1-21.2-60.5
		c-3.9-8.5-8.5-16.8-14.5-24.3c-4.7-5.7-12.4-9.5-18.1-14.5c0.8-1.8,0.8-3.9,0.6-5.9c1.5-1.5,2.6-3.9,2.6-5.9
		c14.7-13.5,21-37.2,20.1-56.9c-0.8-15.3-2.3-36-12.4-48.4c-4.7-5.9-11.9-9.1-18.9-9.1c-34.6-3.3-52.5,28.7-55.5,59.7
		c-1.5,15-4.1,35.4,4.4,48.9c5,8.3,13.5,13.5,22.7,16c0,0.8,0,2.1,0.3,2.9c0,0.3,0.3,0.6,0.3,0.8c-32.1,16-63.8,35.1-87.9,62
		c-29.8,33.1-37.2,72.9-45.5,115.4c-4.4,23.3-8.8,46.6-13.2,69.9c-2.9,15.6-7.7,33.1,9.8,41.6c2.3,1.2,5,2.1,7.4,3.3
		c-8.3,39.3-4.1,80.2,13.5,116.6c14.7,30,41.9,60,77.6,60.2c15.3,0.3,28.9-9.1,41.1-17.1c11.6,0.3,19.2-1.8,29.2-7
		c-7.7,17.6-10.9,36.3-0.3,49.3c5.9,7,15.3,10.1,23.6,13.2c13.2,5.4,27.2,9.1,41.4,11.9c5.9,1.2,10.9-2.3,11.2-8.5
		c0.8-15.6-11.2-23.3-15.6-37.2c-0.8-2.3-0.8-4.7-0.6-7c13.5,9.8,29.2,13.2,46.6,10.9c7.7-1.2,8.3-12.7,2.1-16.3
		c-6.5-3.9-13.2-7.4-19.7-11.2c15-29.5,29.2-59.3,42.5-89.5c13.5-31.6,29.2-64.1,33.9-98.3C472.8,480.6,469.5,452,448.3,436.2z" style="fill:#F7D3BD;"/>
	<path d="M792.5,29.9c0-4.7-4.1-9.1-8.8-8.8c-64.1,2.6-128,8-191.6,15.6c-5,0.6-8.5,3.6-8.8,8.8c0,1.5-0.3,2.6-0.3,3.6
		c-0.3,0.8-0.6,1.8-0.6,2.6c-6.5,85.9-14.7,171.5-25.1,256.8c-0.6,3.9,2.9,7.4,6.5,8.5c34.6,10.9,70.6,10.6,106.5,6.8
		c37.5-3.9,74.7-9.1,112.2-13.5c4.7-0.6,8.8-3.6,8.8-8.8C793.3,211.2,794,120.5,792.5,29.9z" style="fill:#EDEDED;"/>
	<path d="M794.2,20.7c-0.8-5-6.5-6.8-10.9-6.2c-46.9,7-94.1,11.2-141.4,12.1c-16.8,0.3-39.8-4.1-54.9,5
		c-10.1,6.2-13.5,16.8-10.6,27.2c-0.3,6.5-0.6,13-0.8,19.7c-0.3,4.7,4.1,8.8,8.8,8.8c68.8-1.2,137.8-4.1,206.3-9.1
		c4.7-0.3,8.8-3.9,8.8-8.8C799.2,52.9,797.4,36.7,794.2,20.7z" style="fill:#EF7D95;"/>
	<path d="M319.7,247.1c-4.7-6.2-13.2-5.4-16.3,2.1c-7.4,18.9-27.2,16.5-39,3.9c-6.5-7-13-9.1-22.7-6.8
		c-21.2,5.7-41.1,18.6-56.6,33.6c-26.3,25.1-43.4,59-47.6,95c-2.9,10.6-4.7,21.8-5,33.4c-0.3,3.6,1.5,6.2,3.9,7.4
		c1.5,1.8,3.6,2.9,6.5,2.9c14.5,0,29.2,0.3,43.7,0.3c0.3,17.4-0.3,34.6-1.5,51.7c-0.3,5,2.6,7.7,6.5,8.3c2.1,2.3,5,3.6,8.5,2.6
		l71.9-18.1c11.2-2.6,29.5-4.4,41.1-5.9c22.7-2.9,21.2,4.4,26.9,7.4c10.9,5.7,16.3-9.8,18.3-21.2c1.5-8.8-2.3-17.6-4.4-25.9
		c-2.3-8.8-5-18.1-7.4-26.9c5.7,0,11.2-0.3,17.1-0.3c4.4,0,9.5-4.1,8.8-8.8C367.1,332.7,349.5,286.7,319.7,247.1z" style="fill:#C39A8A;"/>
	<path d="M338.6,147.6c-3.3-11.9-9.1-22.5-19.2-30.5c-43.1-34.2-97.7,23-86.1,64.1c0.3,1.5,0.8,2.6,1.8,3.6
		c0.6,3.3,3.3,5.9,8,5.9c20.4,0,32.8-10.6,42.5-24.8c15.3,10.1,40.4,24.5,52.5,11.9C345,170.1,340.9,155.9,338.6,147.6z" style="fill:#EDEDED;"/>
	<path d="M271.2,186.6h-0.6c-4.7,0-9.1,4.1-8.8,8.8c0.3,4.7,3.9,8.8,8.8,8.8h0.6c4.7,0,9.1-4.1,8.8-8.8
		C279.7,190.8,276.3,186.6,271.2,186.6z" style="fill:#57455E;"/>
	<path d="M316.4,186.4c-4.7,0.3-8.8,3.9-8.8,8.8v0.6c0,4.7,4.1,9.1,8.8,8.8c4.7-0.3,8.8-3.9,8.8-8.8v-0.6
		C325.2,190.5,321.1,186.1,316.4,186.4z" style="fill:#57455E;"/>
	<path d="M657.8,177.4c-11.6,0-11.6,17.6,0,17.6S669.4,177.4,657.8,177.4z" style="fill:#57455E;"/>
	<path d="M698.3,174.5c-11.6,0-11.6,17.6,0,17.6C709.5,192.3,709.5,174.5,698.3,174.5z" style="fill:#57455E;"/>
	<path d="M740.8,168.6h-1.5c-4.7,0-9.1,4.1-8.8,8.8c0.3,4.7,3.9,8.8,8.8,8.8h1.5c4.7,0,9.1-4.1,8.8-8.8
		C749.3,172.4,745.9,168.6,740.8,168.6z" style="fill:#57455E;"/>
	<path d="M609.4,214.3h-1.5c-4.7,0-9.1,4.1-8.8,8.8c0.3,4.7,3.9,8.8,8.8,8.8h1.5c4.7,0,9.1-4.1,8.8-8.8
		C618,218.2,614.5,214.3,609.4,214.3z" style="fill:#57455E;"/>
	<path d="M650.8,214.3h-1.5c-4.7,0-9.1,4.1-8.8,8.8c0.3,4.7,3.9,8.8,8.8,8.8h1.5c4.7,0,9.1-4.1,8.8-8.8
		C659.3,218.2,655.7,214.3,650.8,214.3z" style="fill:#57455E;"/>
	<path d="M698.3,213.2c-11.6,0-11.6,17.6,0,17.6C709.5,230.9,709.5,213.2,698.3,213.2z" style="fill:#57455E;"/>
	<path d="M745.5,212.5c-4.7,0.3-8.8,3.9-8.8,8.8v1.5c0,4.7,4.1,9.1,8.8,8.8c4.7-0.3,8.8-3.9,8.8-8.8v-1.5
		C754.4,216.7,750.3,212.3,745.5,212.5z" style="fill:#57455E;"/>
	<path d="M609.4,267.5h-1.5c-4.7,0-9.1,4.1-8.8,8.8c0.3,4.7,3.9,8.8,8.8,8.8h1.5c4.7,0,9.1-4.1,8.8-8.8
		C618,271.3,614.5,267.5,609.4,267.5z" style="fill:#57455E;"/>
	<path d="M653.7,258.6c-11.6,0-11.6,17.6,0,17.6C665.2,276.4,665.2,258.6,653.7,258.6z" style="fill:#57455E;"/>
	<path d="M698.3,257.7c-11.6,0-11.6,17.6,0,17.6C709.5,275.4,709.5,257.7,698.3,257.7z" style="fill:#EF7D95;"/>
	<path d="M402.5,718.4l-9.5-3.3c4.1-4.4,8.5-8.8,12.7-13.5c7.7-8.3-4.7-21-12.4-12.4c-6.2,6.8-12.4,13.2-18.6,20.1
		l-8-2.6c-9.5-2.9-14.2,9.5-8.3,15c-7.4,5.9-14.5,12.4-20.4,19.7c-10.1-5-19.7-10.3-29.5-15.6c-10.1-5.7-18.9,9.8-8.8,15.3
		c20.1,10.9,40.1,21.2,60.8,31c10.3,4.7,19.2-10.3,8.8-15.3c-5-2.3-10.1-4.7-15-7c5.4-5.9,11.2-11.2,17.6-16
		c1.8-1.5,3.3-3.3,3.9-5.4c7.4,2.3,14.7,4.7,22.2,7C408.5,739.1,413.1,722,402.5,718.4z" style="fill:#74A3D7;"/>
	<path d="M628.3,111.4c-3.3-3.3-9.5-3.6-12.4,0c-5.9,7-11.6,14.5-16.3,22.5c-5.9,9.8,9.5,18.6,15.3,8.8
		c4.1-6.5,8.5-13,13.5-18.9C631.6,120.2,631.9,114.8,628.3,111.4z" style="fill:#74A3D7;"/>
	<path d="M663.2,108.3c-7.7,8-15,16-22.7,23.6c-8,8.3,4.7,20.7,12.4,12.4c7.7-8,15-16,22.7-23.6
		C683.6,112.9,670.9,100.1,663.2,108.3z" style="fill:#74A3D7;"/>
	<path d="M713.1,108.3c-7.7,8-15,16-22.7,23.6c-8,8.3,4.7,20.7,12.4,12.4c7.7-8,15-16,22.7-23.6
		C733.5,112.9,721.1,100.1,713.1,108.3z" style="fill:#74A3D7;"/>
	<path d="M750.6,109.9c-7.7,8-15,16-22.7,23.6c-8,8.3,4.7,20.7,12.4,12.4c7.7-8,15-16,22.7-23.6
		C771,114,758.5,101.6,750.6,109.9z" style="fill:#74A3D7;"/>
	<path d="M625.4,164.2c-3.3-3.3-9.5-3.6-12.4,0c-5.9,7-11.6,14.5-16.3,22.5c-5.9,9.8,9.5,18.6,15.3,8.8
		c4.1-6.5,8.5-13,13.5-18.9C628.6,173,629,167.7,625.4,164.2z" style="fill:#74A3D7;"/>
	<path d="M745.5,257.7c-11.6,0-11.6,17.6,0,17.6C757,275.4,757,257.7,745.5,257.7z" style="fill:#57455E;"/>
	<path d="M196.9,342.4c-12.1,44-18.9,89.2-20.1,134.5c-0.3,11.6,17.4,11.6,17.6,0c1.2-44,7.7-87.4,19.4-129.8
		C217.1,335.9,200,331.2,196.9,342.4z" style="fill:#57455E;"/>
	<path d="M443.3,426.9c-28-11.9-60-10.9-84.1,8.8c-27.2,22.5-40.4,56.9-73.2,72.9c-41.9,20.4-93.6,27.2-139.3,29.2
		c-5.4,0.3-8.3,4.4-8.5,8.5c-1.2,1.5-2.1,2.9-2.3,5.4c-6.5,61.3,3.3,149.7,78.6,162.4c14.2,2.3,28.7,1.2,41.6-4.7
		c8.8-3.9,13.9-8.5,23.8-7.4c7,0.8,17.6,4.4,18.6,3.9c4.4-18.9,18.3-53.1,34.6-63.4c7-4.4,17.6-6.5,28-6.2c2.1,0,3.9-0.3,5.9-0.3
		c10.6-0.6,21-0.3,31.6,0.6c6.2,0.6,12.4,1.8,18.1-1.2c12.4-6.5,18.1-27.2,23.8-38.7c15.6-31.3,31.8-65.5,36-100.6
		C479.8,467.3,471.6,438.6,443.3,426.9z" style="fill:#EF7D95;"/>
	<path d="M356.8,390.5c-4.1-22.7-8.5-45.2-12.7-67.8c-2.1-11.2-19.2-6.5-17.1,4.7c4.1,22.7,8.5,45.2,12.7,67.8
		C341.7,406.2,358.8,401.5,356.8,390.5z" style="fill:#57455E;"/>
	<path d="M433,447.8c-13.9-22.5-39.6-26.6-64.1-25.1c-11.2,0.6-11.6,18.3,0,17.6c28-1.5,53.8,6.5,55.5,39
		c1.5,25.6-11.6,52.2-20.1,75.8c-18.6,52.2-38.7,104.2-59.3,155.9c-4.1,10.6,13,15,17.1,4.7c25.6-63.4,51-127.8,72.4-193
		C442.6,498.5,447.5,470.8,433,447.8z" style="fill:#57455E;"/>
	<path d="M305.8,549c-0.8-11.2-18.6-11.6-17.6,0c4.4,52-4.4,103.2-4.1,155.2c0,11.6,17.6,11.6,17.6,0
		C301.4,652.6,310.2,601,305.8,549z" style="fill:#57455E;"/>
	<path d="M307.6,213.5c-6.8,0.6-13.9,0.8-20.7,0.8c-11.6-0.3-11.6,17.4,0,17.6c6.8,0.3,13.9,0,20.7-0.8
		c4.7-0.6,8.8-3.9,8.8-8.8C316.4,217.9,312.2,212.8,307.6,213.5z" style="fill:#57455E;"/>
	<path d="M621.5,19.6c0.6-4.7-4.4-8.8-8.8-8.8c-5.4,0-8.3,4.1-8.8,8.8c-0.8,8-1.2,16.3-0.6,24.3
		c0.6,11.2,18.3,11.6,17.6,0C620.3,35.8,620.7,27.6,621.5,19.6z" style="fill:#57455E;"/>
	<path d="M748.2,8.7v21c0,11.6,17.6,11.6,17.6,0v-21C765.9-2.9,748.2-2.9,748.2,8.7z" style="fill:#57455E;"/>
</g>
</svg>
