<?xml version="1.0" encoding="utf-8"?>
<!-- Generator: Adobe Illustrator 23.0.2, SVG Export Plug-In . SVG Version: 6.00 Build 0)  -->
<svg version="1.1" id="Capa_1" xmlns="http://www.w3.org/2000/svg" xmlns:xlink="http://www.w3.org/1999/xlink" x="0px" y="0px" viewBox="0 0 800 568.2" style="enable-background:new 0 0 800 568.2;" xml:space="preserve">

<g>
	<path d="M793.1,274.9c-12-60.6-39.7-121.1-89.6-168.6c-44.9-42.8-105.9-74.4-172.5-91.2C388-21.3,220.7,9.7,111.2,91.2
		C59.1,130.1,21.7,180.8,6.9,236.4c-15.3,57.4-5.2,117.4,30.7,168.9c8.7,12.4,18.9,24,30.1,35.1c1.2,1.2,2.7,1.5,4,1.3
		c0.1,0.7,0.6,1.6,1.8,2.2c29.1,18.7,64.6,27.9,100.5,34.8c40.3,7.7,81,13.6,122,18c83.2,8.7,167.6,10.6,251.3,5.3
		c40.9-2.5,81.7-6.8,122.2-12.5c20.8-3,41.5-6.5,62-10.3c15.6-3,36-4.7,45.6-16.5c4.1-5.2,6-11.2,7.8-17.1
		c2.5-8.3,4.7-16.7,6.6-24.9c3.7-16.2,6.2-32.8,7.7-49.3C801.4,339.3,799.5,306.8,793.1,274.9z" style="fill:var(--illu-bg--main);"/>
	<path d="M781.6,466.7c-10.3-16.7-29.8-31.1-49.9-42.8c-19.6-11.5-41.9-20.8-65.9-27.4c-18.7-5.3-38.1-8.6-57.8-10.9
		c-51.2-11.5-105.6-16.4-159.6-14.2c-62.8-1.8-126,0.3-188.3,6.2c-31.6,3-63,7.1-94.1,12c-27.1,4.4-55,9.6-78.3,20.5
		c-22.3,10.5-39.2,25.2-54.1,40.3c-14.8,14.9-27,32.8-17.7,50.9c18.9,36.6,89.1,44,137.8,50.9c123,17.7,250.4,20.1,375.3,10.5
		c30.5-2.4,60.8-5.3,91-9c30.2-3.7,61.2-7.2,90.7-13.3c24.3-5,47.8-13,63.1-27.1C788.8,499.5,791.5,482.7,781.6,466.7z" style="fill:var(--illu-blue--light);"/>
	<path d="M585.2,302.8c-1.5-0.1-2.8,0-4.1,0.1c-3.8-0.7-6.6-4.3-5.9-8.6c0.4-2.7-1.3-4.6-3.4-5.2
		c-2.2-1.8-5.9-1.6-6.5,1.9c-1,5.9-3.8,10.6-9,13.7c-4,2.5-1.5,9.3,3.2,7.8c3-0.9,6.8,0.6,7.1,4.1c0.4,4.6,6.9,6,8.4,1.2
		c1-3.7,3.7-5.9,7.1-6.6c1.5,0,3,0,4.4-0.3C591.3,310.2,589.7,303.3,585.2,302.8z" style="fill:var(--illu-yellow--main);"/>
	<path d="M629.1,354.2c-1.2,0-2.5,0.1-3.5,0.4c-5.8-0.1-8.9-5.8-6.8-11.5c0.6-1.5,0.3-2.7-0.4-3.5c0-0.1,0-0.4,0-0.6
		c0.4-5.5-8.1-5.5-8.6,0c-0.6,6.2-3.5,11.8-8.7,15.3c-4.6,3.2-0.7,9.4,4.3,7.4c4.4-1.9,6.5,5.6,7.2,8.4c1,3.8,7.5,4.3,8.3,0
		c0.6-3.5,2.7-6.2,5.9-6.9c1,0,2.2-0.1,3.2-0.4C634.8,361.5,633.8,354.2,629.1,354.2z" style="fill:var(--illu-yellow--main);"/>
	<path d="M219.4,291.5c-0.7-0.1-1.5-0.1-2.2-0.1c-4.9-0.7-7.4-5.2-5.6-10.3c1-3.1-1.3-5-3.8-5.2
		c-2.8-1.6-7.4,0.7-6.3,4.9c1,4.7-1.3,9.1-5.2,11.4c-1.3,0.3-2.7,0.7-4,1.6c-4.1,2.5-1.5,8.9,3.2,7.8c1-0.3,2.1-0.6,3-1
		c2.7,0.1,4.7,3.8,6,5.9c1.8,2.8,7.2,2.8,7.8-1c0.4-3.2,2.4-5,5.2-5.3c0.7,0,1.5,0,2.2,0C225,299.6,224.7,292.2,219.4,291.5z" style="fill:var(--illu-yellow--main);"/>
	<path d="M384.5,63.4c-5.9-0.6-11.2-3.5-14.9-8.3c-2.8-3.7-8.9-1.8-7.8,3.2c0.1,0.3,0.1,0.7,0.3,1
		c-0.3,1.8-1.2,3.2-2.4,4.3c-2.2,0.4-4.3,1.5-6.5,3.2c-3.5,3,0.4,7.8,4.1,7.1c2.1-0.4,4-1.2,5.8-2.2c3.7,0.7,7.1,6.2,8.7,8.7
		c2.4,3.8,7.5,1.9,8-2.2c0.3-3.5,2.7-5.9,6-6.8C390.5,70.3,389,63.8,384.5,63.4z M372.7,68.4c0.6,0.3,1.2,0.6,1.9,0.9
		c-0.1,0.1-0.3,0.3-0.4,0.6C373.7,69.3,373.2,68.8,372.7,68.4z" style="fill:var(--illu-yellow--main);"/>
	<path d="M557.2,349.7c-5.5,0-5.5,8.6,0,8.6C562.7,358.1,562.7,349.7,557.2,349.7z" style="fill:var(--illu-white--light);"/>
	<path d="M667.1,314.8c-5.5,0-5.5,8.6,0,8.6C672.6,323.2,672.6,314.8,667.1,314.8z" style="fill:var(--illu-white--light);"/>
	<path d="M644.9,179.6H644c-2.2,0-4.4,1.9-4.3,4.3c0.1,2.4,1.9,4.3,4.3,4.3h0.9c2.2,0,4.4-1.9,4.3-4.3
		C649,181.5,647.2,179.6,644.9,179.6z" style="fill:var(--illu-white--light);"/>
	<path d="M513.7,78.6c-0.3-0.3-0.6-0.6-0.9-0.9c-1.6-1.6-4.4-1.6-6,0c-1.6,1.8-1.6,4.3,0,6l0.9,0.9c1.6,1.6,4.4,1.6,6,0
		C515.2,82.8,515.3,80.2,513.7,78.6z" style="fill:var(--illu-white--light);"/>
	<path d="M461.2,29.9c-5.5,0-5.5,8.6,0,8.6C466.6,38.4,466.6,29.9,461.2,29.9z" style="fill:var(--illu-white--light);"/>
	<path d="M291.1,65.4c-0.3-0.3-0.6-0.6-0.9-0.9c-1.6-1.6-4.4-1.6-6,0c-1.6,1.8-1.6,4.3,0,6c0.3,0.3,0.6,0.6,0.9,0.9
		c1.6,1.6,4.4,1.6,6,0C292.7,69.7,292.8,67.1,291.1,65.4z" style="fill:var(--illu-white--light);"/>
	<path d="M283,84c-5.5,0-5.5,8.6,0,8.6C288.4,92.6,288.4,84,283,84z" style="fill:var(--illu-white--light);"/>
	<path d="M159.5,247.5c-1.8-1.6-4.3-1.6-6,0c-0.3,0.3-0.6,0.6-0.9,0.9c-1.6,1.6-1.6,4.4,0,6c1.8,1.6,4.3,1.6,6,0
		l0.9-0.9C160.9,251.9,161.1,249,159.5,247.5z" style="fill:var(--illu-white--light);"/>
	<path d="M243.9,218c-2.4,0.1-4.3,1.9-4.3,4.3v0.9c0,2.2,1.9,4.4,4.3,4.3c2.4-0.1,4.3-1.9,4.3-4.3v-0.9
		C248.1,220,246.1,217.8,243.9,218z" style="fill:var(--illu-white--light);"/>
	<path d="M174.5,348c-5.5,0-5.5,8.6,0,8.6C180,356.4,180,348,174.5,348z" style="fill:var(--illu-white--light);"/>
	<path d="M127.6,290.4c-5.5,0-5.5,8.6,0,8.6C133.1,298.8,133.1,290.4,127.6,290.4z" style="fill:var(--illu-white--light);"/>
	<path d="M375.3,510.7c-6.3,0.3-12.8,0.4-19.2,0.7c-5.6,0.1-5.8,9,0,8.9c6.3-0.3,12.8-0.4,19.2-0.7
		C380.9,519.2,380.9,510.4,375.3,510.7z" style="fill:var(--illu-bg--light);"/>
	<path d="M639.7,461.7c-0.4-1-1.3-1.8-2.8-2.1c-6.9-1.2-18.6-2.5-23.5,4.3c-4.7,6.6,1,14.3,8,15.8
		c6.8,1.5,16.5-0.7,21.1-6.2C646.3,468.9,644.1,463.6,639.7,461.7z M629.7,470.7c-2.1,0.4-5.2,1-7.2,0.1c-3.7-1.6,0.9-2.8,2.7-3
		c2.5-0.3,5-0.1,7.5,0.1c0.3,0.4,0.7,0.9,1.3,1.2c-0.1,0-0.1,0.1-0.3,0.1C632.2,469.8,631,470.4,629.7,470.7z" style="fill:var(--illu-bg--light);"/>
	<path d="M576,410.2c-4.6,0-9.3,0.6-13.7,1.8c-5.5,1.3-3.2,9.9,2.4,8.6c3.7-0.9,7.5-1.3,11.4-1.3
		C581.6,419.1,581.6,410.2,576,410.2z" style="fill:var(--illu-bg--light);"/>
	<path d="M580.2,475.7h-8.9c-5.8,0-5.8,8.9,0,8.9h8.9C586,484.6,586,475.7,580.2,475.7z" style="fill:var(--illu-bg--light);"/>
	<path d="M650,426.3c-3.5-1.3-7.7-1.3-11.4,0c-2.2,0.7-3.7,3.1-3.1,5.5c0.6,2.2,3.1,3.8,5.5,3.1c2.4-0.7,4.3-0.7,6.6,0
		c2.2,0.7,4.9-0.9,5.5-3.1C653.9,429.3,652.4,427,650,426.3z" style="fill:var(--illu-bg--light);"/>
	<path d="M218.3,456.8c-0.7-0.9-1.8-1.5-3.1-1.5c-8.1-0.4-21.4-1.2-25.8,7.2c-4.3,8,4,14.8,11.2,16.2
		c7.4,1.5,18.9,0.1,23.9-6.2C229.4,466.1,224.5,459.5,218.3,456.8z M216.6,467.8c-0.6,1.2-3.7,1.6-4.7,2.1c-3.4,1-7.5,1.3-10.9,0.1
		c-5.5-1.8-3.1-4.6,1.5-5.5c3.1-0.6,6.3-0.6,9.4-0.4c0.4,0.1,0.7,0.4,1.3,0.6c1.2,0,2.2,0.4,3,1.3
		C217.7,466.3,217.9,467,216.6,467.8z" style="fill:var(--illu-bg--light);"/>
	<path d="M290.2,511.1c-0.7-2.5-3.1-3.5-5.5-3.1c-4.7,0.7-9.3,1.6-14,2.4c-2.4,0.4-3.7,3.2-3.1,5.5
		c0.7,2.5,3.1,3.5,5.5,3.1c4.7-0.7,9.3-1.6,14-2.4C289.4,516.3,290.8,513.3,290.2,511.1z" style="fill:var(--illu-bg--light);"/>
	<path d="M245.5,410.4c-4.1-0.3-8.4-0.4-12.5-0.7c-5.8-0.3-5.6,8.6,0,8.9c4.1,0.3,8.4,0.4,12.5,0.7
		C251.1,419.5,251.1,410.7,245.5,410.4z" style="fill:var(--illu-bg--light);"/>
	<path d="M156.5,429.3c-0.7-2.5-3.1-3.4-5.5-3.1c-1.5,0.1-3.2,0-5-0.6c-2.2-0.7-4.9,0.9-5.5,3.1
		c-0.6,2.4,0.7,4.7,3.1,5.5c3.2,1,6.5,1,9.7,0.6C155.8,434.3,157.1,431.3,156.5,429.3z" style="fill:var(--illu-bg--light);"/>
	<path d="M123.3,489.1c-5.3-0.4-10.5-0.9-15.8-1.3c-5.6-0.4-5.6,8.4,0,8.9c5.3,0.4,10.5,0.9,15.8,1.3
		C128.9,498.4,128.9,489.6,123.3,489.1z" style="fill:var(--illu-bg--light);"/>
	<path d="M704.6,490.9c-4.4-0.1-8.7,0.3-13,1.3c-5.6,1.3-3.2,9.7,2.4,8.6c3.5-0.7,6.9-1,10.6-1
		C710.2,499.9,710.2,491.1,704.6,490.9z" style="fill:var(--illu-bg--light);"/>
	<path d="M454.1,508.2c-4-0.4-7.8-0.9-11.8-1.3c-2.4-0.3-4.4,2.2-4.4,4.4c0,2.7,2.1,4.1,4.4,4.4c4,0.4,7.8,0.9,11.8,1.3
		c2.4,0.3,4.4-2.2,4.4-4.4C458.5,510,456.5,508.5,454.1,508.2z" style="fill:var(--illu-bg--light);"/>
	<path d="M180.4,513.5h-11.8c-5.8,0-5.8,8.9,0,8.9h11.8C186,522.3,186,513.5,180.4,513.5z" style="fill:var(--illu-bg--light);"/>
	<path d="M98.2,448.7c-4.3,1-8.6,1.9-12.8,3c-5.6,1.2-3.2,9.7,2.4,8.6c4.3-1,8.6-1.9,12.8-3
		C106.1,456,103.7,447.4,98.2,448.7z" style="fill:var(--illu-bg--light);"/>
	<path d="M643.2,230.1c-2.4,0.1-4.4,1.9-4.4,4.4v1.2c0,2.4,2.1,4.6,4.4,4.4c2.4-0.1,4.4-1.9,4.4-4.4v-1.2
		C647.7,232.3,645.6,230.1,643.2,230.1z" style="fill:var(--illu-white--light);"/>
	<path d="M741.2,335.4h-4c-0.4-1.6-0.9-3.4-1.6-5c-0.9-2.2-3-3.7-5.5-3.1c-2.1,0.6-4,3.2-3.1,5.5
		c0.3,0.9,0.6,1.8,0.9,2.7h-4.7c-5.8,0-5.8,8.9,0,8.9h6c0,0.9,0,1.9-0.1,2.8c-0.3,2.4,0.6,4.7,3.1,5.5c2.1,0.6,5.2-0.7,5.5-3.1
		c0.3-1.8,0.4-3.5,0.4-5.2h3.1C746.9,344.3,746.9,335.4,741.2,335.4z" style="fill:var(--illu-yellow--main);"/>
	<path d="M638.4,102.2c-1.9,0.1-3.8,0.1-5.8,0.1c-0.3-1.8-0.4-3.4-0.7-5.2c-0.3-2.4-3.4-3.7-5.5-3.1
		c-2.5,0.7-3.4,3.1-3.1,5.5l0.3,1.9c-0.7-0.1-1.3-0.1-2.1-0.3c-5.6-1.2-8,7.4-2.4,8.6c1.9,0.4,3.8,0.7,5.6,1l1,6.8
		c0.3,2.4,3.4,3.7,5.5,3.1c2.5-0.7,3.4-3.1,3.1-5.5c-0.1-1.3-0.3-2.5-0.6-3.8c1.5,0,3,0,4.4-0.1
		C644.1,110.6,644.1,101.7,638.4,102.2z" style="fill:var(--illu-yellow--main);"/>
	<path d="M85.8,252.9c-3.4,0.4-6.8,1-10.2,1.8c-0.1-1.5-0.3-3.1-0.4-4.6c-0.6-5.6-9.4-5.6-8.9,0
		c0.3,2.4,0.4,4.7,0.7,7.1c-0.6,0.1-1,0.3-1.6,0.6c-5.3,1.9-3,10.5,2.4,8.6c0,0,0,0,0.1,0c0.1,2.2,0.4,4.4,0.6,6.6
		c0.6,5.6,9.4,5.6,8.9,0c-0.3-3.1-0.6-6.2-0.9-9.3c3.1-0.7,6.2-1.3,9.3-1.8C91.5,261.2,91.5,252.4,85.8,252.9z" style="fill:var(--illu-yellow--main);"/>
	<path d="M112.1,352.1c-1.8,0-3.5,0-5.2,0c-0.4-1.8-0.7-3.4-1.2-5.2c-1.3-5.6-9.9-3.2-8.6,2.4c0.3,1.2,0.6,2.4,0.9,3.7
		c-1.3,0.1-2.5,0.4-3.8,0.7c-5.6,1.2-3.2,9.7,2.4,8.6c1.2-0.3,2.4-0.4,3.4-0.6c0.3,1.5,0.7,3,1,4.4c1.3,5.6,9.9,3.2,8.6-2.4
		c-0.1-0.9-0.4-1.8-0.6-2.8c1,0,2.1,0,3.1,0C117.9,361.2,117.9,352.4,112.1,352.1z" style="fill:var(--illu-yellow--main);"/>
	<path d="M441,83.9c-5.8,0-5.8,8.9,0,8.9C446.7,92.7,446.7,83.9,441,83.9z" style="fill:var(--illu-white--light);"/>
	<path d="M221,79.4c-5.8,0-5.8,8.9,0,8.9S226.7,79.4,221,79.4z" style="fill:var(--illu-white--light);"/>
	<path d="M76.3,159.7c-5.8,0-5.8,8.9,0,8.9S82,159.7,76.3,159.7z" style="fill:var(--illu-white--light);"/>
	<path d="M42.8,324.6c-5.8,0-5.8,8.9,0,8.9C48.5,333.5,48.5,324.6,42.8,324.6z" style="fill:var(--illu-white--light);"/>
	<path d="M710.2,182.3c-5.8,0-5.8,8.9,0,8.9C715.8,191.1,715.8,182.3,710.2,182.3z" style="fill:var(--illu-white--light);"/>
	<path d="M749.7,225.7c-5.8,0-5.8,8.9,0,8.9C755.5,234.5,755.5,225.7,749.7,225.7z" style="fill:var(--illu-white--light);"/>
	<path d="M687.5,358.1c-2.4,0.1-4.4,1.9-4.4,4.4v1.2c0,2.4,2.1,4.6,4.4,4.4c2.4-0.1,4.4-1.9,4.4-4.4v-1.2
		C691.9,360.2,689.9,358,687.5,358.1z" style="fill:var(--illu-white--light);"/>
	<path d="M766.4,404.8c-5.8,0-5.8,8.9,0,8.9C772,413.6,772,404.8,766.4,404.8z" style="fill:var(--illu-white--light);"/>
	<path d="M566.7,98.5c-5.8,0-5.8,8.9,0,8.9C572.3,107.3,572.3,98.5,566.7,98.5z" style="fill:var(--illu-white--light);"/>
	<path d="M576.2,242c-5.8,0-5.8,8.9,0,8.9C581.9,250.9,581.9,242,576.2,242z" style="fill:var(--illu-white--light);"/>
	<path d="M530.1,456c1.5-0.6,2.7-1.9,2.5-4c-3.8-56.8-7.7-113.6-11.5-170.4c-1.9-28.5-3.8-56.8-5.8-85.3
		c-1.3-20.5-7.2-49.3,9.7-65.2c3-2.8,0.4-7.2-3.1-7.5c-84.1-6.8-168.8-2.4-251.7,12.7c-4.1,0.7-3.8,6-1,8.1
		c17.6,12.5,18,36.7,16.5,56.2c-2.1,27.4-6,54.6-8.3,82c-4.7,58.4-6.8,117.1-8.7,175.7c0,1.9,0.9,3.1,2.1,3.7
		c0.4,1.8,1.8,3.5,4.1,3.7c45.7,2.7,91.6,5.3,137.4,8c39.2,2.2,81.1,7.5,117.9-10.2C533.9,461.7,532.7,457.4,530.1,456z" style="fill:var(--illu-red--light);"/>
	<path d="M201.7,141.1c-6.8-11.7-18.3-21.7-32.3-22.3c-3-0.1-5.9,0.1-8.9,0.7c-22.4-1.6-45,12.4-52.4,33.9
		c-7.7,22.1,2.7,48.1,22.4,60.2c20.2,12.2,47.4,7.8,63.9-8.6C211.2,188.5,213.3,161.3,201.7,141.1z" style="fill:var(--illu-blue--main);"/>
	<path d="M228.8,131.2c-2.4-2.5-5.6-2.5-8.7-2.2c-6,0.6-12.2,1.9-18.3,3c-5.6,0.9-4.4,9.7,1.2,8.7
		c3.5-0.6,6.9-1.2,10.5-1.6c1.8-0.3,3.5-0.6,5.2-0.9c3-0.6,3.4-0.6,1.5,0c-0.7,2.1-6.8,5.6-8.6,6.9c-2.2,1.8-4.4,3.4-6.6,5
		c-11.8,8.9-24.3,16.7-37.3,23.8c-5.9,3.2-67.4,31.1-76.6,27.3c5.2-5.2,10.2-10.3,15.3-15.5c4-4-1.5-11.1-5.5-6.9
		c-4.7,4.7-9.3,9.4-14,14.3c-2.7,2.7-6,4.9-5.5,9c1.2,7.7,10.2,9,16.4,8.1c10.8-1.5,21.8-5.9,32-9.6c11.2-4,22.3-8.7,32.9-14
		c20.9-10.3,40.7-23,58.7-37.8C225.9,145,234.6,137.7,228.8,131.2z" style="fill:var(--illu-yellow--main);"/>
	<path d="M156.1,145c-13.3,6.6-27,11.8-41.5,15c-5.5,1.3-4.4,10,1.2,8.7c15.2-3.5,29.8-8.7,43.7-15.6
		C164.6,150.6,161.1,142.4,156.1,145z" style="fill:var(--illu-bg--light);"/>
	<path d="M187.9,186.6c-4.1,4.6-9.3,7.5-15.2,9.3c-5.5,1.6-1.9,9.7,3.4,8.1c7.4-2.2,13.6-6.5,18.7-12.2
		C198.9,187.6,191.8,182.3,187.9,186.6z" style="fill:var(--illu-bg--light);"/>
	<path d="M479.8,255.9c0.3-0.9,0.6-1.9,0.6-3.1c0.6-13.4,1.2-26.9,1.8-40.3c0.6-12.4,2.2-25.1-0.6-37.2
		c-1-4.6-6.5-7.5-10.9-6.2c-3,0.9-6,1.8-9,2.7c-4-1.5-8.6-2.2-13.3-2.5c-18-1-39.5,2.8-42.3,19.5c-1.6,9.7-0.1,20.4,0,30.1
		c0.1,11.2,0.3,22.4,0.3,33.6c0.3,21.5,0.4,42.9,0.7,64.5c0.6,48.8,1,97.7,1.6,146.5c0,2.4,1,4.3,2.7,5.8c1,3.5,4.6,6.6,10.3,6.8
		c19.5,0.6,38.8,0.6,58.3,0.1c5.9-0.1,11.4-4,11.2-8.9C487.3,396.8,483.6,326.3,479.8,255.9z" style="fill:var(--illu-bg--main);"/>
	<path d="M427.8,168.6c-3.1,0-6,0-9.1,0.4c-4,0.4-8.1,0.6-10.8,4.1c-3.7,4.9-2.5,13.6-1.8,19.2c0.6,4.7,3.7,8.9,8.9,8.9
		c4.3,0,9.4-4.1,8.9-8.9c-0.3-2.1-0.4-4-0.4-6c1.6,0,3.1,0,4.4,0c4.7,0,8.9-4.1,8.9-8.9C436.7,172.5,432.7,168.6,427.8,168.6z" style="fill:var(--illu-bg--main);"/>
	<path d="M486.7,318.2c-0.3-24.5-0.3-48.8,0.1-73.3c0.4-23.6,3.1-47.9-2.1-71.3c-0.4-1.8-1.6-2.8-3-3.1
		c-0.3-1.9-1.6-3.8-4.3-3.8c-51.6-0.9-103.3-1.6-154.8-2.5c-3.2,0-4.7,3-4.1,5.5c-2.2,0-4.6,1.3-4.7,4.3
		c-5.5,93.7-12.4,187.4-20.9,280.8c-0.6,5.6,8.4,5.6,8.9,0c8.6-93.5,15.5-187.1,20.9-280.8c0-0.3,0-0.6,0-0.9c0,0,0,0,0.1,0
		c51.2,0.9,102.2,1.6,153.4,2.5c0,0.1,0,0.3,0,0.4c5.2,23.8,2.1,49.1,1.6,73.3c-0.4,23.9-0.4,47.9,0,71.8
		c0.7,48.4,3.1,96.8,6.9,144.9c0.4,5.6,9.3,5.8,8.9,0C489.6,416.7,487.3,367.4,486.7,318.2z" style="fill:var(--illu-bg--light);"/>
	<path d="M394.5,302.5c-1.3-33.5-2.7-67-4-100.5c0-1.8-1.3-4-3.2-4.3c-14.6-2.1-29.2-3.4-44-3.5c-4.4,0-9.6-0.7-12.7,3
		c-3.4,4.1-2.5,12.2-3,17.3c-2.8,30.7-5.6,61.2-8.4,91.9c-0.3,3.4,2.7,4.7,5.3,4.1c0.1,0,0.1,0.1,0.3,0.1
		c15.2,3.7,30.5,5.9,46.2,6.3c5.6,0.1,15.3,1.8,20.5-1.2C396.3,313.3,394.6,306.9,394.5,302.5z M385.2,308.1c-1.9,0-3.8,0.1-5.8,0.1
		c-2.8,0-5.8,0-8.6-0.1c-14.3-0.4-28.5-2.4-42.5-5.8c2.1-23.5,4.3-47.1,6.3-70.5c0.6-5.8,1-11.5,1.6-17.3c0.3-2.5-0.3-8,0.9-10
		c-0.3-1.9,0.7-2.4,3-1.5c1.9,0,3.8,0,5.8,0c12,0.1,23.9,1.2,35.7,2.8c1,26.9,2.1,53.7,3.1,80.6c0.3,6.5,1.3,13.9,0.7,20.4
		C386.2,310.3,386.1,310.8,385.2,308.1z" style="fill:var(--illu-bg--light);"/>
	<path d="M388,432.2c0.1-10.9,0.1-22,0.1-32.9c-0.1-10.9-0.3-22-0.7-32.9c-0.1-5.8-0.4-11.5-0.7-17.1
		c-0.1-2.7,0-5.6-1.8-7.8c-1.5-1.9-3.5-2.2-5.8-2.7c-5.6-1-11.7-1.3-17.4-2.1c-11.7-1.3-23.2-2.7-34.8-4c-2.5-0.3-4.3,2.2-4.4,4.4
		c-3,37-5.5,74.1-7.5,111.1c-0.1,3.1,2.5,4.6,4.9,4.3c0.9,1.2,2.5,1.9,4.4,1.3c10.9-3.1,22.1-4.7,33.5-4.4
		c5.5,0.1,10.9,0.7,16.2,1.8c2.8,0.6,6.2,1.9,9.1,0.7C390.1,449.2,387.8,437.8,388,432.2z M379.3,442.8c-0.3,0-0.9,0-1.6-0.3
		c-2.1-0.6-4.4-0.7-6.6-1.2c-15.8-2.2-31.6-1-46.9,3.1c1.9-34.2,4.1-68.5,6.9-102.7c7.8,0.9,15.6,1.8,23.5,2.8c4.3,0.4,8.7,1,13,1.5
		c2.1,0.3,5,1,7.2,0.9c3.7-0.3,2.1-1,3.1,2.2c1.2,3.5,0.4,9,0.6,12.8c0.1,4.7,0.3,9.6,0.4,14.3c0.3,9,0.4,18.1,0.4,27.1
		c0,8.6,0,17.1-0.1,25.8C379.1,431.9,380.2,439.9,379.3,442.8z" style="fill:var(--illu-bg--light);"/>
	<path d="M397.7,319.8c-0.7-0.1-1.5-0.3-2.2-0.3c-0.9-0.4-1.9-0.6-3.2-0.1c-2.5,0.9-4.3,2.5-5.5,4.6
		c-1,1.5-1.6,3.2-1.6,5.2c0,1,0.3,1.9,0.7,2.5c0.1,0.7,0.4,1.5,0.7,2.2c3.2,6.3,11.5,6.2,15.6,0.9
		C406.4,329.5,404.7,321.4,397.7,319.8z M395.4,329.2c-0.1,0.1-1,0.7-0.4,0.4c-0.1,0-0.1,0.1-0.3,0.1v-0.1c0-0.1-0.1-0.3-0.1-0.4
		v-0.1c0-0.3,0-0.3,0-0.4c0.1,0,0.1-0.1,0.3-0.1c0,0,0.1,0,0.4-0.1c0.1,0,0.1,0,0.1,0c0.1,0,0.3,0,0.4,0l0,0c0,0,0,0,0,0.1
		C395.8,328.5,395.4,329.1,395.4,329.2z" style="fill:var(--illu-yellow--main);"/>
	<g>
		<path d="M387,342.4c5.3-1.6,10-4,14.3-7.2c13.7,21.4,31.4,44.9,58.6,47.5c2.5,0.3,5,0.3,7.5,0.1
			c6.2,0.1,12.4-0.9,18.1-3.2c9.7-4,17.6-10.9,23.3-19.5l-4.1,88.4c-0.4,9.7-0.9,19.3-1.3,29.1c-0.3,6.2-3,16.4,1,21.7
			c3.5,4.7,12.1,5,17.3,6.3c9,2.1,17.9,4.3,26.9,6.3c4,0.9,8-4.4,4.3-7.4c-3.5-2.8-6.9-5.6-10.5-8.4c-2.4-1.9-8.4-5.3-9.6-7.8
			c-1.3-3.1,1.6-9.9,2.5-13.1c1-4.1,2.1-8.4,3.1-12.5c4.4-17.7,9-35.3,13.7-53c9-34.2,18.4-68.2,28.2-102.2c9.4,4,17.6,10.8,27.6,13
			c7.4,1.6,19.3,1.3,22.7-6.9c4-9.7-8.4-16.2-14.8-20.7c-9.9-6.8-19.8-13.6-29.5-20.5c2.7-6.9,17-0.1,21.1,1.2
			c6.3,2.2,12.8,4.1,19.3,5.9c11.7,3,23.6,5,35.7,6.2c11.7,1.2,23.3,1.5,35,0.9c8-0.4,18.7,0,25.7-4.9c5.8-4,7.1-11.2,3.2-17.1
			c-4.7-7.4-13.4-8.4-21.4-7.4c-19.6,2.5-37.5,2.7-56.2-4.7c-18-7.1-33.8-19.5-44.7-35.6c-0.4-0.7-1.2-1.2-1.8-1.6
			c0.4-1.3,0.3-3-1-4.3c-5.6-5.3-33.2-32-46.5-28.6c-1.2-1-3-1.3-4.7-0.3c-22.9,13.6-37,36.6-48.7,59.9
			c-13.3,26.9-25.2,54.4-36.1,82.3c-20.7-9.6-41.2-19.2-61.8-28.8c-2.1-1-4.9-0.7-6,1.6c-6.6,12.7-12,25.8-15.9,39.5
			C380.6,340,383.7,343.4,387,342.4z" style="fill:var(--illu-white--light);"/>
		<path d="M555.9,192.5c6.5,5.6,14.2,9.9,21.4,14.6c6.2,4.1,12.2,8.4,19.9,9.1c14.6,1.5,28.3-8.9,36.9-19.9
			c8.7-11.2,13.4-25.8,10-40c-2.2-9.3-7.7-17.3-15.3-22.6c-16.4-16.4-44.3-24.3-64.3-12.2C540.1,136.1,533.5,173.1,555.9,192.5z" style="fill:var(--illu-blue--light);"/>
		<path d="M580.5,199.1c13,5.2,25.2-7.1,30.2-17.9c3.2-6.9,6.2-25.2-1.9-30.7c-0.7-0.7-1.6-1.3-3-1.5
			c-14.2-1.5-26.3,9.7-32.5,21.7C568.4,180.2,568.9,194.5,580.5,199.1z" style="fill:var(--illu-brown--light);"/>
		<path d="M542.2,169.7c9.7-1.6,20.7,8.1,28.2,12.8c10.3,6.5,20.4,13.3,30.2,20.5c4.7,3.4,17.6,12,7.8,18
			c-1.2,0.7-2.5,1.2-3.7,1.2c-2.8,1-5.8-0.3-8.3-1.5c-10.9-4.9-21.4-11.1-31.4-17.6c-8.6-5.6-19.6-11.8-26.1-19.8
			C534.8,178.6,534.6,171.1,542.2,169.7z" style="fill:var(--illu-red--light);"/>
		<path d="M594.4,177.1c5.5,1.9,12.7,5.6,18.4,3.5c5.2-1.8,6.6-6.9,6.3-11.8c-0.6-10.5-7.4-27.4-20.5-25.1
			c-6.9,1.3-13.7,5.9-19.2,10.2c-4.7,3.7-11.2,8.6-13.4,14.3C560.9,182.1,585.4,179.5,594.4,177.1z" style="fill:var(--illu-bg--light);"/>
		<path d="M600.3,181.4c5.8,0,5.8,8.9,0,8.9C594.7,190.2,594.7,181.4,600.3,181.4z" style="fill:var(--illu-bg--light);"/>
		<path d="M587,187.9c1.8-1.6,4.4-1.8,6.2,0c1.2,1.2,2.4,2.4,3.5,3.5c1.6,1.6,1.8,4.7,0,6.2c-1.8,1.6-4.4,1.8-6.2,0
			c-1.2-1.2-2.4-2.4-3.5-3.5C585.4,192.5,585.2,189.4,587,187.9z" style="fill:var(--illu-bg--light);"/>
		<path d="M569.6,303.6c13.9,10.2,31.1,17.4,48.4,19.3c5.9,0.6,12.7-0.3,15.5-6.3c3.2-7.1-2.4-13.7-7.5-17.9
			c-14.9-12.4-32.2-21.8-44.9-36.7c-2.7-3.1-6.6-0.7-7.2,2.5l-0.1,0.1c-3,4.4-6,8.9-9,13.4c-2.1,3.1-6,7.2-6.9,10.9
			C556,295.4,565.3,300.5,569.6,303.6z" style="fill:var(--illu-blue--main);"/>
		<path d="M673.5,290.3c9.3,0.4,18.9-1,28-1.5c6.6-0.4,14-0.1,20.2-3c10.2-4.7,13.1-19.3,3.1-26.3
			c-6.2-4.3-14.6-3.5-21.8-3.7c-10.2-0.3-20.4-0.6-30.5-0.9c-1.9,0-3.1,0.9-3.8,2.2c-0.4,0.4-1,0.9-1.3,1.6
			C663.7,267.7,657.8,289.5,673.5,290.3z" style="fill:var(--illu-blue--main);"/>
		<path d="M500.1,494.5c1,8.4,12.4,10.3,19,12.5c10.5,3.4,21.2,5.6,32.3,6.9c3,0.3,4.9-3.1,4.3-5.6
			c-1.3-5.2-4.1-9.3-8-12.8c-4.7-4.4-11.2-7.5-10.5-14.6c0.7-8.1,3.8-16.7,5.6-24.6c1.8-7.8,3.5-15.5,5.3-23.3
			c0.1-0.9,0.1-1.6-0.1-2.4c0-1.3-0.6-2.8-2.2-3.5c-12.4-6.3-25.7-10.2-39.5-11.5c-2.4-0.3-4.4,2.2-4.4,4.4
			c-0.3,12.7-0.6,25.4-0.9,37.9c-0.1,6.8-0.3,13.6-0.4,20.5C500.3,483.4,499.5,489.1,500.1,494.5z" style="fill:var(--illu-blue--main);"/>
		<path d="M379.9,344.1c3,2.5,7.2,1.8,10.8,1c2.2-0.4,4.1-1.3,6.3-2.1c3.5-1.2,3.5-1.2,6.3,0.7
			c9.9,6.5,15.2,19.2,23.2,27.4c7.4,7.8,12.4-3,15.5-8.9c5.9-11.1,12-22.1,17.9-33.2c0.4-0.6,0.9-1.2,1-1.8c0-0.1,0-0.3,0-0.4
			c0.4-1.2,0.4-2.2,0.1-3.2c-0.9-4.7-6.9-6.6-11.4-8.4c-2.2-0.9-4.6-1.8-6.8-2.7c-0.1-0.1-0.3-0.1-0.4-0.3c-5-3.1-10.2-5.8-15.6-8.3
			c-5-2.2-10-4.3-15-6.2c-3.7-1.5-8.6-4.4-12.8-3c-3.8,1.3-5.3,5.9-6.9,9.1c-3,5.9-5.8,12-8.6,18
			C380.8,327.6,373.2,338.5,379.9,344.1z" style="fill:var(--illu-blue--main);"/>
		<path d="M573.3,254.6c0.9,1.2,2.1,1.6,3.1,1.5c1.5,0.6,3.1,0.4,4.4-1.2c3.8-4.7,12.7-14.8,8.9-21.2
			c-4.1-6.9-15.2-11.2-22.6-13.1c-2.2-0.6-5,0.7-5.5,3.1C559.3,235.8,565.8,245.6,573.3,254.6z" style="fill:var(--illu-yellow--main);"/>
		<path d="M516.4,282.2c0.6,5.8,8.6,11.1,12.7,14.3c4.6,3.5,11.1,9.9,17.4,9.3c5.9-0.6,8.1-6.8,10.3-11.4
			c0.9-2.1,0.3-4-0.9-5.3c-0.1-0.1-0.1-0.1-0.3-0.3c-4.6-5-9.1-9.7-14-14.5c-3.5-3.4-7.5-8.3-12.2-10.2c-1.5-0.6-3.2,0.1-4.3,1.2
			c-2.2,2.2-3.7,5.6-5.3,8.4C518.3,276.3,516.1,279.1,516.4,282.2z" style="fill:var(--illu-yellow--main);"/>
		<path d="M465.2,263.1c1.5,3.4,4.3,5.2,7.4,6.9c3.2,1.9,6.5,5.6,10.3,6.5c8.3,1.8,14-10,17.3-15.5
			c11.7-19,18.7-40.7,32.9-58.1c1.2-1.5,1.3-3.2,0.7-4.7c0.4-1.3,0.1-2.8-1.3-4.1c-7.1-5.6-15.8-11.5-25.1-6.9
			c-8.3,4.1-14.8,12.8-19.9,20.2c-6.2,8.9-11.1,18.7-15.3,28.6C468.8,243.7,461.6,254.7,465.2,263.1z" style="fill:var(--illu-red--light);"/>
		<path d="M488.3,172.1c13.6-17.9,35.6-18.6,56.4-18.1c5.8,0.1,5.8,9,0,8.9c-17-0.4-36.7-0.9-48.4,13.4
			c-8.7,10.8-20.8,32.8-11.8,45.7c3.2,4.7-4.4,9.1-7.7,4.4C465.7,210.3,477.8,185.8,488.3,172.1z" style="fill:var(--illu-bg--light);"/>
		<path d="M555,225.8c-1.8-5.5,6.8-7.8,8.6-2.4c5.8,18,16.7,33.8,31.6,45.4c3.1,2.4,1.9,6.8-0.6,8.1
			c-0.1,0.4-0.3,0.7-0.6,1c-6.8,8.6-13.6,17.3-20.2,25.8c-3.5,4.4-9.7-1.8-6.2-6.2c6.3-8.1,12.8-16.4,19.2-24.5
			C571.8,260.5,560.9,244.4,555,225.8z" style="fill:var(--illu-bg--light);"/>
		<path d="M522,239.2c0.9-5.6,9.3-3.2,8.6,2.4c-1.3,9.4,4.9,18,9.9,25.5c4.9,7.4,9.9,14.2,16.7,19.9
			c4.3,3.7-1.9,9.9-6.2,6.2c-8.4-7.2-14.8-16.5-20.7-25.8C524.3,258.6,520.3,249.8,522,239.2z" style="fill:var(--illu-bg--light);"/>
		<path d="M673.9,284.5c1.6-9,3.2-18,4.9-27c1-5.6,9.6-3.2,8.6,2.4c-1.6,9-3.2,18-4.9,27
			C681.4,292.5,672.9,290.1,673.9,284.5z" style="fill:var(--illu-bg--light);"/>
		<path d="M506.9,427c12.7,3.5,25.2,7.2,37.9,10.8c5.5,1.6,3.1,10-2.4,8.6c-12.7-3.5-25.2-7.2-37.9-10.8
			C499.1,434,501.4,425.4,506.9,427z" style="fill:var(--illu-bg--light);"/>
		<path d="M417.1,352.1c6-13.6,13.3-26.6,21.2-39.1c3.1-4.7,10.8-0.3,7.7,4.4c-8.1,12.5-15.2,25.5-21.2,39.1
			C422.4,361.7,414.7,357.3,417.1,352.1z" style="fill:var(--illu-bg--light);"/>
		<path d="M501.7,362.3c6.9-16.8,14.5-33.3,22.4-49.7c2.5-5.2,10.2-0.6,7.7,4.4c-7.7,15.6-14.9,31.4-21.5,47.5
			C508.1,369.8,499.5,367.6,501.7,362.3z" style="fill:var(--illu-bg--light);"/>
	</g>
	<path d="M426.1,197.5c-2.4,0.1-4.4,1.9-4.4,4.4v0.9c0,2.4,2.1,4.6,4.4,4.4c2.4-0.1,4.4-1.9,4.4-4.4v-0.9
		C430.5,199.5,428.4,197.3,426.1,197.5z" style="fill:var(--illu-white--light);"/>
	<path d="M442.6,270.4c-5.8,0-5.8,8.9,0,8.9S448.3,270.4,442.6,270.4z" style="fill:var(--illu-white--light);"/>
	<path d="M431.5,410.8c-5.8,0-5.8,8.9,0,8.9C437.3,419.7,437.3,410.8,431.5,410.8z" style="fill:var(--illu-white--light);"/>
	<path d="M468.5,443.1h-0.9c-2.4,0-4.6,2.1-4.4,4.4s1.9,4.4,4.4,4.4h0.9c2.4,0,4.6-2.1,4.4-4.4
		C472.8,445.2,470.9,443.1,468.5,443.1z" style="fill:var(--illu-white--light);"/>
</g>
</svg>
