<?xml version="1.0" encoding="utf-8"?>
<!-- Generator: Adobe Illustrator 23.0.2, SVG Export Plug-In . SVG Version: 6.00 Build 0)  -->
<svg version="1.1" id="Capa_1" xmlns="http://www.w3.org/2000/svg" xmlns:xlink="http://www.w3.org/1999/xlink" x="0px" y="0px" viewBox="0 0 800 567.7" style="enable-background:new 0 0 800 567.7;" xml:space="preserve">

<g>
	<path d="M766.1,74.3C722,29.1,647,10.5,575.2,4.4C531.8,0.7,487.6,0.3,443.9,0C399.7-0.2,355.4,1,311.7,6
		c-75.1,8.7-150.5,30-204.2,70.9c-50.6,38.5-76.5,90.3-90.6,142C9.6,246,4.8,273.7,2,301.3c-3.1,29.2-3.3,59,4.7,87.7
		c3.9,14.2,10.3,27.9,18.7,41.1c0.3,0.4,0.7,0.8,1.1,1.1c-1.9,1.5-2.3,3.7,0.4,5.2c56.7,33.5,133.2,26.4,199.9,18
		c89.1-11.1,177.9-19.3,268.4-21c41.2-0.8,82.6,1.2,123.8-0.1c32.5-1.1,66.6-5.4,92.3-21.3c28.6-17.6,39.1-46.2,49.2-71.5
		c12.6-31.6,22.4-63.9,29-96.4C800.9,189.2,813.3,122.9,766.1,74.3z" style="fill:var(--illu-bg--main);"/>
	<path d="M489.6,309.9c-1.5-12.5-3.3-24.8-5.6-37.2c-2-11.3-3.8-23.5-10.8-32.8c-1.5-1.9-3.8-2-5.4-1.2
		c-18.4-2.8-27.5,15.3-29.2,31.1c-2.2,21.3-2.8,44.7,3.1,65.5c2.2,7.9,5.6,15.9,12.6,20.6c6.6,4.3,16.8,5.7,24.7,4.9
		c9.1-1.1,11.1-8.9,12.1-17C492.5,332.5,490.8,321.1,489.6,309.9z" style="fill:var(--illu-red--light);"/>
	<path d="M483.2,171.8c-0.7-0.3-1.5-0.4-2.3-0.3c-17.5,2.6-18.2,22.1-26.7,33.6c-9.2,12.5-27.9,12.2-37.7,24.7
		c-8.9,11.4-13.4,29.8-8,43.7c0.9,2.4,2.3,4.7,3.8,6.8c6,12.1,19,18.6,33.1,16.5c2.8-0.4,3.4-2.8,2.6-4.9c1.1-2.3,0.4-5.3-2.2-5.7
		c-0.8-1.1-2.2-1.5-3.9-0.9c-1.4,0.5-2.7,0.8-3.9,0.9c-3.4-0.4-6.6-1.4-9.5-2.7c-7.1-5.4-10.4-17.8-9.9-26
		c0.9-13.8,9.5-25.5,22-31.1c10.4-4.6,19.8-7.5,25.2-18.4c4.9-9.9,6.5-26,19.7-28.2C490.3,178.9,488.3,171.2,483.2,171.8z" style="fill:var(--illu-bg--light);"/>
	<path d="M741.8,444.4c-14.5-18-37.3-28.9-60.7-36.2c-27.1-8.4-55.9-14-84.1-18.7c-29.4-5-59.3-8.7-89.2-11
		c-61-4.6-122.6-3.5-183.2,3.4c-4.7,0.5-9.5,1.1-14.2,1.8c-31.6,1.8-63.1,5.2-94.2,9.9c-29.8,4.6-59.4,10.4-88.5,17.6
		c-24.8,6.1-51.9,11.9-73.9,24c-18.6,10.2-30.9,26.4-28.9,46c2.2,20.2,16.8,37.3,35.8,48.4c22.4,13,49.6,18.7,75.5,24
		c29.6,6,59.7,10,90,12.2c63.2,4.5,126.5,0.3,189.4-4.6c63.7-4.9,127.5-10,191.2-15.1c29.7-2.3,61.2-2.6,90-9.8
		c22.4-5.6,44.3-17.5,54-36.5C760,481.3,754.6,460.3,741.8,444.4z" style="fill:var(--illu-blue--light);"/>
	<path d="M646.5,174.1c-0.7,0.3-0.4-1.2-0.7-0.7c0-0.1,0-0.1,0-0.3c0.3-0.7,0.3-1.5,0.1-2c0-1.2-0.1-2.3-0.3-3.5
		c-0.7-5.2-8.5-3-7.9,2.2c0.7,4.9-1.6,9.4-5.4,12.1c-1.2,0.5-2.3,1.2-3.3,2.2c-3.5,3.4,0.9,8.3,4.9,6.4c0.8-0.4,1.6-0.8,2.4-1.4
		c1.2-0.1,2.6,0.4,3.4,1.5c0.3,1.4,0.7,2.6,1.2,3.9c1.8,3.8,7.6,1.8,7.6-2c0-1.8-0.4-3.4-1.1-4.9c0-2.4,1.1-4.7,3-6.2
		C654.8,178.1,651.2,171.7,646.5,174.1z" style="fill:var(--illu-yellow--main);"/>
	<path d="M562.2,47.9c-3,1.6-5.7,1.2-7.3-0.4c0.9-4.5,0.5-9.2-1.8-13.6c-2.4-4.6-9.5-0.5-7.1,4.1
		c0.1,0.1,0.1,0.3,0.3,0.5c-0.8,0.7-1.5,1.6-1.6,3c-0.3,2.7,0.3,5.2,1.2,7.2c-0.4,0.7-0.7,1.2-1.2,1.8c-3.4,0.5-6.8,2.6-9.2,6.2
		c-2,3.1,1.4,6.8,4.6,6c3.1-0.7,5.8-2.2,8.1-4.1c1.6,0.5,3,2.2,3.1,4.6c0.1,4.5,6.8,5.7,8,1.1c1.1-4.2,3.3-7.3,7.1-9.6
		C570.8,52.1,566.8,45.2,562.2,47.9z" style="fill:var(--illu-yellow--main);"/>
	<path d="M408,312.1c0.3-3.5-4.6-5.4-6.9-2.8c-1.1,1.2-1.9,2.4-2.7,3.8c-1.1-0.1-2.4-0.8-2.7-1.1c-2-2-2.2-6-2.3-8.5
		c-0.1-2.7-2.4-4.1-4.5-3.9c-3.4-2-8.5,1.5-5.8,5.3c2.6,3.5,2.8,7.9,1.4,11.4c-3.4,1.6-6.4,4.6-7.9,8.7c-1.4,3.7,3.1,6,6,4.6
		c3.3-1.5,5.8-3.9,7.6-6.8c2.7,0,5.4,1.9,6.6,4.9c1.9,4.5,8.4,1.1,7.5-3.1c-0.4-1.9-0.3-3.8,0.3-5.6
		C406.5,317.1,407.8,314.8,408,312.1z" style="fill:var(--illu-yellow--main);"/>
	<path d="M381,50.5c-2.7-0.9-5.4-0.8-8,0.3c-0.8-0.8-1.2-2.2-0.7-3.7c1.2-4.5-4.7-6.6-7.2-3.7c-2.3,0.1-4.7,2-4.1,5
		c0.9,4.2-1.2,7.7-4.6,9.5c-1.4,0.3-2.7,0.7-4.1,1.4c-4.3,2.3-1.1,8,3.1,7.5c1.4-0.3,2.7-0.5,3.9-1.1c3.1,0,5.8,2.7,6.2,6
		c0.7,4.5,8.5,3.5,8-1.1c-0.3-2.3-0.8-7.7,0.5-10.7c2.4,0.3,5.2-0.3,7.6-1.9C385.1,55.9,384.2,51.7,381,50.5z" style="fill:var(--illu-yellow--main);"/>
	<path d="M163.5,375.1v0.8c0,5.3,8.1,5.3,8.1,0v-0.8C171.6,369.8,163.5,369.8,163.5,375.1z" style="fill:var(--illu-white--light);"/>
	<path d="M218.5,348.4c-2.2,0.1-4.1,1.8-4.1,4.1v1.4c0,2.2,1.9,4.2,4.1,4.1c2.2-0.1,4.1-1.8,4.1-4.1v-1.4
		C222.6,350.3,220.8,348.3,218.5,348.4z" style="fill:var(--illu-white--light);"/>
	<path d="M213.7,302.3c-0.4-0.4-0.9-0.9-1.4-1.4c-1.5-1.5-4.2-1.6-5.7,0c-1.5,1.6-1.6,4.2,0,5.7
		c0.4,0.4,0.9,0.9,1.4,1.4c1.5,1.5,4.2,1.6,5.7,0C215.1,306.5,215.3,303.9,213.7,302.3z" style="fill:var(--illu-white--light);"/>
	<path d="M143.8,312.7c-2.2,0.1-4.1,1.8-4.1,4.1v1.4c0,2.2,1.9,4.2,4.1,4.1c2.2-0.1,4.1-1.8,4.1-4.1v-1.4
		C147.9,314.6,146,312.6,143.8,312.7z" style="fill:var(--illu-white--light);"/>
	<path d="M307.4,283l-1.4-1.4c-1.5-1.5-4.2-1.6-5.7,0c-1.5,1.6-1.6,4.2,0,5.7l1.4,1.4c1.5,1.5,4.2,1.6,5.7,0
		C308.8,287.1,308.8,284.7,307.4,283z" style="fill:var(--illu-white--light);"/>
	<path d="M316.6,340.3c-5.3,0-5.3,8.1,0,8.1C321.9,348.4,321.9,340.3,316.6,340.3z" style="fill:var(--illu-white--light);"/>
	<path d="M282.7,55.1c-1.9-0.9-4.6-0.5-5.6,1.5c-0.4,0.9-0.9,1.9-1.4,2.8c-0.9,1.9-0.5,4.5,1.5,5.6
		c1.9,0.9,4.6,0.5,5.6-1.5c0.4-0.9,0.9-1.9,1.4-2.8C285.1,58.8,284.7,56.2,282.7,55.1z" style="fill:var(--illu-white--light);"/>
	<path d="M419,31.9c-5.3,0-5.3,8.1,0,8.1C424.1,40,424.1,31.9,419,31.9z" style="fill:var(--illu-white--light);"/>
	<path d="M452.9,116.5c-5.3,0-5.3,8.1,0,8.1C458,124.7,458,116.5,452.9,116.5z" style="fill:var(--illu-white--light);"/>
	<path d="M431.3,192.3c-5.3,0-5.3,8.1,0,8.1S436.6,192.3,431.3,192.3z" style="fill:var(--illu-white--light);"/>
	<path d="M620.5,150.6h-1.4c-2.2,0-4.2,1.9-4.1,4.1c0.1,2.2,1.8,4.1,4.1,4.1h1.4c2.2,0,4.2-1.9,4.1-4.1
		C624.4,152.3,622.8,150.6,620.5,150.6z" style="fill:var(--illu-white--light);"/>
	<path d="M581.1,108.1c-5.3,0-5.3,8.1,0,8.1S586.4,108.1,581.1,108.1z" style="fill:var(--illu-white--light);"/>
	<path d="M627.8,103.9c-5.3,0-5.3,8.1,0,8.1C632.9,112,632.9,103.9,627.8,103.9z" style="fill:var(--illu-white--light);"/>
	<path d="M593.9,228h-1.4c-2.2,0-4.2,1.9-4.1,4.1s1.8,4.1,4.1,4.1h1.4c2.2,0,4.2-1.9,4.1-4.1S596.2,228,593.9,228z" style="fill:var(--illu-white--light);"/>
	<path d="M641.9,267.6c-5.3,0-5.3,8.1,0,8.1C647,275.7,647,267.6,641.9,267.6z" style="fill:var(--illu-white--light);"/>
	<path d="M608,355c-5.3,0-5.3,8.1,0,8.1C613.3,363.2,613.3,355,608,355z" style="fill:var(--illu-white--light);"/>
	<path d="M566.1,356.9c-5.3,0-5.3,8.1,0,8.1C571.4,365.1,571.4,356.9,566.1,356.9z" style="fill:var(--illu-white--light);"/>
	<path d="M385.1,195.8h-1.4c-2.2,0-4.2,1.9-4.1,4.1s1.8,4.1,4.1,4.1h1.4c2.2,0,4.2-1.9,4.1-4.1
		C389.1,197.7,387.4,195.8,385.1,195.8z" style="fill:var(--illu-white--light);"/>
	<path d="M507,109.6c-5.3,0-5.3,8.1,0,8.1C512.3,117.7,512.3,109.6,507,109.6z" style="fill:var(--illu-white--light);"/>
	<path d="M479.8,39.1c-5.3,0-5.3,8.1,0,8.1C485.1,47.2,485.1,39.1,479.8,39.1z" style="fill:var(--illu-white--light);"/>
	<path d="M436.3,145.9c-5.3,0-5.3,8.1,0,8.1C441.5,154.1,441.5,145.9,436.3,145.9z" style="fill:var(--illu-white--light);"/>
	<path d="M615.9,301.6c-5.3,0-5.3,8.1,0,8.1C621,309.7,621.1,301.6,615.9,301.6z" style="fill:var(--illu-white--light);"/>
	<path d="M355.4,247c-5.3,0-5.3,8.1,0,8.1C360.6,255.1,360.6,247,355.4,247z" style="fill:var(--illu-white--light);"/>
	<path d="M205,487.7c-1.5-4.6-7.3-6-11.5-6.9c-11.4-2.7-25.4-1.8-35.7,4.5c-3.4,2-5.4,5.4-3.8,9.5
		c0.7,1.6,1.8,2.8,3,3.7c0.4,1.5,1.6,2.7,3.7,2.7c7.9,0,15.6,0,23.5,0c5.4,0,11.3,0.1,16-2.8C203.8,495.9,206.2,492,205,487.7z
		 M181.5,492.9c-4.2,0-8.3,0-12.5,0c-0.7-0.8-1.6-1.4-3.1-1.2c-1.4,0.1-2.7,0.3-4.1,0.5c1.6-0.9,3.4-1.6,5.2-2.3
		c3.1-1.1,6.5-1.9,9.8-2.3c4.3-0.4,14.1-1.2,17.6,1.8C198.9,493.4,183.8,492.9,181.5,492.9z" style="fill:var(--illu-bg--light);"/>
	<path d="M351.4,507.5h-9.1c-5.3,0-5.3,8.1,0,8.1h9.1C356.7,515.6,356.7,507.5,351.4,507.5z" style="fill:var(--illu-bg--light);"/>
	<path d="M263.8,461.4c-3.4-0.4-6.9,0-10.2,0.9c-5,1.5-2.8,9.4,2.2,7.9c2.7-0.8,5.2-0.9,8-0.7c2.2,0.3,4.1-2,4.1-4.1
		C267.9,463,266,461.6,263.8,461.4z" style="fill:var(--illu-bg--light);"/>
	<path d="M191.4,434.2h-16.3c-5.3,0-5.3,8.1,0,8.1h16.3C196.7,442.4,196.7,434.2,191.4,434.2z" style="fill:var(--illu-bg--light);"/>
	<path d="M397.9,407.5c-12.2-9.4-30-7.7-40.7,3.1c-0.8,0.9-1.2,1.9-1.2,2.8c-4.2,3.5-7.2,9.6-10,13.4
		c-3.1,4.2,3.9,8.3,7.1,4.1c1.9-2.6,3.7-5.4,5.8-7.9c2.3-2.7,3.4-4.1,7.1-4.2c5.2-0.3,10.6,0.9,15.6,1.2c6.9,0.3,14-0.7,17.8-7.2
		C400.7,410.9,399.7,408.7,397.9,407.5z M370.3,411.5c6-2.6,12.7-2.4,18.7,0.3C384.2,413.5,376.5,412.3,370.3,411.5z" style="fill:var(--illu-bg--light);"/>
	<path d="M606.4,503c-7.1-0.4-14.1,0.3-21,1.9c-5.2,1.2-3,9.1,2.2,7.9c6.2-1.5,12.5-1.9,18.8-1.5
		C611.6,511.4,611.6,503.3,606.4,503z" style="fill:var(--illu-bg--light);"/>
	<path d="M637.3,426.1c-4.5-1.5-9.4-1.5-14,0c-4.9,1.6-2.8,9.5,2.2,7.9c3.3-1.1,6.4-1.1,9.6,0
		C640.1,435.6,642.3,427.7,637.3,426.1z" style="fill:var(--illu-bg--light);"/>
	<path d="M411.4,535H405c-2.2,0-4.2,1.9-4.1,4.1c0.1,2.2,1.8,4.1,4.1,4.1h6.4c2.2,0,4.2-1.9,4.1-4.1
		C415.3,536.7,413.5,535,411.4,535z" style="fill:var(--illu-bg--light);"/>
	<path d="M557.8,434.5c-3.7,1.2-7.2,2.4-10.8,3.7c-4.9,1.6-2.8,9.5,2.2,7.9c3.7-1.2,7.2-2.4,10.8-3.7
		C564.9,440.6,562.8,432.7,557.8,434.5z" style="fill:var(--illu-bg--light);"/>
	<path d="M726.1,311c-1.8,0.3-3.5,0.5-5.3,0.8c-0.4-3.1-1.1-6.2-2-9.2c-1.5-5-9.4-2.8-7.9,2.2c0.8,2.7,1.4,5.4,1.8,8.3
		c-1.8,0.3-3.5,0.5-5.3,0.7c-5.2,0.7-3,8.5,2.2,7.9c1.2-0.1,2.4-0.4,3.7-0.5c0,1.2,0,2.4-0.1,3.8c-0.4,5.3,7.7,5.2,8.1,0
		c0.1-1.6,0.1-3.3,0.1-4.9c2.3-0.3,4.6-0.7,6.9-0.9C733.4,318.2,731.2,310.3,726.1,311z" style="fill:var(--illu-yellow--main);"/>
	<path d="M746,111.4c-0.7-2.3-2.8-3.3-5-2.8c-0.9,0.1-1.9,0.4-2.8,0.5c-0.8-3.9-1.9-7.9-3.3-11.7
		c-1.6-4.9-9.5-2.8-7.9,2.2c1.2,3.5,2.3,7.2,3.1,10.8c-0.5,0.1-1.1,0.1-1.6,0.3c-2.2,0.4-3.4,3-2.8,5c0.7,2.3,2.8,3.3,5,2.8
		c0.3,0,0.7-0.1,0.9-0.1c0,0.4,0.1,0.8,0.1,1.2c0.7,5.2,8.8,5.2,8.1,0c-0.1-0.8-0.3-1.8-0.4-2.6c1.2-0.3,2.3-0.4,3.5-0.7
		C745.4,116,746.6,113.4,746,111.4z" style="fill:var(--illu-yellow--main);"/>
	<path d="M147.9,124.9c-1.5,0-3,0-4.5,0.1c-0.7-3.9-1.6-7.7-2.8-11.5c-1.6-5-9.5-2.8-7.9,2.2c1.1,3.5,2,7.1,2.6,10.6
		c-2,0.4-4.1,0.9-6.1,1.6c-5,1.6-2.8,9.5,2.2,7.9c1.6-0.5,3.3-0.9,4.9-1.4c0,0.8,0.1,1.8,0.1,2.6c0.1,5.3,8.3,5.3,8.1,0
		c0-1.2-0.1-2.6-0.1-3.8c1.2-0.1,2.3-0.1,3.5-0.1C153,133.1,153,124.9,147.9,124.9z" style="fill:var(--illu-yellow--main);"/>
	<path d="M75.9,353.1c-2,0.3-4.1,0.7-6.1,0.9c-0.7-3.5-1.5-7.1-2.6-10.4c-1.6-5-9.5-2.8-7.9,2.2
		c1.1,3.1,1.9,6.4,2.4,9.6c-1.5,0.3-3,0.4-4.5,0.7c-5.2,0.8-3,8.7,2.2,7.9c1.1-0.1,2.3-0.4,3.4-0.5c0.1,1.2,0.1,2.4,0.3,3.7
		c0.1,5.2,8.3,5.3,8.1,0c0-1.6-0.1-3.3-0.3-4.9c2.4-0.4,4.7-0.8,7.2-1.1C83.2,360.2,81,352.3,75.9,353.1z" style="fill:var(--illu-yellow--main);"/>
	<path d="M106.9,230.2c-2.4,0.4-5,0.8-7.5,0.9c-0.7-2.7-1.6-5.3-2.8-7.9c-2.2-4.7-9.2-0.7-7.1,4.1
		c0.5,1.4,1.1,2.7,1.5,4.1c-1.8,0-3.7-0.1-5.4-0.3c-5.2-0.4-5.2,7.7,0,8.1c2.3,0.1,4.7,0.3,7.1,0.3c0.1,1.1,0.1,2.2,0.1,3.3
		c0,5.3,8.1,5.3,8.1,0c0-1.2,0-2.4-0.1-3.7c2.7-0.3,5.6-0.7,8.3-1.2C114.3,236.9,112.1,229.2,106.9,230.2z" style="fill:var(--illu-yellow--main);"/>
	<path d="M215,64.6c-5.3,0-5.3,8.1,0,8.1C220.2,72.7,220.2,64.6,215,64.6z" style="fill:var(--illu-white--light);"/>
	<path d="M103.1,162.8c-5.3,0-5.3,8.1,0,8.1C108.3,170.9,108.3,162.8,103.1,162.8z" style="fill:var(--illu-white--light);"/>
	<path d="M50.8,285.9c-5.3,0-5.3,8.1,0,8.1S56.1,285.9,50.8,285.9z" style="fill:var(--illu-white--light);"/>
	<path d="M124.2,385.3h-1.2c-2.2,0-4.2,1.9-4.1,4.1c0.1,2.2,1.8,4.1,4.1,4.1h1.2c2.2,0,4.2-1.9,4.1-4.1
		C128.2,387.2,126.5,385.3,124.2,385.3z" style="fill:var(--illu-white--light);"/>
	<path d="M47.1,409c-5.3,0-5.3,8.1,0,8.1S52.4,409,47.1,409z" style="fill:var(--illu-white--light);"/>
	<path d="M104.4,287.1c-5.3,0-5.3,8.1,0,8.1C109.5,295.2,109.5,287.1,104.4,287.1z" style="fill:var(--illu-white--light);"/>
	<path d="M703.5,206.3c-5.3,0-5.3,8.1,0,8.1S708.7,206.3,703.5,206.3z" style="fill:var(--illu-white--light);"/>
	<path d="M681.5,353c-1.6-1.5-4.2-1.6-5.7,0c-0.4,0.4-0.8,0.8-1.2,1.2c-1.5,1.5-1.6,4.2,0,5.7c1.6,1.5,4.2,1.6,5.7,0
		c0.4-0.4,0.8-0.8,1.2-1.2C683,357.2,683.1,354.5,681.5,353z" style="fill:var(--illu-white--light);"/>
	<path d="M763.3,164.1H762c-2.2,0-4.2,1.9-4.1,4.1s1.8,4.1,4.1,4.1h1.2c2.2,0,4.2-1.9,4.1-4.1
		C767.2,165.9,765.4,164.1,763.3,164.1z" style="fill:var(--illu-white--light);"/>
	<path d="M750.8,259.7c-5.3,0-5.3,8.1,0,8.1C755.9,267.8,756.1,259.7,750.8,259.7z" style="fill:var(--illu-white--light);"/>
	<path d="M653.8,52.1c-5.3,0-5.3,8.1,0,8.1C659,60.2,659,52.1,653.8,52.1z" style="fill:var(--illu-white--light);"/>
	<path d="M686.1,121.8c-5.3,0-5.3,8.1,0,8.1C691.4,129.9,691.4,121.8,686.1,121.8z" style="fill:var(--illu-white--light);"/>
	<path d="M704.7,473.7c-2.4-0.4-5-0.9-7.5-1.4c-2.2-0.4-4.3,0.5-5,2.8c-0.5,2,0.7,4.6,2.8,5c2.4,0.4,5,0.9,7.5,1.4
		c2.2,0.4,4.3-0.5,5-2.8C707.9,476.7,706.8,474.1,704.7,473.7z" style="fill:var(--illu-bg--light);"/>
	<path d="M93.2,464.1c-0.5-2-3-3.7-5-2.8c-3.7,1.4-7.5,2.3-11.3,2.4c-5.2,0.3-5.3,8.4,0,8.1c4.6-0.3,9.1-1.1,13.4-2.8
		C92.6,468.3,93.9,466.4,93.2,464.1z" style="fill:var(--illu-bg--light);"/>
	<path d="M258.7,532.5c-0.7-2.3-2.8-3.1-5-2.8c-2.8,0.4-5.8,0.9-8.7,1.4c-2.2,0.4-3.4,3.1-2.8,5c0.7,2.3,2.8,3.1,5,2.8
		c2.8-0.4,5.8-0.9,8.7-1.4C258,537.2,259.2,534.4,258.7,532.5z" style="fill:var(--illu-bg--light);"/>
	<path d="M576.4,232.5c-5-2.3-10,1.5-13.8,6.1c-0.8-9.9-4.5-19.1-13.4-25.1c-0.4-0.3-0.7-0.4-1.1-0.4
		c-0.5-0.4-1.2-0.8-2-0.8c-17.5-0.5-34.8,1.1-51.9,4.6c-0.8,0.1-1.4,0.5-1.8,0.9c-0.4-0.3-0.9-0.4-1.6-0.4
		c-21.8,0.7-30.2,30.4-33.9,47.5c-2.6,11.9-3.8,24.3-4.5,36.5c-0.4,8.4-1.8,20.1,7.1,25c3.1,1.8,6.5,1.9,9.9,1.2
		c0.4,25.5,2.3,51,5.7,76.2l-50,62.2c-3.9,4.9-8,9.5-11.7,14.5c-2.3,3.1-3.1,6.1-0.8,9.5c2.8,4.2,7.6,7.6,11.4,10.8
		c4.6,3.9,9.5,7.6,14.5,11c2.2,1.5,4.6-0.5,4.9-2.8c0.5-5.7-4.5-11.8-0.8-17c4.2-5.8,9.9-11.1,14.8-16.5
		c8.3-9.2,16.5-18.6,24.8-27.8c4.6,22.8,10.3,45.4,17.2,67.7c0.3,1.1,1.2,2,2.3,2.3c12.3,2.6,24.5,2.7,36.9,0.4
		c1.8-0.3,2.7-2.4,2.3-4.1c-1.4-5-5.3-7.5-9.6-9.6c-2.7-1.4-5.6-2.7-7.2-5.4c-2-3.7-1.6-8.9-1.9-13c-1.2-18.3-2.3-36.6-3.3-54.9
		c-0.5-10.4-0.9-21-1.5-31.5l0,0c13.4-26,23.3-53.6,30.8-81.8c0.3,0,0.4,0,0.7-0.1c4.5-1.2,6.5-5.8,8.7-9.5c3-4.9,5.8-10,8.3-15.2
		c5.2-10.7,9.4-21.8,12.2-33.4C580.1,253.5,584.7,236.3,576.4,232.5z" style="fill:var(--illu-white--light);"/>
	<path d="M581.1,164.1c-17-44.3-88.1-39.2-105.5,2.2c-7.7,18.3-1.5,40.5,13.6,52.7c0.1,1.2,0.9,2.3,2.3,2.8
		c11.8,4.5,24.3,4.5,36.7,2.8c11.1-1.5,22.6-3.5,32.8-8.7C580.1,206.6,588.9,184.3,581.1,164.1z" style="fill:var(--illu-blue--light);"/>
	<path d="M553.7,184c-1.1-9.4-8.4-29.6-21.2-22.1c-12.3,1.4-17.4,17-18.3,28.2c-0.5,6.5-0.3,14.4,4.5,19.4
		c4.2,4.5,11.3,6.2,17.4,5.8C550.6,214.3,555.1,195.8,553.7,184z" style="fill:var(--illu-brown--light);"/>
	<path d="M540.2,158.3c-2.3-0.7-4.9-0.8-7.3-0.4c-2.3,0.4-5,2.6-7.1,2c-1.2-0.3-2.6-2-3.7-2.6c-1.2-0.5-2.4-0.9-3.7-1.1
		c-2.3-0.4-4.7,0-6.9,0.9c-4.6,2.3-6.8,8-5,12.9c1.4,3.9,4.7,5.6,8.4,6c-3.3,6.8-6.9,17.1-0.3,19.3c0.5,0.3,1.4,0.4,2.2,0.3l0,0
		c0.8,0,1.6-0.3,2.4-0.5c2.7-0.7,5.3-1.8,7.7-3.1c-1.9,2.3-0.8,6.8,3,6.8c5.3,0,5.3-8.1,0-8.1c-0.3,0-0.5,0-0.8,0.1
		c3-1.9,5.7-4.3,8-7.2c2.6,3.5,5.8,6.5,9.6,8.3h-0.4c-2.2,0-4.2,1.9-4.1,4.1c0.1,2.2,1.8,4.1,4.1,4.1h0.7c2.2,0,4.2-1.9,4.1-4.1
		c0-1.1-0.5-2.2-1.2-2.8c3.9,0.9,7.1-0.9,7.3-5.6C557.9,175.9,552.4,161.5,540.2,158.3z" style="fill:var(--illu-bg--light);"/>
	<path d="M541.8,201.8c-2.2-0.4-4.2-0.7-6.4-0.5c-2.2,0.1-4.2,1.8-4.1,4.1c0.1,2,1.8,4.2,4.1,4.1c0.8,0,1.6-0.1,2.4,0
		c0.4,0,0.7,0,1.1,0.1c0.1,0,0.7,0.1,0.8,0.1c2,0.4,4.5-0.5,5-2.8C545.2,204.8,544.1,202.2,541.8,201.8z" style="fill:var(--illu-bg--light);"/>
	<path d="M567.2,218.2c-0.1-0.5-0.3-1.2-0.5-1.8c-3.1-8-15.6-5.7-22.1-5c-13,1.4-24.7,0-37.4-2.2
		c-5.2-0.8-10.3-1.6-15.6-1.8c-3.7-0.1-9.6-0.7-12.7,1.6c-7.3,5.2,0,12.3,5.7,14c11.8,3.3,24.7,4.5,36.9,5.3
		c11.3,0.7,23.5,1.5,34.7-0.5c0.5-0.1,1.2-0.3,1.9-0.4c4.3,0.3,8.4-2.3,9.2-6.4C567.6,220.1,567.6,219.2,567.2,218.2z" style="fill:var(--illu-red--light);"/>
	<path d="M548.1,241.5c-3.1-14.5-23.9-8.7-33.2-5c-12.1,4.7-22.4,15.7-18.3,29.6c1.2,4.1,6.5,3.4,7.7,0.4
		c0.7-0.1,1.2-0.5,1.8-1.1c4.9-6,10.2-11.4,16.1-16.1c2.3-1.9,8.8-8,12.3-6c3.1,1.9,1.5,10.7,0.8,13.4c-2,7.3-7.2,13.6-11.4,19.7
		c-5.4,7.7-10.8,15.5-16.1,23.2c-1.6,2.3,0.5,6.5,3.5,6.1c12.5-1.5,25.5-6.5,31.2-18.7c3.3-6.9,3.9-14.9,5-22.4
		C548.3,257.3,549.7,249,548.1,241.5z" style="fill:var(--illu-yellow--main);"/>
	<path d="M538.6,248.2c-1.2-9.6-9.2-8.9-15.1-3.7c-10,9.2-19.8,18.7-29.7,28.2c-0.1,0.1-0.1,0.1-0.1,0.3
		c-2.8,0-5.6,2.8-3.7,6l12.7,20.7c0.9,1.5,2.8,2.3,4.6,1.9c4.9-1.4,7.1-5.4,9.8-9.4c3.7-5.2,7.2-10.2,10.8-15.3
		C533.8,268.5,539.9,259,538.6,248.2z" style="fill:var(--illu-blue--main);"/>
	<path d="M541.7,510.2c-1.9-4.6-6.8-4.9-9.9-8.1c-3.9-4.1-3.3-13-3.9-18.4c-1.5-13.4-2.8-26.7-4.3-40.1
		c-0.3-2-1.8-4.3-4.1-4.1c-12.5,1.5-24.8,3.8-37,6.8c-0.4,0.1-0.8,0.3-1.2,0.5c-0.4-0.4-0.8-0.8-1.2-1.2c-3.5-3.1-8.4-5.2-12.5-7.6
		c-4.2-2.4-8.9-6.2-13.8-7.1c-9.2-1.8-15.2,10.7-19.7,16.7c-7.7,10.3-16.5,20.3-23.5,31.2c-6.4,9.9,0.1,17,7.2,24.3
		c7.6,7.9,16.4,14.2,27.7,14.6c1.4,0,3-0.8,3.5-2c2.3-4.9,1.1-8.3,0.1-13.3c-1.5-7.7,3.9-13.7,8.7-19.1c6.5-7.7,13.4-15.1,20.7-22.2
		c0.4,1.4,0.7,2.7,1.1,4.1c3.3,10.7,6.8,21.2,10.7,31.6c2.6,6.9,5.2,20.6,13,23.6c3.5,1.4,7.7,0.9,11.5,0.9c6,0,12.1,0.3,18.2-0.1
		C539.1,520.9,544.5,516.9,541.7,510.2z" style="fill:var(--illu-blue--main);"/>
	<path d="M475,460.1c-10.2-8.3-21-15.6-32.5-21.8c-4.6-2.4-8.7,4.5-4.1,7.1c10.8,6,21.3,12.7,30.9,20.6
		C473.2,469.1,479,463.4,475,460.1z" style="fill:var(--illu-bg--light);"/>
	<path d="M523.2,450.6c-13,0.4-25.8,1.2-37.8,6.2c-2.4-17.5-4.7-35.1-7.2-52.6c-0.7-5.2-8.5-3-7.9,2.2
		c2.4,18.4,5,36.7,7.5,55.2c0.3,2,1.8,3,3.4,3c1.2,1.2,3,1.9,4.9,0.9c11.7-5.7,24.4-6.2,37.2-6.6
		C528.5,458.6,528.5,450.5,523.2,450.6z" style="fill:var(--illu-bg--light);"/>
	<path d="M521.3,317.8c0.1-5.3-8-5.3-8.1,0c-0.5,25.4,0.1,50.6,1.8,75.9c0.4,5.2,8.5,5.3,8.1,0
		C521.5,368.3,520.8,343.1,521.3,317.8z" style="fill:var(--illu-bg--light);"/>
	<path d="M290.5,450.1c-2-8.3-4.2-16.5-6.2-25c-8-31.9-16.1-63.7-24.1-95.6c-4.6-18.3-9.2-36.7-14-55.1
		c-1.4-5.6-3.4-14.2-7.9-19.3c-0.1-0.4-0.1-0.8-0.3-1.2c-0.7-3-3.5-3.5-5.7-2.4c-1.6-0.4-3.5-0.3-5.7,0.4c-2.2,0.7-3.4,2.8-2.8,5
		c9.2,34.3,18.4,68.8,27.7,103.1c5,18.6,9.4,37.4,14.8,56c2.6,10.8,5.2,21.6,7.9,32.3c1.1,4.5,1.6,14.5,5.3,17.6
		c3,2.6,7.7,1.4,10.2-1.2C293.5,460.7,291.6,454.7,290.5,450.1z" style="fill:var(--illu-blue--main);"/>
	<path d="M311.4,220.7c-2.3-9.4-4.7-18.7-7.1-28.1c-2-8.1-3.5-16.8-6.4-24.8c-1.8-5.2-5.4-8.1-11-7.5
		c-7.9,0.9-16,4.7-23.6,7.1c-9.4,3-18.8,5.8-28.2,8.8c-19.7,6.1-39.3,12.3-59,18.4c-13.8,4.3-32.3,6.9-40.8,19.9
		c-0.3,0.4-0.4,0.8-0.5,1.4c-1.4,0.8-2.3,2.3-1.8,4.3c3.5,14.9,5.8,30.9,12.1,45.2c4.3,9.8,11.5,19.1,22.8,20.6
		c6.9,0.9,13.7-1.4,20.2-3.4c9.1-3,18.2-6.1,27.3-9.2c16.5-5.7,32.8-11.8,49.1-18c8.1-3.1,16.3-6.4,24.3-9.6
		c6.4-2.6,15.3-4.7,20.6-9.5C314.1,231.8,312.8,226.2,311.4,220.7z" style="fill:var(--illu-yellow--main);"/>
	<path d="M276.3,181.2c-40.5,12.9-80.1,28.7-118.4,47.5c-4.7,2.3-0.5,9.4,4.1,7.1c37.7-18.4,76.6-33.9,116.5-46.6
		C283.5,187.4,281.3,179.6,276.3,181.2z" style="fill:var(--illu-bg--light);"/>
	<path d="M287.6,206c-20.5,0.5-37.6,13.6-56.7,19.3c-18,5.4-36.6,8.8-51.8,20.7c-4.1,3.3,1.6,8.9,5.7,5.7
		c14.5-11.4,33.2-14,50.3-19.3c17.5-5.4,33.8-17.8,52.5-18.3C292.8,214,292.8,205.9,287.6,206z" style="fill:var(--illu-bg--light);"/>
	<path d="M392.1,127.5c-1.5-19-16.4-33.9-34.4-35.8c-15.7-7.5-35.9-3.5-47.7,9.5c-13.7,15.2-14.8,38.9-4.7,56.3
		C329.1,198.3,395.5,172.5,392.1,127.5z" style="fill:var(--illu-red--light);"/>
	<path d="M338.5,143.4c-9.9,5.3-20.7,6.9-31.6,4.6c-5.2-1.1-7.3,6.8-2.2,7.9c13.2,2.7,26,0.9,38-5.4
		C347.2,148,343.2,140.9,338.5,143.4z" style="fill:var(--illu-bg--light);"/>
	<path d="M375.6,109.6c-12.3,5-25,8.3-38.2,9.6c-5.2,0.5-5.2,8.7,0,8.1c14-1.5,27.4-4.7,40.4-9.9
		C382.6,115.4,380.4,107.6,375.6,109.6z" style="fill:var(--illu-bg--light);"/>
	<path d="M364.2,153.8h-4.7c-2.2,0-4.2,1.9-4.1,4.1c0.1,2.2,1.8,4.1,4.1,4.1h4.7c2.2,0,4.2-1.9,4.1-4.1
		C368.2,155.7,366.5,153.8,364.2,153.8z" style="fill:var(--illu-bg--light);"/>
	<path d="M206.5,106.3c-5.3,0-5.3,8.1,0,8.1C211.8,114.5,211.8,106.3,206.5,106.3z" style="fill:var(--illu-white--light);"/>
	<path d="M258,135.6c-0.4-0.4-0.7-0.7-1.1-1.1c-1.5-1.5-4.2-1.6-5.7,0c-1.5,1.6-1.6,4.2,0,5.7c0.4,0.4,0.7,0.7,1.1,1.1
		c1.5,1.5,4.2,1.6,5.7,0C259.5,139.7,259.6,137.3,258,135.6z" style="fill:var(--illu-white--light);"/>
	<path d="M188.2,157.1c-5.3,0-5.3,8.1,0,8.1C193.5,165.2,193.5,157.1,188.2,157.1z" style="fill:var(--illu-white--light);"/>
	<path d="M501.4,299.7c-7.6,10.8-17.5,19.7-29,26.2c-4.6,2.6-0.4,9.6,4.1,7.1c12.7-7.3,23.5-17.1,31.9-29.2
		C511.4,299.4,504.4,295.4,501.4,299.7z" style="fill:var(--illu-bg--light);"/>
	<path d="M532.5,280.5c-2.3,1.4-4.9,2.4-7.5,2.8c-2.2,0.3-4.1,1.6-4.1,4.1c0,2,1.9,4.3,4.1,4.1c4.2-0.5,8-1.8,11.7-3.9
		C541,284.8,536.9,277.7,532.5,280.5z" style="fill:var(--illu-bg--light);"/>
	<path d="M499,250.2c-3.8-7.2-8.7-14.1-13.2-21c-2.6-3.9-5.8-9.2-10.8-10.2c-4.6-0.8-7.3,3-6.4,7.2
		c0.4,1.8,1.6,2.7,3,2.8c5.7,3,8.7,8.5,11.3,14.2c3.3,7.3,6.4,14.8,9.5,22.2c1.2,2.8,5.7,2.4,7.1,0
		C502.1,260.4,501.5,255.4,499,250.2z" style="fill:var(--illu-red--light);"/>
	<path d="M561.2,242.9c-0.9-3.3-1.5-6.9-2.4-10.4c0-0.1,0-0.4,0-0.5c0-1.1-0.4-1.9-0.8-2.4c-0.4-1.4-0.8-2.6-1.4-3.7
		c-0.8-1.8-1.8-3.1-3.5-3.5c-1.6-2.4-3.8-4.2-6.8-3.1c-4.2,1.5-3.3,7.5,0.3,8c2,2.8,3.3,7.3,4.2,10.3c0.1,10.7,0.5,23.2,4.9,32.4
		c1.4,2.7,5.7,2.6,7.1,0C567.2,260.9,563.6,251.7,561.2,242.9z" style="fill:var(--illu-red--light);"/>
	<path d="M516.9,285.9c-4.9-5.4-9.4-11.1-13.4-17.2c-0.5-0.9-1.4-1.4-2.2-1.6c1.2-2.3-0.4-4.9-2.6-5.7
		c-0.1,0-0.3-0.1-0.4-0.1c-1.5-0.7-3.9,0.4-4.6,1.9c0,0.1-0.1,0.1-0.1,0.3c-0.1,0.3-0.1,0.4-0.3,0.7c-1.8,1.5-5.4,3-7.1,3.9
		c-2.6,1.6-5.2,3.1-7.7,4.6c-5.6,3.3-11.3,6.5-17,9.6c-4.6,2.4-0.5,9.5,4.1,7.1c6.8-3.7,13.6-7.6,20.2-11.5c3-1.8,6.8-3.5,10.2-5.7
		c0.1,0.3,0.3,0.5,0.4,0.8c4.5,6.6,9.4,12.9,14.6,18.8C514.6,295.6,520.3,289.8,516.9,285.9z" style="fill:var(--illu-bg--light);"/>
	<path d="M578.2,230c-3.7-2.4-9.1,0-11.9,2.6c-0.8,0.7-1.5,1.5-2,2.3c-1.1,1.4-2.2,2.7-3,3.8c-0.9,1.5-0.8,3,0,4.1
		c-0.1,1.1-0.3,2.2-0.4,3.3c-0.7,8.4-1.4,16.8-2.6,25.2c-1.2,7.6-3,14.9-4.5,22.4c-0.9,4.9,0,9.6,5.4,10.7c1.6,0.3,3.8-0.1,4.6-1.9
		c6.8-15.6,14.1-31.7,16.7-48.8c0.5-2.8,0.9-5.7,1.2-8.7C582,240.9,582.2,232.7,578.2,230z" style="fill:var(--illu-blue--main);"/>
	<path d="M569.9,283.8c-3.4-1.9-6.9-3.4-10.6-4.6c-0.1-0.1-0.4-0.1-0.5-0.1c0.3-1.6,0.4-3.4,0.7-5
		c0.7-5.2-7.5-5.2-8.1,0c-1.6,13.8-3.8,27.5-6.2,41.2c-0.9,5.2,6.9,7.3,7.9,2.2c1.8-10,3.4-20.1,4.7-30.2c2.8,1.1,5.4,2.2,8.1,3.7
		C570.4,293.3,574.5,286.3,569.9,283.8z" style="fill:var(--illu-bg--light);"/>
</g>
</svg>
