<?xml version="1.0" encoding="utf-8"?>
<!-- Generator: Adobe Illustrator 23.0.2, SVG Export Plug-In . SVG Version: 6.00 Build 0)  -->
<svg version="1.1" id="Capa_1" xmlns="http://www.w3.org/2000/svg" xmlns:xlink="http://www.w3.org/1999/xlink" x="0px" y="0px" viewBox="0 0 800 600" style="enable-background:new 0 0 800 600;" xml:space="preserve">

<g>
	<g>
		<path d="M428.3,246.7c-5.6-3.3-12.8,2.5-16.3,6.7c-4.6,5.6-6.7,12.5-8.6,19.4c-0.8,3.1,0.8,5.4,3.1,6.5
			c0.2,0.2,0.2,0.2,0.4,0.4c0.6,0.4,1.3,0.8,2.1,1.3c0.8,0.6,2.1,0.8,3.1,0.6c0.6,0.4,1.5,0.8,2.1,1.3c2.1,1.5,5.2,0.6,6.9-1
			c5-4.8,8.6-10.9,10.2-17.6C432.5,259.2,433.9,249.8,428.3,246.7z" style="fill:#EF7D95;"/>
		<path d="M778.3,426.1c-40.6-34.9-81.7-69.2-123.8-102.4c-20.3-16.1-40.8-32-61.5-47.7c-8.8-6.5-17.6-13.6-28.4-15.9
			c-10.7-2.1-21.5,1-32,3.6c-99.3,24.7-198.6,49.3-297.7,74c-33,5.4-65.9,12.3-98.5,19.9c-35.3,8.2-70.9,16.3-105.8,26.3
			c-1.9-0.6-3.8,0-5.2,1c-0.4,0.2-0.8,0.4-1,0.8c-3.1,1-4.8,4.4-4,7.5c-0.4,3.8,0.8,7.7,3.1,11.5c5.6,9.4,13.4,18.4,20.7,26.6
			c15.9,18.6,33.9,35.3,51.6,52.1c38.3,36,73.6,74.4,109.3,112.7c2.3,2.3,5,2.3,7.1,1c0.6,0,1.3,0,1.7-0.2
			c144.9-44.3,291-84.3,436.7-125.2c41.8-11.7,83.4-23.4,125.2-35.3C779.7,435.5,781.8,429.2,778.3,426.1z" style="fill:#C39A8A;"/>
		<path d="M583.4,414.8c-11.5-20.9-23.4-41.6-35.5-62.3c-6.3-10.7-12.5-21.1-18.8-31.6c-4.8-7.9-9.4-20.3-17.4-25.7
			c-6.1-4.2-14.6-2.1-21.5-1.3c-9.8,1.3-19.7,3.1-29.3,6.1c-19.9,5.9-38.5,14.6-55.6,26.3c-1,0.6-1.7,1.7-2.3,2.5
			c-21.5-1-43.3,1.5-64,7.9c-10.5,3.3-20.7,7.5-30.3,12.5c-8.4,4.4-20.1,9.6-25.9,17.4c-5.2,7.1-1,14.8,1.9,21.7
			c5,11.7,10.5,23.4,16.1,34.9c11.7,23.6,25.1,46.2,39.7,68.2c2.7,4.2,7.9,3.8,10.9,0c24.7-33.4,67.9-50.6,108.7-43.3
			c2.3,0.4,4.6-0.4,6.1-1.9c0.2,0,0.2,0,0.4-0.2c19-8.8,37-15.7,58.1-15.5c19,0.2,36.4-2.3,54.8-6.9
			C583.6,422.9,585.3,418.1,583.4,414.8z" style="fill:#FEF5F2;"/>
		<path d="M394.8,370.9c-15.3,4.4-30.1,10.2-44.3,17.4c-7.3,3.6-0.8,14.4,6.3,10.9c13.4-6.7,27-11.9,41.2-16.1
			C405.9,380.7,402.6,368.8,394.8,370.9z" style="fill:#57455E;"/>
		<path d="M406.8,406c-13.6,3.3-27,7.7-39.9,13.4c-10,4.2-22.8,8.4-29.1,18c-4.4,6.9,6.5,13.2,10.9,6.3
			c5-7.7,22.2-12.8,30.1-15.7c10.2-4,20.7-7.1,31.4-9.8C418,416.2,414.7,404.1,406.8,406z" style="fill:#57455E;"/>
		<path d="M538.3,380.1c-24.9,4.4-53.3,5.6-75.7,18.8c-6.9,4-0.6,14.8,6.3,10.9c21.1-12.3,49.1-13.4,72.8-17.6
			C549.5,390.9,546,378.8,538.3,380.1z" style="fill:#57455E;"/>
		<path d="M515.5,349.1c-21.3,2.9-42,7.9-62.1,15.3c-7.5,2.7-4.4,14.8,3.3,12.1c20.3-7.1,41-12.3,62.1-15.3
			C526.8,360.2,523.4,348.1,515.5,349.1z" style="fill:#57455E;"/>
		<path d="M503.3,319.2c-22.6,3.6-44.1,10.2-65,19.4c-7.3,3.3-1,14,6.3,10.9c19.9-8.8,40.6-14.8,61.9-18.2
			C514.6,329.9,511.3,318,503.3,319.2z" style="fill:#57455E;"/>
		<path d="M309.5,405.6c-1-3.3-4.2-5-7.7-4.4c-2.3,0.4-4.4,0.8-6.7,1.3c-3.1,0.6-5.4,4.6-4.4,7.7c1,3.3,4.2,5,7.7,4.4
			c2.3-0.4,4.4-0.8,6.7-1.3C308.5,412.7,310.6,408.7,309.5,405.6z" style="fill:#F7D16F;"/>
		<path d="M298.7,373c-1-3.3-4.2-5.2-7.7-4.4c-3.3,0.8-6.7,1.5-10,2.3c-3.1,0.6-5.4,4.6-4.4,7.7c1,3.3,4.2,5.2,7.7,4.4
			c3.3-0.8,6.7-1.5,10-2.3C297.4,380.1,299.7,376.1,298.7,373z" style="fill:#F7D16F;"/>
		<path d="M324.6,356.9c-1.5-2.3-2.9-4.4-4.4-6.7c-1.9-2.7-5.6-4.2-8.6-2.3c-2.7,1.7-4.2,5.6-2.3,8.6
			c1.5,2.3,2.9,4.4,4.4,6.7c1.9,2.7,5.6,4.2,8.6,2.3C325.2,363.8,326.5,359.8,324.6,356.9z" style="fill:#F7D16F;"/>
		<path d="M375,347.7c-2.3-2.1-6.7-2.7-8.8,0c-1.5,1.9-2.9,3.8-4.4,5.6c-1,1.3-1.9,2.7-1.9,4.4c0,1.5,0.6,3.3,1.9,4.4
			c2.3,2.1,6.7,2.7,8.8,0l4.4-5.6c1-1.3,1.9-2.7,1.9-4.4C376.9,350.6,376,348.7,375,347.7z" style="fill:#F7D16F;"/>
		<path d="M618.5,380.9c-1.5-6.9-7.9-13.8-11.7-19.4c-5.6-8.4-11.3-16.9-16.7-25.3c-5.6-8.4-11.3-16.9-16.7-25.3
			c-4-6.1-7.7-13.4-13.4-18.2c-5-4.2-14.8-5.2-19.9-0.6c-4.2,0.2-8.4,4.6-5.6,9.4c10,16.7,21.3,32.8,33,48.5
			c5,6.7,10.2,13.4,15.3,19.9c5.2,6.7,10.2,15.1,16.7,20.5C607.9,396.8,621,393,618.5,380.9z" style="fill:#56597A;"/>
		<path d="M622.7,392.2c-1.7-4.6-3.6-9-5.6-13.4c-1.3-2.7-4.4-3.3-7.1-2.9c-2.1,0.4-4.2,0.6-6.3,1
			c-2.9,0.4-4.4,3.6-4.6,6.1c-0.2,2.7,0.4,5.2,1.9,7.5c0.2,0.8,0.8,1.7,1.3,2.3c3.8,4.4,9,6.7,14.6,7.3
			C620.6,400.6,624,395.8,622.7,392.2z" style="fill:#F7D3BD;"/>
		<path d="M628.6,398.5c-1-1.5-2.3-2.9-3.3-4.4c-1-1.3-2.1-2.5-3.8-2.9c-1.5-0.4-3.6-0.2-4.8,0.6
			c-1.3,0.8-2.5,2.1-2.9,3.8c-0.4,1.5-0.4,3.6,0.6,4.8c1,1.5,2.3,2.9,3.3,4.4c1,1.3,2.1,2.5,3.8,2.9c1.5,0.4,3.6,0.2,4.8-0.6
			c1.3-0.8,2.5-2.1,2.9-3.8C629.6,401.8,629.6,399.9,628.6,398.5z" style="fill:#56597A;"/>
		<path d="M533.9,297.7c-6.7-19.2-14.6-38-24.5-55.8c-19-34.7-44.3-66.3-75.5-90.5c-34.7-27-75.5-44.7-119.4-50.2
			c-0.2,0-0.4,0-0.8,0c-0.2-0.4-0.2-1-0.4-1.5c18.6-11.9,14.6-43.1,13.2-61.9c-0.6-10-3.3-19.9-12.5-25.3c-5.4-3.3-12.3-5.9-19-5.9
			c-1.3-1.3-2.9-1.7-5.2-0.8c-22.8,8.8-30.7,37.2-27.4,59.6c2.3,15.1,11.9,31.8,25.9,37.2c-0.4,1.7-0.8,3.3-1.3,5
			c-0.4,0-0.8,0-1.3,0.2c-23.8,6.3-42.2,22.6-57.5,41.2c-16.7,20.3-31.2,42.6-42.9,66.1c-11.9,23.6-21.5,48.5-27.8,74.2
			c-5.6,22.6-3.8,45.6,19.4,56.7c11.1,5.2,23.6,6.1,35.5,5.6c15.7-0.6,31.6-2.1,47.2-4c29.5-3.3,58.7-8.4,87.8-14.8
			c24.7-5.6,50.4-12.5,70.9-28c6.5-5,15.9-12.3,12.5-22c-3.1-8.6-13-8.8-20.5-7.7c-13.8,1.9-27.4,4.4-41.2,7.1
			c4-27.6,9.6-55,16.9-82c33.4,18,63.3,42.9,86.6,73.2c12.5,16.3,22.6,34.1,31.8,52.5c5.6,11.5,14.4,36.4,31.4,23.2
			C551,337.4,538.7,311.7,533.9,297.7z M223.6,286.2c4.6-8.8,9.2-17.4,14-26.1c0,9.8-0.4,19.7-1.3,29.5
			C232,288.7,227.8,287.5,223.6,286.2z" style="fill:#F7D3BD;"/>
		<path d="M454.6,162.2c-4.8-7.5-16.7-12.5-24-17.1c-10.5-6.5-21.3-12.3-32.2-17.8c-10-5-20.1-9.6-30.3-13.8
			c-10.9-4.4-23.2-10.9-34.9-12.3c-9.8-1.3-14,6.3-19,13.4c-6.1,8.4-12.1,16.7-18,25.3c-6.9-9.4-13.8-18.8-20.7-28.2
			c-2.9-4-8.6-2.5-10.2,0.6c-8.2,0.8-16.5,9.2-21.7,14.2c-11.7,11.3-21.5,24.9-31.4,37.6c-9.6,12.8-19,25.5-28,38.7
			c-8.2,12.1-20.1,25.5-22.6,40.3c-0.4,2.3,0.4,4.2,1.7,5.4c0.2,1.5,1,2.7,2.7,3.6c15.7,9,31.4,20.1,47.9,27
			c7.5,3.1,13.8,1.5,19-2.7c0.4,4.4,0.4,8.8,0.4,13.4c0,3.1,2.7,5.6,5.9,5.6c39.5,1,79.4-0.2,118.7-4.8c5-0.6,10-1,13.4-5.2
			c4.8-5.9,4.2-15.7,5.4-22.8c3.1-16.9,8.8-33.4,16.3-48.9c8.4,4,16.9,7.9,25.3,11.7c2.9,1.3,6.1,0.6,7.7-2.1
			c6.9-11.5,13.6-23,20.5-34.5C450.4,181.7,460.3,171,454.6,162.2z" style="fill:#74A3D7;"/>
		<path d="M337.1,36c-2.7-10.9-7.5-21.3-16.3-28.6c-16.9-14-39.1-6.5-50.8,10.5c-6.7,9.6-10.9,21.7-12.8,33
			c-1.5,8.8-3.1,21.1,4.8,27c1.7,1.3,4,0.8,5.9,0c0,0,0,0,0.2,0c4.2-0.8,8.4-2.1,12.3-3.6c-1,3.6,0.8,8.4,5.6,8.4
			c7.3,0,7.9-10.2,2.1-12.1c6.7-4,12.5-9,17.6-15.3c3.3,4.8,7.9,10.5,12.5,14.6c-5.6,2.3-4.8,12.1,2.3,12.1c4.2,0,6.3-3.6,6.1-6.7
			c4.8,1.7,9.2,0.4,12.5-6.1C344,59.4,339.6,45.2,337.1,36z" style="fill:#57455E;"/>
		<path d="M319.4,89.1c-1-3.6-4.4-4.8-7.7-4.4c-3.6,0.6-7.1,0.8-10.7,0.8c-8.2,0-8.2,12.5,0,12.5c4.8,0,9.4-0.6,14-1.3
			C318.3,96.4,320.2,92.2,319.4,89.1z" style="fill:#57455E;"/>
		<path d="M233,242.9c-2.7,14-5.6,27.8-8.4,41.8c-1.7,7.9,10.5,11.3,12.1,3.3c2.7-14,5.6-27.8,8.4-41.8
			C246.8,238.3,234.7,235,233,242.9z" style="fill:#57455E;"/>
		<path d="M388.1,190.3c-0.6,10.2-1,20.5-1.7,30.7c-0.4,8.2,12.1,7.9,12.5,0c0.6-10.2,1-20.5,1.7-30.7
			C401.1,182.3,388.6,182.3,388.1,190.3z" style="fill:#57455E;"/>
		<path d="M379.2,224.3c-0.2-3.1-2.7-6.7-6.3-6.3c-10.9,1.3-21.7,2.7-32.6,4c-1.3,0.2-2.1,0.6-2.9,1
			c-2.7-0.2-5.2,1-5.9,4.6c-1.7,10-3.1,20.7,1.7,29.9c4.2,7.9,12.1,13.2,21.3,12.3C377.3,268,380.2,242.3,379.2,224.3z M357.2,256.5
			c-14,7.1-14.8-12.1-13.8-22.2c7.9-1,15.9-1.9,23.6-2.9C367.2,241.1,366.2,251.9,357.2,256.5z" style="fill:#57455E;"/>
	</g>
	<path d="M761.1,414.4c-72.1,24-145.3,44.9-219.1,62.9c-36,8.8-71.9,16.3-107.5,26.8c-35.5,10.5-70.2,23-105.4,34.5
		c-38.3,12.8-77.1,24-116.9,31.2c-5.4-8.2-13.2-15.5-19.7-22.4c-17.6-18.6-35.3-37-52.9-55.6C105.1,455.1,70.2,418.5,35.5,382
		c-5.6-5.9-14.4,2.9-8.8,8.8c32,33.7,63.8,67.1,95.8,100.8l47,49.5c7.5,7.9,15.3,15.9,22.8,24c7.7,8.2,15.7,16.9,14.8,28.9
		c-0.6,8.2,11.9,7.9,12.5,0c0.2-4.6-0.4-8.8-1.7-12.8c70.5-12.5,136.9-39.5,204.9-60.6c71.7-22.2,145.7-36,218.1-56.4
		c41.4-11.7,82.6-24.3,123.3-37.8C772.2,423.8,768.8,411.6,761.1,414.4z" style="fill:#57455E;"/>
</g>
</svg>
