<?xml version="1.0" encoding="utf-8"?>
<!-- Generator: Adobe Illustrator 20.1.0, SVG Export Plug-In . SVG Version: 6.00 Build 0)  -->
<svg version="1.1" id="Capa_1" xmlns="http://www.w3.org/2000/svg" xmlns:xlink="http://www.w3.org/1999/xlink" x="0px" y="0px" width="800px" height="600px" viewBox="0 0 800 600" style="enable-background:new 0 0 800 600;" xml:space="preserve">

<g>
	<path d="M632.1,420c-5.2-5.6-12.7-9-19.9-11.2c-11-3.4-22.3-5.8-33.6-7.8c-45.9-7.9-92.7-5.7-139-3.4
		c-48.5,2.4-96.9,4.9-145.3,9c-23.5,2-47,4.1-70.4,7.3c-19.3,2.6-39.5,7.9-52,24c-1.5,1.9-2.8,4-3.9,6.2c-4.5,4-6.8,9.1-4.3,15.9
		c0,0.5,0,1,0,1.5c0,1.7,1.1,2.7,2.4,2.9c8.4,11,29.5,9.7,41.2,10.3c46.4,2.5,92.9,4.8,139.4,5.4c46.7,0.6,93.4-0.5,139.9-4.8
		c22.8-2.1,45.5-5,68.1-8.8c11.2-1.9,22.3-4,33.3-6.4c10.5-2.3,21.5-4.1,31.6-7.9c6.5-2.4,13.4-6.2,16.4-12.8
		C638.9,432.6,637,425.3,632.1,420z" style="fill:#B6C8E8;"/>
	<g>
		<path d="M269,432.7c-5.1-6.1-3.5-15.3-3.3-22.7c0.4-16.5,1.3-33.1,1.9-49.6c1.1-32.5,1.1-65.2-4.7-97.3
			c0-0.1,0-0.2-0.1-0.2c2.1-1,4.1-2.2,6-3.7c0.3-0.1,0.7-0.2,1.1-0.4c19.7-12.4,7.9-37.2,2.9-54.5c-5-17.5-13.4-38.2-34.4-39.7
			c-0.5,0-0.9,0-1.3,0.2v-1.5c0-0.4-0.1-0.8-0.2-1.1c0.1-0.1,0.3-0.2,0.4-0.3c4.3-3.4,5-8.8,5.3-13.9c0.3-5.9,0.3-12.2-2.3-17.6
			c-2-4.1-5.7-8-10.5-7.9c-3.4,0-6,1.9-7.3,4.6c-5.8,5-5.8,16.7-5.8,23.7c0,6.2,3.9,11.5,8.9,13.3v1.8c-14.1-0.3-25.1,9.6-32,21.1
			c-7.6,12.7-14.6,28-15.7,42.9c-0.9,12.2,3.3,25.4,13.5,32.8c1.6,1.2,3.3,2.1,5,2.8c2.3,33.6,4.5,67.3,6.1,101
			c0.8,17.1,1.4,34.2,1.7,51.3c0.1,6.1,1.9,16.5-3.7,20.7c-3.7,2.8-8.2,3.5-9.5,8.7c-0.4,1.7,0.9,4.1,2.9,3.8c7-0.9,14-2.3,20.7-4.8
			c5.6-2.1,6.3-5.6,6.9-11.2c1.6-15.6,3.1-31.2,4.7-46.7c2.4-23.5,4.7-47,7.1-70.4c3.8,24,7.7,47.9,11.5,71.9
			c2.5,15.7,5,31.4,7.6,47c0.7,4.5,1.8,8.6,6.5,10.4c5,1.9,10.6-0.5,15.4,1.6c2.2,0.9,5.3-0.6,4.4-3.4
			C276.7,439.8,272.5,436.9,269,432.7z" style="fill:#C39A8A;"/>
		<path d="M245.1,139.3c-0.7-4.6-2-9.4-4.7-13.2c-4.1-5.8-12.2-8.7-18.3-4.1c-6.9,5.2-8.8,17.2-7.4,25.3
			c0.3,1.7,1.6,2.3,2.9,2.1c0,0,0,0,0.1,0c1.3-0.1,2.6-0.3,3.8-0.6c-0.5,1.7,0.4,3.9,2.8,3.9c3.4,0,3.8-4.6,1.3-5.7
			c1.2-0.8,2.3-1.7,3.2-2.8c1.6,2.1,3.4,4,5.8,5.3c-0.4,1.7,0.5,3.9,2.8,3.9c1.6,0,2.6-1.1,2.8-2.3c1.4,0,2.8-0.4,3.8-1.4
			C246.3,147.1,245.5,142.3,245.1,139.3z" style="fill:#57455E;"/>
		<path d="M236.6,156.9c-0.5-1.6-2-2.4-3.7-2.1c-0.2,0-0.5,0.1-0.7,0.1c0,0-0.5,0.1-0.6,0.1c-0.6,0.1-1.2,0.1-1.8,0.1
			c-1.6,0-3.1,1.4-3,3c0.1,1.6,1.3,3,3,3c1.6,0,3.1-0.2,4.6-0.5C236.1,160.3,237.1,158.3,236.6,156.9z" style="fill:#57455E;"/>
		<path d="M270.5,277.4c0.1-0.4,0.2-0.8,0.2-1.3c-0.1-1.9-0.3-3.9-0.4-5.8c-0.1-1.6-1.3-3-3-3
			c-11.1-0.2-21.6,3.1-32.2,5.7c-11.4,2.8-23.1,3.6-34.8,4.3c-1.3,0.1-2.2,0.9-2.6,1.8c-0.7,0.5-1.2,1.3-1.2,2.4
			c0.3,40-0.5,80.2,1,120.3c0.3,9.2,0.2,19.6,2.5,28.6c1.9,7.5,11.7,4.3,17.4,3.8c2.5-0.2,4.8-0.5,6.4-2.5c2.3-3,1.9-8.5,2.1-12
			c0.4-9.6,0.2-19,1.3-28.6c1.9-16.4,4.5-32.8,7.2-49.2c2.3,16.2,5,32.4,8.2,48.5c2.3,11.5,4.7,23,7.4,34.4c0.9,3.7,2.1,6.6,5.8,8.2
			c4.3,1.8,9.9,1.6,14.4,1.1c2.1-0.2,3.2-1.7,2.9-3.8c-3.7-27.1,2.4-54.1,2.6-81.2C275.8,325.4,274.7,300.9,270.5,277.4z" style="fill:#74A3D7;"/>
		<path d="M207.1,264c-0.4-2.5-3.1-2.7-4.7-1.3c-0.3-0.1-0.6-0.1-1-0.1c-5.4,0.5-12.1,1.8-15.9,6.1
			c-3.4,3.9-1.8,9.3,3,10.9c2.5,0.8,5.2,0.7,7.8,0.8c2.6,0.1,6,0.8,8.4-0.3C210,278,207.8,268.2,207.1,264z" style="fill:#C39A8A;"/>
		<path d="M223.3,432c0-1.7-1.4-2.9-3-3c-5.5-0.3-10.8,0-16.3,0.7c-1-0.1-2.1,0.3-2.8,1.3c-3.8,5.7-11,7.9-14.6,13.8
			c-3,4.9,0.8,8.2,5.7,9c7.4,1.2,14.7-3.3,21.2-6.1c2.9-1.2,7.2-2.2,8.9-5.1C224.3,439.8,223.3,435.2,223.3,432z" style="fill:#F087B1;"/>
		<path d="M278,433.9c-2.3-1.7-4.4-3.6-6.2-5.8c-1-1.3-1.8-2.6-3.3-3.4c-3.8-2.1-10.7,0.1-14.8,0.7
			c-1.3,0.2-2.1,1-2.5,1.9c-0.6,0.5-1,1.2-0.8,2.3c0.5,4.4,0.2,10.3,2.1,14.3c1.4,3.1,4.4,4.2,7.5,4.8c5.3,1,10.7,1.5,16.1,1.8
			c3.5,0.2,8.3,1,11.3-1.4C294.1,443.3,281.7,436.6,278,433.9z" style="fill:#F087B1;"/>
		<path d="M593.2,328.8c-0.5-1.9-2.7-2.8-4.4-1.8c-6.2,3.5-11.2,8.8-14.1,15.3c-1.2,2.7-1.7,6-2.3,9.2
			c-0.4-8.1-0.8-16.2-1.2-24.3c-0.1-2.7-4.3-4.4-5.6-1.5c-1.1,2.4-2.3,5.7-5,6.6c-2.3,0.8-5.9-0.1-8.3-0.2c-2.5-0.1-4.6,0.3-6.3-1.7
			c-1.9-2.1-3.2-5.9-4.6-8.4c-1.1-2.1-5.1-1.9-5.5,0.7c-1.9,12.5-2.5,25-1.6,37.5c0,0.4,0.1,0.7,0.2,1c-0.3,1.6-0.5,3.2-0.4,4.9
			c0,1.4,0.9,2.4,2.2,2.9c8.2,3.2,16.8,4.9,25.5,5c5.9,0.1,15,0.4,19-4.8c3.9-5,3.5-13.4,5.4-19.3
			C588.6,343.4,595.2,336,593.2,328.8z" style="fill:#56597A;"/>
		<path d="M414.6,364.1c-3.3-3-7.9-3.5-11.8-1.4c-1.4,0.7-2.5,1.7-3.5,2.8c-0.3-1-0.7-1.9-1.3-2.7
			c-2.6-3.7-7.4-4.9-11.7-4.8c-7.8,0.3-13.8,5.3-16.3,12.1c-6.3-8-15.4-13.6-24.9-5.8c-9.8,8-9.4,23.9-7.7,35.2
			c1.6,11.2,5.9,27.6,18.8,30.5c8,1.8,12.9-2.9,15.8-9c2.4,5.4,6.4,9.7,13,10.2c7.4,0.6,11.4-4.2,13.4-10.1c3.2,4.7,7.9,7.8,13.7,5
			c9.5-4.6,11.8-20.1,12.1-29.3C424.6,386.6,422.6,371.4,414.6,364.1z" style="fill:#F7D16F;"/>
		<path d="M489.1,397.2c-1.3-9.6-3-19.2-4.9-28.7c-2.1-10.3-4.6-20.8-8.5-30.6c-3.1-7.6-8.5-14.3-17.3-14.5
			c-1,0-1.7,0.4-2.2,1c-12.5,3.6-11.7,27.4-11.7,37.3c0,9.3,0.8,18.6,2.3,27.7c1.3,8.1,2.8,16.7,6.8,24c6.3,11.7,23.2,18.5,32.2,5.6
			C490.2,412.6,490.1,404.7,489.1,397.2z" style="fill:#F7D16F;"/>
		<path d="M602.7,387.5c-2-9.2-8.7-15.5-16.1-20.7c-10.1-7-21.2-8.3-33-10.8c-5.8-1.2-11.3-3.4-17.1-1.2
			c-2.3,0.9-4.6,2.1-6.8,3.5c-14.4,5.3-26.1,17.5-25.7,33.9c0.2,9,3.7,19.2,10,25.7c6.9,7.2,17,8.3,26.4,9.6
			c10.6,1.4,21.7,2.5,32.1-0.8c9-2.8,19.4-8.3,25.2-15.9C602.7,404.3,604.4,395.6,602.7,387.5z" style="fill:#F7D16F;"/>
		<path d="M564.6,325.6c-1.7-2.2-4.8-2.5-7.4-2.6c-3.4,0-7,0.3-10.4,0.7c-2.5,0.3-5.3,1.6-5.8,4.4
			c-0.8,4.2,2.6,5.6,6.4,6c5.2,1.4,13,2.2,16.7-1.8C565.9,330.5,566.3,327.7,564.6,325.6z" style="fill:#F7D16F;"/>
		<path d="M555.2,314.7c-1.4-0.4-3.4,0.5-3.7,2.1c-0.4,2.3-0.6,4.7-0.5,7c0.1,1.6,1.3,3,3,3c1.6,0,3.1-1.4,3-3
			c-0.1-1.8-0.1-3.6,0.2-5.4C557.6,316.8,556.9,315.2,555.2,314.7z" style="fill:#56597A;"/>
		<path d="M458.5,311.7c-0.7-3.8-6.4-2.2-5.8,1.6c0.6,3.4,1,6.8,1.3,10.2c0.3,3.8,6.3,3.9,6,0
			C459.6,319.5,459.1,315.6,458.5,311.7z" style="fill:#56597A;"/>
		<path d="M389,338.2c-0.4-3.8-6.4-3.8-6,0c0.7,6.2,0.9,12.4,0.6,18.7c-0.2,3.9,5.8,3.8,6,0
			C389.9,350.6,389.7,344.4,389,338.2z" style="fill:#56597A;"/>
		<path d="M272.1,193.7c-6.1-13.4-15.1-33.2-33-31c-1.7,0.2-2.9,1.2-3,3c-0.3,8.2-8.3,7.4-12.8,0.8
			c-6-8.7-22.3,7.8-28.1,15.7c-7.5,10.3-14.3,22.2-18,34.5c-5.5,18.5-0.2,43.5,19.9,50.1l-2.2,14.9c0.1,1.8,1.3,2.8,3,3
			c18.3,2,40.6,3.9,57.7-4.4c14.4-7,23.2-21,25.7-36.6C284,226.5,279.2,209.4,272.1,193.7z" style="fill:#EDEDED;"/>
		<path d="M259.4,204.2c-6-2.5-10.8,0.1-14.3,4.4c-2.2-4.6-6.4-8.2-11.7-9.1c-6.6-1-12.6,2.3-16,7.6
			c-7.8-5.1-16.9-6.7-23,2.8c-6,9.4-3.7,22.6-1.8,32.9c1.7,9.3,6,21.6,16,24.7c8.7,2.7,12-3.6,14.9-10c2.5,5.3,6.1,10.1,12.2,11.1
			c5.5,0.9,8.8-2,10.7-6c0.6,0.7,1.3,1.3,2.1,1.8c3.2,2.1,7.5,2.2,10.4-0.6c3.6-3.4,5.3-9.7,6.8-14.3c1.8-5.8,2.9-11.9,3.4-18
			C270,222,270,208.7,259.4,204.2z" style="fill:#F7D16F;"/>
		<path d="M227.8,190.2v8c0,3.9,6,3.9,6,0v-8C233.8,186.3,227.8,186.3,227.8,190.2z" style="fill:#56597A;"/>
		<path d="M283,239.6c-1.8-0.3-3.4,0.5-5,1.2c-2.4,1-4.9,2-7.3,3c-0.9,0.4-1.5,1.1-1.8,1.8c-2.5,2.3-3.6,5.7-3.1,9.3
			c0.2,1.2,1.7,2.3,2.9,2.2c6.5-0.6,14.5-4.1,17.2-10.5C287.2,243.8,286.5,240.2,283,239.6z" style="fill:#C39A8A;"/>
		<path d="M271.9,238c-26.9,6.1-54.5,7.2-81.7,3.6c-1.4-0.2-2.3,0.5-2.6,1.5c-0.5,0.5-0.9,1.1-0.9,2
			c-1.5,23.4,28.3,31,46.5,30.1c11.1-0.6,21.9-3.6,32.1-8c4.4-1.9,7.4-4.1,8.4-9.1c1.2-5.6,1.5-11.5,2.1-17.2
			C276,238.8,273.6,237.6,271.9,238z" style="fill:#EDEDED;"/>
		<path d="M223.3,234.7c-1.7-8.1-2.7-16.3-3-24.7c-0.2-3.8-6.2-3.9-6,0c0.4,8.8,1.4,17.6,3.2,26.2
			C218.3,240,224.1,238.4,223.3,234.7z" style="fill:#57455E;"/>
		<path d="M245.1,214.2v19.9c0,3.9,6,3.9,6,0v-19.9C251.1,210.4,245.1,210.4,245.1,214.2z" style="fill:#57455E;"/>
		<path d="M228.2,310.8v38c0,3.9,6,3.9,6,0v-38C234.2,306.9,228.2,306.9,228.2,310.8z" style="fill:#57455E;"/>
		<path d="M272.7,289.4c-6.3,1.1-11-4.4-14.8-8.5c-2.6-2.9-6.8,1.4-4.2,4.2c5.5,6.1,11.8,11.6,20.6,10
			C278.1,294.5,276.5,288.8,272.7,289.4z" style="fill:#57455E;"/>
		<path d="M207.4,289.2c-1.2,4.6-4.7,7.9-9.3,8.9c-3.8,0.8-2.2,6.6,1.6,5.8c6.6-1.4,11.8-6.6,13.5-13.1
			C214.2,287,208.4,285.4,207.4,289.2z" style="fill:#57455E;"/>
		<path d="M273,424.7c-2.2,1.2-4.4,2.3-6.6,3.5c-3.4,1.8-0.4,7,3,5.2c2.2-1.2,4.4-2.3,6.6-3.5
			C279.5,428,276.5,422.9,273,424.7z" style="fill:#57455E;"/>
		<g>
			<path d="M280.7,430c-1.5-0.8-3.1-0.3-4.1,1c0,0-0.1,0.1-0.1,0.1c-0.1,0.1-0.3,0.3-0.4,0.4c-0.1,0.1-0.3,0.3-0.4,0.4
				c0,0-0.3,0.2-0.4,0.3c-0.1,0.1-0.2,0.2-0.3,0.2c-0.2,0.1-0.3,0.2-0.5,0.3c-0.2,0.1-0.3,0.2-0.5,0.3c-0.1,0-0.7,0.3-0.2,0.1
				c-1.5,0.6-2.6,2-2.1,3.7c0.5,1.4,2.1,2.7,3.7,2.1c2.6-1,4.7-2.6,6.4-4.9C282.7,432.8,282.1,430.7,280.7,430z" style="fill:#57455E;"/>
			<path d="M276.6,431.1C276.6,431.1,276.6,431.1,276.6,431.1C276.7,431,276.8,430.9,276.6,431.1z" style="fill:#57455E;"/>
		</g>
		<path d="M205.4,431.2c-1.8-0.5-3.3-1.4-4.6-2.8c-2.7-2.8-6.9,1.5-4.2,4.2c2,2.1,4.5,3.5,7.2,4.3
			C207.5,438,209.1,432.3,205.4,431.2z" style="fill:#57455E;"/>
		<path d="M198.8,438.7c-0.4-0.2-0.8-0.4-1.2-0.6c-0.1-0.1-0.2-0.1-0.2-0.1c-0.1-0.1-0.3-0.2-0.4-0.4
			c-0.1-0.1-0.3-0.3-0.4-0.4c0,0,0,0,0,0c0,0,0,0,0,0c-0.3-0.4-0.5-0.8-0.7-1.3c-0.6-1.4-2.8-1.9-4.1-1.1c-1.5,1-1.8,2.6-1.1,4.1
			c1,2.2,2.9,4.1,5.1,5.1c1.4,0.6,3.3,0.5,4.1-1.1C200.5,441.5,200.3,439.4,198.8,438.7z" style="fill:#57455E;"/>
		<path d="M369.1,394.6c-0.7-4.4-4.8-7.1-8.6-8.7c-3-1.3-8.7-3.4-10.9,0.2c-1.7,2.8,0.3,7.8,2.5,9.8
			c3.3,3.1,9.4,3.4,13.6,3.6c1.8,0.1,2.7-1.1,2.9-2.5C369,396.3,369.2,395.4,369.1,394.6z" style="fill:#57455E;"/>
		<path d="M414.4,383.2c-1.2-1-2.7-1.2-4.3-1.1c-6.3-0.4-12.5,5-13.9,11.1c-0.9,3.9,2.1,6.3,5.8,5.9
			c4-0.5,7.5-3.5,10.3-6.1C414.7,390.6,417.9,386,414.4,383.2z" style="fill:#57455E;"/>
		<path d="M415.9,407.1c-1.7-1.7-3.2-3.6-5.3-4.8c-0.9-0.5-2.1-0.6-3,0c-2.1,1.2-3.7,3.2-5.2,5.3
			c-1.7-1.6-3.7-3.3-5.7-3.4c-2.1-0.1-3.8,1.6-5.3,3.5c-0.5-0.6-0.9-1.2-1.4-1.9c-1.2-1.7-3.1-1.9-4.7-0.6l-4.8,3.9
			c-1.2-2.4-2.9-4.8-5.6-4.6c-2.9,0.3-5.8,3.5-8.1,6.4c-1.5-2.3-3.4-4.7-5.8-4.8c-3.6-0.2-6.6,4.5-8.5,7c-2.3,3.1,2.9,6.1,5.2,3
			c-0.1,0.2,2.4-3.2,2.9-3.1c0.8,0.1,2.9,4,3.4,4.6c1,1.4,3.4,2.2,4.7,0.6c1.2-1.4,2.4-2.8,3.6-4.1c0.6-0.7,1.8-1.5,2.6-2.3
			c0.4,1.2,1.4,2.5,1.9,3.5c1,1.9,3.3,1.7,4.7,0.6c1.8-1.4,3.6-2.9,5.4-4.3c0.6,0.9,1.3,1.7,1.9,2.6c1,1.4,3.4,2.3,4.7,0.6
			c0.5-0.7,2.3-3.5,3.1-3.7c0.8-0.2,3.4,2.6,4.2,3.2c1.5,1.3,3.6,1.1,4.7-0.6c1-1.5,2.2-3.6,3.6-5.1c0.9,0.9,1.8,1.9,2.5,2.6
			C414.4,414.1,418.6,409.8,415.9,407.1z" style="fill:#57455E;"/>
		<path d="M478.2,384.7c-0.2,0.6-0.4,1.3-0.5,1.9c-1.5-1.3-3.2-2.2-5-1.7c-1.9,0.6-3.1,2.4-3.9,4.5
			c-1.2-1.6-2.3-3.3-3.5-4.9c-1.3-1.9-3.9-2-5.2,0c-2,3.2-3.6,6.4-5,9.9c-1.4,3.6,4.4,5.2,5.8,1.6c0.6-1.6,1.3-3,2-4.5
			c1.4,1.9,2.8,3.9,4.1,5.8c1.6,2.2,4.5,1.7,5.5-0.7c0.4-0.9,1-3.4,1.8-5c1,0.9,1.9,2,2.8,2.9c1.6,1.7,4.4,0.8,5-1.3
			c0.6-2.3,1.3-4.6,1.9-6.9C485,382.6,479.2,381,478.2,384.7z" style="fill:#57455E;"/>
		<path d="M453.6,354.4c-1.8-0.8-4.2-1.4-5.8,0.2c-1.4,1.4-1.1,3.2-0.2,4.7c0.1,0.6,0.3,1.2,0.8,1.7
			c2.3,2.3,7.3,5.2,10.3,2.3C462.3,359.8,456.6,355.6,453.6,354.4z" style="fill:#57455E;"/>
		<path d="M481.5,352.8c-0.5-1.9-2.4-3.1-4.3-2.5c-1.4,0.4-2.6,1.8-3.7,2.7c-0.7,0.6-0.9,1.4-0.9,2.2
			c-0.2,0.5-0.4,1-0.5,1.5c-0.4,1.8,0.5,3.9,2.4,4.4c1.5,0.4,3.1-0.4,4.3-1.3C480.7,358.3,482.1,355.4,481.5,352.8z" style="fill:#57455E;"/>
		<path d="M516.4,376.7c-2.6,0.6-3.8,2.5-4.1,4.8c-0.2,0.5-0.2,1,0,1.7c0,0,0,0.1,0,0.1c0.2,3.6,2.2,7.5,4.4,9.2
			c1.8,1.4,4.1,1.5,5.7,0.4c1.6-0.4,2.9-1.4,3.6-3.2C528.2,383.8,523.3,375.2,516.4,376.7z" style="fill:#57455E;"/>
		<path d="M586.4,377.4c-2.7-1.2-5.7,0.1-7.7,2.1c-3,1.9-5,5.3-4,8.9c1,3.4,4.7,4.3,7.7,2.9c2.4-1.2,5-3.4,6.2-5.8
			C589.9,382.6,589.6,378.9,586.4,377.4z" style="fill:#57455E;"/>
		<path d="M589.3,404.7c-1.1-2.6-2.7-6.8-6-7.2c-1.5-0.2-2.8,0.5-3.9,1.5c-0.4,0.4-0.8,1.1-1.1,1.6
			c-0.7,1-0.3,2.2-1.4,1.6c-2.6-1.6-2-6.5-6.2-6.2c-2.1,0.1-3.5,1.9-4.5,4.1c-1.4-2.4-3.2-4.4-5.6-4.5c-2.7-0.1-4.8,2.7-6.4,5.5
			c-2.1-3-4.7-5.7-8.2-5.5c-3.9,0.2-7.2,3.3-9.8,6.6c-0.8-2-1.9-3.8-3.7-4.4c-3.8-1.1-8.9,4.7-11.5,6.6c-3.1,2.3-0.1,7.5,3,5.2
			c1.8-1.3,4.8-2.9,6.5-4.6c0,0,0,0.1,0.1,0.1c-0.1,0.9,1.4,3.6,1.6,4.3c1,2.5,3.9,2.9,5.5,0.7c1.4-2,4.7-7.4,7.3-8.1
			c3.1-0.9,5.6,4.4,7.1,6.5c1.2,1.7,4.1,2.2,5.2,0c1-2,2-4.2,3.4-6c1.3,1.7,2.7,5,3.3,6.1c1.1,1.8,4.2,2.1,5.2,0
			c0.1-0.3,1.2-2.5,2.1-4.4c0.1,0.1,0.1,0.3,0.2,0.4c1.2,2,2.8,4.1,5.3,4.4c2.1,0.3,3.8-0.8,5.1-2.3c0.5-0.5,0.8-1.1,1.1-1.8
			c0,0,0.1,0.1,0.1,0.1c0.4,0.8,0.8,1.7,1.2,2.6C585.6,411.3,590.8,408.2,589.3,404.7z" style="fill:#57455E;"/>
		<path d="M371.4,382.2c-0.5-2.3-0.7-4.5-0.5-6.8c0.1-1.6-1.5-3-3-3c-1.7,0-2.9,1.4-3,3c-0.2,2.8,0.1,5.6,0.7,8.4
			C366.5,387.5,372.3,385.9,371.4,382.2z" style="fill:#C39A8A;"/>
		<path d="M405.3,377.5c-0.5-1.7-0.6-3.3-0.4-5.1c0.2-1.6-1.5-3-3-3c-1.8,0-2.8,1.4-3,3c-0.3,2.2,0,4.5,0.7,6.7
			C400.7,382.8,406.5,381.2,405.3,377.5z" style="fill:#C39A8A;"/>
		<path d="M458.7,348.2c-1-5-1.4-9.9-1.1-15c0.2-3.9-5.8-3.8-6,0c-0.3,5.6,0.2,11.1,1.3,16.6
			C453.7,353.6,459.5,352,458.7,348.2z" style="fill:#C39A8A;"/>
		<path d="M471.7,342.3c-0.7-4.1-2.1-8.1-4.1-11.8c-1.8-3.4-7-0.4-5.2,3c1.7,3.3,2.8,6.7,3.5,10.3
			C466.6,347.7,472.4,346.1,471.7,342.3z" style="fill:#C39A8A;"/>
		<path d="M462.2,376.3l-1.3-5.8c-0.4-1.6-2.2-2.5-3.7-2.1c-1.6,0.4-2.5,2.1-2.1,3.7c0.4,1.9,0.9,3.9,1.3,5.8
			c0.4,1.6,2.2,2.5,3.7,2.1C461.7,379.6,462.5,377.9,462.2,376.3z" style="fill:#C39A8A;"/>
		<path d="M476.9,369.5c-0.2-1.6-1.2-3-3-3c-1.5,0-3.2,1.4-3,3l0.7,6.4c0.2,1.6,1.2,3,3,3c1.5,0,3.2-1.4,3-3
			L476.9,369.5z" style="fill:#C39A8A;"/>
		<path d="M472.1,414c-0.1-0.4-0.5-1.1-0.7-1.4c-0.4-1-0.8-2-1.1-3c-0.6-1.9-1.2-3.8-1.6-5.7c-0.9-3.8-6.7-2.2-5.8,1.6
			c0.9,3.8,3.7,18,10.3,14.1C475.8,418,474.4,414.4,472.1,414z" style="fill:#C39A8A;"/>
		<path d="M480,400.2c-1.6-3.5-6.8-0.5-5.2,3c1.6,3.4,2.4,7,2.6,10.8c0.2,3.8,6.2,3.9,6,0
			C483.2,409.2,482.1,404.6,480,400.2z" style="fill:#C39A8A;"/>
		<path d="M532.3,361c-3,10.2-4,20.7-2.8,31.3c0.4,3.8,6.4,3.8,6,0c-1.1-10.1-0.3-20,2.6-29.7
			C539.2,358.9,533.4,357.3,532.3,361z" style="fill:#C39A8A;"/>
		<path d="M537.8,421.4c-0.2-1.2-0.4-2.3-0.6-3.5c-0.3-1.5-2.3-2.6-3.7-2.1c-1.7,0.5-2.4,2-2.1,3.7
			c0.2,1.2,0.4,2.3,0.6,3.5c0.3,1.5,2.3,2.6,3.7,2.1C537.4,424.6,538.1,423.1,537.8,421.4z" style="fill:#C39A8A;"/>
		<path d="M570.5,364c-0.6-3.8-6.4-2.2-5.8,1.6c1,6.5,1.2,13.1,0.7,19.7c-0.3,3.8,5.7,3.8,6,0
			C572,378.2,571.6,371.1,570.5,364z" style="fill:#C39A8A;"/>
		<path d="M564,414.6v5.9c0,3.9,6,3.9,6,0v-5.9C570,410.7,564,410.7,564,414.6z" style="fill:#C39A8A;"/>
	</g>
	<path d="M312.2,412.9c-0.6,3.7-1,7.5-1.3,11.3c-1-1.1-2-2.2-2.8-3.5c-2.1-3.2-7.3-0.2-5.2,3c2.4,3.7,5.4,6.7,9.1,9.2
		c2,1.3,4.4-0.4,4.5-2.6c0.2-5.3,0.6-10.5,1.5-15.8C318.6,410.7,312.8,409.1,312.2,412.9z" style="fill:#56597A;"/>
	<path d="M361.1,450c-1.1,2.2-2.1,4.4-3.2,6.6c-1-1.8-1.9-3.5-2.9-5.3c-1.8-3.4-7-0.4-5.2,3c1.9,3.4,3.7,6.9,5.6,10.3
		c1,1.9,4.2,2,5.2,0c1.9-3.9,3.8-7.8,5.7-11.7C368,449.6,362.8,446.5,361.1,450z" style="fill:#56597A;"/>
	<path d="M449.2,435.5c-1.1,3-1.8,6.1-2.1,9.2c-1.9-1.9-3.7-3.9-5.3-6c-2.3-3.1-7.5-0.1-5.2,3c3.4,4.6,7.3,8.5,11.8,12
		c1.8,1.4,4.6-0.5,4.5-2.6c-0.3-4.9,0.4-9.4,2.1-14C456.3,433.4,450.6,431.9,449.2,435.5z" style="fill:#56597A;"/>
	<path d="M508.6,442c-1.2,2.1-2.4,4.2-3.6,6.2c-0.6-1.2-1.1-2.5-1.5-3.8c-1.2-3.7-7-2.1-5.8,1.6
		c1.1,3.5,2.7,6.7,4.8,9.7c1.3,1.8,4,2.1,5.2,0c2-3.6,4.1-7.1,6.1-10.7C515.7,441.6,510.5,438.6,508.6,442z" style="fill:#56597A;"/>
	<path d="M237.3,455.7c-0.7,1.8-1.2,3.7-1.6,5.6c-1-1-1.9-2.1-2.8-3.2c-2.4-3-6.7,1.3-4.2,4.2c2.1,2.6,4.5,5,7.1,7.1
		c2,1.7,4.9,0.6,5.1-2.1c0.3-3.5,1-6.8,2.2-10.1C244.4,453.7,238.6,452.1,237.3,455.7z" style="fill:#56597A;"/>
	<path d="M616.8,423.8c-2.2,2-4.2,4.3-6,6.7c-0.8,1.1-1.5,2.3-2.2,3.5c-0.2,0.3-0.4,0.8-0.6,1.4
		c-0.1-0.4-0.2-0.6-0.3-0.7c-0.5-1.5-1-2.9-1.5-4.4c-1.3-3.6-7.1-2.1-5.8,1.6c1.2,3.4,3.4,15.6,9.5,11.4c2.2-1.6,3-4.8,4.4-7.1
		c1.8-3,4.1-5.7,6.7-8.1C623.9,425.4,619.7,421.2,616.8,423.8z" style="fill:#56597A;"/>
	<path d="M560.6,348.4c-1-1.7-2.1-3.3-3.3-4.9c-1.1-1.5-2.1-3.1-4-3.4c-3.5-0.4-6.3,3.8-7.5,6.5
		c-0.6,1.5-0.4,3.2,1.1,4.1c1.3,0.8,3.5,0.4,4.1-1.1c0.3-0.7,0.8-2,1.5-2.8c1.1,1.4,2,3.2,2.9,4.6
		C557.4,354.7,562.6,351.7,560.6,348.4z" style="fill:#57455E;"/>
	<path d="M564.4,337.2c-3.9,0-3.9,6,0,6C568.2,343.2,568.2,337.2,564.4,337.2z" style="fill:#57455E;"/>
	<path d="M539.1,335.1c-1.6,0.1-3,1.3-3,3v0.4c0,1.6,1.4,3.1,3,3c1.6-0.1,3-1.3,3-3v-0.4
		C542.1,336.5,540.8,335,539.1,335.1z" style="fill:#57455E;"/>
</g>
</svg>
