<?xml version="1.0" encoding="utf-8"?>
<!-- Generator: Adobe Illustrator 20.1.0, SVG Export Plug-In . SVG Version: 6.00 Build 0)  -->
<svg version="1.1" id="Capa_1" xmlns="http://www.w3.org/2000/svg" xmlns:xlink="http://www.w3.org/1999/xlink" x="0px" y="0px" width="800px" height="600px" viewBox="0 0 800 600" style="enable-background:new 0 0 800 600;" xml:space="preserve">

<g>
	<path d="M626.5,316.4c-3.6-2.8-8.4-3.2-12.8-3.7c-6.8-0.8-13.6-1.4-20.4-2c-13-1.1-26-1.9-39-2.4
		c-3.4-0.1-6.9-0.3-10.3-0.4c-2-50.2-4-100.4-6-150.6c-0.1-1.6-1.3-3.1-3-3c-44.6,2-89.3,1.1-133.8-2.6c-1.5-0.1-3.1,1.5-3,3
		c3.9,58.7,7.8,117.4,11.7,176.1c0,0.3,0.1,0.5,0.1,0.8c-6.2-0.4-12.4-0.8-18.5-1.2c-16.8-1.1-33.6-2.2-50.4-3.3
		c-8.5-20-17-40-25.5-60l-12.8-30c-3.4-7.9-6.4-16.1-11.8-22.9c6.7-6.1,11.3-15.2,6.5-24c-5.2-9.6-18-8.9-25.1-2
		c-4.1,4.1-6.3,9.7-7.5,15.3c-0.5,2.5-0.2,4-3.2,5.4c-1.4,0.7-3.7,0.6-5.3,0.9c-3.9,0.6-7.9,1.3-11.8,1.9
		c-15.8,2.6-31.7,5.1-47.5,7.7c-2.8-6.8-11.2-9.5-18.1-7.2c-8.9,3-11.4,13.6-8.7,21.7c1.6,4.9,4.9,7.6,8.1,11.4
		c4.6,5.4,4.1,15.3,5,21.9c2,14.6,4.2,29.1,6.7,43.5c1.2,7.1,2.5,14.2,3.9,21.3c1.3,6.6,2.3,13.4,4.7,19.7
		c4.1,10.3,12,14.4,21.4,17.3c-1.5,13-2.5,26.1-2.8,39.2c-0.2,6.9-2,21.1,7.9,22.5c10.3,1.5,11.7-11,11.9-18.2
		c0.2-12.9,0.8-25.8,1.8-38.6c25.1,6.2,50.4,11.6,75.7,17c27.3,5.8,54.8,12.9,82.5,16.8c0.9,9.2,1.3,18.8,3.2,27.9
		c1.4,6.4,5.5,12.5,12.6,12.7c7,0.2,10.2-5.6,9.5-12c-1.1-9.5-3.3-19-5.1-28.3c7.8-1.3,15.1-4.3,22.7-8.3
		c12.4-6.6,24.6-13.8,36.3-21.6c2.4-1.6,4.9-3.2,7.3-4.8c2.1,12.2,8.5,44.2,21.5,35.3c6.2-4.2,3.1-13.4,1.5-19.1
		c-2.2-7.6-4.7-15-7.6-22.3c0.3-0.1,0.7-0.2,1-0.2c0.1,0,0.2,0,0.4-0.1c0,0,0,0,0.1,0c0.1,0,0.2,0,0.4,0c0.4,0.2,0.8,0.2,1.3,0.2
		c7-0.3,14-0.3,21.1,0.1c0.1,2.4,0.3,4.7,0.5,7.1c0.6,8.3,1.2,16.8,2.4,25.1c0.6,4.2,2.3,9.5,6.8,10.9c4.4,1.4,7.8-2.1,8.7-6.1
		c1.6-7.1,0.5-15.5,0.5-22.7c0.1-16.3,0.3-32.5,0.4-48.8c16.5,4.5,34.8-0.7,50.5,6.5c-0.4,12.3,0.2,24.6,2,36.8
		c1.2,8.5,3.7,22,11.9,26.9c9.8,5.7,10.5-10.6,10.4-16.1c-0.1-12.5-2.4-25.3-3.8-37.7c-0.4-3.2-0.7-6.3-1.1-9.5
		c-0.3-2.7-1.1-5.3,2.1-5.8c3.6-0.6,7.3,0.4,10.8-0.9C632.7,330.1,632.1,320.7,626.5,316.4z" style="fill:#C39A8A;"/>
	<path d="M492.3,340.3c-39.3-10.2-79.4-16.8-119.9-19.7c-10.3-0.7-20.6-1.2-30.9-1.5c-4-0.1-11.4,1.2-14.2-2.2
		c-1.5-1.8-2.2-5.1-3.2-7.3l-3.1-7.4c-8.1-19.7-16.3-39.4-24.4-59.1c-2.1-5.2-4.2-10.4-6.4-15.5c-1.5-3.4-3.2-6.6-6.8-8.1
		c-3.6-1.5-8-0.8-11.8-0.4c-1.4,0.1-2.7,0.3-4.1,0.5c-0.4-0.8-1.3-1.3-2.5-1.2c-15.6,1-31,4-45.8,9.1c-5.7,2-13.1,3.9-17.6,8.1
		c-4.4,4.1-4.5,9.9-3.6,15.4c2.7,16.3,6.6,32.5,9.9,48.7c1.7,8.4,3.4,16.8,5.1,25.2c1.4,6.7,2,14.6,6.5,20.1
		c3.6,4.4,9.1,6.8,14.4,8.4c7.3,2.2,14.8,3.9,22.1,5.7c16.4,4.1,32.9,8,49.5,11.7c32.8,7.4,65.7,14,98.8,19.8
		c8,1.4,16.4,3.6,24.3,0.5c7.6-3,14.3-8.6,21-13.2c15-10.4,29.6-21.3,43.9-32.6C495.4,343.9,494.3,340.8,492.3,340.3z" style="fill:#F087B1;"/>
	<path d="M420.1,365c-4.1-4-8.9-6.7-14.4-8c0.5-11.5,0.8-23,0.8-34.4c0-10.5-0.9-21.4-7.2-30.2
		c-11.3-15.7-31.9-19-48.7-11.3c0.1-0.7,0.2-1.3,0.4-2c1.1-6.7,3.2-17.2-1.8-22.7c-0.9-1-2.5-1-3.6-0.5c-6.6,3.3-10.6,9.4-13.3,16.1
		c-2,5-3.6,10.3-5,15.6c-2.3-9-5.5-17.7-11.3-25.2c-7.2-9.2-17.2-15.7-28.5-18.7c-0.4-0.1-0.7-0.1-1.1-0.1c-0.1-0.6-0.1-1.3-0.1-2.2
		c0,0,0-0.1,0-0.1c8.4-4.5,9.9-16.1,8.4-25c-0.9-5.1-2.5-11.1-7.3-14c-1.4-0.8-2.8-1.3-4.3-1.5c-12.1-6.1-15.9,13-16.4,21.1
		c-0.3,5.5-0.7,13,3.4,17.3c1,1,2.2,1.8,3.5,2.5c0,0.1,0,0.2,0,0.4v1.8c-19.2,4.8-28.6,23.5-34.9,40.7c-3.5,9.7-7.2,19.9-5,30.3
		c1.9,8.9,8.1,15.4,16.7,18.1c3.9,1.2,8,1.8,12.1,1.8c0.1,0.4,0.2,0.7,0.5,1.1c13.4,19.2,37.2,28.6,60,22.6
		c11.9-3.1,21.8-10.1,29.7-19.4c2.7-3.2,5.4-6.6,7.8-10.1c-2.4,9.7-4.5,19.4-6,29.3c-0.9,5.7-3.5,12.9,3.1,15.9
		c8.3,3.8,17.9,5.9,26.6,8.7c2.9,1,4.9-2.9,2.9-5c-3.1-3.2-6.7-6.7-7.6-11.2c0-0.2-0.1-0.4-0.1-0.7c12.7,3,25.6,4.3,38.6,4
		C420.6,370.1,422,366.9,420.1,365z" style="fill:#F7D3BD;"/>
	<path d="M294.2,203.7c-2.9-3.4-6.7-5.7-10.6-6.3c0.1-8.3-8.8-15.1-16.7-9.7c-3.7,2.5-5.4,7.2-3.6,11.4
		c1,2.3,2.8,4.1,4.9,5.2c-4.5,6.1-5.2,14.3-5.5,21.9c-0.1,1.6,1.4,3,3,3c4.1,0,7.8-1.1,11-3.3c2.3-1.1,4.4-2.6,6.3-4.5
		c4.1,4.7,10.4,10,15.6,5.8C305.6,221.5,298.5,208.7,294.2,203.7z" style="fill:#EDEDED;"/>
	<path d="M406.8,304c-4.4-15.2-16-28.3-32.3-30.1c-0.4,0-0.8,0-1.1,0.1c-3.1-0.5-6.4-0.6-9.8-0.2
		c-4.8,0.6-9.6,1.7-14.4,1.5c-4.8-0.1-9.4-1.4-14.2-0.7c-3,0.5-5.9,1.9-8,4c-6.1-14.7-17.6-26.9-32.2-33.7c-0.9-1.9-3.9-2.8-5.3-0.4
		c-6.5,11-20.3,8-29.5,2.6c-0.4-0.3-0.8-0.4-1.2-0.4c-0.9-0.3-2-0.2-2.9,0.8c-10.7,11.5-18.6,25.5-22.3,40.8
		c-3.5,14.3-3.7,31.7,8.2,42.3c4.6,4.1,10.5,6.8,16.7,6.7c2.2,0,4.8-0.7,6.8,0.8c1.5,1.1,2.4,3.3,3.5,4.7c2.1,2.8,4.5,5.3,7.2,7.5
		c10.8,8.9,25.3,13,39.2,11.8c14.6-1.3,28-7.8,39.3-16.9c-0.3,1.4-0.5,2.9-0.8,4.3c-0.3,1.9,0.8,3.8,2.9,3.8
		c9.8-0.1,19.6-1.1,29.2-3.2c6.4-1.4,16.8-2.6,21-8.4c0.3-0.5,0.6-0.9,0.9-1.4c2-1.7,2.2-4.1,2.3-6.9
		C410,323.7,409.6,313.5,406.8,304z M299.1,279.9c1.9-2.4,4.6-7.4,7.9-7.9c5.5-0.9,7,7.7,6.8,11.4c-0.2,3-1.7,11.1-5.7,11.1
		c-1.2,0-3.7-2.1-4.7-2.7c-1.6-0.9-3.1-1.8-4.7-2.7c-1-0.6-4.2-1.7-4.7-2.6L299.1,279.9z" style="fill:#B6C8E8;"/>
	<path d="M527.6,167.4c-0.1-1.6-1.3-3-3-3c-36.9-0.4-73.7,0.3-110.5,2.1c-0.3,0-0.5,0.1-0.8,0.1
		c-1.7-0.3-3.5,0.7-3.4,2.8c0.6,8,1.4,16,2.5,23.9c0.7,5.1,1.3,9.9,7.2,10.8c7.4,1.2,15.8,0.1,23.3,0c8.5-0.2,17-0.5,25.5-0.9
		c16.3-0.9,32.7-2.2,48.9-4.1c5.5-0.6,10.8-1.1,11.1-7.7C528.9,183.5,527.9,175.3,527.6,167.4z" style="fill:#56597A;"/>
	<path d="M533.1,220.7c-0.1-1.6-1.3-3-3-3c-36.9-0.4-73.7,0.3-110.5,2.1c-0.3,0-0.5,0.1-0.8,0.1
		c-1.7-0.3-3.5,0.7-3.4,2.8c0.6,8,1.4,16,2.5,23.9c0.7,5.1,1.3,9.9,7.2,10.8c7.4,1.2,15.8,0.1,23.3,0c8.5-0.2,17-0.5,25.5-0.9
		c16.3-0.9,32.7-2.2,48.9-4.1c5.5-0.6,10.8-1.1,11.1-7.7C534.5,236.8,533.5,228.6,533.1,220.7z" style="fill:#56597A;"/>
	<path d="M532.3,275.4c-0.5-2.4-1.2-4.7-2.2-7.1c-0.5-1.2-1.5-2.3-2.9-2.2c-24.2,1.5-48.4,3-72.6,4.5
		c-6,0.4-11.9,0.7-17.9,1.1c-3.6,0.2-8.3-0.3-11.2,2.4c-2.7,2.5-2.3,6.4-2.3,9.8c0,6.3,0,12.7,0,19c0,0.1,0,0.3,0,0.4
		c0,0.1,0,0.2,0,0.2l0.1,14.6c0,1.7,1.4,2.9,3,3c20.6,0.9,41.2,1.8,61.9,2.7c5.3,0.2,10.6,0.6,16,0.7c2.9,0.1,5.9,0,8.3-1.9
		c2.6-2,2.9-4.9,4.1-7.7c1.8-4.3,5.7-7.1,10.4-7.5c1.4-0.1,2.5-0.9,2.8-2.2c2.4-1.8,3.8-4.5,4.5-7.3
		C535.9,290.6,534.7,282.6,532.3,275.4z" style="fill:#74A3D7;"/>
	<path d="M606.6,305.2c-2.1-5-7.8-5.6-12.6-5.9c-1.7-0.1-3.4-0.2-5.1-0.2c-1.3-12.2-2.6-24.4-3.9-36.6
		c-0.4-3.8-6.4-3.8-6,0c1.3,11.9,2.6,23.9,3.8,35.8c-5.3-0.1-10.8-0.3-15.8,0.8c-3.7,0.8-7,3-6.9,7.2c0.1,1.8,1.3,2.8,3,3
		c13.6,1.7,27.2,1.8,40.9,0.5C606.5,309.5,607.6,307.4,606.6,305.2z" style="fill:#57455E;"/>
	<path d="M570.9,293.3c-2.4-1.1-5.7-0.7-8.3-0.9c-3.9-0.2-7.8-0.5-11.7-0.7c-5.1-0.3-13.6-2.7-18,0.8
		c-4,3.2-4.7,9.7-5.2,14.4c-0.3,2.7,2.7,3.5,4.5,2.4c13-0.4,26.1,0,39.1,1.2c1.7,0.2,2.9-1.5,3-3
		C574.6,303.4,575.4,295.5,570.9,293.3z" style="fill:#56597A;"/>
	<path d="M609.4,276.1c-1.2-5.3-1.4-10.5-0.9-15.9c0.4-3.8-5.6-3.8-6,0c-0.6,5.9-0.2,11.7,1.1,17.5
		C604.4,281.5,610.2,279.9,609.4,276.1z" style="fill:#57455E;"/>
	<path d="M274.7,226.5c-3.9,0-3.9,6,0,6C278.6,232.5,278.6,226.5,274.7,226.5z" style="fill:#57455E;"/>
	<path d="M290.1,226.5h-0.7c-1.6,0-3.1,1.4-3,3c0.1,1.6,1.3,3,3,3h0.7c1.6,0,3.1-1.4,3-3
		C293,227.9,291.8,226.5,290.1,226.5z" style="fill:#57455E;"/>
	<path d="M304.5,296.7c-6.5,17-19.9,30.5-36.6,37.7c-3.5,1.5-0.5,6.7,3,5.2c18.2-7.8,32.2-22.8,39.3-41.3
		C311.7,294.7,305.9,293.2,304.5,296.7z" style="fill:#57455E;"/>
	<path d="M286.1,234.5h-7.3c-3.9,0-3.9,6,0,6h7.3C289.9,240.5,289.9,234.5,286.1,234.5z" style="fill:#57455E;"/>
	<path d="M357.9,314.9c-0.8,9.6-2.3,19.1-4.5,28.6c-0.9,3.8,4.9,5.4,5.8,1.6c2.3-9.9,3.9-20,4.7-30.2
		C364.2,311,358.2,311.1,357.9,314.9z" style="fill:#57455E;"/>
	<path d="M236.7,258.6c-1.6-0.9-3.2-1.9-4.8-2.8c0.4-2.3,0.7-4.6,1-7c0.5-3.8-5.5-3.8-6,0c-0.2,1.2-0.3,2.5-0.5,3.7
		c-0.5-0.3-1-0.6-1.5-0.9c-3.3-2-6.4,3.2-3,5.2c1.2,0.7,2.3,1.4,3.5,2.1c-0.3,1.7-0.6,3.4-1,5.2c-0.8,3.8,5,5.4,5.8,1.6
		c0.2-1.2,0.5-2.3,0.7-3.5c0.9,0.6,1.9,1.1,2.8,1.7C237,265.8,240,260.6,236.7,258.6z" style="fill:#57455E;"/>
	<path d="M451.4,344.5c-1.3,0-2.6,0-3.8-0.1c-0.3-1.4-0.6-2.9-0.9-4.3c-0.8-3.8-6.6-2.2-5.8,1.6
		c0.1,0.6,0.2,1.2,0.4,1.8c-0.8-0.2-1.6-0.4-2.5-0.6c-3.7-1.1-5.3,4.7-1.6,5.8c1.8,0.5,3.6,0.9,5.4,1.2c0.2,1,0.4,2.1,0.7,3.1
		c0.8,3.8,6.6,2.2,5.8-1.6l-0.2-0.9c0.8,0,1.7,0,2.5,0C455.3,350.4,455.3,344.4,451.4,344.5z" style="fill:#57455E;"/>
	<path d="M239.5,370.9c-5.7,0.7-10.9-0.3-15.8-3.3c-3.3-2-6.3,3.2-3,5.2c5.7,3.5,12.2,5,18.8,4.1
		C243.2,376.4,243.3,370.4,239.5,370.9z" style="fill:#57455E;"/>
	<path d="M418.7,407.8c-5.4,0.4-10.7-0.2-15.9-1.8c-3.7-1.1-5.3,4.7-1.6,5.8c5.7,1.7,11.5,2.4,17.5,2.1
		C422.6,413.6,422.6,407.6,418.7,407.8z" style="fill:#57455E;"/>
	<path d="M506.3,351.4c-0.3-3.9-2.4-7-5.6-9.3c-3.2-2.2-6.2,3-3,5.2c2,1.4,3.1,3.9,2.6,6.3c-0.5,2.3-2.4,3.9-3.1,6.2
		c0,0.1-0.1,0.2-0.1,0.3c-4.1,2.3-7.8,5.3-11,8.8c-2.6,2.9,1.7,7.1,4.2,4.2c2.4-2.7,5.1-5,8.1-6.9c0.8,0.8,1.8,1.5,3,1.7
		c3.8,0.7,5.4-5.1,1.6-5.8c-0.6-0.1,2.1-4.6,2.4-5.3C506.2,355.1,506.4,353.3,506.3,351.4z" style="fill:#57455E;"/>
	<path d="M190.9,222.9c-4.6-3.7-12.4,0.6-8.9,6.4c1.6,2.5,5,1.3,5.6-0.9c0,0.1,0.1,0.2,0.1,0.4c0.1,0.6-0.1,1.3-0.3,1.7
		c-0.8,1.6-2.4,1.9-3.9,1.3c-4.6-1.8-3.5-7.5-0.9-10.5c2.5-2.9-1.7-7.2-4.2-4.2c-3.9,4.5-5.8,11.3-1.9,16.5
		c3.2,4.4,10.2,6.3,14.5,2.2C194.2,232.4,194.8,226.2,190.9,222.9z" style="fill:#57455E;"/>
	<path d="M207.5,358.8c-7.1-6.1-7.6-16.3-8.3-25.1c-0.8-10-0.9-20-1.4-30.1c-0.9-18.8-3.1-37.6-12.2-54.4
		c-1.8-3.4-7-0.4-5.2,3c10,18.4,10.9,39.5,11.7,60c0.4,9.9,0.6,19.8,1.9,29.7c1,7.9,3,15.8,9.3,21.1
		C206.2,365.5,210.5,361.3,207.5,358.8z" style="fill:#57455E;"/>
	<path d="M535.4,327.6c-3.8-0.5-7.6-0.9-11.4-1.4c-1.9-1.4-4.5-1.5-6.1-3.9c-4-5.9,2-11.5,7.5-12.9
		c3.7-1,2.2-6.7-1.6-5.8c-0.6,0.1-1.1,0.3-1.6,0.5c0.2-11.3-1.1-22.5-3.7-33.5c-0.9-3.8-6.7-2.2-5.8,1.6c2.5,10.7,3.7,21.6,3.4,32.6
		c0,0.9,0.3,1.6,0.8,2.1c-5.9,4.6-8.9,12.4-3.6,19.3c1.4,1.9,3.3,2.4,5,3.8c1.3,0.1,2,0.9,2,2.5c0.1,0.9,0.2,1.9,0.2,2.8
		c0.2,2.2,0.3,4.4,0.5,6.7c0.5,8.2,0.7,16.5,0.6,24.8c0,3.9,6,3.9,6,0c0.1-6.4,0-12.7-0.3-19.1c-0.2-4.8,0-10.3-0.8-15.3l8.7,1.1
		c1.6,0.2,3-1.5,3-3C538.5,328.8,537,327.8,535.4,327.6z" style="fill:#57455E;"/>
	<path d="M610.7,334.1c-7.8,0-15.6,0.1-23.3,0.1c-3.9,0-3.9,6,0,6c7.8,0,15.6-0.1,23.3-0.1
		C614.6,340.1,614.6,334.1,610.7,334.1z" style="fill:#57455E;"/>
	<path d="M586.4,222c-12.5-1.4-25.3,2.4-35.2,10.1c-4.8,3.7-9,8.3-11.4,13.9c-3,7.1-3,14.9-2.7,22.4
		c0.1,2.1,1.8,3,3.4,2.9c1.6,0.1,3.3-0.9,3.4-2.9c0.4-6.4,6.9-10.5,12.9-9.5c6.1,0.9,10.4,5.7,13,11c1.2,2.3,4.9,1.7,5.5-0.7
		c2.6-10.1,15.7-9,17.3,1c0.4,2.2,3.6,2.9,5,1.3c2.5-2.9,5.5-5.7,9.4-6.4c4.5-0.8,9.2,2.2,8.8,7.1c-0.3,3.4,5,4,5.9,0.8
		C628.5,249.1,610.6,224.7,586.4,222z" style="fill:#F7D16F;"/>
	<path d="M575.5,225.4c-5.1,9.6-7.4,20-6.8,30.8c0.2,3.8,6.2,3.9,6,0c-0.6-9.8,1.4-19.1,6-27.8
		C582.5,225,577.3,222,575.5,225.4z" style="fill:#57455E;"/>
	<path d="M594.7,228.7c-2.1-3.2-7.3-0.2-5.2,3c5.2,8,7.2,17,6,26.5c-0.5,3.8,5.5,3.8,6,0
		C602.8,247.8,600.4,237.5,594.7,228.7z" style="fill:#57455E;"/>
	<path d="M442.5,316c-2.8-13.8-4.3-27.8-4.5-41.8c-0.1-3.9-6.1-3.9-6,0c0.3,14.6,1.9,29.1,4.8,43.4
		C437.4,321.4,443.2,319.8,442.5,316z" style="fill:#57455E;"/>
	<path d="M454.1,275.5c-0.4-3.8-6.4-3.8-6,0c1.5,14.9,3,29.8,4.4,44.7c0.4,3.8,6.4,3.8,6,0
		C457.1,305.3,455.6,290.4,454.1,275.5z" style="fill:#57455E;"/>
	<path d="M476.8,316.1c-0.6-4.5-0.8-9.2-1.1-13.7c-0.8-9.8-1.6-19.6-2.4-29.5c-0.3-3.8-6.3-3.9-6,0
		c0.7,8.2,1.3,16.4,2,24.6c0.3,3.9,0.6,7.9,1,11.8c0.2,2.5,1,5.8,1,8.6c-0.5,0.7-0.8,1.5-0.4,2.4c0,0.1,0.1,0.2,0.1,0.3
		c0.7,1.7,2.6,3,4.4,1.8C477.9,320.7,477.2,318.7,476.8,316.1z" style="fill:#57455E;"/>
	<path d="M489.4,270.8c-0.4-3.8-6.5-3.8-6,0c2.1,17.5,2.9,35.1,2.6,52.7c-0.1,3.9,5.9,3.9,6,0
		C492.3,305.9,491.5,288.3,489.4,270.8z" style="fill:#57455E;"/>
	<path d="M505.2,270c-0.8-3.8-6.6-2.2-5.8,1.6c3.5,16.4,4.9,33.1,4.3,49.9c-0.1,3.9,5.9,3.9,6,0
		C510.4,304.2,508.8,287,505.2,270z" style="fill:#57455E;"/>
	<path d="M435.2,252.1c-0.1-0.2-0.1-0.6-0.2-1.1c-0.1-1.6-0.5-3.2-0.8-4.8c-0.5-2.9-1-5.8-1.4-8.7
		c-1-5.8-1.9-11.6-2.9-17.4c-0.6-3.8-6.4-2.2-5.8,1.6c1.2,7.1,2.4,14.1,3.5,21.2c0.6,3.9,0.2,11.7,3.8,14.1c1.3,0.8,3.5,0.4,4.1-1.1
		c0-0.1,0.1-0.2,0.1-0.3C436.3,254.3,436.1,253,435.2,252.1z" style="fill:#57455E;"/>
	<path d="M445.3,221.5c-0.9-3.7-6.7-2.2-5.8,1.6c2.6,10.5,4.3,21,5.3,31.7c0.3,3.8,6.3,3.9,6,0
		C449.7,243.6,447.9,232.5,445.3,221.5z" style="fill:#57455E;"/>
	<path d="M465.4,220.2c-0.4-3.8-6.4-3.8-6,0l3.2,32.6c0.4,3.8,6.4,3.8,6,0L465.4,220.2z" style="fill:#57455E;"/>
	<path d="M481.9,218.9c-0.3-3.8-6.4-3.9-6,0c1.1,11.8,2.1,23.6,3.2,35.3c0.3,3.8,6.4,3.9,6,0
		C484,242.4,483,230.6,481.9,218.9z" style="fill:#57455E;"/>
	<path d="M497,218.7c-0.6-3.8-6.4-2.2-5.8,1.6c1.7,10.8,2.5,21.6,2.5,32.5c0,3.9,6,3.9,6,0
		C499.7,241.4,498.8,230,497,218.7z" style="fill:#57455E;"/>
	<path d="M512.7,220.9c-0.2-3.8-6.2-3.9-6,0c0.7,10.5,1.3,20.9,2,31.4c0.2,3.8,6.2,3.9,6,0
		C514,241.8,513.4,231.3,512.7,220.9z" style="fill:#57455E;"/>
	<path d="M523.5,218.8c-0.7-3.8-6.5-2.2-5.8,1.6c1.7,9,2.4,18,2.2,27.2c-0.1,3.9,5.9,3.9,6,0
		C526.2,237.8,525.4,228.3,523.5,218.8z" style="fill:#57455E;"/>
	<path d="M429.7,202.1c0-0.1-0.1-0.2-0.1-0.3c-0.2-0.4-0.4-0.7-0.6-1c-0.1-0.6-0.5-1.5-0.5-2c-0.3-1.6-0.5-3.1-0.8-4.7
		c-0.5-3.1-1.1-6.2-1.6-9.3c-1.1-6.2-2.2-12.5-3.2-18.7c-0.7-3.8-6.4-2.2-5.8,1.6c1.2,7.2,2.5,14.3,3.7,21.5
		c0.6,3.4,1.2,6.9,1.8,10.3c0.4,2,0.3,4.4,1.9,5.8c1,0.9,2.5,1.2,3.6,0.5c0.1-0.1,0.2-0.1,0.4-0.2
		C429.3,204.8,430.1,203.3,429.7,202.1z" style="fill:#57455E;"/>
	<path d="M441.7,198.6c-1.5-10.6-2.9-21.2-4.4-31.8c-0.5-3.8-6.3-2.2-5.8,1.6c1.5,10.6,2.9,21.2,4.4,31.8
		C436.5,204,442.3,202.4,441.7,198.6z" style="fill:#57455E;"/>
	<path d="M455.5,166.9c-0.3-3.8-6.3-3.9-6,0c0.9,10.9,1.7,21.8,2.6,32.7c0.3,3.8,6.3,3.9,6,0
		C457.3,188.7,456.4,177.8,455.5,166.9z" style="fill:#57455E;"/>
	<path d="M474.1,186.9c-1.3-6.9-2.6-13.9-3.8-20.8c-0.7-3.8-6.5-2.2-5.8,1.6c0.9,5,1.9,10.1,2.8,15.1
		c0.5,2.5,0.9,5,1.4,7.6c0.1,0.5,0.7,4.9,1.4,5.6c-0.9,1.2-0.8,2.7,0.2,3.9c0.1,0.1,0.2,0.2,0.2,0.3c0.9,1.2,3.3,1.2,4.2,0
		C477.5,196.8,474.8,190.8,474.1,186.9z" style="fill:#57455E;"/>
	<path d="M491.3,195.8c-0.1-1.1-0.6-1.9-1.3-2.5c-0.1-1.7,0.2-4.9,0.1-5.5c-0.2-2.4-0.4-4.8-0.8-7.1
		c-0.7-5.1-1.9-10.2-3.3-15.1c-1.1-3.7-6.9-2.1-5.8,1.6c1.8,6.2,3.2,12.4,3.7,18.9c0.3,3.7-0.9,9.8,1.9,12.6
		c0.9,0.9,2.5,1.2,3.6,0.5C490.7,198.2,491.4,197.3,491.3,195.8z" style="fill:#57455E;"/>
	<path d="M502.2,166.1c-0.6-3.8-6.4-2.2-5.8,1.6c1.7,10.6,2.5,21.2,2.6,31.9c0,3.9,6,3.9,6,0
		C505,188.3,504,177.2,502.2,166.1z" style="fill:#57455E;"/>
	<path d="M514.9,163.4c-0.9-3.8-6.7-2.2-5.8,1.6c2.3,9.4,3.1,18.9,2.6,28.5c-0.2,3.9,5.8,3.8,6,0
		C518.2,183.4,517.3,173.3,514.9,163.4z" style="fill:#57455E;"/>
	<path d="M347,245.7c0.1-1.7-1.4-2.9-3-3c-8.3-0.5-16.6,0-24.8,1.5c-0.3,0.1-0.6,0.2-0.9,0.4c-0.3-0.1-0.7-0.2-1-0.2
		c-6.4,0.7-12.8,1.5-19.2,2.2c-1.4,0.2-2.4,0.8-2.9,2.2c-3.7,10.2-6.1,20.6-7.3,31.4c-0.1,0.9,0.1,1.5,0.6,2c0,0.4-0.1,0.8-0.1,1.2
		c-0.1,1.5,1.5,3.1,3,3c3.5-0.3,5.9-2,8-4.8c1.3-1.8,2.4-4.3,4.7-5c3.9-1.2,6.7,2.8,7.1,6.2c0.2,2.3,2.4,3.7,4.5,2.6
		c4.5-2.3,11.4-4.3,14.8-8.1c1.1-1.2,1.5-2.6,2-4.1c1.2-3.3,2.6-5.8,5.3-8.1c3-2.5,6.8-4.3,8.9-7.7C349.2,253.3,346.8,250,347,245.7
		z" style="fill:#F7D16F;"/>
	<path d="M289.9,285c-5.2,4-10.5,7.9-15.7,11.9c-2.4,1.8-4.7,3.6-7.1,5.3l-3.9,3c-0.2,0.1-0.5,0.3-0.8,0.6
		c-0.1-1.3-0.1-2.6-0.2-3.7c-0.3-2.8-0.6-5.7-0.8-8.5c-0.4-5.3-0.7-10.7-0.9-16.1c-0.1-3.8-6.1-3.9-6,0c0.2,6.3,0.6,12.6,1.2,18.9
		c0.4,4.9,0.2,11,2.2,15.5c0.4,1,1.6,1.4,2.6,1.5c2.4,0.1,4.1-1.8,5.8-3.1l8.6-6.5c6-4.6,12-9.1,18.1-13.7
		C296,287.9,293,282.6,289.9,285z" style="fill:#57455E;"/>
	<path d="M317.8,246.9c-0.9,11.4-2.5,22.7-4.8,33.8c-0.8,3.8,5,5.4,5.8,1.6c2.5-11.7,4.1-23.5,5-35.4
		C324.1,243,318.1,243,317.8,246.9z" style="fill:#57455E;"/>
	<path d="M307.3,255.3c-2.8,0.9-5.6,1.6-8.5,2c-1.6,0.2-3,1.2-3,3c0,1.5,1.4,3.2,3,3c3.5-0.4,6.8-1.1,10.1-2.2
		C312.5,259.9,310.9,254.1,307.3,255.3z" style="fill:#57455E;"/>
	<path d="M292.8,247.2c-2.1-0.2-4.1-0.3-6.2-0.1c-2.1,0.2-3.9,2.5-2.6,4.5c0.6,0.5,0.9,1.1,0.8,1.8c0.2,1-0.1,1-1.1,0
		c-1.1-0.3-2-0.9-3.2-1.2c-2.4-0.6-4.1,1.4-3.7,3.7c0.4,2.6,0.3,2.5-1.2,0.5c-0.8-1.1-1.3-2.1-1.9-3.3c-1.2-2.6-4.7-1.5-5.5,0.7
		c-2.2,6.1-2.2,0.1-3.5-2.1c-0.9-1.7-3.4-2-4.7-0.6c-0.8,0.8-1.6,1.4-2.4,1.9c0.4-0.7,0.7-1.4,1.1-2.1c1.7-3.4-3.5-6.5-5.2-3
		c-1.3,2.6-2.5,5.1-3.8,7.7c-1,2.1,0.2,4.3,2.6,4.5c3.1,0.2,6-0.5,8.6-2c0.7,2.3,1.5,4.3,4.7,4.7c2.4,0.3,4.2-0.7,5.5-2.2
		c1.7,2.3,4,4.2,6.8,3.7c2.9-0.5,4.3-2.5,4.7-4.8c2.4,1,4.8,1.7,7.1-0.7c1.6-1.7,1.9-3.7,1.5-5.7c0.5,0,1.1,0.1,1.6,0.1
		C296.6,253.6,296.6,247.6,292.8,247.2z" style="fill:#EDEDED;"/>
	<path d="M356.5,347.3c-1.4-0.7-3.3-0.4-4.1,1.1c-0.9,1.7-1.4,3.5-1.6,5.4c-0.2,1.6,1.5,3.1,3,3c1.8-0.1,2.8-1.3,3-3
		c-0.1,0.6,0-0.1,0.1-0.3c0.1-0.3,0.1-0.6,0.2-0.9c0-0.1,0.1-0.4,0.2-0.5c0.1-0.1,0.3-0.6,0.3-0.7C358.3,350,358,348,356.5,347.3z" style="fill:#EDEDED;"/>
	<path d="M367.7,349.5c-0.9-1.4-2.6-1.9-4.1-1.1c-1,0.5-2,1.5-2.5,2.6c-0.7,1.4-0.8,2.7-0.5,4.2
		c0.3,1.6,2.3,2.6,3.7,2.1c1.5-0.5,2.2-1.8,2.1-3.3c0,0,0,0,0-0.1c0,0,0-0.1,0-0.1c0,0,0,0,0-0.1c0.1,0,0.2-0.1,0.2-0.1
		C368,352.8,368.6,350.8,367.7,349.5z" style="fill:#EDEDED;"/>
	<path d="M378.9,351.7c0-0.1-0.1-0.1-0.1-0.2c0-0.1,0-0.2-0.1-0.2c0,0,0,0,0-0.1c0.4-1.5-0.5-3.3-2.1-3.7
		c-1.6-0.4-3.3,0.5-3.7,2.1c-0.5,1.7-0.2,3.6,0.8,5.1c0.9,1.3,2.7,2,4.1,1.1C379.1,355,379.8,353.1,378.9,351.7z" style="fill:#EDEDED;"/>
	<path d="M387.9,350.6c-0.6-1.3-1.1-2.6-1.7-3.9c-0.6-1.4-2.9-1.9-4.1-1.1c-1.5,1-1.7,2.6-1.1,4.1
		c0.6,1.3,1.1,2.6,1.7,3.9c0.6,1.4,2.9,1.9,4.1,1.1C388.3,353.7,388.6,352.1,387.9,350.6z" style="fill:#EDEDED;"/>
	<path d="M400.5,346.2c-0.3-0.8-0.7-1.3-1.4-1.8c-0.7-0.6-1.5-1.1-2.2-1.7c-0.6-0.4-1.6-0.5-2.3-0.3
		c-0.7,0.2-1.5,0.7-1.8,1.4c-0.4,0.7-0.6,1.5-0.3,2.3c0.3,0.8,0.7,1.3,1.4,1.8c0.7,0.6,1.5,1.1,2.2,1.7c0.6,0.4,1.6,0.5,2.3,0.3
		c0.7-0.2,1.5-0.7,1.8-1.4C400.6,347.9,400.8,347,400.5,346.2z" style="fill:#EDEDED;"/>
	<path d="M412.7,340.4c-0.7-0.8-1.5-1.5-2.2-2.3c-1.1-1.1-3.2-1.2-4.2,0c-1.1,1.2-1.2,3,0,4.2c0.7,0.8,1.5,1.5,2.2,2.3
		c1.1,1.1,3.2,1.2,4.2,0C413.8,343.4,413.9,341.6,412.7,340.4z" style="fill:#EDEDED;"/>
	<path d="M381.5,355.3c-1.8,0-2.8,1.4-3,3c-0.2,1.7-0.4,3.4-0.5,5.1c-0.2,1.6,1.5,3,3,3c1.8,0,2.8-1.4,3-3
		c0.2-1.7,0.4-3.4,0.5-5.1C384.7,356.7,383,355.3,381.5,355.3z" style="fill:#57455E;"/>
	<path d="M349.1,273.5c-5.9,2.2-12.1,4.1-17.5,7.4c-5.8,3.5-11,7.9-16.4,12c-3,2.3-0.1,7.5,3,5.2c5-3.7,9.8-7.7,15-11.1
		c5.3-3.5,11.5-5.4,17.5-7.7C354.3,277.9,352.7,272.1,349.1,273.5z" style="fill:#57455E;"/>
</g>
</svg>
