<?xml version="1.0" encoding="utf-8"?>
<!-- Generator: Adobe Illustrator 23.0.2, SVG Export Plug-In . SVG Version: 6.00 Build 0)  -->
<svg version="1.1" id="Capa_1" xmlns="http://www.w3.org/2000/svg" xmlns:xlink="http://www.w3.org/1999/xlink" x="0px" y="0px" viewBox="0 0 800 567.7" style="enable-background:new 0 0 800 567.7;" xml:space="preserve">

<g>
	<path d="M766.1,74.3C722,29.1,647,10.5,575.2,4.4C531.8,0.7,487.6,0.3,443.9,0C399.7-0.2,355.4,1,311.7,6
		c-75.1,8.7-150.5,30-204.2,70.9c-50.6,38.5-76.5,90.3-90.6,142C9.6,246,4.8,273.7,2,301.3c-3.1,29.2-3.3,59,4.7,87.7
		c3.9,14.2,10.3,27.9,18.7,41.1c0.3,0.4,0.7,0.8,1.1,1.1c-1.9,1.5-2.3,3.7,0.4,5.2c56.7,33.5,133.2,26.4,199.9,18
		c89.1-11.1,177.9-19.3,268.4-21c41.2-0.8,82.6,1.2,123.8-0.1c32.5-1.1,66.6-5.4,92.3-21.3c28.6-17.6,39.1-46.2,49.2-71.5
		c12.6-31.6,22.4-63.9,29-96.4C800.9,189.2,813.3,122.9,766.1,74.3z" style="fill:var(--illu-bg--main);"/>
	<path d="M741.8,444.4c-14.5-18-37.3-28.9-60.7-36.2c-27.1-8.4-55.9-14-84.1-18.7c-29.4-5-59.3-8.7-89.2-11
		c-61-4.6-122.6-3.5-183.2,3.4c-4.7,0.5-9.5,1.1-14.2,1.8c-31.6,1.8-63.1,5.2-94.2,9.9c-29.8,4.6-59.4,10.4-88.5,17.6
		c-24.8,6.1-51.9,11.9-73.9,24c-18.6,10.2-30.9,26.4-28.9,46c2.2,20.2,16.8,37.3,35.8,48.4c22.4,13,49.6,18.7,75.5,24
		c29.6,6,59.7,10,90,12.2c63.2,4.5,126.5,0.3,189.4-4.6c63.7-4.9,127.5-10,191.2-15.1c29.7-2.3,61.2-2.6,90-9.8
		c22.4-5.6,44.3-17.5,54-36.5C760,481.3,754.6,460.3,741.8,444.4z" style="fill:var(--illu-blue--light);"/>
	<path d="M303,140.1c-12.1,0.7-13.4,14.1-23.2,18.6c-10.3,4.6-19.5,7.5-25.2,18.2c-8.1,15.5-2.6,49.5,20.5,47.2
		c2.6-0.3,3.9-2.4,3.9-4.6c0.3-1.8-0.5-3.8-2.7-4.5c-8.9-3-16.8-9.9-17-19.9c-0.1-9.6,6-17.8,14.1-22.4c6.1-3.5,13.2-4.7,18.4-9.6
		c4.9-4.7,7.2-11.7,13.3-15.1C308.4,145.7,307.1,139.8,303,140.1z" style="fill:var(--illu-bg--light);"/>
	<path d="M315.4,222.6c-21.6,0.1-51.9,3.1-58.3,28.7c-3,11.8,1.2,26.8,3.8,38.5c3.3,14.2,8,27.9,13.8,41.4
		c2,4.7,9.1,0.7,7.1-4.1c-4.9-11.1-8.8-22.6-11.8-34.4c-2.7-10.7-5.7-22.6-5.6-33.8c0.1-10.2,5.3-16.7,12.5-20.7
		c3.4,25.5,7.7,51,13,76.2c1.1,5.2,8.9,3,7.9-2.2c-5.4-25.6-9.8-51.4-13.2-77.4c10-3.3,21.8-3.8,30.8-3.9
		C320.6,230.6,320.6,222.4,315.4,222.6z" style="fill:var(--illu-bg--light);"/>
	<path d="M302.6,386.2c-1.2-14.4-3.7-28.5-7.2-42.4c-1.4-5-9.1-3-7.9,2.2c4.6,18.2,7.3,36.7,7.7,55.6
		c0.1,7.7,0.8,16.4-1.8,23.9c-1.6,4.6-4.6,7.6-9.4,9.1c-4.7,1.5-16.4,3.7-17.2-4.1c-0.4-5.2-8.7-5.3-8.1,0c0.9,11,11,14.6,20.9,13.3
		c11.4-1.5,19.7-7.3,22.4-19C304.9,412.4,303.7,398.6,302.6,386.2z" style="fill:var(--illu-bg--light);"/>
	<path d="M336.8,413.2c-0.5-19.4-2.4-38.8-5.2-58c-0.7-5.2-8.5-3-7.9,2.2c2.7,18.6,4.3,37.2,4.9,55.9
		c0.3,8.8,0.3,17.8,0.1,26.6c-0.3,8.8-0.3,17.6-3.4,25.9c-1.9,4.9,6,7.1,7.9,2.2c3-7.7,3.4-15.9,3.7-24.1
		C337.1,433.6,337.1,423.4,336.8,413.2z" style="fill:var(--illu-bg--light);"/>
	<path d="M412,426.5c-1.6,10.3-18.2,3.3-23.2-0.3c-7.1-4.7-11.1-12.2-14-19.9c-5.7-15.7-8.1-32.7-8.9-49.2
		c-0.3-5.2-8.4-5.3-8.1,0c0.5,12.7,2.2,25.5,5.3,37.8c2.4,10.2,5.6,20.9,12.1,29.4c5.7,7.5,14.1,13,23.5,14.9
		c8.7,1.8,19.8,0,21.4-10.4C420.7,423.5,412.9,421.4,412,426.5z" style="fill:var(--illu-bg--light);"/>
	<path d="M619.9,446.3c-1.6-5-9.5-2.8-7.9,2.2c2.6,8-7.5,11.5-13.6,9.1c-6.2-2.4-10.7-8.5-14.1-14
		c-6.9-11.3-10.7-24-13.3-36.9c-5.6-28.2-7.7-57.4-9.8-86c-0.4-5.2-8.5-5.3-8.1,0c1.5,20.3,3.4,40.5,6,60.7c0.7,5.3,1.4,10.7,2.2,16
		c-2.6,0-5,0.1-7.6,0.3c-1.1-24.3-3.1-48.4-6.1-72.5c-0.7-5.2-8.8-5.2-8.1,0c3,24.3,5,48.7,6.1,73.1c-2.4,0.3-4.9,0.5-7.5,0.8
		c-0.1-3.1-0.3-6.1-0.3-8.9c-0.3-21.4-0.5-42.9-0.8-64.1c-0.1-5.3-8.3-5.3-8.1,0c0.4,30.6,0.9,61.4,1.2,92.1
		c0.1,13.8-0.5,30.5-12.2,40c-5,4.1-12.2,6.4-18.4,4.1c-6.9-2.6-10.3-10.2-7.7-17c1.9-4.9-6-7.1-7.9-2.2c-4.9,12.9,5,26.6,18.3,27.9
		c15.2,1.6,27.3-9.9,32.3-23.2c4.7-12.5,4.6-26.7,4.1-40.5c2.4-0.4,5-0.7,7.5-0.8c0.8,21.2,0.9,42.3,0.4,63.6c-0.1,5.3,8,5.3,8.1,0
		c0.5-21.4,0.4-42.7-0.4-64.1c2.8-0.1,5.7-0.3,8.5-0.3c1.6,9.2,3.9,18.3,7.3,27c5,12.7,13.4,29.2,27.7,33.2
		C609.5,469.5,624.1,459.5,619.9,446.3z" style="fill:var(--illu-bg--light);"/>
	<path d="M407.8,122.9c-4.9-9.9-13-18.6-22.2-24.5c-10-6.5-22.1-8-33.9-8.5c-20.7-0.9-45.2,4.6-54.9,25.1
		c-5.2,10.8-3.7,22.5,1.2,33.1c5,11,12.7,23.1,24.1,28.1c0.5,0.3,1.1,0.4,1.5,0.4c0.4,0.3,0.9,0.4,1.5,0.4
		c21.3,2.3,48.1,9.1,68.3-0.9C413.5,166,416.9,141.3,407.8,122.9z" style="fill:var(--illu-blue--light);"/>
	<path d="M322.8,193.9c-0.7-3.9-3-9.4-6.4-11.7c0-1.6-0.8-3.3-2.8-3.8c-8.4-2.2-18-3.8-25.8,1.4
		c-7.2,4.9-9.5,14.1-11.8,22c-6.5,22.9-10.2,46.9-10.6,70.8c-0.1,8.4,1.9,15.9,11,17.9c4.6,0.9,9.5,0.8,14.2,1.1
		c4.5,0.3,10,1.6,14.2,0.1c3.5-1.2,4.3-3.7,5-6.9c1.4-6.5,2.2-13.3,3.3-19.9c2-12.5,4.1-24.8,6.1-37.3
		C321.2,216.9,324.7,204.8,322.8,193.9z" style="fill:var(--illu-red--light);"/>
	<path d="M365.7,314.2c-22.1-6.5-47.3-5.8-70.1-2.6c-0.7-0.3-1.5-0.3-2.4,0.1c-12.1,5-25.1,17.2-13.4,30.1
		c5.6,6.2,14.2,9.5,21.8,12.3c8.9,3.4,18.4,5.4,28.1,6.4c16.1,1.6,40,1.6,51.1-12.5C392.1,334,380.6,318.7,365.7,314.2z" style="fill:var(--illu-red--light);"/>
	<path d="M363.9,123.8c-0.7-1.1-1.6-1.8-3.1-2c-28.1-3-34.7,46.8-8.7,52.9c12.9,3,18.7-9.9,20.9-20.1
		C375.3,143.5,375,129.1,363.9,123.8z" style="fill:var(--illu-brown--light);"/>
	<path d="M484.5,250.2c-10.2-4.7-21.2-7.2-31.6-11.3c-21-8-36.7-24-49.9-41.8c-5.7-7.6-11-19.8-20.2-23.5
		c-5.6-2.3-12.2-2.4-18-3.4c-7.5-1.2-14.9-2.3-22.4-3.5c-0.9-0.1-1.8,0-2.6,0.4c-0.5-0.3-1.2-0.4-2-0.3c-19.5,2-33.6,22.4-42.7,38
		c-8.5,14.6-20.3,38.5-10,55.1c2.6,4.2,6.1,7.1,10.2,9.1c-6.6,23.6-10,55.9,15.9,68.9c23.5,11.8,54.2,1.8,77.2-10.2
		c-9.6,38.9-17.5,78.1-23.3,117.7c-0.3,1.6,0.1,3.8,1.9,4.6c8.9,3.8,17.9,8,27,11.5c6.6,2.6,12.9,3.4,18.7-1.2
		c3.1-2.4,0.1-6.6-2.8-6.9c-7.9-0.8-13.2-8.4-14.4-15.7c-1.5-8.5,1.9-17.5,4.9-25.4c3-7.9,6.1-15.7,9.2-23.6
		c0.3,3.1,0.5,6.1,0.8,9.2c0.4,5.2-0.3,12.7,3.4,17.1c3.4,3.9,9.5,4.1,14.1,4.7c8.7,1.1,17.5,1.5,26.3,1.2c2.3-0.1,5-2.6,3.9-5.2
		c-1.1-2.7-2.3-4.2-4.7-5.8c-4.5-2.8-6.4-4.1-8.3-9.5c-3.1-8.8-3.9-18.4-4.1-27.7c-0.3-18.6,2-37.6-3.4-55.7
		c-3.9-13-12.6-25.6-25.4-31.3c-13.4-6-27.3-2.3-40,3.1c3.1-14.6,6.2-29.2,9.4-43.8c0-0.1,0-0.3,0-0.4c1.9-1.5,3.7-2.8,5.4-4.3
		c1.2-1.1,1.5-2.3,1.2-3.4c1.4-1.4,2.8-2.8,4.2-4.3c14.4,12.9,30.9,23.1,49.1,29.8c9.8,3.7,19.8,6.2,30,7.7
		c6.8,0.9,18.3,4.2,22.2-3.4C497.2,259.3,490.7,253.2,484.5,250.2z" style="fill:var(--illu-white--light);"/>
	<path d="M615.6,288.5c-12.3-8-26.6-13.6-40.8-16.8c-29.4-7.1-60.6-4.5-88.5,6.9c-10.7,3-21.8,7.9-27.8,17.5
		c-6.9,11.1,6.9,21,16,24.5c14.4,5.4,31.5,5.7,46.6,6.2c18.2,0.7,36.3-0.1,54.4-2.4c8.1-1.1,16.1-2.3,24.1-3.9
		c6.9-1.4,14.8-2.3,20.7-6.5C631.7,306.1,624.8,294.4,615.6,288.5z" style="fill:var(--illu-yellow--main);"/>
	<path d="M491.5,254.2c-3.8-4.3-10.7-6.1-15.7-8.1l-25-10.3c-5-2-11-6.1-15.9-1.8c-4.9,4.3-8.1,12.6-10.8,18.3
		c-1.9,3.8,2.6,7.3,5.4,5.8c14.1,9.9,32.3,17.2,49.6,16.7c6.9-0.3,14.8-3.4,16-11.1C495.8,259.4,494.2,256.2,491.5,254.2z" style="fill:var(--illu-blue--main);"/>
	<path d="M376.8,140c0.1-8.7-9.6-18.6-17.5-20.3c-9.9-2.3-19.5,4.3-24.1,12.6c-6.4,11.1-7.3,25.6-7.3,38.2
		c0,2.3,1.9,3.9,4.1,4.1c5.4,0.3,17.4,3.3,21-2.3c1.9-2.8,1.5-8.5,1.8-11.7c0.1-1.5,0.3-3,0.4-4.5c0.7,1.1,1.9,1.8,3.3,1.8h0.5
		c2.2,0,4.2-1.9,4.1-4.1s-1.8-4.1-4.1-4.1h-0.5c-1.1,0-2,0.4-2.8,1.1c0-0.7,0.1-1.4,0.1-2C363.8,149.1,376.6,149.6,376.8,140z" style="fill:var(--illu-bg--light);"/>
	<path d="M387,169.1c-9.9-2.6-20.9-3.4-31.1-4.2c-2.7-0.3-15.5-0.9-26.3,0.3c-0.7-0.5-1.5-0.8-2.6-0.7
		c-2.7,0.4-6.8,1.5-9.4,3.7c-3.7,1.9-5.3,4.7-2.7,8.8c2,3.3,6,3.4,9.4,3.7c0.9,0.1,1.9,0.1,2.8,0.1c3.3,0.8,6.8,1.4,9.9,2
		c10,1.8,20.2,2.7,30.5,2.4c4.9-0.1,9.8-0.5,14.6-1.2c3.7-0.4,8.1-0.7,10.8-3.3C398.8,175.4,392.2,170.5,387,169.1z" style="fill:var(--illu-red--light);"/>
	<path d="M470.8,413.8c-3.3-3.4-7.2-4.6-11.5-5.8c-7.2-2.2-10.4-6-12.5-13.2c-1.6-6.1-2.3-12.5-3.3-18.6
		c-0.5-3.8-1.2-7.6-1.8-11.4c-0.4-2.6-0.4-6.1-1.6-8.4c-2.3-4.3-7.9-3.1-11.8-2.7c-5.6,0.5-12.3,0.9-17.5,3.3
		c-5.4,2.4-3.8,8.5-3.7,13.6c0.1,6.2,0.4,12.5,0.5,18.7c-9.4-3.5-18.8-6.2-28.6-8.3c-2.7-0.5-5,1.2-5.2,3.9
		c-0.1,1.2-0.1,2.4-0.3,3.7c-0.3,0.8-0.7,1.8-0.9,2.7c-0.1,0.3-0.3,0.5-0.3,0.9c0,0.1,0,0.3-0.1,0.4c-0.4,1.4-0.7,2.8-0.9,4.2
		c0,0.3,0,0.5,0,0.8c-1.5,7.9-3.1,15.7-4.6,23.6c-0.9,4.6-1.8,9.2-2.7,14c-0.7,3.3-2.3,7.6-1.6,11c1.1,6.2,10.6,9.2,15.5,11.5
		c7.9,3.7,16,6.6,24.4,8.5c4.6,1.1,11,2.2,14.5-2.2c4.5-5.6-0.9-11.1-4.7-15.1c-6.8-7.2-11.9-13.4-8.7-23.9c2-6.4,4.5-12.7,7.1-19
		c0.5,2.3,1.2,4.6,2,6.8c2.3,6,6.1,6.2,12.1,7.1c14.9,1.9,31.6,6.6,46,0.4C472.4,419.2,472.4,415.5,470.8,413.8z" style="fill:var(--illu-blue--main);"/>
	<path d="M368.1,207.8c-4.7-1.9-12.3-0.1-17.2,0.1c-4.6,0.1-11.5-1.1-15.7,1.2c-3.8,2-4.1,7.2-4.9,11
		c-1.6,6.9-3.4,13.8-5,20.7c-0.4,1.8,0.3,3.3,1.5,4.1c0.9,2,3.3,3.4,5.7,1.9c10.7-6.1,22.8-11.7,32.5-19.3
		C369.3,223.9,377.1,211.3,368.1,207.8z" style="fill:var(--illu-yellow--main);"/>
	<path d="M368,261.1c0-3.4-3.4-4.7-6.1-3.5c-11.9,5.2-24.7,8.7-37.6,10.3c-1.2-0.1-2.4,0.1-3.3,1.1
		c-1.2,0.9-1.6,2.6-1.5,4.1c-1.4,5.2-3,12.9,0.4,16.5c4.3,4.9,14.9,0.1,19.9-0.9c4.6-0.9,9.2-2,14-3c3.3-0.7,8.1-0.9,11-2.7
		C370.8,279.4,368,267,368,261.1z" style="fill:var(--illu-yellow--main);"/>
	<path d="M440.9,198.8c-18.3,4.1-36.3-3-54.5-4.2c-6-0.4-13.8-1.4-17.8,4.1c-4.9,6.8-6.5,16.3-7.2,24.4
		c0,0.5,0,0.9,0.1,1.4c-1.4,12.9-0.7,25.8,2.3,38.6c0.5,2.2,3,3.3,5,2.8c2.8-0.7,5.8-1.4,8.7-2c6.6,0.8,13.2,1.4,19.8,1.5
		c6.8,0.1,17.2,1.8,21.8-4.3c2.7-3.5,4.2-8.5,6.1-12.5c2.3-4.9,4.5-9.8,6.8-14.5c4.5-9.8,8.9-19.4,13.4-29.2
		C447,201.7,444.6,198,440.9,198.8z" style="fill:var(--illu-blue--light);"/>
	<path d="M372.2,151.1c-3.8,0-4.9,4.3-3.1,6.8c-2.2,0.4-4.3,0.4-6.6,0.1c-2.2-0.3-4.1,2-4.1,4.1c0,2.4,1.9,3.8,4.1,4.1
		c3.3,0.4,6.4,0.1,9.5-0.5c2.2-0.4,3.4-3,2.8-5c-0.1-0.7-0.5-1.2-0.9-1.6C377.3,157.3,376.8,151.1,372.2,151.1z" style="fill:var(--illu-bg--light);"/>
	<path d="M332,240.2c-8-0.1-15.5-2-22.6-5.6c-4.6-2.3-8.8,4.7-4.1,7.1c8.4,4.2,17.4,6.5,26.7,6.6
		C337.2,248.3,337.2,240.2,332,240.2z" style="fill:var(--illu-bg--light);"/>
	<path d="M370.4,285.3c-13.3,4.2-26.6,8-40.1,11.1c-5.2,1.2-3,9.1,2.2,7.9c13.6-3.3,26.8-6.9,40.1-11.1
		C377.6,291.7,375.4,283.8,370.4,285.3z" style="fill:var(--illu-bg--light);"/>
	<path d="M441.7,364.7c-9.9,2.2-19.8,3-29.8,2.7c1.4-0.8,2.2-2.3,1.8-4.3c-2.7-11.9-6-23.7-9.6-35.4
		c-2.7-8.4-6.9-12.7-15.6-7.9c-4.6,2.6-0.4,9.6,4.1,7.1c3.5-2,3.9,3.9,4.7,6.5c1.1,3.7,2.2,7.3,3.3,10.8c1.9,6.9,3.7,13.8,5.3,20.7
		c0.3,0.9,0.7,1.8,1.4,2.2c-3.8,1.1-3.3,7.7,1.4,8c11.9,0.7,23.7-0.4,35.4-2.8C448.9,371.4,446.8,363.6,441.7,364.7z" style="fill:var(--illu-bg--light);"/>
	<path d="M646.5,174.1c-0.7,0.3-0.4-1.2-0.7-0.7c0-0.1,0-0.1,0-0.3c0.3-0.7,0.3-1.5,0.1-2c0-1.2-0.1-2.3-0.3-3.5
		c-0.7-5.2-8.5-3-7.9,2.2c0.7,4.9-1.6,9.4-5.4,12.1c-1.2,0.5-2.3,1.2-3.3,2.2c-3.5,3.4,0.9,8.3,4.9,6.4c0.8-0.4,1.6-0.8,2.4-1.4
		c1.2-0.1,2.6,0.4,3.4,1.5c0.3,1.4,0.7,2.6,1.2,3.9c1.8,3.8,7.6,1.8,7.6-2c0-1.8-0.4-3.4-1.1-4.9c0-2.4,1.1-4.7,3-6.2
		C654.8,178.1,651.2,171.7,646.5,174.1z" style="fill:var(--illu-yellow--main);"/>
	<path d="M562.2,47.9c-3,1.6-5.7,1.2-7.3-0.4c0.9-4.5,0.5-9.2-1.8-13.6c-2.4-4.6-9.5-0.5-7.1,4.1
		c0.1,0.1,0.1,0.3,0.3,0.5c-0.8,0.7-1.5,1.6-1.6,3c-0.3,2.7,0.3,5.2,1.2,7.2c-0.4,0.7-0.7,1.2-1.2,1.8c-3.4,0.5-6.8,2.6-9.2,6.2
		c-2,3.1,1.4,6.8,4.6,6c3.1-0.7,5.8-2.2,8.1-4.1c1.6,0.5,3,2.2,3.1,4.6c0.1,4.5,6.8,5.7,8,1.1c1.1-4.2,3.3-7.3,7.1-9.6
		C570.8,52.1,566.8,45.2,562.2,47.9z" style="fill:var(--illu-yellow--main);"/>
	<path d="M217.7,295.2c0.3-3.5-4.6-5.4-6.9-2.8c-1.1,1.2-1.9,2.4-2.7,3.8c-1.1-0.1-2.4-0.8-2.7-1.1c-2-2-2.2-6-2.3-8.5
		c-0.1-2.7-2.4-4.1-4.5-3.9c-3.4-2-8.5,1.5-5.8,5.3c2.6,3.5,2.8,7.9,1.4,11.4c-3.4,1.6-6.4,4.6-7.9,8.7c-1.4,3.7,3.1,6,6,4.6
		c3.3-1.5,5.8-3.9,7.6-6.8c2.7,0,5.4,1.9,6.6,4.9c1.9,4.5,8.4,1.1,7.5-3.1c-0.4-1.9-0.3-3.8,0.3-5.6
		C216.2,300.3,217.6,298,217.7,295.2z" style="fill:var(--illu-yellow--main);"/>
	<path d="M255,136.5c-2.2,0.5-4.1,1.5-5.7,2.8c-0.8-0.3-1.5-0.9-1.8-1.8c0-0.7,0-1.2-0.1-1.9c0-0.7,0-1.4-0.3-1.9
		c-0.3-1.4-0.7-2.6-1.2-3.9c-2-4.7-9.1-0.7-7.1,4.1c0.3,0.5,0.4,1.1,0.5,1.6c0,1.1,0,2,0.1,2.8c-0.1,1.4-0.5,2.6-1.1,3.8
		c-5.2,0.3-9.4,4.2-9.4,9.4c0,2.6,2.6,4.7,5.2,3.9c2.8-0.8,5.3-2.3,7.2-4.1c0,0,0.1,0,0.1,0.1c1.6,1.1,2.6,3.1,3.7,4.7
		c2.3,3.7,9.2,1.4,7.5-3.1c-0.9-2.2-0.7-4.5,0.5-6.2c2.3-0.7,4.5-2.2,6.2-4.5C261.9,139.4,258.1,135.8,255,136.5z" style="fill:var(--illu-yellow--main);"/>
	<path d="M381,50.5c-2.7-0.9-5.4-0.8-8,0.3c-0.8-0.8-1.2-2.2-0.7-3.7c1.2-4.5-4.7-6.6-7.2-3.7c-2.3,0.1-4.7,2-4.1,5
		c0.9,4.2-1.2,7.7-4.6,9.5c-1.4,0.3-2.7,0.7-4.1,1.4c-4.3,2.3-1.1,8,3.1,7.5c1.4-0.3,2.7-0.5,3.9-1.1c3.1,0,5.8,2.7,6.2,6
		c0.7,4.5,8.5,3.5,8-1.1c-0.3-2.3-0.8-7.7,0.5-10.7c2.4,0.3,5.2-0.3,7.6-1.9C385.1,55.9,384.2,51.7,381,50.5z" style="fill:var(--illu-yellow--main);"/>
	<path d="M544.3,175.5c-1.8,0.7-3.8-0.1-4.7-1.6c0.4-0.9,0.7-1.9,0.9-3c0.8-3.5-2.7-5.7-5.4-4.9c-1.6,0-3.3,0.8-3.8,2.8
		c-0.4,1.5-0.4,2.8-0.3,4.3c-1.6,3.1-4.2,5.6-7.5,7.1c-1.4,0.3-2.7,0.8-4.1,1.6c-4.1,2.3-1.4,8.5,3.1,7.5c1.2-0.3,2.4-0.7,3.7-1.2
		c3-0.3,6.2,1.4,7.3,4.5c1.4,4.1,8.4,3.8,8-1.1c-0.3-3.7,1.4-6.8,4.9-7.9C551.3,181.6,549.3,173.9,544.3,175.5z M536,181.6
		c-0.1,0.3-0.4,0.5-0.5,0.8c-0.3-0.1-0.5-0.3-0.8-0.5c0.3-0.3,0.5-0.5,0.7-0.8C535.6,181.2,535.7,181.5,536,181.6z" style="fill:var(--illu-yellow--main);"/>
	<path d="M163.5,375.1v0.8c0,5.3,8.1,5.3,8.1,0v-0.8C171.6,369.8,163.5,369.8,163.5,375.1z" style="fill:var(--illu-white--light);"/>
	<path d="M197.9,336.1c-2.2,0.1-4.1,1.8-4.1,4.1v1.4c0,2.2,1.9,4.2,4.1,4.1c2.2-0.1,4.1-1.8,4.1-4.1v-1.4
		C202,338,200.1,335.9,197.9,336.1z" style="fill:var(--illu-white--light);"/>
	<path d="M257,365.9c-0.4-0.4-0.9-0.9-1.4-1.4c-1.5-1.5-4.2-1.6-5.7,0c-1.5,1.6-1.6,4.2,0,5.7c0.4,0.4,0.9,0.9,1.4,1.4
		c1.5,1.5,4.2,1.6,5.7,0C258.5,370.1,258.7,367.5,257,365.9z" style="fill:var(--illu-white--light);"/>
	<path d="M143.8,312.7c-2.2,0.1-4.1,1.8-4.1,4.1v1.4c0,2.2,1.9,4.2,4.1,4.1c2.2-0.1,4.1-1.8,4.1-4.1v-1.4
		C147.9,314.6,146,312.6,143.8,312.7z" style="fill:var(--illu-white--light);"/>
	<path d="M222.9,233.4l-1.4-1.4c-1.5-1.5-4.2-1.6-5.7,0c-1.5,1.6-1.6,4.2,0,5.7l1.4,1.4c1.5,1.5,4.2,1.6,5.7,0
		C224.4,237.6,224.5,235,222.9,233.4z" style="fill:var(--illu-white--light);"/>
	<path d="M186.1,178.6c-5.3,0-5.3,8.1,0,8.1C191.4,186.8,191.4,178.6,186.1,178.6z" style="fill:var(--illu-white--light);"/>
	<path d="M282.7,55.1c-1.9-0.9-4.6-0.5-5.6,1.5c-0.4,0.9-0.9,1.9-1.4,2.8c-0.9,1.9-0.5,4.5,1.5,5.6
		c1.9,0.9,4.6,0.5,5.6-1.5c0.4-0.9,0.9-1.9,1.4-2.8C285.1,58.8,284.7,56.2,282.7,55.1z" style="fill:var(--illu-white--light);"/>
	<path d="M419,31.9c-5.3,0-5.3,8.1,0,8.1C424.1,40,424.1,31.9,419,31.9z" style="fill:var(--illu-white--light);"/>
	<path d="M452.9,116.5c-5.3,0-5.3,8.1,0,8.1C458,124.7,458,116.5,452.9,116.5z" style="fill:var(--illu-white--light);"/>
	<path d="M467,166c-5.3,0-5.3,8.1,0,8.1C472.1,174.1,472.1,166,467,166z" style="fill:var(--illu-white--light);"/>
	<path d="M475.4,213.9c-2.2,0.1-4.1,1.8-4.1,4.1v1.4c0,2.2,1.9,4.2,4.1,4.1c2.2-0.1,4.1-1.8,4.1-4.1v-1.4
		C479.4,215.9,477.5,213.9,475.4,213.9z" style="fill:var(--illu-white--light);"/>
	<path d="M577.9,154.6h-1.4c-2.2,0-4.2,1.9-4.1,4.1c0.1,2.2,1.8,4.1,4.1,4.1h1.4c2.2,0,4.2-1.9,4.1-4.1
		C582,156.4,580.2,154.6,577.9,154.6z" style="fill:var(--illu-white--light);"/>
	<path d="M581.1,108.1c-5.3,0-5.3,8.1,0,8.1S586.4,108.1,581.1,108.1z" style="fill:var(--illu-white--light);"/>
	<path d="M627.8,103.9c-5.3,0-5.3,8.1,0,8.1C632.9,112,632.9,103.9,627.8,103.9z" style="fill:var(--illu-white--light);"/>
	<path d="M593.9,228h-1.4c-2.2,0-4.2,1.9-4.1,4.1s1.8,4.1,4.1,4.1h1.4c2.2,0,4.2-1.9,4.1-4.1S596.2,228,593.9,228z" style="fill:var(--illu-white--light);"/>
	<path d="M641.9,267.6c-5.3,0-5.3,8.1,0,8.1C647,275.7,647,267.6,641.9,267.6z" style="fill:var(--illu-white--light);"/>
	<path d="M608,355c-5.3,0-5.3,8.1,0,8.1C613.3,363.2,613.3,355,608,355z" style="fill:var(--illu-white--light);"/>
	<path d="M462.6,338.1c-5.3,0-5.3,8.1,0,8.1C467.9,346.2,467.9,338.1,462.6,338.1z" style="fill:var(--illu-white--light);"/>
	<path d="M433.1,276h-1.4c-2.2,0-4.2,1.9-4.1,4.1c0.1,2.2,1.8,4.1,4.1,4.1h1.4c2.2,0,4.2-1.9,4.1-4.1
		C437,277.9,435.4,276,433.1,276z" style="fill:var(--illu-white--light);"/>
	<path d="M507,109.6c-5.3,0-5.3,8.1,0,8.1C512.3,117.7,512.3,109.6,507,109.6z" style="fill:var(--illu-white--light);"/>
	<path d="M479.8,39.1c-5.3,0-5.3,8.1,0,8.1C485.1,47.2,485.1,39.1,479.8,39.1z" style="fill:var(--illu-white--light);"/>
	<path d="M427.4,163.8c-5.3,0-5.3,8.1,0,8.1S432.7,163.8,427.4,163.8z" style="fill:var(--illu-white--light);"/>
	<path d="M500.6,350.2c-5.3,0-5.3,8.1,0,8.1S505.9,350.2,500.6,350.2z" style="fill:var(--illu-white--light);"/>
	<path d="M165.2,243.4c-5.3,0-5.3,8.1,0,8.1C170.5,251.6,170.5,243.4,165.2,243.4z" style="fill:var(--illu-white--light);"/>
	<path d="M533.3,235.8c-1.1-6.5-2.3-12.9-3.4-19.4c-0.3-1.6-2.3-3.1-3.9-3c-3.8,0.3-7.3,0.9-10.8,2.2
		c-4.9,1.8-2.8,9.6,2.2,7.9c1.8-0.7,3.5-1.1,5.4-1.5c0.9,5.3,1.9,10.6,2.7,15.9C526.4,243.2,534.2,241,533.3,235.8z" style="fill:var(--illu-bg--light);"/>
	<path d="M542.8,256.3c-0.3-5.3,1.4-14.8-2.3-19.3c-3.9-4.7-13.3-1.4-18.3-0.7c-5.6,0.8-11.7,2-14.1,7.7
		c-1.2,3-0.9,6,0.4,8.4c1.6,8.7,2.6,17.9,5.3,26.2c2.2,6.8,6.6,6.4,13,5.8c5.3-0.4,12.9,0.3,15.6-5.4
		C545.5,273,543.2,262.8,542.8,256.3z" style="fill:var(--illu-white--light);"/>
	<path d="M543.7,233.3c-5-3.7-14.1-0.7-19.7,0c-5,0.5-15.6-0.5-18.7,4.5c-0.7,1.1-0.9,2-1.1,2.8
		c-6.6,15.9,20.9,9.2,27.5,8.5c4.2-0.5,13.4,0.4,15.7-4.5C549.1,241.1,546.7,235.4,543.7,233.3z" style="fill:var(--illu-blue--main);"/>
	<path d="M616.8,298.2c-22.8,12.5-52.1,11.5-77.3,12.2c-26.3,0.7-53.3-1.2-77.2-13.3c-4.6-2.3-8.8,4.6-4.1,7.1
		c25.2,12.7,53.4,15.2,81.2,14.5c26.8-0.7,57.2-0.1,81.4-13.3C625.5,302.7,621.4,295.8,616.8,298.2z" style="fill:var(--illu-bg--light);"/>
	<path d="M394.3,217.1c-2.7-6.2-9.2-8.1-15.3-6.1c-7.7,2.6-14.2,9.6-21,14c-8.4,5.4-17.4,10-26.4,13.8
		c-0.7,0.3-1.2,0.8-1.6,1.2c-0.9,0.9-1.6,2.2-1.4,3.9c1.2,8.4,4.2,17.6,9.5,24.4c4.5,5.6,9.5,2.4,14.8-0.4
		c14.5-7.7,27.5-19,37.3-32.3C393.9,230.3,397.1,223.6,394.3,217.1z" style="fill:var(--illu-blue--main);"/>
	<path d="M409.5,403.9c-12.5-4.3-25.1-8.1-37.8-11.1c-5.2-1.2-7.3,6.6-2.2,7.9c12.9,3.1,25.5,6.8,37.8,11.1
		C412.2,413.3,414.3,405.5,409.5,403.9z" style="fill:var(--illu-bg--light);"/>
	<path d="M356.6,257.4c-4.5-6.8-8.7-13.7-12.6-20.9c-2.6-4.6-9.6-0.5-7.1,4.1c3.9,7.1,8.1,14.1,12.6,20.9
		C352.4,265.8,359.4,261.7,356.6,257.4z" style="fill:var(--illu-bg--light);"/>
	<path d="M443.6,233.7c-4.2,7.9-8.3,15.7-12.5,23.6c-2.4,4.6,4.6,8.7,7.1,4.1c4.2-7.9,8.3-15.7,12.5-23.6
		C453.1,233.1,446.1,228.9,443.6,233.7z" style="fill:var(--illu-bg--light);"/>
	<path d="M351.4,218.1h-12.6c-5.3,0-5.3,8.1,0,8.1h12.6C356.7,226.2,356.7,218.1,351.4,218.1z" style="fill:var(--illu-bg--light);"/>
	<path d="M355,269.2c-7.6,1.4-15.2,3-22.8,4.9c-5,1.4-3,9.2,2.2,7.9c7.5-1.9,15.1-3.5,22.8-4.9
		C362.3,276.3,360.1,268.4,355,269.2z" style="fill:var(--illu-bg--light);"/>
	<path d="M205,487.7c-1.5-4.6-7.3-6-11.5-6.9c-11.4-2.7-25.4-1.8-35.7,4.5c-3.4,2-5.4,5.4-3.8,9.5
		c0.7,1.6,1.8,2.8,3,3.7c0.4,1.5,1.6,2.7,3.7,2.7c7.9,0,15.6,0,23.5,0c5.4,0,11.3,0.1,16-2.8C203.8,495.9,206.2,492,205,487.7z
		 M181.5,492.9c-4.2,0-8.3,0-12.5,0c-0.7-0.8-1.6-1.4-3.1-1.2c-1.4,0.1-2.7,0.3-4.1,0.5c1.6-0.9,3.4-1.6,5.2-2.3
		c3.1-1.1,6.5-1.9,9.8-2.3c4.3-0.4,14.1-1.2,17.6,1.8C198.9,493.4,183.8,492.9,181.5,492.9z" style="fill:var(--illu-bg--light);"/>
	<path d="M351.4,507.5h-9.1c-5.3,0-5.3,8.1,0,8.1h9.1C356.7,515.6,356.7,507.5,351.4,507.5z" style="fill:var(--illu-bg--light);"/>
	<path d="M263.8,461.4c-3.4-0.4-6.9,0-10.2,0.9c-5,1.5-2.8,9.4,2.2,7.9c2.7-0.8,5.2-0.9,8-0.7c2.2,0.3,4.1-2,4.1-4.1
		C267.9,463,266,461.6,263.8,461.4z" style="fill:var(--illu-bg--light);"/>
	<path d="M191.4,434.2h-16.3c-5.3,0-5.3,8.1,0,8.1h16.3C196.7,442.4,196.7,434.2,191.4,434.2z" style="fill:var(--illu-bg--light);"/>
	<path d="M512.3,505.6c-12.2-9.4-30-7.7-40.7,3.1c-0.8,0.9-1.2,1.9-1.2,2.8c-4.2,3.5-7.2,9.6-10,13.4
		c-3.1,4.2,3.9,8.3,7.1,4.1c1.9-2.6,3.7-5.4,5.8-7.9c2.3-2.7,3.4-4.1,7.1-4.2c5.2-0.3,10.6,0.9,15.6,1.2c6.9,0.3,14-0.7,17.8-7.2
		C515,509.1,514,506.9,512.3,505.6z M484.6,509.5c6-2.6,12.7-2.4,18.7,0.3C498.6,511.5,490.8,510.3,484.6,509.5z" style="fill:var(--illu-bg--light);"/>
	<path d="M606.4,503c-7.1-0.4-14.1,0.3-21,1.9c-5.2,1.2-3,9.1,2.2,7.9c6.2-1.5,12.5-1.9,18.8-1.5
		C611.6,511.4,611.6,503.3,606.4,503z" style="fill:var(--illu-bg--light);"/>
	<path d="M637.3,426.1c-4.5-1.5-9.4-1.5-14,0c-4.9,1.6-2.8,9.5,2.2,7.9c3.3-1.1,6.4-1.1,9.6,0
		C640.1,435.6,642.3,427.7,637.3,426.1z" style="fill:var(--illu-bg--light);"/>
	<path d="M504.3,400.7h-6.4c-2.2,0-4.2,1.9-4.1,4.1c0.1,2.2,1.8,4.1,4.1,4.1h6.4c2.2,0,4.2-1.9,4.1-4.1
		C508.2,402.6,506.6,400.7,504.3,400.7z" style="fill:var(--illu-bg--light);"/>
	<path d="M437.3,482.4c-3.7,1.2-7.2,2.4-10.8,3.7c-4.9,1.6-2.8,9.5,2.2,7.9c3.7-1.2,7.2-2.4,10.8-3.7
		C444.3,488.6,442.3,480.7,437.3,482.4z" style="fill:var(--illu-bg--light);"/>
	<path d="M726.1,311c-1.8,0.3-3.5,0.5-5.3,0.8c-0.4-3.1-1.1-6.2-2-9.2c-1.5-5-9.4-2.8-7.9,2.2c0.8,2.7,1.4,5.4,1.8,8.3
		c-1.8,0.3-3.5,0.5-5.3,0.7c-5.2,0.7-3,8.5,2.2,7.9c1.2-0.1,2.4-0.4,3.7-0.5c0,1.2,0,2.4-0.1,3.8c-0.4,5.3,7.7,5.2,8.1,0
		c0.1-1.6,0.1-3.3,0.1-4.9c2.3-0.3,4.6-0.7,6.9-0.9C733.4,318.2,731.2,310.3,726.1,311z" style="fill:var(--illu-yellow--main);"/>
	<path d="M746,111.4c-0.7-2.3-2.8-3.3-5-2.8c-0.9,0.1-1.9,0.4-2.8,0.5c-0.8-3.9-1.9-7.9-3.3-11.7
		c-1.6-4.9-9.5-2.8-7.9,2.2c1.2,3.5,2.3,7.2,3.1,10.8c-0.5,0.1-1.1,0.1-1.6,0.3c-2.2,0.4-3.4,3-2.8,5c0.7,2.3,2.8,3.3,5,2.8
		c0.3,0,0.7-0.1,0.9-0.1c0,0.4,0.1,0.8,0.1,1.2c0.7,5.2,8.8,5.2,8.1,0c-0.1-0.8-0.3-1.8-0.4-2.6c1.2-0.3,2.3-0.4,3.5-0.7
		C745.4,116,746.6,113.4,746,111.4z" style="fill:var(--illu-yellow--main);"/>
	<path d="M147.9,124.9c-1.5,0-3,0-4.5,0.1c-0.7-3.9-1.6-7.7-2.8-11.5c-1.6-5-9.5-2.8-7.9,2.2c1.1,3.5,2,7.1,2.6,10.6
		c-2,0.4-4.1,0.9-6.1,1.6c-5,1.6-2.8,9.5,2.2,7.9c1.6-0.5,3.3-0.9,4.9-1.4c0,0.8,0.1,1.8,0.1,2.6c0.1,5.3,8.3,5.3,8.1,0
		c0-1.2-0.1-2.6-0.1-3.8c1.2-0.1,2.3-0.1,3.5-0.1C153,133.1,153,124.9,147.9,124.9z" style="fill:var(--illu-yellow--main);"/>
	<path d="M75.9,353.1c-2,0.3-4.1,0.7-6.1,0.9c-0.7-3.5-1.5-7.1-2.6-10.4c-1.6-5-9.5-2.8-7.9,2.2
		c1.1,3.1,1.9,6.4,2.4,9.6c-1.5,0.3-3,0.4-4.5,0.7c-5.2,0.8-3,8.7,2.2,7.9c1.1-0.1,2.3-0.4,3.4-0.5c0.1,1.2,0.1,2.4,0.3,3.7
		c0.1,5.2,8.3,5.3,8.1,0c0-1.6-0.1-3.3-0.3-4.9c2.4-0.4,4.7-0.8,7.2-1.1C83.2,360.2,81,352.3,75.9,353.1z" style="fill:var(--illu-yellow--main);"/>
	<path d="M106.9,230.2c-2.4,0.4-5,0.8-7.5,0.9c-0.7-2.7-1.6-5.3-2.8-7.9c-2.2-4.7-9.2-0.7-7.1,4.1
		c0.5,1.4,1.1,2.7,1.5,4.1c-1.8,0-3.7-0.1-5.4-0.3c-5.2-0.4-5.2,7.7,0,8.1c2.3,0.1,4.7,0.3,7.1,0.3c0.1,1.1,0.1,2.2,0.1,3.3
		c0,5.3,8.1,5.3,8.1,0c0-1.2,0-2.4-0.1-3.7c2.7-0.3,5.6-0.7,8.3-1.2C114.3,236.9,112.1,229.2,106.9,230.2z" style="fill:var(--illu-yellow--main);"/>
	<path d="M215,64.6c-5.3,0-5.3,8.1,0,8.1C220.2,72.7,220.2,64.6,215,64.6z" style="fill:var(--illu-white--light);"/>
	<path d="M103.1,162.8c-5.3,0-5.3,8.1,0,8.1C108.3,170.9,108.3,162.8,103.1,162.8z" style="fill:var(--illu-white--light);"/>
	<path d="M50.8,285.9c-5.3,0-5.3,8.1,0,8.1S56.1,285.9,50.8,285.9z" style="fill:var(--illu-white--light);"/>
	<path d="M124.2,385.3h-1.2c-2.2,0-4.2,1.9-4.1,4.1c0.1,2.2,1.8,4.1,4.1,4.1h1.2c2.2,0,4.2-1.9,4.1-4.1
		C128.2,387.2,126.5,385.3,124.2,385.3z" style="fill:var(--illu-white--light);"/>
	<path d="M47.1,409c-5.3,0-5.3,8.1,0,8.1S52.4,409,47.1,409z" style="fill:var(--illu-white--light);"/>
	<path d="M104.4,287.1c-5.3,0-5.3,8.1,0,8.1C109.5,295.2,109.5,287.1,104.4,287.1z" style="fill:var(--illu-white--light);"/>
	<path d="M703.5,206.3c-5.3,0-5.3,8.1,0,8.1S708.7,206.3,703.5,206.3z" style="fill:var(--illu-white--light);"/>
	<path d="M681.5,353c-1.6-1.5-4.2-1.6-5.7,0c-0.4,0.4-0.8,0.8-1.2,1.2c-1.5,1.5-1.6,4.2,0,5.7c1.6,1.5,4.2,1.6,5.7,0
		c0.4-0.4,0.8-0.8,1.2-1.2C683,357.2,683.1,354.5,681.5,353z" style="fill:var(--illu-white--light);"/>
	<path d="M763.3,164.1H762c-2.2,0-4.2,1.9-4.1,4.1s1.8,4.1,4.1,4.1h1.2c2.2,0,4.2-1.9,4.1-4.1
		C767.2,165.9,765.4,164.1,763.3,164.1z" style="fill:var(--illu-white--light);"/>
	<path d="M750.8,259.7c-5.3,0-5.3,8.1,0,8.1C755.9,267.8,756.1,259.7,750.8,259.7z" style="fill:var(--illu-white--light);"/>
	<path d="M653.8,52.1c-5.3,0-5.3,8.1,0,8.1C659,60.2,659,52.1,653.8,52.1z" style="fill:var(--illu-white--light);"/>
	<path d="M686.1,121.8c-5.3,0-5.3,8.1,0,8.1C691.4,129.9,691.4,121.8,686.1,121.8z" style="fill:var(--illu-white--light);"/>
	<path d="M704.7,473.7c-2.4-0.4-5-0.9-7.5-1.4c-2.2-0.4-4.3,0.5-5,2.8c-0.5,2,0.7,4.6,2.8,5c2.4,0.4,5,0.9,7.5,1.4
		c2.2,0.4,4.3-0.5,5-2.8C707.9,476.7,706.8,474.1,704.7,473.7z" style="fill:var(--illu-bg--light);"/>
	<path d="M93.2,464.1c-0.5-2-3-3.7-5-2.8c-3.7,1.4-7.5,2.3-11.3,2.4c-5.2,0.3-5.3,8.4,0,8.1c4.6-0.3,9.1-1.1,13.4-2.8
		C92.6,468.3,93.9,466.4,93.2,464.1z" style="fill:var(--illu-bg--light);"/>
	<path d="M258.7,532.5c-0.7-2.3-2.8-3.1-5-2.8c-2.8,0.4-5.8,0.9-8.7,1.4c-2.2,0.4-3.4,3.1-2.8,5c0.7,2.3,2.8,3.1,5,2.8
		c2.8-0.4,5.8-0.9,8.7-1.4C258,537.2,259.2,534.4,258.7,532.5z" style="fill:var(--illu-bg--light);"/>
</g>
</svg>
