<?xml version="1.0" encoding="utf-8"?>
<!-- Generator: Adobe Illustrator 23.0.2, SVG Export Plug-In . SVG Version: 6.00 Build 0)  -->
<svg version="1.1" id="Capa_1" xmlns="http://www.w3.org/2000/svg" xmlns:xlink="http://www.w3.org/1999/xlink" x="0px" y="0px" viewBox="0 0 800 612" style="enable-background:new 0 0 800 612;" xml:space="preserve">

<g>
	<g>
		<path d="M259.5,258.2c-0.8-12-3.4-23.6-7.6-34.9c-3-7.9-7.2-22.4-16.9-23.6c-3-0.4-4.5,3-4.1,5.3
			c4.8,30,16.7,76.5-10.8,98.6c2.1-4.4,3-9.6,3.1-14.3c0.1-9.3,0.4-24.9-10.4-26.3c-0.6-1.4-1.8-2.4-3.7-2.4
			c-12.9,0.3-18.7,16.2-19.8,27.2c-0.4,3.7,0.1,7.5,1.3,11c-6-8.7-9-19.7-9-30.4c-0.1-21.7,10-41.8,19.4-60.6c1.7-3.4-1.1-7-4.8-6.2
			c-25,5.2-34.7,38-37.6,59.8c-2.8,21.9-1.1,52.3,18.4,67c4.4,3.2,6.5,5.1,7.6,11c0.7,3.5,0.7,7.5,1.1,11.1
			c0.8,8.3,1.5,16.6,2.3,24.9c1.4,16.6,2.7,33.2,3.8,49.8c2.3,32.8,3.8,65.6,4.8,98.5c0.6,18.6,0.7,37,1,55.6c0.1,5.6,1,10,6.5,12.2
			c6.9,3,16.5,2.7,23.8,2.5c3.4,0,5.9-4.8,3-7.2c-2.1-1.7-4.4-3.5-6.5-5.2c6-3,12.2-4.9,19-6.2c4.2-0.8,3.8-7.2,0-8.2
			c-12.9-3.5-6.5-20-4.9-29.3c1.7-10.4,3.2-20.8,4.5-31.2c2.8-21.9,4.8-44,6.6-66.1c3.1-37.6,9-78.2-4.2-114.5
			C256.4,304.9,261.3,281.4,259.5,258.2z" style="fill:#C39A8A;"/>
		<path d="M262.9,455.4c-4.1-14.5-7.6-29.1-10.6-43.9c-0.4-2.1-3.1-3.7-5.2-3c-8.3,2.8-16.9,3.8-25.7,3.9
			c-7.5,0.1-15.3-1.3-22.6-0.1c-5.2,0.7-7.6,3.8-8.9,8.6c-2.1,8.6-3.2,17.6-4.8,26.2c-0.1,0.7-0.1,1.4,0,2
			c-1.8,10.8-3.5,21.5-5.1,32.4c-0.3,2.3,0.6,4.6,3,5.2c13.6,3.4,27.7,5.3,41.8,5.2c12.2,0,28.1,0,38.8-7
			C273.8,478.1,265.5,464.7,262.9,455.4z" style="fill:#74A3D7;"/>
		<path d="M264.5,286.1c1.8-11.3,1-22.6-2.1-33.8c-0.4-1.3-1.5-2.8-3-3c-6-0.8-11.5-2.4-17-5.1c-3.1-1.5-6,0.4-6.3,3.7
			c-2.1,19.3-0.3,54.6-26,59.1c-27.9,4.9-23.4-39.8-21.7-55.6c0.3-2.4-2.1-4.1-4.2-4.2c-8.3-0.4-21-3.8-25.2,5.8
			c-4.5,10-5.5,24.1-5.1,34.7c0.6,19.7,8.6,39,25,50.2c0.4,23.5,1.7,47,4.1,70.5c0.3,3.2,0.4,6.9,3,9.1c2.8,2.7,7.7,2.4,11.4,2.8
			c11.5,1,23.1,1,34.6-0.1c5.2-0.6,10.4-1.3,15.6-2.3c3.5-0.7,8.2-1,11.1-3.4c2.8-2.4,2.8-5.6,2.7-9c-0.4-5.9-1.1-11.7-1.7-17.6
			c-1.3-11.7-3-23.2-4.8-34.7c-2-11.8-4.9-23.2-1.3-34.9C256.9,307.5,262.6,297.6,264.5,286.1z" style="fill:#F7D16F;"/>
		<path d="M248.1,570.7c-2.7-4.1-6.9-7.2-10.4-10.6c-1.5-1.5-4.4-1.7-5.9,0c-8.7,9.7-16.5,15.9-30.1,15.6
			c-2,0-3.4,1.4-4.1,3.1c-0.7,1.7-1.1,3.4-1,5.2c-0.7,1.7-0.3,3.8,1.7,5.1c8.6,5.1,22.6,11.3,32.8,8.4c7.5-2.1,3.9-9.3,0-14.8
			c3.1-0.8,6.3-1.8,9.4-2.8c3.4-1,5.9-1.7,7.5-4.9C248.8,573.6,248.9,571.9,248.1,570.7z" style="fill:#F087B1;"/>
		<g>
			<path d="M269.2,203.5c-2.3-13.2-4.9-26.4-8-39.7c-3-13.1-5.8-26.4-10-39.1c-3.8-11.7-12.7-9-22.8-6.8
				c-27.9,6-55.8,12.2-83.7,18.3c-2.3,0.4-3.5,3.1-3,5.2c7.5,28.4,11.8,57.5,13.1,86.9c0.1,4.4,5.8,5.2,7.7,2.4c0.1,0,0.3,0,0.4,0
				c28.7-4.1,57.4-8.2,86-12.2c5.3-0.8,14.1-0.3,18.3-4.1C270.9,211.4,269.9,207.4,269.2,203.5z" style="fill:#B6C8E8;"/>
			<g>
				<path d="M226.1,135.5c-14.3,7.6-27.2,18.6-28.1,35.7c0,0.6,0,1.1,0.1,1.5l0,0c-2,3.7,2.1,7.9,5.8,5.8
					c7-3.9,13.8-8.6,18.6-15.2c5.1-6.9,7.5-15.2,9.8-23.2C233.5,136.7,229.4,133.9,226.1,135.5z" style="fill:#74A3D7;"/>
				<path d="M233.6,176.3c-1.7-13.1-17.6-17-29.1-14.8c-6-4.5-14.3-8-21.8-4.9c-6.8,2.8-6.9,9.1-7.7,15.5
					c-0.8,6.5-7.2,12.7-0.3,18.3c3.2,2.7,7.9,3.4,11.8,4.4c5.2,1.3,10.4,2.5,15.6,3.8c7.9,2,15.3,4.8,21.4-2.1
					C227.4,191.8,234.4,183.1,233.6,176.3z" style="fill:#F087B1;"/>
				<path d="M206.4,169.4c-5.3,0.4-5.5,8.9,0,8.4c2.4-0.1,5.5-0.1,7.6,1.4c1.5,1.3,0.8,0.8-1.4,1.7
					c-3.5,1.1-8.6,1.8-12.4,1.3c-2.8-0.4-5.1-2-6.8-4.2c-1.8-2.5-2-3.9-0.1-6.3c2.8-3.8,8.4-4.4,12.9-5.2c5.3-1,3.1-9.1-2.3-8.2
					c-8.4,1.7-22.1,3.7-21.1,14.9c0.8,8.9,7,17.3,16.2,17.4c7,0.1,21.9,0.1,24.9-8.3C227.1,173.4,212.9,169,206.4,169.4z" style="fill:#57455E;"/>
				<path d="M224,137.9c-3.2,5.8-7.2,11-11.7,15.8c-3.8,3.9,2.3,10,5.9,5.9c5.1-5.3,9.4-11.1,12.9-17.4
					C234,137.5,226.7,133.2,224,137.9z" style="fill:#57455E;"/>
			</g>
		</g>
		<path d="M212.8,256.8c-10.8-4.5-21,3.2-23.9,13.6c-1.8,6.3,1.1,15.1-2,20.5c-3.2,5.8-7.5,10.7-10.1,17
			c-3.9,9.7-9.6,26.6-1.5,35.6c2,2.1,5.2,1.3,6.6-0.8c9.3-13.5,13.8-29.4,12.9-45.7c1.7-0.4,3.2-1.1,4.6-1.8c-0.3,2.3,1,4.9,4.1,4.9
			c4.9,0,5.3-7,1.3-8.3c2.7-2.3,4.9-4.9,6.5-8c3.5,2.7,7.7,3.9,12.5,3.8c2,0,3.5-1.3,4.1-3.1C231.5,273.8,222.8,261,212.8,256.8z" style="fill:#57455E;"/>
		<path d="M221.6,288.2c-5.5,0-5.5,8.4,0,8.4C227.1,296.6,227.1,288.2,221.6,288.2z" style="fill:#57455E;"/>
		<path d="M222.5,299.4c-1.3-2.1-3.7-2.5-5.8-1.5c-0.1,0-0.6,0.3-0.7,0.3c-0.4,0.1-0.7,0.3-1.1,0.4
			c-0.4,0.1-0.7,0.1-1.1,0.3c-0.1,0-0.3,0-0.6,0.1c0,0,0,0-0.1,0c-2.3,0.3-4.4,1.8-4.2,4.2c0.1,2.1,1.8,4.5,4.2,4.2
			c2.8-0.3,5.2-1,7.7-2.1C223,304.2,223.7,301.3,222.5,299.4z" style="fill:#57455E;"/>
		<path d="M236.8,580.8c-13.2-6.5-9.1-27.3-9.1-39.4c0-14.6-0.1-29.3-0.1-43.9c0-5.5-8.4-5.5-8.4,0l0.1,54.9
			c0,13.4-0.7,28.8,13.2,35.6C237.4,590.5,241.8,583.2,236.8,580.8z" style="fill:#57455E;"/>
		<path d="M198.8,444.9c-2.1,12.5-4.2,24.9-6.3,37.4c-0.8,5.3,7.2,7.6,8.2,2.3c2.1-12.5,4.2-24.9,6.3-37.4
			C208,441.8,199.8,439.5,198.8,444.9z" style="fill:#57455E;"/>
		<path d="M232.2,487c-2.3-12.4-3.9-24.8-4.8-37.3c-0.4-5.3-8.9-5.5-8.4,0c0.8,13.2,2.5,26.4,5.1,39.5
			C225,494.6,233.2,492.3,232.2,487z" style="fill:#57455E;"/>
		<path d="M254.1,481.5c-2.3-11.7-4.5-23.2-6.8-34.9c-1-5.3-9.1-3.1-8.2,2.3c2.3,11.7,4.5,23.2,6.8,34.9
			C247,489.1,255.1,486.8,254.1,481.5z" style="fill:#57455E;"/>
	</g>
	<g>
		<g>
			<path d="M124.3,223c-2.3-12.1-5.6-23.8-7.6-36c-3.8-24.1-4.6-48.5-3.1-72.7c0.3-3.9-4.2-5.1-6.8-3.1
				c-0.3-5.2-8.6-5.2-8.4,0.3c0.6,24.5,2.3,49,5.2,73.3c1.4,11.7,3.2,23.2,5.2,34.7c1,5.5,1.4,20.5,10.4,20.1
				C127.7,239.4,125.3,228.1,124.3,223z" style="fill:#C39A8A;"/>
			<g>
				<path d="M155,13.3C130.6,5.6,105.7-2,79.8,0.5c-3.8,0.4-4.9,4.9-3.2,7.2C72,32,68.2,56.3,65.1,81
					c-0.8,7.3-6,21.8,3.4,25.3c4.5,1.7,10.4,1.5,15.2,2.1c6.3,0.7,12.5,1.4,18.9,2c12.1,1.1,24.2,2,36.4,2.5
					c3.5,0.1,8.2,1.1,10.6-2.1c2.5-3.5,1.8-11,2.1-14.9l6.5-78.4C158.2,15.5,156.6,13.9,155,13.3z" style="fill:#B6C8E8;"/>
				<path d="M124.9,40.7c-2.4,2-4.5,4.2-6.5,6.5c0-3.2,0-6.3,0-9.6c0-4.9-6.8-5.5-8.3-1.1c-0.4,1.1-0.7,2.3-1.1,3.4
					c-0.6-3.4-1.4-6.6-2.8-9.4c-2.1-4.1-7.5-1.7-7.9,2.1c-0.7,6.8-1.4,13.6-2.1,20.4c-2-3.2-3.8-6.5-5.8-9.7c-2-3.4-8.4-2.3-7.9,2.1
					c1.7,14.8,12.7,25.5,10.1,41.1c-0.6,3.2,2.3,5.3,4.8,5.3c0.1,0.1,0.3,0.1,0.4,0.3c5.1,2,10.6,2.5,15.8,1
					c6.2-1.8,5.5-6.6,6.8-12.2c3-12.5,10.4-24.2,11.7-37C132.4,39.7,127.2,38.6,124.9,40.7z" style="fill:#F7D3BD;"/>
				<path d="M90,43.3c-0.1-0.1-0.3-0.3-0.4-0.4c-0.4-1.4-1.4-2.5-2.8-2.8c-2.3-0.6-4.6,0.7-5.2,3
					c-0.3,1.4-0.3,2.8,0.6,4.1c0.7,1.3,1.8,2,3.1,2.5c1,0.4,2.4,0.1,3.2-0.4s1.7-1.5,2-2.5C90.7,45.5,90.7,44.2,90,43.3z" style="fill:#F087B1;"/>
				<path d="M103.2,26.5c-2.3,0.1-4.2,1.8-4.2,4.2v1.4c0,2.3,2,4.4,4.2,4.2s4.2-1.8,4.2-4.2v-1.4
					C107.4,28.5,105.6,26.4,103.2,26.5z" style="fill:#F087B1;"/>
				<path d="M117.4,32c-2.1-1.1-4.5-0.4-5.8,1.5c-0.4,0.7-1,1.4-1.4,2.1c-1.3,1.8-0.4,4.8,1.5,5.8
					c2.1,1.1,4.5,0.4,5.8-1.5c0.4-0.7,1-1.4,1.4-2.1C120.1,35.9,119.2,33,117.4,32z" style="fill:#F087B1;"/>
				<path d="M133,37.6c-1.7-1.5-4.4-1.7-5.9,0c-0.4,0.4-1,1-1.4,1.4c-1.5,1.5-1.7,4.4,0,5.9c1.7,1.5,4.4,1.7,5.9,0
					c0.4-0.4,1-1,1.4-1.4C134.7,42.1,134.7,39.2,133,37.6z" style="fill:#F087B1;"/>
			</g>
		</g>
		<path d="M137.1,589.4c-8.4-8.3-10.8-19.7-11.5-31.1c-0.8-13.2-0.4-26.4-0.4-39.7c-0.1-27.2-0.3-54.3-1.4-81.5
			c-2.1-53.2-8-106.2-23.8-157.1c15.2-18,26.3-39.2,32.2-62c5.8-22.5,9.1-50.5-0.8-72.3c-1.4-3.1-5.3-3-7.3-0.6
			c-5.6,6.6-5.3,15.2-5.9,23.5c-0.8,11-2.1,21.9-4.8,32.6c-3.8,15.3-11.4,27.9-22.4,38.4c0.6-1.4,1-3,1.3-4.4c1.4-8,1-19.7-6.2-24.3
			c0-1.5-0.7-3.1-2.8-3.5c-13.2-3.4-20.1,8.3-22.8,19.6c-2,8.6-2.4,20.5,6.2,24.9v0.1c-0.3,1-0.7,2.1-1,3.1
			c-18.3-8.9-12.4-38-5.3-52.6c9.8-20.7,27.4-36.9,44.2-52.1c1.5-1.4,1.7-3.2,1-5.1c-6.3-17-25.5-0.7-32.5,6
			c-11.7,11.3-21.5,24.3-29.4,38.4c-17.2,30.9-25.2,65.7-28,100.9c-3.2,39.4-1,79.2,1.7,118.6c2.8,40,7.5,79.6,13.8,119.2
			c3.5,21.8,6.6,44.3,12.4,65.7c4.8,17.4,29.4,13.6,42.2,8.2c3.9-1.7,2.5-7.7-1.5-8C67.9,593.4,69,573.2,70,561.8
			c1.3-14.3,2.4-28.7,3.4-43c1.1-16.3,1.8-32.5,2.5-48.8c4.6,24.8,9.4,49.5,14.1,74.3c1.7,9,3.4,18.1,5.2,27.2
			c1.3,6.8,1.7,15.1,5.9,20.8c7.7,10.8,22.9,8,33.8,4.5C137.5,595.4,139.6,591.9,137.1,589.4z" style="fill:#F7D3BD;"/>
		<path d="M124.4,381.3c-0.3-2.1-1.7-4.5-4.2-4.2c-33.8,3.8-67.7,5.9-101.7,6c-1,0-1.8,0.3-2.4,0.7
			c-2.3-0.1-4.5,1.1-4.2,4.1c2.4,40.4,6.6,80.6,12.7,120.6c3.1,20,6.5,40,10.6,59.8c1.7,8.2,3.9,10.8,12.5,12.1
			c9.7,1.5,19.6,1.8,29.4,1c2.3-0.1,4.2-1.8,4.2-4.2c-0.4-19.4-0.8-38.7-1.3-58.1c1.7,7.3,3.4,14.8,5.3,22.1
			c2.7,10.3,4.6,21.5,8.9,31.2c3.1,7,8.7,9,16,7.5c6.6-1.4,15.6-2.3,16.5-10.4c0.6-5.1-0.6-10.8-0.8-16c-0.3-6.3-0.4-12.8-0.6-19.1
			c-0.1-23.8,1-47.5,1.5-71.2C127.7,435.8,127.7,408.5,124.4,381.3z" style="fill:#F087B1;"/>
		<path d="M115.6,333.5c-2-10-3.8-20-5.8-30c-1-5.3-3.1-11.7-2.8-17.2c0.3-4.9,3.9-9.1,6.5-13.2
			c18.7-29.7,29.4-63.9,31.8-98.9c0.1-1.7-1.4-3.8-3.1-4.1c-7-1.3-14.1-2.5-21.1-3.8c-2-0.4-4.8,0.6-5.2,3
			c-2.4,16.3-4.9,33.1-11.4,48.4c-6.3,15.1-20.8,35.6-39.7,33.8c-3.1-0.3-5.6-1.1-7.7-2.4c-6.5-22.9,4.2-45.3,20-61.9
			c3.5-3.7,7.3-7.2,11.1-10.6c2.5-2.3,5.2-4.5,5.6-8c0.1-0.6,0.1-1.1,0-1.7c0.4-1.5,0.1-3.2-1-4.5c-0.3-0.3-0.4-0.4-0.7-0.7
			c-2.4-4.2-6.9-8.2-10.7-11.1c-0.4-0.6-1-1-1.4-1.5c-0.7-0.7-1.5-1.1-2.3-1.3c-1.1-0.6-2.8-0.4-3.8,0.3
			c-42.2,27-61.2,75.5-68.2,123.4c-3.9,27-5.3,54.4-4.6,81.7c0.4,13.8,0.7,28.3,3.1,41.9c1.8,11,12.2,9.6,21.1,9.7
			c32.5,0.4,65.1-1.5,97.3-5.9c2.8-0.4,4.6-2.4,4.1-5.3C123.3,373.4,119.5,353.5,115.6,333.5z" style="fill:#56597A;"/>
		<path d="M72.4,292.1c-2-1.4-4.5-0.1-5.8,1.5c-1.8,2.5-3.2,5.1-4.5,7.7c-2.4-3.7-5.9-6.2-10.1-7.6
			c-2.8-1-5.2,1.5-5.3,4.1c-0.4,7.3,2,13.9,5.6,20.1c2.5,4.1,6.9,12.8,12.5,12.4c1.4-0.1,3-0.7,3.7-2.1c3.2-6.8,4.6-15.3,6.8-22.6
			C76.5,300.4,77.3,295.6,72.4,292.1z" style="fill:#FFFFFF;"/>
		<path d="M89,591.5c-5.1-2.7-11-6.8-16.6-7.6c-6.6-1-14.1,0.4-20.8,0.8c-3.9,0.3-9.4,0.3-10.3,5.1
			c-0.8,0.8-1.3,2.3-0.8,3.8c1.7,5.2,4.1,12,8.3,15.8c4.1,3.5,9.8,2.7,14.8,2.3c7.3-0.7,14.5-2,21.5-3.8c4.1-1.1,9.3-2.5,10.4-7.2
			C96.7,595.8,92.5,593.3,89,591.5z" style="fill:#F7D16F;"/>
		<path d="M133.4,580.2c-9.6-5.5-22.6-3.7-33.2-3.8c-2.3,0-3.5,1.3-3.9,3c-1.4,0.8-2.3,2.4-1.7,4.5
			c2.7,8.4,8.3,15.9,17.4,17.7c5.5,1,11.1-0.4,16.5-1.4c4.2-0.8,10.1-0.7,13.5-3.4C149.3,590.8,138.1,582.9,133.4,580.2z" style="fill:#F7D16F;"/>
		<path d="M95.2,221.2c0.6-11.4-11.5-20.1-22.4-20c-0.4-4.1-2-7.9-5.8-10.7c-4.8-3.4-11.1-3.2-15.3,0.7
			c-7.5,6.8-4.2,16.2,2.5,20.5c-6.8,8.7-12.2,18.1-15.8,28.7c-3.1,9.3-0.6,15.2,8.3,19.4c15.9,7.5,23.9-6.8,28-21.1
			c0.7,0.8,1.8,1.3,3,1.3c2.3-0.1,4.2-1.8,4.2-4.2v-0.4c0-0.7-0.3-1.4-0.6-2.1C88.4,233.5,94.7,229.8,95.2,221.2z" style="fill:#57455E;"/>
		<path d="M92.9,231.2c-5.5,0-5.5,8.4,0,8.4C98.4,239.6,98.4,231.2,92.9,231.2z" style="fill:#57455E;"/>
		<path d="M84.5,241.1h-6c-2.3,0-4.4,2-4.2,4.2c0.1,2.3,1.8,4.2,4.2,4.2h6c2.3,0,4.4-2,4.2-4.2
			C88.6,242.9,86.9,241.1,84.5,241.1z" style="fill:#57455E;"/>
		<path d="M88.4,433.8c0.1-5.5-8.3-5.5-8.4,0c-0.6,33.5,0.3,67,2.4,100.3c0.3,5.3,8.9,5.5,8.4,0
			C88.6,500.6,87.9,467.3,88.4,433.8z" style="fill:#57455E;"/>
		<path d="M79.3,582.9c-1.1-1.8-3.8-2.8-5.8-1.5c-1,0.7-2.1,1.4-3.1,2.3c-1,0.7-1.7,1.4-2,2.5c-0.3,1-0.1,2.4,0.4,3.2
			c1.1,1.8,3.8,2.8,5.8,1.5c1-0.7,2.1-1.4,3.1-2.3c1-0.7,1.7-1.4,2-2.5C80,585.1,79.8,583.9,79.3,582.9z" style="fill:#57455E;"/>
		<path d="M87.2,588.5c-1.7-1.5-4.4-1.7-5.9,0l-1.1,1.1c-1.5,1.5-1.7,4.4,0,5.9c1.7,1.5,4.4,1.7,5.9,0l1.1-1.1
			C88.7,592.9,88.8,590.1,87.2,588.5z" style="fill:#57455E;"/>
		<path d="M129.1,574.6c-0.7-1-1.4-1.5-2.5-2c-1.4-0.6-3.2-0.3-4.5,0.4c-1.4,0.8-2.3,2-2.8,3.5c-0.7,2.1,0.8,4.6,3,5.2
			c1.4,0.3,2.8,0,3.8-0.8c0.6-0.1,1.1-0.3,1.5-0.6c0.8-0.6,1.7-1.5,2-2.5C129.8,576.8,129.8,575.6,129.1,574.6z" style="fill:#57455E;"/>
		<path d="M139.8,580.8c-1.4-2.1-3.7-2.5-5.8-1.5c-1.4,0.7-2.8,1.3-4.4,2c-2,0.8-2.7,3.9-1.5,5.8
			c1.4,2.1,3.7,2.5,5.8,1.5l4.4-2C140.2,585.7,140.9,582.6,139.8,580.8z" style="fill:#57455E;"/>
	</g>
	<g>
		<path d="M442.1,177.3c-1.4-1.7-4.2-1.4-5.8,0c-17.3,16.3-30.7,36.7-53,46.7c-20.4,9.1-43.8,9.7-64.7,2.1
			c0.3-0.6,0.4-1.1,0.7-1.7c0.1-0.6,0.3-1.1,0.1-1.7c4.5-3.5,7-10,8-16c1.7-10.3,1.7-23.1-9.1-27.6c-0.4-1.5-1.7-2.8-3.7-2.8
			c-22.8-0.7-29.1,37-12,46.8v0.1v4.5c0,0.1,0,0.3,0,0.4c-21.9,4.9-28.1,38-31.1,56.4c-2.8,18-8.6,56.1,16.9,60.4
			c-1,40.2-1.8,80.5-2.8,120.7c-0.4,20.1-0.7,40.2-1.4,60.2c-0.6,14.9-2.1,32.8-15.1,42.6c-3.4,2.7-1.7,8.7,3.1,7.3
			c8.3-2.3,16.7-4.1,24.9-6.8c5.6-1.8,10-4.9,12-10.7c2.5-7.6,2.4-16.6,3.2-24.6c1-9.1,2-18.4,3-27.6c2.8-26.6,5.6-53.2,8.3-79.8
			c8,48.4,17,96.5,27,144.6c0.4,1.8,2.3,2.8,3.9,3c9.1,1.1,18.3,2.3,27.3,3.4c3,0.4,5.2-3.8,3.5-6c-13.2-17.6-16-39.4-16.6-60.8
			c-0.6-23.6,0.1-47.1-0.7-70.8c-1.7-49.5-6.8-99-14.6-148c2.1-5.1,3.7-10.3,4.8-15.8c24.5-6.2,44.2-22.8,59.6-42.1
			c8.2-10,15.8-20.7,22.6-31.7C445.3,194.6,448.8,184.9,442.1,177.3z" style="fill:#F7D3BD;"/>
		<path d="M377.9,471.2c-1.7-10-3.8-20-5.3-30c-3.2-20.5-5.8-41.2-7.5-62c-0.1-2.4-1.8-3.9-4.2-4.2
			c-13.5-1.4-27-2.7-40.5-4.1c-9.8-1-20.5-3.7-29,3c-0.6,0.4-1,1-1.1,1.4c-1.7,0-3.1,0.8-3.5,3.1c-5.2,35.7-8,71.6-8.4,107.6
			c0,2.5,2,3.9,4.2,4.2c8.9,1.1,17.7,1.4,26.6,0.6c5.8-0.6,11.3-1,13.9-6.8c3.1-6.6,3.1-16.3,4.1-23.5c0.1-0.7,0.1-1.4,0.3-2
			l0.7,3.5c1,4.9,2,9.8,3.1,14.6c0.7,3.7,1,8.3,2.7,11.7c3.1,5.8,9.1,3.4,14.5,2.4c4.6-1,9.4-2,14.1-3c3.7-0.7,8-1,11.3-2.8
			C378.8,482,378.8,476.5,377.9,471.2z" style="fill:#56597A;"/>
		<path d="M313.1,506.9c-8.4-1.7-16.5-1.7-24.9-0.1c-0.3,0-0.6,0.1-0.8,0.3c-2.3-0.3-4.6,1.1-4.6,4.1
			c0,11.1-0.4,22.5-2.4,33.3c-1.7,9.6-11,17.7-17,25.2c-2.1,2.5-1.3,5.9,1.8,7c8.4,3.1,16.6,0.3,24.6-2.5c5.9-2,15.9-3.4,19.8-8.7
			c3.9-5.5,3.5-15.9,4.4-22.4c1.3-10.7,1.8-21.2,2.1-31.9C316.2,509.3,314.9,507.4,313.1,506.9z" style="fill:#C39A8A;"/>
		<path d="M392,572.1c-7.5-8.4-14.1-16.9-16.2-28.3c-2.1-11.1-3.2-22.6-4.8-33.9c-0.3-1.8-2.4-3-4.1-3.1
			c-8-0.6-16-0.4-24.1,0.3c-3,0.3-4.2,2.8-3.9,5.1c-0.3,0.7-0.4,1.5-0.3,2.4c1.4,10.1,3.1,20.3,5.1,30.2c1.5,8,2.4,18.3,6.5,25.6
			c3.5,6.3,10.3,6.9,16.7,7.9c8,1.3,16.7,4.2,24.5,0.4C393.7,577.4,393.5,573.9,392,572.1z" style="fill:#C39A8A;"/>
		<path d="M379.1,252.4c-0.6-6.9-1.3-13.9-1.8-20.8c-0.3-2.4-2.5-5.2-5.3-4.1c-7.3,2.8-14.8,3.9-22.5,2.3
			c-6.2-1.3-11.7-4.5-18-5.5c-6.9-1-10.1,2.1-16.3,4.4c-6.5,2.4-10.4-4.1-16.7-3.4c-9.8,1.1-15.6,14.1-19,21.9
			c-5.8,13.6-10.3,27.9-13.6,42.3c-0.8,3.4,2.1,5.5,4.8,5.2c0.6,0.3,1.1,0.6,1.8,0.6c3.2,0.3,12.4-0.3,14.2,2.1
			c1.1,1.5,1,5.6,1.4,7.6l1.7,9.6c0.4,2.5,4.1,3.9,6.2,2.5c14.5-9.7,23.8-24.1,32.6-38.7c4.4-7.3,8.6-15.8,14.6-21.8
			c2.8-3,10-8.6,13.6-3.7c3.2,4.4,1.1,15.1,0,19.6c-0.1,0.8-1.5,7.7-10.1,22.9c-0.1,0.1-30.9,48.1-59.2,49c-0.3,0-0.7,0-1,0
			c-0.1,0.3-0.1,0.4-0.3,0.8c-2.3,12.7-3.2,25.2-3,38c0,2.3,1.8,4.2,4.2,4.2c15.3,0.3,30.7,0.1,45.9-0.6c7.6-0.3,15.3-0.7,22.9-1.3
			c4.1-0.3,8.9-0.7,11.1-4.8c2.8-4.8,0.6-12.4,0.1-17.3c-0.7-7.7-1.5-15.5-2.4-23.2c-1.5-13.4-2.5-54.9-2.4-62.3
			c6.9,0,14.6-1.5,17-8.9C381.2,264,379.5,257.5,379.1,252.4z" style="fill:#74A3D7;"/>
		<path d="M330.1,194.8c-0.4-8.2-4.9-17.4-13.2-20.1c-22.9-7.2-28.7,24.6-32.4,39.8c-1.4,5.9-2.7,12-3.8,17.9
			c-0.7,4.1-2.5,9.4,0.8,12.8c2.5,2.7,7.6,1.8,10.8,1.8c4.5,0,11.5,1.4,15.3-1.7c2.8-2.3,2.4-5.2,2.3-8.6c-0.4-7.5-1-14.9-1.5-22.2
			c-0.1-2.8-0.3-5.6-0.6-8.3c0-0.3,0-0.6-0.1-0.7c0.6,0.4,1.3,0.6,2.1,0.6c-2.7,2.1-2,7.6,2.5,7.6c4.6,0,5.3-6,2.1-7.9
			C322.2,205.3,330.7,204.1,330.1,194.8z" style="fill:#57455E;"/>
		<path d="M287.1,272.7c-1.3,9.7-2.3,19.6-3.1,29.3c-0.4,5.3,8,5.3,8.4,0c0.8-9.8,1.8-19.6,3.1-29.3
			C296.2,267.4,287.8,267.4,287.1,272.7z" style="fill:#57455E;"/>
		<path d="M327.3,203.5c-5.5,0-5.5,8.4,0,8.4C332.6,211.9,332.8,203.5,327.3,203.5z" style="fill:#57455E;"/>
		<path d="M321.1,213.2h-3.2c-2.3,0-4.4,2-4.2,4.2s1.8,4.2,4.2,4.2h3.2c2.3,0,4.4-2,4.2-4.2S323.5,213.2,321.1,213.2z" style="fill:#57455E;"/>
		<path d="M322.4,415.2c-0.4,21.1-0.7,42.2-1.1,63.3c-0.1,5.5,8.3,5.5,8.4,0c0.4-21.1,0.7-42.2,1.1-63.3
			C330.8,409.7,322.4,409.7,322.4,415.2z" style="fill:#57455E;"/>
		<path d="M391,173.1c-7.5-0.1-10.7,8.4-13.2,13.9c-9.1,20.3-18,40.5-26.9,60.9c-1.1,2.7,5.6,10.8,6.3,11.4
			c1.7,1.7,4.4,2.1,6.6,1.3c3.1-1.1,4.4-4.2,5.8-6.9c2.4-4.8,4.6-9.6,6.9-14.5c4.4-9.1,8.4-18.6,12.4-27.9c3.5-8.3,8.9-17.7,10-26.7
			C399.6,179.3,397.2,173.2,391,173.1z" style="fill:#C39A8A;"/>
		<path d="M468.9,112.9c-0.3-0.7-0.8-1.4-1.7-2c-15.6-9.3-32.6-15.8-50.5-18.6c-19.1-3.1-38.5-0.4-57.5-3.5
			c-1.7-0.3-3.9,0.1-4.8,2c-5.3,12.4-10.1,25-14.3,37.8c-4.6,11.3-8.4,22.9-10.3,35.2c-0.1,0.4-0.3,0.7-0.3,1.1
			c-0.1,1.8-0.7,4.4,0.7,5.9c0.7,0.7,1.7,1.1,2.7,1.3c0.1,0,0.3,0.1,0.4,0.1c37.1,12.9,74.7,24.6,112.5,35c2.1,0.6,4.8-0.7,5.2-3
			c5.2-29.4,11.5-58.5,19.1-87.2C470.6,115.4,470.1,113.9,468.9,112.9z" style="fill:#B6C8E8;"/>
		<path d="M414.5,113.3c-0.4-0.3-0.7-0.6-1.1-0.7c-0.4-0.4-1.1-0.8-2-1c-14.6-3.1-30.1,3.9-35.3,18.6
			c-5.2,14.6,1.7,31.5,16.3,37.3c13.4,5.3,29.7-0.7,35.9-13.8C436.2,137.4,427,123.6,414.5,113.3z M383.6,135.4
			c2.3-9.8,11.1-15.9,20.7-16c-6.6,8.9-12.8,18-18.6,27.4c-0.6,0.1-1,0.4-1.4,0.7C382.9,143.6,382.6,139.5,383.6,135.4z
			 M422.2,145.8c-2.4,10.7-13.6,17.3-24.2,14.6c-3.2-0.8-6-2.4-8.4-4.6c0.3-0.3,0.4-0.6,0.7-0.8c6.8-11.3,14.1-22.1,21.9-32.5
			C419,128.7,424.6,135.8,422.2,145.8z" style="fill:#57455E;"/>
	</g>
	<g>
		<path d="M655.3,556c-3.1-26.7-6.2-53.3-9.4-80c-3-24.5-6.8-48.7-14.6-72c-7.3-21.8-17.6-42.5-30.1-61.8
			c4.1-11.4,4.2-24.1-0.8-35.5c-8-17.9-26.6-24.5-44.9-24.9v-0.7c0-0.4-0.1-0.8-0.3-1.3c9.4-7.3,12.9-23.6,12-34.3
			c-1-10.6-13.6-21-22.9-13.4c-8.7,3.4-13.1,16.5-14.9,25.5c-1.4,7.5,0.4,17,5.8,22.2c-12.7,0-21.2,12.8-28.3,23.2
			c-9.7,14.5-19.3,29-29,43.6c0.3-9.6,0.4-19.3,0.7-28.8c0.1-9.1,3.5-23.2-3.5-30.4c-1.7-1.8-5.5-1.7-6.6,0.8
			c-7,15.5-12.2,31.7-14.8,48.5c-1.8,12-4.9,28.4,5.8,37.4c10,8.3,25.3,5.2,35.9,0c12.9-6.5,22.9-17.6,32.6-28.1
			c3.1,7,5.3,14.3,6.9,21.9c-5.3,1.8-10.8,3.4-16.5,4.4c-8.3,1.4-16.3,2.3-24.2,5.8c-2,0.8-2.8,4.1-1.5,5.8
			c11.4,15.2,35,7.7,50.2,3.8c1-0.3,1.8-0.6,2.8-0.8c15.5,34.5,21,72.2,21.7,109.6c0.4,18.4-0.4,36.7-1.5,55.1
			c-0.4,7,1,23.4-5.3,27.4c-4.9,3.2-10.6,5.8-8.3,12.9c0.6,1.7,2.3,3.2,4.1,3.1c6.8-0.7,13.5-1.8,20.1-3.5
			c5.1-1.3,11.5-2.5,14.9-6.8c3.7-4.4,3.4-10.8,3.9-16.2c0.8-8.3,1.5-16.6,2.4-25c2.3-23.5,4.4-47,6.6-70.5
			c3.7,16.3,7.3,32.5,11.1,48.8c3.8,16.9,14.3,44.3-1.5,58.1c-2.7,2.3-0.6,7.6,3,7.2c10.8-1.1,24.1-2.4,33.8-7.9
			C658.9,574.3,656.3,564.2,655.3,556z" style="fill:#F7D3BD;"/>
		<path d="M576.6,217.3c-7.7-6.9-18.4,0-21.2,8.6c-3.4-1.4-6.9-1.5-10.4,0.1c-4.8,2.4-8,7.3-11,11.7
			c-2.4,3.7-5.1,7.2-6.2,11.1c-1.3,1.8-1.8,3.8-2,6c-0.1,1.1,0.4,2.3,1.3,3c0.8,1.7,2.5,3,4.8,2.5c5.2-1,10-2.7,14.6-5.2
			c3.7,7.2,10,16.3,17,15.3c9.4-1.3,7.9-22.4,6.3-28.8c4.6-1.5,8.6-4.1,10.4-9C582.2,227.4,580.8,221.2,576.6,217.3z" style="fill:#B6C8E8;"/>
		<path d="M661.4,463.9C653,421,633.5,380.6,606,346.7c10-20,5.6-44.6-12.2-58.5c-7.9-6.2-18-10.1-28.1-10.1
			c-4.9,0-9.6,1.1-13.5,4.2c-2,1.5-3.4,3.9-5.3,5.3c-3.4,2.5-9.7,1.7-8.3-4.1c0.7-3.2-2-5.9-5.2-5.2c-12.4,2.5-19,13.9-25.9,23.4
			c-8,10.8-16.7,20.8-26.3,30.2c-0.3-2.3-0.6-4.5-0.8-6.8c-0.3-2.8-2.4-4.6-5.3-4.1c-6.8,1.3-17.2,1.1-22.5,5.6
			c-4.5,3.8-4.6,11.7-5.3,17c-1.5,12.7,0.7,28,13.8,33.8c11.7,5.3,28.4,1.5,39.8-2.7c10.8-4.1,20.5-10.6,28.6-18.7
			c0.8,3.7,1.8,7.5,2.7,11.1c-4.9,1.1-9.8,2.1-14.8,3.2c-1.8,0.4-3.1,2.3-3.1,4.1c-0.1,5.9,0.6,11.7,1.8,17.4c0.6,2.4,3.1,3.4,5.2,3
			c7.2-1.4,14.3-2.1,21.5-2.5c2.1,34.9,5.3,69.8,9.7,104.5c0.3,2.5,1.7,3.9,4.2,4.2c23.8,2.8,48,3.1,71.5-2
			c9.7-2.1,23.2-4.6,31.1-11.1C666.6,482.3,662.9,471.8,661.4,463.9z" style="fill:#F7D16F;"/>
		<path d="M510,391c0.3-5.5-8.2-5.3-8.4,0c-3.7,66.7,12.1,132.4,14.1,198.9c0.1,5.5,8.6,5.5,8.4,0
			C522.1,523.4,506.4,457.7,510,391z" style="fill:#C39A8A;"/>
		<path d="M598.2,568.3c-3.4-10.8-21.4-6-30.1-3.8c-2.1-0.7-4.8-0.1-5.3,2.7c-1.8,7.6-5.9,11.7-11.4,16.7
			c-3,2.7-5.5,7.2-2.3,10.6c7.7,8.2,27.9-1.4,36.2-4.1c4.9-1.5,9.7-3,12-8C599.1,578.7,599.6,572.3,598.2,568.3z" style="fill:#56597A;"/>
		<path d="M659.1,556.3c-2.1-5.1-8.2-3.8-12.5-3.2c-7.5,1-14.8,2.7-21.8,4.9c-2-0.4-4.2,0.3-5.1,2.8
			c-2.1,7.2-5.8,12.2-10,18.3c-2.4,3.5-3.5,8.2,0.7,11c4.4,2.8,11,0,15.3-1.1c7.5-2.1,14.6-4.6,21.7-7.7c4.6-2,11.7-3.8,13.2-9.4
			C661.7,568,660.8,560,659.1,556.3z" style="fill:#56597A;"/>
		<path d="M510.9,293.9c-7.5-19-14.8-38.1-22.2-57.1c-0.8-2.1-2.8-3.7-5.2-3c-21.7,7.2-43.5,14.2-65.1,21.4
			c-3.8,1.3,2.8,44.9,8.9,62.7c0.8,2.4,2.8,3.4,5.2,3c13.1-2.1,26.3-4.4,39-8.4c12.4-4.1,23.6-11.3,36.6-13.2
			C510,298.9,511.6,295.9,510.9,293.9z" style="fill:#B6C8E8;"/>
		<path d="M477.8,286.4c-4.1-0.6-8-1.8-11.5-3.8c2.1-4.1,3.4-8.4,3.4-12.9c0-8.9-7.6-18.1-17.2-15.2
			c-10.8,3.2-8.7,14.6-4.1,22.2c1.8,3,3.9,5.6,6.5,7.9c-2.7,3.4-5.8,6.3-9.1,9c-4.2,3.4,1.7,9.3,5.9,5.9c3.5-2.7,7-6,10-9.8
			c4.2,2.5,9,4.2,13.9,4.9C480.9,295.4,483.2,287.2,477.8,286.4z M454.6,262.6c4.8-2,6.8,5.1,6.6,8.2c-0.1,2.3-1,4.4-1.8,6.3
			C455.6,273,449.5,264.7,454.6,262.6z" style="fill:#F087B1;"/>
		<path d="M532.4,261.6c-5.5,0-5.5,8.4,0,8.4S537.9,261.6,532.4,261.6z" style="fill:#57455E;"/>
		<path d="M548.9,265.7c-5.5,0-5.5,8.4,0,8.4S554.3,265.7,548.9,265.7z" style="fill:#57455E;"/>
		<path d="M542.9,274c-2.7-1-5.3-1.5-8.2-1.7c-2.3-0.1-4.2,2.1-4.2,4.2c0,2.4,2,4.1,4.2,4.2c1.8,0.1,3.9,0.6,6,1.4
			c2.1,0.8,4.6-0.8,5.2-3C546.5,276.8,545.1,274.8,542.9,274z" style="fill:#57455E;"/>
		<path d="M578,325.9c-6.9,20.8-26.2,31.7-46.3,36.9c1-0.8,1.4-2.3,1-3.9c-3.5-12.5-3.7-26-4.8-38.8
			c-0.4-5.3-8.9-5.5-8.4,0c1.1,13.6,1.4,27.9,5.1,41.1c0.4,1.5,1.4,2.4,2.7,2.8c-1.5,0.3-3,0.6-4.5,0.8c-5.3,1-3.1,9.1,2.3,8.2
			c26.2-4.8,52.3-17.9,61.2-44.7C587.8,322.9,579.7,320.7,578,325.9z" style="fill:#57455E;"/>
		<path d="M605.4,348.8c-5.6,11.4-15.5,19-26,25.7c-11.8,7.5-24.3,14.8-38.7,14.5c-5.5-0.1-5.5,8.3,0,8.4
			c15.9,0.4,29.8-7.5,42.9-15.6c11.7-7.3,22.8-16,29.1-28.7C615.1,348.1,607.8,343.9,605.4,348.8z" style="fill:#57455E;"/>
		<path d="M484,327.9c-2-0.6-4.9,0.7-5.2,3l-1.1,8.6c-0.3,2.3,0.6,4.5,3,5.2c2,0.6,4.9-0.7,5.2-3
			c0.4-2.8,0.7-5.8,1.1-8.6C487.2,330.7,486.4,328.4,484,327.9z" style="fill:#57455E;"/>
		<path d="M572.5,566c-2.7-0.4-5.2-1.1-7.6-2.3c-2.1-1-4.5-0.6-5.8,1.5c-1.1,1.8-0.6,4.8,1.5,5.8
			c3.1,1.4,6.3,2.5,9.7,3.1c2.3,0.4,4.5-0.6,5.2-3C576,569.3,574.7,566.4,572.5,566z" style="fill:#57455E;"/>
		<path d="M564.6,575.3c-2.8-1-5.8-1-8.7-0.6c-2.3,0.4-3.7,3.2-3,5.2c0.7,2.4,2.8,3.4,5.2,3c-0.6,0.1,0.7,0,0.7,0
			c0.4,0,0.8,0,1.3,0l0.8,0.1c0.4,0.1,0.8,0.3,1.4,0.4c2.1,0.7,4.6-0.8,5.2-3C568.1,578.1,566.9,576,564.6,575.3z" style="fill:#57455E;"/>
		<path d="M631.3,562.2c-2.5-1.5-5.6-2.3-8.6-2c-2.3,0.3-4.4,1.8-4.2,4.2c0.1,2.1,1.8,4.5,4.2,4.2c0.6,0,1.1,0,1.7,0
			c0.1,0,0.3,0,0.3,0s0.1,0,0.3,0.1c0.4,0.1,0.7,0.1,1.1,0.3c-0.1,0,0.8,0.4,1,0.6c1.8,1.1,4.8,0.4,5.8-1.5
			C634,565.9,633.4,563.5,631.3,562.2z" style="fill:#57455E;"/>
		<path d="M624.5,570.5c-2,0.6-3.5,0.6-5.3-0.6c-4.6-2.7-9,4.5-4.2,7.3c3.5,2.1,7.9,2.7,11.8,1.4
			C632,577,629.7,568.8,624.5,570.5z" style="fill:#57455E;"/>
	</g>
	<g>
		<path d="M793.4,562.4c-3.8-8.9-11.4-14.6-13.8-24.5c-2.5-10.6-2.1-22.1-2.7-32.9c-1.3-23.6-3.2-47.4-5.9-70.9
			c-4.8-42.2-11.7-84-20.7-125.5c0.4,0.4,1,0.7,1.4,1.1c7.9,6.2,31.1,24.1,37.4,7.2c2.7-7.2-0.4-15.9-2.1-22.9
			c-2.8-11-6-21.8-10-32.5c-6.5-17.6-13.8-38-27.6-51.2c-12.9-12.4-31.7-17-49-13.1c-0.1-1-0.3-2-0.7-3c5.2-4.2,8.2-11.1,9.4-17.4
			c2.4-12.1-3.5-38.7-21.2-32.8c-6.8,2.3-10.1,9.3-12.7,15.5c-3.4,8.3-6,17.7-2.3,26.4c2.1,4.8,5.9,8.9,10.7,10.6
			c0,0.3-0.1,0.6-0.1,1v1.7c-17.3,4.8-26.4,25-33.2,40c-9.4,20.7-17.4,43.9-19.3,66.7c-1.8,21.9,20.8,26.9,36.3,16.2
			c2.7-1.8,5.2-3.9,7.6-6.2c2.4,45.3,4.9,90.6,7.3,135.8c1.3,22.8,3.1,45.6,3.4,68.4c0.1,10.6,0.4,22.4-2.4,32.5
			c-2.3,8.3-11.1,12.2-13.5,20.7c-1,3.4,2.1,5.8,5.2,5.2c7.7-1.4,15.3-3.4,22.8-6.3c5.3-2.1,11.1-4.4,13.9-9.8
			c3.4-6.8,3.1-16.3,4.1-23.6c1.1-8.7,2.4-17.6,3.5-26.3c3.7-27,7.3-53.9,10.8-80.9l13.5,75.3c1.4,8.2,3,16.5,4.4,24.6
			c1.3,6.9,1.5,15.3,4.5,21.7c2.5,5.5,8.3,7.6,13.6,9.7c7.3,2.8,14.9,4.8,22.6,6.2C792.5,569.3,794.9,565.9,793.4,562.4z" style="fill:#C39A8A;"/>
		<path d="M775.3,420.7c-4.4-24.2-8.7-48.4-13.1-72.6c-0.4-2.3-3.1-3.5-5.2-3c-25.5,6.2-51.2,10-77.4,11.1
			c-1.7,0.1-2.8,0.8-3.4,2c-0.6,0.7-1,1.4-1,2.5c-2.1,23.9-3.2,48-3.2,72c0,2.3,2,4.4,4.2,4.2c32.2-1.8,64.3-5.6,96.2-11.1
			C774.8,425.5,775.8,422.8,775.3,420.7z" style="fill:#56597A;"/>
		<path d="M717.9,496.8c-9.8-0.1-19.7,0.7-29.4,2.4c-2.5-1-5.9,0.3-5.9,3.7c0.3,18.3,0.8,38-7.9,54.6
			c-2.8,5.3-9.8,11.3-7.5,17.7c2.1,5.8,8.4,6.2,13.5,5.1c8.6-2,17.2-5.2,25.5-8.4c6.2-2.5,11.3-4.2,12.2-11.4
			c1.4-9.4,1.3-19.4,1.8-28.8c0.6-10.3,1.3-20.4,1.8-30.7C722.3,498.8,720.1,496.8,717.9,496.8z" style="fill:#F7D16F;"/>
		<path d="M797.7,562.9c-3.2-4.1-7-6.9-9.3-11.8c-2.1-4.5-3.2-9.6-4.1-14.5c-2-11.8-2.5-24.1-3.7-36.2
			c-0.3-3.2,0.3-8.9-2.5-11.4c-3.1-2.8-8.7-1.4-12.4-1.4c-5.8,0.1-12.1-0.3-17.9,0.6c-3.2,0.4-5.5,1.4-6.6,4.4c-1.1,1-2,2.4-1.5,4.2
			c2.8,13.6,5.6,27.3,8.6,40.9c2,9.6,2.5,20.3,11.7,25.9c4.9,3.1,11,4.8,16.5,6.6c5.1,1.7,10.8,4.2,16.2,4.5
			C800.1,575.3,802.1,568.4,797.7,562.9z" style="fill:#F7D16F;"/>
		<path d="M781.4,268.9c-4.2-25-13.2-51.1-35.5-65.6c-9.6-6.2-21.1-9.8-32.6-8.9c-3.7,0.3-3.7,0.1-6.3-1.7
			c-1.8-1.3-3.8-1.7-6-1.7c-6.8,0.3-14.1,2.8-20.7,4.2c-1.8,0.4-3.1,2.3-3.1,4.1c0,1.5-6.6,3.8-8,4.6c-2.7,1.8-5.1,4.2-7,6.8
			c-4.9,6.2-8.6,13.5-12.1,20.5c-7.7,15.8-13.6,32.2-17.6,49.4c-0.6,2.4,0.7,4.4,3,5.2c8,3,15.9,6,23.9,9c1.7,0.7,3.1,0.1,3.9-0.8
			c1.7,0.1,3.2,0,4.9-1c3.7-2.1,6.8-6.8,9.7-9.7c3.7-3.7,8.9-9.6,13.5-11.7c9.8-4.5,3,14.3,1.8,16.9c-2.3,4.9-5.2,9.7-8.6,13.8
			c-5.2,6.3-13.8,10-14.8,18.7c-1.3,11.8-0.7,25.2,0.7,37c1.1,10,8.6,8.9,16.5,7.7c25.6-3.8,50.9-8.6,76.1-14.5
			c2.7-0.6,3.8-3.9,2.5-6.2c-3.4-6-6.3-12.4-8.6-19c-1.7-4.8-2.4-10-4.4-14.6c-2.1-4.8-6.2-7.2-9.8-10.6c-4.1-3.9-7.5-8.6-10-13.6
			c-1.4-2.8-9.1-21,1.7-17.3c4.4,1.4,7.6,6.5,12.2,8.2c10.6,4.1,21.9,0,31.7-4.1C780.7,273.1,781.8,271.3,781.4,268.9z" style="fill:#F087B1;"/>
		<path d="M712,155.5c-2.3-5.5-5.6-10.8-11-13.9c-11.7-6.6-25.5,1.5-31.8,11.7c-3.5,5.6-4.2,11.7-4.8,18.1
			c-0.4,5.6-1.8,8.4-6.3,11.3c-3,1.8-6.2,3.2-8.9,5.5c-4.5,3.9-6.3,9-6.9,14.9c-0.4,4.1,0,8.3-1,12.2c-1,4.4-3.5,7.9-6.3,11.3
			c-8.7,11.1-15.5,22.8-9,37.1c11.7,25.5,51.2,18.6,53-9.6c0.3-4.4-1.5-8.6-1.3-12.8c0.4-5.3,6.3-7.7,9.4-11.4
			c4.4-5.2,6.9-12.4,4.1-18.9c-1.4-3.2-4.9-5.3-6.2-8.4c-1.7-4.2,2.1-9,2.7-13.2c0.1-1.7,0.1-3.4,0-5.1c0.6,0.4,1.4,0.7,2.4,0.7
			c5.5,0,5.5-8.4,0-8.4c-2,0-3.2,1.1-3.8,2.7c-0.4-1-1-2-1.5-3c2.8-2.8,5.2-5.8,7.3-9.1c7,7.5,18.9,17,22.8,5.3
			C717,167.3,714,160.4,712,155.5z" style="fill:#57455E;"/>
		<path d="M705.6,177.7c-2.3,0.1-4.2,1.8-4.2,4.2v0.6c0,2.3,2,4.4,4.2,4.2c2.3-0.1,4.2-1.8,4.2-4.2V182
			C709.8,179.9,707.8,177.7,705.6,177.7z" style="fill:#57455E;"/>
		<path d="M699.7,185.2h-5.5c-2.3,0-4.4,2-4.2,4.2s1.8,4.2,4.2,4.2h5.5c2.3,0,4.4-2,4.2-4.2S702.1,185.2,699.7,185.2z" style="fill:#57455E;"/>
		<path d="M673.5,276.8l-16.9,17.6c-3.8,3.9,2.3,9.8,5.9,5.9c5.6-5.9,11.3-11.7,16.9-17.6
			C683.2,278.8,677.3,272.8,673.5,276.8z" style="fill:#57455E;"/>
		<path d="M775.9,292.4c-9.4-9.3-20.1-17-31.9-23.1c-4.8-2.5-9.1,4.8-4.2,7.3c11.1,5.8,21.2,13.1,30.2,21.8
			C773.8,302.1,779.7,296.2,775.9,292.4z" style="fill:#57455E;"/>
		<path d="M704.3,389.2c0.3-5.5-8.2-5.3-8.4,0c-1,15.1-0.8,30,0.3,45c0.4,5.3,8.9,5.5,8.4,0
			C703.5,419.2,703.5,404.2,704.3,389.2z" style="fill:#57455E;"/>
		<path d="M727.1,387.8c-0.1-5.5-8.6-5.5-8.4,0l1.5,43.6c0.1,5.5,8.6,5.5,8.4,0L727.1,387.8z" style="fill:#57455E;"/>
		<path d="M763.9,431.5c-2.4-15.8-4.9-31.4-7.7-47c-1-5.3-9.1-3.1-8.2,2.3c2.8,15.6,5.3,31.4,7.7,47
			C756.6,439.1,764.8,436.9,763.9,431.5z" style="fill:#57455E;"/>
		<path d="M781.5,499.6c-0.6-2-3.1-3.8-5.2-3c-2.5,1-5.2,1.5-7.9,1.5c-5.5,0-5.5,8.4,0,8.4c3.5,0,6.9-0.6,10.1-1.8
			C780.7,504,782.1,502,781.5,499.6z" style="fill:#57455E;"/>
		<path d="M785.2,518.2c-0.7-2.3-3-3.5-5.2-3c-2.4,0.6-4.6,1.7-6.8,3c-1.8,1.3-2.8,3.8-1.5,5.8c1.1,1.8,3.8,2.8,5.8,1.5
			c0.8-0.6,1.7-1,2.5-1.4l0,0c0.1-0.1,0.4-0.1,0.6-0.3c0.6-0.1,1-0.3,1.5-0.4C784.3,522.8,785.9,520.4,785.2,518.2z" style="fill:#57455E;"/>
		<path d="M787.2,538.6c-0.3-1-1-2-2-2.5c-1-0.6-2.3-0.8-3.2-0.4c-1.1,0.4-2.4,1-3.5,1.4c-1.1,0.4-2,1-2.5,2
			c-0.6,0.8-0.7,2.3-0.4,3.2s1,2,2,2.5s2.3,0.8,3.2,0.4c1.1-0.4,2.4-1,3.5-1.4c1.1-0.4,2-1,2.5-2
			C787.3,540.8,787.6,539.6,787.2,538.6z" style="fill:#57455E;"/>
		<path d="M694.3,507.5c-2.1-0.4-4.2-1-6.3-1.4c-2.1-0.4-4.6,0.7-5.2,3c-0.4,2.1,0.7,4.6,3,5.2c2.1,0.4,4.2,1,6.3,1.4
			s4.6-0.7,5.2-3C697.7,510.6,696.6,507.9,694.3,507.5z" style="fill:#57455E;"/>
		<path d="M695.7,523.5c-2.4-0.6-4.8-1.3-7.2-1.8c-2.3-0.6-4.6,0.7-5.2,3c-0.6,2.1,0.7,4.6,3,5.2
			c2.4,0.6,4.8,1.3,7.2,1.8c2.3,0.6,4.6-0.7,5.2-3C699.2,526.6,698,524.1,695.7,523.5z" style="fill:#57455E;"/>
		<path d="M690.8,538.4c-2.8-1-5.6-1-8.6-0.6c-2.3,0.3-3.7,3.2-3,5.2c0.8,2.4,2.8,3.2,5.2,3c-0.6,0.1,0.7,0,0.7,0
			c0.4,0,0.8,0,1.3,0c0.1,0,0.8,0.1,0.8,0.1c0.4,0.1,0.8,0.3,1.3,0.4c2.1,0.7,4.6-0.8,5.2-3C694.2,541.3,693,539.1,690.8,538.4z" style="fill:#57455E;"/>
		<path d="M793.1,244c-0.8-11.3-1.8-23.2-4.6-34.2c-2.7-10.6-13.4-7.3-21.8-6.6c-12.9,1.3-25.9,2.4-38.8,3.7
			c-6,0.6-12,1.1-18,1.7c-5.2,0.6-11.4,0.1-16.3,1.8c-0.7,0.3-1.3,0.6-1.8,0.8c-0.3,0-0.4,0-0.7,0c-2.4-0.1-4.1,2-4.2,4.2
			c-1.8,21.9-2.8,43.9-3,66c-1,2-0.6,4.6,1.4,5.6c1.3,1.1,3.2,1.4,4.9,0.6c0.3-0.1,0.4-0.3,0.6-0.4c23.4-1.8,46.6-4.4,69.6-8
			c6.3-1,12.5-2,18.9-3.1c4.2-0.7,8.7-1.1,11.7-4.5C796.9,265.3,793.8,251.7,793.1,244z" style="fill:#B6C8E8;"/>
		<g>
			<path d="M775.1,242.7c-3.4-3.9-9-5.5-13.8-7c-7-2.4-14.5-4.2-21.9-3.5c-11.8,1.1-25.5,7.7-33.1,17
				c-2.5,3.1,0,7.2,3,7.3c21,14.3,48.8,11.1,65.8-7.7C776.8,247,776.6,244.6,775.1,242.7z" style="fill:#FFFFFF;"/>
			<path d="M748.6,246.3c-0.7-4.2-5.8-6.2-9.6-4.6h-0.1c-1.4,0-3.1,0.7-3.7,2.1c-1,2.4-1.1,4.5,0,6.9
				c0.8,1.8,2.5,3.4,4.5,3.9C744.7,256.1,749.5,251.2,748.6,246.3z" style="fill:#57455E;"/>
			<path d="M708.5,236.7c-1.8-2.4-3.7-4.8-5.5-7.2c-1.4-1.8-4.5-1.4-5.9,0c-1.8,1.8-1.4,4.2,0,5.9
				c1.8,2.4,3.7,4.8,5.5,7.2c1.4,1.8,4.5,1.4,5.9,0C710.2,240.8,709.9,238.5,708.5,236.7z" style="fill:#57455E;"/>
			<path d="M727.5,226.8c-1.5-1.7-2.4-3.8-3-6c-0.6-2.3-3.1-3.5-5.2-3c-2.3,0.6-3.5,3-3,5.2c0.8,3.7,2.7,6.9,5.2,9.7
				c1.5,1.7,4.5,1.5,5.9,0C729.2,231.1,729.1,228.5,727.5,226.8z" style="fill:#57455E;"/>
			<path d="M746.2,223.6c-0.1-0.4-0.3-0.8-0.4-1.1c0-0.1-0.1-1.3-0.1-0.6c0-0.4,0-0.8,0-1.3c0-0.1,0-0.1,0-0.3
				c0,0,0-0.1,0-0.3c0.4-2.1-0.6-4.6-3-5.2c-2.1-0.4-4.8,0.6-5.2,3c-0.6,2.7-0.4,5.3,0.4,7.9c0.7,2.1,3,3.7,5.2,3
				C745.2,228.3,746.9,225.9,746.2,223.6z" style="fill:#57455E;"/>
			<path d="M762,215.6c-2.3,0.1-4.2,1.8-4.2,4.2v7c0,2.3,2,4.4,4.2,4.2s4.2-1.8,4.2-4.2v-7
				C766.2,217.6,764.2,215.5,762,215.6z" style="fill:#57455E;"/>
			<path d="M774.8,219.1c-2.5,0-3.9,2-4.2,4.2c-0.3,2.5-0.6,5.2-0.8,7.7c-0.3,2.3,2.1,4.2,4.2,4.2c2.5,0,3.9-2,4.2-4.2
				c0.3-2.5,0.6-5.2,0.8-7.7C779.3,221.1,776.9,219.1,774.8,219.1z" style="fill:#57455E;"/>
		</g>
	</g>
</g>
</svg>
