<?xml version="1.0" encoding="utf-8"?>
<!-- Generator: Adobe Illustrator 20.1.0, SVG Export Plug-In . SVG Version: 6.00 Build 0)  -->
<svg version="1.1" id="Capa_1" xmlns="http://www.w3.org/2000/svg" xmlns:xlink="http://www.w3.org/1999/xlink" x="0px" y="0px" width="800px" height="600px" viewBox="0 0 800 600" style="enable-background:new 0 0 800 600;" xml:space="preserve">

<g>
	<path d="M438.1,170.2c3-4.8,5.9-11.7,3.5-17.4c-2-4.6-7.2-5.8-10.8-2c-5,5.4-8.8,11.9-13.9,17.4
		c-5.1,5.4-10.6,10.4-16.4,14.9c-13.7,10.5-29.3,18.3-45.9,23.1c-0.2-0.3-0.4-0.6-0.6-0.9c4.2-7.2-0.2-19.2-4.4-25
		c-2.3-3.2-6-5.5-10.1-4.3c0,0-0.1,0-0.1,0c-0.2,0-0.5,0-0.8,0.1c-9.8,2-10.5,14.4-7.4,22c1.8,4.3,6.2,9.4,11.1,11.3
		c-9.5,3.6-19.1,7-28.5,11c-6.6,2.8-11.8,7.3-14.1,14.3c-2,6.1-1.3,13,2.7,18.2c4.9,6.3,12.9,8.6,20.5,9.7c2.5,0.4,5.1,0.7,7.6,0.9
		c0,0,0,0,0,0c1.6,20.9,4.2,41.7,8,62.2l-10.8-11.6c-6.1-6.5-11.9-14.2-18.6-19.9c-4.6-3.9-7.9-2.1-11.6,2.1
		c-5.5,6.3-10.5,13.1-15.4,19.9c-0.8,1.2-0.5,3.1,0.5,4c1.3,1.3,2.6,2,4.6,1.8c2.6-0.3,5.1-3.3,7.7-2.9c3.3,0.5,6.2,5.9,7.8,8.2
		c1.9,2.7,3.8,5.3,5.8,7.8c7.9,10,17.5,21.4,29.4,26.5c10.5,4.5,21.5,1.7,28.1-7.7c1.6-2.3,2.8-4.7,3.7-7.2
		c3.5,15.1,7.3,30.2,11.5,45.1c1.6,5.8,3.3,11.5,5,17.2c1.2,4.1,2.1,10.7,5.6,13.6c6.5,5.4,19.5,0.4,25.9-2.9c1.7-0.9,1.9-3,1.2-4.5
		c-0.9-2-2.5-3-4.6-3.6c-3.2-0.8-5.9,0.1-7-3.9c-2.3-8.6-3.6-17.6-5.3-26.4c-3.5-17.5-6.8-35-10.1-52.6
		c-6.3-34.3-12.1-68.7-17.5-103.1c11.7-3.7,22.4-10.2,31.7-18.3C418.2,196.9,429.7,183.7,438.1,170.2z" style="fill:var(--illu-brown--light);"/>
	<path d="M364.2,176.2c-3.8-5.9-11.9-4.3-14.9,1.1c-0.8-0.6-1.5-1.1-2.2-1.5c-6.3-3.4-14-1.6-17.6,4.7
		c-1.6,2.8-2.2,6-2,9.2c-4.2-3.1-10-3.3-11.7,3.2c-1.7,6.3,1.7,12.9,8.8,11.9c2.7-0.4,6.1-1.6,8.3-3.6c0.8,0.3,1.7,0.2,2.6-0.3
		c0.4-0.2,0.7-0.5,1.1-0.7c-0.2,1.6,0.7,3.5,2.9,3.5c3.8,0,3.9-5.7,0.3-6c0.8-0.8,1.5-1.6,2.2-2.5c2.4,1.4,5.3,2.6,8.1,2.8
		c0,1.5,1,3,2.9,3c2.5,0,3.4-2.6,2.6-4.4c0.6-0.5,1.2-1.1,1.7-1.9c1-1.7,1.1-3.6,0.6-5.7c2.3-0.6,4.4-1.6,5.9-3.4
		C365.9,183,366.1,179.1,364.2,176.2z" style="fill:var(--illu-bg--light);"/>
	<path d="M527.1,389.5c-1.4-20.9-0.9-41.9-0.3-62.8c0-1.7-1.6-3.4-3.3-3.3c-5.6,0.3-10.6-0.8-15.5-3.4
		c-1.2-2.8-6.4-2.4-6.4,1.4c0,21.2,0.1,42.4,0.1,63.7c0,8.6-0.9,17.7,0.5,26.2c0.9,5.5,3.8,11.1,9.7,12.3c6.1,1.3,12-3.2,14.5-8.5
		C530,407.2,527.6,397.6,527.1,389.5z" style="fill:var(--illu-brown--main);"/>
	<path d="M198.6,418.8c-1.4-20.9-0.9-41.9-0.3-62.8c0-1.7-1.6-3.4-3.3-3.3c-5.6,0.3-10.6-0.8-15.5-3.4
		c-1.2-2.8-6.4-2.4-6.4,1.4c0,21.2,0.1,42.4,0.1,63.7c0,8.6-0.9,17.7,0.5,26.2c0.9,5.5,3.8,11.1,9.7,12.3c6.1,1.3,12-3.2,14.5-8.5
		C201.5,436.5,199.1,427,198.6,418.8z" style="fill:var(--illu-brown--main);"/>
	<path d="M616.6,502.3c-1.4-20.9-0.9-41.9-0.3-62.8c0-1.7-1.6-3.4-3.3-3.3c-5.6,0.3-10.6-0.8-15.5-3.4
		c-1.2-2.8-6.4-2.4-6.4,1.4c0,21.2,0.1,42.4,0.1,63.7c0,8.6-0.9,17.7,0.5,26.2c0.9,5.5,3.8,11.1,9.7,12.3c6.1,1.3,12-3.2,14.5-8.5
		C619.5,520,617.1,510.5,616.6,502.3z" style="fill:var(--illu-brown--main);"/>
	<path d="M452,439c-2.8-1.1-5.7-1.5-8.5-2.3c-4.6-1.4-7.2-3.3-6.3-8.5c1.1-6.2,0.6-11.2-3.2-16.5
		c-7.6-10.4-21.4-13.2-33.5-12.5c-10.4,0.6-20.8,2.9-31.1,5.5c-17.8,0.3-35.5,2.6-52.8,6.9c-8.4,2.1-22.3,4-25,14.1
		c-1,3.8,0.1,7.9,3.2,10.3c1.6,1.3,4.4,1.7,6.8,2.4c-4.6,1.7-9.1,3.5-13.6,5.5c-6.3,2.8-13.9,5.6-19.2,10.2c-3.6,3-5.5,7.4-3.7,12
		c2.1,5.1,7.8,7.5,12.6,9.1c13.7,4.6,29.4,4.1,43.7,4.4c16.4,0.3,32.8,0,49.2-1c16-1,31.9-2.6,47.7-4.8c7.5-1,15.1-2,22.6-3.6
		c5.7-1.2,11.5-3,15.7-7.3C464.1,455.1,462.4,442.9,452,439z" style="fill:var(--illu-blue--light);"/>
	<path d="M415,373.1c-0.8,4.4-1.6,8.8-2.3,13.2c-0.7,4.2,5.7,6,6.4,1.8c0.8-4.4,1.6-8.8,2.3-13.2
		C422.1,370.7,415.7,368.9,415,373.1z" style="fill:var(--illu-blue--light);"/>
	<path d="M431.1,379.9c-2,2.9-4,5.9-6,8.8c-2.4,3.5,3.3,6.9,5.7,3.3c2-2.9,4-5.9,6-8.8
		C439.2,379.7,433.4,376.3,431.1,379.9z" style="fill:var(--illu-blue--light);"/>
	<path d="M366.5,390.1c-2.1-3.8-4.9-7.1-8.3-9.9c-1.4-1.1-3.3-1.4-4.7,0c-1.2,1.2-1.4,3.5,0,4.7
		c2.9,2.4,5.3,5.2,7.2,8.5C362.8,397.2,368.6,393.8,366.5,390.1z" style="fill:var(--illu-blue--light);"/>
	<path d="M349.2,393.5c-4.2-1.2-8.4-2.4-12.5-3.6c-4.1-1.2-5.9,5.2-1.8,6.4c4.2,1.2,8.4,2.4,12.5,3.6
		C351.5,401.1,353.3,394.7,349.2,393.5z" style="fill:var(--illu-blue--light);"/>
	<path d="M330.1,312.9c-6.6-6.5-13.2-13.1-19.9-19.5c-5.2-4.9-9.1-5.9-14.2-0.4c-3.2,3.4-27.7,27.7-13.5,30.9
		c3.3,0.7,6.4-1.8,9.4-1.4c2.8,0.4,6.1,7.1,7.7,9.1c5,6.4,10.8,12.2,17.1,17.3c1.3,1,2.8,0.9,3.9,0.3c0.7,0,1.5-0.3,2.1-1.1
		c5.1-6.2,10.5-12.7,14.4-19.8C341,321.4,334.7,317.4,330.1,312.9z" style="fill:var(--illu-yellow--main);"/>
	<path d="M419.6,410.6c-2.7-1.9-6.2-3.6-7.5-6.7c-1.2-2.9-1.3-6.7-1.8-9.8c-1.2-7.2-2.4-14.4-3.5-21.7
		c-0.2-1.3-1.9-2.5-3.2-2.4c-9,0.7-17.9,2.3-26.6,4.8c-2.4,0.7-2.8,3.1-1.9,4.8c0,0.3,0,0.6,0.1,0.9c3,13.6,6.2,27.7,11.1,40.7
		c1.6,4.2,3.9,6.2,8.5,6.5c7,0.4,14.3-0.5,21.1-1.8c3.9-0.7,9.8-1.4,11-6C428.2,415.2,422.7,412.7,419.6,410.6z" style="fill:var(--illu-yellow--main);"/>
	<path d="M570,218c-3.5-8.2-11.2-13.3-15.2-21.2c-5.4-10.7,1.5-24.8,2.7-36c1.8-17.5,0.2-43.8-15.8-55.2
		c-13.5-9.6-32.4-2-31.9,15.5c0.3,9.4,5.4,19.7,1.3,28.9c-3.6,7.8-12.1,12.6-18.3,18.1c-6.8,6-11.8,13.7-13.7,22.7
		c-2,9.7,0.3,18.9,3,28.2c1.5,5.3,3.3,10.8,3.4,16.4c0.1,7-3,11.3-8,15.8c-7.5,6.7-11.2,15.1-10.5,25.3
		c1.3,20.3,16.5,37.3,35.1,44.3c0.2,0.1,0.4,0.1,0.6,0.2c13.7,7.1,30.2,9,44,0.8c7.1-4.2,12.9-10.7,15.7-18.4
		c3.7-10,0.1-19.5-0.3-29.6C561.2,254.8,578,237,570,218z" style="fill:var(--illu-blue--main);"/>
	<path d="M241.5,247.4c-3.5-8.2-11.2-13.3-15.2-21.2c-5.4-10.7,1.5-24.8,2.7-36c1.8-17.5,0.2-43.8-15.8-55.2
		c-13.5-9.6-32.4-2-31.9,15.5c0.3,9.4,5.4,19.7,1.3,28.9c-3.6,7.8-12.1,12.6-18.3,18.1c-6.8,6-11.8,13.7-13.7,22.7
		c-2,9.7,0.3,18.9,3,28.2c1.5,5.3,3.3,10.8,3.4,16.4c0.1,7-3,11.3-8,15.8c-7.5,6.7-11.2,15.1-10.5,25.3
		c1.3,20.3,16.5,37.3,35.1,44.3c0.2,0.1,0.4,0.1,0.6,0.2c13.7,7.1,30.2,9,44,0.8c7.1-4.2,12.9-10.7,15.7-18.4
		c3.7-10,0.1-19.5-0.3-29.6C232.7,284.2,249.5,266.3,241.5,247.4z" style="fill:var(--illu-blue--main);"/>
	<path d="M659.5,330.9c-3.5-8.2-11.2-13.3-15.2-21.2c-5.4-10.7,1.5-24.8,2.7-36c1.8-17.5,0.2-43.8-15.8-55.2
		c-13.5-9.6-32.4-2-31.9,15.5c0.3,9.4,5.4,19.7,1.3,28.9c-3.6,7.8-12.1,12.6-18.3,18.1c-6.8,6-11.8,13.7-13.7,22.7
		c-2,9.7,0.3,18.9,3,28.2c1.5,5.3,3.3,10.8,3.4,16.4c0.1,7-3,11.3-8,15.8c-7.5,6.7-11.2,15.1-10.5,25.3
		c1.3,20.3,16.5,37.3,35.1,44.3c0.2,0.1,0.4,0.1,0.6,0.2c13.7,7.1,30.2,9,44,0.8c7.1-4.2,12.9-10.7,15.7-18.4
		c3.7-10,0.1-19.5-0.3-29.6C650.7,367.7,667.5,349.9,659.5,330.9z" style="fill:var(--illu-blue--main);"/>
	<path d="M439.4,171.7c-4.8-3.8-9.5-7.6-14.3-11.4c-1.4-1.1-3.4-1.4-4.7,0c-13.7,14.5-29.7,26.5-47.6,35.2
		c-4.4,2.1-9.1,3.6-13.3,5.9c-3.7,2-4.9,5.2-8,7.7c-3.6,2.9-8.1-1.5-12.2-1.9c-0.4-0.2-1-0.3-1.6-0.3c-14.1,1.1-27,8.9-34.9,20.6
		c-5.3,7.7-7.3,18.7-3.2,27c4,10.3,15.7,17,26.3,13c-0.8,11.5-1.1,23-0.8,34.5c0.2,7.8-1.6,21.4,7.6,24.8c9,3.4,20.7,2.8,30.1,1.5
		c10.6-1.4,20.6-5,29.9-10.2c1.3-0.7,1.8-2.3,1.5-3.7c-3.4-15.2-6.3-30.5-8.7-45.9c-1.2-8.1-2.3-16.2-3.2-24.4
		c-0.5-4.2-0.9-8.5-1.3-12.7c-0.4-4.2-1.7-7.4,3-9.2c23.3-8.8,43-25.4,55.8-46.7C440.7,174.6,440.6,172.6,439.4,171.7z M351.4,259.1
		c0.1-1.5,0.1-3.1,0.3-4.6c0.4-3.8,0.2-5.3,4.1-5.7c3.8-0.4,11.5,1.8,8.4,7.1C361.7,259.9,355.6,259.5,351.4,259.1z" style="fill:var(--illu-bg--main);"/>
	<path d="M354,203.2c-0.5-1.7-2-2.4-3.7-2.1c-1.3,0.2-2.7,0.8-3.8,1.6c-0.6,0.5-1.2,1-1.4,1.8c-0.2,0.7-0.1,1.7,0.3,2.3
		c0.8,1.2,2.8,2.1,4.1,1.1c0.1-0.1,1.2-0.9,1.3-0.8c-0.4,0.2-0.5,0.2-0.2,0.1c0.1,0,0.2-0.1,0.4-0.1c0.3-0.1,0.5-0.1,0.8-0.2
		C353.5,206.6,354.5,204.6,354,203.2z" style="fill:var(--illu-bg--light);"/>
	<path d="M360.4,247.3c-1.5-11.9-4-23.6-7.4-35c-1.1-3.7-6.9-2.1-5.8,1.6c2.3,7.6,4.1,15.2,5.5,23
		c-13.6-26.6-27.3-53.2-40.9-79.8c-1.8-3.4-6.9-0.4-5.2,3c15.2,29.6,30.3,59.2,45.5,88.8c0.9,1.8,2.8,1.8,4.1,1
		C358.1,250.7,360.7,249.9,360.4,247.3z" style="fill:var(--illu-bg--light);"/>
	<path d="M371.2,323.1c-2.8-20.7-5.6-41.4-8.5-62.1c-0.5-3.8-6.3-2.2-5.8,1.6c2.8,20.7,5.6,41.4,8.5,62.1
		C365.9,328.5,371.7,326.9,371.2,323.1z" style="fill:var(--illu-bg--light);"/>
	<path d="M343.2,243.7c-6.5-1.2-13-2.3-19.6-3.2c0,0,0,0,0,0c-0.4-2.5-0.5-5.1-0.5-7.6c0.1-3.9-5.9-3.9-6,0
		c-0.1,2.3,0.1,4.6,0.3,6.9c-2-0.2-4.1-0.4-6.1-0.6c-3.9-0.3-3.8,5.7,0,6c10.2,0.8,20.2,2.5,30.2,4.3
		C345.4,250.2,347,244.4,343.2,243.7z" style="fill:var(--illu-bg--light);"/>
	<path d="M339.5,261.8c-4.2,1.5-8.4,2.9-12.7,3.9c-3.7,0.9-2.2,6.7,1.6,5.8c4.3-1.1,8.5-2.4,12.7-3.9
		C344.7,266.3,343.2,260.5,339.5,261.8z" style="fill:var(--illu-bg--light);"/>
	<path d="M382.3,211.7c-0.3-3.8-6.3-3.9-6,0l1.1,13.8c0.3,3.8,6.3,3.9,6,0L382.3,211.7z" style="fill:var(--illu-bg--light);"/>
	<path d="M388,276c-2.8-4.5-6.3-8.3-10.5-11.5c-1.3-1-3.3-0.2-4.1,1.1c-0.9,1.5-0.2,3.1,1.1,4.1
		c3.4,2.6,6.1,5.7,8.4,9.3C384.8,282.3,390,279.3,388,276z" style="fill:var(--illu-bg--light);"/>
	<path d="M342.7,273.6c-3.2,4.3-5.6,8.9-7.5,13.9c-1.3,3.6,4.5,5.2,5.8,1.6c1.7-4.5,4-8.7,6.9-12.5
		C350.2,273.6,345,270.6,342.7,273.6z" style="fill:var(--illu-bg--light);"/>
	<path d="M336.3,328.5c-0.5-1.3-1.5-2.2-2.9-2.2c-3.4,0-6.6,4.6-8.7,6.8c-3.7,3.7-7.3,7.4-10.9,11.1
		c-2.1,2.2,0.1,5.3,2.4,5.1c1.1,0.8,2.7,1.1,4,0c4-3.5,8.6-6.1,12.1-10.2C334.6,336.4,337.8,332.3,336.3,328.5z" style="fill:var(--illu-bg--light);"/>
	<path d="M310.3,335.8c-0.3-1.6-2.2-2.5-3.7-2.1c-1.7,0.5-2.4,2.1-2.1,3.7c0.1,0.6,0.2,1.3,0.2,1.9l-1-0.1
		c-1.6-0.1-3,1.5-3,3c0,1.7,1.4,2.9,3,3c1.3,0.1,2.6,0.2,4,0.4c1.7,0.2,2.9-1.5,3-3C310.9,340.4,310.8,338.1,310.3,335.8z" style="fill:var(--illu-bg--light);"/>
	<path d="M300,288.6c-4.6,3.7-9,7.7-12.9,12.1c-4,4.4-7.3,9.5-11.9,13.5c-2.9,2.5,1.3,6.8,4.2,4.2
		c4.5-3.9,7.8-9,11.9-13.5c4-4.4,8.3-8.4,12.9-12.1C307.3,290.4,303,286.2,300,288.6z" style="fill:var(--illu-bg--light);"/>
	<path d="M425.6,417.9c-11.8,2.6-23.7,4.9-35.7,7c-3.8,0.7-2.2,6.4,1.6,5.8c11.9-2.1,23.8-4.4,35.7-7
		C430.9,422.8,429.3,417,425.6,417.9z" style="fill:var(--illu-bg--light);"/>
	<path d="M404.2,366.8c-3.6-1.5-9.4,0.7-12.8,1.9c-3,1.1-5.8,2.5-8.7,3.8c-2.4,0.5-5,1-6.9,2.4
		c-0.3,0.2-0.5,0.4-0.6,0.6c-0.2,0.2-0.4,0.5-0.6,0.8c-1.5,2.4-0.8,5.4,1.9,6.6c3.2,1.5,7.1-1.2,10-2.3c5.3-2,10.6-3,16.2-4
		c2.4-0.4,4.5-1.2,5.1-3.9C408.2,370.1,406.5,367.7,404.2,366.8z" style="fill:var(--illu-bg--light);"/>
	<path d="M411.9,381.2c-0.7-0.9-1.5-1.8-2.2-2.7c-1.2-1.4-3.9-1-4.7,0.6c-0.5,1-0.9,2-1.4,3c-0.7,1.4-0.4,3.3,1.1,4.1
		c1.1,0.6,2.6,0.5,3.5-0.3c1.1,0.7,2.8,0.5,3.7-0.5C413.1,384.2,413,382.5,411.9,381.2z" style="fill:var(--illu-bg--light);"/>
	<path d="M345.7,440.4c-0.5-1.7-2.1-2.3-3.7-2.1c-2.9,0.4-5.7,0.1-8.5-0.7c-3.7-1.1-5.3,4.7-1.6,5.8
		c3.9,1.1,7.7,1.3,11.7,0.7C345.3,443.8,346.1,441.8,345.7,440.4z" style="fill:var(--illu-white--main);"/>
	<path d="M391.9,451.3h-6c-3.9,0-3.9,6,0,6h6C395.7,457.3,395.7,451.3,391.9,451.3z" style="fill:var(--illu-white--main);"/>
	<path d="M442.9,451.3h-4c-1.6,0-3.1,1.4-3,3c0.1,1.6,1.3,3,3,3h4c1.6,0,3.1-1.4,3-3
		C445.8,452.6,444.5,451.3,442.9,451.3z" style="fill:var(--illu-white--main);"/>
	<path d="M366.5,426.6c-2.1-1.5-4.9-1.9-7.4-1.1c-1.6,0.5-2.5,2.1-2.1,3.7c0.4,1.5,2.1,2.6,3.7,2.1
		c0.2-0.1,0.4-0.1,0.6-0.2c0,0,0.1,0,0.2,0c0.1,0,0.7,0.1,0.6,0c0.3,0.1,0.5,0.1,0.8,0.2c-0.4-0.1,0.5,0.4,0.7,0.4
		c1.3,0.9,3.3,0.2,4.1-1.1C368.4,429.2,367.8,427.5,366.5,426.6z" style="fill:var(--illu-white--main);"/>
	<path d="M346.9,461.3h-10c-3.9,0-3.9,6,0,6h10C350.7,467.3,350.7,461.3,346.9,461.3z" style="fill:var(--illu-white--main);"/>
	<path d="M329.7,418.4c-3.3-0.5-6.5-0.3-9.6,1c-1.5,0.6-2.6,2-2.1,3.7c0.4,1.4,2.2,2.7,3.7,2.1c2-0.8,4.2-1.3,6.4-1
		c1.6,0.2,3.2-0.4,3.7-2.1C332.1,420.7,331.3,418.6,329.7,418.4z" style="fill:var(--illu-white--main);"/>
	<path d="M308.9,451.3h-8c-3.9,0-3.9,6,0,6h8C312.7,457.3,312.7,451.3,308.9,451.3z" style="fill:var(--illu-white--main);"/>
	<path d="M416.9,435.2c-1.5,0.2-3.1,0.1-4.5-0.6c-1.5-0.7-3.2-0.4-4.1,1.1c-0.8,1.3-0.4,3.4,1.1,4.1
		c2.4,1.1,4.9,1.7,7.5,1.4c1.6-0.2,3-1.3,3-3C419.9,436.7,418.5,435.1,416.9,435.2z" style="fill:var(--illu-white--main);"/>
	<path d="M490.9,271.3c-1.6,0.1-3,1.3-3,3v5c0,1.6,1.4,3.1,3,3c1.6-0.1,3-1.3,3-3v-5
		C493.9,272.7,492.5,271.2,490.9,271.3z" style="fill:var(--illu-bg--main);"/>
	<path d="M507,241.3c-1.8,0-2.8,1.4-3,3c-0.4,3-0.7,6-1.1,9c-0.2,1.6,1.5,3,3,3c1.8,0,2.8-1.4,3-3c0.4-3,0.7-6,1.1-9
		C510.2,242.7,508.5,241.3,507,241.3z" style="fill:var(--illu-bg--main);"/>
	<path d="M505.9,284.3v6c0,3.9,6,3.9,6,0v-6C511.9,280.4,505.9,280.4,505.9,284.3z" style="fill:var(--illu-bg--main);"/>
	<path d="M498.9,199.3v8c0,3.9,6,3.9,6,0v-8C504.9,195.4,498.9,195.4,498.9,199.3z" style="fill:var(--illu-bg--main);"/>
	<path d="M595.6,320.5c-0.3-2.3-0.7-4.7-1-7c-0.2-1.6-2.3-2.5-3.7-2.1c-1.7,0.5-2.3,2.1-2.1,3.7c0.3,2.3,0.7,4.7,1,7
		c0.2,1.6,2.3,2.5,3.7,2.1C595.2,323.7,595.8,322.1,595.6,320.5z" style="fill:var(--illu-bg--main);"/>
	<path d="M605.8,338.2c-1.8,0-2.8,1.4-3,3c-0.5,3.7-1,7.4-1.5,11.1c-0.2,1.6,1.5,3,3,3c1.8,0,2.8-1.4,3-3
		c0.5-3.7,1-7.4,1.5-11.1C609,339.6,607.3,338.3,605.8,338.2z" style="fill:var(--illu-bg--main);"/>
	<path d="M591.3,347.3c-1.4-0.4-3.4,0.5-3.7,2.1c-0.5,3-1,6.1-1.5,9.1c-0.3,1.6,0.4,3.2,2.1,3.7
		c1.4,0.4,3.4-0.5,3.7-2.1c0.5-3,1-6.1,1.5-9.1C593.7,349.4,593,347.8,591.3,347.3z" style="fill:var(--illu-bg--main);"/>
	<path d="M577.9,391.3v8c0,3.9,6,3.9,6,0v-8C583.9,387.4,577.9,387.4,577.9,391.3z" style="fill:var(--illu-bg--main);"/>
	<path d="M600.3,387.6c-1.5-0.9-3.2-0.3-4.1,1.1c-1.5,2.1-1.8,4.8-1.2,7.3c0.4,1.6,2.2,2.5,3.7,2.1
		c1.6-0.4,2.5-2.1,2.1-3.7c0-0.1-0.1-0.3-0.1-0.4c0,0,0-0.1,0-0.3c0-0.1,0.1-0.7,0-0.6c0.1-0.2,0.1-0.5,0.2-0.7
		c0,0.1,0.4-0.6,0.5-0.7C602.3,390.4,601.7,388.4,600.3,387.6z" style="fill:var(--illu-bg--main);"/>
	<path d="M168.9,309.3v7c0,3.9,6,3.9,6,0v-7C174.9,305.4,168.9,305.4,168.9,309.3z" style="fill:var(--illu-bg--main);"/>
	<path d="M155.1,292.6c-1.3-0.7-3.5-0.4-4.1,1.1c-1.3,3.1-1.7,6.1-1,9.4c0.3,1.6,2.2,2.5,3.7,2.1
		c1.6-0.5,2.4-2.1,2.1-3.7c-0.3-1.6-0.2-3.3,0.4-4.8C156.8,295.2,156.7,293.5,155.1,292.6z" style="fill:var(--illu-bg--main);"/>
	<path d="M175.9,280.3v8c0,3.9,6,3.9,6,0v-8C181.9,276.4,175.9,276.4,175.9,280.3z" style="fill:var(--illu-bg--main);"/>
	<path d="M167.3,237.6c-1.4-0.8-3.2-0.3-4.1,1.1c-1.4,2.2-1.7,4.8-1.2,7.3c0.3,1.6,2.2,2.5,3.7,2.1
		c1.7-0.5,2.4-2.1,2.1-3.7c0-0.1,0-0.1,0-0.2c0-0.1,0-0.2,0-0.3c0-0.2,0-0.4,0-0.6c0,0,0,0,0-0.1c0-0.2,0.1-0.3,0.1-0.5
		c0.1-0.2,0.1-0.4,0.1-0.3c0.1-0.2,0.3-0.6,0.4-0.7C169.3,240.4,168.7,238.4,167.3,237.6z" style="fill:var(--illu-bg--main);"/>
	<path d="M175.9,207.3v9c0,3.9,6,3.9,6,0v-9C181.9,203.4,175.9,203.4,175.9,207.3z" style="fill:var(--illu-bg--main);"/>
	<path d="M181.9,244.3v7c0,3.9,6,3.9,6,0v-7C187.9,240.4,181.9,240.4,181.9,244.3z" style="fill:var(--illu-bg--main);"/>
	<path d="M397,133.6c-14.5-25.3-48.8-31.1-75.3-33c-8.5-0.6-17.1-0.3-25.2,2.5c-8,2.7-15.4,7.5-22.1,12.7
		c-11.8,9.1-21.8,20.4-29.7,33c-9.2,14.8-15.2,31.5-17.6,48.8c0,0.2,0,0.4,0,0.6c0,0.1-0.1,0.3-0.1,0.4c-0.9,4.2,5.6,5.5,6.5,1.3
		c3.9-18.4,29-22.2,37.5-5c1.3,2.5,6,3.2,6.4-0.4c1-10.3,5.2-21.9,15.2-26.7c8-3.9,19.7-1.6,23.7,7c1.6,3.3,6.5,2.6,6.4-1.3
		c-0.2-21.3,25-31.2,39.9-16.6c2,2,5.8,0.1,5.5-2.7c-0.8-6.5,0.5-13.6,5.7-18c5.1-4.4,13.6-4.3,17.9,1.2
		C394.1,140.7,399.1,137.3,397,133.6z" style="fill:var(--illu-red--light);"/>
	<path d="M297.2,106c-1.3-2-2.5-4-3.8-6c-0.9-1.4-2.7-1.9-4.1-1.1c-1.4,0.8-2,2.7-1.1,4.1c1.3,2,2.5,4,3.8,6
		c0.9,1.4,2.7,1.9,4.1,1.1C297.5,109.3,298.1,107.3,297.2,106z" style="fill:var(--illu-bg--light);"/>
	<path d="M280.2,125.6c-9.2,16.2-13.3,34.7-11.8,53.4c0.3,3.8,6.3,3.9,6,0c-1.5-17.6,2.2-34.9,10.9-50.3
		C287.3,125.3,282.1,122.3,280.2,125.6z" style="fill:var(--illu-bg--light);"/>
	<path d="M317.6,154.6c-3.4-9.5-7.5-18.7-12.3-27.5c-1.9-3.4-7-0.4-5.2,3c4.6,8.4,8.5,17.1,11.7,26.1
		C313.1,159.8,318.9,158.2,317.6,154.6z" style="fill:var(--illu-bg--light);"/>
	<path d="M355.2,139.2c-5-7.7-10.3-15.5-18.3-20.4c-7.8-4.8-16.9-6.7-25.9-7.7c-3.8-0.4-3.8,5.6,0,6
		c8,0.8,16,2.6,22.9,6.8c7.1,4.4,11.7,11.4,16.1,18.3C352.1,145.4,357.3,142.4,355.2,139.2z" style="fill:var(--illu-bg--light);"/>
	<path d="M413.8,113.6c-1.4-5.7-1.8-11.4-1.3-17.2c0.4-3.8-5.6-3.8-6,0c-0.6,6.4-0.1,12.6,1.5,18.8
		C408.9,118.9,414.7,117.3,413.8,113.6z" style="fill:var(--illu-blue--light);"/>
	<path d="M437.9,96.4c-0.4-3.8-6.5-3.8-6,0c0.6,5.4,0.3,10.5-1.2,15.7c-1,3.7,4.8,5.3,5.8,1.6
		C438.1,108,438.6,102.2,437.9,96.4z" style="fill:var(--illu-blue--light);"/>
	<path d="M387,69.4v12c0,3.9,6,3.9,6,0v-12C393,65.5,387,65.5,387,69.4z" style="fill:var(--illu-blue--light);"/>
	<path d="M237,93.4v16.5c0,3.9,6,3.9,6,0V93.4C243,89.5,237,89.5,237,93.4z" style="fill:var(--illu-blue--light);"/>
	<path d="M255,70.9v9c0,3.9,6,3.9,6,0v-9C261,67,255,67,255,70.9z" style="fill:var(--illu-blue--light);"/>
	<path d="M306,66.4v12c0,3.9,6,3.9,6,0v-12C312,62.5,306,62.5,306,66.4z" style="fill:var(--illu-blue--light);"/>
	<path d="M238.5,399.3v10.5c0,3.9,6,3.9,6,0v-10.5C244.5,395.5,238.5,395.5,238.5,399.3z" style="fill:var(--illu-blue--light);"/>
	<path d="M259.5,262.9v12c0,3.9,6,3.9,6,0v-12C265.5,259,259.5,259,259.5,262.9z" style="fill:var(--illu-blue--light);"/>
	<path d="M277.1,376.8c-1.1-2.4-1.4-4.9-1.2-7.4c0.2-1.6-1.5-3-3-3c-1.8,0-2.8,1.4-3,3c-0.4,3.7,0.4,7.2,2,10.5
		c0.7,1.5,2.8,1.8,4.1,1.1C277.5,380,277.8,378.3,277.1,376.8z" style="fill:var(--illu-blue--light);"/>
	<path d="M437.7,250.1l-1.6-9c-0.3-1.6-2.2-2.5-3.7-2.1c-1.7,0.5-2.4,2.1-2.1,3.7l1.6,9c0.3,1.6,2.2,2.5,3.7,2.1
		C437.3,253.3,438,251.7,437.7,250.1z" style="fill:var(--illu-blue--light);"/>
	<path d="M443.6,324.3c-1.6-3.5-6.8-0.5-5.2,3c1.2,2.6,1.5,5.4,1.1,8.2c-0.6,3.8,5.2,5.4,5.8,1.6
		C446,332.6,445.5,328.5,443.6,324.3z" style="fill:var(--illu-blue--light);"/>
	<path d="M474.3,386.5c-1.5-0.9-3.1-0.2-4.1,1.1c-2.3,3.1-2.3,7.1-0.6,10.4c1.7,3.4,6.9,0.4,5.2-3
		c-0.8-1.5-0.3-3.1,0.6-4.4C476.3,389.3,475.6,387.3,474.3,386.5z" style="fill:var(--illu-blue--light);"/>
	<path d="M460.5,202.9v6c0,3.9,6,3.9,6,0v-6C466.5,199,460.5,199,460.5,202.9z" style="fill:var(--illu-blue--light);"/>
</g>
</svg>
