<?xml version="1.0" encoding="utf-8"?>
<!-- Generator: Adobe Illustrator 23.0.2, SVG Export Plug-In . SVG Version: 6.00 Build 0)  -->
<svg version="1.1" id="Capa_1" xmlns="http://www.w3.org/2000/svg" xmlns:xlink="http://www.w3.org/1999/xlink" x="0px" y="0px" viewBox="0 0 800 556.9" style="enable-background:new 0 0 800 556.9;" xml:space="preserve">

<g>
	<g>
		<g>
			<path d="M790.7,500c0-1.1-0.2-2.2-1.1-3.1c-23.3-31.9-46.5-64-69.8-95.9L685,353.1c-5.5-7.8-11.1-15.5-16.8-23
				c-4-5.3-7.5-11.3-13.7-14.6c-5.8-3.1-12.4-2.7-18.6-2.4c-10.2,0.4-20.4,1.1-30.8,1.6c-19.7,0.9-39.4,2-59.2,2.9l-118.6,6
				c-41,2-81.8,4-122.8,6c-64.3-2.4-128.5-7.3-192.6-14.4c-2.2-0.2-3.8,0.4-4.9,1.8c-1.6,0.2-3.1,1.3-4,3.1
				c-29.3,55.4-58.3,111-87.5,166.4c-3.1,3.8-6,7.8-8.2,11.7c-1.1,1.1-1.8,2.4-2,4.2v0.2v0.2c-3.5,10-0.4,24.8,6.4,33
				c8.2,10,25.9,7.3,37.2,8c4.7,0.2,9.5,0.7,14.2,0.9c10.9,1.1,21.7,1.6,30.4,2c4,0.2,8,0.4,12,0.7c0.7,0,1.1,0,1.8,0
				c60.1,3.5,120.1,6.2,180.2,7.8c123,3.1,246,2,368.7-3.3c26.4-1.1,54.1-0.9,80.4-3.8c7.3-0.7,14.6-1.3,21.9-2.7
				c8-1.6,19.7-2.9,25-10c6.2-8.2,7.3-21.1,8.4-31C792,502.5,791.6,500.9,790.7,500z" style="fill:#C39A8A;"/>
			<path d="M498.9,463.5c-0.4-8-2.9-16.4-4.4-24.2c-2.9-16.2-6-32.6-8.9-48.8c-1.6-8.4-2.9-17.1-4.7-25.5
				c-0.9-4.4-1.3-8.6-4.9-11.7c-3.5-2.9-8.4-3.1-12.6-3.5c-8.6-1.1-17.3-1.8-25.9-2c-17.3-0.7-34.6,0-51.9,2
				c-1.1,0.2-2.2,0.4-3.1,1.1c-18.6-0.4-37.2-0.2-55.8,0.7c-10,0.4-20.2,0.4-29.9,2c-5.1,0.9-9.1,1.6-12.2,6
				c-4.7,6.2-6.4,15.3-9.1,22.4c-3.5,9.3-7.1,18.8-10.6,28.1c-0.4,1.1-0.9,2.2-1.3,3.3c-9.3,21.1-18.8,41.9-28.6,62.5
				c-1.8,3.8-0.4,8.6,4,9.8c21.5,5.1,42.8,2.4,64.3-0.2l34.8-4.2c5.3-0.7,13.1-0.4,19.5-1.8c32.6-1.3,65.1-2.4,97.7-3.8
				c8.6-0.4,17.3-0.7,25.9-1.1c4.7-0.2,11.7,0.7,15.5-2.9C498.9,469.7,498.9,466.6,498.9,463.5z" style="fill:#FEF5F2;"/>
			<path d="M585.3,144.4c-23.3,12-40.8,33.7-57.6,52.7c-17.7,19.9-35.2,39.7-53,59.6c-15.3-52.5-40.8-104.4-90.6-131.6
				c-1.1-0.7-2-0.7-3.1-0.7c0-0.2-0.2-0.7-0.2-0.9c15.1-7.3,20.2-28.8,19.5-44.1c-0.2-4-0.7-7.8-1.6-11.5c0-2.9,0-5.5,0-8.4
				c-0.9-16.6-9.3-35.2-27.7-37.9c-18-2.6-30.1,14.2-35.9,28.8c-6.9,17.1-8.2,38.3-0.4,55.2c3.8,8.4,11.3,14.8,20.2,18.2
				c0,0.2,0,0.4,0,0.7v5.3c-51.4-3.8-92.2,41.2-124.1,75.6c-18.8,20.2-36.6,41.4-53,63.8c-14.4,19.5-29.9,40.3-31,65.6
				c-1.1,23.7,12.4,41,33.2,51c23.5,11.5,49.4,18.4,75.6,21.5c13.3,1.6,26.6,2,40.1,1.3c7.5-0.4,20.2-0.9,22.4-10.4
				c2.2-9.8-9.3-14-16.2-16.8c-11.7-4.9-23.9-8-36.3-11.1c-14.8-4-29.3-8.9-43-15.5c-6.2-2.9-23-8.6-21.9-17.7
				c0.9-7.1,9.8-14.8,14-20.2c17.7-22.4,35.9-44.1,54.7-65.6c2.7,22.4,4.9,45.2,9.8,67.1c1.8,7.3,5.8,11.5,13.5,12.4
				c14,1.6,28.8,0.7,42.8,0.7c26.8,0.2,53.6,0.2,80.2-0.2c13.3-0.2,26.8-0.4,40.1-0.7c9.8-0.2,20.2-0.2,29.5-4.2
				c10.4-4.4,17.5-13.5,24.8-21.7c9.3-10.4,18.6-20.8,27.7-31.2c16-17.9,32.4-35.2,46.8-54.5c12.6-16.8,23.9-36.3,27.9-57.4
				C615.2,142.8,600.1,136.6,585.3,144.4z" style="fill:#F7D3BD;"/>
			<path d="M476.7,247.7c-15.1-42.8-33-89.3-74.2-113c-1.1-0.7-2.2-0.9-3.3-0.9c-2.2-1.3-5.1-1.6-7.3,0.7
				c-8.9,8-19.3,17.9-32.1,17.5c-11.1-0.2-16.4-10-24.6-15.5c-16.8-11.5-37.7,4-52.1,13.3c-37.2,24.4-66,58.7-94,92.6
				c-1.6,2-2.7,5.1-0.9,7.3c12,16,26.6,29,43.9,38.8c2.4,1.3,5.5,0.9,7.3-0.9c7.1-7.1,14.2-14.4,21.5-21.5
				c1.6,21.1,4.2,41.9,8.4,62.5c0.4,2.7,3.3,4.4,5.8,4.4c54.5,2.9,109,4,163.5,3.3c4.2,0,6.4-3.8,5.8-7.8
				c-2.4-14.8-5.5-29.7-7.5-44.8c-1.6-11.1,8.2-14,16.4-18.2c7.1-3.8,14.2-7.3,21.3-11.1C476,253.2,477.6,250.1,476.7,247.7z" style="fill:#B6C8E8;"/>
			<path d="M377.9,12.8C347.3-0.7,327.2,29,317,53.1c-7.1,16.8-14.8,33.2-23.3,49.4c-7.1,13.5-18.6,27.7-21.3,43
				c-6,34.3,42.1,28.4,61.6,23.7c16.2-3.8,21.3-12.4,23.7-28.4c2.9-18.8,0.7-37.7-5.8-55.4c0-0.2-0.2-0.4-0.2-0.7
				c8-7.1,15.5-14.6,22.2-22.8c4.4,7.1,10,13.3,16.4,18.6c-5.5,2.7-4.7,12.6,2.9,12.6c4.4,0,6.4-3.5,6.4-6.9
				c2.2,0.2,4.7-0.9,5.8-2.9C416.9,60.4,400.9,23,377.9,12.8z" style="fill:#57455E;"/>
			<path d="M363.5,80.1c-8.6,0-8.6,13.3,0,13.3S372.1,80.1,363.5,80.1z" style="fill:#57455E;"/>
			<path d="M391.2,99.2c-5.1-1.1-10.2-1.6-15.3-1.3c-3.5,0.2-6.6,2.9-6.6,6.6c0,3.3,3.1,6.9,6.6,6.6
				c4-0.2,7.8,0,11.7,0.9c3.5,0.9,7.1-1.1,8.2-4.7C396.7,103.8,394.7,99.9,391.2,99.2z" style="fill:#57455E;"/>
			<path d="M557.1,62.6c-1.3-10-2.4-19.9-3.8-30.1c-0.4-3.5-2.7-6.6-6.6-6.6c-16.2-0.2-33.5-2-49.6,1.3
				c-7.8,1.6-11.1,4.2-12.6,8.2c-0.9,1.1-1.6,2.4-1.6,4.2c0.2,10,0.4,19.9,0.7,29.9c0.2,5.8-1.1,13.1,1.3,18.4
				c5.1,10.9,25.9,6.4,35.5,5.8c9.1-0.7,33.9,0.7,37.9-9.5C561.1,78.4,558,69.1,557.1,62.6z" style="fill:#57455E;"/>
			<path d="M563.8,3c-12.4,19.1-24.6,38.1-37,57.2c-3.3-2.7-6-5.5-8.4-9.3c-4.7-7.1-16.2-0.4-11.5,6.6
				c4.9,7.5,10.9,13.3,18.6,17.7c3.3,1.8,7.1,0.7,9.1-2.4c13.5-21.1,27.3-42.1,40.8-63.2C580,2.6,568.4-4.1,563.8,3z" style="fill:#F7D16F;"/>
			<path d="M349.3,432.5c-0.7-3.1-3.5-4.7-6.4-4.9c-0.7,0-1.6-0.2-2.2-0.2c-2.2-0.2-4.4,1.3-5.8,3.3
				c-0.4,0.4-0.9,0.9-1.1,1.3c-2,2.7-2.9,6-2.2,9.3c0.7,4,4.4,6.9,8.4,7.1c3.5,0,6.9-2,8.9-5.1C350.4,440,349.9,436,349.3,432.5z" style="fill:#EF7D95;"/>
			<path d="M356.6,387c-0.9-0.4-1.8-0.9-2.4-1.3c-1.1-0.4-2-0.9-3.1-0.9c-3.3-0.4-6.2,1.6-7.3,4.7
				c-0.9,2.4-1.8,4.9-1.1,7.5c0.9,2.9,3.1,5.1,6,5.8c3.1,0.7,6.2-0.2,8.4-2.4c1.6-1.6,2.4-3.8,2.9-6
				C360.4,391.9,359.5,388.4,356.6,387z" style="fill:#EF7D95;"/>
			<path d="M467.6,426c-4.7-2.9-11.5-0.4-12.9,5.1c-0.7,2.2,0,4.7,1.6,6.4c0.2,0.4,0.2,0.7,0.4,1.1
				c1.3,2.2,3.3,3.8,6,4.4c1.3,0.4,2.9,0.2,4.4-0.4c1.3-0.7,2.2-1.6,3.1-2.7C473.6,435.6,472.3,428.9,467.6,426z" style="fill:#EF7D95;"/>
			<path d="M462.3,387.7c-1.8-2.9-4.7-4.7-8-4.7c-3.5,0-6.9,3.1-6.6,6.6c0,0.7,0.2,1.3,0.4,1.8c0.2,3.3,2.2,6.6,5.1,8
				c1.6,0.7,3.3,1.3,5.1,0.7c1.8-0.7,2.9-1.6,4-3.1C464.1,394.3,464.1,390.4,462.3,387.7z" style="fill:#EF7D95;"/>
			<path d="M430.8,385c-8.9,2-17.9,2.4-27,1.8c-8.6-0.7-8.4,12.6,0,13.3c10.4,0.7,20.4,0,30.6-2.2
				C442.8,396.1,439.2,383.3,430.8,385z" style="fill:#57455E;"/>
			<path d="M437,422.9c-11.5-1.3-22.6-0.4-33.9,2.2c-8.2,2.2-4.9,14.8,3.5,12.9c10-2.7,19.9-3.1,30.4-1.8
				C445.4,437.3,445.4,424,437,422.9z" style="fill:#57455E;"/>
			<path d="M311.8,429.6c-11.1,0.7-22.2,0.9-33.2,0.4c-8.6-0.4-8.6,12.9,0,13.3c11.1,0.4,22.2,0.2,33.2-0.4
				C320.2,442.4,320.5,429.1,311.8,429.6z" style="fill:#57455E;"/>
			<path d="M327.3,392.4h-4.4c-3.5,0-6.9,3.1-6.6,6.6c0.2,3.5,2.9,6.6,6.6,6.6h4.4c3.5,0,6.9-3.1,6.6-6.6
				C333.8,395.5,331.1,392.4,327.3,392.4z" style="fill:#57455E;"/>
			<path d="M371,355.3c-3.3,40.3-4.9,80.9-4.9,121.2c0,8.6,13.3,8.6,13.3,0c-0.2-40.6,1.6-80.9,4.9-121.2
				C385.2,346.9,371.7,346.9,371,355.3z" style="fill:#57455E;"/>
			<path d="M623.6,186.7c-4.4-10-8.6-20.2-12.6-30.6c-3.3-8.4-5.3-19.1-10.6-26.6c-1.8-2.7-4.4-3.5-7.5-3.1
				c-12.6,2.4-4.9,16-1.6,22.6c0.2,0.4,0.7,1.1,0.9,1.3c3.1,8.9,6.2,17.7,9.5,26.4c4.2,11.3,7.3,25.5,14.2,35.5
				c1.3,1.8,3.3,3.5,5.8,3.3C639.3,214.4,627.6,195.4,623.6,186.7z" style="fill:#F7D16F;"/>
			<path d="M632.2,176.5c-2-5.8-4-11.5-6-17.3c-1.6-4.9-2.9-10.9-5.5-15.3c-5.3-9.1-18.6-3.5-26.1-0.9
				c-8,2.9-4.4,15.7,3.5,12.9c2.9-1.1,8-1.3,10.2-3.1c1.1,0.2,1.6-0.2,1.1-1.3c-0.2-1.3-0.2-1.3,0.2,0.2c0.9,1.8,1.6,4.4,2,6.2
				c2.4,7.3,5.1,14.6,7.5,22.2C622.1,188,634.9,184.7,632.2,176.5z" style="fill:#57455E;"/>
			<path d="M633.1,215.7c-0.2-0.9-0.7-1.8-0.9-2.4c-1.1-3.3-4.7-5.8-8.2-4.7c-3.3,1.1-5.8,4.7-4.7,8.2
				c0.2,0.9,0.7,1.8,0.9,2.4c1.1,3.3,4.7,5.8,8.2,4.7C631.8,222.8,634.5,219.1,633.1,215.7z" style="fill:#57455E;"/>
		</g>
		<path d="M448.6,285.5c-8-26.1-14.2-52.5-18.8-79.3c-1.6-8.4-14.2-4.9-12.9,3.5c4.7,26.8,10.9,53.2,18.8,79.3
			C438.1,297.3,451,293.7,448.6,285.5z" style="fill:#57455E;"/>
		<path d="M256,233.3c-1.3,12.4-1.8,24.8-0.9,37.2c0.7,8.4,14,8.6,13.3,0c-0.9-12.4-0.4-24.8,0.9-37.2
			C270.2,224.6,256.9,224.8,256,233.3z" style="fill:#57455E;"/>
		<path d="M457,358.2c-17.9,1.6-35.7,3.3-53.6,4.9c-8.4,0.7-8.6,14,0,13.3c17.9-1.6,35.7-3.3,53.6-4.9
			C465.4,370.6,465.6,357.3,457,358.2z" style="fill:#57455E;"/>
		<path d="M344.8,365.8c-12.4-1.1-24.8-2.4-37.2-3.5c-8.4-0.9-8.4,12.4,0,13.3c12.4,1.1,24.8,2.4,37.2,3.5
			C353.3,379.9,353.3,366.7,344.8,365.8z" style="fill:#57455E;"/>
		<path d="M341.1,455.1c-23.5,2.7-47.2,4.9-70.7,6.9c-8.4,0.7-8.6,14,0,13.3c23.7-2,47.2-4.2,70.7-6.9
			C349.5,467.3,349.5,454,341.1,455.1z" style="fill:#57455E;"/>
		<path d="M472.7,448.4c-24.6,1.6-49.4,1.8-74,0.9c-8.6-0.2-8.6,13.1,0,13.3c24.8,0.9,49.4,0.7,74-0.9
			C481.1,461.3,481.1,448,472.7,448.4z" style="fill:#57455E;"/>
	</g>
	<path d="M792.9,515.1c-50.5,5.1-102.2,3.5-153.1,4.4c-51.2,0.7-102.6,1.6-153.8,2.2c-101.5,1.6-203.4,5.1-304.9,0.4
		c-57.8-2.7-115.2-8.9-172-20.6c-8.4-1.8-12,11.1-3.5,12.9c99.3,20.6,200.8,23.7,301.8,23c103.5-0.7,207-2.9,310.2-4.4
		c58.1-0.9,117.2,1.3,175.1-4.7C801.3,527.5,801.3,514.2,792.9,515.1z" style="fill:#57455E;"/>
</g>
</svg>
