<?xml version="1.0" encoding="utf-8"?>
<!-- Generator: Adobe Illustrator 23.0.2, SVG Export Plug-In . SVG Version: 6.00 Build 0)  -->
<svg version="1.1" id="Capa_1" xmlns="http://www.w3.org/2000/svg" xmlns:xlink="http://www.w3.org/1999/xlink" x="0px" y="0px" viewBox="0 0 800 790" style="enable-background:new 0 0 800 790;" xml:space="preserve">

<g>
	<path d="M799.8,661.5c-5.1-59.1-86.9-57.4-129-59.3c-78.8-3.3-157.7-4.1-236.3-2.3c-17.5,0.4-35,1-52.5,1.6
		c-31.7-1.2-63.6-1.4-95.3-0.2c-67.7,2.7-135.8,12.8-198.8,38.9c-27.4,11.5-56.8,24.9-75.1,49.4c-16.9,22.4-16.5,51,6.4,69.2
		c24.9,20,61.3,25.5,92.2,28.4c37.5,3.5,75.3,2.7,112.8,2.7c78.6,0.2,157.2-0.6,235.7-3.1c71.2-2.3,143.2-7.2,212.4-25.9
		c30.9-8.4,63.8-18.5,90.1-37C782.3,709.6,802.1,688,799.8,661.5z" style="fill:var(--illu-brown--main);"/>
	<g>
		<path d="M646.7,276.4c-14-53.9-25.9-109.3-42.6-162.4C589.7,68.5,556.8,36.8,521.8,6c-2.9-2.5-6.4-1.9-8.4,0.2
			c-1.4,0.6-2.5,1.9-2.9,3.9C495.8,72,443.8,114.4,394,149.2c-2.5,1.6-3.3,4.1-2.9,7c2.9,17.5,14.4,30.9,25.3,44.3
			c7,8.4,14,17.3,17.7,27.8c4.1,11.3,5.1,23.7,6.6,35.6c1.2,11.5,2.5,23.5,1.2,35c-1.4,13-6.6,24.9-12.8,36.4
			c-12.1,22.8-25.1,45.3-37.7,67.9c-2.3,3.9,0.6,9.5,5.4,9.3c47.1-1.6,91-15.6,127.6-45.5c37.9-30.7,77.4-58.9,119.4-83.4
			C646.1,282.2,647.3,279.1,646.7,276.4z" style="fill:var(--illu-red--light);"/>
		<path d="M367,175.3c23.1-13.6,45.9-27.8,67.3-44.3c20.6-15.8,39.5-33.5,55-54.3c14.6-19.6,32.1-46.9,27.8-72.2
			c-0.6-3.3-4.7-5.1-7.6-4.3c-18.9,5.6-28,23.9-39.5,38.1c-13.4,16.5-29,31.3-46.1,43.8c-33.8,24.7-73.7,41.4-115.1,47.1l-1.4-5.1
			c-0.2-0.6-0.4-1.2-0.8-1.6c10.3-12.8,7.4-38.9,5.1-52.3c-1.6-9.1-3.9-22-13.6-26.1c-2.1-0.8-4.1-1.2-6.2-1.2
			c-1.6-1.9-4.5-2.9-7.4-1c-19.3,11.1-24.5,33.3-21.2,54.1c1.9,11.9,8.6,28,20.2,32.7c-0.4,0.2-0.8,0.4-1.2,0.6
			c-25.5,16.1-42.2,44.5-41.4,74.9c0.6,23.1,10.3,43.4,25.7,58.9c-15.4,56.8-32.1,113.4-50,169.4c-27.2-22.2-54.5-44.7-81.7-66.9
			c-7.8-6.4-19.6-21.2-31.1-14.4c-5.1,3.1-8.2,9.5-11.5,14.2l-15.8,23.3c-2.7,4.1,1,9.1,5.4,9.3c7.8,0.2,15-1,22-4.1
			c16.7,22.8,34,45.5,52.1,67.5c15.4,19.1,32.3,45.3,56.8,53.3c25.3,8.4,41.4-12.6,54.1-31.1c10.5-15.2,19.1-31.3,26.1-48.4
			c6.4,77.6,19.3,154.4,38.9,229.7c0.8,2.9,3.3,4.3,6,4.5c23.5,1.9,45.5-5.4,63.8-20c4.5-3.7,0.4-10.3-4.3-10.5
			c-31.1-2.1-35.4-40.3-37.7-64c-2.9-30.3-4.9-60.5-6.2-91c-2.7-60.1-2.3-120.2,1-180.3c0-0.2,0-0.4,0-0.6c12.3,2.7,24.7,4.9,37,7.2
			c32.1,6,69.4,8.2,93.2-18.5c2.9-3.3,2.1-9.3-2.7-10.3c-17.9-3.9-35.8-2.5-53.9-2.1c-16.7,0.4-32.9-1.2-49-6
			c-5.1-1.4-10.3-3.3-15.2-5.4c-1.2-15.6-2.3-31.3-3.5-46.9c-0.6-8.4-1.2-17.1-1.9-25.5c-0.2-3.5-1.9-9.1-0.8-12.3
			C358.8,179.5,363.9,177.2,367,175.3z" style="fill:var(--illu-brown--light);"/>
		<path d="M364.7,530.6c-0.8-12.8-1.9-25.3-3.1-38.1c-4.5-50.6-10.1-101.3-6.6-152.1c0.2-3.5-3.1-6-6.2-6.2
			c-29.6-2.3-58.5-10.1-85.2-23.1c-4.9-2.3-9.3,1.9-9.5,6c-2.1,0.4-3.9,1.6-4.9,3.9c-7.2,17.3-14.2,34.6-21.4,51.9
			c-3.5,8.6-7.2,17.3-10.7,25.9c-2.9,6.8-5.1,15-8.6,21.8c-3.5-2.3-7.8-7.4-9.9-8.9c-4.5-3.7-9.1-7.2-13.6-10.9
			c-8.4-6.8-16.5-14.4-25.5-20.4c-5.4-3.7-10.1-3.5-15.2,0.6c-9.1,7.2-16.9,17.3-25.1,25.5c-1.4,1.6-1.9,3.3-1.6,5.1
			c-0.6,1.2-0.8,2.7-0.4,4.3c3.3,11.1,11.7,20.4,18.5,29.4c7,9.5,14,18.7,21.4,27.8c14,17.1,31.1,39.9,52.3,48.4
			c21,8.2,40.3-7,54.1-21.2c10.5-10.7,18.9-22.8,25.9-35.8c5.4,35.4,10.9,71,16.3,106.4c0.4,2.7,3.5,4.5,6,4.5
			c11.1,0,22.2-1,33.1-3.7c7-1.6,16.3-3.5,19.6-10.9C368.2,552.2,365.3,539.6,364.7,530.6z" style="fill:var(--illu-yellow--main);"/>
		<path d="M412.3,645.6c-4.7-8.2-22.6-12.8-29-5.6c-5.4,6-8,12.1-15.8,15.6c-10.5,4.9-20.4,0.6-30-3.9
			c-4.7-2.3-10.5,1.4-9.1,7c0.4,1.2,0.8,2.7,1,3.9c0,0.4,0,1,0.2,1.4c0.8,2.9,1.4,6.2,2.7,9.1c0.2,0.8,0.4,1.4,0.6,2.3
			c0.6,2.3,2.3,3.7,4.1,4.1c2.1,1.4,4.7,1.9,8.4,1c4.9-1.2,7.8-4.7,8.6-8.9c13.2,1.6,26.6-0.2,39.3-4.5
			C401.6,664.4,419.1,658,412.3,645.6z" style="fill:var(--illu-red--light);"/>
		<path d="M118.2,349.7c-2.5-1.4-4.9-2.9-7.4-4.5c-2.3-1.4-4.9-3.3-7.6-4.1c-5.8-1.4-10.7,4.1-13.4,8.4
			c-0.8,1.4-1,2.7-0.8,3.9c0,1.4,0.6,2.9,1.6,4.1c-4.3,6.2-8.6,12.3-12.8,18.7c-3.3,5.4-9.5,12.6-10.3,18.9
			c-1.9,15.8,22.2,5.1,28.4,3.3c4.7-1.4,5.4-6.6,3.1-9.7c0.2-11.9,8.9-20.4,18.1-27.4c0.4-0.4,0.8-0.6,1-1
			C121.4,357.9,122.7,352.3,118.2,349.7z" style="fill:var(--illu-red--light);"/>
		<path d="M511.7,40.7c-10.3-7-21-12.3-32.5-16.5c-2.7-1-5.6,0.6-7,2.9c-21.2,31.3-51,55-84.8,72
			c-16.5,8.4-34,15-51.7,20.4c-9.1,2.7-18.3,5.1-27.8,7.2c-0.6,0.2-1.9,0.4-3.5,0.8c-8-0.2-16.3-0.2-24.3-0.4
			c-2.3-2.1-5.8-2.7-8.4-0.2c-20,18.7-31.9,44-34.4,71.2c-2.1,23.9,3.3,53.5,23.5,68.5c-5.6,18.3-11.1,36.8-16.7,55.2
			c-1,3.5,1.2,6.4,4.3,7.6c28.2,11.7,61.1,20.8,92,19.8c9.7-0.4,17.9-4.7,20.8-14.6c2.5-8.2,0.8-17.1,2.1-25.3
			c16.9,5.6,36.6,10.1,53.9,8c17.1-2.3,13-26.1,13.6-38.7c0.2-3.5-2.9-6-6.2-6.2c-17.9-0.8-34.6-5.8-50.2-14.6
			c-0.8-11.7-1.9-23.5-2.7-35.2c-0.8-11.1-6.6-33.1,2.9-41c7.8-6.4,17.9-10.7,26.3-16.3c8.9-6,17.5-12.3,25.7-18.9
			C461,119.2,490.5,86,514.1,49C515.8,46.1,514.4,42.4,511.7,40.7z" style="fill:var(--illu-blue--main);"/>
		<path d="M314.9,57c-5.6-10.3-14.2-20-26.8-19.8c-15,0.2-24.7,13.4-30.3,25.9c-6.6,15-12.3,30.5-20.6,44.9
			c-4.1,7.2-8.4,14.2-13.6,20.6c-4.7,6-11.1,11.1-15.4,17.5c-7.4,11.3-2.3,24.1,8,31.5c11.9,8.6,29,10.5,43,6
			c15-4.7,21.4-15.2,22.2-30.7c0.8-18.9-1-38.3-4.5-57c5.8-2.9,10.5-7.2,13.8-12.6c7.2,5.6,16.1,9.1,24.5,3.1
			C325.8,79.2,319.7,66.1,314.9,57z" style="fill:var(--illu-bg--light);"/>
	</g>
	<g>
		<path d="M150.3,607.2c-3.5-9.3-14.8-9.5-21.8-4.7c-5.4,3.5-10.1,8.6-15,12.6c-5.8,4.5-11.5,8.6-17.3,13
			c-10.1,7.8-19.3,16.3-26.6,26.8c-1.6,2.5-1.2,4.9,0.2,6.6c0,0.2,0.2,0.2,0.2,0.4c2.7,4.1,6.8,9.7,11.9,10.5c6,1,10.7-5.4,14.8-8.9
			c5.4-4.7,10.7-9.3,16.1-14c7.2-5.4,14.2-11.1,20.8-17.3C140,626.5,154.2,617.6,150.3,607.2z" style="fill:var(--illu-yellow--main);"/>
		<path d="M135.9,605.7c-16.7,16.3-34.8,30.9-54.3,43.6c-6.6,4.3-0.4,15,6.2,10.7c20.4-13.4,39.3-28.6,56.8-45.7
			C150.3,608.8,141.6,600.2,135.9,605.7z" style="fill:var(--illu-bg--light);"/>
		<path d="M84.4,665c-3.3-3.1-6.6-6-9.9-9.1c-3.1-2.9-7-1.6-9.1,0.8c-1.4,0.6-2.9,1.9-3.5,3.7
			c-1.6,5.1-3.5,10.3-4.9,15.6c-1.4,4.9,3.3,8.4,7.6,7.6c7.4-1.4,14.2-4.9,19.8-9.9C86.9,671.6,86.7,667.2,84.4,665z" style="fill:var(--illu-brown--light);"/>
		<path d="M58.7,675.3c-8,0-8,12.3,0,12.3S66.7,675.3,58.7,675.3z" style="fill:var(--illu-bg--light);"/>
	</g>
	<g>
		<path d="M300.9,735.4c-12.1-7.8-24.5-15-37-22c15-0.8,30.3-2.1,44.7-5.6c6-1.4,6.4-10.3,0.4-11.9
			c-24.7-6.8-50.8-12.1-73.1,2.9c-8.6-4.3-17.3-8.4-25.9-12.3c0.4-1,0.6-2.3,0.4-3.7c-1.6-10.1-6-20.4-15.2-25.5
			c-8-4.5-18.7-4.1-25.1,2.9c-6,6.6-6.4,17.3,0.2,23.5c5.4,4.9,13.8,7,21.8,8.2c9.5,4.1,18.9,8.2,28.2,12.8
			c-14.8,1.9-29.4,5.1-43.4,11.5c-7.8,1.2-14.2,7.4-15.8,15.2c-2.1,10.1,4.3,19.8,13,24.5c1.2,0.6,2.3,0.8,3.3,0.8
			c2.5,0.8,5.1,1.2,7.8,1c10.1-0.2,20.4-7.2,20.8-17.9c0.2-8.2-4.3-13.8-10.5-17.7c12.6-3.9,25.5-5.8,38.7-7
			c1,12.6,7.8,24.3,18.9,30.9c14.2,8.4,30.9,4.7,46.1,0.8C304.4,745.3,305.4,738.3,300.9,735.4z M180.1,667.7
			c3.7-2.9,9.1-0.4,11.9,2.5c2.7,2.7,4.3,6.2,5.1,10.1C188.3,678.6,171.3,674.5,180.1,667.7z M186.3,730.6c2.7,1.2,5.1,2.9,6.2,5.4
			c3.5,8.2-6.4,10.9-11.7,9.1c-8.9-3.3-3.5-9.5,1.4-12.3C183.8,731.7,185,731.5,186.3,730.6z" style="fill:var(--illu-bg--main);"/>
		<path d="M231.6,700.4c-8,0-8,12.3,0,12.3C239.4,712.7,239.4,700.4,231.6,700.4z" style="fill:var(--illu-bg--light);"/>
	</g>
	<g>
		<path d="M706.8,631.8c-0.8-4.9-7.2-5.6-10.3-2.7c-4.3,3.7-8.4,7.2-12.8,10.9c-0.4-4.7-0.6-9.3-0.6-14
			c0-5.1-6.8-8.4-10.5-4.3c-6,6.6-12.1,13.2-18.1,19.8c-3.1-7.6-7-14.6-11.7-21.4c-3.3-4.7-9.5-3.3-11.1,1.4c-2.9,0.4-5.4,2.3-5.4,6
			c0,16.3,1.9,32.3,5.4,48.4c0.4,2.1,2.3,3.9,4.3,4.3c20.2,4.1,41.4,4.3,61.3-1C713.2,674.5,709.1,644.4,706.8,631.8z" style="fill:var(--illu-yellow--main);"/>
		<path d="M676.3,650.6c-0.2-1.4-1.2-2.9-3.1-3.9c-6.6-3.3-13.6,0.2-16.1,7c-1.9,4.9-2.1,13.2,2.1,17.3
			c5.4,5.6,13.6,2.1,16.9-3.9C678.8,661.9,678.8,655.7,676.3,650.6z" style="fill:var(--illu-red--light);"/>
		<path d="M705.4,655.1c-0.8-3.1-4.3-5.4-7.6-4.3c-2.9,1-4.7,3.7-4.5,6.6c-1.4,2.7-0.2,6.6,2.5,8
			c3.1,1.6,6.6,0.6,8.4-2.3C705.8,660.9,706.2,657.8,705.4,655.1z" style="fill:var(--illu-red--light);"/>
		<path d="M636.4,652.4c-3.3,0.2-6.2,2.7-6.2,6.2v2.7c0,3.3,2.9,6.4,6.2,6.2c3.3-0.2,6.2-2.7,6.2-6.2v-2.7
			C642.6,655.3,639.7,652.2,636.4,652.4z" style="fill:var(--illu-red--light);"/>
	</g>
	<path d="M286.7,96.5c-8,0-8,12.3,0,12.3C294.5,108.9,294.7,96.5,286.7,96.5z" style="fill:var(--illu-bg--light);"/>
	<path d="M311.2,93.4h-0.8c-3.3,0-6.4,2.9-6.2,6.2c0.2,3.3,2.7,6.2,6.2,6.2h0.8c3.3,0,6.4-2.9,6.2-6.2
		C317.2,96.3,314.7,93.4,311.2,93.4z" style="fill:var(--illu-bg--light);"/>
	<path d="M312,109.7c-1.9-2.7-5.6-4.1-8.4-2.3c-0.6,0.4-1,0.6-1.6,0.8c-0.2,0-0.8,0.2-1,0.2c0,0-0.8,0.2-1,0.2
		c-0.6,0-1.2,0-1.6,0c-3.3,0-6.4,2.9-6.2,6.2c0.2,3.5,2.7,6.2,6.2,6.2c4.1,0,8-1,11.5-3.1C312.4,116.3,313.9,112.4,312,109.7z" style="fill:var(--illu-bg--light);"/>
	<path d="M374.6,252.5c-36.2-9.5-75.9-20.4-97.4-53.9c-4.3-6.8-15-0.4-10.7,6.2c23.3,36.4,65,49.2,104.6,59.5
		C378.9,266.3,382.2,254.4,374.6,252.5z" style="fill:var(--illu-bg--light);"/>
	<path d="M364.3,301.9c-17.3-3.5-35.4-5.8-52.3-11.3c-17.5-5.8-33.1-17.3-48.8-26.8c-6.8-4.1-13,6.6-6.2,10.7
		c15.6,9.5,31.1,20.6,48.4,26.8c17.7,6.4,37,8.9,55.6,12.6C368.8,315.5,372.1,303.6,364.3,301.9z" style="fill:var(--illu-bg--light);"/>
	<path d="M307.5,378.5c-3.3,14.6-6.8,29-10.5,43.4c-1.9,6.8-3.7,13.8-5.6,20.6c-1,3.7-2.1,7.4-3.1,11.1
		c-0.6,2.1-1,6-1.9,8.2c-2.9,1.6-3.5,5.6-2.1,8.2c0,0.2,0.2,0.4,0.2,0.6c1.9,3.3,7.2,4.1,9.7,1.2c3.9-4.5,4.7-11.3,6.4-16.9
		c2.3-8,4.5-16.3,6.8-24.3c4.3-16.3,8.2-32.7,12.1-49C321.1,374,309.2,370.7,307.5,378.5z" style="fill:var(--illu-bg--light);"/>
	<g>
		<g>
			<path d="M599.6,700.8c-11.1-3.1-22.2-6.4-33.3-9.5c0.2-0.4,0.4-0.8,0.6-1.4c3.3-9.5,2.3-20,2.1-29.8l-1-38.5
				c-1.2-49.4-2.5-98.6-3.7-148c-0.2-7.8-12.6-8.9-12.3-0.8c1.2,46.7,2.3,93.2,3.5,140c0.2,11.5,0.6,23.1,0.8,34.4
				c0.2,10.5,1.6,21.8,0.2,32.3c-2.5,19.6-24.9,21-34.8,35.4c-2.7,3.9,0,9.3,4.7,9.7c25.5,2.1,50.4-2.1,73.9-12.1
				C605.1,710.1,604.7,702.2,599.6,700.8z" style="fill:var(--illu-bg--light);"/>
			<path d="M602.4,260.3c-0.6-0.8-1.4-1.2-2.1-1.6c2.1-6.6,6-13,8.6-19.3c9.5-23.1-3.3-42.4-17.9-59.7
				c-18.7-22-48.2-13.8-73.7-11.7c-2.7,0.2-4.5,1.9-5.4,3.9c-10.1,9.3-16.5,21.8-18.3,35.4c-2.3,16.9,3.3,28.8,10.9,43.2
				c6.2,11.7,0.8,21.8-3.9,32.9c-3.7,8.9-6.8,17.9-9.1,27.2c-4.5,18.1-6.4,36.8-5.8,55.4c0.6,18.5,3.9,37,9.5,54.7
				c5.1,15.6,12.1,36.2,24.5,47.5c11.9,10.9,29.2,9.5,44,7.4c16.7-2.5,33.1-6.4,43.2-21.2c8-11.7,10.3-26.3,11.7-40.8
				C633.3,361.8,639.9,304.8,602.4,260.3z" style="fill:var(--illu-blue--light);"/>
		</g>
		<path d="M566.6,165.7c-11.9,13.4-32.9,16.3-47.3,4.9c-6.2-4.9-15,3.9-8.6,8.6c19.3,15.2,48,14,64.8-4.9
			C580.6,168.3,572,159.7,566.6,165.7z" style="fill:var(--illu-bg--light);"/>
	</g>
</g>
</svg>
