<?xml version="1.0" encoding="utf-8"?>
<!-- Generator: Adobe Illustrator 20.1.0, SVG Export Plug-In . SVG Version: 6.00 Build 0)  -->
<svg version="1.1" id="Capa_1" xmlns="http://www.w3.org/2000/svg" xmlns:xlink="http://www.w3.org/1999/xlink" x="0px" y="0px" width="800px" height="600px" viewBox="0 0 800 600" style="enable-background:new 0 0 800 600;" xml:space="preserve">

<g>
	<g>
		<path d="M360.2,226.2c-0.9-6.8-8-6.5-12.4-3.1c-7.7,6-14.6,13.5-21.5,20.4c-6.1,6-12,12.2-17.8,18.4
			c-4.7-10.1-9.8-20-15.5-29.6c-4.4-7.4-10.2-15.2-19.6-15.5v-2.9c0-0.4-0.1-0.8-0.3-1.2c2.9-2.6,5-6.4,5.7-10
			c1.7-8.9,2.1-20.6-3.1-28.5c0.2-1.7-0.7-3.5-2.9-3.4c-10.1,0.4-16.9,8.7-18.5,18.2c-1.3,7.6-1.4,20.7,6.4,25.2c0,0.1,0,0.2,0,0.3
			v1.1c-11.9-1-21.8,7.9-28.4,17.5c-8.5,12.5-15.1,26.8-18.7,41.5c-3.1,12.5-3.1,27.1,7.9,35.8c3.3,2.6,7.1,4.3,11,5.7
			c-1,26.8-2,53.7-3.1,80.5c-0.5,13.5-1,27-1.5,40.6c-0.3,6.6-0.5,13.2-0.8,19.8c-0.1,2.3,0.3,3.7-1.4,5.3c-1,1-3.2,1.5-4.4,2.1
			c-3.3,1.6-6.5,3.1-9.8,4.7c-2.3,1.1-1.7,5,0.7,5.5c6.3,1.3,12.6,1.6,19,0.6c4.8-0.8,11-1.9,13.7-6.4c3-5.1,3-12.7,4-18.4
			c1.3-7.5,2.6-15,3.9-22.4c4.4-25.7,8.8-51.4,13.2-77c3.9,17,4.7,34.9,8.1,51.9c4.3,21.6,10.4,42.7,18.1,63.4
			c0.5,1.4,1.5,2,2.9,2.2c11.2,1.4,22.4,0.5,33.3-2.5c2.5-0.7,3-4.2,0.7-5.5c-4.7-2.7-9.6-5.4-13-9.7c-3.7-4.6-4.8-10.7-6.1-16.4
			c-2.8-12-5.2-24-7.3-36.1c-4.2-24.3-7-48.8-8.6-73.4c5.2-0.9,10.1-2.7,14.7-5.9c1.8-1.3,2-3.9,0-5.2c-5.6-3.4-12.1-4.8-18.7-5.9
			c-0.7-9.7-1.3-19.4-2-29.1c2.4,3.1,5.1,5.9,8.6,7.9c6.2,3.6,13.7,4,19.8,0c7-4.6,12.5-12.5,17.7-18.9c5.7-7,11.1-14.3,16.1-21.8
			C354.2,240.6,361.1,233.2,360.2,226.2z" style="fill:var(--illu-brown--light);"/>
		<path d="M269.6,165.8c-10.2,2.2-18.4,13.9-19.7,23.8c-0.5,3.5-0.8,8.1,3,9.5c0.5,0.4,1.1,0.7,1.8,0.7
			c1.6,0.1,3.1,0,4.6-0.3c-1.1,1.8-0.2,4.7,2.4,4.7c3.4,0,3.8-4.6,1.3-5.7c2.9-1.1,5.4-2.9,7.5-5.2c1.8,2.5,4.2,4.5,7.3,5
			c5.1,0.8,7.4-3.7,7.5-8.2C285.6,181.2,282.2,163.1,269.6,165.8z" style="fill:var(--illu-bg--light);"/>
		<path d="M373.8,192.8c-0.8-2.4-4.1-3-5.5-0.7c-6.8,11-12.7,22.4-17.7,34.3c-1.5,3.5,3.7,6.6,5.2,3
			c1.6-3.9,3.4-7.7,5.2-11.4C371.2,214.6,377.2,203.2,373.8,192.8z" style="fill:var(--illu-blue--light);"/>
		<path d="M463.2,154.2c-1.3-9.1-3.1-16.7-10.6-22.5c-4.8-3.8-10.3-7.6-16.3-9.3c-0.3-0.3-0.7-0.5-1.2-0.6
			c-14.9-3.9-29.1,4.8-36.2,17.7c-6.7,12.3-10.2,31.2,0.7,42.2c10.7,10.8,31.4,14.1,45.3,8.6C460.2,184.1,465.4,169.8,463.2,154.2z" style="fill:var(--illu-brown--main);"/>
		<path d="M456.2,153.9c-1.4-12.7-11.9-21.2-23.8-21.7c-0.3-1-1.2-1.8-2.7-1.7c-14.1,1.1-25.6,11.7-26.6,26.1
			c-0.5,6.9,1.5,14.3,7.1,18.8c6,4.8,15.3,8.5,23.1,8.4C447.5,183.7,457.7,167.2,456.2,153.9z" style="fill:var(--illu-white--main);"/>
		<path d="M319.4,450c-8.4-41.5-16.7-83.1-25.1-124.6c-0.5-2.4-2.9-2.6-4.5-1.6c0,0,0,0-0.1,0
			c-18.8,2.3-36.9-5.1-55.6-5.2c-0.6,0-1.2,0.2-1.6,0.5c-1.3,0.2-2.6,1.1-2.7,2.8l-9.8,135.9c-0.1,1.2,1,2.7,2.2,2.9
			c8.6,1.2,17.2,2.3,25.8,3.5c1.6,0.2,3.2-0.4,3.7-2.1c7-25.8,12.6-51.9,16.7-78.3c2.2,17.1,4.7,34.1,7.5,51c1,5.9,1.9,11.7,3,17.6
			c0.7,3.8,2,7.2,6.2,8c4.1,0.8,9-1.3,13-2.2c6.4-1.5,12.8-3,19.2-4.5C319,453.3,319.8,451.5,319.4,450z" style="fill:var(--illu-bg--main);"/>
		<path d="M431.9,150.2c-0.5,0.9-1,1.8-1.5,2.6c-0.4-1.9-0.7-3.8-0.8-5.8c-0.2-3.8-6.2-3.9-6,0
			c0.3,5.1,1.5,9.9,3.5,14.6c0.9,2.1,4.2,1.8,5.2,0c1.6-2.8,3.2-5.6,4.8-8.4C439,149.8,433.9,146.8,431.9,150.2z" style="fill:var(--illu-red--light);"/>
		<path d="M573.3,345.9c0-20.7-3.2-41.3-9.2-61.1c-0.5-10-4.6-19.9-13.1-27.5c-0.3-0.3-0.7-0.5-1.1-0.6
			c6.4-4.8,7.4-16.2,6.4-23.3c-0.7-5-1.9-11.1-6.1-14.5c-2.3-1.8-4.9-2.5-7.5-2.1c-7-3.7-12.1,14.2-12.9,18.7
			c-1.3,7.8,0.4,19.1,8,22.5v0.3c-0.5,0.2-1,0.7-1.3,1.3c-6.8,14.4-10.2,29.9-9.8,45.7c-11.2,5.2-23.1,8.7-35.3,10.3
			c-7,0.9-13.9,0.8-20.9,1c-6,0.1-11.9,0.9-16.9,4.6c-1.5,1.2-2.1,3.2-0.6,4.7c9.8,10.1,26.5,6.4,38.9,5.4c11.3-0.8,23.3-1,34.6-3.3
			c-0.2,2.8-0.3,5.5-0.5,8.3c-12.2,3.3-25.1,5.9-36.7,10.7c-10,4.2-16.6,11.8-19,22.4c-2.7,11.8-1.4,24.5-0.2,36.4
			c1.3,13.2,3.6,26.3,6.8,39.2c-5.7,0.8-10.8,3.4-15,7.5c-1.5,1.4-1,4.7,1.3,5c8.9,1.3,17.9,2,27,1.5c2.5-0.1,6.1,0.1,8.1-1.8
			c2.5-2.4,1.7-6.4,1.5-9.5c-0.6-9.8-1.1-19.5-1.5-29.3c-0.2-4.6-0.3-9.1-0.4-13.7c-0.1-5-1-10.7-0.3-15.7c0.5-3.7,1.7-5.1,5.3-5.6
			c2.3-0.3,4.5-0.4,6.8-0.3c4.8,0,9.6,0.3,14.5,0c8.6-0.5,17.1-2.2,25.2-5.1c6.7-2.4,14.3-5.4,19-10.9
			C573.6,361.2,573.3,353.1,573.3,345.9z" style="fill:var(--illu-brown--light);"/>
		<path d="M515.5,332c-0.1-1.6-1.3-3-3-3c-39.6,0-79.1-0.6-118.7-1.8c-19.1-0.6-38.4-2-57.5-0.8
			c-19.3,1.2-38.5,3.5-57.7,5.3c-3,0.3-3.6,4-2,5.4c-0.2,4.9-1.2,12.8,4.9,13.9c4,0.8,8.7,0.3,12.8,0.4c4.6,0.1,9.2,0.2,13.8,0.3
			c18.8,0.5,37.6,1,56.5,1.3c4.6,0.1,9.1,0.1,13.7,0.2c1,30.8,1.7,61.7,2.2,92.5c-5.2,1.3-10.4,2.7-15.6,4c-3.7,1-8.2,2.4-9.9,6.2
			c-4.2,9.5,12.1,11.4,17.7,11.6c12.8,0.6,25.7,0,38.5-0.3c6.6-0.1,13.2-0.3,19.8-0.5c5.2-0.2,10.1-0.5,14.7-3.1
			c1.1-0.6,1.8-2.2,1.4-3.4c-2.6-7.9-10.7-9.9-18.1-10.8c-6.3-0.8-12.6-1.5-18.8-2.2c-1.3-0.2-6.2-0.3-6.9-1.3
			c-0.5-0.7-0.3-2.7-0.3-3.4c-0.2-3.6-0.4-7.2-0.5-10.7c-1.2-26.1-1.1-52.3,0-78.5c24.8-0.1,49.5-0.7,74.2-2.5
			c10.1-0.7,20.2-1.6,30.3-2.7c2.9-0.3,6.6-0.3,8.2-3.2C517.1,341.6,515.6,335.7,515.5,332z" style="fill:var(--illu-brown--main);"/>
		<path d="M592.6,311.1c0-4.8-0.1-9.6-0.5-14.4c-0.3-4.2-0.3-9-2.2-12.8c-2.5-5-8.4-7.1-12.1-1.9c-5,7-4.5,18.5-5,26.7
			c-1.4,23.3-2.9,46.6-4.3,70c-12,1.3-24,1.6-36,0.9c-8.4-0.5-20.7-4.2-24.4,6.2c-1.6,4.5-1.2,9.6-1.2,14.3c0,6.1,0,12.3,0,18.4
			c0,2.2,0.1,4.3,0.2,6.5c-0.5,0.5-0.9,1.2-0.8,2.2c0.4,5,0.8,10,1.2,15c0.3,4.2,0.3,8.6,1.5,12.7c0.2,0.6,0.4,1.2,0.7,1.8
			c0,0.1,0,0.2,0,0.3c0.1,1,0.6,1.6,1.2,1.9c2.3,3.3,6.1,5.3,10.4,3c7.3-4,5-14.5,4.6-21.2c-0.6-9.8-1.2-19.7-1.8-29.5
			c8.6-0.5,17.3-1.1,25.9-1.6c4.5-0.3,9-0.6,13.6-0.8c0.6,0,5.3-0.9,5.8-0.4c0.1,0.1,0.2,4.7,0.3,5.7c0.7,8.8,1.2,17.5,2.1,26.3
			c0.7,6.8,2.1,13.1,6.5,18.5c0.8,1,2.6,1.1,3.6,0.5c6.2-3.8,5.8-15.1,6.4-21.5c1.1-10.5,1.2-21,1.1-31.5
			c-0.2-21.2-0.1-42.2,1.5-63.4C591.8,332.3,592.5,321.7,592.6,311.1z" style="fill:var(--illu-brown--main);"/>
		<path d="M558.3,210.1c-4.3-2.5-9.2-0.5-12.1,3.1c-0.3,0.3-0.5,0.7-0.7,1c-3.4-0.4-7.2,1.6-10,3.8
			c-5.9,4.5-10.1,10.2-9.5,17.9c0.2,2.4,2.5,3.3,4.2,2.7c1.6-0.3,3.1-0.8,4.4-1.6c1.2,1.9,2.5,3.7,4.1,5.3c-1.1,0.4-2.1,1.5-2,2.8
			c0.1,1.6,1.3,3,3,3h0.7c1.4,0,2.8-1.2,3-2.6c2.3,0.9,4.9,1.1,7.7-0.1c8.3-3.4,6.8-13.5,4-20.1c-0.1-0.3-0.3-0.6-0.4-0.9
			c2.3-0.6,4.5-1.8,5.7-3.1C563.7,217.9,562.3,212.5,558.3,210.1z" style="fill:var(--illu-bg--light);"/>
		<path d="M432.7,295.3c-0.7-4.7-4.3-9-8.2-11.9c5.6-5,13.4-14.3,4.7-17.4c-7-2.5-14.5,3.8-18.5,10
			c-0.1-1.1-0.7-2.1-2.2-2.3c-12.5-2-25.1,0.2-36.2,6.3c-9.9,5.5-21.8,16.1-24.3,27.7c-1.3,6,3.6,10.1,8.6,12.3
			c7.1,3.2,14.7,5.2,22.3,6.4c14.1,2.2,30.3,1.8,43.6-3.8c5.9-2.5,11.8-6.6,13.7-13.1C437.9,304.2,436.3,299.1,432.7,295.3z" style="fill:var(--illu-brown--light);"/>
		<path d="M446.1,252.9c-1.5,0.2-3.1,0.6-4.7,0.9c0-0.6,0-1.1,0-1.4c-0.3-1.4-0.8-2.6-1.5-3.8c-1.3-2.2-4.8-1.8-5.5,0.7
			c-0.4,1.6-0.6,3.2-0.5,4.9c0.1,0.9,0.6,1.9,0.8,2.8c-2.1,2.2-4.8,4.1-7,6.1c-2.9,2.6,1.4,6.8,4.2,4.2c2.2-2,5.5-4,7.5-6.4
			c0.2,0,0.4,0,0.7-0.1c2.5-0.7,5.1-1.4,7.6-2C451.5,257.7,449.8,252.3,446.1,252.9z" style="fill:var(--illu-white--main);"/>
		<path d="M443.2,318c-31.3,1.7-62.7,2.2-94.1,1.4c-0.7,0-1.3,0.2-1.8,0.5c-0.2,0-0.3,0-0.5,0c-3.3-0.4-4.1,5.3-0.8,5.9
			c19.3,3.2,38.7,5,58.3,5.2c9.6,0.1,19.3-0.1,28.9-0.7c4.6-0.3,13.1-1.1,12.2-7.2c0.2-0.2,0.3-0.3,0.5-0.5
			C447.1,320.7,445.3,317.8,443.2,318z" style="fill:var(--illu-blue--light);"/>
		<path d="M472.9,292.5c-0.4-3.5-5.6-3.8-6-0.8c0-0.4,0.1-0.9,0.1-1.3c0.3-3.7-5.3-3.8-5.9-0.4
			c-1.3-1.2-3.5-1.4-4.7,0.5c-2.7,4.4-0.3,10.2,4.2,12.1c0.1,4.4,0.3,8.8,0.8,13.1c0.4,3.8,6.4,3.8,6,0c-0.5-4.4-0.7-8.7-0.8-13.1
			C470.6,301.3,473.4,296.9,472.9,292.5z" style="fill:var(--illu-blue--light);"/>
		<path d="M575.5,344.7c-0.1-10.3-0.7-20.5-1.8-30.7c-1-9.2-2.3-18.4-3.9-27.4c-1.5-8.1-2.8-17.1-8.1-23.8
			c-4.2-5.2-10.8-8.7-17.6-7.1c-6.1,1.4-10.6,6.4-13.3,11.8c-3.6,6.9-5.2,14.8-6.2,22.5c-0.5,3.7-0.1,8.3-1.6,11.8
			c-2,4.6-9.1,4.4-13.3,5.1c-11,1.7-39.2,2.2-35.8,20.2c1.5,7.9,11,7.2,17.4,7c4.2-0.1,8.5-0.7,12.6-1.7c5-1.2,10.3-4.4,15.5-4
			c1.9,0.1,5.5,1.5,5.3,4.1c-0.2,2.6-4.8,3.4-6.7,4.1c-4,1.4-8.2,2.4-12.3,3.4c-8.1,2-16.3,4.1-23.5,8.5
			c-15.3,9.4-19.4,27.2-22.2,43.7c-0.3,1.5,0.4,3.3,2.1,3.7c4.3,1,8.7,2,13,2.9c0.7,0.2,1.3,0.1,1.9-0.2c7,2,13.9,4,20.9,6.1
			c2.4,0.7,4-1.5,3.7-3.7c-1.3-8.1-1.7-18.9,9.2-18.9c9.6,0,19.5,1.7,29,2.6c12.4,1.1,31.7,4,34.9-12.5
			C576.2,363.3,575.6,353.6,575.5,344.7z" style="fill:var(--illu-red--light);"/>
		<path d="M531.1,242.2c-1.6,0.1-3,1.3-3,3v0.7c0,1.6,1.4,3.1,3,3c1.6-0.1,3-1.3,3-3v-0.7
			C534.1,243.6,532.7,242.1,531.1,242.2z" style="fill:var(--illu-bg--light);"/>
		<path d="M538.4,249.5h-3.3c-1.6,0-3.1,1.4-3,3c0.1,1.6,1.3,3,3,3h3.3c1.6,0,3.1-1.4,3-3
			C541.3,250.9,540.1,249.5,538.4,249.5z" style="fill:var(--illu-bg--light);"/>
		<path d="M552.4,281.2c-0.4-3.8-6.5-3.8-6,0c1.3,10.6,1.2,22.5-2.5,32.7c-4.2,11.7-18,12.7-28.5,13.1
			c-3.8,0.2-3.9,6.2,0,6c11.4-0.5,24.9-1.7,31.8-12.2c3.4-5.2,4.4-12,5.2-18.1C553.3,295.6,553.2,288.4,552.4,281.2z" style="fill:var(--illu-bg--light);"/>
		<path d="M395.1,353.5c-4.3,0.3-8.4-0.1-12.5-1.4c-3.7-1.1-5.3,4.6-1.6,5.8c4.6,1.4,9.3,2,14.1,1.6
			C398.9,359.2,398.9,353.2,395.1,353.5z" style="fill:var(--illu-bg--light);"/>
		<path d="M392.1,448.6c-4.6,1.5-9.3,0.3-12.5-3.3c-2.6-2.9-6.8,1.4-4.2,4.2c4.6,5.1,11.9,7,18.4,4.9
			C397.4,453.2,395.8,447.4,392.1,448.6z" style="fill:var(--illu-bg--light);"/>
		<path d="M423.8,288.5c-0.6-3.8-6.4-2.2-5.8,1.6c2.1,12.8-15.8,22.6-25.7,14.5c-5.3-4.3-5.4-10.9-0.8-15.7
			c3.4-3.6,9.9-8.8,15.1-8.4c3.9,0.3,3.8-5.7,0-6c-7.8-0.5-17.8,7-21.9,13.4c-4.6,7.1-2.6,16.3,4,21.5
			C403.4,321,426.8,306.6,423.8,288.5z" style="fill:var(--illu-brown--main);"/>
		<path d="M368.3,297.7c-0.8-1.3-2.7-2-4.1-1.1c-1.6,1.1-3,2.6-3.8,4.3c-0.7,1.4-0.4,3.3,1.1,4.1
			c1.3,0.7,3.4,0.4,4.1-1.1c0.1-0.3,0.3-0.6,0.4-0.8c0.1-0.1,0.2-0.3,0.3-0.4c0.2-0.2,0.4-0.5,0.6-0.7c0.1-0.1,0.2-0.2,0.3-0.3
			c0,0,0,0,0.1,0C368.5,300.9,369.3,299.2,368.3,297.7z" style="fill:var(--illu-brown--main);"/>
		<path d="M379.2,306.4c-0.2-0.7-0.7-1.5-1.4-1.8c-1.5-0.8-3.1-0.3-4.1,1.1c-0.5,0.7-0.9,1.3-1.4,2
			c-0.4,0.6-0.5,1.6-0.3,2.3c0.2,0.7,0.7,1.5,1.4,1.8c1.5,0.8,3.1,0.3,4.1-1.1c0.5-0.7,0.9-1.3,1.4-2
			C379.4,308.1,379.4,307.1,379.2,306.4z" style="fill:var(--illu-brown--main);"/>
		<path d="M380.3,283.7c-0.9-1.4-2.7-1.9-4.1-1.1c-1.1,0.7-2.2,1.3-3.3,2c-1.3,0.8-2,2.7-1.1,4.1
			c0.9,1.4,2.7,1.9,4.1,1.1c1.1-0.7,2.2-1.3,3.3-2C380.6,287,381.2,285,380.3,283.7z" style="fill:var(--illu-brown--main);"/>
		<path d="M575,405.9c-19.3,1.5-38.6,1.8-58,0.9c-3.9-0.2-3.9,5.8,0,6c19.3,0.9,38.7,0.6,58-0.9
			C578.9,411.6,578.9,405.6,575,405.9z" style="fill:var(--illu-bg--light);"/>
		<path d="M503.2,451.8c-0.5-3.8-1.2-7.5-1.9-11.3c-0.4-1.8-2.9-2.9-4.4-1.8c-4.2,2.9-8.3,5.8-12.5,8.6
			c-0.8,0.5-1.5,0.9-2.2,1.3l-4.3-48.7c-0.3-3.8-6.3-3.9-6,0c1.5,16.5,2.9,33.1,4.4,49.6c-1.8-0.4-3.6-1.3-5.8-2.6
			c-1.5-0.9-2.9-0.4-3.7,0.7c-3.9,1.5-8.7,3.7-10.7,7.4c-2.1,3.9,0.6,7.5,4.1,9.1c8.8,4.1,19.9,3,29-0.5c0.4,0.8,1.1,1.4,1.9,1.6
			c4.3,0.7,11.7,1,12.9-4.5C504.5,457.9,503.6,454.5,503.2,451.8z" style="fill:var(--illu-bg--light);"/>
		<path d="M348.2,248.8c-3.9-4.7-7.9-9.3-11.8-14c-1.1-1.2-3.2-1.1-4.2,0c-6.9,6.8-13.8,13.6-20.8,20.4
			c-6.9-17.1-16.3-34.2-34.8-40.4c-1.2-0.4-2.8,0.2-3.4,1.4c-1.1,2.2-2.2,4.4-3.4,6.5c-0.6,1-3.6,6.3-3.6,6.3c0.2,0-2-3.8-2.6-4.9
			c-1.3-2.5-2.2-5.1-3-7.7c-0.7-2.2-3-2.5-4.5-1.7c-0.6-0.3-1.2-0.4-2-0.2c-5.3,1.4-10.5,3-14.9,6.6c-4.4,3.7-7.7,8.6-10.6,13.5
			c-6.4,10.5-10.8,22-14.7,33.5c-3.5,10.3-8.5,22.3-3.6,33c2,4.3,5.3,7.8,9.1,10.6c1.9,1.4,4,2.6,6.2,3.7c3.3,1.6,3.9,1.2,2.6,5.1
			c-0.6,1.7,0.7,3.1,2.1,3.7c4.3,1.7,8.7,1.6,13.2,1c5.7-0.7,11.2-1.3,17-1c11.1,0.5,21.4,5.1,32.4,5.6c1.5,0.1,3.2-1.4,3-3
			c-0.1-1.3-0.3-2.7-0.4-4c0.1-6.8-0.2-13.6-0.9-20.4c-0.5-5.3-2.1-11-2.2-16.4c11.8,7.7,27.7,4.9,37.8-5.3
			c3.6-3.6,6.7-7.6,9.9-11.4c3.2-3.8,7.2-7.6,9.8-11.8C351.7,254,350.5,251.6,348.2,248.8z" style="fill:var(--illu-blue--main);"/>
		<path d="M318.1,292.4c-0.6,1.8-2.1,2.6-3.9,2.9c0.2-0.4,0.5-0.8,0.7-1.2c2-3.3-3.2-6.3-5.2-3c-0.4,0.7-0.8,1.4-1.2,2
			c-0.5-0.9-0.6-2,0.2-3.3c2.1-3.2-3.1-6.3-5.2-3c-2.7,4.2-1.3,9,2.1,11.9c-1.5,3.3-2.7,6.8-3.5,10.4c-0.9,3.8,4.9,5.4,5.8,1.6
			c0.8-3.3,1.9-6.5,3.2-9.5c5.3,0.8,11-1.9,12.7-7.2C325.1,290.3,319.3,288.7,318.1,292.4z" style="fill:var(--illu-blue--light);"/>
		<path d="M277.1,198.2c-3.9,0-3.9,6,0,6C280.9,204.2,280.9,198.2,277.1,198.2z" style="fill:var(--illu-bg--light);"/>
		<g>
			<path d="M273.6,210.1C274.1,210.2,273.9,210.2,273.6,210.1L273.6,210.1z" style="fill:var(--illu-bg--light);"/>
			<path d="M275.2,204.3c-2.5-0.5-5.1,0.2-6.9,2.1c-1,1.2-1.2,3.1,0,4.2c1.1,1,3.1,1.2,4.2,0c0.1-0.1,0.2-0.2,0.3-0.3
				c0.1-0.1,0.2-0.1,0.3-0.1c0.1,0,0.2-0.1,0.3-0.1c0.1,0,0.1,0,0.1,0c0,0,0.1,0,0.1,0c0,0,0,0-0.1,0c1.5,0.3,3.3-0.4,3.7-2.1
				C277.6,206.5,276.8,204.7,275.2,204.3z" style="fill:var(--illu-bg--light);"/>
		</g>
		<path d="M292.3,304c-7.8-1.4-16-2.5-24.2-4c0,0,0-0.1,0-0.1c-0.3-19.3-0.5-38.7-0.8-58c2.1,1.5,4.4,2.3,6.6,1.2
			c3-1.5,3.2-6,3.6-8.8c0.7-4.8,0.8-9.6,0.4-14.4c-0.3-3.8-6.3-3.9-6,0c0.4,5.2,0.3,10.3-0.6,15.4c-0.1,0.6-0.2,1.1-0.3,1.7
			c0,0,0,0.1,0,0.1c-0.4-0.5-1.7-1.5-1.8-1.7c-0.7-0.7-1.3-1.4-1.9-2.2c0-0.4,0-0.8,0-1.2c0-1.6-1.1-2.5-2.3-2.8
			c-0.9-0.9-2.6-1-3.6-0.4c-1.4,0.9-2.9,1.9-4.4,2.6c-2.3,1.1-2.4,1.5-2.5-1c-0.1-3.5,1.6-7.8,2.9-11c1.4-3.6-4.4-5.2-5.8-1.6
			c-1.7,4.6-5.6,14.4-2.2,19.1c2.9,4,8.1,1.5,12-1c0.3,21,0.6,42,0.9,63c-8-1.7-15.7-3.9-22.9-7.3c1-11.9,1.9-23.8,2.9-35.6
			c0.3-3.8-5.7-3.8-6,0l-2.7,32.6c-3.2-1.3-5.8,3.5-2.6,5.4c0.8,0.5,1.6,0.9,2.4,1.3c0.5,1.1,1.7,1.6,2.9,1.5
			c14.5,7,31.2,9.2,47.1,11.9c-0.8,6-0.8,12-0.2,18c0.4,3.8,6.4,3.8,6,0c-0.6-5.7-0.6-11.4,0.1-17c0.5,0.1,1,0.2,1.5,0.3
			C294.4,310.5,296.1,304.7,292.3,304z" style="fill:var(--illu-bg--light);"/>
		<path d="M251.9,321.4c-7.8-1.1-15-3.7-21.8-7.8c-3.3-2-6.3,3.2-3,5.2c7.2,4.3,14.9,7.2,23.2,8.4
			C254.1,327.8,255.7,322,251.9,321.4z" style="fill:var(--illu-bg--light);"/>
		<path d="M312.7,256.5c-0.2-1.6-1.3-3-3-3c-1.5,0-3.2,1.4-3,3c0.2,2.2,0,4.4-0.9,6.5c-0.7,1.5-0.4,3.2,1.1,4.1
			c1.3,0.7,3.4,0.4,4.1-1.1C312.3,263,313,259.9,312.7,256.5z" style="fill:var(--illu-bg--light);"/>
		<path d="M294.3,286.5c-1.7-12.4-3.5-24.9-5.2-37.3c-0.5-3.8-6.3-2.2-5.8,1.6c1.7,12.4,3.5,24.9,5.2,37.3
			C289,291.9,294.8,290.2,294.3,286.5z" style="fill:var(--illu-bg--light);"/>
		<path d="M343.7,258.3c-4.3-6.8-8.9-13.3-13.6-19.8c-2.3-3.1-7.5-0.1-5.2,3c4.8,6.4,9.3,13,13.6,19.8
			C340.6,264.6,345.8,261.6,343.7,258.3z" style="fill:var(--illu-bg--light);"/>
		<path d="M273.7,395.2c-1.4-12.2-1.9-24.4-1.6-36.6c0.1-3.9-5.9-3.9-6,0c-0.3,12.2,0.3,24.5,1.6,36.6
			C268.1,399,274.1,399,273.7,395.2z" style="fill:var(--illu-bg--light);"/>
		<path d="M239,327.7c-1.2,5.2-4.1,9.6-8.7,12.5c-3.3,2.1-0.2,7.3,3,5.2c5.8-3.7,9.9-9.4,11.5-16.1
			C245.7,325.5,239.9,323.9,239,327.7z" style="fill:var(--illu-bg--light);"/>
		<path d="M248.5,467.7c-0.2-1.2-1.7-2.3-2.9-2.2c-7.5,0.5-14.2-1.2-21.5-1.9c-0.1,0-0.2,0-0.3,0
			c-0.5-1.3-1.7-2.4-3.5-1.8c-4.1,1.2-11.9,4.4-12.8,9.4c-0.9,4.9,5.4,6.6,9,7.1C224.7,479.4,250.5,482,248.5,467.7z" style="fill:var(--illu-brown--main);"/>
		<path d="M339.2,463.5c-0.3-3.5-4.7-6.2-7.2-8.1c-3.2-2.3-6.7-4.9-10.7-3.1c-2.4,1-4.3,2.6-6.8,3.4
			c-2.4,0.8-4.8,1.2-7.2,1.7c-4.9,1-9.6,2.1-13.9,4.8c0,0,0,0,0,0c-1.6,0.3-3.1,1.7-2.7,3.7c0.8,3.9,3.9,6.1,7.7,6.7
			c5.8,0.9,12.4,0.1,18.2-0.3C321.8,472,340.1,472.3,339.2,463.5z" style="fill:var(--illu-brown--main);"/>
		<path d="M322.5,449.7c-1.1-1-3.2-1.3-4.2,0c-1.3,1.6-2.6,3.1-4,4.7c-1,1.2-1.3,3.1,0,4.2c1.1,1,3.2,1.3,4.2,0
			c1.3-1.6,2.6-3.1,4-4.7C323.5,452.8,323.7,450.9,322.5,449.7z" style="fill:var(--illu-bg--light);"/>
		<path d="M329.6,454.3c-0.9-1.3-2.7-2-4.1-1.1c-2.4,1.5-4.1,3.8-4.7,6.5c-0.3,1.5,0.5,3.3,2.1,3.7
			c1.5,0.3,3.3-0.5,3.7-2.1c0-0.2,0.1-0.4,0.1-0.6c0,0,0.1-0.3,0.2-0.4c0-0.1,0.1-0.2,0.1-0.3c0.1-0.2,0.2-0.4,0.4-0.6
			c0,0,0,0,0-0.1c0.1-0.1,0.3-0.3,0.4-0.4c0,0,0.2-0.2,0.4-0.3c0.1-0.1,0.4-0.3,0.4-0.3C329.9,457.6,330.5,455.7,329.6,454.3z" style="fill:var(--illu-bg--light);"/>
		<path d="M228.1,465c-0.5-1.3-1-2.6-1.5-3.9c-0.6-1.5-2-2.6-3.7-2.1c-1.4,0.5-2.7,2.1-2.1,3.7c0.5,1.3,1,2.6,1.5,3.9
			c0.6,1.5,2,2.6,3.7,2.1C227.4,468.3,228.7,466.6,228.1,465z" style="fill:var(--illu-bg--light);"/>
		<path d="M220.9,468.4c-0.7-1.3-1.4-2.6-2.1-3.9c-0.7-1.4-2.8-1.9-4.1-1.1c-1.4,0.9-1.9,2.6-1.1,4.1
			c0.7,1.3,1.4,2.6,2.1,3.9c0.7,1.4,2.8,1.9,4.1,1.1C221.3,471.6,221.7,469.9,220.9,468.4z" style="fill:var(--illu-bg--light);"/>
	</g>
	<path d="M431.7,134.5c-3.9,0-3.9,6,0,6C435.5,140.5,435.5,134.5,431.7,134.5z" style="fill:var(--illu-bg--light);"/>
	<path d="M452.1,156.4c-3.9,0-3.9,6,0,6C456,162.4,456,156.4,452.1,156.4z" style="fill:var(--illu-bg--light);"/>
	<path d="M430.5,175.2c-3.9,0-3.9,6,0,6C434.4,181.2,434.4,175.2,430.5,175.2z" style="fill:var(--illu-bg--light);"/>
	<path d="M408.3,155.3c-3.9,0-3.9,6,0,6C412.2,161.3,412.2,155.3,408.3,155.3z" style="fill:var(--illu-bg--light);"/>
</g>
</svg>
