<?xml version="1.0" encoding="utf-8"?>
<!-- Generator: Adobe Illustrator 23.0.2, SVG Export Plug-In . SVG Version: 6.00 Build 0)  -->
<svg version="1.1" id="Capa_1" xmlns="http://www.w3.org/2000/svg" xmlns:xlink="http://www.w3.org/1999/xlink" x="0px" y="0px" viewBox="0 0 800 595.6" style="enable-background:new 0 0 800 595.6;" xml:space="preserve">

<path d="M711.6,417.7c-21.8-15.4-49.5-19-75.2-23.5c-30.8-5.3-61.6-10.7-92.3-15.9c-30.3-5.3-60.6-11.2-91.2-13
	c-57-3.3-113.1,10.8-165,33.2c-7.8,3.3-15.5,6.9-23.1,10.7c-52.9,5.9-105.5,17.1-155.5,34.9c-39.8,14.1-83.5,36.7-100.7,77.8
	c-7.6,18-10.4,42,3.6,57.8c7.8,8.9,19.8,11.6,31.1,12.3c15.1,1.2,30.5,1,45.7,1c62.5-0.1,125.1-2.6,187.6-4.1
	c62.6-1.5,125.3-3.5,187.8-7.4c56.3-3.6,113.3-8.5,167.6-25c25-7.6,50.7-17.3,72.5-32.1c17.6-11.9,34-28.7,36.6-50.8
	C743.3,451,729.4,430.3,711.6,417.7z" style="fill:#B6C8E8;"/>
<g>
	<path d="M323.4,425c-0.3-49.7-3.5-99.3-9.8-148.6c-3.5-27.2-7.8-54.2-13.1-81c-1.3-6.7-2.7-13.2-4.1-19.9
		c-1.3-5.9-2.1-12.4-4.5-18.1c-3.2-7.6-11.9-12.3-18.9-6c-1.8,1.5-1.3,3.6-0.1,4.9c9.2,48.6,10.1,98.4,7.3,147.7
		c-1.4,25-3.9,50.1-6.7,74.9c-1.3,11.9-2.7,23.7-4.2,35.7c-0.8,6.3-1.5,12.6-2.3,19c-0.8,5.9-2.2,12.3-1.4,18.4
		c2.2,16.4,21.2,17.1,34,14.4c7.4-1.7,16.9-4.1,20.9-11.3C325.4,446.5,323.4,434,323.4,425z" style="fill:#F7D3BD;"/>
	<path d="M420.9,177c-29.3-26.3-69.6-51.2-109.2-36.4c12.6-37.6,34.4-71.6,63.3-98.8c2.6-2.4-0.1-7.6-3.6-6.2
		c-35.7,13.9-78.3,33.5-88.8,72.8c-20-43.2-67.6-72.1-115.6-67.6c-4.2,0.4-4.9,5.6-1,7.2c37.9,15.7,64,49.2,87.7,81.4
		c-47,6.3-76.6,48.3-100.5,85.7c-2.6,4,3.7,7.7,6.3,3.7c20.7-31.6,55.2-52.6,92.4-57c-17.7,20.5-28,46.6-30.9,73.5
		c-3.9,34.5,4.9,69.2,19.3,100.4c1.7,3.6,6.7,1.4,6.8-1.8c3-50.7,6.5-105.7,32.9-150.4c46.8,20.9,86.2,56.7,111.9,101.1
		c1.8,3.1,7.2,1.9,6.8-1.8c-1.8-23.2-8-45.8-18.6-66.6c-8.2-15.9-19-31.8-35.3-39.9c24.3-1.3,48.8,1,72.4,6.9
		C420.8,184,423.7,179.5,420.9,177z" style="fill:#74A3D7;"/>
	<path d="M415.3,173.1c-40-15.1-82-24.5-124.6-28.2c0,0,0,0,0-0.1l-0.1-0.1c23.1-67.8,38.9-67.1,63.9-89.3
		c2.3-1.8,4.4-4,6.2-6.3c0.5-0.6,0.6-1.5,0.5-2.4c-0.1-3-3.5-5.4-6.2-2.7c-26.3,26.3-49.7,22.7-69.3,93.7
		c-14-20.5-28.1-41.2-44-60.2c-16-19.1-39.9-26.3-63-35.9c-4.4-1.8-6.3,5.3-1.9,7.1c22.6,9.4,45.8,16.9,61.2,35.8
		c14.2,17.3,27.1,35.9,39.8,54.5c-19.8-3.7-42.9,10.1-58.8,19.5c-23.6,14-44.9,32-62.9,52.7c-3.1,3.6,2.1,8.9,5.3,5.3
		c16.2-18.7,35-35.2,56.1-48.4c10.4-6.5,21.3-12.6,32.7-17.2c8.9-3.6,19-6.4,28.2-4.1c-42.2,49-41.6,116.8-39.5,177.7
		c0.1,4.7,7.6,4.7,7.3,0c-1.9-58.4-3.3-124.4,36.6-171.6c43.6,36.3,82.9,73,106.8,124.5c1.9,4.2,8.3,0.5,6.3-3.7
		c-23-49.8-60.7-85.2-102.2-121.1c40.9,3.9,81.1,13.2,119.6,27.7C417.8,181.8,419.6,174.8,415.3,173.1z" style="fill:#56597A;"/>
	<path d="M302.2,217.8c-1-1.9-3.2-2.1-5-1.3c-3.7,1.5-7.7,1.8-11.6,0.8c-4.6-1.2-6.5,5.9-1.9,7.1
		c5.9,1.5,11.7,0.9,17.3-1.5C302.7,222,303.1,219.4,302.2,217.8z" style="fill:#C39A8A;"/>
	<path d="M307.2,241.6c-6.7,6.2-15.8,7.4-24,4c-4.4-1.8-6.3,5.3-1.9,7.1c10.7,4.4,22.7,1.9,31.2-5.9
		C315.9,243.6,310.8,238.4,307.2,241.6z" style="fill:#C39A8A;"/>
	<path d="M313.3,267.6c-5.1,9.8-21.7,6.9-30.3,5c-4.6-1-6.5,6-1.9,7.1c12.2,2.7,31.6,4.9,38.5-8.3
		C321.8,267.1,315.6,263.3,313.3,267.6z" style="fill:#C39A8A;"/>
	<path d="M313.4,293.7c-8.6,7.3-20.7,9.1-31.1,4.5c-4.2-1.9-8.1,4.4-3.7,6.3c13.5,6,28.6,4,39.9-5.6
		C322.2,295.8,317,290.7,313.4,293.7z" style="fill:#C39A8A;"/>
	<path d="M318.1,325.7c-9.1,9-27,4.9-37-0.4c-4.2-2.2-8,4.2-3.7,6.3c13.1,6.7,34.3,10.7,45.9-0.8
		C326.7,327.6,321.5,322.4,318.1,325.7z" style="fill:#C39A8A;"/>
	<path d="M319.5,358.2c-13.5,4-27.3,1.8-39-6.2c-4-2.7-7.6,3.7-3.7,6.3c13.2,8.9,29.4,11.3,44.7,6.8
		C326.1,363.9,324.2,356.8,319.5,358.2z" style="fill:#C39A8A;"/>
	<path d="M317,389.6c-14.2,3.9-29.3,0.4-40.2-9.5c-3.5-3.2-8.7,2.1-5.3,5.3c13,11.6,30.5,15.9,47.4,11.4
		C323.5,395.5,321.6,388.5,317,389.6z" style="fill:#C39A8A;"/>
	<path d="M317.6,419.9c-11.4,13.2-35.5,0.3-45-9.1c-3.3-3.3-8.6,1.9-5.3,5.3c12.4,12.1,41.2,25.7,55.4,9.1
		C326,421.6,320.8,416.3,317.6,419.9z" style="fill:#C39A8A;"/>
	<path d="M317.9,444.4c-13.7,9-31.3,8.9-45-0.3c-4-2.7-7.6,3.7-3.7,6.3c15.7,10.5,36.6,10.7,52.5,0.3
		C325.6,448.3,321.8,441.8,317.9,444.4z" style="fill:#C39A8A;"/>
</g>
<g>
	<path d="M509.1,468.4c-1.2-3.1-4.9-3.5-6.7-0.9c-2.8,4-5.6,7.8-8.3,11.8c-1.4,1.9-2.7,4-4.1,5.9
		c-0.5-6.4-5.6-12.7-11.8-15.7c-5.6-2.7-11.9-3.3-18.1-3.9c-1.7-0.1-3.2-0.3-4.9-0.4c-0.1-0.8-0.3-1.7-0.4-2.4c0-0.4,0.1-0.8,0-1.3
		c-1.7-10.4-3.3-20.9-5-31.3c-1.3-7.7-2.6-15.9-7.8-21.9c-10.8-12.4-30.3-8.6-43.5-3c-5.4,2.3-11.6,6.9-10.5,13.6
		c0.9,6.2,8.7,8.1,14,8.9c4.7,0.6,8.6-0.5,13.3-1c6.7-0.6,8.7,3.1,10.8,8.7c3.3,9.2,4.9,19,5.4,28.9c-10.1,0.4-21.2,3.5-26.6,12.8
		c-3.3,5.9-3.6,12.7-0.9,18.4c-12.1,2.6-26.2,13-18.4,25.3c9.6,15.1,32.2,14.8,47.6,12.8c10.9-1.4,21.4-4,32.1-6.5
		c9.9-2.3,21.2-3.6,30.5-7.7c6.5-3,12.1-10,8.7-17.3c-0.4-0.9-0.9-1.7-1.5-2.4c1.9-5,3.5-10,4.7-15.1
		C508.8,479.3,510.9,473.4,509.1,468.4z" style="fill:#74A3D7;"/>
	<path d="M509.6,458.1c-3.1,0.1-5.6,1.9-6.7,4.9c-0.1,0.3-0.1,0.5-0.3,0.8c-0.1,0-0.1,0-0.3,0
		c-4.6,0.6-6.2,6.5-4.1,10.1c1,1.8,2.6,3.1,4.4,4.1c1.8,1.2,3.9,2.7,6,3.1c2.6,0.4,4.9-1,5.6-3.6c0.4-1.5,0.3-3.1-0.1-4.6
		c1.5,0,3.1-1.2,3.6-2.7C519.5,464.6,515.9,457.9,509.6,458.1z" style="fill:#F7D3BD;"/>
	<path d="M502.9,487.4c-1.9-2.1-4.5-3.2-7.2-3.6h-0.1c-0.8-0.3-1.5-0.4-2.4-0.4c-1.3-0.1-3.7,0-5.9,1
		c-13.7,6-26.1,10.9-40.7,12.8c-14.5,1.8-29.1,3.1-43.2-1.3c-4.5-1.4-6.4,5.6-1.9,7.1c15.5,4.7,31.6,3.3,47.5,1.3
		c15.1-2.1,39-11,42.6-13.7c3.7-2.7,8.5,5.3,8.9,8.7c0.4,4.6,7.7,4.7,7.3,0C507.3,495,506.1,490.6,502.9,487.4z" style="fill:#56597A;"/>
	<path d="M451,465.5c-2.3,1-5.5-0.1-8-0.5c-2.7-0.4-5.4-0.8-8.1-1.2c-4.6-0.6-6.7,6.4-1.9,7.1c6.8,1,15.1,3.7,21.7,0.9
		C458.9,470,455.2,463.5,451,465.5z" style="fill:#56597A;"/>
	<path d="M514.1,466.2c-1.8-0.9-3.6-1.9-5.3-2.8c-1.7-0.9-4.1-0.5-5,1.3c-0.9,1.7-0.5,4.1,1.3,5
		c1.8,0.9,3.6,1.9,5.3,2.8c1.7,0.9,4.1,0.5,5-1.3C516.3,469.6,515.9,467.3,514.1,466.2z" style="fill:#56597A;"/>
	<path d="M388.1,418.4c-2.2,1.2-4.4,1.7-6.8,1.7c-4.7,0-4.7,7.4,0,7.3c3.7,0,7.2-0.9,10.5-2.7
		C395.9,422.5,392.2,416.2,388.1,418.4z" style="fill:#F087B1;"/>
	<path d="M407.3,408.2c-2.1,0.1-3.7,1.7-3.7,3.7v0.5c0,1.9,1.7,3.7,3.7,3.7c2.1-0.1,3.7-1.7,3.7-3.7v-0.5
		C411,409.9,409.2,408.1,407.3,408.2z" style="fill:#56597A;"/>
</g>
<g>
	<path d="M278.3,534.6h-15.4c-5,0-5,7.7,0,7.7h15.4C283.3,542.3,283.3,534.6,278.3,534.6z" style="fill:#74A3D7;"/>
	<path d="M218.7,488.4h-11.6c-5,0-5,7.7,0,7.7h11.6C223.7,496.1,223.7,488.4,218.7,488.4z" style="fill:#74A3D7;"/>
	<path d="M341,482c-1.5-1.5-3.9-1.4-5.4,0c-1.2,1-2.6,1.2-4.1,0.5c-1.9-0.6-4.2,0.8-4.7,2.7c-0.6,2.2,0.8,4,2.7,4.7
		c4.1,1.4,8.5,0.3,11.6-2.6C342.5,486.1,342.4,483.4,341,482z" style="fill:#74A3D7;"/>
	<path d="M432.3,548.1h-5.8c-2.1,0-4,1.8-3.9,3.9c0.1,2.1,1.7,3.9,3.9,3.9h5.8c2.1,0,4-1.8,3.9-3.9
		C436.2,549.9,434.5,548.1,432.3,548.1z" style="fill:#74A3D7;"/>
	<path d="M609.5,525h-7.7c-5,0-5,7.7,0,7.7h7.7C614.5,532.7,614.5,525,609.5,525z" style="fill:#74A3D7;"/>
	<path d="M582.5,424.9H571c-5,0-5,7.7,0,7.7h11.6C587.5,432.6,587.5,424.9,582.5,424.9z" style="fill:#74A3D7;"/>
	<path d="M723.9,471.4c-2.6,0.6-5.1,1.4-7.7,2.1c-4.7,1.3-2.7,8.7,2.1,7.4c2.6-0.6,5.1-1.4,7.7-2.1
		C730.9,477.5,728.8,470.1,723.9,471.4z" style="fill:#74A3D7;"/>
	<path d="M55.8,541.4c-1.5-1.5-3.9-1.3-5.4,0c-2.1,1.7-4.9,1-6.8-0.4c-1.7-1.3-4.2-0.3-5.3,1.4c-1.2,1.9-0.3,4,1.4,5.3
		c5,3.6,11.6,2.8,16.2-0.9C57.3,545.5,57.1,542.7,55.8,541.4z" style="fill:#74A3D7;"/>
</g>
<g>
	<path d="M526.3,389.6c-0.3-49.7-3.5-99.3-9.8-148.6c-3.5-27.2-7.8-54.2-13.1-81c-1.3-6.7-2.7-13.2-4.1-19.9
		c-1.3-5.9-2.1-12.4-4.5-18.1c-3.2-7.6-11.9-12.3-18.9-6c-1.8,1.5-1.3,3.6-0.1,4.9c9.2,48.6,10.1,98.4,7.3,147.7
		c-1.4,25-3.9,50.1-6.7,74.9c-1.3,11.9-2.7,23.7-4.2,35.7c-0.8,6.3-1.5,12.6-2.3,19c-0.8,5.9-2.2,12.3-1.4,18.4
		c2.2,16.4,21.2,17.1,34,14.4c7.4-1.7,16.9-4.1,20.9-11.3C528.3,411.2,526.4,398.7,526.3,389.6z" style="fill:#F7D3BD;"/>
	<path d="M624,141.7c-29.3-26.3-69.6-51.2-109.2-36.4c12.6-37.6,34.4-71.6,63.3-98.8c2.6-2.4-0.1-7.6-3.6-6.2
		c-35.7,13.9-78.3,33.5-88.8,72.8C465.6,29.8,418,0.9,370,5.4c-4.2,0.4-4.9,5.6-1,7.2c37.9,15.7,64,49.2,87.7,81.4
		c-47,6.3-76.6,48.3-100.5,85.7c-2.6,4,3.7,7.7,6.3,3.7c20.7-31.6,55.2-52.6,92.4-57c-17.7,20.5-28,46.6-30.9,73.5
		c-3.9,34.5,4.9,69.2,19.3,100.4c1.7,3.6,6.7,1.4,6.8-1.8c3-50.7,6.5-105.7,32.9-150.4c46.8,20.9,86.2,56.7,111.9,101.1
		c1.8,3.1,7.2,1.9,6.8-1.8c-1.8-23.2-8-45.8-18.6-66.6c-8.2-15.9-19-31.8-35.3-39.9c24.3-1.3,48.8,1,72.4,6.9
		C623.7,148.6,626.8,144.2,624,141.7z" style="fill:#74A3D7;"/>
	<path d="M618.3,137.8c-40-15.1-82-24.5-124.6-28.2c0,0,0,0,0-0.1l-0.1-0.1c23.1-67.8,38.9-67.1,63.9-89.3
		c2.3-1.8,4.4-4,6.2-6.3c0.5-0.6,0.6-1.5,0.5-2.4c-0.1-3-3.5-5.4-6.2-2.7c-26.3,26.3-49.7,22.7-69.3,93.7
		c-14-20.5-28.1-41.2-44-60.2c-16-19.1-39.9-26.3-63-35.9c-4.4-1.8-6.3,5.3-1.9,7.1c22.6,9.4,45.8,16.9,61.2,35.8
		c14.2,17.3,27.1,35.9,39.8,54.5c-19.8-3.7-42.9,10.1-58.8,19.5c-23.6,14-44.9,32-62.9,52.7c-3.1,3.6,2.1,8.9,5.3,5.3
		c16.2-18.7,35-35.2,56.1-48.4c10.4-6.5,21.3-12.6,32.7-17.2c8.9-3.6,19-6.4,28.2-4.1c-42.2,49-41.6,116.8-39.5,177.7
		c0.1,4.7,7.6,4.7,7.3,0c-1.9-58.4-3.3-124.4,36.6-171.6c43.6,36.3,82.9,73,106.8,124.5c1.9,4.2,8.3,0.5,6.3-3.7
		c-23-49.8-60.7-85.2-102.2-121.1c40.9,3.9,81.1,13.2,119.6,27.7C620.7,146.5,622.7,139.5,618.3,137.8z" style="fill:#56597A;"/>
	<path d="M505.1,182.5c-1-1.9-3.2-2.1-5-1.3c-3.7,1.5-7.7,1.8-11.6,0.8c-4.6-1.2-6.5,5.9-1.9,7.1
		c5.9,1.5,11.7,0.9,17.3-1.5C505.8,186.7,506,184,505.1,182.5z" style="fill:#C39A8A;"/>
	<path d="M510.2,206.3c-6.7,6.2-15.8,7.4-24,4c-4.4-1.8-6.3,5.3-1.9,7.1c10.7,4.4,22.7,1.9,31.2-5.9
		C519,208.3,513.7,203.1,510.2,206.3z" style="fill:#C39A8A;"/>
	<path d="M516.3,232.3c-5.1,9.8-21.7,6.9-30.3,5c-4.6-1-6.5,6-1.9,7.1c12.2,2.7,31.6,4.9,38.5-8.3
		C524.9,231.8,518.5,228,516.3,232.3z" style="fill:#C39A8A;"/>
	<path d="M516.3,258.5c-8.6,7.3-20.7,9.1-31.1,4.5c-4.2-1.9-8.1,4.4-3.7,6.3c13.5,6,28.6,4,39.9-5.6
		C525.1,260.5,519.9,255.4,516.3,258.5z" style="fill:#C39A8A;"/>
	<path d="M521.2,290.4c-9.1,9-27,4.9-37-0.4c-4.2-2.2-8,4.2-3.7,6.3c13.1,6.7,34.3,10.7,45.9-0.8
		C529.6,292.2,524.5,287.1,521.2,290.4z" style="fill:#C39A8A;"/>
	<path d="M522.6,322.8c-13.5,4-27.3,1.8-39-6.2c-4-2.7-7.6,3.7-3.7,6.3c13.2,8.9,29.4,11.3,44.7,6.8
		C529,328.5,527.1,321.5,522.6,322.8z" style="fill:#C39A8A;"/>
	<path d="M520,354.3c-14.2,3.9-29.3,0.4-40.2-9.5c-3.5-3.2-8.7,2.1-5.3,5.3c13,11.6,30.5,15.9,47.4,11.4
		C526.5,360.2,524.6,353.2,520,354.3z" style="fill:#C39A8A;"/>
	<path d="M520.6,384.6c-11.4,13.2-35.5,0.3-45-9.1c-3.3-3.3-8.6,1.9-5.3,5.3c12.4,12.1,41.2,25.7,55.4,9.1
		C528.9,386.1,523.7,381,520.6,384.6z" style="fill:#C39A8A;"/>
	<path d="M520.9,409.1c-13.7,9-31.3,8.9-45-0.3c-4-2.7-7.6,3.7-3.7,6.3c15.7,10.5,36.6,10.7,52.5,0.3
		C528.6,412.8,524.9,406.6,520.9,409.1z" style="fill:#C39A8A;"/>
</g>
<g>
	<path d="M699,442.9c-0.3-49.7-3.5-99.3-9.8-148.6c-3.5-27.2-7.8-54.2-13.1-81c-1.3-6.7-2.7-13.2-4.1-19.9
		c-1.3-5.9-2.1-12.4-4.5-18.1c-3.2-7.6-11.9-12.3-18.9-6c-1.8,1.5-1.3,3.6-0.1,4.9c9.2,48.6,10.1,98.4,7.3,147.7
		c-1.4,25-3.9,50.1-6.7,74.9c-1.3,11.9-2.7,23.7-4.2,35.7c-0.8,6.3-1.5,12.6-2.3,19c-0.8,5.9-2.2,12.3-1.4,18.4
		c2.2,16.4,21.2,17.1,34,14.4c7.4-1.7,16.9-4.1,20.9-11.3C701.1,464.4,699,452,699,442.9z" style="fill:#F7D3BD;"/>
	<path d="M796.7,194.9c-29.3-26.3-69.6-51.2-109.2-36.4c12.6-37.6,34.4-71.6,63.3-98.8c2.6-2.4-0.1-7.6-3.6-6.2
		c-35.7,13.9-78.3,33.5-88.8,72.8c-20-43.2-67.6-72.1-115.6-67.6c-4.2,0.4-4.9,5.6-1,7.2c37.9,15.7,64,49.2,87.7,81.4
		c-47,6.3-76.6,48.3-100.5,85.7c-2.6,4,3.7,7.7,6.3,3.7c20.7-31.6,55.2-52.6,92.4-57c-17.7,20.5-28,46.6-30.9,73.5
		c-3.9,34.5,4.9,69.2,19.3,100.4c1.7,3.6,6.7,1.4,6.8-1.8c3-50.7,6.5-105.7,32.9-150.4c46.8,20.9,86.2,56.7,111.9,101.1
		c1.8,3.1,7.2,1.9,6.8-1.8c-1.8-23.2-8-45.8-18.6-66.6c-8.2-15.9-19-31.8-35.3-39.9c24.3-1.3,48.8,1,72.4,6.9
		C796.4,201.9,799.5,197.5,796.7,194.9z" style="fill:#74A3D7;"/>
	<path d="M791,191.1c-40-15.1-82-24.5-124.6-28.2c0,0,0,0,0-0.1l-0.1-0.1c23.1-67.8,38.9-67.1,63.9-89.3
		c2.3-1.8,4.4-4,6.2-6.3c0.5-0.6,0.6-1.5,0.5-2.4c-0.1-3-3.5-5.4-6.2-2.7c-26.3,26.3-49.7,22.7-69.3,93.7
		c-14-20.5-28.1-41.2-44-60.2c-16-19.1-39.9-26.3-63-35.9c-4.4-1.8-6.3,5.3-1.9,7.1c22.6,9.4,45.8,16.9,61.2,35.8
		c14.2,17.3,27.1,35.9,39.8,54.5c-19.8-3.7-42.9,10.1-58.8,19.5c-23.6,14-44.9,32-62.9,52.7c-3.1,3.6,2.1,8.9,5.3,5.3
		c16.2-18.7,35-35.2,56.1-48.4c10.4-6.5,21.3-12.6,32.7-17.2c8.9-3.6,19-6.4,28.2-4.1c-42.2,49-41.6,116.8-39.5,177.7
		c0.1,4.7,7.6,4.7,7.3,0C620,284,618.6,218,658.5,170.8c43.6,36.3,82.9,73,106.8,124.5c1.9,4.2,8.3,0.5,6.3-3.7
		c-23-49.8-60.7-85.2-102.2-121.1c40.9,3.9,81.1,13.2,119.6,27.7C793.5,199.8,795.4,192.6,791,191.1z" style="fill:#56597A;"/>
	<path d="M677.9,235.7c-1-1.9-3.2-2.1-5-1.3c-3.7,1.5-7.7,1.8-11.6,0.8c-4.6-1.2-6.5,5.9-1.9,7.1
		c5.9,1.5,11.7,0.9,17.3-1.5C678.4,240,678.8,237.3,677.9,235.7z" style="fill:#C39A8A;"/>
	<path d="M683,259.6c-6.7,6.2-15.8,7.4-24,4c-4.4-1.8-6.3,5.3-1.9,7.1c10.7,4.4,22.7,1.9,31.2-5.9
		C691.7,261.5,686.5,256.4,683,259.6z" style="fill:#C39A8A;"/>
	<path d="M689,285.5c-5.1,9.8-21.7,6.9-30.3,5c-4.6-1-6.5,6-1.9,7.1c12.2,2.7,31.6,4.9,38.5-8.3
		C697.6,285,691.2,281.3,689,285.5z" style="fill:#C39A8A;"/>
	<path d="M689,311.6c-8.6,7.3-20.7,9.1-31.1,4.5c-4.2-1.9-8.1,4.4-3.7,6.3c13.5,6,28.6,4,39.9-5.6
		C697.9,313.8,692.6,308.6,689,311.6z" style="fill:#C39A8A;"/>
	<path d="M693.9,343.7c-9.1,9-27,4.9-37-0.4c-4.2-2.2-8,4.2-3.7,6.3c13.1,6.7,34.3,10.7,45.9-0.8
		C702.4,345.5,697.2,340.3,693.9,343.7z" style="fill:#C39A8A;"/>
	<path d="M695.3,376c-13.5,4-27.3,1.8-39-6.2c-4-2.7-7.6,3.7-3.7,6.3c13.2,8.9,29.4,11.3,44.7,6.8
		C701.7,381.8,699.8,374.7,695.3,376z" style="fill:#C39A8A;"/>
	<path d="M692.7,407.6c-14.2,3.9-29.3,0.4-40.2-9.5c-3.5-3.2-8.7,2.1-5.3,5.3c13,11.6,30.5,15.9,47.4,11.4
		C699.3,413.5,697.2,406.3,692.7,407.6z" style="fill:#C39A8A;"/>
	<path d="M693.4,437.9c-11.4,13.2-35.5,0.3-45-9.1c-3.3-3.3-8.6,1.9-5.3,5.3c12.4,12.1,41.2,25.7,55.4,9.1
		C701.6,439.4,696.5,434.3,693.4,437.9z" style="fill:#C39A8A;"/>
	<path d="M693.6,462.4c-13.7,9-31.3,8.9-45-0.3c-4-2.7-7.6,3.7-3.7,6.3c15.7,10.5,36.6,10.7,52.5,0.3
		C701.2,466.1,697.6,459.8,693.6,462.4z" style="fill:#C39A8A;"/>
</g>
<g>
	<g>
		<path d="M84.7,322.8c-4.7-20.7-13-41.1-12.7-62.2c0-0.9-0.3-1.5-0.8-2.1c-0.3-1.5-1.5-2.8-3.9-3.1
			c-8.2-0.8-17.7-0.9-23.5,4.6c-6.7,6.3-5.1,16.7-4.9,24.5c0.5,10.9,2.2,21.8,4.2,32.6c1.5,8,3.2,16.4,11,22.1
			c7.2,5.3,15.7,5,24.3,2.4C89.3,338.3,86.4,330.6,84.7,322.8z" style="fill:#B6C8E8;"/>
		<path d="M174,544.9c-4.1-3.3-7.4-7.1-9-12.2c-1.3-4.5-1.4-9.4-1.9-14c-1-9.1-2.1-18.2-3-27.2c-2.1-19.4-4-38.6-5.8-58
			c-3.6-37.7-6.8-75.3-9.6-113.1c2.2-0.8,4.1-2.3,5.9-3.7c5-4,9.8-8.3,14.4-12.8c8.6-8.5,16.6-17.7,24.3-27.2
			c7.1-8.9,16.7-18.4,15.1-30.7c-0.3-2.4-3.1-3.1-5-2.3c-9.6,3.7-16.6,12.4-23.6,19.5c-7.2,7.3-14.4,14.6-21.7,21.9
			c-8.7-19.8-18.5-45.9-42.4-48.8c10.7-4.5,14.4-18.4,13.5-29c-0.4-5.9-1.9-13.6-6.5-17.8c-1.4-1.3-3-2.1-4.7-2.4
			c-0.6-1-1.8-1.7-3.5-1.3c-13.6,3.5-19,16.7-20.4,29.5c-0.9,7.6,1,15.7,6.2,19.8c-0.1,0.6-0.1,1.3,0.1,1.9
			c-0.3,0.4-0.4,0.9-0.5,1.3c-32.1,8.7-39.1,48.9-43.4,77.1c-1.5,10.8-4.2,34.3,9.9,38.8c6.9,2.2,14-2.1,19.6-7.8
			c1.3,41.3,3.2,82.5,5.8,123.7c1.3,20.9,2.8,41.8,4.5,62.9c0.5,6.9-0.6,16.4,6.8,19.9c7.6,3.6,18,2.7,25.8,0.6
			c1.4-0.4,2.8-1.7,2.7-3.2c0-3.7-1.8-5.6-5-7.3c-2.4-1.3-5.3-1.7-6.4-4.5c-1-2.4-0.3-5.8,0-8.3c1.4-14.9,2.8-29.9,4.2-44.8
			c1.8-18.7,3.5-37.5,5.3-56.2c2.7,22.6,5.5,45,8.2,67.6c1,8,1.9,15.9,3,24c0.9,7.8,1,16.4,3,24.1c1.3,5.1,5.3,6,9.9,6.5
			c7.7,0.8,15.4,0.6,23.1-0.3C176.2,550.8,176.1,546.6,174,544.9z" style="fill:#C39A8A;"/>
		<path d="M137.6,209.6c-3,0.4-5.9,0.5-8.7,0.6c-0.1,0-0.4-0.1-0.5-0.1c-0.6-0.1-1.3-0.1-2.1-0.3
			c-0.3-8.7-3.6-19.5-11.9-23.7c-7.7-3.9-15.4,1-19.5,7.6c-4.4,4.5-7.1,10.7-5.4,15.9c0.5,1.5,1.5,2.7,3.2,2.7c0.6,0,1,0,1.5,0l0,0
			c0.5,0.5,1.2,0.9,2.1,1c0.5,0,1,0.1,1.5,0.1c1.3,0.3,2.7,0.5,3.7,0.8c12.3,3,24.9,3.5,37.5,1.9C143.5,215.8,142.1,209,137.6,209.6
			z" style="fill:#F087B1;"/>
		<path d="M158.7,370.2c0.3-0.5,0.3-1.2,0.1-1.8c-2.6-17.6-5.5-35.2-8.9-52.7c-0.3-1.3-1-2.1-2.1-2.4
			c-2.1-4.2-4.9-9.9-3.5-14.2c1.4-4.1,5.4-8.3,7.6-12.1c3.9-6.5,2.3-11.7-0.8-18.2c-6.4-14-17.3-25.7-30.7-33.4
			c-1-0.6-2.1-0.6-3-0.3c-1.2-0.8-2.7-0.9-4.2,0c-4.6,3.2-10.3,7.1-16.2,6.9c-4.2-0.1-7.4-3.5-11.9-2.6c-7.4,1.4-14.2,10-18.5,15.8
			c-10.5,14.5-14.8,32.9-14.8,50.6c0,2.3,4.9,4.6,5.9,4.7c4.5,0.5,9,0.9,13.5,0.9v-0.1c3.6-9.1,8.1-17.3,13.9-25.3
			c2.4-3.3,6.7-10.1,11.7-7.2c3,1.7,3.1,4.6,2.2,7.7c-0.6,2.4-1.3,4.7-1.7,7.3c-1.3,9.5-5.1,18.6-8.7,27.5
			c-4.4,10.9-8.6,21.8-10.1,33.5c-1.5,12.1-3,25.8,0.5,37.6c0.5,1.8,2.2,3.1,4.1,2.7c24.6-4.7,48.8-11.4,72.4-19.9
			C158.2,374.3,159.8,372.2,158.7,370.2z" style="fill:#FFFFFF;"/>
		<path d="M204.4,234.6c0.5-1,1-2.2,1.5-3.2c0.8-1.7-0.5-3.9-2.2-4.4c-1.9-0.6-3.6,0.5-4.4,2.2c-0.6,1.3-1.3,2.7-1.9,4
			c-4.4,0.4-8.3,2.8-10.4,6.9c-2.2,3.1-3.2,6.8-2.3,10.8c1.4,5.9,7.3,10.3,13.5,9.2c6-1,11.9-6.3,12.7-12.6
			C211.5,242.3,208.9,237.2,204.4,234.6z" style="fill:#57455E;"/>
		<path d="M202,238.6c-0.9-0.3-1.9-0.3-2.8-0.1c-0.1,0-0.1,0-0.3,0c-3.3,0-7.1,1.2-9.1,4c-1.9,2.7-1.9,6.5,0.3,9.1
			c5,5.9,16.2,2.3,16.9-5.4C207.4,242.7,205.3,239.5,202,238.6z" style="fill:#FFFFFF;"/>
		<path d="M201.2,239.5c-1.7-1-3.7-0.6-4.9,1c-0.9,1.3-1.7,2.8-2.3,4.2c-0.8,1.7,0.5,4,2.2,4.4c1.9,0.5,3.6-0.4,4.4-2.2
			c0.1-0.1,0.4-1.3,0.1-0.4c0.1-0.3,0.3-0.5,0.4-0.6c0.3-0.5,0.6-1,0.9-1.5C203.1,242.7,202.8,240.4,201.2,239.5z" style="fill:#F087B1;"/>
		<path d="M161,440.6c-6.4-20.4-9.5-41.6-9.5-62.9c0-2.4-1.9-3.9-4.2-3.6c-15.1,1.8-30.4,3.5-45.6,5.3
			c-6.8,0.8-27.7,2.2-20.4,14.8c0.3,0.5,0.8,0.9,1.2,1.2c1.8,23.7,2.3,47.5,1.4,71.4c0,1.7,1.4,3.9,3.3,3.7
			c12.2-0.9,24.4-1.9,36.7-2.8c0.3,0,0.5-0.1,0.9-0.1c0,0.3,0,0.4,0,0.6c0.3,2.3,3.2,3.3,5,2.3c4.6-2.3,9.2-4.6,14-6.5
			c5-2.1,10.4-3.2,15.3-5.4C166.8,454.7,163,446.9,161,440.6z" style="fill:#F7D3BD;"/>
		<path d="M94.6,279c1.2-0.3,2.7-0.5,3.6,0.3c0-1.4-0.3-2.4-0.3-4.1c-0.1-7.1-0.5-14.2-1.5-21.3
			c-0.6-4.4-1-13.2-5.9-15.3c-4.5-1.9-11.3,2.4-14.6,4.9c-5.6,4.1-5.4,8.6-5,15.1c1,16,2.1,32.1,3.1,48.1
			c-0.4,0.9,7.3-12.2,11.8-19.4c1.7-2.7,4.6-8,8.1-8.2C93.9,279,94.4,279,94.6,279z" style="fill:#F7D16F;"/>
		<path d="M106.1,375c-0.8-3.6-1.5-7.2-2.3-10.8c-3.1-16-4.7-32.2-5.1-48.4c-0.1-4.1,1.5-32.6,0.3-26.6
			C96.2,303,81.2,337,75.8,348.2c-0.3,0.4-0.3,0.8-0.3,1.2c-0.1,0.3-0.3,0.5-0.3,0.8c-3,14-4.9,29.5-2.3,43.6
			c2.4,13.6,19,3.3,26.3,0c4.2-1.9,8.9-3.7,9-9C108.3,381.5,106.9,377.9,106.1,375z" style="fill:#F7D16F;"/>
		<path d="M167.2,376.8c-4-28.5-9.6-56.7-16.9-84.6c-3.6-13.6-7.4-27.1-11.8-40.4c-3-9-8.5-19.3-19.5-17.3
			c-2.2-1.7-6.3,0-5.6,3.5c6.4,31.6,10.8,63.5,13.5,95.6c1.2,14.5,2.3,29.3,7.1,43.2c1.7,4.7,3.1,9.6,8.9,9.4
			c7.1-0.1,15.1-3.5,21.8-5.3C166.4,380.4,167.5,378.7,167.2,376.8z" style="fill:#F7D16F;"/>
		<path d="M129.3,544c-2.1-2.6-6.3-4.2-7.6-7.3c-1.7-4,0.8-9.2,0.1-13.3c-0.3-1.2-1.2-2.2-2.3-2.6
			c-4.6-1.7-10.7-1.2-15.5-1.5c-3.6-0.3-8-1.7-11,0.9c-0.3,0.3-0.5,0.5-0.6,0.8c-1.3,0.6-2.2,1.9-2.1,3.7c0.6,6,1.3,12.1,2.1,18.1
			c0.5,3.6,0.3,8.9,3.3,11.4c3.1,2.6,8.3,1.5,11.9,1.5c5.6,0,11.3,0.1,16.8-0.1C131.8,555,134,549.5,129.3,544z" style="fill:#56597A;"/>
		<path d="M181.2,543.6c-2.1-3.5-8-5.9-12.6-7.7c-0.9-0.8-1.3-1.4-1.5-3.1c-0.3-1.4-0.1-2.8-0.1-4.2
			c-0.1-3.6,1.7-10.4-0.5-13.5c-2.1-3-5.5-1.5-8.3-0.8c-6.2,1.5-12.4,1.9-18.7,1.3c-2.3-0.3-3.6,1.7-3.5,3.5
			c-0.3,0.4-0.4,0.9-0.4,1.5c-0.3,6.7,0,13.3,1,19.9c0.6,4.1,0.9,11,5.1,13.2c0.8,0.4,1.5,0.6,2.4,0.8c0.3,0,0.4,0.1,0.6,0.1
			c4,1.4,8,1.4,12.3,1c6.7-0.8,14.1-1.9,20.4-4.4C180.6,549.8,183.2,547,181.2,543.6z" style="fill:#56597A;"/>
		<path d="M98.7,215.7c-5,0-5,7.7,0,7.7C103.7,223.4,103.7,215.7,98.7,215.7z" style="fill:#57455E;"/>
		<path d="M116.5,217.5c-3.6,0-4.6,4.1-2.8,6.4c-2.6,0.9-5,1.3-7.8,1.2c-2.1-0.1-3.9,1.8-3.9,3.9c0,2.2,1.8,3.7,3.9,3.9
			c3.3,0.3,6.8-0.3,9.9-1.4c1.9-0.8,3.3-2.6,2.7-4.7c-0.1-0.5-0.5-1-0.9-1.5C121.4,224.1,121,217.5,116.5,217.5z" style="fill:#57455E;"/>
		<path d="M124.5,204.2c-6.8-0.1-15,0.9-20.9-3.2c-4.1-2.8-8,3.9-3.9,6.7c7.2,4.9,16.6,4.1,24.9,4.2
			C129.5,212,129.5,204.3,124.5,204.2z" style="fill:#57455E;"/>
		<path d="M128.8,407.3c-0.4-4.9-8.1-5-7.7,0c1.7,20.3,2.1,40.4,1.3,60.7c-0.1,5,7.6,5,7.7,0
			C130.9,447.9,130.5,427.6,128.8,407.3z" style="fill:#57455E;"/>
		<path d="M99.3,414.1c-3.3-3.7-9.5-2.1-14-1.7c-4.9,0.4-5,8.1,0,7.7c2.3-0.1,7.2-1.3,8.3,0.3c1.3,1.8,0.6,8.6,0.5,10.8
			c0,2.7,0.6,9-0.9,11c-0.9,1.3-5.6,0-7.8-0.3c-4.9-0.6-4.9,7.2,0,7.7c4.5,0.5,10.5,2.3,13.9-1.8c3.1-4,2.6-12.1,2.7-16.7
			C102,426.3,102.8,418.1,99.3,414.1z" style="fill:#57455E;"/>
		<path d="M161.3,430.4l-0.1-0.4c-0.3-1.7-2.2-2.8-3.7-2.8c-1.5,0-3.5,1.2-4.9,0.4c-1.3-0.8-1.8-4.2-2.1-5.5
			c-0.4-1.7-3.5-12.7-0.8-12.7c5,0,5-7.7,0-7.7c-10.7,0.1-9,11.9-7.4,19.1c0.9,4,1.7,8.7,4.5,11.9c1.2,1.3,2.6,2.3,4.2,2.8
			c1.8,0.5,6.9,0.3,8.2-0.4c0.1,0,0.1-0.1,0.3-0.1C161,433.9,161.6,432.1,161.3,430.4z" style="fill:#57455E;"/>
		<path d="M66.1,309.9c-4.2,7.1-7.7,14.4-10.4,22.1c-1.7,4.7,5.8,6.7,7.4,2.1c2.4-7.1,5.6-13.9,9.6-20.3
			C75.3,309.5,68.6,305.7,66.1,309.9z" style="fill:#57455E;"/>
		<path d="M122.8,529.4c-0.4-1-0.9-1.7-1.8-2.3c-2.3-1.7-5.9-1.2-7.7,0.9c-1.4,1.5-1.5,4,0,5.4c1.3,1.2,3.1,1.4,4.6,0.6
			c0.8,0.3,1.7,0.3,2.3,0c0.9-0.3,1.9-0.9,2.3-1.8C122.8,531.4,123.1,530.3,122.8,529.4z" style="fill:#57455E;"/>
		<path d="M125.4,537.2c-1.2-1.8-3.3-2.3-5.3-1.4c-1,0.5-2.1,1-3.1,1.5c-1.8,0.9-2.4,3.6-1.4,5.3
			c1.2,1.8,3.3,2.3,5.3,1.4c1-0.5,2.1-1,3.1-1.5C125.8,541.6,126.4,538.9,125.4,537.2z" style="fill:#57455E;"/>
		<path d="M164.1,517.3H161c-2.1,0-4,1.8-3.9,3.9s1.7,3.9,3.9,3.9h3.1c2.1,0,4-1.8,3.9-3.9
			C167.8,519.1,166.3,517.3,164.1,517.3z" style="fill:#57455E;"/>
		<path d="M171.4,526.3c-1.2-1.8-3.3-2.3-5.3-1.4c-1,0.5-2.1,1-3.1,1.5c-1.8,0.9-2.4,3.6-1.4,5.3
			c1.2,1.8,3.3,2.3,5.3,1.4c1-0.5,2.1-1,3.1-1.5C171.8,530.7,172.5,528,171.4,526.3z" style="fill:#57455E;"/>
		<path d="M86,286.7c0.8-1.4,2.4-3,3.2-4.4c1.8-2.1,3.3-3.1,5.4-3.5c0.3-4.7-2.4-10.5-3.5-14.6
			c-1.5-5.6-3.1-11.3-5.1-16.8c-1-2.7-1.9-5.3-4.6-6.5c-2.2-1-5-0.9-6.8,0.8c-2.7,2.6-1.5,6.3-0.8,9.2c2.7,10.8,6.2,21.4,9.9,31.8
			C83.9,283.9,85.3,286.4,86,286.7z" style="fill:#B6C8E8;"/>
	</g>
	<path d="M85.2,348.4C81,357,77.6,366,75.1,375.2c-1.3,4.7,6.2,6.8,7.4,2.1c2.4-8.6,5.5-16.9,9.4-25
		C93.9,347.8,87.4,343.9,85.2,348.4z" style="fill:#57455E;"/>
	<path d="M161.3,352.5c-5.3-5.5-10.3-11.3-15.1-17.2c-3.2-3.9-8.6,1.7-5.4,5.4c4.9,5.9,10,11.7,15.1,17.2
		C159.2,361.6,164.6,356.1,161.3,352.5z" style="fill:#57455E;"/>
	<path d="M53,276.2c-0.6-2.2-2.7-3.1-4.7-2.7c-2.7,0.5-5.3,0.8-8,0.8c-5,0.1-5,7.8,0,7.7c3.3,0,6.7-0.4,10-1
		C52.3,280.5,53.5,278.1,53,276.2z" style="fill:#57455E;"/>
</g>
</svg>
