<?xml version="1.0" encoding="utf-8"?>
<!-- Generator: Adobe Illustrator 23.0.2, SVG Export Plug-In . SVG Version: 6.00 Build 0)  -->
<svg version="1.1" id="Capa_1" xmlns="http://www.w3.org/2000/svg" xmlns:xlink="http://www.w3.org/1999/xlink" x="0px" y="0px" viewBox="0 0 800 677.1" style="enable-background:new 0 0 800 677.1;" xml:space="preserve">

<g>
	<path d="M748,128C706,76,642.6,47.1,579.7,29.7c-34.6-9.6-70-16.1-105.5-21.2c-43.5-6.3-87.6-10.8-131.4-7.1
		C267.2,8,196.9,41.7,141.2,92.6C84,144.8,44.1,213.8,19.7,286.8C6.8,325.6-4.1,367.6,1.5,408.9c5.4,39.7,25.3,78.1,46.1,111.8
		c7.5,12.3,15.8,24.4,24.5,36c0,1.1,0.3,2.3,1.2,3.2c2,2.1,3.9,4.2,6,6.2c0.9,1.1,1.8,2.3,2.7,3.3c0.8,0.9,1.7,1.4,2.6,1.5
		c9.2,8.3,19.3,15.5,30.1,21.7c18.5,16.4,37.6,31.9,58.7,44.9c34.5,21.2,72.7,32.4,112.8,36.6c42.9,4.5,86.7,3.2,129.8,1.7
		c39-1.4,78.1-3.6,116.7-9.3c66.5-9.9,136.7-32.2,180.3-86.4c24.8-30.7,38.4-68,50.4-105.2c13.5-41.5,25.9-83.8,32.2-127.2
		C807,271.6,798,189.5,748,128z" style="fill:#56597A;"/>
	<path d="M377.4,255.5c0.2-0.6,0.3-1.2,0.2-2c-0.9-7.8-2.1-22.3-9.9-26.8c-7.7-4.5-20.5,2.9-27.5,5.7
		c-22.1,8.9-43.4,20.2-62.9,34c-7.8,5.4-18.1,11.6-22.4,20.3c-3.9,8.1-2.1,17.2,5.7,22c9.5,5.9,22.6,7.1,33.4,8.9
		c11,1.7,20.5,1.1,30.1-4.8c10.2-6.3,20-14.5,29.2-22.3c9.9-8.4,18.7-18.1,25.6-29.1C380.4,258.9,379.2,256.5,377.4,255.5z" style="fill:#F087B1;"/>
	<path d="M481.6,327.1c-10.7-22-33.7-2.9-48.3,12.5c-8.9,7.8-18.7,15.7-24.8,25.3c-6.8,10.5-8.6,25-11.7,36.9
		c-1.8,6.9-3.8,13.7-5.3,20.6c-1.1,5-3.5,12.3-1.8,17.5c3.2,9.6,17.6,6.3,24.5,3.8c22.3-8,39.9-30.1,52.2-49.4
		C477.9,376.2,492.2,348.8,481.6,327.1z" style="fill:#F087B1;"/>
	<path d="M362.2,373.9c-14.9-5.1-29.2-11.3-43.4-18.2c-2-0.9-3.8-0.5-5.1,0.6c-1.1-0.5-2.4-0.5-3.8,0.5
		c-17,11.7-30.6,27.2-39.4,46.1c-1.4,2.7-0.3,5.7,2.7,6.6c5.9,2,10.2,0.3,14.2-2.4c-2.4,4.4-5,8.9-7.4,13.2
		c-3.2,5.6-9.9,14.3-3.6,20c3.6,3.5,8.1,2,11.9-0.5c-3.5,6.5-6.3,13.4-8.9,20.3c-1.2,3.5,3.5,7.4,6.6,5.1
		c10.4-7.7,19.4-16.7,27.1-26.8c0.2,0.2,0.2,0.3,0.3,0.5c6.2,7.1,14.9-1.5,19.3-6c14.8-15.4,25.7-33.6,32.8-53.6
		C366.2,377.1,364.3,374.7,362.2,373.9z" style="fill:#F7D16F;"/>
	<path d="M378.9,375.8c-6.8-8-17.2-13.7-25.6-19.7c-10.5-7.7-20.9-15.2-31.5-22.9c-2.4-1.8-4.8-0.5-5.9,1.5
		c-0.6,0-1.4,0.2-2.1,0.5c-15.8,8-14.2,28.3-4.7,40.5c6.3,8.1,15.1,14.5,23.6,19.9c8.3,5.1,17.9,10.4,27.8,10.8
		C377.1,406.8,390.9,389.9,378.9,375.8z" style="fill:#74A3D7;"/>
	<path d="M528.2,193.8c-6.5-21.7-33.1-16.6-49.4-10.5c-21.5,8-41.5,20.9-61.3,32.7c-43.8,25.9-86.3,55.8-118,96.2
		c-1.4,1.7-1.2,3.6-0.6,5.1l0,0c10.5,36.3,39.6,65.8,75.4,77.4c8.1,2.6,19.4,6.5,27.8,3.5c9.2-3.2,15.7-15.7,21.2-22.7
		c16.4-20.8,33-41.5,49.2-62.3c14.9-19,30.1-38.2,41.8-59.5C524.3,236.7,534.1,213.3,528.2,193.8z" style="fill:#FFFFFF;"/>
	<path d="M458.1,246.3c-0.2-0.9-0.6-1.7-1.4-2.4c-13.5-11.9-36.6-10.2-46.1,5.6c-9.8,16.4-9.5,39.1,6.6,51.5
		c14.3,11,35.8,8.1,46.5-6.6C474.9,279.3,470.3,259.2,458.1,246.3z" style="fill:#F087B1;"/>
	<path d="M516.3,171.2c-24.8-3.9-52.7,11.9-70.6,26.5c-1.1,0.9-1.7,2-1.7,3c-2,1.4-3.2,3.6-1.8,6.2
		c10.4,20,28.9,35.5,51.2,42.9c8.7,2.9,22.1,7.1,30.1,0.3c4.2-3.6,6.6-9,9.3-13.7c3-5.4,5.9-11,7.8-17
		C547.2,200.1,540.6,174.9,516.3,171.2z" style="fill:#74A3D7;"/>
	<path d="M457.8,268.1c-0.8-5.4-3.3-9.8-7.1-12.8l0,0c-10.4-10.1-28-1.7-33,10.1c-5.9,13.8,3,30.7,18.7,31.5
		C452.4,297.6,459.6,282.1,457.8,268.1z" style="fill:#B6C8E8;"/>
	<path d="M654.7,117.7c-2-13.2-13.4-29.8-27.2-33.3c-20.9-12.3-40,8.6-44.3,28c-2.1,10.1-1.7,20,5.6,28
		c7.2,8,18.7,12.6,29.1,14.2C640.1,158.1,657.8,139.9,654.7,117.7z" style="fill:#B6C8E8;"/>
	<path d="M143.3,398.3c-6.6-24.1-29.8-36.3-52.5-41.5c-0.5-0.9-1.4-1.5-2.6-1.8c-21.5-5.4-39.7,11.3-44.3,31.5
		c-4.7,20.8,3.5,43.1,20.6,55.8c16.4,12.2,39,14.5,56.9,4.2C138.5,436.7,148.7,417.6,143.3,398.3z" style="fill:#B6C8E8;"/>
	<path d="M637.2,543.8c-8.1-27.5-35.2-46.5-63.8-43.5c-1.5,0.2-2.6,0.9-3.3,2c-12.2,2.6-23.2,10.7-28.9,23
		c-11.4,24.8-12,54.3,8.3,74.7c16.6,16.6,45.2,25.6,66.4,12.5C637.7,598.9,644,566.9,637.2,543.8z" style="fill:#F7D16F;"/>
	<path d="M235.1,211.2c-5-12.9-17.8-21.8-32.4-20.9c-16.1-5.9-28.3,11.3-30.1,26.3c-1.1,8.7-0.9,18.8,5.1,25.7
		c5.7,6.6,16.3,9.9,24.5,11.7c8.4,2,17.5,1.8,24.4-4.1c6-5,12.3-14,13.4-21.8C241,221.8,238.9,216,235.1,211.2z" style="fill:#F087B1;"/>
	<path d="M378.1,103.7c-4.8-19.9-21.7-33.9-41.2-37c-16.3-6.5-33.1,6.5-40,21.5c-8.3,17.6-11.6,42.5,5,56.5
		c13.7,11.6,39.3,14,56,8.6C377.2,146.9,382.4,121.5,378.1,103.7z" style="fill:#74A3D7;"/>
	<path d="M328.3,542.6c-0.5-0.8-1.4-1.4-2.4-1.7c-0.2,0-0.3,0-0.3-0.2c-0.9-0.6-1.8-1.1-2.9-1.5c-2-1.1-3.6-0.6-5,0.5
		c-13.8-0.3-27.5,8.3-31.8,22.1c-4.7,16,4.8,33.9,20.5,39.1c17.8,6,39.4,1.8,43.4-19C353.2,565,341.9,551.3,328.3,542.6z" style="fill:#74A3D7;"/>
	<path d="M749.1,405.9c-0.5-0.6-1.1-1.1-2-1.5c-16.4-6.9-37.3,1.1-43.7,18.1c-6.3,17.2,3.2,37.9,21.1,42.9
		c17.5,4.8,36.7-5.3,40.9-23.2C768.6,428.1,762.2,411,749.1,405.9z" style="fill:#74A3D7;"/>
	<path d="M781.7,259.7c-3.3-14.6-14.3-26.6-28.3-29.8c-0.5-0.3-1.1-0.6-1.7-0.8c-16.3-4.2-34.3,2.3-43.7,16.6
		c-9.5,14.8-7.5,35.5,3.9,48.6c11.9,13.7,32.5,18.4,49.2,11.3C779.5,297.9,785.9,277.8,781.7,259.7z" style="fill:#F087B1;"/>
	<path d="M673.6,347.8c-0.6,0-1.4-0.2-2,0c-1.8-0.3-3.3-0.9-4.4-2.1c0.2-0.5,0.3-0.9,0.3-1.4c0.6-2.6-0.8-4.4-2.7-5.3
		c-1.1-4.8-8.9-4.4-8.9,1.1c0,2.1,0.5,4.2,1.2,6.2c-0.9,1.8-2.1,3.3-3.6,4.7c-3.3,0.5-6.3,2.3-8.4,5.3c-2.3,3.2,1.5,7.8,5.1,6.6
		c2.3-0.8,4.4-1.8,6.3-3c2.1,1.7,3.9,6.8,4.1,8.3c0.8,5,9.2,3.9,8.9-1.2c-0.2-3-0.9-9.5,3-9.9c0.3,0,0.8,0,1.1,0
		C679.5,356.3,679.5,348.4,673.6,347.8z" style="fill:#F7D16F;"/>
	<path d="M548.8,385.2c-2.3,0.2-4.1,0.6-5.6,1.5c-1.2-0.2-2.6-0.8-3.3-1.7c0.2-1.4,0.2-2.9,0-4.2
		c-0.6-5.3-8.3-5.7-9-1.2c-0.6,0.8-1.1,1.7-1.1,2.9s0.2,2.4,0.5,3.5c-0.9,3-3.2,5.6-6.5,6.8l0,0c-0.3,0.2-0.8,0.3-1.1,0.5
		c-4.7,2-1.4,9.9,3.5,8.3c0.6-0.2,1.2-0.5,1.7-0.8c4.2-1.4,8.4,2.4,9.2,6.5c1.1,5.7,9.5,3.3,8.7-2.4c-0.3-2-1.1-6.6,0.5-9
		c1.7-0.3,3.2-0.9,4.7-2C554.4,391.3,553.7,384.9,548.8,385.2z" style="fill:#F7D16F;"/>
	<path d="M470.3,520.3c-1.7,0-3.2,0.3-4.7,0.9c-2-0.6-2.4-3.3-1.7-5.4c0.9-2.4-0.2-4.2-2-5c-2.6-3-8.4-2.1-8,2.6
		c0.5,4.2-1.2,8.3-4.4,10.8c-3.3,0.2-6.8,1.4-9.8,3.8c-3.2,2.6-0.5,7.8,3.2,7.7c3.2-0.2,6.2-0.9,8.9-2.4c1.2,0.5,2.3,1.5,3,2.9
		c0,1.7,0.3,3.2,1.1,4.8c1.8,4.5,8.7,4.2,8.9-1.2c0-1.8-0.2-3.5-0.6-5c0.3-2.1,1.5-3.9,3.5-4.8c1.5-0.2,3.2-0.5,4.7-1.2
		C476.7,526.7,474.6,520.1,470.3,520.3z" style="fill:#F7D16F;"/>
	<path d="M201.4,445.8c-0.3,0.2-0.8,0.3-1.1,0.5l0,0c0,0,0,0-0.2,0c-0.3,0.2-0.5,0.3-0.8,0.3c-2,0.8-4.2,0.3-5.4-0.9
		c1.1-2.9,1.5-5.9,1.2-9.2c-0.6-5.4-8.9-5.7-9-0.8c-0.2,0.3-0.3,0.6-0.5,0.9c-1.2,2.7-1.5,5.4-1.1,7.8c-0.6,1.1-1.5,2-2.4,2.7
		c-1.7,0.6-3.2,1.4-4.7,2.7c-3.3,2.9,0.2,9.2,4.4,7.5c1.5-0.6,3-1.4,4.4-2.3c2.1-0.2,3.8,1.5,3.9,3.6c-0.2,0.9-0.3,2-0.3,3
		c-0.2,5.1,7.5,6,8.9,1.2c0.3-1.2,0.6-2.6,0.6-3.6c0.5-1.7,1.5-3,2.9-3.9c0.9-0.3,1.8-0.8,2.6-1.4
		C209.1,451.5,206.4,443.8,201.4,445.8z" style="fill:#F7D16F;"/>
	<path d="M135.3,213.3H131l-0.5-6c-0.3-5.7-9.3-5.9-9,0l0.5,6h-0.2c-5.9,0-5.9,9,0,9h0.6l0.3,4.5c0.3,5.7,9.3,5.9,9,0
		l-0.3-4.5h3.9C141.2,222.4,141.2,213.3,135.3,213.3z" style="fill:#F7D16F;"/>
	<path d="M221,593.1h-3v-3c0-5.9-9-5.9-9,0v3h-4.5c-5.9,0-5.9,9,0,9h4.5v3c0,5.9,9,5.9,9,0v-3h3
		C226.7,602.2,226.7,593.1,221,593.1z" style="fill:#F7D16F;"/>
	<path d="M474.6,95.6c-2,0.9-3.9,1.5-6,1.8c-0.3-2.3-0.8-4.5-1.4-6.8c-1.4-5.7-9.9-3.3-8.7,2.4c0.3,1.7,0.8,3.3,0.9,5
		c-0.8,0-1.5-0.2-2.4-0.2c-5.7-0.8-5.7,8.3,0,9c1.2,0.2,2.4,0.2,3.5,0.3c0.2,1.4,0.2,2.9,0.3,4.4c0.3,5.7,9.3,5.9,9,0
		c0-1.7-0.2-3.3-0.3-5c3.2-0.6,6.3-1.7,9.3-3C484.6,101,479.9,93.2,474.6,95.6z" style="fill:#F7D16F;"/>
	<path d="M742.7,160.8c2-2.6,1.7-6.6-2-7.5c-3.5-0.9-5.6-3.9-4.8-7.5c0.3-1.2,0.2-2.1-0.3-3c0-0.5,0-0.9,0-1.4
		c-0.3-5.7-9.3-5.9-9,0c0.2,3.8-0.6,7.2-2.4,10.2c-6.2,0-9.3,6.9-5.3,11.9c1.1,1.4,4.1,1.8,5.4,0.8c0.6-0.5,1.2-0.9,1.7-1.4
		c0.3,0.5,0.9,0.9,1.5,1.4c0.8,1.1,1.4,2.1,1.8,3.2c0.8,1.5,1.2,3.2,1.7,4.7c0.2,1.1,0.3,2,0.6,3c1.5,5.7,9.6,3.2,8.7-2.4
		c-0.2-0.6-0.3-1.2-0.5-2C739.6,167.3,740.3,163.8,742.7,160.8z" style="fill:#F7D16F;"/>
	<path d="M663,552c-4.8-6.5-18.4-4.8-25.1-5.3c-5.7-0.5-5.7,8.6,0,9c3.5,0.3,6.9,0.6,10.4,0.8c3.9,0.3,7.8,0.5,2.7,3.6
		c-5,3.2-13.2,4.1-18.8,5.6c-13.4,3.5-27.1,6.2-40.8,8s-27.5,2.7-41.4,2.7c-6.6,0-13.1-0.2-19.7-0.5c-2.4-0.2-10.7,0.8-11-3.3
		c-0.2-4.4,9-4.5,11.6-4.7c5.7-0.3,5.9-9.3,0-9c-7.5,0.5-16.4,1.7-19.7,9.6c-2.6,6.5,0,13.5,7.1,15.4c10.7,2.7,23.5,1.7,34.5,1.5
		c12.6-0.2,25.3-1.1,37.8-2.6c11.6-1.5,23-3.5,34.5-6c10.2-2.4,22.7-4.4,32.1-9.5C662.4,564.4,667.3,557.9,663,552z" style="fill:#57455E;"/>
	<path d="M723.8,440c-5.9,0.6-11.7,0.8-17.6,0.5c-5.9-0.5-5.7,8.6,0,9c5.9,0.5,11.7,0.3,17.6-0.5
		C729.5,448.3,729.5,439.3,723.8,440z" style="fill:#57455E;"/>
	<path d="M759.3,424.1c-0.8-2.6-3.2-3.5-5.6-3.2c-4.8,0.8-9.6,1.1-14.5,1.1c-5.9,0-5.9,9,0,9c5.6,0,11.3-0.6,16.9-1.4
		C758.5,429.2,759.9,426.2,759.3,424.1z" style="fill:#57455E;"/>
	<path d="M406.6,323.5c-3-6.3-9.5-12-15.1-16.1c-13.1-9.8-27.2-13.8-40-1.8c-13.7,12.9-25.7,28.3-37,43.5
		c-3.5,4.7,4.4,9.2,7.8,4.5c8.6-11.4,17.6-22.4,27.4-33c4.1-4.4,8.4-10.7,14-12.9c7.2-3.2,15.5,2,21.4,6.2c3.5,2.4,12.2,9,13.2,13.4
		c1.2,5.3-6,13.8-8.9,18.2c-7.5,11.9-16,23-25.1,33.7c-3.8,4.4,2.6,10.8,6.3,6.3c12-13.8,22.9-28.8,32.2-44.7
		C406.3,335.1,409.8,329.8,406.6,323.5z" style="fill:#57455E;"/>
	<path d="M77.2,409.9c-9.8-0.6-19.6-1.4-29.4-2c-5.9-0.5-5.7,8.6,0,9c9.8,0.6,19.6,1.4,29.4,2
		C83.1,419.4,82.9,410.4,77.2,409.9z" style="fill:#57455E;"/>
	<path d="M135.2,384.6c-11.1-3-22.3-3.5-33.7-1.8c-5.7,0.9-3.3,9.6,2.4,8.7c9.8-1.5,19.4-0.8,28.9,1.8
		C138.3,394.9,140.7,386.1,135.2,384.6z" style="fill:#57455E;"/>
	<path d="M608.5,124.7c-6.5,0.2-13.1-0.2-19.6-0.9c-5.7-0.8-5.7,8.3,0,9c6.5,0.8,12.9,1.2,19.6,0.9
		C614.3,133.5,614.3,124.5,608.5,124.7z" style="fill:#57455E;"/>
	<path d="M637.5,98.6c-4.8,0.9-9.5,1.2-14.5,0.9c-5.9-0.3-5.7,8.7,0,9c5.7,0.3,11.3-0.2,16.9-1.2
		C645.6,106.3,643.2,97.6,637.5,98.6z" style="fill:#57455E;"/>
	<path d="M232.6,217.2c-6.3-0.6-12.6,0-18.8,1.8c-5.6,1.7-3.2,10.4,2.4,8.7c5.4-1.7,10.8-2.1,16.4-1.5
		C238.3,226.9,238.3,217.8,232.6,217.2z" style="fill:#57455E;"/>
	<path d="M199.6,204c-6.6-0.9-13.1-1.2-19.7-0.8c-5.7,0.5-5.9,9.5,0,9c5.9-0.5,11.6-0.3,17.5,0.5
		c2.4,0.3,4.8-0.6,5.6-3.2C203.4,207.5,202,204.3,199.6,204z" style="fill:#57455E;"/>
	<path d="M344.7,579.1h-14.6c-5.9,0-5.9,9,0,9h14.6C350.6,588.2,350.6,579.1,344.7,579.1z" style="fill:#57455E;"/>
	<path d="M317.8,564.4c-8.4-1.2-17-2.3-25.4-3.5c-5.7-0.8-8.1,8-2.4,8.7c8.4,1.2,17,2.3,25.4,3.5
		C320.9,573.9,323.5,565.1,317.8,564.4z" style="fill:#57455E;"/>
	<path d="M751.2,276.3c-3.3-2-6.8-1.7-10.5-2.6c-4.8-1.1-7.2-4.7-10.8-7.7c-5.7-4.8-12.8-6-20-4.8
		c-0.5,0-0.8,0.2-1.1,0.3c-0.8,0-1.5,0.2-2.3,0.6c-5.3,2.4-4.4,10.5-3.3,15.2c1.4,6.6,5,12.9,9.8,17.6c1.8,1.8,3.9,3.5,6,4.8
		c8.1,8.7,21.2,12.3,32.7,7.8c0.5-0.2,0.8-0.3,1.1-0.6c0.3-0.2,0.6-0.3,0.9-0.5C764.1,300.8,760.2,281.4,751.2,276.3z" style="fill:#74A3D7;"/>
	<path d="M782.8,260.3c-1.7-7.5-5.3-14.2-10.1-19.7c-1.1-2.4-2.3-4.8-3.9-6.8c-1.7-2.3-3-2.7-5.3-3.2
		c-1.2-1.2-3-1.7-5-0.3c-9.3,6.9-6.3,17-2.1,26.2c2.9,6.5,6.3,12.6,9.9,18.7c2.3,3.8,5,9.3,10.2,8.9
		C786.7,283.5,784.1,266.5,782.8,260.3z" style="fill:#74A3D7;"/>
	<path d="M377.2,109.5c-2.3-6.3-8-6.8-13.7-4.4c-8,3.2-11.7,10.5-16.4,17c-3,4.1-5.7,7.1-10.8,8
		c-3.6,0.6-6.6,0.5-10.1,2.1c-6.8,3.2-11.3,9.3-12.3,16.7c-0.6,3.9,3.3,6.3,6.2,5.6C346.7,171.8,388.1,140.2,377.2,109.5z" style="fill:#F087B1;"/>
	<path d="M321.7,78.3c-2.1-2.9-5.3-7.4-9.3-7.4c-4.5,0-8,5.4-10.4,8.4c-8,10.1-12.5,21.8-14,34.5c-0.3,2,0.6,3.2,2,3.9
		c0,1.8,1.1,3.5,3.2,4.1c11.3,3.3,18.7-3.6,22.6-13.5c2.3-5.7,8.1-8.9,9.9-14.8C327.1,88.1,324.8,82.7,321.7,78.3z" style="fill:#F087B1;"/>
	<path d="M364.1,83c-2.1-8.6-13.8-11.4-20.9-14c-1.5-0.6-2.9-0.2-3.8,0.6c-0.9,0.3-1.7,0.9-2.3,2
		c-3.9,7.2-7.8,16-3.5,24.1c4.1,7.4,11.9,8.9,19.1,5.1C359.2,97.6,366.1,90.9,364.1,83z" style="fill:#F087B1;"/>
	<path d="M606.5,254c-5.9,0-5.9,9,0,9S612.4,254,606.5,254z" style="fill:#FFFFFF;"/>
	<path d="M666.1,183.7c-2.4,0.2-4.5,2-4.5,4.5v0.9c0,2.4,2.1,4.7,4.5,4.5c2.4-0.2,4.5-2,4.5-4.5v-0.9
		C670.6,185.8,668.5,183.5,666.1,183.7z" style="fill:#FFFFFF;"/>
	<path d="M543,273.4c-5.9,0-5.9,9,0,9S548.8,273.4,543,273.4z" style="fill:#FFFFFF;"/>
	<path d="M599.9,367.6c-0.3-0.3-0.6-0.6-0.9-0.9c-1.7-1.7-4.7-1.8-6.3,0c-1.7,1.8-1.8,4.7,0,6.3
		c0.3,0.3,0.6,0.6,0.9,0.9c1.7,1.7,4.7,1.8,6.3,0C601.5,372.1,601.7,369.3,599.9,367.6z" style="fill:#FFFFFF;"/>
	<path d="M641.7,449.2c-5.9,0-5.9,9,0,9C647.4,458.3,647.4,449.2,641.7,449.2z" style="fill:#FFFFFF;"/>
	<path d="M502,463.8c-5.9,0-5.9,9,0,9C507.9,472.9,507.9,463.8,502,463.8z" style="fill:#FFFFFF;"/>
	<path d="M455.2,582c-5.9,0-5.9,9,0,9C460.9,591,460.9,582,455.2,582z" style="fill:#FFFFFF;"/>
	<path d="M392.9,495.4l-0.9-0.9c-1.7-1.7-4.7-1.8-6.3,0s-1.8,4.7,0,6.3l0.9,0.9c1.7,1.7,4.7,1.8,6.3,0
		C394.5,500.1,394.7,497.2,392.9,495.4z" style="fill:#FFFFFF;"/>
	<path d="M110.5,503.9c-5.9,0-5.9,9,0,9C116.2,512.9,116.2,503.9,110.5,503.9z" style="fill:#FFFFFF;"/>
	<path d="M205.2,520.6c-5.9,0-5.9,9,0,9C210.9,529.6,210.9,520.6,205.2,520.6z" style="fill:#FFFFFF;"/>
	<path d="M175.8,332.1c-5.9,0-5.9,9,0,9S181.7,332.1,175.8,332.1z" style="fill:#FFFFFF;"/>
	<path d="M116.5,281.8c-0.9-0.9-2.3-1.5-3.6-1.5s-2.7,0.5-3.6,1.5c-0.9,0.9-1.4,2.1-1.4,3.3c0,1.1,0.3,1.5,0.6,2.4
		c0.5,0.9,1.8,1.8,2.7,2.1c0.6,0.2,1.2,0.2,2,0.2c1.7,0,3.2-0.6,3.9-2.1c0.5-0.9,0.6-1.5,0.6-2.4
		C117.7,283.9,117.3,282.7,116.5,281.8z" style="fill:#FFFFFF;"/>
	<path d="M243.3,339.9c-5.9,0-5.9,9,0,9C249,349,249,339.9,243.3,339.9z" style="fill:#FFFFFF;"/>
	<path d="M277.4,188.5c-2.4,0.2-4.5,2-4.5,4.5v0.9c0,2.4,2.1,4.7,4.5,4.5s4.5-2,4.5-4.5V193
		C281.9,190.6,279.8,188.3,277.4,188.5z" style="fill:#FFFFFF;"/>
	<path d="M228.5,100.6h-0.9c-2.4,0-4.7,2.1-4.5,4.5c0.2,2.4,2,4.5,4.5,4.5h0.9c2.4,0,4.7-2.1,4.5-4.5
		C233,102.7,231.1,100.6,228.5,100.6z" style="fill:#FFFFFF;"/>
	<path d="M417.3,155.7c-1.8-1.7-4.7-1.8-6.3,0l-0.9,0.9c-1.7,1.7-1.8,4.7,0,6.3c1.8,1.7,4.7,1.8,6.3,0
		c0.3-0.3,0.6-0.6,0.9-0.9C418.9,160.3,419.1,157.3,417.3,155.7z" style="fill:#FFFFFF;"/>
	<path d="M522.5,52.7c-5.9,0-5.9,9,0,9C528.4,61.7,528.4,52.7,522.5,52.7z" style="fill:#FFFFFF;"/>
	<path d="M562.5,163c-5.9,0-5.9,9,0,9S568.4,163,562.5,163z" style="fill:#FFFFFF;"/>
	<path d="M726.5,233.5c-0.9,0-1.8,0-2.7,0.2c-5.3,1.1-8.6,5.3-11.4,9.5c-2.4,3.5,0.9,6.8,4.2,6.5
		c0.3,0.5,0.8,0.9,1.4,1.2c2.9,1.2,5.9,2.1,8.7,1.8c5.7,2.9,14.3,0,16-6.8C745.1,236.8,734.2,229.9,726.5,233.5z" style="fill:#74A3D7;"/>
	<path d="M131.6,430.4c-5.7,0-11.3-0.5-16.9-1.5c-5.7-1.1-8.1,7.5-2.4,8.7c6.3,1.2,12.8,2,19.3,2
		C137.3,439.4,137.4,430.4,131.6,430.4z" style="fill:#57455E;"/>
</g>
</svg>
