<?xml version="1.0" encoding="utf-8"?>
<!-- Generator: Adobe Illustrator 23.0.2, SVG Export Plug-In . SVG Version: 6.00 Build 0)  -->
<svg version="1.1" id="Capa_1" xmlns="http://www.w3.org/2000/svg" xmlns:xlink="http://www.w3.org/1999/xlink" x="0px" y="0px" viewBox="0 0 800 568.2" style="enable-background:new 0 0 800 568.2;" xml:space="preserve">

<g>
	<path d="M793.1,274.9c-12-60.6-39.7-121.1-89.6-168.6c-44.9-42.8-105.9-74.4-172.5-91.2C388-21.3,220.7,9.7,111.2,91.2
		C59.1,130.1,21.7,180.8,6.9,236.4c-15.3,57.4-5.2,117.4,30.7,168.9c8.7,12.4,18.9,24,30.1,35.1c1.2,1.2,2.7,1.5,4,1.3
		c0.1,0.7,0.6,1.6,1.8,2.2c29.1,18.7,64.6,27.9,100.5,34.8c40.3,7.7,81,13.6,122,18c83.2,8.7,167.6,10.6,251.3,5.3
		c40.9-2.5,81.7-6.8,122.2-12.5c20.8-3,41.5-6.5,62-10.3c15.6-3,36-4.7,45.6-16.5c4.1-5.2,6-11.2,7.8-17.1
		c2.5-8.3,4.7-16.7,6.6-24.9c3.7-16.2,6.2-32.8,7.7-49.3C801.4,339.3,799.5,306.8,793.1,274.9z" style="fill:#56597A;"/>
	<path d="M781.6,466.7c-10.3-16.7-29.8-31.1-49.9-42.8c-19.6-11.5-41.9-20.8-65.9-27.4c-18.7-5.3-38.1-8.6-57.8-10.9
		c-51.2-11.5-105.6-16.4-159.6-14.2c-62.8-1.8-126,0.3-188.3,6.2c-31.6,3-63,7.1-94.1,12c-27.1,4.4-55,9.6-78.3,20.5
		c-22.3,10.5-39.2,25.2-54.1,40.3c-14.8,14.9-27,32.8-17.7,50.9c18.9,36.6,89.1,44,137.8,50.9c123,17.7,250.4,20.1,375.3,10.5
		c30.5-2.4,60.8-5.3,91-9s61.2-7.2,90.7-13.3c24.3-5,47.8-13,63.1-27.1C788.8,499.5,791.5,482.7,781.6,466.7z" style="fill:#B4C7E7;"/>
	<path d="M276.5,205.1c6.5-5.5,23.9-12.7,14.6-23.3c-1-1.2-2.8-1.5-4.1-1c-0.6,0.1-1.2,0.3-1.6,0.6
		c-1-0.3-2.2-0.3-3.4,0.4c-24,15.6-42.6,41.3-42.9,70.8c-0.3,25.2,15.6,59.9,44.4,61.7c4,0.3,5-4.1,3.2-6.8c0-0.4-0.1-1-0.1-1.5
		c-0.3-1.9-1.2-3.4-3.1-4.1c-26-8.7-37.2-38.9-29.5-64C258,225.1,266.3,213.7,276.5,205.1z" style="fill:#57455D;"/>
	<path d="M338.1,332.2c-3.2-13-5.6-26.1-6.5-39.5c-0.4-7.1-0.7-14.2-0.6-21.2c0.1-5.5,1.3-11.4-1.5-16.4
		c-4.1-7.5-13.9-14.2-22.7-15.3c-0.6-0.4-1.3-0.7-2.2-0.7c-8.9-0.3-23.3-3.8-29.7,4.3c-5.6,6.9-5.5,19-6.3,27.4
		c-1.2,12.5-1.2,25.2,0.3,37.8c1.2,10.9,2.5,23,6.9,33.2c8.4,19.6,37.9,13,53.6,8.3C339.3,346.9,340.5,341.6,338.1,332.2z" style="fill:#EF86B0;"/>
	<path d="M539.7,434.3c-19.2,11.8-37.6-6.9-49.7-20.1c-12.5-13.7-25.1-27.4-36.7-41.9c-19.3-23.8-36.6-49.7-46.6-78.6
		c13,14,27.7,26.4,43.8,36.7c10.9,6.9,22.9,14.5,35.9,16.2c7.4,1,26.3-0.4,21.7-12.5c-1.5-4-5.6-6.3-9.3-7.8
		c-6.2-2.5-12.5-4.3-18.4-7.4c-11.1-5.8-20.8-13.7-29.7-22.4c-18.3-18.1-32.3-39.7-48.4-59.6c-16.7-20.7-44.7-40.9-71.4-24.6
		c-0.3,0.1-0.6,0.3-0.7,0.6c-0.3-0.1-0.7-0.3-1.2-0.4c-9.9-1.9-16.5,5.6-20.4,13.9c-4.7,10.3-8.1,21.5-11.4,32.5
		c-6.8,23.2-12.1,46.9-20.8,69.5c-4.4,11.5-9.7,22.7-16.7,33c-4.4,6.6-15.9,16.1-13,25.2c3.2,10.2,16.2,5.6,22.9,2.1
		c9.9-5.3,17.4-14.2,24.2-23c11.4-14.8,20.8-30.7,28.5-47.5c-0.3,14,0.4,27.9,3.2,41.6c4.3,20.7,14.2,39.1,27.1,55.6
		c13.3,16.8,29.1,31.4,44.6,46.2c9,8.6,17.9,17,26.9,25.5c7.8,7.5,15.5,15.9,24.3,22.3c19.3,13.9,36.3-2.1,47.2-18
		c1.5-2.2,0-5.8-2.5-6.2c-28.5-5.3-47.8-29.4-64-51.5c-15.3-21.1-28.5-43.5-39.5-67.1c27.9,25.7,55.8,51.5,83.5,77.2
		c7.5,6.9,15,13.9,22.6,20.8c5,4.6,10.6,9.4,18,8c6.8-1.3,13.1-7.4,17.9-12.1c5.9-5.9,10.6-12.8,14.2-20.5
		C547.2,436.5,543.6,431.9,539.7,434.3z" style="fill:#FFFFFF;"/>
	<path d="M355.2,451.1c-1.8-2.8-5.5-4.9-8-6.9c-3.8-3.1-7.7-6.3-11.5-9.4c-7.4-6-14.6-12.1-22-18
		c-4.9-4-10.5-10.6-17.6-8.6c-3.4,1-6.3,3.7-9.1,5.8c-4.6,3.2-9.1,6.5-13.7,9.9c-1.5,1-1.9,2.5-1.8,4c-0.4,0.6-0.7,1.3-0.9,2.1
		c-2.2,19.5-1.5,38.8,2.1,58c0,1.6,0.1,3.2,0.1,4.9c0.1,3,2.7,4.6,5.3,4.1c10.2-1.6,20.4-3.1,30.5-4.7c7.5-1.2,14.9-1.9,20.9-6.8
		c6.8-5.5,12.4-12.8,18.3-19.2C351.8,462.3,358.9,457,355.2,451.1z" style="fill:#FFFFFF;"/>
	<path d="M389,165.8c-2.4-24.3-18.7-47.5-44.4-54.9c-21.1-6-43.8,5.2-56.8,21.8c-13.1,17-15.9,39.2-7.7,59
		c3.8,9.1,10,17.4,18,23.5c10.3,7.8,20.8,9.6,33.3,7.7c10.6-1.6,22.3-3.5,32.8-7.2c1.5,1.2,3.7,1.5,5.6-0.1c1.6-1.5,3.2-3.1,4.7-4.6
		c7.4-5.2,11.5-13.6,13.4-22.6C389.6,180.8,389.9,173.1,389,165.8z" style="fill:#B4C7E7;"/>
	<path d="M352,151.4c-6.9-6.6-16.8-7.4-24.5-1.9c-17.6,12.5-13.1,42.5-1.3,57.2c5.9,7.4,14.6,11.7,22.3,5
		c1.5-0.4,3-1.2,4.3-2.4c7.2-6.6,9-18.6,9-27.9C361.6,171.2,359.8,159,352,151.4z" style="fill:#F7D3BC;"/>
	<path d="M367.2,163.2c-1.2-9.3-5-18.1-12.7-23.8c-14.5-10.8-32.6-1.8-38.9,13.6c-3.5,8.4-4,18.3-2.8,27.3
		c0.4,3.8,3,7.4,6.2,7.8c0.9,0.6,1.9,0.7,3.2,0.3c3.8-1.5,6.9-3.4,9.9-6.2c2.8-2.8,5.9-8.7,9.6-10.3c-0.3-0.3-0.6-0.6-0.9-0.9
		c1,1,2.1,2.1,3.2,3c1.8,1.3,3.5,2.7,5.5,3.7c3.1,1.8,7.5,4.1,11.2,4C369.8,181,367.9,169.1,367.2,163.2z" style="fill:#57455D;"/>
	<path d="M554.6,431.6c-8.1-6.6-15.6-2.7-24.6-0.6c-13.1,3.1-25.8-12.4-34.7-19.9c-3.4-2.8-7.7-8.1-12.4-9
		c-3.5-0.6-6.8,1.8-9.4,3.8c-7.8,5.9-13.4,13.9-17,22.9c-0.9,2.4,0.3,4,2.1,4.7c8.6,9.7,17.6,19.2,27,28.3c4.4,4.3,9,8.4,13.6,12.4
		c1.3,1.2,2.8,2.5,4.1,4c-1.8-0.1-3.5-0.1-5.3,0.1c-6.8,1-11.5,2.7-18.1-1c-5-2.8-9.4-6.6-13.7-10.2c-8.3-7.1-15.9-14.8-23.2-22.9
		c-1.2-1.3-3.5-1.6-5.2-0.7c-11.2,6.6-20.7,15.5-28.2,26.1c-1.3,1.9-0.7,3.7,0.4,4.9c0,1,0.3,2.1,1.3,3.1
		c17.3,15.9,34.4,32,51.6,47.9c4.7,4.3,10.6,12.5,17.4,7.7c7.4-5.3,13.6-15.2,18.6-22.9c4.1-6.3,12-16.5,12.1-24.3
		c0-0.6,0-1.2-0.1-1.8c0.3,0.1,0.6,0.3,0.9,0.4c8.7,4,17.1-11.5,21.4-17c7.8-10,15.2-20.4,22-31.1
		C556,435.3,555.9,432.8,554.6,431.6z" style="fill:#74A2D6;"/>
	<path d="M309.4,336c-8.7-5.2-17.6-10.5-26.3-15.6c-1-0.6-2.1-0.7-3-0.6c-1.2,0-2.4,0.7-3.2,2.1c-4.7,9-9.4,18-14.2,27
		c-4.1,7.8-7.8,16.4-13.6,23.3c-4.4,5.5-10.8,9.9-12.8,17c-1.3,4.7-0.6,10.5,4.6,12.1c5.6,1.8,13.4-1.5,18.4-3.8
		c6.8-3.2,12.8-8.1,18.1-13.4c12.4-12.7,22.4-28,33-42.2C312.3,340,311.1,337.2,309.4,336z" style="fill:#74A2D6;"/>
	<path d="M500.7,326.1c-11.5-8-23-15.8-34.7-23.8c-8.1-5.6-17.9-16.5-28.3-12.2c-6.2,2.5-17.6,9.4-18.7,16.7
		c-0.7,4.3,2.8,7.2,5.8,9.7c4.3,3.7,8.9,7.2,13.6,10.5c11.1,7.7,23.2,14,35.9,18.6c8.1,3,17.3,4.7,25.2,1.9c3.1-0.3,5.9-1.3,8.1-3.7
		C514.3,336.5,506.6,330.1,500.7,326.1z" style="fill:#74A2D6;"/>
	<path d="M398.6,301.3c-3.4-18.7-7.1-37.3-10.9-55.9c-0.4-1.9-2.4-3-4.1-3.1c-6.9-0.4-13.7-0.3-20.7,0.9
		c-5.8,0.9-13.4,2.1-18.1,5.6c-3.1,2.4-3.8,5.8-4,9.4c-0.3,0.7-0.3,1.5-0.1,2.4c0,0.3,0.1,0.4,0.1,0.7v0.1c0.1,8,0.7,15.8,1.8,23.6
		c0.9,6.9,2.1,13.9,3.5,20.7c1.3,5.9,2.1,13.6,5.6,18.6c2.4,3.5,5.9,4.3,9.9,4c0.1,0.1,0.4,0.3,0.6,0.3c5.6,2.5,14.5,0.4,20.2-0.6
		c5.2-1,14.5-2.5,17.7-7.4C403,315.6,399.5,306.6,398.6,301.3z" style="fill:#F7D06F;"/>
	<path d="M585.2,302.8c-1.5-0.1-2.8,0-4.1,0.1c-3.8-0.7-6.6-4.3-5.9-8.6c0.4-2.7-1.3-4.6-3.4-5.2
		c-2.2-1.8-5.9-1.6-6.5,1.9c-1,5.9-3.8,10.6-9,13.7c-4,2.5-1.5,9.3,3.2,7.8c3-0.9,6.8,0.6,7.1,4.1c0.4,4.6,6.9,6,8.4,1.2
		c1-3.7,3.7-5.9,7.1-6.6c1.5,0,3,0,4.4-0.3C591.3,310.2,589.7,303.3,585.2,302.8z" style="fill:#F7D06F;"/>
	<path d="M558.8,167.1c-1.2,0-2.5,0.1-3.5,0.4c-5.8-0.1-8.9-5.8-6.8-11.5c0.6-1.5,0.3-2.7-0.4-3.5c0-0.1,0-0.4,0-0.6
		c0.4-5.5-8.1-5.5-8.6,0c-0.6,6.2-3.5,11.8-8.7,15.3c-4.6,3.2-0.7,9.4,4.3,7.4c4.4-1.9,6.5,5.6,7.2,8.4c1,3.8,7.5,4.3,8.3,0
		c0.6-3.5,2.7-6.2,5.9-6.9c1,0,2.2-0.1,3.2-0.4C564.6,174.5,563.6,167.1,558.8,167.1z" style="fill:#F7D06F;"/>
	<path d="M219.4,291.5c-0.7-0.1-1.5-0.1-2.2-0.1c-4.9-0.7-7.4-5.2-5.6-10.3c1-3.1-1.3-5-3.8-5.2
		c-2.8-1.6-7.4,0.7-6.3,4.9c1,4.7-1.3,9.1-5.2,11.4c-1.3,0.3-2.7,0.7-4,1.6c-4.1,2.5-1.5,8.9,3.2,7.8c1-0.3,2.1-0.6,3-1
		c2.7,0.1,4.7,3.8,6,5.9c1.8,2.8,7.2,2.8,7.8-1c0.4-3.2,2.4-5,5.2-5.3c0.7,0,1.5,0,2.2,0C225,299.6,224.7,292.2,219.4,291.5z" style="fill:#F7D06F;"/>
	<path d="M188.7,143.2c-5.9-0.6-11.2-3.5-14.9-8.3c-2.8-3.7-8.9-1.8-7.8,3.2c0.1,0.3,0.1,0.7,0.3,1
		c-0.3,1.8-1.2,3.2-2.4,4.3c-2.2,0.4-4.3,1.5-6.5,3.2c-3.5,3,0.4,7.8,4.1,7.1c2.1-0.4,4-1.2,5.8-2.2c3.7,0.7,7.1,6.2,8.7,8.7
		c2.4,3.8,7.5,1.9,8-2.2c0.3-3.5,2.7-5.9,6-6.8C194.7,150.3,193.2,143.6,188.7,143.2z M176.9,148.2c0.6,0.3,1.2,0.6,1.9,0.9
		c-0.1,0.1-0.3,0.3-0.4,0.6C177.9,149.2,177.5,148.6,176.9,148.2z" style="fill:#F7D06F;"/>
	<path d="M459.5,106c-1.6,0.3-7.5-0.9-4.7-3.7c3-3,0.1-7.1-3-7.2c-2.4-1.9-6.9-0.9-7.1,3.2c-0.1,4.6-2.4,8.1-5.8,10.5
		c-0.9,0.3-1.6,0.7-2.4,1.3c-4.6,3.2-0.7,9.6,4.3,7.4c0.7-0.3,1.3-0.6,2.1-1c3.4-1.2,6.6,0.9,7.2,5c0.9,5.5,9,3.1,8.3-2.2
		c-0.3-2.4,1.5-4.3,3.5-4.9C467.2,112.5,464.9,105.1,459.5,106z" style="fill:#F7D06F;"/>
	<path d="M489.1,244.8c-4.9,0.6-8.9-2.7-9.4-7.1c0.1-0.7,0.3-1.5,0.3-2.4c0.1-2.5-1.3-3.8-3.2-4c-2.4-0.4-5.3,0.9-5.6,4
		c-0.1,0.7-0.1,1.6,0,2.4c-0.9,3.8-3.2,7.1-6.6,9.3c-4.6,3-0.4,10,4.3,7.4c4-2.2,7.4,0.3,7.2,4.6c-0.3,5.5,8.1,5.5,8.6,0
		c0.3-3.4,2.7-5.3,5.9-5.9C494.8,252.4,493.8,244.2,489.1,244.8z" style="fill:#F7D06F;"/>
	<path d="M557.2,349.7c-5.5,0-5.5,8.6,0,8.6C562.7,358.1,562.7,349.7,557.2,349.7z" style="fill:#FFFFFF;"/>
	<path d="M667.1,314.8c-5.5,0-5.5,8.6,0,8.6C672.6,323.2,672.6,314.8,667.1,314.8z" style="fill:#FFFFFF;"/>
	<path d="M644.9,179.6H644c-2.2,0-4.4,1.9-4.3,4.3c0.1,2.4,1.9,4.3,4.3,4.3h0.9c2.2,0,4.4-1.9,4.3-4.3
		C649,181.5,647.2,179.6,644.9,179.6z" style="fill:#FFFFFF;"/>
	<path d="M521.4,271.5c-5.5,0-5.5,8.6,0,8.6C526.8,280.1,526.8,271.5,521.4,271.5z" style="fill:#FFFFFF;"/>
	<path d="M427.7,194.4c-2.4,0.1-4.3,1.9-4.3,4.3v0.9c0,2.2,1.9,4.4,4.3,4.3c2.4-0.1,4.3-1.9,4.3-4.3v-0.9
		C432,196.4,430,194.4,427.7,194.4z" style="fill:#FFFFFF;"/>
	<path d="M513.7,78.6c-0.3-0.3-0.6-0.6-0.9-0.9c-1.6-1.6-4.4-1.6-6,0c-1.6,1.8-1.6,4.3,0,6l0.9,0.9c1.6,1.6,4.4,1.6,6,0
		C515.2,82.8,515.3,80.2,513.7,78.6z" style="fill:#FFFFFF;"/>
	<path d="M493.8,170.6c-5.5,0-5.5,8.6,0,8.6C499.4,179,499.4,170.6,493.8,170.6z" style="fill:#FFFFFF;"/>
	<path d="M405.3,67.9c-5.5,0-5.5,8.6,0,8.6C410.9,76.3,410.9,67.9,405.3,67.9z" style="fill:#FFFFFF;"/>
	<path d="M291.1,65.4c-0.3-0.3-0.6-0.6-0.9-0.9c-1.6-1.6-4.4-1.6-6,0c-1.6,1.8-1.6,4.3,0,6c0.3,0.3,0.6,0.6,0.9,0.9
		c1.6,1.6,4.4,1.6,6,0C292.7,69.7,292.8,67.1,291.1,65.4z" style="fill:#FFFFFF;"/>
	<path d="M245.8,130.2c-5.5,0-5.5,8.6,0,8.6C251.2,138.6,251.2,130.2,245.8,130.2z" style="fill:#FFFFFF;"/>
	<path d="M131,211.8c-1.8-1.6-4.3-1.6-6,0c-0.3,0.3-0.6,0.6-0.9,0.9c-1.6,1.6-1.6,4.4,0,6c1.8,1.6,4.3,1.6,6,0l0.9-0.9
		C132.6,216.2,132.8,213.4,131,211.8z" style="fill:#FFFFFF;"/>
	<path d="M202.7,215.3c-2.4,0.1-4.3,1.9-4.3,4.3v0.9c0,2.2,1.9,4.4,4.3,4.3c2.4-0.1,4.3-1.9,4.3-4.3v-0.9
		C206.8,217.2,204.9,215.2,202.7,215.3z" style="fill:#FFFFFF;"/>
	<path d="M174.5,348c-5.5,0-5.5,8.6,0,8.6C180,356.4,180,348,174.5,348z" style="fill:#FFFFFF;"/>
	<path d="M127.6,290.4c-5.5,0-5.5,8.6,0,8.6C133.1,298.8,133.1,290.4,127.6,290.4z" style="fill:#FFFFFF;"/>
	<path d="M331.3,264.8c-0.9-0.6-2.1-0.9-3.1-0.9c-1.9-0.9-4.4-0.1-5.5,1.8c-0.3,0.4-0.4,0.9-0.7,1.5
		c-0.1,0.3-0.3,0.6-0.4,0.9l0,0c-0.7,1.6-1,3.2-0.9,5.2c0.3,2.4,1.8,4.4,3.8,5.6c2.5,1.3,5.6,0.9,7.5-1c1.6-1.6,2.1-4,2.2-6.2
		C334.4,268.9,333.7,266.1,331.3,264.8z" style="fill:#74A2D6;"/>
	<path d="M332.8,292c-4-1-6.6,2.2-7.4,5.8c-0.6,3-0.1,6.3,2.1,8.6c1.6,1.6,3.7,2.2,5.5,1.8c0.6,0,1-0.1,1.6-0.3
		C342.3,305.5,339.3,293.8,332.8,292z" style="fill:#74A2D6;"/>
	<path d="M383.3,207.4c-1.8-7.7-10.5-8.7-16.8-6.8c-10.8,3.2-21.1,5.8-32.3,7.2c-10,1.3-21.2,1.9-30.7,5.9
		c-5.2,2.2-10,7.8-6,13.3c0.9,1.2,1.9,1.9,3.1,2.5c0.7,0.7,1.8,1.2,3.1,1c0.1,0,0.1,0,0.3,0c5,0.7,11.2-0.6,15.2-1.2
		c4.3-0.6,8.4-1.3,12.7-2.2c13.7-1.8,27.4-3.8,40.6-7.2C378.3,218.4,384.9,214.6,383.3,207.4z" style="fill:#EF86B0;"/>
	<path d="M334,186.7c-1.8-1.6-4.6-1.8-6.2,0c-0.1,0.1-0.3,0.3-0.6,0.6c-1.6,1.6-1.8,4.6,0,6.2c1.8,1.6,4.6,1.8,6.2,0
		c0.1-0.1,0.3-0.3,0.6-0.6C335.6,191.4,335.8,188.3,334,186.7z" style="fill:#57455D;"/>
	<path d="M353.3,183.9h-0.6c-2.4,0-4.6,2.1-4.4,4.4c0.1,2.4,1.9,4.4,4.4,4.4h0.6c2.4,0,4.6-2.1,4.4-4.4
		C357.6,185.8,355.8,183.9,353.3,183.9z" style="fill:#57455D;"/>
	<path d="M351.1,195.9c-4.7-0.1-9.3,0.6-13.7,2.1c-5.5,1.8-3.1,10.3,2.4,8.6c3.7-1.2,7.4-1.8,11.4-1.8
		C356.9,204.9,356.9,196,351.1,195.9z" style="fill:#57455D;"/>
	<path d="M376.3,257.1c-8.1,0.7-16.2,2.2-24,4.3c-5.5,1.5-3.1,10,2.4,8.6c7.1-1.9,14.3-3.2,21.7-4
		C381.9,265.3,381.9,256.5,376.3,257.1z" style="fill:#57455D;"/>
	<path d="M380.6,281.6c-8.6,0.1-17.1,1.5-25.2,4.3c-5.3,1.8-3.1,10.3,2.4,8.6c7.5-2.5,15-3.8,22.9-4
		C386.4,290.3,386.4,281.4,380.6,281.6z" style="fill:#57455D;"/>
	<path d="M387.3,302.1c-8.9,0.7-17.6,1.9-26.3,3.4c-5.6,1-3.2,9.6,2.4,8.6c8-1.3,15.9-2.5,23.9-3.1
		C392.9,310.5,392.9,301.6,387.3,302.1z" style="fill:#57455D;"/>
	<path d="M399.8,374.2c-3.7-9-7.8-17.7-12.5-26.3c-2.8-5-10.5-0.6-7.7,4.4c4.3,7.8,8.3,15.8,11.7,24
		C393.5,381.7,402,379.5,399.8,374.2z" style="fill:#57455D;"/>
	<path d="M327.2,335.3c-3.7-18.6-5-37.3-4-56.2c0.3-5.8-8.6-5.6-8.9,0c-1,19.6,0.4,39.2,4.3,58.6
		C319.7,343.2,328.2,340.9,327.2,335.3z" style="fill:#57455D;"/>
	<path d="M416.2,300.9c-2.4-10-4.7-20.1-7.2-30.1c-1.3-5.6-9.9-3.2-8.6,2.4c2.4,10,4.7,20.1,7.2,30.1
		C408.9,308.9,417.5,306.5,416.2,300.9z" style="fill:#57455D;"/>
	<path d="M446.3,293.8c-8.6,5.3-16.7,11.2-24.3,17.7c-4.3,3.7,1.9,9.9,6.2,6.2c7.1-6,14.6-11.5,22.6-16.4
		C455.6,298.5,451.1,290.9,446.3,293.8z" style="fill:#57455D;"/>
	<path d="M301.7,343.8c-8-4.9-15.5-10.5-22.4-17c-4.1-3.8-10.5,2.4-6.2,6.2c7.4,6.9,15.5,13,24.2,18.3
		C302,354.5,306.6,346.8,301.7,343.8z" style="fill:#57455D;"/>
	<path d="M442,456.8c-9,7.8-17.6,15.9-25.8,24.5c-4,4.1,2.4,10.3,6.2,6.2c8.3-8.6,16.8-16.7,25.8-24.5
		C452.5,459.3,446.3,453.2,442,456.8z" style="fill:#57455D;"/>
	<path d="M486,406.8c-8.7,8.9-17.1,17.9-25.2,27.3c-3.7,4.3,2.5,10.6,6.2,6.2c8.1-9.3,16.5-18.4,25.2-27.3
		C496.3,409,490.1,402.8,486,406.8z" style="fill:#57455D;"/>
	<path d="M329.7,480.6c-2.5-8-4.9-15.9-7.4-23.9c-1.3-4.3-2.5-8.4-3.8-12.7c-0.9-2.8-1.5-6.8-3.5-9.1
		c-3.4-3.8-10.8-3.7-15.5-4.6c-8.1-1.6-16.4-3.2-24.5-4.7c-4.4-0.9-6.8,4.1-4.9,6.9c-0.6,1.5-0.4,3.1,0.7,4.6
		c15.6,18.1,33.2,34.4,52.4,48.4C326.5,487.8,330.9,484,329.7,480.6z M281.6,435.6c3.4,0.6,6.8,1.3,10.2,1.9
		c3.1,0.6,6.3,1.2,9.4,1.9c1.3,0.3,2.7,0.6,4.1,0.7c2.4-0.3,3.7,0.7,3.8,3.2c1.5,2.2,1.8,5.9,2.5,8.4c1.2,3.7,2.4,7.5,3.4,11.2
		c0.7,2.2,1.3,4.4,2.1,6.6C304.5,459.5,292.5,448,281.6,435.6z" style="fill:#57455D;"/>
	<path d="M375.3,510.7c-6.3,0.3-12.8,0.4-19.2,0.7c-5.6,0.1-5.8,9,0,8.9c6.3-0.3,12.8-0.4,19.2-0.7
		C380.9,519.2,380.9,510.4,375.3,510.7z" style="fill:#57455D;"/>
	<path d="M639.7,461.7c-0.4-1-1.3-1.8-2.8-2.1c-6.9-1.2-18.6-2.5-23.5,4.3c-4.7,6.6,1,14.3,8,15.8
		c6.8,1.5,16.5-0.7,21.1-6.2C646.3,468.9,644.1,463.6,639.7,461.7z M629.7,470.7c-2.1,0.4-5.2,1-7.2,0.1c-3.7-1.6,0.9-2.8,2.7-3
		c2.5-0.3,5-0.1,7.5,0.1c0.3,0.4,0.7,0.9,1.3,1.2c-0.1,0-0.1,0.1-0.3,0.1C632.2,469.8,631,470.4,629.7,470.7z" style="fill:#57455D;"/>
	<path d="M576,410.2c-4.6,0-9.3,0.6-13.7,1.8c-5.5,1.3-3.2,9.9,2.4,8.6c3.7-0.9,7.5-1.3,11.4-1.3
		C581.6,419.1,581.6,410.2,576,410.2z" style="fill:#57455D;"/>
	<path d="M574.5,493.6h-8.9c-5.8,0-5.8,8.9,0,8.9h8.9C580.1,502.4,580.1,493.6,574.5,493.6z" style="fill:#57455D;"/>
	<path d="M650,426.3c-3.5-1.3-7.7-1.3-11.4,0c-2.2,0.7-3.7,3.1-3.1,5.5c0.6,2.2,3.1,3.8,5.5,3.1c2.4-0.7,4.3-0.7,6.6,0
		c2.2,0.7,4.9-0.9,5.5-3.1C653.9,429.3,652.4,427,650,426.3z" style="fill:#57455D;"/>
	<path d="M218.3,456.8c-0.7-0.9-1.8-1.5-3.1-1.5c-8.1-0.4-21.4-1.2-25.8,7.2c-4.3,8,4,14.8,11.2,16.2
		c7.4,1.5,18.9,0.1,23.9-6.2C229.4,466.1,224.5,459.5,218.3,456.8z M216.6,467.8c-0.6,1.2-3.7,1.6-4.7,2.1c-3.4,1-7.5,1.3-10.9,0.1
		c-5.5-1.8-3.1-4.6,1.5-5.5c3.1-0.6,6.3-0.6,9.4-0.4c0.4,0.1,0.7,0.4,1.3,0.6c1.2,0,2.2,0.4,3,1.3
		C217.7,466.3,217.9,467,216.6,467.8z" style="fill:#57455D;"/>
	<path d="M262.3,508.6c-0.7-2.5-3.1-3.5-5.5-3.1c-4.7,0.7-9.3,1.6-14,2.4c-2.4,0.4-3.7,3.2-3.1,5.5
		c0.7,2.5,3.1,3.5,5.5,3.1c4.7-0.7,9.3-1.6,14-2.4C261.6,513.6,262.7,510.8,262.3,508.6z" style="fill:#57455D;"/>
	<path d="M245.5,410.4c-4.1-0.3-8.4-0.4-12.5-0.7c-5.8-0.3-5.6,8.6,0,8.9c4.1,0.3,8.4,0.4,12.5,0.7
		C251.1,419.5,251.1,410.7,245.5,410.4z" style="fill:#57455D;"/>
	<path d="M156.5,429.3c-0.7-2.5-3.1-3.4-5.5-3.1c-1.5,0.1-3.2,0-5-0.6c-2.2-0.7-4.9,0.9-5.5,3.1
		c-0.6,2.4,0.7,4.7,3.1,5.5c3.2,1,6.5,1,9.7,0.6C155.8,434.3,157.1,431.3,156.5,429.3z" style="fill:#57455D;"/>
	<path d="M289.9,473.7c-1.2-1.9-4-3-6-1.6c-2.5,1.6-5,3.2-7.5,5c-1.9,1.3-2.8,4-1.6,6c1.2,1.9,4,3,6,1.6
		c2.5-1.6,5-3.2,7.5-5C290.3,478.5,291.1,475.9,289.9,473.7z" style="fill:#F7D06F;"/>
	<path d="M295.6,483.2c-2.4,0.1-4.4,1.9-4.4,4.4v5.9c0,2.4,2.1,4.6,4.4,4.4c2.4-0.1,4.4-1.9,4.4-4.4v-5.9
		C300.1,485.3,298,483.1,295.6,483.2z" style="fill:#F7D06F;"/>
	<path d="M315.3,496.1l-2.2-6.6c-0.7-2.2-3.1-3.8-5.5-3.1c-2.2,0.7-3.8,3.1-3.1,5.5l2.2,6.6c0.7,2.2,3.1,3.8,5.5,3.1
		C314.4,500.8,316.1,498.4,315.3,496.1z" style="fill:#F7D06F;"/>
	<path d="M123.3,489.1c-5.3-0.4-10.5-0.9-15.8-1.3c-5.6-0.4-5.6,8.4,0,8.9c5.3,0.4,10.5,0.9,15.8,1.3
		C128.9,498.4,128.9,489.6,123.3,489.1z" style="fill:#57455D;"/>
	<path d="M704.6,490.9c-4.4-0.1-8.7,0.3-13,1.3c-5.6,1.3-3.2,9.7,2.4,8.6c3.5-0.7,6.9-1,10.6-1
		C710.2,499.9,710.2,491.1,704.6,490.9z" style="fill:#57455D;"/>
	<path d="M524.6,388.5c-3.5-0.1-7.1,0.9-10,2.7c-2.1,1.3-2.8,4-1.6,6c1.2,2.1,4,2.8,6,1.6c1.8-1.2,3.4-1.5,5.6-1.5
		c2.4,0.1,4.4-2.1,4.4-4.4C529,390.6,527,388.7,524.6,388.5z" style="fill:#57455D;"/>
	<path d="M527.6,531.3c-4-0.4-7.8-0.9-11.8-1.3c-2.4-0.3-4.4,2.2-4.4,4.4c0,2.7,2.1,4.1,4.4,4.4c4,0.4,7.8,0.9,11.8,1.3
		c2.4,0.3,4.4-2.2,4.4-4.4C532,533.3,529.9,531.6,527.6,531.3z" style="fill:#57455D;"/>
	<path d="M180.4,513.5h-11.8c-5.8,0-5.8,8.9,0,8.9h11.8C186,522.3,186,513.5,180.4,513.5z" style="fill:#57455D;"/>
	<path d="M98.2,448.7c-4.3,1-8.6,1.9-12.8,3c-5.6,1.2-3.2,9.7,2.4,8.6c4.3-1,8.6-1.9,12.8-3
		C106.1,456,103.7,447.4,98.2,448.7z" style="fill:#57455D;"/>
	<path d="M643.2,230.1c-2.4,0.1-4.4,1.9-4.4,4.4v1.2c0,2.4,2.1,4.6,4.4,4.4c2.4-0.1,4.4-1.9,4.4-4.4v-1.2
		C647.7,232.3,645.6,230.1,643.2,230.1z" style="fill:#FFFFFF;"/>
	<path d="M741.2,335.4h-4c-0.4-1.6-0.9-3.4-1.6-5c-0.9-2.2-3-3.7-5.5-3.1c-2.1,0.6-4,3.2-3.1,5.5
		c0.3,0.9,0.6,1.8,0.9,2.7h-4.7c-5.8,0-5.8,8.9,0,8.9h6c0,0.9,0,1.9-0.1,2.8c-0.3,2.4,0.6,4.7,3.1,5.5c2.1,0.6,5.2-0.7,5.5-3.1
		c0.3-1.8,0.4-3.5,0.4-5.2h3.1C746.9,344.3,746.9,335.4,741.2,335.4z" style="fill:#F7D06F;"/>
	<path d="M638.4,102.2c-1.9,0.1-3.8,0.1-5.8,0.1c-0.3-1.8-0.4-3.4-0.7-5.2c-0.3-2.4-3.4-3.7-5.5-3.1
		c-2.5,0.7-3.4,3.1-3.1,5.5l0.3,1.9c-0.7-0.1-1.3-0.1-2.1-0.3c-5.6-1.2-8,7.4-2.4,8.6c1.9,0.4,3.8,0.7,5.6,1l1,6.8
		c0.3,2.4,3.4,3.7,5.5,3.1c2.5-0.7,3.4-3.1,3.1-5.5c-0.1-1.3-0.3-2.5-0.6-3.8c1.5,0,3,0,4.4-0.1
		C644.1,110.6,644.1,101.7,638.4,102.2z" style="fill:#F7D06F;"/>
	<path d="M85.8,252.9c-3.4,0.4-6.8,1-10.2,1.8c-0.1-1.5-0.3-3.1-0.4-4.6c-0.6-5.6-9.4-5.6-8.9,0
		c0.3,2.4,0.4,4.7,0.7,7.1c-0.6,0.1-1,0.3-1.6,0.6c-5.3,1.9-3,10.5,2.4,8.6c0,0,0,0,0.1,0c0.1,2.2,0.4,4.4,0.6,6.6
		c0.6,5.6,9.4,5.6,8.9,0c-0.3-3.1-0.6-6.2-0.9-9.3c3.1-0.7,6.2-1.3,9.3-1.8C91.5,261.2,91.5,252.4,85.8,252.9z" style="fill:#F7D06F;"/>
	<path d="M112.1,352.1c-1.8,0-3.5,0-5.2,0c-0.4-1.8-0.7-3.4-1.2-5.2c-1.3-5.6-9.9-3.2-8.6,2.4c0.3,1.2,0.6,2.4,0.9,3.7
		c-1.3,0.1-2.5,0.4-3.8,0.7c-5.6,1.2-3.2,9.7,2.4,8.6c1.2-0.3,2.4-0.4,3.4-0.6c0.3,1.5,0.7,3,1,4.4c1.3,5.6,9.9,3.2,8.6-2.4
		c-0.1-0.9-0.4-1.8-0.6-2.8c1,0,2.1,0,3.1,0C117.9,361.2,117.9,352.4,112.1,352.1z" style="fill:#F7D06F;"/>
	<path d="M359.7,53c-5.8,0-5.8,8.9,0,8.9C365.4,61.9,365.4,53,359.7,53z" style="fill:#FFFFFF;"/>
	<path d="M221,79.4c-5.8,0-5.8,8.9,0,8.9C226.7,88.3,226.7,79.4,221,79.4z" style="fill:#FFFFFF;"/>
	<path d="M103.7,161.9c-5.8,0-5.8,8.9,0,8.9C109.5,170.8,109.5,161.9,103.7,161.9z" style="fill:#FFFFFF;"/>
	<path d="M42.8,324.6c-5.8,0-5.8,8.9,0,8.9C48.5,333.5,48.5,324.6,42.8,324.6z" style="fill:#FFFFFF;"/>
	<path d="M710.2,182.3c-5.8,0-5.8,8.9,0,8.9C715.8,191.1,715.8,182.3,710.2,182.3z" style="fill:#FFFFFF;"/>
	<path d="M729.2,258.8c-5.8,0-5.8,8.9,0,8.9C735,267.7,735,258.8,729.2,258.8z" style="fill:#FFFFFF;"/>
	<path d="M687.5,358.1c-2.4,0.1-4.4,1.9-4.4,4.4v1.2c0,2.4,2.1,4.6,4.4,4.4c2.4-0.1,4.4-1.9,4.4-4.4v-1.2
		C691.9,360.2,689.9,358,687.5,358.1z" style="fill:#FFFFFF;"/>
	<path d="M766.4,404.8c-5.8,0-5.8,8.9,0,8.9C772,413.6,772,404.8,766.4,404.8z" style="fill:#FFFFFF;"/>
	<path d="M566.7,98.5c-5.8,0-5.8,8.9,0,8.9C572.3,107.3,572.3,98.5,566.7,98.5z" style="fill:#FFFFFF;"/>
	<path d="M576.2,242c-5.8,0-5.8,8.9,0,8.9C581.9,250.9,581.9,242,576.2,242z" style="fill:#FFFFFF;"/>
</g>
</svg>
