<?xml version="1.0" encoding="utf-8"?>
<!-- Generator: Adobe Illustrator 20.1.0, SVG Export Plug-In . SVG Version: 6.00 Build 0)  -->
<svg version="1.1" id="Capa_1" xmlns="http://www.w3.org/2000/svg" xmlns:xlink="http://www.w3.org/1999/xlink" x="0px" y="0px" width="800px" height="600px" viewBox="0 0 800 600" style="enable-background:new 0 0 800 600;" xml:space="preserve">

<g>
	<path d="M239.4,370c3.5-38.9,8.4-77.6,12.7-116.4c0.1-1.2-1-2.7-2.2-2.9c-4-0.7-7.8,0.4-10.7,2.6
		c-1.4-0.3-3.1,0.2-3.8,1.9C221.6,290.3,212,327,207,364.4c-2.5,18.8-4,37.8-4.2,56.8c-0.1,9.5,0.1,19,0.5,28.5
		c0.4,8.9,0.4,18.4,2.4,27.1c3.6,16.6,22.3,15.7,35.4,12.6c1.7-0.4,2.3-2.1,2.1-3.7C236.9,447.4,236,408.7,239.4,370z" style="fill:#C39A8A;"/>
	<path d="M359.2,219.5c-26.6-9-55.5-8.9-82-0.1c21.1-21.2,36.7-47.5,45.2-76.2c0.6-2.2-1.5-4.4-3.7-3.7
		c-28.7,8.8-52.6,30-65.2,57c0-31.7-3.9-65.1-27.2-88.2c-1.5-1.4-4.7-1-5,1.3c-3.9,25.7-2.7,51.7,3.7,76.7
		c-14.8-20.3-33.9-38.5-60.7-37.2c-1.9,0.1-3.5,1.9-2.9,3.8c7.6,23.2,24.1,42.4,45.7,53.5c-34.1,9.4-63.2,34.5-77.3,67.1
		c-0.8,1.9,0.1,4.7,2.6,4.5c25.6-1.5,49.2-11.4,71.8-22.8c-20,25.6-34,55.4-40.8,87.3c-0.4,2,1.4,4.6,3.7,3.7
		c37.3-14.7,43.4-60.2,71.6-84.7c18.8,19.6,41.8,34.6,67.3,44c2.4,0.9,4-1.7,3.7-3.7c-3.6-20.9-13.8-40.1-28.9-54.8
		c27.8,0.2,55.2-7.5,79-22.1C362.2,223.6,361.6,220.3,359.2,219.5z" style="fill:#74A3D7;"/>
	<path d="M252.1,249.1c-4.2-1.7-9.1-0.4-12,3c-0.3,0.3-0.5,0.6-0.7,0.9c-22.6-13.9-30.6,33.4-6.8,29.9
		c3.3-0.5,6.2-2.2,8.4-4.7c5.1,5.6,15.9,6.5,19.6-1.3C264.2,269,260.9,252.7,252.1,249.1z" style="fill:#57455E;"/>
	<path d="M556.9,485.8c-0.2,1.6,0.4,3.3,2.1,3.7c13.1,3.1,31.7,4,35.4-12.6c1.9-8.7,1.9-18.2,2.4-27.1
		c0.5-9.5,0.6-19,0.5-28.5c-0.2-19-1.7-38-4.2-56.8c-5-37.4-14.6-74-28.5-109.1c-0.7-1.7-2.4-2.2-3.8-1.9c-2.9-2.2-6.8-3.3-10.7-2.6
		c-1.2,0.2-2.3,1.7-2.2,2.9c4.3,38.8,9.3,77.5,12.7,116.4C564,408.7,563.1,447.4,556.9,485.8z" style="fill:#C39A8A;"/>
	<path d="M440.1,225c23.7,14.6,51.2,22.3,79,22.1c-15.1,14.7-25.3,34-28.9,54.8c-0.3,2,1.3,4.6,3.7,3.7
		c25.5-9.4,48.5-24.4,67.3-44c28.2,24.5,34.3,70.1,71.6,84.7c2.3,0.9,4.1-1.7,3.7-3.7c-6.7-31.9-20.8-61.8-40.8-87.3
		c22.7,11.3,46.2,21.3,71.8,22.8c2.5,0.1,3.4-2.6,2.6-4.5c-14.1-32.6-43.2-57.7-77.3-67.1c21.5-11,38.1-30.2,45.7-53.5
		c0.6-1.9-1-3.7-2.9-3.8c-26.8-1.4-45.9,16.8-60.7,37.2c6.4-25,7.7-51.1,3.7-76.7c-0.4-2.3-3.6-2.8-5-1.3
		c-23.3,23.1-27.1,56.5-27.2,88.2c-12.6-27-36.5-48.2-65.2-57c-2.2-0.7-4.3,1.5-3.7,3.7c8.6,28.7,24.2,55,45.2,76.2
		c-26.4-8.8-55.4-8.9-82,0.1C438.4,220.3,437.8,223.6,440.1,225z" style="fill:#74A3D7;"/>
	<path d="M539.5,276.9c3.6,7.8,14.4,7,19.6,1.3c2.1,2.5,5,4.2,8.4,4.7c23.8,3.4,15.8-43.8-6.8-29.9
		c-0.2-0.3-0.4-0.6-0.7-0.9c-3-3.4-7.8-4.7-12-3C539.1,252.7,535.8,269,539.5,276.9z" style="fill:#57455E;"/>
	<path d="M428.4,402.7c-2.8-11.4-5.6-22.7-10.5-33.4c-2-4.3-4.2-9.3-8-12.4c-3.8-3.1-6.9-1.8-11-1.7
		c1.5-1.5,2.9-3.1,4.3-4.7c2-2.2,4.1-4.4,5-7.3c1.7-5-1.2-11.9-7.2-11.6c-3.2,0.2-5.6,2.5-8,4.4c-3.9,3.1-7.7,6.3-11.5,9.5
		c-7.2,5.9-14.4,11.8-21.6,17.7c-11-10.8-29.6-31-44.6-18.2c-0.2-0.4-0.5-0.8-0.8-1.1c4.4-6.2,2.9-16.5-0.3-22.7
		c-3.6-6.9-12-14.3-19.6-11.5c-2.4,0.7-4.6,2.4-6.1,4.6c-3.1,4.8-2.6,11.2-1.4,16.5c1.8,7.5,8.1,17.1,16.3,18c0,0.1,0,0.1,0,0.2
		c0,0,0,0,0,0c-11.2,7.1-15.2,21.7-10.2,33.9c5.5,13.5,19.4,21.2,33.4,22.5c1.4,0.1,2.8,0.2,4.2,0.2c9.9,7.4,22.9,10.7,34.7,13.8
		c8.7,2.3,21.4,0.6,22.5-9.9c0.2-0.2,0.3-0.4,0.5-0.7c3.8-7,7.9-13.7,12.4-20.2c1.3,2.7,2.6,5.5,3.7,8.3c1.2,3.1,1.9,6.9,3.6,9.8
		c3,5,11.8,1.9,16.4,1.3c1.7-0.2,2.6-1.4,2.8-2.7C428.3,404.8,428.6,403.8,428.4,402.7z" style="fill:#F7D3BD;"/>
	<path d="M445.5,317.9c-0.4-2.8-2.5-4.1-4.6-5.5c-3.8-2.6-7.8-5-11.9-7.1c-7.4-3.9-15.2-7-23.3-9.4
		c-2-0.6-3.7,1-3.8,2.9c-0.5,7-1,14.1-1.6,21.1c-0.3,3.8-0.7,6.2-3.4,8.9c-2.3,2.3-4.8,4.3-7.2,6.5c-3.2,2.9-9.3,6.5-10,11.2
		c-0.7,4.8,3.6,11.1,5.4,15.2c1.1,2.6,4.2,1.6,5.2-0.4c1.5-1.5,3-3.1,4.8-4.1c2.7-1.5,8.4-0.6,5.5,3.4c-1.4,1.9-4.1,2.6-5.6,4.6
		c-3.8,5.1,1.6,10.6,5,14.3c5.1,5.5,12.1,3.2,18.5,0.8c6.6-2.5,11.1-7.2,14-13.6c3.4-7.6,5.8-15.7,8-23.7c1.3-4.9,2.5-9.8,3.5-14.7
		C444.7,324.9,446,321.1,445.5,317.9z" style="fill:#B6C8E8;"/>
	<path d="M315.9,326.4c1-1,1.6-2.5,1.7-4.3c0.3-9.9-16.3-17.1-24.5-14.6c-12.7,3.9-10.4,19.7-6.8,29
		c1.2,3.1,3,7.2,7.1,5.2c2-1,3.6-3.2,4.8-5.7c-0.4,1.7,0.6,3.7,2.8,3.7c3.9,0,3.9-6,0-6c-1.1,0-1.8,0.5-2.3,1.1
		c0.7-1.6,1.2-3.3,1.6-4.8c1.9-1.8,6.9-0.9,9.3-1.1c0.5,0,1-0.1,1.5-0.2c0,1.5,1,3,2.9,3C316.9,331.7,317.6,328,315.9,326.4z" style="fill:#57455E;"/>
	<path d="M317,333.4c-1.3-1.2-2.9-1.1-4.2,0c-1.5,1.2-2.9,2.4-4.4,3.6c-1.2,1-1.1,3.2,0,4.2c1.3,1.2,2.9,1.1,4.2,0
		c1.5-1.2,2.9-2.4,4.4-3.6C318.2,336.7,318.1,334.5,317,333.4z" style="fill:#57455E;"/>
	<path d="M437.1,319.5c-2.4-3.4-8.7-3.9-12-6.4c-4-3-7.1-6.3-11.9-8c-0.8-0.3-1.7-0.1-2.4,0.4c-1,0.4-1.8,1.3-1.8,2.6
		c-0.3,5-0.5,9.9-0.8,14.9c-0.2,3.1-1.1,7.2,0.5,10.1c1.5,2.6,4.7,3.4,7.2,4.7c4.1,2.1,7.9,4.8,11.3,7.9c1.2,1.1,3.1,1.2,4.2,0
		c3.2-3.4,3.4-8.6,4.4-13.1C436.6,329.2,439.4,322.7,437.1,319.5z" style="fill:#57455E;"/>
	<path d="M303.4,446.5c-1.9-4.1-3.8-8.2-5.6-12.3c-0.5-1.2-2.2-1.7-3.4-1.4c-3.3,0.9-6.6,1.8-9.8,2.6
		c-3.7,1-2.1,6.8,1.6,5.8c2.5-0.7,4.9-1.3,7.4-2c1.6,3.4,3.1,6.9,4.7,10.3C299.8,453,304.9,450,303.4,446.5z" style="fill:#F7D16F;"/>
	<path d="M384.9,412.1c0.6-1.1,0.6-2.6-0.4-3.6c-5.2-4.9-10.4-9.7-15.6-14.6c-1.5-1.4-3.4-0.8-4.5,0.4
		c-4.6,2.1-9.3,4.2-13.9,6.3c-2.8,1.3-6,2.6-7.8,5.3c-3.5,5.4,0.8,10.5,5.8,12.8c7.3,3.3,16.3,3.9,24.1,2.9
		C377,421,388.8,419.3,384.9,412.1z" style="fill:#F7D16F;"/>
	<path d="M318.8,296.9c-3.6,3.1-7.3,6.2-10.9,9.3c-9.6-4.3-19.4-6.4-26.6,3c-5,6.6-7.5,15.4-3.1,22.4
		c-3.2,2.7-6.4,5.5-9.6,8.2c-2.9,2.5,1.3,6.7,4.2,4.2c16.7-14.4,33.4-28.7,50.2-43C326,298.6,321.7,294.4,318.8,296.9z" style="fill:#F7D16F;"/>
	<path d="M301.1,302.5c-10.2,6.6-18.9,15-25.8,25c-2.2,3.2,3,6.2,5.2,3c6.4-9.1,14.3-16.8,23.7-22.9
		C307.3,305.6,304.3,300.4,301.1,302.5z" style="fill:#F087B1;"/>
	<path d="M406,349.1c-0.3-1.9-2.9-2.8-4.4-1.8c-9.9,6.4-18.4,14.4-25.6,23.8c-1.1,1.5-0.5,3,0.7,3.7
		c-0.2,0.2-0.4,0.4-0.5,0.5c-1.4,1.4-1,3.2,0.1,4.2c-3.4,2.8-6.8,5.4-10.5,7.9c-3.2,2.2-0.2,7.4,3,5.2c9-6.1,17.2-13.4,25.1-20.9
		C400.5,365.7,407.7,358.9,406,349.1z" style="fill:#F7D3BD;"/>
	<path d="M245.4,321.3c-1.9-4.3-3.1-8.8-3.6-13.5c-0.4-3.8-5.7-3.9-6,0c-0.2,2.8-0.6,5.5-1.4,8.1
		c-0.4,1.2-0.8,2.5-1.3,3.6c-0.6-0.9-0.9-1.8-0.9-2.8c-0.9-4.4-0.7-9.3-0.5-13.8c0.1-2.9-4.3-4.2-5.6-1.5c-2.2,4.5-4.5,9-9.4,11.2
		c-3.5,1.6-0.5,6.7,3,5.2c2.3-1,4.1-2.5,5.7-4.2c0.3,5.6,1.8,11,6.5,12c3.4,0.7,5.6-1.3,7.1-4.3c0.4,1,0.8,2,1.2,3
		C241.8,327.8,247,324.8,245.4,321.3z" style="fill:#57455E;"/>
	<path d="M241.5,341.4c-1-1.1-1.8-2.4-2.3-3.8c-0.9-2.3-4-3.1-5.5-0.7c-1.1,1.9-2.9,5-5.3,4.9c-1.9-0.1-1.8-0.9-2.3-2.7
		c-0.4-1.5-0.5-3.1-0.5-4.6c-0.1-3.3-5.1-4.2-5.9-0.8c-1,4.1-3.2,10-8.7,8.1c-3.6-1.3-5.2,4.5-1.6,5.8c5,1.8,9.1-0.2,11.9-3.6
		c1.1,2.4,2.8,4.4,5.4,4.9c3.6,0.6,6.8-1.9,9.3-4.8c0.4,0.6,0.8,1.1,1.3,1.7C239.8,348.6,244,344.3,241.5,341.4z" style="fill:#57455E;"/>
	<path d="M236.9,392.7c-4.2-1-3.6-8.8-4.9-12c-1-2.3-5.3-3.3-5.8,0c-0.3,2.3-1.6,5.2-1.5,7.4c0,0,0,0,0,0.1
		c0,0,0,0,0-0.1c-1.5-4.3-2.2-8.8-2.3-13.4c-0.1-3.1-3.9-3.9-5.6-1.5c-1.7,2.3-4.9,12.5-9.1,10.3c-3.4-1.8-6.5,3.4-3,5.2
		c6.1,3.1,9.8-0.4,12.7-4.9c0.3,1.4,0.6,2.8,1,4.2c0.8,2.7,1.8,7,4.6,8.5c3.1,1.6,5.1-0.2,6.5-3c1,2.3,2.7,4.2,6,5
		C239,399.4,240.6,393.6,236.9,392.7z" style="fill:#57455E;"/>
	<path d="M238.1,425.5c-3.5-3-5-6.6-4.9-11.2c0.1-3.7-4.7-3.7-5.9-0.8c-0.8,1.8-0.7,3.9-1.4,5.6c-0.1,0.5-0.2,1-0.3,1.4
		c-1.8,1.9-2.7,1.7-2.9-0.6c-1.8-3.6-1.4-9.2-1.2-13.1c0.1-2.8-4.4-4.3-5.6-1.5c-1.9,4.5-4.2,10.4-9.9,10.7c-3.8,0.2-3.9,6.2,0,6
		c4.2-0.3,7.3-2.1,9.8-4.7c0.6,4.9,2.3,9.5,6.3,10.9c4,1.4,6.3-0.5,7.7-3.3c1,1.7,2.4,3.3,4,4.7C236.8,432.3,241,428,238.1,425.5z" style="fill:#57455E;"/>
	<path d="M242.6,462.1c-1.7-2.5-2.6-4.9-3-7.9c-0.5-3.8-6.3-2.2-5.8,1.6c0,0.1,0,0.3,0,0.4c-0.3-1.1-1.1-2.5-1.4-3.4
		c-1-2.9-1.9-5.7-2.7-8.6c-0.9-3.3-5.7-2.6-5.9,0.8c-0.2,3.2-0.7,6.2-1.7,9.1c-0.7-1.5-1.2-3.1-1.4-4.8c0.4-2.5,0.4-5.1,0.1-7.6
		c-0.3-3.1-5.3-4.4-5.9-0.8c-0.4,2.3-0.5,4.5-0.4,6.7c-0.7,4.4-2.7,8.7-7.4,5.7c-3.2-2.1-6.2,3.1-3,5.2c3.9,2.6,8.9,1.9,12.4-1.2
		c0.1-0.1,0.3-0.2,0.4-0.4c0.9,2,2.1,3.9,3.6,5.8c1.2,1.5,3.9,1,4.7-0.6c0.9-1.7,1.6-3.5,2.2-5.3c0.3,0.9,0.7,1.8,1,2.7
		c0.9,2.3,1.9,5.2,4.5,6c1.8,0.6,3.2,0.2,4.2-0.7c0.1,0.1,0.1,0.2,0.2,0.3C239.5,468.3,244.7,465.3,242.6,462.1z" style="fill:#57455E;"/>
	<path d="M580.3,304.7c-1,0-2-0.1-3-0.1c-0.9-0.9-1.5-1.9-1.8-3c-0.8-1.8-1-3.3-1.1-5.2c-0.1-3.8-6.1-3.9-6,0
		c0,1.7-0.5,9-3.4,5c-1.3-1.8-1.2-4.7-1.3-6.8c-0.1-3.9-5.8-3.8-6,0c-0.3,4.9-2.4,8.8-6.1,12c-2.9,2.5,1.3,6.8,4.2,4.2
		c1.9-1.6,3.4-3.4,4.6-5.4c1.1,1.7,2.7,2.9,5,3.3c2.5,0.4,4.3-0.5,5.7-2.1c0.9,1.5,2.1,2.7,3.6,3.7c3.8,2.3,8.4,1.2,10.6-2.6
		C587.5,304.4,582.3,301.4,580.3,304.7z" style="fill:#57455E;"/>
	<path d="M590.7,332.5c-3.9-1.5-6.3-4.5-7.2-8.4c-0.7-2.9-5.1-2.8-5.8,0c-0.2,0.8-1.2,4.8-1.7,4.8
		c-2.4,0.3-3.5-5.8-3.6-7.2c-0.1-3.9-5.9-3.9-6,0c-0.1,5.3-0.4,11.4-5.9,13.9c-3.5,1.6-0.5,6.8,3,5.2c3.8-1.7,6-4.7,7.2-8.2
		c1.1,1,2.3,1.8,3.8,2.2c2.9,0.9,4.9-0.4,6.3-2.5c2,2.7,4.9,4.7,8.3,6C592.8,339.6,594.3,333.8,590.7,332.5z" style="fill:#57455E;"/>
	<path d="M596.3,392.1c-4.2,4.2-7.2-8-7.4-9.8c-0.5-3.4-6-2.5-5.9,0.8c0.1,3.3,0.3,6.2-2.4,1.8
		c-1.6-2.6-2.6-5.5-2.9-8.5c-0.5-3.7-5.8-4-6,0c-0.2,5.8-2.5,10.8-6.5,14.9c-2.7,2.8,1.5,7,4.2,4.2c2.4-2.4,4.2-5,5.6-7.9
		c1.5,2.9,3.6,5.2,6.3,6.2c2.3,0.8,4,0.2,5.2-1c2.7,4.5,6.8,7.8,11.4,5.6c1.5,0.4,3.1-0.1,3.3-2c0.1-0.4,0.1-0.9,0.2-1.3
		C601.7,392.2,598.6,389.7,596.3,392.1z" style="fill:#57455E;"/>
	<path d="M595.3,428c-2.9,1.8-6.3-8-6.6-9.2c-0.7-2.9-5-2.9-5.8,0c-0.5,2-0.4,3.8-2.8,4c-2.4,0.2-1.8-0.9-2.1-3.4
		c-0.3-2.5-0.6-5-0.9-7.5c-0.1-1-0.2-1.9-0.4-2.9c-0.6-3.3-6.3-2.6-5.9,0.8c0.2,1.4,0.2,3.2,0.3,5.2c-0.4,5.6-3.8,10.6-9,13.3
		c-3.4,1.8-0.4,7,3,5.2c3.4-1.8,6.1-4.3,8.1-7.3c0.7,1.5,1.8,2.6,3.2,3.3c3.9,2,6.9,0.2,9.1-2.6c2.9,5.1,7.5,9.6,12.7,6.3
		C601.6,431.1,598.6,425.9,595.3,428z" style="fill:#57455E;"/>
	<path d="M595.9,457.6c-3.4-2.1-5.3-4.9-6.1-8.7c-0.7-3.3-6.1-2.6-5.9,0.8c0.1,1.7,0.1,3.4-0.5,5
		c-0.3,1.1-0.9,2-1.6,2.8c-0.5,1.1-0.8,1.1-1,0c-1.9-1.4-1.7-9-1.7-11.1c-0.1-3.2-5.2-4.2-5.9-0.8c-0.5,2.8-5.3,13.8-9.9,9.3
		c-2.8-2.7-7,1.5-4.2,4.2c5.2,5.1,11,2.4,15.1-2.4c0.9,4.1,2.8,7.7,6.6,7.9c3.5,0.1,5.9-2.5,7.4-5.7c1.3,1.5,2.9,2.8,4.7,4
		C596.2,464.8,599.2,459.6,595.9,457.6z" style="fill:#57455E;"/>
	<path d="M591.6,358.2c-7.9,1.2-15.8,1.4-23.7,0.7c7.5-3.3,15.2-5.7,23.2-7.3c3.8-0.8,2.2-6.5-1.6-5.8
		c-9.5,1.9-18.7,5-27.4,9.2c-0.7,0.3-1.1,0.8-1.3,1.3c-0.4,0-0.8,0.2-1.2,0.5c-17.9,12.8-40.5,17.6-61.4,23.5
		c-22.2,6.2-44.6,12-67,17.3c-22.4,5.3-46.1,12.5-69.3,10.7c-21.8-1.7-42.5-12.3-62.3-20.9c-21-9.2-41.7-19.2-60.4-32.5
		c-0.3-0.6-0.5-1.1-0.8-1.7c-0.1-1.7-1.6-3.4-3.8-3.1c-10,1.4-20.1,2.1-30.2,2.3c-3.9,0.1-3.9,6.1,0,6c9.2-0.2,18.4-0.9,27.6-2
		c0.2,0.5,0.5,1,1.1,1.5c0.4,0.3,0.9,0.6,1.3,0.9c0.2,0.4,0.4,0.8,0.6,1.2c-0.6-0.4-1.4-0.6-2.3-0.3c-8,2-16,4-24,6.1
		c-3.7,0.9-2.2,6.7,1.6,5.8c8-2,16-4,24-6.1c1.5-0.4,2.1-1.5,2.1-2.7c21.7,41.6,60.2,74.1,105.2,88c14.6,4.5,29.2,6.7,44.5,4.7
		c16.1-2,32.1-4.9,48.3-6.8c29.1-3.4,59-7.2,85-21.6c23.3-13,42.1-35.6,44.4-62.6c9.8,1.2,19.6,1.1,29.4-0.4
		C597,363.4,595.4,357.7,591.6,358.2z" style="fill:#F087B1;"/>
	<path d="M382.1,353.9c-12,5.8-23.9,11.6-36.1,17.1c-2.9,1.3-5.8,2.6-8.7,3.8c-1.8,0.8-3.6,1.8-5.4,2.3
		c-2.6,0.7-3.1,0.5-4.7-1.5c-0.5-0.7-1-1.3-1.5-2c2.8-0.9,2.5-5.8-1-5.8c-1.2,0-2,0.6-2.5,1.4c-2.7-3.5-5.4-7.1-8.2-10.6
		c-2.3-3-7.5,0-5.2,3c4.9,6.4,9.6,13.1,14.8,19.2c4.7,5.5,10.1,2,15.7-0.4c15.4-6.6,30.5-14.1,45.6-21.3
		C388.6,357.4,385.6,352.2,382.1,353.9z" style="fill:#57455E;"/>
	<path d="M390.4,372.8c-8.2,8.5-16.4,17.9-27.9,21.9c-3.6,1.3-2.1,7.1,1.6,5.8c12.6-4.4,21.6-14,30.6-23.4
		C397.3,374.3,393.1,370,390.4,372.8z" style="fill:#57455E;"/>
	<path d="M337.8,355.8h-0.4c-3.9,0-3.9,6,0,6h0.4C341.7,361.8,341.7,355.8,337.8,355.8z" style="fill:#57455E;"/>
	<path d="M399.6,338.9c-0.7-0.5-1.3-0.9-2-1.4c-0.6-0.4-1.6-0.5-2.3-0.3c-0.7,0.2-1.5,0.7-1.8,1.4
		c-0.8,1.5-0.3,3.1,1.1,4.1c0.7,0.5,1.3,0.9,2,1.4c0.6,0.4,1.6,0.5,2.3,0.3c0.7-0.2,1.5-0.7,1.8-1.4
		C401.5,341.4,401,339.8,399.6,338.9z" style="fill:#57455E;"/>
	<path d="M411.6,345.6c-0.4-0.2-0.9-0.4-1.3-0.7c-1.4-0.7-3.3-0.4-4.1,1.1c-0.7,1.4-0.4,3.4,1.1,4.1l1.3,0.7
		c1.4,0.7,3.3,0.4,4.1-1.1C413.4,348.3,413.1,346.3,411.6,345.6z" style="fill:#57455E;"/>
	<path d="M425.5,357.4c-0.4-0.4-0.9-0.9-1.3-1.3c-1.1-1.1-3.1-1.2-4.2,0c-1.1,1.2-1.2,3.1,0,4.2
		c0.4,0.4,0.9,0.9,1.3,1.3c1.1,1.1,3.1,1.2,4.2,0C426.6,360.5,426.7,358.6,425.5,357.4z" style="fill:#57455E;"/>
	<path d="M415.6,367.2C415.6,367.2,415.6,367.2,415.6,367.2c0-0.1-0.1-0.1-0.1-0.2c-0.6-1.3-2.1-2.2-3.5-1.7
		c-1.5,0.5-2.6,2.1-2.1,3.7c0.6,2,2.1,3.5,4.2,4c1.5,0.4,3.3-0.5,3.7-2.1C418,369.3,417.2,367.7,415.6,367.2z" style="fill:#57455E;"/>
	<path d="M391.6,346c-0.7-0.7-1.3-1.3-2-2c-1.1-1.1-3.1-1.2-4.2,0c-1.1,1.2-1.2,3.1,0,4.2c0.7,0.7,1.3,1.3,2,2
		c1.1,1.1,3.1,1.2,4.2,0C392.7,349.1,392.8,347.2,391.6,346z" style="fill:#57455E;"/>
	<path d="M319.6,472.3c-0.3-4-0.6-7.9-1-11.9c-0.2-2.8,0-6.2-1.1-8.9c-2.1-4.9-10.8-4-15.1-4.1
		c-3.5-0.1-11-1.6-12.2,3.1c-0.6,2.4,1.1,5,1.9,7.2c0,0.1,0.1,0.2,0.1,0.4c1.6,6.5,3.3,13.1,4.9,19.6c1.1,4.3,1.4,13.3,6.8,14.7
		c2.4,0.6,5.2-0.4,7.6-0.8c2.3-0.4,5.2-0.5,7-2.1C322.8,485.9,320,476.9,319.6,472.3z" style="fill:#B6C8E8;"/>
	<path d="M316.4,477.4c-0.5-5.3-2-10.6-3.6-15.6c-0.5-1.4-2.1-2.7-3.7-2.1c-2.1,0.8-4.1,1.4-6.3,1.6
		c-1.1,0.1-1.9,0.6-2.4,1.3c-1.6,0.3-2.9,1.7-2.3,3.6c1.7,5.5,5.7,20.8,14,19.1C315.8,484.6,316.7,480.7,316.4,477.4z" style="fill:#F087B1;"/>
</g>
</svg>
