<?xml version="1.0" encoding="utf-8"?>
<!-- Generator: Adobe Illustrator 23.0.2, SVG Export Plug-In . SVG Version: 6.00 Build 0)  -->
<svg version="1.1" id="Capa_1" xmlns="http://www.w3.org/2000/svg" xmlns:xlink="http://www.w3.org/1999/xlink" x="0px" y="0px" viewBox="0 0 800 501.7" style="enable-background:new 0 0 800 501.7;" xml:space="preserve">

<g>
	<path d="M715.8,64c-33.9-21.7-73.4-33.5-112.2-42.9C563.3,11.4,522.2,5,481,2c-82.4-6-165.7,1.4-245.7,21.7
		C195.1,33.9,155.8,47.3,117.9,64C83.3,79.2,52,98.9,30.8,131c-41.2,62.5-35.8,143,0,206.6c1.6,3,3.5,6,5.3,9
		c26.2,64.3,81.5,115.9,148,136.5c42.6,13.3,88.2,14.5,132.4,16.6c46,2.2,92.1,3.3,138,0c81.5-5.7,164.4-25.6,232-73.7
		c59-41.9,105-106.8,112.5-180C806,175,776.5,102.8,715.8,64z" style="fill:var(--illu-bg--main);"/>
	<g>
		<path d="M70.2,96.8c-0.7,0-1.4,0.1-2,0.4c-23.1,10.9-48,23.1-60.8,46.3c-10.7,19.7-10.6,44.1,6.2,60.4
			c7.7,7.5,17.8,12.5,28.1,15.1c6.9,1.8,19.5,4.7,24.6-2.7c5.2-7.9-3.9-12.3-10-13.7c-14.5-3.4-29.4-9.4-36.5-23.5
			C3.1,146,50.4,121.7,73.4,110c1.4-0.7,2-2.2,2-3.5c0-1.9,0.1-3.8,0.1-5.8C75.7,97.3,72.6,96,70.2,96.8z" style="fill:var(--illu-bg--light);"/>
		<path d="M159.2,65.9c-12.9-19.8-36.6-19-56.8-12.1S69.1,77,66.5,98.3c-2.2,18.2,4.7,42.2,23.7,47.6
			c0.8,0.9,2,1.6,3.8,1.5c13.7-1.1,27.3-2.6,41-4.3c10.7-1.5,23.9-0.7,29-11.8C173.3,111.1,171.1,84.2,159.2,65.9z" style="fill:var(--illu-blue--light);"/>
		<path d="M105.3,248.4c-8.3-29.2-17.4-58.3-15.9-89.1c0.1-3.1-2.6-4.3-4.9-3.9c-0.7-0.3-1.5-0.3-2.4-0.1
			c-9.9,2.4-27.5,3-33.2,13.2c-5.4,9.8-2.7,24.4-1.6,34.9c1.4,14.5,3.9,28.8,8,42.7c1.9,6.8,4.2,13.6,6.8,20.1
			c1.5,3.8,3,9.5,6.6,11.7c3.5,2.2,7.9,1.1,11.7,0.3c6.8-1.4,13.7-3.3,20.1-6C111.7,267.4,108.1,258.4,105.3,248.4z" style="fill:var(--illu-red--light);"/>
		<path d="M144.5,94.1c-2.6-9-11.3-19.8-20.6-20.5c-1.1-1.1-2.6-1.6-4.5-0.8c-16.6,6.5-22.2,26-19.7,42.5
			c2.2,14.1,16.1,28.1,31.2,21.3C145.2,130.1,148.4,107.6,144.5,94.1z" style="fill:var(--illu-brown--light);"/>
		<path d="M228.6,426.7c-7.6-4.5-19-4.6-20.6-15.1c-1.5-9.6-1.2-20.1-1.8-29.8c-1.2-20.9-2.3-41.8-3.5-62.7
			c0-0.1,0-0.1,0-0.3c4.7-5.2,10.4-9.8,14.2-15.9c5-7.9,5.3-17.2,1.9-25.9c-7.6-19-30.3-31.1-47.8-40.6c-0.3-9.4-0.5-18.9-0.8-28.2
			c-0.3-9.4-3-22.4,2-30.8c4.3-7.5,10-14,13.8-21.8c3.7-7.5,6.4-15.3,8.8-23.3c9.2-31.1,20.5-69.2,5.8-100.1c-1.5-3-5.6-2.4-7.2,0
			c-14.5,22.1-13.6,50.5-22.9,74.6c-2.4,6.4-5.3,13.3-9.1,19.1c-5,7.6-12.8,7.7-21,8.4c-15.6,1.2-31.2,1.5-46.8,0.8
			c-1.2,0-2,0.3-2.7,0.9c-0.9,0.1-1.9,0.7-2.6,1.6c-34.9,46-41.8,109.3-18.6,162c1.4,3,5.7,2.4,7.2,0c9.5-15.1,6.1-32.7,6.1-49.5
			c0-10.3,1.1-20.5,3.1-30.5c0.7,16.4,4.6,32.6,14.7,43.8c7.9,8.7,19.3,12.9,30.4,15.6c3.1,0.8,6.4,1.5,9.6,2.2
			c1.1,4.1,2,8.3,3.1,12.3c-19.7,7.5-39.5,14.8-59.2,22.2c-1.9,0.7-2.8,2-3,4.1c-1.1,12.5-1.2,24.8-0.4,37.3c0.1,2.4,2.6,5,5.3,4.1
			c3.9-1.5,6-3.8,7.7-7.6c0.9-2,1.4-5,2.6-6.8c3-3.9,7.7-3.5,12.1-3.9c15.9-1.5,31.9-3,47.8-4.5l20.2,80.6c2,8,3,21.6,13.3,23.3
			c5.3,0.8,11.3-1.4,16.3-2.4c7.2-1.6,14.2-3.4,21.3-5.4C231.1,433.3,231.7,428.4,228.6,426.7z" style="fill:var(--illu-white--main);"/>
		<path d="M139.8,79.8c-7.5-8.3-20.4-11.4-29.6-4.2c-9.2,7.2-14.2,22.1-14.1,33.4c0,0.4,0,0.7,0.1,1.1
			c-0.9,2.6,0.3,5.8,3.7,5.6c9.6-0.8,17.4-5.6,22.1-13.3c6.9,5.8,17.9,12.5,24.6,7.2C155,103,144.9,85.4,139.8,79.8z" style="fill:var(--illu-bg--light);"/>
		<path d="M167.6,184.5c0-0.8-0.3-1.5-0.7-2c0.1-2.2-1.1-4.5-3.9-4.5c-9.6,0.4-19.3,1.1-28.9,2.2
			c-5,0.5-11.3,0.9-14.7,5.4c-4.2,5.7-0.8,15.2-0.4,21.6c0.5,6.4-0.1,16.7,3.8,22.1c3.1,4.5,8.3,3,13,2c8.5-1.6,17.9-3.9,25.8-7.9
			c4.6-2.3,5.6-5.2,6-10C168.3,204,168,194.1,167.6,184.5z" style="fill:var(--illu-yellow--main);"/>
		<path d="M128.9,337.9c-2.7-11.7-5.6-23.3-8.3-35c-0.4-1.6-1.5-2.6-2.7-2.8c-0.1-2.4-2-4.7-5-3.8
			c-6.6,2.3-13.2,4.9-19.3,8.3c-4.7,2.6-13,6.1-15.6,11.3c-2.7,5.7-1.1,15.2-1.1,21.3c0,8.8,0.4,17.6,0.9,26.5
			c0.3,3.8,4.3,5.2,7.1,3c2.7-2.2,5-4.5,6.9-7.3c2.4-3.5,3-7.6,6.4-10.3c3.7-2.8,8.7-2.8,13.2-3.5c4.9-0.8,9.6-1.6,14.5-2.3
			C128.2,342.7,129.3,340,128.9,337.9z" style="fill:var(--illu-blue--main);"/>
		<path d="M232.3,425.4c-2.3-5.2-7.6-6.2-12.1-8.4c-9.5-4.6-8.5-17.2-9-26.5c-0.1-3-2.6-4.3-5.3-4.1
			c-11,1.5-22,3.4-32.8,5.4c-1.2,0.3-2,0.8-2.4,1.6c-1.5,0.8-2.4,2.4-1.8,4.5c2.4,8,5,16,7.6,23.9c1.9,5.6,3.1,13,7.1,17.6
			c6.9,8.3,22.8,2.2,31.3,0.3C221.7,438.2,237,436.4,232.3,425.4z" style="fill:var(--illu-blue--main);"/>
		<path d="M207.7,41.9c-2.2-5.4-4.9-12.8-11-14.8c-6-1.9-10.2,2.7-12.8,7.6c-4.1,7.7-4.7,16.7-6,25.1
			c-1.6,11-3.3,22.1-4.9,33.1c-0.8,1.4-0.8,3.3,0.3,4.6c0.8,1.2,2.2,2.2,3.5,2.3c6.6,3.5,14.1,5.4,21.8,4.7
			c7.5-0.7,10.9-2.7,12.8-10C215.9,77.3,214.2,58.3,207.7,41.9z" style="fill:var(--illu-blue--main);"/>
		<path d="M84.1,279.5c1.1-8.1,1.6-16.1,1.9-24.4c0-0.9-0.3-1.6-0.7-2.3c0-4.2-0.1-8.4-0.1-12.6c0-1.8-1.2-3.5-3-4.1
			c-7.7-1.9-15.6-3-23.6-3.5c-2.6-0.1-3.9,1.6-3.9,3.7c-0.1,0.4-0.3,0.9-0.3,1.5c-0.3,13.3,1.1,26.5,4.6,39.2
			c1.5,5.2,4.3,19.9,10.6,24.1c1.2,1.4,2.6,2.6,4.3,3.7c2.2,1.4,5.6,0,6.1-2.4c0.9-4.2,1.9-8.4,2.6-12.6c0.7-3,1.1-6,1.4-7.9
			C83.9,281.1,84,280.3,84.1,279.5z" style="fill:var(--illu-blue--main);"/>
		<path d="M160.4,129.5c-5.3-2.2-12.3,0.1-17.5,0.8c-6.8,0.8-13.6,1.2-20.4,1.5c-13,0.5-27.1-2-39.9,0.5
			c-5.8,1.2-12.5,6.8-5.8,12.3c3.4,2.8,8.5,2.7,12.8,3.1c7.5,0.7,14.9,1.1,22.4,1.1c3,0,5.8-0.1,8.8-0.1c2.2,0.1,4.2,0.3,6.4,0.4
			c10.9,0.5,24,0.5,33.9-4.7C167.7,140.8,167.2,132.4,160.4,129.5z" style="fill:var(--illu-red--light);"/>
		<path d="M113.6,195.6c-0.7-1.2-2.2-2.2-3.5-2c-3.9,0.4-8.4,2-9.4,6.4c-0.7,3.1,0.9,6.8,3.8,8.1
			c0.8,0.5,1.6,1.1,2.6,1.4c3.7,0.9,6.2-2.4,7.3-5.4C115.3,201.2,114.9,198.2,113.6,195.6z" style="fill:var(--illu-blue--main);"/>
		<path d="M115.5,219.9c-2.7-3.1-7.9-3.4-10.7-0.5c-3.4,3.4-2.4,9.5,1.6,11.8c0.9,0.5,2.2,0.7,3.3,0.4
			c1.2,0,2.6-0.1,3.8-0.8C117.4,228.4,118.5,223.3,115.5,219.9z" style="fill:var(--illu-blue--main);"/>
	</g>
	<path d="M453,66.7c-2,0.4-3.5-1.8-3-3.5c0.7-2.7-1.1-4.6-3.3-5c-2.2-4.2-9.2-1.9-7.7,2.8c1.4,4.3-0.5,9.2-5.2,10.6
		c-5,1.6-3,9.4,2.2,8c3-0.8,6.2,0.8,7.3,3.5c0.1,0.9,0.3,1.8,0.5,2.7c1.2,4.3,8.5,3.7,8.1-1.1c0-0.4-0.1-0.7-0.1-1.1l0,0l0,0
		c-0.1-0.5-0.1-0.9-0.3-1.5c-0.4-3.4,1.2-6.2,4.5-7.9C460.8,72,457.5,65.9,453,66.7z" style="fill:var(--illu-yellow--main);"/>
	<path d="M326.6,64.6c2.2-2.4,0.9-7.5-3-7.1c-1.1,0.1-2.2,0.4-3,0.7c0-1.2,0.1-4.2,0.1-4.3c0.7-3.5-2.8-5.7-5.6-5
		c-2.4,0-5,2-4.2,5.2c0.8,3.4-0.3,6.9-2.7,9.2c-1.5,0.4-3,1.2-4.1,2.6c-2.6,2.7,0,8.7,4.1,6.9c1.1-0.5,2.2-1.1,3.3-1.8
		c0.5,0.1,1.1,0.8,1.4,1.8c0.1,2.4,0.5,4.9,1.2,7.3c1.2,4.5,8.3,3.7,8.1-1.1c0-3-0.3-6.2-1.5-9.1c0.1-0.9,0.3-1.9,0.8-2.6
		C323.3,67,325.2,66.2,326.6,64.6z" style="fill:var(--illu-yellow--main);"/>
	<path d="M358.9,337.9c-1.2,0.1-2.3,0.4-3.3,0.8c-1.5,0-3.1-1.2-3.3-2.8c-0.3-2.8-2.7-4.1-4.9-3.9
		c-2.2-0.1-4.5,1.1-4.5,3.9c0,2,0.1,6.2-0.9,9.2c-3.1,0-6.2,1.2-9,4.1c-2,2.2-1.4,6.2,1.9,6.9c3.7,0.8,7.1,0.1,9.9-1.9
		c0.3,0.3,0.5,0.5,0.7,0.8c0.3,1.5,0.7,3,1.4,4.3c1.8,3.7,8,1.9,7.7-2c-0.1-1.6-0.5-3-1.1-4.3c0-2.4,1.4-5,3.5-6.2
		c1.2-0.1,2.6-0.5,3.8-1.1C364.4,344,362.9,337.5,358.9,337.9z" style="fill:var(--illu-yellow--main);"/>
	<path d="M530.2,395.7c-1.2,0-2.2,0.3-3.1,0.4c-2.8-0.1-5-2.6-4.6-5.8c0.4-4.5-5.3-5.2-7.5-2.2c-1.2,0.8-2,2.3-1.4,4.2
		c1.1,2.8,0.7,5.6-0.8,7.7c-3.3,0.4-6.4,2.3-7.9,5.4c-1.5,3.3,0.9,6.9,4.7,6.1c2.3-0.5,4.5-1.6,6.4-3c0.4,0.1,0.7,0.4,1.1,0.7
		c1.5,1.2,2.2,3.1,2.7,5.2c0.1,0.9,0.4,1.8,0.7,2.6c1.6,5.2,9.4,3,8-2.2c-0.3-1.1-0.5-2.2-0.9-3.3c-0.7-2.7-1.1-6.1,0.9-7.3
		c0.9-0.1,1.9-0.3,2.7-0.5C535.5,402.5,535.1,395.6,530.2,395.7z" style="fill:var(--illu-yellow--main);"/>
	<path d="M660.5,347.2c-2.7-0.4-5.3,0-7.3,1.2l-0.1-0.1c0.8-2.8,1.1-6,0.7-9.1c-0.7-5.3-8.7-3-8,2.2l0,0
		c-0.7,0.5-1.2,1.2-1.4,2.3c-0.3,1.6-0.3,3.1,0,4.5c-0.5,0.8-1.1,1.6-1.8,2.3c-3,0.4-6,1.8-8.4,4.6c-2.7,3.1-0.1,7.7,4.1,6.9
		c2.7-0.5,5.2-1.6,7.3-3.1c0.8,0.1,1.5,0.5,2.2,0.9c0.1,2.4,0.7,4.9,1.4,7.3c1.1,3.8,7.1,4.1,8,0c0.8-3.5,0.3-6.6-1.1-9.4
		c0-0.4,0-0.7,0.1-0.9c2.2-0.3,4.3-1.2,6.4-2.8S663.4,347.7,660.5,347.2z" style="fill:var(--illu-yellow--main);"/>
	<path d="M769.9,255.3c2.2-2.3,1.2-6-1.9-6.9c-3.9-1.4-5.4-5.2-4.3-8.8c0.5-1.8-0.1-3.1-1.1-4.1
		c-0.1-0.5-0.1-1.1-0.3-1.8c-0.8-5.3-8.8-3-8,2.2c0.5,3.3,1.6,11.7-1.8,14.7c-2,0-4.2,0.3-6.4,1.1c-3.3,1.4-4.6,7.3,0,8
		c2.4,0.4,4.9,0.1,7.1-0.5c2.6,0.4,4.9,1.8,6.2,3.9c0.3,1.8,0.8,3.7,1.8,5.6c1.8,3.7,8.1,1.9,7.7-2c-0.1-1.9-0.7-3.7-1.4-5.4
		C767.5,259.1,768.3,257.1,769.9,255.3z" style="fill:var(--illu-yellow--main);"/>
	<path d="M565.4,216.2c0.1-1.1,0.3-2.3,0.1-3.4c0.4-1.5,2.2-2.7,3.7-2.4c2.7,0.5,4.7-1.4,5.2-3.5c0.8-2,0.1-4.6-2.6-5.4
		c-2-0.5-6.1-1.6-8.5-3.5c0.8-3,0.5-6.4-1.4-9.6c-1.5-2.6-5.6-3-7.2-0.1c-1.9,3.3-2,6.8-0.9,10c-0.3,0.1-0.7,0.4-0.9,0.5
		c-1.5-0.1-3-0.3-4.6,0c-4.1,0.7-4.1,7.2-0.1,8c1.5,0.3,3,0.4,4.5,0.1c2.3,0.7,4.5,2.7,4.9,5.2c-0.1,1.2-0.3,2.6,0,3.9
		C558,220,564.8,220.3,565.4,216.2z" style="fill:var(--illu-yellow--main);"/>
	<path d="M238.9,202.8c3.4-1.8,2.2-7.7-1.8-7.7c0.7-4.2-4.7-6.2-7.2-3.7c-1.8,0.8-3,2.4-2.7,4.7
		c0.1,0.4,0.3,0.9,0.4,1.4c-0.1,0.4-0.4,0.8-0.7,1.4c-0.1,0.3-0.3,0.4-0.4,0.7c-2.3,0.3-4.7,1.4-6.6,3.4c-1.5,1.6-1.6,4.2,0,5.8
		c3.5,3.5,7.2,2.4,10-0.4c0,0,0,0,0.1,0.1c0.3,1.1,0.5,2.3,0.9,3.3c1.6,4.1,8.3,3.9,8.1-1.1c0-2.2-0.7-3.9-1.5-5.6
		C237.8,204,238.1,203.2,238.9,202.8z" style="fill:var(--illu-yellow--main);"/>
	<path d="M134.7,384.9c3.5-3.3-0.9-8.8-5-6.5c-2,1.2-2.8,0.1-3.1-1.2c0-0.3,0-0.7,0-0.9c0-0.1,0-0.1,0-0.3
		c0-2.7-2-3.9-4.2-3.8c-2,0-4.1,1.2-4.1,3.8c0,0.1,0,0.1,0,0.3c0,0.7,0,1.2,0,1.9c0,1.4-0.1,2.7-0.7,4.1c0,0.1-0.1,0.1-0.1,0.3
		c-3.7,0.7-6.8,3.1-7.9,6.9c-0.5,1.9,0.4,3.7,1.9,4.7c4.2,3,7.7,1.1,10.3-2.6c0.3,0.3,0.5,0.4,0.7,0.7c1.2,1.5,1.9,3.4,2.4,5.4
		c0.1,0.9,0.4,1.9,0.7,2.7c1.4,5.2,9.2,3,8-2.2c-0.1-0.7-0.3-1.4-0.5-2.2C132.3,392.1,131.6,387.6,134.7,384.9z" style="fill:var(--illu-yellow--main);"/>
	<path d="M392.8,444.3c-2.3,0.1-4.2,1.8-4.2,4.2v1.1c0,2.2,1.9,4.2,4.2,4.2c2.3-0.1,4.2-1.8,4.2-4.2v-1.1
		C397,446.3,395,444.2,392.8,444.3z" style="fill:var(--illu-white--light);"/>
	<path d="M430.5,365.6c-2.3,0.1-4.2,1.8-4.2,4.2v1.1c0,2.2,1.9,4.2,4.2,4.2c2.3-0.1,4.2-1.8,4.2-4.2v-1.1
		C434.6,367.6,432.7,365.6,430.5,365.6z" style="fill:var(--illu-white--light);"/>
	<path d="M577.8,439.8c-5.3,0-5.3,8.3,0,8.3C583.1,448.2,583.1,439.8,577.8,439.8z" style="fill:var(--illu-white--light);"/>
	<path d="M599.9,333.5c-5.3,0-5.3,8.3,0,8.3C605.2,341.9,605.2,333.5,599.9,333.5z" style="fill:var(--illu-white--light);"/>
	<path d="M719.6,333.5c-5.3,0-5.3,8.3,0,8.3C724.9,341.9,724.9,333.5,719.6,333.5z" style="fill:var(--illu-white--light);"/>
	<path d="M751.8,167.3h-1.1c-2.2,0-4.2,1.9-4.2,4.2c0.1,2.3,1.8,4.2,4.2,4.2h1.1c2.2,0,4.2-1.9,4.2-4.2
		C755.8,169.3,754.1,167.3,751.8,167.3z" style="fill:var(--illu-white--light);"/>
	<path d="M503.6,59.8c-5.3,0-5.3,8.3,0,8.3C508.9,68.2,508.9,59.8,503.6,59.8z" style="fill:var(--illu-white--light);"/>
	<path d="M471.5,136.3c-5.3,0-5.3,8.3,0,8.3C476.8,144.6,476.8,136.3,471.5,136.3z" style="fill:var(--illu-white--light);"/>
	<path d="M373.9,58.7h-1.1c-2.2,0-4.2,1.9-4.2,4.2c0.1,2.3,1.8,4.2,4.2,4.2h1.1c2.2,0,4.2-1.9,4.2-4.2
		C378,60.6,376.2,58.7,373.9,58.7z" style="fill:var(--illu-white--light);"/>
	<path d="M376.1,130.8c-5.3,0-5.3,8.3,0,8.3C381.5,139,381.5,130.8,376.1,130.8z" style="fill:var(--illu-white--light);"/>
	<path d="M273.1,115.3c-5.3,0-5.3,8.3,0,8.3C278.4,123.6,278.4,115.3,273.1,115.3z" style="fill:var(--illu-white--light);"/>
	<path d="M289.7,219.4c-5.3,0-5.3,8.3,0,8.3C295.1,227.8,295.1,219.4,289.7,219.4z" style="fill:var(--illu-white--light);"/>
	<path d="M259.8,297c-5.3,0-5.3,8.3,0,8.3C265.1,305.2,265.1,297,259.8,297z" style="fill:var(--illu-white--light);"/>
	<path d="M156.9,437.6c-5.3,0-5.3,8.3,0,8.3C162.1,445.9,162.1,437.6,156.9,437.6z" style="fill:var(--illu-white--light);"/>
	<path d="M44.9,306.9c-5.3,0-5.3,8.3,0,8.3C50.2,315.3,50.2,306.9,44.9,306.9z" style="fill:var(--illu-white--light);"/>
	<path d="M29.3,236c-5.3,0-5.3,8.3,0,8.3C34.8,244.3,34.8,236,29.3,236z" style="fill:var(--illu-white--light);"/>
	<path d="M51.6,141.9c-5.3,0-5.3,8.3,0,8.3C56.9,150.2,56.9,141.9,51.6,141.9z" style="fill:var(--illu-white--light);"/>
	<path d="M114.1,112.6c-5.3,0-5.3,8.3,0,8.3C119.5,121,119.5,112.6,114.1,112.6z" style="fill:var(--illu-bg--light);"/>
	<path d="M137.5,113.1c-5.3,0-5.3,8.3,0,8.3C142.9,121.4,142.9,113.1,137.5,113.1z" style="fill:var(--illu-bg--light);"/>
	<path d="M131.5,123c-3.4,0-6.8,0.1-10.2,0.1c-5.3,0-5.3,8.4,0,8.3c3.4,0,6.8-0.1,10.2-0.1
		C136.9,131.2,136.9,122.9,131.5,123z" style="fill:var(--illu-bg--light);"/>
	<path d="M153.2,192.8c-8.7,1.2-17.2,2.6-25.9,3.8c-5.3,0.8-3,8.8,2.2,8c8.7-1.2,17.2-2.6,25.9-3.8
		C160.7,200.1,158.5,192.1,153.2,192.8z" style="fill:var(--illu-bg--light);"/>
	<path d="M152.9,208c-7.5,0.8-14.9,2-22.2,3.8c-5.2,1.2-3,9.2,2.2,8c6.6-1.6,13.3-2.7,19.9-3.5
		C158.2,215.7,158.2,207.4,152.9,208z" style="fill:var(--illu-bg--light);"/>
	<path d="M172.5,234.1c-4.5-1.6-9-3-13.7-3.9c-5.2-1.1-7.5,6.9-2.2,8c4.6,0.9,9.2,2.3,13.7,3.9
		C175.3,244,177.5,236,172.5,234.1z" style="fill:var(--illu-bg--light);"/>
	<path d="M169.2,285.2c-8.5-2.8-17.2-5-26-6.5c-5.3-0.9-7.5,7.1-2.2,8c4.1,0.7,8.1,1.5,12.1,2.6
		c-3.9,0.9-8,1.9-12.1,2.6c-5.3,0.9-3,9,2.2,8c8.8-1.6,17.5-3.8,26-6.6C173.1,291.8,173.1,286.4,169.2,285.2z" style="fill:var(--illu-bg--light);"/>
	<path d="M202.6,317.6c-12.8,8.1-26.2,15.2-40.3,20.8c-4.9,1.9-2.7,10,2.2,8c14.8-6,28.9-13,42.2-21.6
		C211.3,321.9,207.1,314.7,202.6,317.6z" style="fill:var(--illu-bg--light);"/>
	<path d="M85.8,178.2c-1.6,16.3-2.3,32.7-2,49.1c0.1,5.3,8.4,5.3,8.3,0c-0.3-16.4,0.4-32.7,2-49.1
		C94.6,173,86.3,173,85.8,178.2z" style="fill:var(--illu-bg--light);"/>
	<g>
		<path d="M637.4,154.6c-9-23.5-21-44.9-39.8-61.9c-1.9-1.8-4.3-1.2-5.8,0.1c-7.9,0.4-16.3,2.2-20.6,9.4
			c-4.9,8.1-1.1,17.8,3.3,25.2c6.9,12.1,15.2,23.6,23.3,34.9c6.4,9,13.2,17.6,22.1,24.3c6,4.5,15.1,9.4,20.1,0.9
			C645.4,178.2,640.8,163.6,637.4,154.6z" style="fill:var(--illu-red--light);"/>
		<path d="M717,80.4c-12.2-17.6-28.8-32.4-47.9-42.1c-7.2-3.7-16.8-8.3-24.6-3c-8.4,5.7-9,20.1-9.4,29
			c-0.1,2.8,2.2,4.2,4.5,3.9c11.4,8,21,17.2,31.1,26.7c8.8,8.4,19,11.4,30.8,13.8c7.6,1.5,18.9,4.1,23.6-4.3
			C729.8,96.7,721.2,86.4,717,80.4z" style="fill:var(--illu-red--light);"/>
		<path d="M722.6,160.1c-2.3-2.6-4.7-5-7.1-7.6c3.4,0.7,6.2-2.4,4.6-6c-3.4-7.2-8.5-13.2-14.4-18.5
			c-5.3-4.7-11.8-11-18.6-13.6c-12.8-4.6-23.5,6.8-29.8,17.1c-1.8,0.7-3,2.4-2.4,4.7c-0.1,1.1,0.1,1.9,0.8,2.7
			c4.5,16.7,12.1,32.3,22.4,46.1c2.2,2.8,8.1,2.4,7.7-2c-0.5-5.3-1.1-10.4-1.5-15.7c8.3,9.6,17,18.6,27.3,26.3
			c2.2,1.6,5.6-0.1,6.1-2.4c1.4-5.6-0.3-9.6-2.8-14.4c-0.1-0.3-0.3-0.5-0.5-0.8c6.2,3.3,12.2,4.3,14.8-1.4
			C731.4,168.9,725.9,163.6,722.6,160.1z" style="fill:var(--illu-yellow--main);"/>
		<path d="M685.7,110.5c-6.2,0.8-11.5,5.8-16.1,9.6c-7.2,5.8-14,12.3-20.2,19.1c-1.9,2-1.2,4.7,0.5,6.1
			c0,0.3,0.1,0.5,0.1,0.7c1.9,5,4.2,12.2,8.7,15.5c4.6,3.4,9.2,0,13.2-2.8c6.6-4.7,13-9.8,19.1-15.3c4.7-4.2,12.6-9.9,15.1-16
			C709.6,118.8,692.6,109.6,685.7,110.5z" style="fill:var(--illu-blue--main);"/>
		<path d="M692.1,106.3c-1.6-4.7-6-8.3-9.4-11.7c-4.3-4.5-8.8-9-13.3-13.4c-16.3-16.3-33.1-32.2-50.3-47.5
			c-13-11.5-29-27.1-47.6-27.4c-13.3-0.1-14,10.9-11.8,20.8c0.1,33.5,25.9,66.3,46.3,90.2c6.6,7.9,13.4,15.9,20.6,23.2
			c5.3,5.4,11.5,10.3,19.3,11.3c17.4,2.2,34.6-13.6,42.5-27.7C691.3,118.8,694.2,112.4,692.1,106.3z" style="fill:var(--illu-white--light);"/>
		<path d="M630.6,62.1c-7.1-8.7-20.1-12.6-29.4-4.9c-9,7.3-7.1,21,1.4,27.9c1.5,1.2,3.4,2.3,5.3,3
			c4.9,3,11.1,3.7,16.7,1.8C637.1,85.6,638.2,71.5,630.6,62.1z" style="fill:var(--illu-blue--light);"/>
		<path d="M604.2,19.5c0-0.1,0-0.1-0.1-0.3c-0.8-2-2.8-3.5-5.2-4.6c-9.9-8.3-22.5-15.3-35-7.9
			c-9.6,5.8-9.4,16.7-7.1,27.3c0.8,6.5,2.7,12.9,4.7,17.9c0.3,0.5,0.5,0.9,0.8,1.2c-0.7,2.8,2.6,6.2,6.1,4.5
			c12.2-6.2,22.7-14.9,30.7-25.9c1.5-2,3.9-4.9,4.9-7.9C605,22.8,605.4,21,604.2,19.5z" style="fill:var(--illu-blue--main);"/>
		<path d="M605.1,52.8c-0.3,0-0.5,0-0.8,0.1c-11.4,3.1-14.5,16-8.8,25.5c5.7,9.6,19.3,16,30,11.4
			C650.4,78.9,623.7,40.8,605.1,52.8z M620.4,82.7c-5.4,1.2-11.4-1.6-15.2-5.3c-4.2-4.1-6.6-12.2-1.2-15.6c1.2,0.4,2.7,0.3,4.1-0.9
			C617.7,51.3,638.1,78.5,620.4,82.7z" style="fill:var(--illu-red--light);"/>
		<path d="M685.6,119.8c-4.9-5.3-9.9-10.6-14.8-16c-3.4-3.7-6.6-8.5-10.9-11.3c-8.4-5.4-15.2,2.4-20.9,8.1
			c-6.8,6.8-12.3,10.3-6.8,19.5c6,9.6,13.8,18,22.7,25.1c4.1,3.3,10-2.6,5.8-5.8c-5.7-4.6-11-9.6-15.6-15.3
			c-0.9-1.2-7.6-8.5-7.2-10.4c0.4-1.8,4.3-4.6,5.7-6c2.2-2.2,5.6-7.1,8.4-8c4.3-1.4,8.3,5.2,10.6,7.7c5.7,6.1,11.3,12.2,17,18.2
			C683.3,129.5,689.2,123.6,685.6,119.8z" style="fill:var(--illu-bg--light);"/>
	</g>
	<path d="M209.2,394.4c-11.7,2.4-23.5,4.7-35.1,7.2c-5.3,1.1-3,9.1,2.2,8c11.7-2.4,23.5-4.7,35.1-7.2
		C216.7,401.3,214.5,393.3,209.2,394.4z" style="fill:var(--illu-bg--light);"/>
	<path d="M122.3,338.1c-4.3-12.9-8.7-25.8-13.2-38.5c-1.8-5-9.8-2.8-8,2.2c4.3,12.9,8.7,25.8,13.2,38.5
		C115.9,345.3,124,343.1,122.3,338.1z" style="fill:var(--illu-bg--light);"/>
	<path d="M80.3,240.5c-7.2-0.5-14.4-1.2-21.6-1.8c-5.3-0.4-5.3,7.9,0,8.3c7.2,0.5,14.4,1.2,21.6,1.8
		C85.6,249.3,85.6,240.9,80.3,240.5z" style="fill:var(--illu-bg--light);"/>
	<path d="M210.3,84.6C199.6,84.2,189,83,178.6,81c-5.3-1.1-7.5,6.9-2.2,8c11.3,2.2,22.5,3.5,33.9,3.9
		C215.6,93.2,215.6,84.9,210.3,84.6z" style="fill:var(--illu-bg--light);"/>
	<path d="M535.2,222.7c-24.8-17.8-63.2-13-81,12.2c-16.4,23.3-6.5,52.1,14.1,68c18.7,19.4,50.6,18.9,70.1-0.3
		C559.7,281.8,560.5,240.9,535.2,222.7z" style="fill:var(--illu-blue--light);"/>
	<path d="M363.9,162.4c-7.2-12.1-21.3-20.2-34.2-16c-18,1.2-23.9,22.4-20.8,37.9c3.9,18.9,21.3,26,38.5,19
		C364.8,196,374.1,179.6,363.9,162.4z" style="fill:var(--illu-blue--main);"/>
	<path d="M293.1,405.1c-9.6,0.9-18.2,6.6-22.7,14.2c-5.3,5-9.9,11-10.6,18.5c-1.5,17.6,15.6,31.9,32.3,32.7
		c18,0.9,33.5-14.8,35.4-32.2C329.7,417.6,313.3,403.1,293.1,405.1z" style="fill:var(--illu-red--light);"/>
	<path d="M560.1,252.2c-4.6-2.6-8.7,4.5-4.1,7.1c2.2,1.2,4.2,1.8,6.5,2.3c0.4,0.1,3,0.5,3,0.9c0.1,0.7-3.9,3-4.5,3.3
		c-6.2,4.1-13.2,7.2-20.1,9.6c-14,4.9-28.6,7.2-43.1,9c-15.9,1.9-31.7,3.4-47.6,4.5c-4.2,0.3-8.3,0.5-12.5,0.5
		c-2.2,0-11.1,0.4-12.2-1.5c-3.1-5.8,17.2-11,20.6-11.3c5.2-0.4,5.3-8.5,0-8.1c-9.8,0.7-19.5,4.3-26.3,11.5
		c-4.7,5-4.9,11.9,1.9,15.1c10.3,4.6,24.1,2.2,34.9,1.4c12.1-0.9,24.1-2,36.2-3.4c20.9-2.4,42.2-5.4,61.5-14.4
		c6.2-3,17.9-7.5,19.1-15.2C574.9,254.6,565.4,255.2,560.1,252.2z" style="fill:var(--illu-yellow--main);"/>
	<path d="M473.8,237.8c-6.6,3.5-14.1,4.9-21.4,3.7c-5.2-0.8-7.3,7.1-2.2,7.9c9.8,1.5,19,0.1,27.8-4.5
		C482.6,242.4,478.5,235.5,473.8,237.8z" style="fill:var(--illu-bg--light);"/>
	<path d="M549.3,250.8c-7.9,1.9-15.7,3.9-23.6,5.8c-5,1.2-3,9.1,2.2,7.9c7.9-1.9,15.7-3.9,23.6-5.8
		C556.5,257.3,554.4,249.5,549.3,250.8z" style="fill:var(--illu-bg--light);"/>
	<path d="M503.1,300.6c-6.4,2.2-12.8,3.5-19.5,3.9c-5.2,0.3-5.3,8.4,0,8.1c7.5-0.4,14.7-1.8,21.7-4.2
		C510.1,306.7,508.1,298.9,503.1,300.6z" style="fill:var(--illu-bg--light);"/>
	<path d="M319.9,419.6h-9.6c-5.3,0-5.3,8.1,0,8.1h9.6C325.2,427.7,325.2,419.6,319.9,419.6z" style="fill:var(--illu-bg--light);"/>
	<path d="M283.6,446.1c-4.3,2.6-9.1,4.3-14.1,5c-2.2,0.3-4.1,1.6-4.1,4.1c0,2,1.9,4.3,4.1,4.1
		c6.5-0.8,12.5-2.7,18.2-6.1C292.1,450.4,288,443.3,283.6,446.1z" style="fill:var(--illu-bg--light);"/>
	<path d="M323.6,446.6c-1.2-2-3.5-2.3-5.6-1.5c-3.3,1.4-6.5,2.8-9.8,4.2c-2,0.8-2.4,3.8-1.5,5.6c1.2,2,3.5,2.3,5.6,1.5
		c3.3-1.4,6.5-2.8,9.8-4.2C324.1,451.2,324.5,448.2,323.6,446.6z" style="fill:var(--illu-bg--light);"/>
	<path d="M281.9,417.2c-0.7-2.2-2.7-3.3-5-2.8c-1.8,0.4-3.5,0.8-5.4,1.1c-2,0.4-3.5,3-2.8,5c0.7,2.2,2.7,3.3,5,2.8
		c1.8-0.4,3.5-0.8,5.4-1.1C281.1,421.6,282.5,419.1,281.9,417.2z" style="fill:var(--illu-bg--light);"/>
	<path d="M326.6,183.4c-3.8,2.3-7.6,3.9-11.9,5c-5,1.4-3,9.1,2.2,7.9c4.9-1.2,9.6-3.3,13.8-5.8
		C335.1,187.6,331.1,180.6,326.6,183.4z" style="fill:var(--illu-bg--light);"/>
	<path d="M345.8,152.1c-3.5,2.2-7.2,4.3-10.7,6.5c-4.5,2.7-0.4,9.8,4.1,7.1c3.5-2.2,7.2-4.3,10.7-6.5
		C354.5,156.4,350.3,149.3,345.8,152.1z" style="fill:var(--illu-bg--light);"/>
	<path d="M365.4,178c-1.6-1.5-4.2-1.6-5.7,0c-0.4,0.4-0.7,0.7-1.1,1.1l-0.1,0.1c-0.3,0.1-0.4,0.3-0.7,0.4
		c-0.4,0.3-0.8,0.4-1.4,0.7l0,0l0,0c-0.3,0.1-0.5,0.3-0.9,0.3c-2,0.7-3.5,2.8-2.8,5c0.7,2,2.8,3.5,5,2.8c3-0.9,5.6-2.6,7.7-4.7
		C366.9,182.2,367,179.5,365.4,178z" style="fill:var(--illu-bg--light);"/>
	<path d="M688.1,228c-0.4,0.1-0.8,0.1-1.2,0.3c-0.7-2.3-1.4-4.6-2.2-7.1c-1.5-5-9.4-2.8-7.9,2.2l1.8,5.7
		c-0.8,0-1.5,0-2.3,0c-5.3-0.3-5.3,7.9,0,8.1c1.6,0,3.1,0,4.7,0c0.4,1.5,0.9,3,1.4,4.5c1.5,5,9.4,2.8,7.9-2.2
		c-0.4-1.1-0.7-2.3-1.1-3.4c0.4-0.1,0.7-0.1,1.1-0.3C695.3,234.6,693.3,226.7,688.1,228z" style="fill:var(--illu-yellow--main);"/>
	<path d="M408.4,226.1c-0.4,0.1-0.8,0.3-1.2,0.4c-0.5-2.2-1.1-4.2-1.6-6.2c-1.5-5-9.4-2.8-7.9,2.2
		c0.7,2.3,1.2,4.5,1.8,6.8c-2,0.7-4.1,1.4-6.1,2.2c-4.9,1.8-2.8,9.6,2.2,7.9c1.8-0.7,3.7-1.2,5.4-1.9c0.1,1.1,0.3,2.2,0.4,3.3
		c0.4,5.2,8.5,5.3,8.1,0c-0.1-2-0.4-3.9-0.7-6l1.9-0.7C415.4,232.4,413.3,224.5,408.4,226.1z" style="fill:var(--illu-yellow--main);"/>
	<path d="M335.1,273.2c-5.3,0-5.3,8.1,0,8.1C340.3,281.4,340.3,273.2,335.1,273.2z" style="fill:var(--illu-white--light);"/>
	<path d="M284.5,363.7c-5.3,0-5.3,8.1,0,8.1C289.7,371.8,289.7,363.7,284.5,363.7z" style="fill:var(--illu-white--light);"/>
	<path d="M489,458.4c-5.3,0-5.3,8.1,0,8.1C494.3,466.5,494.3,458.4,489,458.4z" style="fill:var(--illu-white--light);"/>
	<path d="M533.2,331.4c-5.3,0-5.3,8.1,0,8.1C538.4,339.6,538.4,331.4,533.2,331.4z" style="fill:var(--illu-white--light);"/>
	<path d="M633.3,259.2c-5.3,0-5.3,8.1,0,8.1C638.5,267.4,638.5,259.2,633.3,259.2z" style="fill:var(--illu-white--light);"/>
	<path d="M537.4,116c-5.3,0-5.3,8.1,0,8.1C542.7,124.1,542.7,116,537.4,116z" style="fill:var(--illu-white--light);"/>
	<path d="M658,403.5c-5.3,0-5.3,8.1,0,8.1C663.3,411.6,663.3,403.5,658,403.5z" style="fill:var(--illu-white--light);"/>
	<path d="M702.5,283.3c-5.3,0-5.3,8.1,0,8.1S707.8,283.3,702.5,283.3z" style="fill:var(--illu-white--light);"/>
</g>
</svg>
