<?xml version="1.0" encoding="utf-8"?>
<!-- Generator: Adobe Illustrator 23.0.2, SVG Export Plug-In . SVG Version: 6.00 Build 0)  -->
<svg version="1.1" id="Capa_1" xmlns="http://www.w3.org/2000/svg" xmlns:xlink="http://www.w3.org/1999/xlink" x="0px" y="0px" viewBox="0 0 800 660.8" style="enable-background:new 0 0 800 660.8;" xml:space="preserve">

<g>
	<g>
		<path d="M673,71.3c-3.3-7.1-11.1-5.1-14.4,0.8c-4.5,8.5-7.5,18.4-9.9,27.7c-0.3,1.3-0.2,2.5,0.3,3.3
			c0.2,2.3,1.7,4.3,4.6,4c7-0.8,17.2,0.5,19.2-8.1c1.2-5,1.2-10.4,1.3-15.4C674.1,79.5,674.6,74.9,673,71.3z" style="fill:#C39A8A;"/>
		<path d="M732.8,95.5c-52.2-1.3-104.4,2.8-155.7,12.6c-1.5,0.3-3.1,2-3.5,3.5c-8.5,50.1-14.4,100.5-18.1,151.2
			c-3.6,23.5-5.3,47.4-5,71.3c0,2.8,2.3,4.8,5,5c33.5,2.8,67.1,3.1,100.6,0.5c8.6-0.7,17.2-1.5,25.9-2.7c5.8-0.7,13.8-0.5,18.7-4.1
			c3.3-2.5,4.5-6.1,5.5-9.9c2.2-8.3,3.6-16.9,5.3-25.4c12.9-65,21.5-130.6,26.2-196.8C738,97.8,735.3,95.5,732.8,95.5z" style="fill:#B6C8E8;"/>
		<path d="M724,487.7c-13.9-43.1-33.7-84.2-53.2-125c0,0,0,0,0-0.2s0-0.5-0.2-0.7c10.8-1,19.6-5,18.6-16.2
			c-1.7-21.4-70.8-12.3-83.2-13.1c-13.6-0.8-27.2-1-40.9-0.5c-1.3,0-2.5,0.7-3.3,1.3c-1.7-0.2-3.5,0.3-4.5,2.5
			c-2.8,5.5-3.5,10.9-1.7,16.9c0.7,2.2,2.5,3.5,4.8,3.6c3.5,0.2,7,0.3,10.3,0.5c-9,57-18.1,114.2-27,171.2c-1.2,7.3-5.3,20.4,5,23.2
			c8.8,2.5,13.8-5.8,16.4-12.6c4.8-12.4,7-26,9.6-39.1l8.6-42.9c6.5-32.3,12.9-64.6,19.4-97.1c0-0.3,0.2-0.7,0.2-1l37.3,0.2
			c5,9.4,8,74.8,11.6,97.6c2.5,16.1,5.3,32.2,8,48.1c2.7,15.7,5.1,31.5,11.3,46.2c1,2.5,3.3,4.3,6.1,3.5c13.1-4,16.9-17.2,15.9-29.7
			c-1.5-18.2-5-36.6-7.5-54.7c-0.2-0.7-0.2-1.3-0.3-2c6,10.9,12.4,21.7,19.9,31.3c3.6,4.8,10.1,10.1,16.6,7.6
			C730.2,503.2,726,493.8,724,487.7z" style="fill:#C39A8A;"/>
		<path d="M691.2,471.8l-17.9-107.9c0.2,0,0.3,0,0.5,0c6.5-0.2,6.5-10.1,0-9.9c-33.5,1.2-66.8,0.7-100.3-1.3
			c-6.5-0.3-6.3,9.6,0,9.9c19.2,1.2,64.6,2,71.8,2c3.5,0,7.1-0.2,10.6-0.2c0.3,0,0.5,0.2,0.8,0.2s0.7,0,1-0.2c2.5,0,4.8-0.2,7.3-0.2
			c6,36.6,12.1,73.3,18.1,109.9C684.1,479.2,692.2,477.1,691.2,471.8z" style="fill:#57455E;"/>
		<path d="M683.8,226.4c-3.1-7-4.6-12.8-3-20.6c1.3-6.3,4-12.1,4.8-18.6c0.8-6.8-0.5-14.1-5.3-19.2
			c-6.8-7-15.3-4.8-23.4-1.8c-2,0.7-5.5,2.5-7.6,2c-5.8-1.5-3.8-4.8-4-8.5c0-3.1-0.7-6.1-2.5-8.6c-5-6.8-16.1-8.6-23.9-9
			c-13.4-0.3-36.6,7.3-38.8,23.2c-1,8,4.5,13.6,8.8,19.6c4.3,6.1,2.5,8.1-1.8,13.8c-2,2.7-3.6,5.6-4.5,9c-4.3,14.8,3,30.7,16.6,37.3
			c0.8,4.5,4.1,8,8.5,10.4c6.6,3.8,24.9,3.1,18.6,14.3c-3.6,6.3-8,11.6-5.6,19.2c2.7,8.8,11.8,14.3,19.6,17.6
			c15.4,6.3,36.5-2,29.2-21.4c-1.7-4.3-4.1-8-2.2-12.6c1.5-3.3,4.6-6,7.1-8.3c5-4.6,10.4-9.4,12.8-16.1
			C689.7,240.5,686.9,233.4,683.8,226.4z" style="fill:#F087B1;"/>
	</g>
	<g>
		<path d="M670,568.4c-20.1-27-63-8.5-87.2,2c-14.1,6.1-31.3,15.4-36.8,31c-5.6,15.9,9.1,23.9,22.5,25
			c-3.5,7.3-2.8,16.4,2.3,22.9c18.4,23.2,58.8,6.5,77.4-7.3C670.7,625.8,689.4,594.3,670,568.4z M583.6,614.8c0.5-4,2.8-7.6,6.1-9.8
			c1.5-1,3.1-1.8,4.8-2c1.3,0,2.7,0,4,0.2c0.5,2.3,1,4.5,1.5,6.8c-1.2,3.3-11.3,3.8-14.1,4.3C585.1,614.3,584.3,614.5,583.6,614.8z" style="fill:#F7D16F;"/>
		<path d="M588.6,580.3c-0.5-0.5-1.2-1-2-1.3c-1.2-1.2-3-1.2-4.5-1c-0.5,0.2-1.2,0.3-1.7,0.5c-2.2,0.7-4.1,2.2-5.1,4.1
			c-0.7,1.5-1.3,3.3-0.8,5c0.2,0.7,0.7,1.3,1.2,2c0.7,1.7,1.8,3,3.3,3.8c4.8,2.7,10.6-0.3,11.6-5.6
			C591.3,585.1,590.6,582.5,588.6,580.3z" style="fill:#F087B1;"/>
		<path d="M630.7,631.7c3.5-4,5.3-8.8,3.8-12.9c0-0.8,0-1.5-0.2-2.2c-1.2-4.1-5.6-5.1-9.3-4.3c-3.5,0.8-6.5,3-8.6,5.8
			c-1.5,1.8-2.7,4-3.1,6.3c-0.8,0.3-1.5,1.2-2,2.2c-0.8,1.7-1.3,3.5-1.5,5.1c-0.3,1.3-0.2,2.7,0.3,4c2.8,6.3,10.9,4.5,17.2-0.7
			c0.8-0.3,1.7-1,2.5-1.7C630.2,632.7,630.6,632.2,630.7,631.7z" style="fill:#F087B1;"/>
		<path d="M625.1,577.7c-0.5-2.2-1.7-4-3.6-5.1c-1.5-0.8-3.1-0.8-4.5-0.2c-2.3-0.5-4.6-0.2-6.6,1
			c-0.7,0.5-1.2,1-1.7,1.5c-2.7,1.2-4.8,3.1-6,5.8c-2.5,5.5,1.2,10.1,6.6,11.3c4.5,1,9.1-0.2,12.6-3
			C625.1,586.3,627.2,581.7,625.1,577.7z" style="fill:#74A3D7;"/>
		<path d="M645.1,587.3c-0.5-0.3-1-0.5-1.7-0.7c-1.2-1-2.5-1.7-4-2.2c-9.1-2.7-17.2,7.3-12.8,15.7
			c0.3,0.7,0.7,1.2,1,1.7c0.2,2.2,1,4.1,2.8,5.8c3.3,3.3,9.1,3.8,12.6,0.3c1.3-1.3,2.3-3.1,3.1-5.1c1-1,2-2,2.7-3.3
			C650.9,595.2,649.8,589.6,645.1,587.3z" style="fill:#74A3D7;"/>
		<path d="M637.3,571.2c-3.1-3.6-8.6-5.1-13.1-3c-1.2,0.5-2.2,1.3-3,2.3c-1.5,1.2-2.8,2.7-3.6,4.6
			c-3.8,9,3.8,17.9,13.3,16.2C640,589.6,643.3,578,637.3,571.2z" style="fill:#B6C8E8;"/>
		<path d="M660.6,593.4c-0.7-1.8-1.8-3.3-3.5-4.3c-0.3-0.7-1-1.2-1.7-1.5c-8.1-3.8-14.1,6.6-12.6,13.6
			c0.7,3.3,3.1,6.1,6.5,7c3.8,0.8,7.1-1.5,9.1-4.6C660.4,600.7,661.7,596.9,660.6,593.4z" style="fill:#56597A;"/>
	</g>
	<g>
		<path d="M799.8,559.8c-1.2-5.5-7.1-7.6-11.6-9.6c-7.3-3.3-14.9-6.3-22.5-8.6c-5.6-1.7-15.4-6-21.2-3.8
			c-5.6,2-8.6,11.3-11.3,15.9c-1.7,2.8-0.2,5.6,2.2,6.8c0.3,1,1,2,2.2,2.7c13.9,7.8,28.8,13.9,44.3,17.4c5,1.2,9,1.8,12.1-2.8
			C796.8,573.5,801,565.1,799.8,559.8z" style="fill:#56597A;"/>
		<path d="M795,577.3c-9.9-5.8-20.2-10.9-30.8-15.4c-10.8-4.5-22-8.8-34-7.6c-4.1,0.3-6.6,5.1-3.5,8.5
			c5.3,5.6,11.4,9.8,18.6,12.8c1.3,1,3,1.8,4.5,2.7c-2.7,6.3-5.5,12.6-8.1,18.9c-2.5,5.8,4.8,10.3,8.6,5c4.3-6.1,7.8-12.8,10.3-19.7
			c10.9,3.8,22,8,33.5,4.1C797.8,585.1,798.8,579.5,795,577.3z" style="fill:#C39A8A;"/>
		<path d="M755.2,535.1c-2.7-1.3-5.1-0.5-6.8,1.8c-1.7,2.3-3.1,4.8-4.3,7.5c-1,2.3-0.8,5.5,1.8,6.8
			c2.2,1.2,5.6,0.8,6.8-1.8c1.2-2.7,2.7-5.1,4.3-7.5C758.5,539.7,757.5,536.2,755.2,535.1z" style="fill:#57455E;"/>
		<path d="M771.1,540.4c-2.3-1.3-5.5-0.7-6.8,1.8c-1.2,2.2-2.5,4.3-3.6,6.5c-1.3,2.3-0.7,5.5,1.8,6.8
			c2.3,1.3,5.5,0.7,6.8-1.8l3.6-6.5C774.3,545,773.6,541.7,771.1,540.4z" style="fill:#57455E;"/>
		<path d="M791,551.2c-0.3-1.2-1.2-2.5-2.3-3c-1.2-0.7-2.5-1-3.8-0.5s-2.2,1.2-3,2.3c-1,1.5-2,3-2.8,4.5
			c-1.2,2.3-0.7,5.5,1.8,6.8c2.3,1.2,5.5,0.7,6.8-1.8c0.8-1.7,1.7-3.1,2.8-4.5C791.2,554.1,791.2,552.3,791,551.2z" style="fill:#57455E;"/>
		<path d="M751.7,577h-1c-2.7,0-5.1,2.3-5,5c0.2,2.7,2.2,5,5,5h1c2.7,0,5.1-2.3,5-5S754.5,577,751.7,577z" style="fill:#57455E;"/>
	</g>
	<g>
		<g>
			<path d="M657.2,198.7c1.2-1.8,0.8-3.8-0.2-5.1c0-0.2,0-0.3,0-0.3c0.7-4.5-5.6-6.3-8.5-3.5
				c-6.8,6.6-12.3,14.4-16.4,23c-0.3,0.8-0.5,1.7-0.5,2.5c-1.2,2.2-1.8,4.3-0.5,6.6c1.7,2.8,4.8,3,7.5,1.8c0.5-0.2,1-0.7,1.3-1
				c1-0.3,2.2-0.8,2.8-2c1.7-2.3,3.3-4.6,5-7c2.7-3,4.8-6.3,6.5-9.8C655.3,202.2,656.2,200.6,657.2,198.7z" style="fill:#56597A;"/>
			<path d="M665.2,171.7c-7.6,1.8-13.8,8.3-15.3,15.9c-0.2,1.2-0.2,2.2,0.3,3.1c0,0.8,0.2,1.5,0.7,2.3
				c1.3,2.2,4.6,3.3,6.8,1.8c6.3-4.3,10.8-10.1,13.6-17.1C672.8,174.2,668.5,170.9,665.2,171.7z" style="fill:#C39A8A;"/>
		</g>
		<path d="M627.4,213.7c-6.5,3.1-11.6,9.6-16.7,14.4c-5.5,5.1-10.9,10.1-16.4,15.3c-10.8,10.1-21.7,20.1-32.5,30.2
			c-8.6-17.7-17.2-35.6-26.2-53.4c-7.1-14.3-17.1-27.8-34.5-28.3c-0.2,0-0.5,0-0.7,0c0,0,0,0,0-0.2v-5.5c0-0.5-0.2-0.8-0.2-1.3
			c3-1.8,5.6-4.3,8-7.8c8.6-13.1,11.9-45.9-9.1-49.9c-5.6-1-10.8,0.2-14.9,2.8c-12.9,6.6-17.2,28-14.1,41.1
			c1.7,7,5.5,11.8,10.1,14.4c-0.3,1-0.7,2-0.7,3.1c-21.1,8-24.2,32.5-27,52.2c-4.3,30-8,60-10.8,90c-5.8,62-8.5,124.3-7.6,186.7
			c0.2,9.3,0.3,18.4,0.5,27.7c0.2,5.8-1.2,14.1,2.5,19.2c3.3,4.8,10.3,6,15.4,7c8,1.5,15.9,1.8,24,1.2c4.5-0.3,7.3-6.8,2.5-9.3
			c-17.2-8.8-14.4-30.3-11.9-46.2c2.7-16.4,5.5-32.7,8.3-49.1c3.3-20.2,6.8-40.4,10.1-60.5c2.3,33,4.5,66,7.3,99
			c1,11.4,2.2,22.7,3.5,34.1c1.2,9.6,0.8,22.2,4.6,31c6.3,14.6,32.3,4.6,41.8-0.8c1.8-1,3-3.6,2.3-5.6c-1.2-3.1-2.7-5.1-5.6-6.8
			c-4.8-2.8-7.3-2-8.6-8.5c-2.5-13.3-2.3-27.7-3.3-41.1c-2-26.9-3.5-53.7-4.6-80.7c-1.2-26.9-2-53.9-2.3-80.7
			c-0.2-13.3-0.3-26.4-0.3-39.6c0-7.5-0.2-15.1,0.3-22.5c3.5,5.6,7.5,11.1,11.9,15.9c7,7.5,16.6,17.7,27.7,13.4
			c11.3-4.5,22.2-14.6,31-22.9c10.6-9.9,20.1-20.9,29-32.3c7.6-9.6,19.7-20.9,21.7-33.3C643.3,217,636.9,209,627.4,213.7z" style="fill:#F7D3BD;"/>
		<path d="M509.7,171.2h-4.1c-2.7,0-5.1,2.3-5,5s2.2,5,5,5h4.1c2.7,0,5.1-2.3,5-5C514.5,173.4,512.4,171.2,509.7,171.2z
			" style="fill:#57455E;"/>
		<path d="M527.6,443.2c-0.8-10.3-1.3-20.6-1.7-30.8c-0.8-21.1-0.7-42.3,0-63.3c0.2-2.5-2.3-5.3-5-5
			c-25.4,2.7-50.7,1.8-75.6-3c-3.1-0.7-5.3,1.5-6,3.8c-1.7,0.2-3.1,1.3-3.6,3.5c-9.1,38.6-15.1,78.1-18.1,117.7
			c-0.2,2,1.7,4.5,3.6,4.8c19.7,2.8,39.8,4.5,59.7,4.5c10.8,0,21.7-0.3,32.5-1.2c5.5-0.3,12.8,0.2,15.3-6
			C531.6,461.5,528.3,450.5,527.6,443.2z" style="fill:#74A3D7;"/>
		<path d="M486.8,563.6c-3.3-4.3-8.3-6.8-11.8-10.8c-5.3-6.1-1.8-12.6-3.8-19.6c-0.5-1.7-1.8-3.1-3.5-3.5
			c-4.6-1-9.9,0-14.6,0.2c-3,0.2-6,0.3-9.1,0.5c-1,0-2,0.2-3,0.2c-0.5,0-0.8,0-1.3,0c-1.8-1.2-4.6-0.5-6.1,0.8
			c-0.2,0.2-0.3,0.2-0.5,0.3c-0.7,0.5-1.2,1.3-1.3,2.3c-0.3,0.7-0.5,1.3-0.7,2.2c-0.3,8.3-0.3,16.4,0.5,24.7
			c0.7,6.1,2.2,7.3,7.8,9.8c12.1,5.5,25.5,8.1,38.8,7C487,576.7,493.1,572.2,486.8,563.6z" style="fill:#F087B1;"/>
		<path d="M553,563.8c-1.7-3.6-7.1-5.3-10.1-7.3c-8.8-5.8-8.5-12.3-7.3-21.7c0.3-2.8-2.7-4.8-5-5
			c-10.6-0.7-21.2-0.5-31.7,0.7c-2.3,0.2-3.8,1.7-4.5,3.5c-1.2,1.2-1.8,2.7-1.5,4.5c1.2,8.3,2.5,16.6,4,24.7
			c0.8,5,1.2,11.3,4.3,15.3c6.6,8.5,23.5,4.3,32.2,2C539.4,578.5,557.6,573.7,553,563.8z" style="fill:#F087B1;"/>
		<path d="M591.9,293.9c-7-8.8-12.6-18.4-17.1-28.7c-0.8-2-3.6-2.8-5.6-2.3l-6.5,2c-7.1-20.4-15.6-41.4-31-57
			c-4-4-8.5-7.6-13.3-10.4c-5.1-3-10.3-4.5-14.1-9.1c-3.1-3.8-4.8-6.3-10.1-7.1c-5.5-0.8-11.6,1.8-16.7-0.5
			c-3.5-1.5-7.3,0.3-7.5,4.3c0,1.7-0.2,3.3-0.2,5.1c-21.4,12.4-26,41.1-30.5,63.3c-3,14.8-5.3,29.8-7,44.8
			c-1.8,15.7-4.5,33.3-3.1,49.2c1.2,13.9,18.9,11.8,29,12.4c16.4,1,33,1.2,49.4,0.8c5.1-0.2,13.1,1,17.2-2.8c4-3.6,3-10.3,3-15.1
			c0-10.9,0-21.7,0-32.7c5.8,8.1,13.3,14.8,23.7,15.9c18.1,2,31.2-13.3,41.1-26.2C594.2,298.2,593.3,295.5,591.9,293.9z" style="fill:#F7D16F;"/>
		<path d="M517.5,157.8c5.5-7,4.6-16.4,0.8-24c-4-8-10.1-15.1-19.7-13.6c-7.6,1.2-14.6,5.3-20.6,10.3
			c-4.8-6.3-12.9-8.5-18.7,0.5c-6,9.1-3.1,20.9,5.6,25.2c-3.5,10.3-3,25,7.6,28.5c1.2,0.3,2.3,0.7,3.6,0.7c0.8,0.2,1.7,0.3,2.7,0.2
			c0.8-0.2,1.8-0.5,2.7-0.7c9.3-2.5,17.9-12.8,22-20.9c1,0.2,2.2,0,3.1,0c0.2,2.3,1.7,4.6,4.8,4.6c4.8,0,6-5.5,3.6-8.3
			C515.8,159.6,516.7,158.8,517.5,157.8z" style="fill:#57455E;"/>
		<path d="M534.4,307.8c-7.6-20.9-14.9-41.9-22-63.2c-2-6-11.6-3.5-9.6,2.7c7.1,21.1,14.4,42.1,22,63.2
			C526.9,316.4,536.6,313.8,534.4,307.8z" style="fill:#57455E;"/>
		<path d="M445.1,395.3c-1.7,24.9-3.3,49.7-5,74.6c-0.5,6.5,9.4,6.3,9.9,0c1.7-24.9,3.3-49.7,5-74.6
			C455.3,388.9,445.4,388.9,445.1,395.3z" style="fill:#57455E;"/>
		<path d="M468.3,397.8c-1.2,24-2.3,48.1-3.5,72.1c-0.3,6.5,9.6,6.5,9.9,0c1.2-24,2.3-48.1,3.5-72.1
			C478.5,391.4,468.6,391.4,468.3,397.8z" style="fill:#57455E;"/>
		<path d="M504.9,398.6c0-6.5-9.9-6.5-9.9,0c0,24,0.8,48.1,2.8,72.1c0.5,6.3,10.4,6.5,9.9,0
			C505.7,446.7,504.9,422.7,504.9,398.6z" style="fill:#57455E;"/>
		<path d="M474.4,535.6c-1.7-2.5-4.3-2.8-6.8-1.8s-5,2.2-7.5,3.1c-2.5,1-3.1,4.8-1.8,6.8c1.7,2.5,4.3,2.8,6.8,1.8
			c2.5-1,5-2.2,7.5-3.1C475.1,541.2,475.7,537.6,474.4,535.6z" style="fill:#57455E;"/>
		<path d="M479.2,550.2c-1.5-2.2-4.5-3.3-6.8-1.8l-5.6,3.6c-2.2,1.3-3.3,4.5-1.8,6.8c1.5,2.2,4.5,3.3,6.8,1.8l5.6-3.6
			C479.7,555.6,480.9,552.5,479.2,550.2z" style="fill:#57455E;"/>
		<path d="M531.3,533.4c-3.3,2-6.6,3.8-9.9,5.8c-5.5,3.1-0.5,11.8,5,8.6c3.3-2,6.6-3.8,9.9-5.8
			C541.9,538.7,536.9,530.3,531.3,533.4z" style="fill:#57455E;"/>
		<path d="M541.7,546c-1.8-1.7-5.1-2.2-7,0c-0.3,0.3-0.7,0.8-1,1.2c-0.2,0.2-0.3,0.3-0.7,0.5c0.2-0.2,0.3-0.2,0.3-0.3
			c-0.2,0.2-0.3,0.2-0.5,0.3c-0.3,0.2-0.8,0.5-1.2,0.7l0,0c-0.3,0-0.7,0.2-1,0.3c-2.5,0.7-4.3,3.5-3.5,6.1c0.8,2.5,3.5,4.1,6.1,3.5
			c3.1-0.8,6.1-2.7,8.3-5.1C543.5,551.2,543.9,548,541.7,546z" style="fill:#57455E;"/>
	</g>
	<g>
		<path d="M408.8,126.3c1.2-39.6,1.5-79.1,1.5-118.7c0-2.8-2.3-4.8-5-5c-70.8-3.5-141.6-3.5-212.3-0.2
			c-2.8,0.2-4.8,2.2-5,5c-2.3,31.7-4,63.2-4.6,94.8c-0.2,7.6-0.3,15.3-0.3,22.9c0,7-1.3,15.3,0.2,22c2.3,11.1,18.2,10.3,27,11.6
			c42.1,6.5,84.7,7.8,127,4.3c5.3,0,10.8,0.2,16.1,0.2c8.8,0,17.6,0,26.4-0.2c6.5-0.2,14.4,1,20.4-1.5
			C411.9,157,408.4,136.4,408.8,126.3z" style="fill:#F087B1;"/>
		<path d="M364.8,109.2c0.7-24,1-48.2,0.8-72.3c0-1.7-1.3-3-3-3c-43.1-2.2-86.4-2.2-129.5-0.2c-1.7,0-3,1.3-3,3
			c-1.5,19.2-2.5,38.5-2.8,57.9c-0.2,4.6-0.2,9.3-0.2,13.9c0,4.3-0.8,9.3,0,13.4c1.3,6.8,11.1,6.3,16.6,7.1
			c25.7,3.8,51.6,4.6,77.4,2.7c3.3,0,6.5,0,9.8,0c5.3,0,10.6,0,16.1-0.2c4,0,8.8,0.7,12.4-0.8C366.7,128,364.7,115.4,364.8,109.2z" style="fill:#74A3D7;"/>
		<g>
			<path d="M362.2,123.5L362.2,123.5c-6.6-12.9-14.1-25.2-22.7-36.8c-1.7-2.2-4.1-3.1-6.8-1.8
				c-5.8,3.1-11.4,6.5-17.1,9.9c-8-10.6-16.1-21.1-24.5-31.3c-1.7-2-5.3-1.8-7,0c-18.4,19.1-36.8,38-55.2,56.9
				c-0.7,0.7-1,1.5-1.3,2.2c-0.8,2.5,0,5.5,3.3,6.3c41.8,11.1,85.5,6.3,128.1,3.5C363.7,131.9,364.8,126,362.2,123.5z" style="fill:#B6C8E8;"/>
			<path d="M341,112c-5.6-6.5-10.9-13.3-16.1-20.2c-3.8-5.1-12.4-0.2-8.6,5c5.6,7.6,11.4,14.9,17.6,22.2
				C338,123.8,345.1,116.8,341,112z" style="fill:#56597A;"/>
			<path d="M296.2,80.7c-1.7-3.8-5.8-3-7.8-0.5c-2.3,0.7-4.3,2.8-3.5,6c3.8,14.8,9,28.8,15.3,42.8
				c2.3,5,8.8,1.8,9.3-2.5C310.8,111.4,302,94.1,296.2,80.7z" style="fill:#56597A;"/>
			<path d="M273.2,91.3c-2.2,3.6-4.1,7.1-6.3,10.8c-2.2,3.3-4.3,6.5-6.6,9.4c-1.8,2.5-1.2,5.3,0.5,7.1
				c2,2.5,6.1,3.1,8.3-0.3c2.5-4.3,5-8.6,7.6-12.9c1.8-3,3.6-6,5.3-9C284.8,90.7,276.5,85.8,273.2,91.3z" style="fill:#56597A;"/>
		</g>
		<path d="M345.6,52c-6.5,0-12.9-0.5-19.4-1c-6.3-0.7-6.3,9.3,0,9.9c6.5,0.7,12.9,1,19.4,1C351.9,62,351.9,52,345.6,52z
			" style="fill:#FFFFFF;"/>
		<path d="M265.9,46.7c-6.5-0.3-12.9-0.7-19.4-1c-6.5-0.3-6.3,9.6,0,9.9c6.5,0.3,12.9,0.7,19.4,1
			C272.2,57,272.2,47.1,265.9,46.7z" style="fill:#FFFFFF;"/>
		<path d="M269.5,77.4c-6.3-0.2-12.6-0.3-18.7-0.7c-6.5-0.2-6.5,9.8,0,9.9c6.3,0.2,12.6,0.3,18.7,0.7
			C275.8,87.5,275.8,77.6,269.5,77.4z" style="fill:#FFFFFF;"/>
	</g>
	<g>
		<g>
			<path d="M388.5,272.2c-0.5-1.7-1.8-3.1-3.5-3.5c-5-1.2-10.9,0-16.1,0.3c-3.6,0.3-9.3-0.3-12.6,2.2
				c-5.5,4-3,13.3-0.3,20.7c0.2,2.2,0.3,4.5,0.7,6.6c0.5,5.5,0.2,11.6,1.5,16.9c2.2,8,11.1,6.8,17.9,6c9.4-1.2,11.4-6.5,11.8-15.1
				c0.2-5.8,0.3-11.6,0.5-17.4C388.7,283.6,389.9,277.3,388.5,272.2z" style="fill:#B6C8E8;"/>
			<path d="M354.7,266.9c-3,0.3-4.6,2.2-5,5c-0.2,1-0.2,1.8,0.2,2.7c0.2,2.3,1.7,4.6,4.8,4.6c10.8,0,21.7,0,32.5,0
				c1.7,0,3.6-1,4.3-2.5C399.6,259.4,361.8,266.4,354.7,266.9z" style="fill:#74A3D7;"/>
			<path d="M392.7,288.9c0-2.7-2.2-5-5-5c-10.3,0.3-20.7,0.5-31,0.8c-2.3,0-3.8,1.5-4.5,3.1c-1.5,0.7-2.5,2.2-2.3,4.3
				c0.5,5.6,0.2,16.2,4.8,20.2c4.3,3.8,14.6,1.8,19.7,1.8c5,0,12.8,1.8,16.4-2.8C394.8,306.3,392.8,294.9,392.7,288.9z" style="fill:#C39A8A;"/>
		</g>
		<g>
			<path d="M324.4,216c-0.3-5.6-1-11.4-1.8-17.1c-0.8-4.8-1-11.3-4.3-15.1c-2.3-2.8-5.6-3.3-9.1-3.8
				c-7-1.2-13.9-1.7-21.1-2.3c-28-2.7-56.4-3.3-84.4-2.2c-14.8,0.7-30.7,0.5-45.1,3.6c-11.6,2.5-10.8,17.9-11.1,27.5
				c0,0.7,0.2,1.2,0.3,1.7c-1.7,15.3-2.7,30.3-2.8,45.6c-0.2,7.5,0,15.1,0.3,22.5c0.2,5.1,0.2,10.8,3,15.3c5.6,9,20.2,8.1,29.7,9.3
				c14.4,1.7,28.8,2.7,43.3,3.1c0.2,1.8,0.3,3.8,0.3,5.6c-11.3,1-22.2,3.3-33,7c-4.1,1.5-5.3,8.8,0,9.6c30.8,5,61.7,4,92-3
				c4.5-1,4.6-6.8,1.2-9.1c-9.4-6.1-20.2-7.5-31-7.6c0-2.5-0.2-5-0.2-7.6c12.1-1,24.4-2,36.5-3.1c6.3-0.5,12.8-1,19.1-1.7
				c4.3-0.3,9.4-0.3,12.6-4c2.7-3,2.7-7.1,3.1-10.9c0.8-7.5,1.5-14.9,2.2-22.2C324.7,243.7,325.4,229.7,324.4,216z" style="fill:#B6C8E8;"/>
			<path d="M307.8,198.9c0-2.7-2.2-5-5-5c-29.2,0-58.4-0.2-87.5-0.2c-13.3,0-27.8-1.8-40.9,0c-3.6,0.5-6.5,2-8,5.5
				c-0.3,0.8-0.7,1.7-0.7,2.7c0,0.2,0,0.3-0.2,0.5c-2,22-2.8,44.1-2.7,66.3c0,2.7,2.3,5,5,5c44.1-0.3,88.2-0.5,132.3-0.8
				c2.8,0,4.6-2.3,5-5C307.5,244.8,308.3,221.8,307.8,198.9z" style="fill:#57455E;"/>
			<path d="M239.5,284.4c2-2.2,1.3-6.1-1.3-7.5c-2.8-1.5-6.6-1.2-8.8,1.3c-0.7,0.8-1.2,1.7-1.3,2.7
				c-0.5,1.5-0.5,3,0.2,4.5c1.2,2.7,4.1,4.1,7,3.3c1.3-0.3,2.5-1.2,3.3-2.3C238.8,285.8,239.2,285.3,239.5,284.4
				C239.3,284.6,239.5,284.6,239.5,284.4z" style="fill:#74A3D7;"/>
			<path d="M234.4,297.5c-4.3,1-8.6,1.3-12.9,1.2c-6.5-0.3-6.5,9.6,0,9.9c5.3,0.3,10.4-0.3,15.6-1.5
				C243.3,305.7,240.7,296,234.4,297.5z" style="fill:#57455E;"/>
		</g>
		<g>
			<path d="M114.7,207.5c-13.4-0.8-15.4,14.6-15.7,24.4c-0.7,18.9-0.7,37.8,0,56.7c-1.5,2.8-0.2,7.5,4.1,7.8
				c5,0.2,9.6,1,14.4,2c3.3,0.8,6.1-1.5,6.3-4.8c1.3-18.9,2.2-37.8,2.5-56.7C126.5,227.4,128.6,208.3,114.7,207.5z" style="fill:#74A3D7;"/>
			<path d="M138.9,286.9c0-2.7-2.3-5.1-5-5l-27,1.2c-6,0.3-13.1-0.2-18.4,3.3c-4.3,2.8-6.1,7.5-6,12.4
				c0.3,8.6,2.7,17.6,4,26c0.3,2.2,1.7,3.1,3.3,3.5c1.8,1.8,4.5,3,7.6,3.3c8.6,0.8,18.4-1.5,27.5-3.1c2,0.2,4,0.2,6,0.3
				c2,0.2,4.3-1.7,4.8-3.6C137.9,312.5,139.1,299.7,138.9,286.9z" style="fill:#F7D16F;"/>
			<path d="M103.7,263.7c-1.5-1-3.1-2-4.6-2.8c-2.2-1.3-5.6-0.5-6.8,1.8c-1.3,2.5-0.5,5.3,1.8,6.8c1.5,1,3.1,2,4.6,2.8
				c2.2,1.3,5.6,0.5,6.8-1.8C106.7,268,106.1,265.2,103.7,263.7z" style="fill:#57455E;"/>
			<path d="M106.4,237.9l-3.3-3.5c-1.8-1.8-5.3-2-7,0c-1.8,2-2,5,0,7c1.2,1.2,2.3,2.3,3.3,3.5c1.8,1.8,5.3,2,7,0
				C108.2,242.8,108.4,239.8,106.4,237.9z" style="fill:#57455E;"/>
			<path d="M124,251.6c-2.2-1.2-5.6-0.7-6.8,1.8c-0.2,0.5-0.5,0.8-0.7,1.3c-0.2,0.2-0.3,0.5-0.5,0.7l0,0
				c-0.7,0.8-1.3,1.5-2.2,2.2c-1,0.7-1.5,2.3-1.5,3.5c0,1.2,0.5,2.7,1.5,3.5c1,0.8,2.2,1.5,3.5,1.5s2.5-0.7,3.5-1.5
				c2-1.7,3.8-3.8,5-6.1C127,256.1,126.5,252.9,124,251.6z" style="fill:#57455E;"/>
			<path d="M129.3,223.3c-2.5-1.3-5.3-0.7-6.8,1.8c-1.2,2-2.3,3.8-3.5,5.8c-1.3,2.2-0.5,5.6,1.8,6.8
				c2.5,1.3,5.3,0.7,6.8-1.8c1.2-2,2.3-3.8,3.5-5.8C132.4,227.9,131.6,224.4,129.3,223.3z" style="fill:#57455E;"/>
			<path d="M111.7,211.2c-0.3-1-0.8-1.8-1.7-2.5c0-0.2-0.2-0.3-0.2-0.5c-0.2-1.2-1.3-2.5-2.3-3c-1-0.7-2.7-0.8-3.8-0.5
				c-1.2,0.3-2.3,1.2-3,2.3c-0.7,1.3-0.7,2.5-0.5,3.8c0.5,2.5,2.2,4.5,4,5.8c1,0.7,2.7,0.8,3.8,0.5s2.3-1.2,3-2.3
				C111.9,213.8,112.2,212.5,111.7,211.2z" style="fill:#57455E;"/>
		</g>
		<g>
			<path d="M412.1,321.1c-0.2-2.7-2.2-5.1-5-5c-121.3,4.6-242.8,6.3-364.2,4.8c-3,0-4.6,2.2-4.8,4.5
				c-2,0.5-3.5,2-3.5,4.6c0.2,9,0.2,17.9,0.3,26.9c0,2.8,2.3,4.8,5,5c8.8,0.5,17.4,0.8,26.2,1.3c4.3,0.2,8.8,0.2,13.1,0.7
				c2.7,0.3,6-0.5,7.8,2.5c1,1.5-0.2,5.6-0.3,7.3c-1,17.6-1.8,35.3-2.8,52.9c-1.8,35.8-3.8,71.6-5.6,107.4c-0.5,8.8-1,17.6-1.3,26.4
				c-0.3,6-3.1,15.9,1.3,20.7c6.8,7.1,19.1,4.1,25.5-2c9.4-9.1,8.3-24.4,8.5-36.3c0.2-17.2,0.8-34.6,1.8-51.9
				c2.5-39.8,7.1-79.2,13.9-118.5c31.7-10.3,67-7.8,99.8-8.5l103.8-2.3c4.1,65.5,10.6,130.8,20.4,195.6c1.3,8.5,3.8,20.4,14.1,22
				c9.3,1.5,14.6-6.5,15.6-14.6c1.8-13.3-3-28.5-5-41.6c-2.5-17.2-4.6-34.5-6.5-51.7c-4.1-37.6-7-75.3-8.5-113.1c0-0.2,0-0.3,0-0.5
				c16.4-2.5,32.8-5,49.2-7.5c2-0.3,3.8-2.8,3.6-4.8C413.6,337.5,412.7,329.2,412.1,321.1z" style="fill:#56597A;"/>
			<path d="M360.7,356h-25.4c-6.5,0-6.5,9.9,0,9.9h25.4C367,366,367,356,360.7,356z" style="fill:#57455E;"/>
			<path d="M128.4,366.2c-4-0.5-8.1-1-12.1-1.3c-2.7-0.3-5,2.5-5,5c0,3,2.3,4.6,5,5c4,0.5,8.1,1,12.1,1.3
				c2.7,0.3,5-2.5,5-5C133.4,368.1,131.3,366.5,128.4,366.2z" style="fill:#57455E;"/>
		</g>
		<g>
			<path d="M101.8,309.8c-8.6-3-18.7-3.8-27.7-5.6c-9.3-1.8-18.6-4-28-5.1c-14.4-1.7-32.2,3.5-31.2,18.4
				c0.2,1.7,1,2.8,2.2,3.6c-1.8,20.9-2.7,41.8-2.5,62.7c0,7.5,0.2,15.9,8.6,20.4c9,4.8,22.7,4.8,33.2,5.8c12.9,1,26.4,1.7,39.3,0.3
				c8-0.8,13.9-4.1,15.3-11.3c1.8-10.1,0.3-21.4,0.2-31.7c0-4.3,0-8.6,0-13.1c0.5-4,1-8.1,1.5-12.1
				C113.4,331.2,116.7,314.9,101.8,309.8z" style="fill:#C39A8A;"/>
			<path d="M117.7,521.2c-0.8-12.4-4.1-23.7-14.8-31c-11.4-8-26.5-12.6-39.9-15.9c-11.3-2.8-24.7-6.1-34.8,1.7
				c-8.5,6.6-10.6,17.6-11.6,27.5c-3.6,33.2-5.5,66.6-8.3,100c-0.5,6.3,9.4,6.3,9.9,0c2.2-26.9,4.5-53.7,6.6-80.6
				c0.8-10.8,0-25,5.8-34.8c7.3-12.3,24.5-6,35.3-2.8c11.3,3.3,26.5,7.3,35,16.1c8.8,9,7.1,25,7.5,36.5c0.8,28,0.8,56.2,0.3,84.2
				c-0.2,6.5,9.6,6.3,9.9,0c0-1.2,0.2-2.5,0.2-3.6c0-0.5,0-0.8,0-1.2C119.3,585.3,120,553,117.7,521.2z" style="fill:#57455E;"/>
			<path d="M149.8,491.1c-0.8-12.4-4.1-23.7-14.8-31c-11.4-8-26.5-12.6-39.9-15.9c-11.3-2.8-24.7-6.1-34.8,1.7
				c-8.5,6.6-10.6,17.6-11.6,27.5c-3.6,33.2-5.5,66.6-8.3,100c-0.5,6.3,9.4,6.3,9.9,0c2.2-26.9,4.5-53.7,6.6-80.6
				c0.8-10.8,0-25,5.8-34.8c7.3-12.3,24.5-6,35.3-2.8c11.3,3.3,26.5,7.3,35,16.1c8.8,9,7.1,25,7.5,36.5c0.8,28,0.8,56.2,0.3,84.2
				c-0.2,6.5,9.6,6.3,9.9,0c0-1.2,0.2-2.5,0.2-3.6c0-0.5,0-0.8,0-1.2C151.5,555.3,152,523,149.8,491.1z" style="fill:#57455E;"/>
			<path d="M161.9,457.5c-0.8-5-4.8-7.1-9-8.5c-7.6-2.3-15.9-3.6-23.7-5.3c-16.9-3.8-34-7.6-50.9-11.4
				c-12.9-3-24.9-5.1-36.6,2.8c-13.3,9-25.5,19.7-38.1,29.5c-2.7,2.2-2.8,5.5-1.5,8c0.3,1.7,1.5,3.1,3.6,3.6
				c16.9,3.8,34,7.6,50.9,11.6c15.7,3.5,31.7,8.5,47.6,9.9c13.6,1.3,25.5-2.7,36.3-11.6c5.1-4.3,9.8-9.3,14.3-14.4
				C158,467.9,162.8,463.3,161.9,457.5z" style="fill:#C39A8A;"/>
			<path d="M52,352.4c-0.8,44.4-1.8,89-2.7,133.4c-0.2,6.5,9.8,6.5,9.9,0c0.8-44.4,1.8-89,2.7-133.4
				C62.1,346.1,52.2,346.1,52,352.4z" style="fill:#57455E;"/>
		</g>
	</g>
</g>
</svg>
