<?xml version="1.0" encoding="utf-8"?>
<!-- Generator: Adobe Illustrator 23.0.2, SVG Export Plug-In . SVG Version: 6.00 Build 0)  -->
<svg version="1.1" id="Capa_1" xmlns="http://www.w3.org/2000/svg" xmlns:xlink="http://www.w3.org/1999/xlink" x="0px" y="0px" viewBox="0 0 800 566.4" style="enable-background:new 0 0 800 566.4;" xml:space="preserve">

<g>
	<path d="M793.1,274.9c-12-60.6-39.7-121.1-89.6-168.6c-44.9-42.8-105.9-74.4-172.5-91.2C388-21.3,220.7,9.7,111.2,91.2
		C59.1,130.1,21.7,180.8,6.9,236.4c-15.3,57.4-5.2,117.4,30.7,168.9c8.7,12.4,18.9,24,30.1,35.1c1.2,1.2,2.7,1.5,4,1.3
		c0.1,0.7,0.6,1.6,1.8,2.2c29.1,18.7,64.6,27.9,100.5,34.8c40.3,7.7,81,13.6,122,18c83.2,8.7,167.6,10.6,251.3,5.3
		c40.9-2.5,81.7-6.8,122.2-12.5c20.8-3,41.5-6.5,62-10.3c15.6-3,36-4.7,45.6-16.5c4.1-5.2,6-11.2,7.8-17.1
		c2.5-8.3,4.7-16.7,6.6-24.9c3.7-16.2,6.2-32.8,7.7-49.3C801.4,339.3,799.5,306.8,793.1,274.9z" style="fill:var(--illu-bg--main);"/>
	<path d="M622,301.8c-0.6-11.5-1.3-22.9-2.4-34.4c-1-10.9-2.4-21.7-3.8-32.5c-1.3-9.1-1.6-20.1-5.9-28.6
		c-8.7-17.6-28.6-10-41-1.6c-1.9,1.2-2.2,3.2-1.8,4.9c-1,0.9-1.3,2.4-0.7,4c17.1,40.9,20.8,86,10.5,129.1c-0.6,2.7,1.3,5.8,4.3,5.6
		c15.2-0.4,32.9-3,38.9-19.3C623.2,320.4,622.4,310.8,622,301.8z" style="fill:var(--illu-red--light);"/>
	<path d="M656.5,192.5c-7.1-15.2-20.4-28-35-36.1c-17.9-9.9-37.2-7.5-56.5-4.3c-3.5,0.6-3.8,4.3-2.2,6.5
		c0.3,1.9,1.6,3.5,4.1,3.4c27.6-1.8,57.8-1.5,74.4,24.6c14.5,22.7,7.7,61.2-24.3,62.7c-3,0.1-4.9,2.7-4.3,5.6c0.3,1.8,0.7,3.5,1,5.5
		c0.4,2.4,3.2,3.7,5.5,3.1c16.2-4,30.8-10,38.2-26.1C664.2,222.9,663.1,206.6,656.5,192.5z" style="fill:var(--illu-bg--main);"/>
	<path d="M781.6,465c-10.3-16.7-29.8-31.1-49.9-42.8c-19.6-11.5-41.9-20.8-65.9-27.4c-18.7-5.3-38.1-8.6-57.8-10.9
		c-51.2-11.5-105.6-16.4-159.6-14.2c-62.8-1.8-126,0.3-188.3,6.2c-31.6,3-63,7.1-94.1,12c-27.1,4.4-55,9.6-78.3,20.5
		c-22.3,10.5-39.2,25.2-54.1,40.3c-14.8,14.9-27,32.8-17.7,50.9c18.9,36.6,89.1,44,137.8,50.9c123,17.7,250.4,20.1,375.3,10.5
		c30.5-2.4,60.8-5.3,91-9s61.2-7.2,90.7-13.3c24.3-5,47.8-13,63.1-27.1C788.8,497.7,791.5,480.9,781.6,465z" style="fill:var(--illu-blue--light);"/>
	<path d="M690,278.3c-1.5-0.1-2.8,0-4.1,0.1c-3.8-0.7-6.6-4.3-5.9-8.6c0.4-2.7-1.3-4.6-3.4-5.2
		c-2.2-1.8-5.9-1.6-6.5,1.9c-1,5.9-3.8,10.6-9,13.7c-4,2.5-1.5,9.3,3.2,7.8c3-0.9,6.8,0.6,7.1,4.1c0.4,4.6,6.9,6,8.4,1.2
		c1-3.7,3.7-5.9,7.1-6.6c1.5,0,3,0,4.4-0.3C696.2,285.7,694.4,278.6,690,278.3z" style="fill:var(--illu-yellow--main);"/>
	<path d="M267.6,330.3c-0.7-0.1-1.5-0.1-2.2-0.1c-4.9-0.7-7.4-5.2-5.6-10.3c1-3.1-1.3-5-3.8-5.2
		c-2.8-1.6-7.4,0.7-6.3,4.9c1,4.7-1.3,9.1-5.2,11.4c-1.3,0.3-2.7,0.7-4,1.6c-4.1,2.5-1.5,8.9,3.2,7.8c1-0.3,2.1-0.6,3-1
		c2.7,0.1,4.7,3.8,6,5.9c1.8,2.8,7.2,2.8,7.8-1c0.4-3.2,2.4-5,5.2-5.3c0.7,0,1.5,0,2.2,0C273.2,338.4,272.9,331,267.6,330.3z" style="fill:var(--illu-yellow--main);"/>
	<path d="M188.7,143.2c-5.9-0.6-11.2-3.5-14.9-8.3c-2.8-3.7-8.9-1.8-7.8,3.2c0.1,0.3,0.1,0.7,0.3,1
		c-0.3,1.8-1.2,3.2-2.4,4.3c-2.2,0.4-4.3,1.5-6.5,3.2c-3.5,3,0.4,7.8,4.1,7.1c2.1-0.4,4-1.2,5.8-2.2c3.7,0.7,7.1,6.2,8.7,8.7
		c2.4,3.8,7.5,1.9,8-2.2c0.3-3.5,2.7-5.9,6-6.8C194.7,150.3,193.2,143.6,188.7,143.2z M176.9,148.3c0.6,0.3,1.2,0.6,1.9,0.9
		c-0.1,0.1-0.3,0.3-0.4,0.6C177.9,149.2,177.5,148.8,176.9,148.3z" style="fill:var(--illu-yellow--main);"/>
	<path d="M456.7,90.5c-1.6,0.3-7.5-0.9-4.7-3.7c3-3,0.1-7.1-3-7.2c-2.4-1.9-6.9-0.9-7.1,3.2c-0.1,4.6-2.4,8.1-5.8,10.5
		c-0.9,0.3-1.6,0.7-2.4,1.3c-4.6,3.2-0.7,9.6,4.3,7.4c0.7-0.3,1.3-0.6,2.1-1c3.4-1.2,6.6,0.9,7.2,5c0.9,5.5,9,3.1,8.3-2.2
		c-0.3-2.4,1.5-4.3,3.5-4.9C464.3,97.2,461.9,89.8,456.7,90.5z" style="fill:var(--illu-yellow--main);"/>
	<path d="M412.5,265.3c-4.9,0.6-8.9-2.7-9.4-7.1c0.1-0.7,0.3-1.5,0.3-2.4c0.1-2.5-1.3-3.8-3.2-4c-2.4-0.4-5.3,0.9-5.6,4
		c-0.1,0.7-0.1,1.6,0,2.4c-0.9,3.8-3.2,7.1-6.6,9.3c-4.6,3-0.4,10,4.3,7.4c4-2.2,7.4,0.3,7.2,4.6c-0.3,5.5,8.1,5.5,8.6,0
		c0.3-3.4,2.7-5.3,5.9-5.9C418.4,272.9,417.4,264.8,412.5,265.3z" style="fill:var(--illu-yellow--main);"/>
	<path d="M419.3,145.4c-5.5,0-5.5,8.6,0,8.6C424.7,154,424.7,145.4,419.3,145.4z" style="fill:var(--illu-white--light);"/>
	<path d="M667.1,314.8c-5.5,0-5.5,8.6,0,8.6C672.6,323.3,672.6,314.8,667.1,314.8z" style="fill:var(--illu-white--light);"/>
	<path d="M362,34.6h-0.9c-2.2,0-4.4,1.9-4.3,4.3c0.1,2.4,1.9,4.3,4.3,4.3h0.9c2.2,0,4.4-1.9,4.3-4.3
		C366.2,36.5,364.4,34.6,362,34.6z" style="fill:var(--illu-white--light);"/>
	<path d="M427.7,194.5c-2.4,0.1-4.3,1.9-4.3,4.3v0.9c0,2.2,1.9,4.4,4.3,4.3c2.4-0.1,4.3-1.9,4.3-4.3v-0.9
		C432,196.4,430,194.4,427.7,194.5z" style="fill:var(--illu-white--light);"/>
	<path d="M513.7,78.6c-0.3-0.3-0.6-0.6-0.9-0.9c-1.6-1.6-4.4-1.6-6,0c-1.6,1.8-1.6,4.3,0,6l0.9,0.9c1.6,1.6,4.4,1.6,6,0
		C515.2,83,515.3,80.3,513.7,78.6z" style="fill:var(--illu-white--light);"/>
	<path d="M493.8,170.6c-5.5,0-5.5,8.6,0,8.6C499.4,179,499.4,170.6,493.8,170.6z" style="fill:var(--illu-white--light);"/>
	<path d="M405.3,67.9c-5.5,0-5.5,8.6,0,8.6C410.9,76.5,410.9,67.9,405.3,67.9z" style="fill:var(--illu-white--light);"/>
	<path d="M277.2,50.5c-0.3-0.3-0.6-0.6-0.9-0.9c-1.6-1.6-4.4-1.6-6,0c-1.6,1.8-1.6,4.3,0,6c0.3,0.3,0.6,0.6,0.9,0.9
		c1.6,1.6,4.4,1.6,6,0C278.8,55,279,52.3,277.2,50.5z" style="fill:var(--illu-white--light);"/>
	<path d="M245.8,130.2c-5.5,0-5.5,8.6,0,8.6C251.2,138.8,251.2,130.2,245.8,130.2z" style="fill:var(--illu-white--light);"/>
	<path d="M131,211.9c-1.8-1.6-4.3-1.6-6,0c-0.3,0.3-0.6,0.6-0.9,0.9c-1.6,1.6-1.6,4.4,0,6c1.8,1.6,4.3,1.6,6,0l0.9-0.9
		C132.6,216.4,132.8,213.4,131,211.9z" style="fill:var(--illu-white--light);"/>
	<path d="M245.8,198.4c-2.4,0.1-4.3,1.9-4.3,4.3v0.9c0,2.2,1.9,4.4,4.3,4.3c2.4-0.1,4.3-1.9,4.3-4.3v-0.9
		C250.1,200.4,248.1,198.2,245.8,198.4z" style="fill:var(--illu-white--light);"/>
	<path d="M174.5,348c-5.5,0-5.5,8.6,0,8.6C180,356.5,180,348,174.5,348z" style="fill:var(--illu-white--light);"/>
	<path d="M127.6,290.4c-5.5,0-5.5,8.6,0,8.6C133.1,299,133.1,290.4,127.6,290.4z" style="fill:var(--illu-white--light);"/>
	<path d="M414.3,422.3c-6.3,0.3-12.8,0.4-19.2,0.7c-5.6,0.1-5.8,9,0,8.9c6.3-0.3,12.8-0.4,19.2-0.7
		C420,430.9,420,422,414.3,422.3z" style="fill:var(--illu-bg--main);"/>
	<path d="M730.6,440.9c-0.4-1-1.3-1.8-2.8-2.1c-6.9-1.2-18.6-2.5-23.5,4.3c-4.7,6.6,1,14.3,8,15.8
		c6.8,1.5,16.5-0.7,21.1-6.2C737.4,448.1,735,442.8,730.6,440.9z M720.5,449.9c-2.1,0.4-5.2,1-7.2,0.1c-3.7-1.6,0.9-2.8,2.7-3
		c2.5-0.3,5-0.1,7.5,0.1c0.3,0.4,0.7,0.9,1.3,1.2c-0.1,0-0.1,0.1-0.3,0.1C723.2,449,722,449.6,720.5,449.9z" style="fill:var(--illu-bg--main);"/>
	<path d="M574.5,493.6h-8.9c-5.8,0-5.8,8.9,0,8.9h8.9C580.1,502.4,580.1,493.6,574.5,493.6z" style="fill:var(--illu-black--light);"/>
	<path d="M641.2,506.9c-3.5-1.3-7.7-1.3-11.4,0c-2.2,0.7-3.7,3.1-3.1,5.5c0.6,2.2,3.1,3.8,5.5,3.1
		c2.4-0.7,4.3-0.7,6.6,0c2.2,0.7,4.9-0.9,5.5-3.1C645,509.8,643.4,507.6,641.2,506.9z" style="fill:var(--illu-black--light);"/>
	<path d="M384.5,507.6c-0.7-0.9-1.8-1.5-3.1-1.5c-8.1-0.4-21.4-1.2-25.8,7.2c-4.3,8,4,14.8,11.2,16.2
		c7.4,1.5,18.9,0.1,23.9-6.2C395.7,516.9,390.7,510.2,384.5,507.6z M382.8,518.5c-0.6,1.2-3.7,1.6-4.7,2.1c-3.4,1-7.5,1.3-10.9,0.1
		c-5.5-1.8-3.1-4.6,1.5-5.5c3.1-0.6,6.3-0.6,9.4-0.4c0.4,0.1,0.7,0.4,1.3,0.6c1.2,0,2.2,0.4,3,1.3
		C384,517.2,384.2,517.8,382.8,518.5z" style="fill:var(--illu-black--light);"/>
	<path d="M285,498.6c-0.7-2.5-3.1-3.5-5.5-3.1c-4.7,0.7-9.3,1.6-14,2.4c-2.4,0.4-3.7,3.2-3.1,5.5
		c0.7,2.5,3.1,3.5,5.5,3.1c4.7-0.7,9.3-1.6,14-2.4C284.3,503.6,285.6,500.7,285,498.6z" style="fill:var(--illu-black--light);"/>
	<path d="M311.1,387.8c-4.1-0.3-8.4-0.4-12.5-0.7c-5.8-0.3-5.6,8.6,0,8.9c4.1,0.3,8.4,0.4,12.5,0.7
		C316.7,396.9,316.7,388.1,311.1,387.8z" style="fill:var(--illu-black--light);"/>
	<path d="M156.5,429.3c-0.7-2.5-3.1-3.4-5.5-3.1c-1.5,0.1-3.2,0-5-0.6c-2.2-0.7-4.9,0.9-5.5,3.1
		c-0.6,2.4,0.7,4.7,3.1,5.5c3.2,1,6.5,1,9.7,0.6C155.8,434.4,157.1,431.3,156.5,429.3z" style="fill:var(--illu-black--light);"/>
	<path d="M123.3,489.1c-5.3-0.4-10.5-0.9-15.8-1.3c-5.6-0.4-5.6,8.4,0,8.9c5.3,0.4,10.5,0.9,15.8,1.3
		C128.9,498.4,128.9,489.6,123.3,489.1z" style="fill:var(--illu-black--light);"/>
	<path d="M704.6,490.9c-4.4-0.1-8.7,0.3-13,1.3c-5.6,1.3-3.2,9.7,2.4,8.6c3.5-0.7,6.9-1,10.6-1
		C710.2,499.9,710.2,491.1,704.6,490.9z" style="fill:var(--illu-black--light);"/>
	<path d="M492.2,514.2c-4-0.4-7.8-0.9-11.8-1.3c-2.4-0.3-4.4,2.2-4.4,4.4c0,2.7,2.1,4.1,4.4,4.4c4,0.4,7.8,0.9,11.8,1.3
		c2.4,0.3,4.4-2.2,4.4-4.4C496.6,516,494.7,514.5,492.2,514.2z" style="fill:var(--illu-black--light);"/>
	<path d="M204.3,496.5h-11.8c-5.8,0-5.8,8.9,0,8.9h11.8C209.9,505.4,209.9,496.5,204.3,496.5z" style="fill:var(--illu-black--light);"/>
	<path d="M98.2,448.7c-4.3,1-8.6,1.9-12.8,3c-5.6,1.2-3.2,9.7,2.4,8.6c4.3-1,8.6-1.9,12.8-3
		C106.1,456.1,103.7,447.5,98.2,448.7z" style="fill:var(--illu-black--light);"/>
	<path d="M456.5,43.2c-2.4,0.1-4.4,1.9-4.4,4.4v1.2c0,2.4,2.1,4.6,4.4,4.4c2.4-0.1,4.4-1.9,4.4-4.4v-1.2
		C460.9,45.2,458.8,43,456.5,43.2z" style="fill:var(--illu-white--light);"/>
	<path d="M741.2,335.4h-4c-0.4-1.6-0.9-3.4-1.6-5c-0.9-2.2-3-3.7-5.5-3.1c-2.1,0.6-4,3.2-3.1,5.5
		c0.3,0.9,0.6,1.8,0.9,2.7h-4.7c-5.8,0-5.8,8.9,0,8.9h6c0,0.9,0,1.9-0.1,2.8c-0.3,2.4,0.6,4.7,3.1,5.5c2.1,0.6,5.2-0.7,5.5-3.1
		c0.3-1.8,0.4-3.5,0.4-5.2h3.1C746.9,344.3,746.9,335.4,741.2,335.4z" style="fill:var(--illu-yellow--main);"/>
	<path d="M667.9,125.2c-1.9,0.1-3.8,0.1-5.8,0.1c-0.3-1.8-0.4-3.4-0.7-5.2c-0.3-2.4-3.4-3.7-5.5-3.1
		c-2.5,0.7-3.4,3.1-3.1,5.5l0.3,1.9c-0.7-0.1-1.3-0.1-2.1-0.3c-5.6-1.2-8,7.4-2.4,8.6c1.9,0.4,3.8,0.7,5.6,1l1,6.8
		c0.3,2.4,3.4,3.7,5.5,3.1c2.5-0.7,3.4-3.1,3.1-5.5c-0.1-1.3-0.3-2.5-0.6-3.8c1.5,0,3,0,4.4-0.1
		C673.5,133.6,673.6,124.7,667.9,125.2z" style="fill:var(--illu-yellow--main);"/>
	<path d="M85.8,252.9c-3.4,0.4-6.8,1-10.2,1.8c-0.1-1.5-0.3-3.1-0.4-4.6c-0.6-5.6-9.4-5.6-8.9,0
		c0.3,2.4,0.4,4.7,0.7,7.1c-0.6,0.1-1,0.3-1.6,0.6c-5.3,1.9-3,10.5,2.4,8.6c0,0,0,0,0.1,0c0.1,2.2,0.4,4.4,0.6,6.6
		c0.6,5.6,9.4,5.6,8.9,0c-0.3-3.1-0.6-6.2-0.9-9.3c3.1-0.7,6.2-1.3,9.3-1.8C91.5,261.2,91.5,252.4,85.8,252.9z" style="fill:var(--illu-yellow--main);"/>
	<path d="M112.1,352.1c-1.8,0-3.5,0-5.2,0c-0.4-1.8-0.7-3.4-1.2-5.2c-1.3-5.6-9.9-3.2-8.6,2.4c0.3,1.2,0.6,2.4,0.9,3.7
		c-1.3,0.1-2.5,0.4-3.8,0.7c-5.6,1.2-3.2,9.7,2.4,8.6c1.2-0.3,2.4-0.4,3.4-0.6c0.3,1.5,0.7,3,1,4.4c1.3,5.6,9.9,3.2,8.6-2.4
		c-0.1-0.9-0.4-1.8-0.6-2.8c1,0,2.1,0,3.1,0C117.9,361.2,117.9,352.4,112.1,352.1z" style="fill:var(--illu-yellow--main);"/>
	<path d="M339.9,72.1c-5.8,0-5.8,8.9,0,8.9C345.7,80.9,345.7,72.1,339.9,72.1z" style="fill:var(--illu-white--light);"/>
	<path d="M221,79.4c-5.8,0-5.8,8.9,0,8.9C226.7,88.3,226.7,79.4,221,79.4z" style="fill:var(--illu-white--light);"/>
	<path d="M103.7,161.9c-5.8,0-5.8,8.9,0,8.9C109.5,170.8,109.5,161.9,103.7,161.9z" style="fill:var(--illu-white--light);"/>
	<path d="M42.8,324.6c-5.8,0-5.8,8.9,0,8.9C48.5,333.5,48.5,324.6,42.8,324.6z" style="fill:var(--illu-white--light);"/>
	<path d="M710.2,182.3c-5.8,0-5.8,8.9,0,8.9C715.8,191.1,715.8,182.3,710.2,182.3z" style="fill:var(--illu-white--light);"/>
	<path d="M729.2,258.8c-5.8,0-5.8,8.9,0,8.9C735,267.7,735,258.8,729.2,258.8z" style="fill:var(--illu-white--light);"/>
	<path d="M687.5,358.1c-2.4,0.1-4.4,1.9-4.4,4.4v1.2c0,2.4,2.1,4.6,4.4,4.4c2.4-0.1,4.4-1.9,4.4-4.4v-1.2
		C691.9,360.2,689.9,358,687.5,358.1z" style="fill:var(--illu-white--light);"/>
	<path d="M766.4,404.8c-5.8,0-5.8,8.9,0,8.9C772,413.6,772,404.8,766.4,404.8z" style="fill:var(--illu-white--light);"/>
	<path d="M566.7,98.6c-5.8,0-5.8,8.9,0,8.9C572.3,107.5,572.3,98.6,566.7,98.6z" style="fill:var(--illu-white--light);"/>
	<path d="M452,237.8c-5.8,0-5.8,8.9,0,8.9C457.8,246.6,457.8,237.8,452,237.8z" style="fill:var(--illu-white--light);"/>
	<path d="M665.7,447.4c-3-13.1-7.2-25.7-12.8-37.9c-3.4-7.5-8-22.9-18.1-22.7c-1.3,0-2.7,0.3-4,0.6
		c-8-8-15.9-18.6-27.9-14c-11.2,4.3-22.1,9.6-32.9,14.8c24.3-65.1,40.3-138.4-6.5-197c-2.8-3.5-7.1-1.6-8.6,1.8
		c-18.4,5-36.4,10.9-54.3,17.9c-1.6,0.6-2.7,1.8-3.2,3.1c-1.6,0.3-3.1,1.5-3.5,3.8c-4,24-13.1,46.6-27.6,66.2
		c-7.5,10.3-16.5,19.2-26.3,27.6c-8.6,7.4-21.2,15-26.7,25.4c-3.7,7.1-0.7,15,6.2,18.7c8.4,4.4,18,0.4,26.1-3.4
		c-0.1,0.3-0.4,0.4-0.6,0.7c-4.6,7.2-1.6,16.1,5.5,20.5c3.1,1.9,6.2,2.7,9.4,2.7c-6.5,8.4-12.1,17.4-16.8,26.9
		c-7.4,14.8-14.6,31.7-12.7,48.4c1.6,14.6,11.4,26.4,25.1,31.6c13.1,5,27,3,39.4-2.4c22.9,6.6,50,1.9,71.6-5.9
		c24.9-9,47.2-23.5,69.2-38.2c5.8,7.4,12.8,13.1,21.7,17C661.8,455.5,666.8,452.4,665.7,447.4z" style="fill:var(--illu-white--light);"/>
	<path d="M571.2,152.6c-3.4-11.4-9.3-21.5-18.7-28.8c-37.9-29.4-98.8-0.9-98.8,47.8c0,23.9,18,45.3,41.2,49.4
		c0.7,1.9,2.7,3.7,5.2,3.2c14.5-2.4,28.6-6.5,42.2-12.2c10.9-4.7,24.5-10,29.8-21.5C577.6,179,574.8,164.3,571.2,152.6z" style="fill:var(--illu-blue--light);"/>
	<path d="M532.7,154.8c-7.8-10.2-25.5-14.2-32.8-3.2c-23,19.5,8.9,73,34.4,50.5C548.2,190,542.6,167.8,532.7,154.8z" style="fill:var(--illu-brown--light);"/>
	<path d="M572.7,188.9c-3-9.4-12.8-3.8-18.9-1.5c-22.3,8.4-44.4,16.7-66.7,25.1c-3.4,1.3-3.7,5.2-2.1,7.4
		c-0.1,0.9-0.3,1.8-0.1,2.8c1,7.2,10.8,5.9,15.9,4.9c10.6-2.2,20.9-7.4,31-11.4c10.6-4.1,21.7-7.8,31.9-12.5
		C569.5,200.7,574.9,195.9,572.7,188.9z" style="fill:var(--illu-red--light);"/>
	<path d="M536.1,153.8c-5.9-6.9-13.4-14.2-23.2-13.7c-18.9,0.9-27.4,24.9-24.9,41c0.7,5,5.2,16.5,12.2,12.2
		c0,2.2,1.5,4.3,4.3,4.3c5.6,0,5.8-8.7,0.1-8.9c0.9-1.2,1.6-2.5,2.5-3.7c3-3.2,5.9-6.8,7.5-10.3l0,0c1.3-0.9,1.9-1.6,1.6-2.2
		l0.1-0.3c1.2,0.6,2.2,1.2,3.4,1.9c2.4,1.3,4.7,2.7,7.1,4c5.3,3,16.7,10.3,18.6-0.4C547.3,168.9,541.3,160,536.1,153.8z" style="fill:var(--illu-black--light);"/>
	<path d="M523,181.5c-5.8,0-5.8,8.9,0,8.9S528.7,181.5,523,181.5z" style="fill:var(--illu-black--light);"/>
	<path d="M526.1,192.8c-1.2-2.1-4-3-6-1.6c-3,1.9-5.9,3.5-9,5c-2.2,1-2.7,4.1-1.6,6c1.3,2.2,3.8,2.7,6,1.6
		c3.1-1.5,6.2-3.1,9-5C526.4,197.5,527.3,194.8,526.1,192.8z" style="fill:var(--illu-black--light);"/>
	<path d="M667.6,435.4c-3.2-11.4-10.2-22.3-15.5-32.8c-2.4-4.6-4.3-9.6-7.5-13.7c-3.1-4-6.6-5-10.9-7.4
		c-4.4-2.4-6.6-7.1-10.6-9.9c-3.8-2.7-8.4-3.8-13.1-3.8c-10.9,0.1-20.9,6.8-30.2,11.7c-7.2,3.8-18.1,7.5-14.6,17.7
		c4.3,12.4,12,24.3,17.7,36c3.7,7.4,7.2,15,11.1,22.4c2.1,3.8,4.6,7.1,9.3,6c5.6-1.3,11.7-6.8,16.4-9.9c6.2-4,12.2-8,18.4-11.8
		c3.5,3.1,7.1,6.3,10.8,9.4c3.4,2.8,6.9,6.5,11.8,5.8C669.6,453.9,669.3,442.1,667.6,435.4z" style="fill:var(--illu-blue--main);"/>
	<path d="M442.4,358.3c-1.6-2.5-3.2-5-4.9-7.5c-1.9-3.7-4.6-7.1-6.3-9.9c-4.4-7.1-9.4-20.9-18.3-23.5
		c-4.9-1.5-9.4,1.3-13.9,3.1c-5.9,2.5-11.8,4.9-17.7,7.4c-7.7,3.2-18.7,6.3-17.3,16.8c1.5,11.4,9.1,23.8,14.6,33.8
		c4.9,8.7,9.1,20.8,20.8,17.1c14.6-4.6,28.6-11.7,41.9-19c1.6-0.9,2.7-2.4,2.7-4.1C446.6,368.6,445.1,362.6,442.4,358.3z" style="fill:var(--illu-yellow--main);"/>
	<path d="M254.8,449.9c-0.4-3-0.9-5.9-1.3-8.9c-0.3-4.1-1.3-8.3-1.9-11.7c-1.2-8.3-0.3-23-7.2-28.9
		c-3.8-3.2-9.1-2.7-13.9-2.8c-6.3-0.1-12.7-0.3-19.2-0.4c-8.4-0.1-19.6-1.8-22.6,8.4c-3.2,11.1-1.3,25.5-0.3,36.7
		c0.9,9.9,0,22.7,12.1,24c15.2,1.8,31,0.9,46-0.4c1.9-0.1,3.4-1,4.1-2.7C254.3,461.1,255.4,455.1,254.8,449.9z" style="fill:var(--illu-yellow--main);"/>
	<path d="M317.8,449.9c-0.4-3-0.9-5.9-1.3-8.9c-0.3-4.1-1.3-8.3-1.9-11.7c-1.2-8.3-0.3-23-7.2-28.9
		c-3.8-3.2-9.1-2.7-13.9-2.8c-6.3-0.1-12.7-0.3-19.2-0.4c-8.4-0.1-19.6-1.8-22.6,8.4c-3.2,11.1-1.3,25.5-0.3,36.7
		c0.9,9.9,0,22.7,12.1,24c15.2,1.8,31,0.9,46-0.4c1.9-0.1,3.4-1,4.1-2.7C317.5,461.1,318.5,455.1,317.8,449.9z" style="fill:var(--illu-blue--main);"/>
	<path d="M380.8,449.9c-0.4-3-0.9-5.9-1.3-8.9c-0.3-4.1-1.3-8.3-1.9-11.7c-1.2-8.3-0.3-23-7.2-28.9
		c-3.8-3.2-9.1-2.7-13.9-2.8c-6.3-0.1-12.7-0.3-19.2-0.4c-8.4-0.1-19.6-1.8-22.6,8.4c-3.2,11.1-1.3,25.5-0.3,36.7
		c0.9,9.9,0,22.7,12.1,24c15.2,1.8,31,0.9,46-0.4c1.9-0.1,3.4-1,4.1-2.7C380.3,461.1,381.5,455.1,380.8,449.9z" style="fill:var(--illu-red--light);"/>
	<path d="M632.5,380.4c-0.6-0.1-1.2-0.3-1.8-0.4c-2.2-0.6-4,0.6-4.9,2.2c-11.8,4.9-23.6,9.7-35.4,14.6
		c-2.2-4.6-4.6-9.1-6.6-13.7c-2.4-5.2-10-0.6-7.7,4.4c2.1,4.3,4.1,8.4,6.2,12.7c-8.1,3.4-16.2,6.6-24.3,10c-5.2,2.1-3,10.8,2.4,8.6
		c8.7-3.5,17.3-7.1,26-10.6c7.2,14.2,15,27.9,23.5,41.5c3,4.9,10.6,0.4,7.7-4.4c-8.1-13.1-15.8-26.7-22.9-40.3
		c12.7-5.2,25.4-10.5,38.1-15.6C636.1,387.5,637.2,381.6,632.5,380.4z" style="fill:var(--illu-black--light);"/>
	<path d="M511.2,363.9c3.8-4.1-2.4-10.5-6.2-6.2c-18,19-35.6,43.1-39.5,69.5c-3.2,21.5,4.7,45.3,25.1,55.6
		c5,2.5,9.6-5.2,4.4-7.7c-19.6-9.7-24.6-33.2-19.6-53C480.9,400,495.7,380.1,511.2,363.9z" style="fill:var(--illu-black--light);"/>
	<path d="M615.1,177.6c-5.8,0-5.8,8.9,0,8.9C620.8,186.4,620.8,177.6,615.1,177.6z" style="fill:var(--illu-white--light);"/>
	<path d="M637.6,340.6c-5.8,0-5.8,8.9,0,8.9C643.4,349.4,643.4,340.6,637.6,340.6z" style="fill:var(--illu-white--light);"/>
	<path d="M606.9,94.5c-5.8,0-5.8,8.9,0,8.9C612.5,103.3,612.5,94.5,606.9,94.5z" style="fill:var(--illu-white--light);"/>
	<path d="M389.6,148.6c-3-28.8-28.9-55.6-59.2-53c-37,3.2-56.7,40-53.7,74.1c0.1,0.9,0.4,1.8,0.9,2.4
		c2.1,10.2,7.4,19.8,15.8,26.1c12.5,9.6,29.7,11.1,44.9,9.9C368.8,205.6,392.9,179.9,389.6,148.6z" style="fill:var(--illu-blue--main);"/>
	<path d="M237.5,242.3c-6.2-8.4-16.4-14.8-26.7-15.8c-5.2-1.3-10.3-0.1-15.2,2.7c-1.8,0.9-3.4,2.1-4.9,3.4
		c-8.1,6.6-14.6,16.8-17.1,24.5c-5.8,17.7,2.4,35.7,19.5,42.8c16.4,6.8,34.8,3.7,45.6-10.9C249.2,274.9,247.7,256,237.5,242.3z" style="fill:var(--illu-red--light);"/>
	<path d="M260.2,245.6c-4.4-5.3-11.2-4.7-17.3-3.4c-5.6,1.2-3.2,9.7,2.4,8.6c1.8-0.9,3.5-0.6,5,0.6
		c3.1,0.3,3.7,0.9,1.9,1.8c-0.7,1.5-4,2.7-5.3,3.4c-3.7,2.2-7.4,4.4-11.2,6.5c-7.7,4.1-15.5,7.8-23.8,10.6
		c-7.7,2.7-15.5,4.9-23.5,6.2c-4.6,0.7-9.3,1.2-14,1.3c-1.5,0-3.7,0.4-5.2,0c-2.4,0.7-3.2,0.1-2.4-1.9c-0.3-2.1,0.7-3,3.1-3
		c5.3-1.9,3-10.5-2.4-8.6c-5.5,1.9-11.4,4.9-12.1,11.2c-0.6,5.3,2.7,9.4,7.8,10.5c15.9,3.4,36-2.1,50.9-7.4
		c8.1-2.8,15.9-6.3,23.6-10.3c6.9-3.5,15.2-7.4,20.9-12.7C262.7,255.5,263.8,250,260.2,245.6z" style="fill:var(--illu-yellow--main);"/>
	<path d="M298.7,247.6c-2.4,0.1-4.4,1.9-4.4,4.4v1c0,2.4,2.1,4.6,4.4,4.4s4.4-1.9,4.4-4.4v-1
		C303.2,249.7,301.1,247.5,298.7,247.6z" style="fill:var(--illu-white--light);"/>
	<path d="M318.8,324.2h-1c-2.4,0-4.6,2.1-4.4,4.4c0.1,2.4,1.9,4.4,4.4,4.4h1c2.4,0,4.6-2.1,4.4-4.4
		C323.1,326.1,321.3,324.2,318.8,324.2z" style="fill:var(--illu-white--light);"/>
	<path d="M356.7,237c-5.8,0-5.8,8.9,0,8.9C362.5,245.9,362.5,237,356.7,237z" style="fill:var(--illu-white--light);"/>
	<path d="M533.6,324.9c-21.5-14.3-42.9-28.8-64.2-43.5c-3.1-2.1-5.9,0.4-6.3,3.2c-11.2,10.5-22.6,20.9-33.8,31.4
		c-7.8,7.4-21.2,15.9-24,26.9c-2.2,8.4,3.5,15.9,10.9,19.2c8.3,3.5,16.5,1.5,24.6-1.3c-1,5.2,0,10.3,5.2,14.2
		c8.9,6.8,19.6,2.4,28.6-1.8c22.3-10.3,44.1-22.4,60-41.5C536.4,329.5,536.1,326.6,533.6,324.9z" style="fill:var(--illu-blue--main);"/>
	<path d="M516.5,340c-7.7-6.3-15.3-12.5-23-18.9c4.1-4.3,8.1-8.9,12-13.6c15-18.9,25.5-41.5,25.4-65.9
		c0-5.8-8.9-5.8-8.9,0c0.1,23.9-10.9,45.7-26.1,63.7c-3,3.5-6,6.8-9.1,10c-9.1-7.7-18.3-15.3-27.4-23.2c-4.3-3.7-10.6,2.5-6.2,6.2
		c9.1,7.8,18.3,15.5,27.4,23.2c-2.7,2.7-5.5,5.2-8.3,7.7c-8.6,7.8-17.3,15.6-27.9,20.8c-5.2,2.5-0.6,10.2,4.4,7.7
		c10.8-5.2,19.8-13.3,28.6-21.2c3.2-3,6.5-6,9.7-9.1c7.7,6.3,15.3,12.7,23,18.9C514.6,349.9,520.8,343.7,516.5,340z" style="fill:var(--illu-black--light);"/>
	<path d="M440.2,355.3c-3.4-6.8-7.1-13.3-11.2-19.5c-0.4-0.9-1-1.8-1.5-2.7c-0.4-0.6-0.9-1.2-1.3-1.5
		c-2.7-3.8-5.6-7.5-8.6-11.2c-3.2-4-8.6,0.7-7.1,4.9c-2.2,0.9-3.7,3.5-2.5,6.3c0.1,0.3,0.3,0.6,0.4,0.9c-1.8-1-4-0.6-5.3,0.7
		c-3-4.4-10.2-0.1-7.4,4.7c6.9,12.2,14.9,23.6,23.8,34.5c3,3.5,8.1-0.3,7.4-4.1c1.8,0.1,3.4-0.9,4.1-2.5c1.5,0,2.8-0.9,3.5-2.1
		c1.5,0,3.1-1,3.8-2.4C440.2,360.2,441.4,357.8,440.2,355.3z" style="fill:var(--illu-yellow--main);"/>
	<path d="M420.5,374.5c-2.4-4.6-4.9-9.3-7.2-13.9c1.9-1.3,3.8-2.8,5.6-4.4c4.3-3.8-2.1-10-6.2-6.2c-1.2,1-2.4,1.9-3.5,3
		c-2.5-4.3-4.9-8.7-7.5-13c-1.9-3.2-7.1-2.7-8.1,1c-2.2,7.8-3.1,15.6-2.7,23.6c0.1,2.8,2.7,5.2,5.6,4.3c3.2-1,6.3-2.2,9.3-3.7
		c2.5,4.6,4.9,9.1,7.2,13.7C415.3,384,423,379.5,420.5,374.5z M399.4,358.3c0-1.2,0.1-2.5,0.3-3.7c0.6,0.9,1,1.9,1.6,2.8
		C400.7,357.8,400.1,358.1,399.4,358.3z" style="fill:var(--illu-white--light);"/>
	<path d="M226.2,457.1c-2.1-13.3-3.5-26.6-4.6-40c-0.3-3.7-4.7-5.9-7.5-3.1c-4.6,4.6-7.7,9.7-9.7,15.8
		c-1.9,5.5,6.6,7.7,8.6,2.4c0.3-0.9,0.6-1.8,1-2.7c1,10,2.2,19.9,3.8,29.8C218.5,465.1,227,462.7,226.2,457.1z" style="fill:var(--illu-white--light);"/>
	<path d="M299,444.6c-3.1,0.6-6.3,1.3-9.4,1.9c4.7-9.6,6.9-20.9,1.5-30.5c-5-8.9-19-10.3-22,0.9
		c-1.5,5.5,7.1,7.8,8.6,2.4c1.6-5.9,6.8,3.4,7.2,4.7c0.9,3.5,0.6,7.4-0.3,10.9c-1.3,5.8-4.3,10.8-7.7,15.6c-2.4,3.4,1.5,7.2,5,6.5
		c6.5-1.3,13-2.7,19.5-4C307,452,304.6,443.4,299,444.6z" style="fill:var(--illu-white--light);"/>
	<path d="M362.3,443.3c-0.3-7.4-5.8-10.8-12-12.4c4.4-4.6,8.4-10,5.2-15.3c-5.5-8.9-15.2-2.4-22.6-2.7
		c-5.8-0.1-5.8,8.7,0,8.9c3,0.1,11.7-3.5,13.6-2.2c1.8,1.3-7.7,10.3-9,11.7c-2.5,2.8-0.9,7.7,3.1,7.5c3.4,0,10.5-0.6,12.4,3.1
		c-0.4,1.9-0.9,3.8-1.3,5.8c-1.8,1.6-3.8,2.7-6,3c-2.8,0.6-5.9,0.4-8.7,0.4c-5.8,0-5.8,8.9,0,8.9C347.1,459.9,362.8,457,362.3,443.3
		z" style="fill:var(--illu-white--light);"/>
	<path d="M364.7,162.5c-23.5,12.8-49.3,20.5-76,22.4c-5.6,0.4-5.8,9.3,0,8.9c28.3-2.1,55.6-10,80.6-23.6
		C374.1,167.4,369.6,159.7,364.7,162.5z" style="fill:var(--illu-black--light);"/>
	<path d="M368.2,113.1c-16.5,13.4-37,20.2-58.3,19.9c-5.8-0.1-5.8,8.7,0,8.9c23.8,0.3,46.2-7.7,64.6-22.6
		C378.8,115.7,372.5,109.5,368.2,113.1z" style="fill:var(--illu-black--light);"/>
	<path d="M322.5,104.4c-8.3,5-17.1,7.4-26.9,6.9c-5.8-0.3-5.8,8.6,0,8.9c11.1,0.4,21.8-2.4,31.3-8.1
		C331.8,109.1,327.4,101.4,322.5,104.4z" style="fill:var(--illu-black--light);"/>
	<path d="M218.6,232.6c-7.2,5.9-15.5,10-24.6,12.2c-5.5,1.3-3.2,9.9,2.4,8.6c10.6-2.7,20.1-7.7,28.5-14.5
		C229.4,235.2,223.1,229,218.6,232.6z" style="fill:var(--illu-black--light);"/>
	<path d="M207.3,257.7c-9.3,4.9-19,8-29.5,8.9c-5.6,0.6-5.6,9.4,0,8.9c12-1.2,23.3-4.4,33.9-10
		C216.7,262.7,212.3,255,207.3,257.7z" style="fill:var(--illu-black--light);"/>
	<path d="M235.6,281.3c-5.8,3.2-11.7,5.8-18,7.5c-5.5,1.6-3.1,10.2,2.4,8.6c6.9-2.1,13.7-4.9,20.1-8.4
		C245,286.1,240.6,278.5,235.6,281.3z" style="fill:var(--illu-black--light);"/>
</g>
</svg>
