<?xml version="1.0" encoding="utf-8"?>
<!-- Generator: Adobe Illustrator 23.0.2, SVG Export Plug-In . SVG Version: 6.00 Build 0)  -->
<svg version="1.1" id="Capa_1" xmlns="http://www.w3.org/2000/svg" xmlns:xlink="http://www.w3.org/1999/xlink" x="0px" y="0px" viewBox="0 0 800 478.5" style="enable-background:new 0 0 800 478.5;" xml:space="preserve">

<g>
	<path d="M757.2,133.2C679.2,41.5,519.6-6.6,369,0.7c-79.8,3.9-158.5,22.4-222.4,56.1C85.5,88.9,39.2,134.2,15.8,184.7
		C-29.6,282.5,25,394.2,153,448.7c8.9,3.9,18.1,7.2,27.5,10.2c0.3,1.9,1.9,3.6,5.2,4.4c83.7,18.3,173.1,19,258.9,7.4
		c43.4-5.8,85.8-14.7,126.9-26c39.9-11,79.6-23.8,114.5-41.2C809,342.4,832.1,221.2,757.2,133.2z" style="fill:var(--illu-bg--main);"/>
	<path d="M436.1,198.9C422.9,181,401,171.8,379,174.7c-22.1,2.8-48.4,18.3-53.7,41.4c-5.4,23.8,8,54.7,32.9,61.1
		c0.3,1.5,1.5,2.8,3.5,2.7c15.8-0.8,31.6-1.5,47.4-2.3c11.4-0.5,21.9-2.5,29-12.4C451.4,246.9,449.1,216.7,436.1,198.9z" style="fill:var(--illu-blue--light);"/>
	<path d="M502.4,283.3c-6.8-13.3-16.3-25.1-30.8-30.4c-2.1-0.8-4.8,1.3-4.6,3.5c1.3,15.3,11,26.8,19.1,39.2
		c4.1,6.2,8,13,8.9,20.6c0.1,1.7,0.4,4-0.1,5.7c-1.6,5-6.5,3.9-10.2,3.2c-4.5-0.9-8.9-2.4-13-4.5c-30.2-15.4-52.6-59-91.9-49.1
		c-0.9-0.8-2.4-0.9-3.7,0c-30.4,21.5-49,58.3-59.6,93.1c-4.8,15.8-2.4,37.5,17.3,40.5c6.9,1.1,14.3,0.3,21.7-1.6
		c0.4,0.8,1.1,1.6,2.4,1.9c2.3,0.4,4.5,0.8,6.6,1.2c-2.3,2.1-2.1,7,1.2,7.7c-0.4,2.5,3.5,64.3,6.2,64.3c15.1,0.5,34-0.8,50.9-3.1
		c7.7-1.1,15.3-2.7,22.7-5.4c4.1-1.5,12-4.1,11.4-11c-0.3-2.8-3.7-63.1-5.3-63.6c0.1-0.3,0.1-0.5,0.1-0.9c0.1-14.6-1.7-29-5.4-42.9
		c11.8,6.6,25.1,10.6,38.7,7.8c14.6-2.9,26.7-13.7,29-28.7C516.7,314.5,509.7,297.5,502.4,283.3z" style="fill:var(--illu-white--light);"/>
	<path d="M407.4,243.2c-2.5-7-6-15.9-13.3-19.4c-18.3-8.6-25.9,19.3-23.5,32.7c0.1,3.1,0.7,5.7,1.3,8
		c5.3,16.5,26.4,21.5,35.3,4.9C411.7,261.1,410.5,251.7,407.4,243.2z" style="fill:var(--illu-brown--light);"/>
	<path d="M419.4,264.5c-9.4-2.5-20.9-0.7-30.4-0.4c-5.6,0.1-47.2-3.2-36.3,13.8c4.5,7,15.3,4.8,22.2,4.5
		c2.1,0,4.4-0.1,6.5-0.1c6.8,0.1,13.5,0,20.3-0.4c0.4,0,0.8-0.1,1.2-0.1c2.7-0.1,5.3-0.1,8.1-0.3c0.9,0,1.7-0.4,2.3-0.8
		c1.2-0.1,2.3-0.3,3.5-0.5c3.3-0.5,6.9-0.8,9.2-3.7C430.4,270.8,424.8,265.9,419.4,264.5z" style="fill:var(--illu-red--light);"/>
	<path d="M508.1,280.1c-5.8-10.9-14.3-20.3-24.3-27.5c-4-2.9-8.4-5.6-13.3-3.1c-4.1,2.1-5.8,7-5.4,11.6
		c0.7,6.2,4.5,12.5,7,18.2c3.3,7.3,6.6,14.7,9.8,22.1c1.2,2.5,4,2.3,5.4,0.7c1.1,1.2,2.7,1.7,4.4,0.7c5.3-3.2,12.8-6.1,17-10.6
		C512.6,288.3,510.2,283.9,508.1,280.1z" style="fill:var(--illu-red--light);"/>
	<path d="M401.4,282.1c-2.7,1.7-5,4.4-7.2,7.2c-0.1-0.1-0.4-0.4-0.5-0.5c-6.2-4.5-13.3-6.6-21-6.5c-2.5,0-4,2.3-3.5,4.6
		c1.5,6.6,10.4,28.4,20.5,21.9c2-1.3,3.1-3.6,4.3-5.6c0.5-0.8,0.9-1.6,1.5-2.4c4.9,5.3,11.6,8.4,19,9.2c1.9,0.1,3.9-1.9,3.6-3.6
		C417.4,299.9,412.8,274.6,401.4,282.1z" style="fill:var(--illu-yellow--main);"/>
	<path d="M430.4,328.4c-4.1-3.9-10.6-3.9-15.8-3.7c-7.6,0.1-15.4,1.1-22.6,3.7c-10.9,4-19.7,14.3-14.1,26.2
		c0.1,0.3,0.3,0.5,0.4,0.7c-2.7,2.8,0.8,8.1,4.4,5.7c6.9-4.5,14.1-8.5,21.8-11.4c3.3-1.3,6.6-2.4,10.1-3.3c4.4-1.2,6.9-3.1,7,2.5
		c0.5,13.4-8.1,26.6-20.6,31.3c-3.6,1.5-3.3,7,0.9,7.2c7,0,15.3-0.3,21.9-3.1c6.2-2.5,7.8-7.4,8.8-13.7c1.2-8.1,1.9-16.2,1.7-24.4
		C434.2,340.4,434.9,332.8,430.4,328.4z" style="fill:var(--illu-yellow--main);"/>
	<path d="M382.4,422c-2.9-21.1-5.7-42.4-8.6-63.5c-0.1-0.7-0.4-1.2-0.7-1.6c0.1-0.4,0.1-0.7,0.1-1.1
		c-0.9-10.2-1.9-20.3-2.8-30.6c-0.8-8.9-0.5-19-2.9-27.6c-1.5-5.4-6.4-10.5-12.5-9.2c-6.4,1.3-10.6,10.8-13.8,15.5
		c-12.4,18.3-26.2,42.8-27.4,66.6c-1.9,11.4-0.8,23.2,7,32.3c3.6,4.3,8.2,7.3,13.3,9c4.3,1.9,8.9,2.5,13.4,1.9c0.4,0,0.9,0,1.3-0.1
		c-1.9,6.8-3.7,13.7-5.6,20.5c-0.7,2.3,1.1,4.6,3.5,4.6l15.8-0.4c4.8-0.1,10.5,0.5,15.1-0.5C385.8,435.9,383.2,427.9,382.4,422z" style="fill:var(--illu-blue--main);"/>
	<path d="M511.7,291.1c-0.5-1.7-2.5-3.2-4.5-2.5c-8.1,2.7-16.2,5.4-24.3,8.1c-2,0.7-2.8,2.4-2.5,4.5
		c0.7,4.3,0.9,8.4,1.1,12.6c0,0.8,0.5,4.4-0.1,5c-1.1,0.9-5.3-0.1-6-0.4c-7.3-1.7-13.7-6.2-19.3-11.2c-10.1-9.2-18.5-20.2-31-26.4
		c-1.7-0.8-3.9-0.5-4.9,1.3c-2.1,0-4.5,1.7-3.9,4.5c11.2,44.1,19.1,89,23.6,134.3c0.3,2.4,2.1,4.1,4.6,3.5
		c6.4-1.6,13.9-2.4,19.9-5.2c5-2.3,5.2-6.5,4.3-11.3c-2.4-13.5-5-27-7.6-40.5c16.5,6.4,35.7,2.5,47.6-11.6
		C525,337.1,518.7,312.4,511.7,291.1z" style="fill:var(--illu-blue--main);"/>
	<path d="M428.8,345.7c-2.7-5-7.8-6-12.8-4.3c-8.1,2.8-15.8,7-23.5,10.6c-8.5,3.9-16.9,7.7-25.4,11.4
		c-2.4,1.1-2.3,3.5-1.1,5c-1.5,0.9-2.5,2.9-1.6,4.9c1.9,4,3.9,8.1,5.7,12.1c1.2,2.7,2.3,6.1,4.9,7.7c5,3.2,12.6-1.6,17.1-3.9
		c12.8-6.8,25.5-17.1,34.1-28.7C429.6,356.2,431.4,350.8,428.8,345.7z" style="fill:var(--illu-red--light);"/>
	<path d="M408.5,228.9c-5.7-10-17.1-16.1-27.9-9.8c-12.5,7.2-13.4,22.3-12.6,35.2c0,0.3,0,0.4,0.1,0.5
		c-0.1,2,0,3.9,0.7,6c0.9,2.8,3.9,3.3,6.1,1.6c2.3-1.9,4.5-3.7,6.5-5.6c0.1,2,1.3,3.9,3.9,3.9c5,0,5.2-7.8,0.1-8
		c1.6-1.9,2.9-3.7,4.1-5.8c0,0,0,0,0.1,0c0.8-0.1,2,1.3,3.1,2.1c2.3,1.9,5.4,4,8.8,5.3c-0.9,1.5-0.9,3.6,0.1,5
		c-2.5,0.3-5,0.5-7.7,0.8c-2.1,0.3-4,1.7-4,4c0,2,1.9,4.3,4,4c2.7-0.3,5.3-0.5,8-0.8c2.1-0.3,4-1.7,4-4c0-0.9-0.4-1.9-1.1-2.7
		c2.9-0.1,4-2.9,3.3-5.2l0,0C420.4,253.8,411.8,234.8,408.5,228.9z" style="fill:var(--illu-bg--light);"/>
	<path d="M482.5,236.1c-5.6-2.8-19-7-24-1.2c-5.7,6.6,6.4,19,10.8,23.1l0.1,0.1c-2,5.3-1.3,11.8-2,17.8
		c-1.9,0-3.7,0-5.6,0c-4.8,0-4.5,6.6,0,7.3c2.8,0.4,5.6,0.7,8.4,1.1c0.9,0.1,1.9-0.4,2.5-1.1c2.9,0,5.8,0,8.8,0c4.6,0,4.6-7.2,0-7.3
		c-2.3,0-4.6,0-6.9,0c0.3-3.3,0.1-6.5,0.4-10c0.4-4.5,1.7-7.7,6-9.6c2-0.9,4.1-1.3,6-2.7C495.5,248.1,489.6,239.7,482.5,236.1z" style="fill:var(--illu-blue--light);"/>
	<path d="M569.9,110.2c-4-9.2-8.6-17.9-13.9-26.4c-3.3-5.2-7.3-10.4-13.2-4.8c-7.7,7.6-14.3,16.5-21.5,24.6
		c-5.7,6.5-12,12.5-12.8,21.4c-0.1,1.2,0.8,2.9,2,3.5c2.8,1.3,5.6,1.9,8.6,2.1c5.6,0.5,8.2,1.2,9.2,7.6c1.3,9.4,2.1,19,3.2,28.4
		c0.3,2.8,2.3,4.3,5,3.9c7.4-1.1,15-2.3,22.4-3.3c1.6-0.3,3.1-2.3,2.9-3.9c-0.5-10.8-0.9-21.5-1.5-32.4c1.3,0,3.1,0.9,4.4,1.1
		c2.9,0.3,6.2-0.1,8.4-2.4C577.8,124.5,572,115.4,569.9,110.2z" style="fill:var(--illu-red--light);"/>
	<path d="M286.7,182.2c-2.5,0.1-4.8,1.1-6.8,2.4c-0.4-0.3-0.8-0.7-0.9-1.3c0.1-0.8,0.1-1.6,0.1-2.4
		c0.4-1.2,0.3-2.3-0.3-3.1c-0.1-0.5-0.3-1.2-0.4-1.7c-1.5-4.9-9.2-2.8-7.7,2.1c0.1,0.5,0.3,1.2,0.4,1.7c-0.3,1.1-0.4,2.3-0.3,3.2
		c-0.4,1.5-1.2,2.8-2.3,3.9c-1.7,0.5-3.3,1.3-4.8,2.9c-2.5,2.8-0.1,8.1,3.9,6.6c1.3-0.5,2.7-1.2,3.9-1.9c1.2-0.1,2.5,0.4,3.2,1.5
		c0.1,0.8,0.3,1.5,0.5,2.3c1.3,4.1,8,3.6,7.8-1.1c0-0.8-0.1-1.6-0.4-2.4c0-0.8,0.1-1.5,0.4-2.3c2.4-0.4,4.6-1.6,6.5-4
		C291.3,186.6,290.5,181.9,286.7,182.2z" style="fill:var(--illu-yellow--main);"/>
	<path d="M476.3,153.8c-1.7,0.5-3.3,1.3-4.8,2.3c-1.7,0.1-3.2-0.7-4.3-2.1c0-1.9-0.3-3.7-0.8-5.6c0-0.1,0-0.1,0-0.3
		c0.7-2-0.1-3.5-1.5-4.3c-0.1-0.3-0.3-0.7-0.4-0.9c-1.9-4.8-9.6-2.7-7.7,2.1c0.4,0.9,0.8,2,1.2,3.1c-0.7,2.8-0.3,5.3,0.7,7.6
		c-0.1,0.3-0.1,0.4-0.3,0.5c-2.3-0.1-4.6,0.3-6.9,1.2c-3.1,1.3-4.1,5.3-0.9,7.3c3.3,2,7,1.9,10.1,0.1c2.4,0.8,4.3,2.5,5.2,5.2
		c1.7,4.9,8.5,2.9,7.7-2.1c-0.4-2.1,0.5-4,2-5.3c1.5-0.5,2.9-1.3,4.3-2.4C483.4,157.9,479.9,152.8,476.3,153.8z" style="fill:var(--illu-yellow--main);"/>
	<path d="M573.7,232.8c-1.9,0.7-3.7,1.6-5.7,1.5c-0.4,0-2.3-0.4-3.2-1.1c0-0.5-0.1-1.1-0.3-1.5c2.1-2.7,0.4-6-2-6.8
		c-2.3-3.1-8.2-0.9-7,3.5c0.3,1.1,0.7,2.7,1.1,4.4c0,0.5,0.1,1.1,0.3,1.6c0.1,1.6,0.1,3.2-0.1,4.5c-2.7,0.7-5.2,2.1-7.2,4.4
		c-2.1,2.5-0.8,6.8,2.8,6.8c3.5,0,6.5-1.3,8.8-3.7c2,0.1,3.9,1.1,4.9,2.9c2.5,4,8,1.2,7.3-3.1c-0.4-2.7,1.1-4.9,3.3-6.2
		C580.6,238,578,231.1,573.7,232.8z" style="fill:var(--illu-yellow--main);"/>
	<path d="M306,294.3c-1.6-0.8-3.1-1.3-4.8-1.5c-0.7-0.1-6.9-0.4-6.9-0.3c1.7-3.1-0.8-5.8-3.5-6c-2.7-4-9.2-0.1-6.6,4.3
		c1.6,2.8,1.1,6.4-0.8,9c-2.9,0.4-5.8,1.9-8.2,4.5c-2,2.3-0.9,7.2,2.8,6.8c3.2-0.3,6.1-1.6,8.4-3.3c0.9,0.1,1.7,0.7,2.5,1.3
		c0.3,2,0.9,4.1,2.1,6c2,3.3,7.6,2,7.4-2c-0.1-2.4-0.7-4.5-1.6-6.2c0.3-3.2,3.3-5.6,7.4-5.2C307.9,302,309.5,295.9,306,294.3z" style="fill:var(--illu-yellow--main);"/>
	<path d="M360.6,112.2c-2.3,1.3-4.6,0.7-5.6-1.1c0.8-2.5,0.9-5.3,0.5-8.2c-0.8-4.6-7.4-3.2-7.7,1.1
		c-0.4,0.4-0.7,0.9-0.8,1.6c-0.4,1.9-0.5,3.6-0.3,5.2c-0.8,1.2-1.9,2.1-3.1,2.8c-1.3,0.3-2.7,0.8-3.9,1.5c-4.1,2.3-1.2,8.1,3.1,7.3
		c1.3-0.3,2.5-0.7,3.6-1.2c3.2-0.1,6.5,2,7.3,5c0,0.8,0.1,1.5,0.3,2.3c0.9,4.4,8.1,3.5,7.8-1.1c0-0.8-0.1-1.5-0.3-2.3
		c-0.1-2.5,1.1-4.8,3.2-6.2C369,116.3,365.2,109.7,360.6,112.2z" style="fill:var(--illu-yellow--main);"/>
	<path d="M557.9,304.7c-2.1,0.1-4,1.7-4,4v1.3c0,2.1,1.9,4.1,4,4c2.1-0.1,4-1.7,4-4v-1.3
		C561.9,306.5,560,304.5,557.9,304.7z" style="fill:var(--illu-white--light);"/>
	<path d="M581.8,187.8h-1.3c-2.1,0-4.1,1.9-4,4c0.1,2.1,1.7,4,4,4h1.3c2.1,0,4.1-1.9,4-4
		C585.7,189.5,583.9,187.8,581.8,187.8z" style="fill:var(--illu-white--light);"/>
	<path d="M508.4,212.6c-5.2,0-5.2,8,0,8C513.4,220.6,513.4,212.6,508.4,212.6z" style="fill:var(--illu-white--light);"/>
	<path d="M431.7,88.1c-5.2,0-5.2,8,0,8C436.8,96.1,436.8,88.1,431.7,88.1z" style="fill:var(--illu-white--light);"/>
	<path d="M418.6,127.7c-1.6-1.5-4.1-1.6-5.6,0c-0.4,0.4-0.9,0.9-1.3,1.3c-1.5,1.5-1.6,4.1,0,5.6c1.6,1.5,4.1,1.6,5.6,0
		c0.4-0.4,0.9-0.9,1.3-1.3C420,132,420.2,129.2,418.6,127.7z" style="fill:var(--illu-white--light);"/>
	<path d="M276.6,131.8c-5.2,0-5.2,8,0,8C281.7,139.8,281.7,131.8,276.6,131.8z" style="fill:var(--illu-white--light);"/>
	<path d="M309.5,162.5c-2.1,0.1-4,1.7-4,4v1.3c0,2.1,1.9,4.1,4,4c2.1-0.1,4-1.7,4-4v-1.3
		C313.5,164.4,311.6,162.4,309.5,162.5z" style="fill:var(--illu-white--light);"/>
	<path d="M223.2,203.7h-1.3c-2.1,0-4.1,1.9-4,4s1.7,4,4,4h1.3c2.1,0,4.1-1.9,4-4C227,205.4,225.3,203.7,223.2,203.7z" style="fill:var(--illu-white--light);"/>
	<path d="M291,244.6c-5.2,0-5.2,8,0,8S296.2,244.6,291,244.6z" style="fill:var(--illu-white--light);"/>
	<path d="M228.5,302c-5.2,0-5.2,8,0,8C233.5,310,233.5,302,228.5,302z" style="fill:var(--illu-white--light);"/>
	<path d="M269.7,349.8c-2.1,0.1-4,1.7-4,4v1.3c0,2.1,1.9,4.1,4,4c2.1-0.1,4-1.7,4-4v-1.3
		C273.6,351.7,271.8,349.7,269.7,349.8z" style="fill:var(--illu-white--light);"/>
	<path d="M391.2,384.8c-4-7.2-8.6-13.8-13.8-20.2c-0.4-0.5-0.9-0.9-1.3-1.1c0.5-2.8-1.5-6-4.6-4.6
		c-7.3,2.8-14.5,5.6-21.8,8.4c2-11.2,4.4-22.2,7.3-33.2c-0.3,1.5-0.3,3.1,0,4.5c0.9,6.2,5.4,11,9.8,15.1c3.7,3.6,9.3-2.1,5.6-5.6
		c-5-4.9-9-9.3-6.5-16.6c1.2-3.7,4.5-8.1,3.7-12.1c-0.7-3.5-4.4-5.8-6.8-8.1c-3.3-3.1-3.6-5.3-2.5-9.8c0.7-2.9,2.1-5.7,3.1-8.6
		c1.7-4.8-6-6.9-7.7-2.1c-2.1,5.8-6.1,13-3.9,19.3c0.8,2.3,2.4,4.1,4,5.7c1.2,1.2,5.2,3.5,5.6,5.2c0.4,2-2.1,6.1-3.5,8.8
		c0.3-0.8,0.4-1.6,0.7-2.4c1.3-4.9-6.2-7-7.7-2.1c-4.1,14.6-7.4,29.5-10,44.5c0,0.3,0,0.5,0,0.7c-0.3,0.1-0.5,0.3-0.8,0.3
		c-4.8,1.9-2.7,9.6,2.1,7.7l28.6-11c0,0.9,0.3,1.9,0.9,2.7c4.6,5.8,8.9,12.1,12.5,18.6C386.8,393.3,393.7,389.3,391.2,384.8z" style="fill:var(--illu-bg--light);"/>
	<path d="M504.1,277.6c-8.2,2.7-16.6,5-25,7c-5,1.2-2.9,8.9,2.1,7.7c8.4-2,16.7-4.4,25-7
		C511.1,283.7,509,276,504.1,277.6z" style="fill:var(--illu-bg--light);"/>
	<path d="M468.8,381c-2.9-16.5-6.5-32.8-10.4-49c-1.2-4.9-8.9-2.9-7.7,2.1c4,16.2,7.4,32.5,10.4,49
		C462,388.2,469.7,386.1,468.8,381z" style="fill:var(--illu-bg--light);"/>
	<path d="M446.7,330.2c-0.7-5.3-4.3-8.5-8.6-10.9c3.7-5,8.1-11.3,6.2-17c-1.1-3.3-4.4-5.8-6.8-8.2
		c-3.5-3.5-6.9-6.9-10.5-10.4c-3.6-3.6-9.3,2-5.6,5.6c4.1,4.1,9.8,8.2,13,13c3.7,5.4-2.8,11.7-5.8,16.5c-1.6,2.4,0.1,4.9,2.4,5.8
		c6.9,2.8,9,7.2,5.6,14.1c-2,4.1-4.5,8-6.8,12c-2.5,4.5,4.4,8.5,6.9,4C440.9,347.7,447.9,338.9,446.7,330.2z" style="fill:var(--illu-bg--light);"/>
	<path d="M403,340.7c-4.6-0.4-9.3-0.5-13.9-0.3c-5,0.3-5.2,8.2,0,8c4.6-0.3,9.3-0.1,13.9,0.3
		C408.2,349,408.2,341.1,403,340.7z" style="fill:var(--illu-bg--light);"/>
	<path d="M399,293.5c0-0.1,0-0.3,0-0.3c0-0.4,0-0.9,0.1-1.3c0.3-2.1-2-4.1-4-4c-2.4,0.1-3.7,1.7-4,4
		c-0.1,0.8-0.1,1.7,0,2.5c0,0.1,0,0.3,0,0.4c0,0.1,0,0.1,0,0.3s0,0.1,0,0.3c0.1,0.9,0.4,1.9,0.7,2.7c0.7,1.9,2.3,3.2,4.4,2.8
		c2.1-0.3,3.2-1.9,3.5-3.9C399.8,295.8,399.6,294.6,399,293.5z" style="fill:var(--illu-bg--light);"/>
	<path d="M486,107.3c-2.1,0.1-4,1.7-4,4v1.3c0,2.1,1.9,4.1,4,4c2.1-0.1,4-1.7,4-4v-1.3C490,109.1,488.2,107.1,486,107.3
		z" style="fill:var(--illu-white--light);"/>
	<path d="M185,224.4c-24.3-17.4-61.9-12.8-79.3,12c-16.1,22.8-6.4,51,13.8,66.6c18.3,19,49.5,18.5,68.7-0.3
		C209.1,282.3,209.9,242.2,185,224.4z" style="fill:var(--illu-yellow--main);"/>
	<path d="M209.3,253.2c-4.5-2.5-8.5,4.4-4,6.9c2.1,1.2,4.1,1.7,6.4,2.3c0.4,0.1,2.9,0.5,2.9,0.9
		c0.1,0.7-3.9,2.9-4.4,3.2c-6.1,4-12.9,7-19.7,9.4c-13.7,4.8-28,7-42.2,8.8c-15.5,1.9-31.1,3.3-46.6,4.4c-4.1,0.3-8.1,0.5-12.2,0.5
		c-2.1,0-10.9,0.4-12-1.5c-3.1-5.7,16.9-10.8,20.2-11c5-0.4,5.2-8.4,0-8c-9.6,0.7-19.1,4.3-25.8,11.3c-4.6,4.9-4.8,11.7,1.9,14.7
		c10.1,4.5,23.6,2.1,34.1,1.3c11.8-0.9,23.6-2,35.5-3.3c20.5-2.4,41.3-5.3,60.2-14.1c6.1-2.9,17.5-7.3,18.7-14.9
		C223.8,255.8,214.5,256.2,209.3,253.2z" style="fill:var(--illu-red--light);"/>
	<path d="M125,239.3c-6.5,3.5-13.8,4.8-21,3.6c-5-0.8-7.2,6.9-2.1,7.7c9.6,1.5,18.6,0.1,27.2-4.4
		C133.5,243.8,129.5,236.9,125,239.3z" style="fill:var(--illu-bg--light);"/>
	<path d="M198.8,251.9c-7.7,1.9-15.4,3.9-23.1,5.7c-4.9,1.2-2.9,8.9,2.1,7.7c7.7-1.9,15.4-3.9,23.1-5.7
		C205.9,258.4,203.9,250.7,198.8,251.9z" style="fill:var(--illu-bg--light);"/>
	<path d="M153.7,300.8c-6.2,2.1-12.5,3.5-19.1,3.9c-5,0.3-5.2,8.2,0,8c7.3-0.4,14.3-1.7,21.3-4.1
		C160.6,306.8,158.5,299.1,153.7,300.8z" style="fill:var(--illu-bg--light);"/>
	<path d="M420.4,429c0-5.2-8-5.2-8,0c-0.1,14.7,0.5,29.4,2,44.1c0.5,5,8.5,5,8,0C421,458.5,420.3,443.7,420.4,429z" style="fill:var(--illu-bg--light);"/>
	<path d="M368.7,394.3c-5.4,4-11,8-16.5,12c-4.1,2.9-0.1,9.8,4,6.9c5.4-4,11-8,16.5-12
		C376.9,398.3,372.9,391.4,368.7,394.3z" style="fill:var(--illu-bg--light);"/>
	<path d="M736.4,268.9c-2.1-13.5-13.2-23.1-25.8-25.5c-0.4-0.3-0.7-0.4-1.2-0.5c-19.4-5.8-37.6,16.3-39.1,34
		c-1.7,20.2,19.7,31.5,37.5,29.5C726.3,304.1,739.4,287.5,736.4,268.9z" style="fill:var(--illu-blue--main);"/>
	<path d="M481.3,243.6c-3.3-1.5-6.8-2.5-10.2-3.1c-2.3-2.3-7-1.5-6.9,2.5c0.3,8.5,12.1,13.5,18.1,6.8
		C483.7,248.1,483.8,244.6,481.3,243.6z" style="fill:var(--illu-red--light);"/>
	<path d="M700.8,276.5c-8.2,3.5-16.9,5.7-25.8,6.6c-5,0.5-5,8.5,0,8c10.4-1.1,20.2-3.6,29.8-7.7
		C709.5,281.4,705.5,274.5,700.8,276.5z" style="fill:var(--illu-bg--light);"/>
	<path d="M720.5,252.5c-7.6,3.1-15,6.2-22.6,9.3c-4.6,1.9-2.7,9.7,2.1,7.7c7.6-3.1,15-6.2,22.6-9.3
		C727.3,258.3,725.3,250.6,720.5,252.5z" style="fill:var(--illu-bg--light);"/>
	<path d="M722.8,285.5c-1.5,1.3-3.5,2.4-5.3,2.7c-2.1,0.3-4,1.6-4,4c0,2,1.9,4.3,4,4c4.1-0.5,7.8-2,10.9-4.9
		C732.2,287.7,726.5,281.9,722.8,285.5z" style="fill:var(--illu-bg--light);"/>
	<path d="M691,158c-0.9-0.1-2-0.1-2.9-0.1c-0.4-1.2-0.7-2.4-1.1-3.7c-1.3-4.9-9-2.8-7.7,2.1c0.3,0.8,0.4,1.6,0.7,2.4
		c-1.1,0.3-2.3,0.5-3.3,0.8c-4.9,1.5-2.8,9.2,2.1,7.7c1.2-0.4,2.3-0.7,3.5-0.8c0.4,1.5,0.8,2.9,1.3,4.5c1.3,4.9,9,2.8,7.7-2.1
		c-0.3-0.9-0.5-1.9-0.8-2.8c0.3,0,0.4,0,0.7,0C696.1,166.4,696.1,158.4,691,158z" style="fill:var(--illu-yellow--main);"/>
	<path d="M577,389.3c-0.3,0.1-0.5,0.1-0.8,0.3c-1.2-2.5-2.9-4.9-4.9-6.9c-3.6-3.7-9.3,2-5.6,5.6
		c1.2,1.2,2.1,2.5,2.9,3.9l-3.6,1.2c-4.8,1.6-2.8,9.3,2.1,7.7c1.2-0.4,2.5-0.8,3.7-1.3c0,0.4,0.1,0.9,0.1,1.3c0,5.2,8,5.2,8,0
		c0-1.3-0.1-2.7-0.4-4c0.1,0,0.3-0.1,0.5-0.1C583.9,395.3,581.8,387.5,577,389.3z" style="fill:var(--illu-yellow--main);"/>
	<path d="M685.8,346.5c-2.8,0.7-5.4,1.5-8.2,2.1c-0.5-1.9-1.2-3.7-1.7-5.6c-1.5-4.9-9.2-2.8-7.7,2.1l1.7,5.6
		c-1.7,0.5-3.6,0.9-5.3,1.5c-4.9,1.3-2.8,9,2.1,7.7c1.9-0.5,3.7-0.9,5.6-1.5c0.4,1.3,0.8,2.8,1.3,4.1c1.5,4.9,9.2,2.8,7.7-2.1
		l-1.2-4c2.7-0.7,5.3-1.5,8-2.1C692.9,352.9,690.7,345.2,685.8,346.5z" style="fill:var(--illu-yellow--main);"/>
	<path d="M285.9,422.3h-5.2c-0.5-1.2-0.9-2.5-1.5-3.7c-0.8-2-2.7-3.5-4.9-2.8c-1.9,0.5-3.6,2.9-2.8,4.9l0.7,1.6h-4.8
		c-5.2,0-5.2,8,0,8h8l1.5,3.7c0.8,2,2.7,3.5,4.9,2.8c1.9-0.5,3.6-2.9,2.8-4.9c-0.3-0.5-0.4-1.1-0.7-1.6h2
		C290.9,430.3,290.9,422.3,285.9,422.3z" style="fill:var(--illu-yellow--main);"/>
	<path d="M117.3,345.2c-1.3,0.3-2.5,0.5-3.9,0.8c-0.5-2-1.2-3.9-1.9-5.7c-1.7-4.8-9.4-2.7-7.7,2.1
		c0.7,1.7,1.2,3.6,1.9,5.3c-0.5,0.1-1.1,0.3-1.6,0.4c-5,1.1-2.9,8.8,2.1,7.7c0.5-0.1,1.1-0.3,1.5-0.3c0.3,1.3,0.5,2.7,0.8,4.1
		c0.9,5,8.5,2.9,7.7-2.1c-0.3-1.2-0.4-2.4-0.7-3.7c1.3-0.3,2.7-0.5,4-0.9C124.5,351.8,122.3,344.1,117.3,345.2z" style="fill:var(--illu-yellow--main);"/>
	<path d="M181.4,144.7c-1.1,0.4-2.3,0.8-3.3,1.2c-0.3-0.8-0.4-1.5-0.7-2.3c-1.5-4.9-9.2-2.8-7.7,2.1
		c0.3,0.9,0.5,1.9,0.8,2.8c-1.6,0.5-3.3,1.2-4.9,1.7c-4.8,1.7-2.8,9.4,2.1,7.7l5.2-1.9c0.3,0.9,0.5,1.9,0.9,2.9
		c1.5,4.9,9.2,2.8,7.7-2.1c-0.4-1.2-0.7-2.3-1.1-3.5l3.2-1.1C188.4,150.7,186.2,143,181.4,144.7z" style="fill:var(--illu-yellow--main);"/>
	<path d="M292.5,46.4h-6.1c-0.3-1.6-0.5-3.3-1.1-4.9c-1.3-4.9-9-2.8-7.7,2.1c0.3,0.9,0.4,1.9,0.7,2.8h-1.7
		c-5.2,0-5.2,8,0,8h2.4c0,1.5-0.1,2.9-0.3,4.4c-0.7,5,7,7.2,7.7,2.1c0.3-2.1,0.4-4.4,0.5-6.5h5.6C297.5,54.4,297.5,46.4,292.5,46.4z
		" style="fill:var(--illu-yellow--main);"/>
	<path d="M469.2,46.4c-2.8,0-5.6,0-8.2,0.3c-0.4-2.3-0.9-4.4-1.3-6.6c-1.1-5-8.6-2.9-7.7,2.1l1.2,5.7
		c-1.6,0.4-3.2,0.8-4.9,1.2c-4.9,1.5-2.8,9.2,2.1,7.7c1.5-0.4,2.9-0.8,4.4-1.1c0.1,0.8,0.3,1.5,0.4,2.3c1.1,5,8.6,2.9,7.7-2.1
		c-0.1-0.4-0.1-0.9-0.3-1.3c2.3-0.1,4.4-0.3,6.6-0.3C474.2,54.4,474.2,46.4,469.2,46.4z" style="fill:var(--illu-yellow--main);"/>
	<path d="M170.3,353.3H169c-2.1,0-4.1,1.9-4,4s1.7,4,4,4h1.3c2.1,0,4.1-1.9,4-4C174.1,355.1,172.4,353.3,170.3,353.3z" style="fill:var(--illu-white--light);"/>
	<path d="M199.5,401.1c-2.1,0.1-4,1.7-4,4v1.3c0,2.1,1.9,4.1,4,4c2.1-0.1,4-1.7,4-4v-1.3
		C203.5,403,201.6,401,199.5,401.1z" style="fill:var(--illu-white--light);"/>
	<path d="M52.1,306.8c-5.2,0-5.2,8,0,8C57.1,314.8,57.1,306.8,52.1,306.8z" style="fill:var(--illu-white--light);"/>
	<path d="M42.2,237c-1.9-0.9-4.5-0.5-5.4,1.5c-0.4,0.9-0.9,1.7-1.3,2.7c-0.9,1.9-0.5,4.4,1.5,5.4
		c1.9,0.9,4.5,0.5,5.4-1.5c0.4-0.9,0.9-1.7,1.3-2.7C44.6,240.6,44.2,238,42.2,237z" style="fill:var(--illu-white--light);"/>
	<path d="M93.2,167.3c-2.1,0.1-4,1.7-4,4v1.3c0,2.1,1.9,4.1,4,4c2.1-0.1,4-1.7,4-4v-1.3
		C97.2,169.2,95.4,167.2,93.2,167.3z" style="fill:var(--illu-white--light);"/>
	<path d="M183.6,81c-5.2,0-5.2,8,0,8C188.6,88.9,188.6,81,183.6,81z" style="fill:var(--illu-white--light);"/>
	<path d="M325.7,35.8c-5.2,0-5.2,8,0,8C330.8,43.8,330.8,35.8,325.7,35.8z" style="fill:var(--illu-white--light);"/>
	<path d="M421.5,38.3c-1.6-1.5-4.1-1.6-5.6,0c-0.4,0.4-0.9,0.9-1.3,1.3c-1.5,1.5-1.6,4.1,0,5.6c1.6,1.5,4.1,1.6,5.6,0
		l1.3-1.3C422.9,42.4,423.1,39.8,421.5,38.3z" style="fill:var(--illu-white--light);"/>
	<path d="M521,51.7c-5.2,0-5.2,8,0,8C526,59.7,526,51.7,521,51.7z" style="fill:var(--illu-white--light);"/>
	<path d="M628.6,96.9c-5.2,0-5.2,8,0,8C633.6,104.9,633.6,96.9,628.6,96.9z" style="fill:var(--illu-white--light);"/>
	<path d="M661.8,207.2h-1.3c-2.1,0-4.1,1.9-4,4c0.1,2.1,1.7,4,4,4h1.3c2.1,0,4.1-1.9,4-4
		C665.6,209,663.9,207.2,661.8,207.2z" style="fill:var(--illu-white--light);"/>
	<path d="M746.8,203.2c-5.2,0-5.2,8,0,8C751.8,211.1,751.8,203.2,746.8,203.2z" style="fill:var(--illu-white--light);"/>
	<path d="M742.8,329.4c-5.2,0-5.2,8,0,8C747.9,337.3,747.9,329.4,742.8,329.4z" style="fill:var(--illu-white--light);"/>
	<path d="M618.1,308c-0.4-0.4-0.9-0.9-1.3-1.3c-1.5-1.5-4.1-1.6-5.6,0c-1.5,1.6-1.6,4.1,0,5.6l1.3,1.3
		c1.5,1.5,4.1,1.6,5.6,0C619.5,312,619.7,309.6,618.1,308z" style="fill:var(--illu-white--light);"/>
	<path d="M628.7,391.7c-0.4-0.4-0.9-0.9-1.3-1.3c-1.5-1.5-4.1-1.6-5.6,0c-1.5,1.6-1.6,4.1,0,5.6l1.3,1.3
		c1.5,1.5,4.1,1.6,5.6,0C630.2,395.6,630.3,393.3,628.7,391.7z" style="fill:var(--illu-white--light);"/>
	<path d="M507.7,406.4c-5.2,0-5.2,8,0,8C512.7,414.4,512.7,406.4,507.7,406.4z" style="fill:var(--illu-white--light);"/>
</g>
</svg>
