<?xml version="1.0" encoding="utf-8"?>
<!-- Generator: Adobe Illustrator 23.0.2, SVG Export Plug-In . SVG Version: 6.00 Build 0)  -->
<svg version="1.1" id="Capa_1" xmlns="http://www.w3.org/2000/svg" xmlns:xlink="http://www.w3.org/1999/xlink" x="0px" y="0px" viewBox="0 0 800 585.1" style="enable-background:new 0 0 800 585.1;" xml:space="preserve">

<g>
	<path d="M778.1,200.1c-18.4-54-49.9-108.6-110.8-146.5c-54.7-34-128-52.4-201.3-53.5c-84.9-1.3-160.8,23.5-231.7,53.4
		C166.3,82.3,94.4,113.2,49.3,160C1.3,209.8-5,272.7,2.9,330.6c7.6,56.2,33.9,114.3,98.5,151.7c12.6,7.3,26.3,13.6,41,18.6
		c0.3,0.4,0.8,0.8,1.4,1.3c30.8,17.7,76.8,10.6,113.7,11c48.7,0.6,97.2,4.2,145.6,7.8c47.7,3.4,95.6,6.6,143.7,6.1
		c42.7-0.4,86.6-3.2,124.5-17.9c69.1-26.8,107.2-80.9,121.2-132.9C808.1,318.2,797.6,257.4,778.1,200.1z" style="fill:#56597A;"/>
	<path d="M687.9,472.7c-48.7-12.3-105.5-11.4-156.9-12.3c-65.1-1-130.2,0.4-195.2,4c-38.3-1.7-76.8-0.4-114.8,4
		c-42.9,4.9-102.4,12.3-122.8,40.8c-8.5,11.9-7.6,25.3,4.7,36c13,11.2,33.9,17.2,53.7,21.9c49.2,11.4,102.3,13.3,154.1,15
		c110.6,3.7,223.1,6.8,332.1-8.2c41-5.7,100.9-13.6,110.9-45.1C762.2,502.4,721.9,481.3,687.9,472.7z" style="fill:#B4C7E7;"/>
	<path d="M308.7,184.5c-0.7,0.3-1.3,0.6-1.8,0.8c-0.1-2.7-3.1-5.5-6.5-4.1c-25.4,11.4-42.7,38.4-40.8,66.5
		c0.8,13.7,5.9,27,14.1,37.9c3.8,4.9,18.6,22.7,24.7,13.1c4,0.1,5.2-6.6,0.8-8.5c-21.8-8.9-29-31.8-24.6-53.8
		c4-19.6,17.7-36.2,36.2-43.9C315.9,190.6,313.6,182.4,308.7,184.5z" style="fill:#57455D;"/>
	<path d="M334.4,236.4c-1-2.4-3.2-2.7-5.1-1.7c-0.7-0.6-1.6-1-2.8-0.8c-8.6,0.8-18.1,1.8-25,7.8
		c-6.6,5.7-8.8,14-9.6,22.3c-1.1,12.1-1,24.6-1.3,36.9c-0.3,10-1.1,20.2,0.6,30.1c3.2,19.2,19.4,26.4,37.6,25.6
		c21.6-1,20.5-29.2,20.8-45.1C350,285.5,344.6,260,334.4,236.4z" style="fill:#EF86B0;"/>
	<path d="M470.3,370c-4.8-11.6-8.5-23.5-11.4-35.5c-5.7-23.3-8.8-47-15-70.2c-5.5-20.2-16.1-40.5-36-48.9
		c-0.3-0.4-0.7-0.8-1.3-1.1c-13.6-7.3-30.2-7.3-45.3-6.5c-11.7,0.7-23,4.5-29.1,14.4c-1.3,0-2.4,0.6-3.4,1.8
		c-7.2,10.9-13.4,22.3-18.4,34.3c-4.4,10.7-8.9,22.6-9,34.3c-0.1,8.5,2.4,17.7,10,22.3c7.8,4.7,16.4,2.8,24-1
		c-2.8,49.9-4.2,99.7-4,149.6c0.1,26,0.7,52,1.7,78c0.3,7.8-0.6,18.5,8.3,21.8c4.4,1.6,9.2,0,13.6-0.8c6.5-1.4,13-2.7,19.5-4.1
		c4.8-1,3.5-8.3-1.1-8.3c-10.5,0-10.2-13-9.3-20.2c0.8-8.3,2-16.5,3.1-24.9c2.1-16.8,4.1-33.6,6.2-50.3c2.7-21.9,5.4-43.8,8.1-65.7
		c3.2,26.7,6.8,53.3,10.6,80c2.8,19.4,5.7,38.8,8.8,58.2c2.1,13.7,2.3,29.7,19.8,29.2c8.8-0.1,17.5-0.7,26.1-1.3
		c4.4-0.3,9.7-2.8,7.1-8.3c-2.3-4.5-7.9-4.7-12-5.9c-6.9-2.1-8.8-10.5-9.5-16.8c-0.8-7.8-0.3-15.8-0.4-23.7
		c0-10.2-0.1-20.5-0.4-30.7c-0.4-19.5-1-39.1-1.8-58.6c-1.3-26.7-3-53.4-5.2-80.1c2.4,5.7,4.8,11.3,7.5,17
		c5.1,10.6,10.7,21.2,17.1,31.1c4,6.1,10.3,12.7,18.2,9.2C474.8,384.7,472.9,376.2,470.3,370z" style="fill:#FFFFFF;"/>
	<path d="M439.2,165c-1.3-16-6.6-31.6-16.2-44.6c-17.7-23.6-48.2-37-77.4-31.1c-28.3,5.8-52,28.4-55.9,57.4
		c-4.8,34.2,17.1,66.7,51.4,72.9c0.8,0.1,1.7,0,2.4-0.1c15.8,5.5,32.5,8.6,49.3,8.8c14.4,0.1,29-3.2,37.2-16.1
		C438.1,198.8,440.5,180.4,439.2,165z" style="fill:#B4C7E7;"/>
	<path d="M396.7,184.3c-1.6-6.9-4.1-15-10.6-18.8c-0.1-0.1-0.4-0.3-0.6-0.3c-0.6-1.4-1.8-2.5-3.8-2.5
		c-15.1-0.1-26.1,13.3-25.3,27.8c0.7,12.1,10.5,31.1,25.1,28.5C398,216,399.7,197.4,396.7,184.3z" style="fill:#F7D3BC;"/>
	<path d="M405,170.6c-8.2-18.5-29.8-23.6-46.2-14.1c-5.4-6.6-16.1-8.9-22.9-2.4c-7.5,7.2-4.2,19.5,4,24.3
		c-5.2,15.8-7.9,37,10.7,44.8c5.8,2.4,14.4,2.1,18.1-4c4.2-6.9,0.4-19.4-2.1-27c1.7-1.3,3.2-2.4,4.9-3.7c4.1,0,8.2,0,12.3-0.3
		c4.2,1.1,8.5,1.7,12.9,1.3C407.4,188.6,408.7,178.9,405,170.6z" style="fill:#57455D;"/>
	<path d="M415.9,204c-12.6-0.7-26.1,1.8-38.7,2.7c-12.4,1-24.7,1.8-37.2,2.8c-7.1-0.4-15.1,1-17,9
		c-2,8.9,5.2,11.3,12.4,11.7c25.4,1.3,51.1,0.3,76.4-2.7c6.6-0.7,16-2,17.7-10C431.5,209.4,423.1,204.5,415.9,204z" style="fill:#EF86B0;"/>
	<path d="M405.8,306.6c-0.6-11.2-0.3-22.6-1.6-33.8c-1-8.6-7.1-10-14.7-9.5c-7.1,0.6-19.6-1-24.7,5.2
		c-5.2,6.2-4.9,18.1-4.2,25.6c0.1,1,0.6,1.8,1.1,2.5c-0.1,8.6,0,17.2,1.3,25.7c1.1,7.8,5.2,12.1,13.1,12.7
		c7.3,0.6,20.3,1.8,26.6-3.1C409.6,326.8,406.2,313.7,405.8,306.6z" style="fill:#F7D06F;"/>
	<path d="M415.1,206.4c-7.5-0.4-12.1,6.5-16.7,11.3c-13.6,15.3-28.8,29-45.3,41c-0.7,0.4-1.1,1-1.4,1.7
		c-2.8-2-7.8,1.8-5.9,5.9c3,6.9,7.2,12.7,13,17.7c1.1,0.8,2.7,1.7,4.1,1.1c14.8-6.1,28.1-15.1,38.8-27.1c5.4-5.9,10-12.4,13.8-19.4
		c3.4-6.2,7.6-13.8,8.5-21C425,211.7,421.3,206.9,415.1,206.4z" style="fill:#74A2D6;"/>
	<path d="M472.4,373.4c-3.7-16.2-7.3-32.3-11-48.6c-0.4-2.1-3.1-3.7-5.2-3c-9.3,3.4-18.5,6.8-27.8,10.2
		c-2,0.7-2.8,2.4-2.8,4.1c-1.3,0.8-2,2.4-1.3,4.2c3.8,12.4,9.3,24.2,17,34.6c5.4,7.3,14,20.6,24.3,20.9
		C478.4,396.4,474.1,380.9,472.4,373.4z" style="fill:#74A2D6;"/>
	<path d="M455.6,549.7c-1.3-8.8-12.3-6.9-15.4-13.7c-2-4.4-1.7-10.3-2.3-15c-0.6-5.4-1.1-10.7-1.6-16.2
		c-0.8-11.7-1.4-23.5-1.4-35.2c0-2.4-2-4-4.2-4.2c-10.5-1-26.3-2.3-35.2,4.5c-1.4,1-2.4,2.3-3.2,3.5c-1.1,0.8-1.8,2-1.8,3.7
		c-2,5.7-1.1,12.6,0.1,18.4c3.2,14.6,6.9,29.1,10.5,43.5c1.4,6.1,3.2,16,9.6,18.6c1.4,1.3,3.1,2.3,5.4,2.8
		c8.8,2.1,18.9,1.3,27.7-0.1C449.3,559.2,456.7,557.1,455.6,549.7z" style="fill:#74A2D6;"/>
	<path d="M377.2,549.7c-3.5-2.8-6.6-5.2-7.9-9.7c-1.3-4.1-1.4-8.3-1.4-12.6c-0.1-18.6,3-37,8.8-54.7
		c0.7-2-0.8-4.8-3-5.2c-13.8-2.5-27.5-3.1-41.5-1.4c-3.7,0.4-4.8,4.5-3.5,6.9c-0.8,25.9-0.6,51.8,1,77.7c0.6,9.7,0.7,16.4,11.7,17.4
		c12.7,1,25.7,0,38.4-1.7c1.4-0.1,2.7-1.7,3-3C384.1,557.6,381.7,553.4,377.2,549.7z" style="fill:#74A2D6;"/>
	<path d="M613.6,74.9c-28.4-17.5-62.3-16.4-91.3-1.1c-30.5,16.1-60.6,50.3-57.5,90.8c-0.3,0.3-0.4,0.7-0.7,1.1
		l-6.5,17.4c-1.8,4.8-4.4,9.2-3.5,14.3c0.4,3,4,3.5,6.2,2.5c7.8-3.4,15.5-6.8,23.3-10.2c19.1,7.6,39.4,13.6,59.6,14
		c7.9,1.3,16.1,1.8,24.2,1.6c17.7-0.6,35.3-4.9,51.6-12.7c14-6.6,28.5-16.1,33.8-33.2C663.3,125.5,638.6,90.3,613.6,74.9z" style="fill:#FFFFFF;"/>
	<path d="M222.8,167.7c-1.3,0-2.4,0.3-3.4,0.6c-3.7,0.3-6.8-1.8-7.5-5.2c0.3-1.6,0.4-3.1,0.4-4.7c0-0.1,0-0.1,0-0.3
		c0.8-4.8-6.8-6.8-8.3-1.7c-0.7,2.1-0.8,4.2-0.7,6.4c-1.1,4.2-3.8,7.6-8.1,9.7c-4.2,2.1-1.1,9.6,3.2,7.8c5.4-2.3,11.7-0.1,13.6,5.8
		c1.4,4.4,8.8,3.8,8.3-1.1c-0.1-1.8-1-6.8,1.1-8.2c0.8-0.1,1.7-0.3,2.4-0.6C228.2,174.7,227.8,167.6,222.8,167.7z" style="fill:#F7D06F;"/>
	<path d="M564.5,401c-6.1-0.3-11-4.4-12.7-10.2c-0.3-0.8-0.8-1.6-1.4-2.1c-1.8-3-7.6-2.1-7.9,2.4
		c-0.4,7.2-4,13.6-9.9,17.7c-4.4,3.1-0.4,10.2,4.2,7.3c6.1-3.7,13.4-2.3,17.9,3.1c3,3.5,7.8-0.4,7.1-4.1c-0.6-2.8,1.1-5.1,3.7-5.8
		C570.3,407.9,569.3,401.2,564.5,401z" style="fill:#F7D06F;"/>
	<path d="M589.5,286.5c-0.7,0-1.3,0.1-2,0.3c-5.1,0.6-9.3-3-10.7-7.6c0.1-3.1-0.3-6.4-1.3-9.6c-1.8-5.1-10-3-8.2,2.3
		c0.3,1,0.6,1.8,0.7,2.8c0,0.3-0.1,0.6-0.1,0.7c-0.1,1.6,0,3.1,0.3,4.5c-0.7,5.1-3.5,9.6-8.3,12.4c-4.8,2.8-0.6,9.6,4.2,7.3
		c3.2-1.6,7.9,0.8,8.5,4.5c0.7,5.2,8.3,5.7,8.5,0c0.1-4.8,3.5-8.8,8.5-9.2l0,0c0.4,0,0.7-0.1,1.1-0.1
		C595.3,294,594.3,286.1,589.5,286.5z" style="fill:#F7D06F;"/>
	<path d="M458.7,65c-2.1,0-4.1,0.6-5.9,1.3c-4.1-0.4-6.2-5.2-4.5-9.5c1-2.5-0.6-4.4-2.7-4.9c0-0.1-0.1-0.4-0.1-0.6
		c-1.7-5.2-9.9-3-8.2,2.3c2.1,6.5-0.3,13-5.7,16.7c-0.8,0.4-1.6,0.8-2.3,1.3c-4.4,3.1-0.7,9.6,4.2,7.3c0.4-0.3,0.8-0.4,1.4-0.7
		c3.2-1.3,7.5,0.1,8.6,3.5c0.1,0.8,0.1,1.7,0.4,2.5c1.3,4.5,8.6,3.8,8.3-1.1c0-0.8-0.1-1.7-0.4-2.4c-0.1-2.7,1.1-5.1,3.4-6.4
		c1.8-0.1,3.7-0.6,5.4-1.4C464.8,71.1,462.7,64.9,458.7,65z" style="fill:#F7D06F;"/>
	<path d="M230.6,324.3c-5.2,3.1-10.5,0.4-11.6-4.7c0.1-1,0.3-1.8,0.4-2.8c0.3-2.7-1.6-4-3.5-4c-2.4-0.6-5.4,0.7-5.7,4
		c-0.1,1.1,0,2.3,0,3.2c-1.4,5.2-4.4,9.7-8.6,13.3c-4,4,1.8,9.5,5.9,5.9c4.7-4.7,12.6-2.8,15.3,2.8c1.8,3.8,8.1,2,7.9-2.1
		c-0.1-3.4,1-6.4,3.8-8.3C239.3,328.5,235.4,321.6,230.6,324.3z" style="fill:#F7D06F;"/>
	<path d="M292.3,420.6c-3,0.8-6.6-1.7-6.1-5.1c0.3-1.3,0-2.3-0.6-3.1c0-0.4,0-0.7,0-1.1c-0.1-5.5-8.6-5.5-8.5,0
		c0.1,6.5-1.7,12.6-6.1,17.7l0,0c-0.3,0.3-0.4,0.6-0.7,0.8c-2.8,3.8,3.5,8.8,6.6,5.1c0.3-0.3,0.4-0.6,0.7-0.8c2.3-3,7.5-0.7,8.2,2.4
		c1.6,5.2,9.5,3.1,8.2-2.3c-0.8-2.8,0-4.8,2.1-6.5C299.7,425,296.1,419.5,292.3,420.6z" style="fill:#F7D06F;"/>
	<path d="M487.5,258.8c-5.5,0-5.5,8.5,0,8.5S493.1,258.8,487.5,258.8z" style="fill:#FFFFFF;"/>
	<path d="M631.6,237.7c-5.5,0-5.5,8.5,0,8.5S637.1,237.7,631.6,237.7z" style="fill:#FFFFFF;"/>
	<path d="M638.8,346.3c-1.7-1.6-4.4-1.7-5.9,0c-0.4,0.4-1,1-1.4,1.4c-1.6,1.6-1.7,4.4,0,5.9c1.7,1.6,4.4,1.7,5.9,0
		l1.4-1.4C640.5,350.7,640.5,347.8,638.8,346.3z" style="fill:#FFFFFF;"/>
	<path d="M518.6,345h-1.4c-2.3,0-4.4,2-4.2,4.2c0.1,2.3,1.8,4.2,4.2,4.2h1.4c2.3,0,4.4-2,4.2-4.2
		C522.9,347,521,345,518.6,345z" style="fill:#FFFFFF;"/>
	<path d="M614.7,424.1c-5.5,0-5.5,8.5,0,8.5S620.2,424.1,614.7,424.1z" style="fill:#FFFFFF;"/>
	<path d="M472,414.2c-5.5,0-5.5,8.5,0,8.5S477.5,414.2,472,414.2z" style="fill:#FFFFFF;"/>
	<path d="M206.4,432.6c-5.5,0-5.5,8.5,0,8.5C211.9,441.1,211.9,432.6,206.4,432.6z" style="fill:#FFFFFF;"/>
	<path d="M262.9,346.4c-5.5,0-5.5,8.5,0,8.5S268.4,346.4,262.9,346.4z" style="fill:#FFFFFF;"/>
	<path d="M137.3,284.1c-1.7-1.6-4.4-1.7-5.9,0c-0.4,0.4-1,1-1.4,1.4c-1.6,1.6-1.7,4.4,0,5.9c1.7,1.6,4.4,1.7,5.9,0
		l1.4-1.4C139,288.5,139,285.7,137.3,284.1z" style="fill:#FFFFFF;"/>
	<path d="M182.4,232c-5.5,0-5.5,8.5,0,8.5S187.9,232,182.4,232z" style="fill:#FFFFFF;"/>
	<path d="M247.4,213.6c-5.5,0-5.5,8.5,0,8.5C252.9,222.1,252.9,213.6,247.4,213.6z" style="fill:#FFFFFF;"/>
	<path d="M270.1,117.4c-1.7-1.6-4.4-1.7-5.9,0c-0.4,0.4-1,1-1.4,1.4c-1.6,1.6-1.7,4.4,0,5.9c1.7,1.6,4.4,1.7,5.9,0
		l1.4-1.4C271.8,121.8,271.8,119,270.1,117.4z" style="fill:#FFFFFF;"/>
	<path d="M367.5,51.2c-5.5,0-5.5,8.5,0,8.5S373,51.2,367.5,51.2z" style="fill:#FFFFFF;"/>
	<path d="M151.3,380.3c-5.5,0-5.5,8.5,0,8.5S156.8,380.3,151.3,380.3z" style="fill:#FFFFFF;"/>
	<path d="M375.2,192.6h-0.6c-2.3,0-4.4,2-4.2,4.2c0.1,2.3,1.8,4.2,4.2,4.2h0.6c2.3,0,4.4-2,4.2-4.2
		S377.6,192.6,375.2,192.6z" style="fill:#57455D;"/>
	<path d="M394,193.2c-2.3,0.1-4.2,1.8-4.2,4.2v0.6c0,1.4,0.7,2.7,2,3.5c-0.3,0-0.6,0-0.8,0c-4.1,0.3-8.2,0.6-12.3,1
		c-5.4,0.4-5.5,8.9,0,8.5c4.1-0.3,8.2-0.6,12.3-1c4.4-0.3,5.2-5.8,2.5-7.8c0.1,0,0.4,0,0.6,0c2.3-0.1,4.2-1.8,4.2-4.2v-0.6
		C398.3,195.1,396.3,193,394,193.2z" style="fill:#57455D;"/>
	<path d="M375.4,275c-5.4-6.1-10.9-12-16.5-17.7c5.1-3.8,10-7.9,14.7-12.1c4.1-3.7-2-9.6-5.9-5.9
		c-14.4,13.1-30.5,23.7-48.2,32.1c-4.9,2.3-0.6,9.6,4.2,7.3c9.9-4.7,19.2-10,28.1-16.2c5.9,6.1,11.7,12.3,17.4,18.6
		C373,285,379.1,279,375.4,275z" style="fill:#57455D;"/>
	<path d="M394.6,287.9c-8.3,0.4-16.5,1.4-24.7,2.5c-5.4,0.8-3.1,8.9,2.3,8.2c7.5-1.1,15-1.8,22.5-2.3
		C400,296.1,400,287.7,394.6,287.9z" style="fill:#57455D;"/>
	<path d="M394,307.7c-6.1-0.3-12.1-0.1-18.2,0.6c-5.4,0.6-5.4,9.2,0,8.5c6.1-0.7,12.1-0.8,18.2-0.6
		C399.4,316.5,399.4,308,394,307.7z" style="fill:#57455D;"/>
	<path d="M353.6,301.4c-1.1-1.8-4-2.8-5.8-1.6c-4.2,3.1-8.2,6.4-12,9.9c-4,3.7,2,9.7,5.9,5.9c3.2-3.1,6.6-5.9,10.3-8.6
		C353.9,305.7,354.9,303.5,353.6,301.4z" style="fill:#57455D;"/>
	<path d="M356.3,310.3c-0.8-0.6-2-0.7-3-0.6c-0.4-0.1-0.7-0.1-1.1-0.1c-1.1,0-2.3,0.4-3,1.3c-0.8,0.8-1.1,1.8-1.3,3
		c-0.1,2,1.1,4.1,3,4.9c2.4,1.3,5.5,0.7,7.1-1.7C359.3,314.8,358.7,311.5,356.3,310.3z" style="fill:#74A2D6;"/>
	<path d="M424,270.9c-0.7-5.4-8.9-3.1-8.2,2.3c3,20.8,5.2,41.7,6.9,62.7c0.4,5.4,8.9,5.5,8.5,0
		C429.6,314.1,427.1,292.3,424,270.9z" style="fill:#57455D;"/>
	<path d="M459,333.9c-9.7,4.4-19.8,8.5-29.8,12.3c-5.1,1.8-2.8,10,2.3,8.2c10.7-4.1,21.3-8.5,31.8-13.1
		C468.3,338.9,464,331.6,459,333.9z" style="fill:#57455D;"/>
	<path d="M380.2,368.3c-0.7,9.2-1.4,18.4-2.3,27.5c-0.4,5.4,8.1,5.4,8.5,0c0.7-9.2,1.4-18.4,2.3-27.5
		C389.1,362.8,380.6,362.8,380.2,368.3z" style="fill:#57455D;"/>
	<path d="M369.7,472c-12.6,0-25.3,4.1-37.9,2c-5.4-0.8-7.6,7.3-2.3,8.2c13.6,2.3,26.6-1.7,40.1-1.7
		C375.2,480.5,375.2,472,369.7,472z" style="fill:#57455D;"/>
	<path d="M431.7,476.8l-39.6,4.4c-5.4,0.6-5.4,9,0,8.5l39.6-4.4C437.1,484.7,437.1,476.3,431.7,476.8z" style="fill:#57455D;"/>
	<path d="M524.7,148.2c-0.4-0.6-1.1-1.1-1.8-1.3l0,0c-0.1,0-0.1,0-0.3-0.1c-0.1,0-0.1,0-0.3,0c-0.1,0-0.4,0-0.6-0.1
		c-0.1,0-0.1,0-0.3,0c-0.1,0-0.3,0-0.4,0c-0.7,0-1.4,0.1-2.1,0.6c-1,0.6-1.7,1.6-2.1,2.7c-0.7,2.3,0.4,4.7,2.5,5.7
		c2.4,1,4.9-0.1,5.9-2.5C526.1,151.5,525.8,149.6,524.7,148.2z" style="fill:#57455D;"/>
	<path d="M570.5,139.2c-1.6-1.7-4.5-1.7-5.9,0c-0.1,0.1-0.3,0.3-0.3,0.4c-1.4,1.4-2,3.4-1.4,5.5
		c0.4,1.7,2.3,3.2,4.1,3.1c1.1-0.1,2.1-0.4,3.1-1.1c0.8-0.7,1.6-1.6,1.8-2.7C572.3,142.6,571.7,140.6,570.5,139.2z" style="fill:#57455D;"/>
	<path d="M607.9,131.8c-0.4-1.7-1.8-3-3.4-3.5c-1.6-0.6-3.5,0.3-4.5,1.6c-1.3,1-1.8,2.7-1.4,4.4
		c0.8,3.4,5.5,4.9,8.1,2.3C607.9,135.2,608.3,133.4,607.9,131.8z" style="fill:#57455D;"/>
	<path d="M508.2,484.9c-8.8-0.7-17.4,0.1-25.9,2.1c-5.4,1.3-3.1,9.5,2.3,8.2c7.8-1.8,15.7-2.4,23.6-1.8
		C513.7,493.8,513.7,485.3,508.2,484.9z" style="fill:#57455D;"/>
	<path d="M598.4,504.6c-0.7,0-1.4,0.3-2,0.6c-7.3,0.1-20.5,2.1-23,9.9c-3,9,10.6,10.6,16.4,10.7
		c6.9,0.3,20.2-0.8,23.2-8.3C616.8,508,605.5,504.2,598.4,504.6z M604.7,514.7c-0.3,0.6-3.7,1.4-4.4,1.6c-4.2,1.1-8.6,1.6-13,1
		c-1.1-0.1-2.1-0.4-3.1-0.6c0.4-0.1,0.8-0.4,1.3-0.6c4-1.7,7.9-2.3,12.1-2.3c0.8,0,1.6-0.3,2.3-0.7C601.8,513,605.2,513,604.7,514.7
		z" style="fill:#57455D;"/>
	<path d="M540.1,534h-16c-5.5,0-5.5,8.5,0,8.5h16C545.6,542.5,545.6,534,540.1,534z" style="fill:#57455D;"/>
	<path d="M291.3,490c-4,1.8-8.5,2.1-12.7,1.3c-5.4-1.1-7.6,6.9-2.3,8.2c6.6,1.6,13,0.7,19.2-2.1
		C300.6,495,296.3,487.7,291.3,490z" style="fill:#57455D;"/>
	<path d="M255.9,519.3c-0.7,0-1.4,0-2,0.3c-7.6-0.4-18.2,1-20.9,8.1c-3.5,9.3,10.6,11.7,16.7,11.7
		c6.9,0,20.9-2.3,23.2-10.3C275.5,519.6,261.4,519.8,255.9,519.3z M250.6,531.1c-2.1,0.1-4.2-0.1-6.2-0.6c-1.4-0.3-2-0.8-2.5-0.6
		c3-2.4,11-2.1,13.7-1.7c0.8,0.1,1.6,0,2.1-0.1c1,0.1,2,0.3,3,0.3c-1,0.6-2.1,1.3-3,1.4C255.4,530.5,253,530.9,250.6,531.1z" style="fill:#57455D;"/>
	<path d="M318,534.3H311c-2.3,0-4.4,2-4.2,4.2c0.1,2.3,1.8,4.2,4.2,4.2h7.1c2.3,0,4.4-2,4.2-4.2
		C322.3,536.3,320.4,534.3,318,534.3z" style="fill:#57455D;"/>
	<path d="M464.9,525.8h-12.7c-5.5,0-5.5,8.5,0,8.5h12.7C470.5,534.3,470.5,525.8,464.9,525.8z" style="fill:#57455D;"/>
	<path d="M176.2,516.1h-13.3c-5.5,0-5.5,8.5,0,8.5h13.3C181.7,524.6,181.7,516.1,176.2,516.1z" style="fill:#57455D;"/>
	<path d="M692.9,506.3h-8.5c-5.5,0-5.5,8.5,0,8.5h8.5C698.3,514.8,698.3,506.3,692.9,506.3z" style="fill:#57455D;"/>
	<path d="M726.4,309.6c-3.1,1-7.1-1.7-6.2-5.2c0.3-1.1,0-2.1-0.4-3c-0.6-1.8-2.3-2.5-4-2.3c-1.6,0-3.1,0.7-3.7,2.5
		c-0.4,0.7-0.6,1.7-0.4,2.7c0,0.1,0,0.3,0,0.3c0,0.4,0,0.8,0,1.3c-0.1,2.7-1.7,4.9-4,6.5c-1.6,0.3-3.1,0.8-4.5,1.8
		c-4,2.8-1.6,8.8,3.2,7.8c1.4-0.3,2.8-0.8,4.1-1.4c2.1,0.3,3.7,2.4,4.7,4.8c0.1,2.1,0.8,4.2,2.1,6.1c2.5,4,8.9,1.6,7.8-3.2
		c-0.4-1.6-0.8-3.2-1.4-4.8c0.1-2.5,2.1-4.9,4.9-5.7C733.9,316.2,731.8,308.6,726.4,309.6z" style="fill:#F7D06F;"/>
	<path d="M89.9,262.5c-3,0.8-6.5-0.8-6.8-4.1c-0.3-2.8-2.7-4.1-4.8-4.1c-2.7-0.6-6.2,1.6-5.5,5.2c0.6,2.8,1.3,6.8,1,10
		c-4.1,1.3-7.6,4.5-9,9.7c-1,3.4,2.1,5.7,5.2,5.2c5.2-0.7,8.3-3.5,10-7.2c1.6,0.4,3,1.6,3.7,3.7l0,0c0.1,0.3,0.3,0.7,0.4,1
		c1.8,4.4,9.3,1.3,7.8-3.2c-0.1-0.4-0.3-0.8-0.6-1.3c-1.1-3,0.4-5.9,2.7-7.9C97.5,266.9,93.8,261.4,89.9,262.5z" style="fill:#F7D06F;"/>
	<path d="M120,402.8c-5.2,2-11.4-1.6-11.6-7.5c-0.1-5.5-8.6-5.5-8.5,0c0,1.4,0.3,2.8,0.6,4.1c-0.6,0.8-0.8,2-0.4,3.2
		c0.3,1.1,0.7,2.3,1,3.4c-4.2,1-7.8,4.1-9.3,8.3c-0.4,1.3,0,3.2,1.1,4.1c4.1,3.4,9.5,3.2,13.4-0.6c0.6-0.6,1.1-1.3,1.6-1.8
		c1,1,1.6,2.3,2,3.5c0.1,0.6,0.3,1.1,0.6,1.8c1.8,5.1,9.5,3.1,8.2-2.3c-0.1-0.4-0.3-0.8-0.4-1.3c-0.6-3,0.7-5.9,3.8-6.9
		C127.3,409.2,125.3,401.1,120,402.8z" style="fill:#F7D06F;"/>
	<path d="M52.6,325.7c-2.3,0.1-4.2,1.8-4.2,4.2v1.3c0,2.3,2,4.4,4.2,4.2s4.2-1.8,4.2-4.2v-1.3
		C56.8,327.6,54.8,325.5,52.6,325.7z" style="fill:#FFFFFF;"/>
	<path d="M109.5,176.5c-5.5,0-5.5,8.5,0,8.5C115,185,115,176.5,109.5,176.5z" style="fill:#FFFFFF;"/>
	<path d="M512.1,33.4c-5.5,0-5.5,8.5,0,8.5C517.6,41.9,517.6,33.4,512.1,33.4z" style="fill:#FFFFFF;"/>
	<path d="M689.3,135.2c-5.5,0-5.5,8.5,0,8.5C694.6,143.7,694.8,135.2,689.3,135.2z" style="fill:#FFFFFF;"/>
	<path d="M708.6,227.3c-5.5,0-5.5,8.5,0,8.5S714.1,227.3,708.6,227.3z" style="fill:#FFFFFF;"/>
	<path d="M686.9,409.3c-5.5,0-5.5,8.5,0,8.5C692.2,417.8,692.2,409.3,686.9,409.3z" style="fill:#FFFFFF;"/>
</g>
</svg>
