<?xml version="1.0" encoding="utf-8"?>
<!-- Generator: Adobe Illustrator 23.0.2, SVG Export Plug-In . SVG Version: 6.00 Build 0)  -->
<svg version="1.1" id="Capa_1" xmlns="http://www.w3.org/2000/svg" xmlns:xlink="http://www.w3.org/1999/xlink" x="0px" y="0px" viewBox="0 0 800 552.5" style="enable-background:new 0 0 800 552.5;" xml:space="preserve">

<g>
	<path d="M757.9,197.4c-9.8-25.1-23.1-48.2-38.4-68.7C687.6,86,646.4,54.3,602.3,34.2C548.3,9.3,489.9,1.3,432.4,0.2
		c-58.8-1.1-118.9,1.7-177,13.4C204.8,23.8,148,42.1,112.7,91.2c-29.8,41.3-39.1,102.5-25.5,154.9c2.3,8.7,5.2,17.2,8.7,25.4
		c-2,2-2.6,6.2,0.3,8.3c1.9,1.3,3.8,2.7,5.6,3.9c0.7,0.8,1.5,1.2,2.3,1.3c9.1,5.2,18.9,8.5,28.9,11.1c15,4,30.2,7.7,45.4,11.4
		c30.1,7.5,60.3,14.6,90.6,20.4c61.2,11.8,122.3,16.5,184.2,15c62.8-1.6,125.5-5.8,188.2-11.4c31.4-2.8,62.9-5.1,94.2-10.1
		c10.6-1.6,20.8-5.6,27.9-16c5.9-8.6,8.7-19.6,9.7-30.6C775.5,248.1,767.2,221.1,757.9,197.4z" style="fill:#56597A;"/>
	<path d="M198.6,185.7c7.7-6.6,16-12.6,23.6-18.8c3.5-2.8,9.4-6.3,11.1-10.6c1.6-4-1.1-6.6-3.9-9.3
		c-3.2-3.1-6.8-7.7-11.3-8.9c-4.2-1.2-9.3,0.8-13.2,2c-18.5,5.9-34.5,18.1-45.6,34c-5.1,7.2-10.7,16.9-11.8,25.9
		c-1.3,10.3,10.7,17.4,18.5,21.6c1.3,0.7,2.7,0.5,3.8,0c2,0.8,4.6,0.1,5.4-2.6C179.1,205.2,188.1,194.8,198.6,185.7" style="fill:#74A3D7;"/>
	<path d="M775.8,307.4c-20.4-21.1-48.1-35.7-74.4-47.8c-28.1-12.9-57.7-22.3-87.8-29.1c-61.2-14-124.2-17.6-186.7-19.2
		c-15.2-0.4-30.3-0.5-45.5-0.8c-1.9,0-3.1,0.9-3.6,2.3c-51.9-4-104.3,0.1-155,12.6c-31.3,7.7-61.7,18.4-90.9,32.1
		c-26.6,12.5-52.2,27.1-74.6,46C16.3,338-15.1,391.3,7.6,445.2c24.8,58.9,89.7,81.3,147.5,93.1c70.3,14.4,142,17.3,213.5,11
		c36.5-3.2,72.9-8.1,109.3-12.5c35.8-4.4,71.8-8.6,107.5-13.3c60.5-8.1,123.6-21.2,169.8-63.9C797.5,420.7,820.3,353.5,775.8,307.4z
		" style="fill:#B6C8E8;"/>
	<path d="M529.1,203.7c-9.5-2.1-17.2,5.4-23.2,11.8c-7.1,7.4-12.8,16.1-16.8,25.5c-3.6,8.6-5.9,18.5-2.4,27.5
		c3.4,9,12.2,15.4,20.3,20c4.6,2.6,8.6-4.4,4-7c-0.4-0.3-0.8-0.5-1.3-0.8c1.1-1.7,1.1-4.2-1.3-5.5c-13-7-11.1-23.1-6-34.6
		c5.4-12.1,13-26.2,26.8-29.4C532.8,210.5,532.8,204.5,529.1,203.7z" style="fill:#57455E;"/>
	<path d="M611.6,185.2c-3.4-8.9-9.3-19.1-17-24.8c-8.1-6-20-6.8-29.7-7.5c-20-1.5-43.1,6.3-48.1,28.1
		c-5.4,23.9,11.8,43.8,31.5,54.1c1.7,0.9,3.5,0.5,4.7-0.4c13,7.4,29.5,8.1,42.5-0.4C611.9,223.8,618.5,202.9,611.6,185.2z" style="fill:#B6C8E8;"/>
	<path d="M552.8,330.5c-0.1-6.2-0.4-12.3-0.7-18.5c-0.9-26.4-1.9-52.9-2.8-79.5c-0.1-2-1.3-3.2-2.8-3.6
		c-0.5-1.3-1.7-2.6-3.6-2.4c-7.7,0.1-15.8,0.4-22.7,4.3c-7.9,4.4-10.5,12.5-12.6,20.8c-5.2,20.7-6.8,42.4-5,63.6
		c0.8,8.5,0.8,20.3,4.8,27.9c3.6,7,16,6.4,22.5,6.2c7-0.3,18.3-0.7,21.7-7.8C553.4,338,553,334.2,552.8,330.5z" style="fill:#F087B1;"/>
	<path d="M412.8,190.9c-5.5-14.4-16.1-26-27.2-36.4c-11.9-11.3-25-21.2-38.3-30.7c-13.3-9.5-26.8-20.3-41.6-27.4
		c-8.9-4.3-27.6-11.4-34.9-0.8c-4.2,6-0.9,14.4,0.9,20.7c2.7,9,5.8,17.9,9.4,26.4c7,16.6,15.7,32.3,26.2,47.1
		c-0.7,1.1-0.8,2.4,0.3,3.8c10.5,13.7,21.7,26.7,34,38.8c5.6,5.6,11.4,11.3,17.4,16.2c5.1,4.2,11,7.7,17.9,6
		c12.2-2.8,25.1-14.4,31.9-24.4C416.9,218.6,417.9,204.2,412.8,190.9z" style="fill:#F087B1;"/>
	<path d="M294.3,291.3c-6.7-7.7-15.6-14-23.6-20.3c-7.4-5.8-15-11.4-22.8-16.8c-0.1-0.1-0.3-0.3-0.5-0.4
		c-0.5-0.4-1.1-0.8-1.6-1.2c-2-1.3-3.9-0.5-5,0.9c-33.3,0.7-62.9-17.6-92.7-30.2c-9.4-4-31-16.2-39.2-4.6
		c-8.1,11.4,7.5,27.1,14,35.3c20.5,25.6,45.9,47.4,74.4,63.9c25.5,14.8,61.3,32.3,88.7,12.2C298.1,321.3,305.6,304.1,294.3,291.3z" style="fill:#F087B1;"/>
	<path d="M584.6,196.6c-0.9-10.2-8.1-28.5-20.8-23.1c-23.5,2.7-26.4,58.4,4,54.9C583.2,226.8,585.7,208.8,584.6,196.6z" style="fill:#F7D3BD;"/>
	<path d="M456.4,331.5c-2.8-11.1-12.2-20-19.5-28.3c-17.7-20-36.1-39.5-55.3-58.1c-19.2-18.7-38.9-36.6-59.5-53.8
		c-10.2-8.6-20.7-17-31.1-25.2c-9-7-18.1-15.4-29-19.6c-13-5-25.6,0.1-37.2,6.4c-11.7,6.4-23.4,13.3-33.7,21.9
		c-18.8,15.6-32.6,40.8-23.6,65.2c0.9,2.4,3.2,3.1,5.2,2.6c42.4,30.7,87.9,57.3,135.6,79.2c23.5,10.7,47.5,20.4,72.1,28.9
		c20,6.8,48.1,20.4,67.4,5.5C455.4,350.1,458.9,340.9,456.4,331.5z" style="fill:#FFFFFF;"/>
	<path d="M696.2,377.6c-5-6.4-10.2-13.4-16.4-18.8c-3.9-3.4-8.5-3.8-12.9-1.2c-6.2,3.6-11.8,9.3-17.3,13.7
		c-4.8,3.9-9.7,7.8-14.5,11.8c-3.4-16.1-9.4-31.5-17.7-45.9c-0.3-0.4-0.5-0.8-0.9-1.1c1.5-17.6,0.9-35.6-0.4-53
		c-1.9-25.4-9.4-54-34.8-65.4c-1.9-0.8-3.6-0.3-4.7,0.8c-7.1,0.8-14.2,1.6-21.3,2.4c-0.9-0.4-2.1-0.4-3.4,0.4
		c-25.2,18.1-33.3,49.8-30.2,79.6c0.9,9.5,2.7,19.7,5.2,29.9c-7.1,19.3-3.8,41.1,7.4,57.7c-11.1-5.4-22.3-10.7-33.6-15.7
		c-15-6.7-21.2,14.6-24.7,25.5c-1.1,3.4,3,6.4,5.9,4.6c8.5-5.4,17.6-1.2,25.1,3.8c7.2,4.7,14.1,9.9,21.2,15
		c12.1,8.6,24.8,18.7,40.1,19.9c12.1,0.9,24-5.2,29.9-15.8c1.2-2.1,2.1-4.4,2.7-6.6c8.3,7.8,20.3,11.8,31.5,8.7
		c10.2-2.7,18.1-10.5,24.7-18.4c7.9-9.5,15.3-19.5,23-29.3c3.5,3.1,7.9,4.6,12.9,4.2C697,384.2,698.3,380.5,696.2,377.6z" style="fill:#FFFFFF;"/>
	<path d="M458.5,335.4c-1.9-10.7-10.2-21.3-16.4-30.1c-6.6-9.3-13.7-18-21.5-26c-3.9-4-8.1-8.1-12.2-11.8
		c-3.4-3-7.1-7.1-11.9-7.7c-8.1-0.9-17,8.3-22.5,13.3c-17.3,15.7-29,37-33.2,60.1c-0.4,2.6,1.3,4.4,3.2,4.8c0.3,0.8,0.8,1.6,1.9,2.1
		c18.3,9.7,37.7,17,57.8,21.5c7.8,1.7,16.1,2.7,24,1.6c7-0.3,14-1.6,19.7-5.4C455,353.1,460.1,344.4,458.5,335.4z" style="fill:#74A3D7;"/>
	<path d="M184.4,132.4c-1.6-4-3.1-8.1-4.7-12.1c-0.9-2.6-3.4-3.5-5.9-2.4c-4.4,2-3.9-5.4-4.4-8.5
		c-0.8-4.6-1.7-9-2.6-13.6c-0.9-5.1-8.7-3-7.8,2.1c0.9,5,1.9,9.8,2.8,14.8c0.7,3.4,0.8,8.1,2.8,10.9c2.3,3.1,5.6,3.4,8.9,2.7
		c1.1,2.7,2.1,5.5,3.1,8.2C178.5,139.4,186.3,137.3,184.4,132.4z" style="fill:#F7D16F;"/>
	<path d="M219.3,116.4c-2.6-6.7-3.8-13.6-3.4-20.7c0.3-5.2-7.8-5.1-8.1,0c-0.4,6.8,0.4,13.4,2.6,19.9
		c-1.9,0.8-3.8,1.5-5.8,2c-5.1,1.2-3,9,2.1,7.8c3.8-0.9,7.2-2.3,10.6-4.3C218.9,120.2,219.9,118.1,219.3,116.4z" style="fill:#F7D16F;"/>
	<path d="M160.2,152.1c-3.8-2.1-7.5-4.2-11.1-6.3c-1.9-1.1-4.4-0.5-5.5,1.5c-5.1,9.8-16.8,0.8-22-3.8
		c-3.9-3.4-9.7,2.3-5.6,5.6c8.6,7.4,23.9,15.8,32.5,5.5c2.7,1.5,5.2,3,7.9,4.4C160.6,161.7,164.6,154.7,160.2,152.1z" style="fill:#F7D16F;"/>
	<path d="M124.9,182.5c-3.9-1.3-8.1-1.7-12.1-1.3c-2.1,0.3-4,1.7-4,4c0,2,1.9,4.3,4,4c3.5-0.4,6.7,0,9.9,1.1
		C127.7,191.9,129.8,184.1,124.9,182.5z" style="fill:#F7D16F;"/>
	<path d="M588.8,297.6c-0.9-5.8-0.7-15.6-5.4-19.1c-4.7-3.5-12.6-3.4-17.9-3.2c-6.8,0.3-13.6,1.9-19.9,4.6
		c-2,0.8-2.6,3.2-2.1,5.2c-0.1,0.4-0.3,0.9-0.3,1.5c0,9.1-0.5,18.7,0,27.8c0.3,5.6,2.4,8.7,7.2,8.6c7.5-0.1,15-1.7,22.5-2.6
		c4.3-0.5,14,0.8,16.9-4.2C592.7,311.7,589.5,302.5,588.8,297.6z" style="fill:#F7D16F;"/>
	<path d="M535.5,387c-7.9-2.3-14.8-5.9-21.9-9.8c-5.5-3-12.2-7.4-18.8-7.5c-4.7-0.1-8.7,2.6-9.9,6.4
		c-6.2,6.7-10.5,14.5-12.8,23.2c-0.7,2.6,1.7,5,4.3,4.6c2.1,0.7,4.4,0.7,6.8,0.3c2.4-0.5,4.7-1.6,7.1-2c0.8,0.7,1.7,1.3,2.7,2
		c3.6,2.8,7.1,5.6,10.6,8.5c3.5,2.8,7.1,5.6,10.6,8.5c2.3,1.9,4.8,4.2,7.9,4.4c6.3,0.5,9.5-7.8,12.1-11.7c2.6-3.9,5.1-7.8,7.7-11.7
		c1.3-2.1,3-4.3,2.8-6.8C544.5,390.4,539.7,388.2,535.5,387z" style="fill:#74A3D7;"/>
	<path d="M692.8,370c-3.5-4-7.1-7.9-10.6-11.9c-2.1-2.4-4.3-5.1-7.4-6.3c-6.7-2.6-15.6,4-20.8,7.5
		c-7.1,4.8-13.4,10.6-18.8,17.2c-1.2,1.5-1.2,3.4-0.4,4.7c-1.1,1.1-1.5,2.8-0.4,4.4c4.7,7.8,10.1,15.2,16.2,21.9
		c5.2,5.6,8.7,3.9,13.6-1.5c2.8-3.1,5.4-6.4,7.9-9.8c2.6-3.5,5-9,9.3-10.2c5.4-1.5,11.8,5,16.8-1.3
		C702.3,379.3,696.2,373.9,692.8,370z" style="fill:#74A3D7;"/>
	<path d="M619.1,320.6c-6.3-2.4-14.8-4.7-21.3-2.6c-4.6,1.3-7.5,5.6-6.6,10.2c-1.2,6.6-3,13.2-5.5,19.5
		c-3.1,7.8-7.7,14.2-11.9,21.2c-0.3,0.5-0.7,1.1-0.9,1.7c-0.5-0.8-0.9-1.6-1.3-2.3c-4-6.8-8.7-13.2-12.6-20c-2-3.6-3.8-7.4-4.8-11.3
		c-0.7-2.7-0.5-6-2-8.3c-3.6-5.8-15.4-1.7-20.4-0.3c-1.3,0.4-2.3,1.3-2.6,2.4c-1.6,0.8-2.8,2.4-2.4,4.6c2.6,16,9.5,30.9,20.3,43
		c5,5.5,11.3,11.9,18.4,14.6c5.2,2,12.5,1.6,13.4-5.2c0-0.1,0-0.1,0-0.3c2,0.4,4,0.4,6,0c11.1-2.1,19.5-12.2,24.6-21.6
		c6.8-12.6,11.7-27,12.9-41.2C622.2,322.6,620.7,321.1,619.1,320.6z" style="fill:#74A3D7;"/>
	<path d="M580.3,177c-15.2-15.6-37,2.6-37.7,20.3c0,0.9,0.3,1.7,0.7,2.4c0.3,1.9,1.5,3.5,3.9,3.6c2,0.1,4.2,0.1,6.2,0.1
		c-4.3,0.9-3.9,7.9,0.9,7.9c5,0,5.1-7.2,0.8-7.9c4.3,0,8.7-0.3,13-0.7c4.7-0.5,12.8-0.3,16.6-3.2C591.5,194.7,584.6,181.4,580.3,177
		z" style="fill:#57455E;"/>
	<path d="M297.3,461.7c-14-5.2-24.4-17.4-27.8-31.8c1.6-1.9,2.1-4.3,0-7.1c-3.6-4.7-12.3-5.2-17.6-4.6
		c-7.8,1.1-14.1,5-18.7,11.1c-1.2,1.6-0.8,3.4,0.3,4.4c-5.2,21.9-22.1,39.5-44.2,45.1c-5,1.3-3,9,2.1,7.8
		c24-6.2,43.4-25.5,49.5-49.4c6.6,1.7,13.4,0.3,20.1-2.3c0.5-0.1,0.9-0.4,1.5-0.7c4.7,16.1,16.5,29,32.6,35.2
		C299.9,471.3,302.1,463.5,297.3,461.7z M254.7,428.6c-3.8,1.1-7.4,1.9-10.9,1.1c4.6-3.4,10.2-3.8,16.2-3.1
		C258.5,426.8,256.3,428.1,254.7,428.6z" style="fill:#57455E;"/>
	<path d="M162.1,419.7h-26.8c-5.2,0-5.2,8.1,0,8.1h26.8C167.2,427.7,167.3,419.7,162.1,419.7z" style="fill:#57455E;"/>
	<path d="M97.4,318.4c-5.8,0.5-11.7,1.1-17.4,1.6c-5.1,0.4-5.2,8.5,0,8.1c5.8-0.5,11.7-1.1,17.4-1.6
		C102.5,326.1,102.6,318,97.4,318.4z" style="fill:#57455E;"/>
	<path d="M210.4,339.1c-5.5,0.3-10.9-0.1-16.4-1.3c-5.1-1.2-7.2,6.6-2.1,7.8c6,1.5,12.2,2,18.5,1.7
		C215.5,346.9,215.7,338.9,210.4,339.1z" style="fill:#57455E;"/>
	<path d="M383,418.8c-7.7,0.5-15.2,1.1-22.8,1.6c-5.1,0.4-5.2,8.5,0,8.1c7.7-0.5,15.2-1.1,22.8-1.6
		C388.1,426.5,388.3,418.4,383,418.8z" style="fill:#57455E;"/>
	<path d="M438.6,476c-5.9-0.4-11.4,0.8-16.8,3.2c-4.7,2.1-0.7,9.1,4,7c4-1.9,8.3-2.6,12.8-2.1
		C443.7,484.5,443.7,476.4,438.6,476z" style="fill:#57455E;"/>
	<path d="M769.3,337.5c-3.4-5.8-5.9-11.7-7.8-18.1c1.1-2.1,0.5-5-2.4-5.6c-12.2-2.8-27.5-4.3-34.6,8.6
		c-0.5,0.9-0.7,1.9-0.4,2.8c-4,9.9-9.1,19.3-15,28.2c-2.8,4.3,4.2,8.3,7,4c5.6-8.6,10.3-17.4,14.4-26.8c8.7,1.7,17.3,0.3,24.8-4.3
		c1.2,3.5,2.7,7,4.3,10.3c1.3,2.7,2.8,5.2,4.4,7.8c0.4,0.7,2,2.4,3,3.8c-0.9,1.3-0.9,3.2,0.7,4.7l0.7,0.5c1.3,1.2,3.2,1.6,4.8,0.7
		l0.9-0.5c1.1-0.7,2.1-2.1,2-3.5C775.8,345.3,771.7,341.5,769.3,337.5z M734.3,323c4.2-3.6,10.1-3.8,15.7-2.8
		C745.2,322.7,739.8,323.7,734.3,323z" style="fill:#57455E;"/>
	<path d="M645.6,473.6c-6.7,1.2-13.6,1.5-20.4,0.9c-5.1-0.4-5.1,7.7,0,8.1c7.7,0.5,15,0.1,22.5-1.2
		C652.8,480.5,650.7,472.7,645.6,473.6z" style="fill:#57455E;"/>
	<path d="M673.2,284.2c-6.4-2-13.2-3-19.9-3c-5.2,0-5.2,8.1,0,8.1c6,0,11.9,0.8,17.7,2.7
		C676,293.6,678.2,285.8,673.2,284.2z" style="fill:#57455E;"/>
	<path d="M458.7,250.5h-12.1c-5.2,0-5.2,8.1,0,8.1h12.1C463.8,258.6,464,250.5,458.7,250.5z" style="fill:#57455E;"/>
	<path d="M278.9,376.6c-4.7,0.5-9.3,0.4-13.8-0.8c-5-1.3-7.1,6.4-2.1,7.8c5.2,1.3,10.6,1.7,15.8,1.1c2.1-0.3,4-1.6,4-4
		C282.9,378.7,281,376.3,278.9,376.6z" style="fill:#57455E;"/>
	<path d="M74.6,458.8c-5.5-2.3-11.3-3.2-17.2-3c-5.1,0.3-5.2,8.3,0,8.1s10.2,0.7,15,2.7
		C77.1,468.5,79.3,460.7,74.6,458.8z" style="fill:#57455E;"/>
	<path d="M344.6,505.6c-7.1-0.5-14.4-1.1-21.5-1.6c-5.2-0.4-5.1,7.7,0,8.1c7.1,0.5,14.4,1.1,21.5,1.6
		C349.7,514,349.7,506,344.6,505.6z" style="fill:#57455E;"/>
	<path d="M333.4,234.7c-14.1-11-37.2-12.1-46,5c-7.5,9-9.3,22.3-1.7,33.2c10.6,15.3,35,19.1,49.3,7
		C349.3,267.3,348,246.2,333.4,234.7z" style="fill:#B6C8E8;"/>
	<path d="M416.2,363.7c-5.9-5.2-12.8-8.5-20-10.5l0,0l0,0c-0.3-0.1-0.7-0.3-0.9-0.4c-0.7-0.3-1.2-0.4-1.7-0.3
		c-6.3-1.5-12.9-2.3-19.5-3c-2-0.1-3.1,0.9-3.6,2.3c-0.8,0.1-1.6,0.3-2.4,0.4c-5.1,0.9-3,8.7,2.1,7.8c2.7-0.5,5.2-0.8,7.9-0.9
		c6,1.9,12.2,3.1,18.5,3.9c2.7,1.6,5.5,3.1,8.3,4.4c0.4,0.3,0.7,0.5,1.1,0.8c0.9,0.8,2.1,1.1,3.1,0.9c1.1,0.4,2.1,0.8,3.4,1.2
		C416,371.6,419.1,366.2,416.2,363.7z" style="fill:#B6C8E8;"/>
	<path d="M461,345.4c-1.9,0.5-3.6,1.1-5.5,1.6c-0.8-0.8-2.1-1.2-3.6-0.5c-8.5,3.2-16,7.8-22.7,13.8
		c-0.5,0.5-0.9,1.1-1.1,1.6c-2.6,3.4,1.2,8.9,5,6c0.5-0.4,1.2-0.8,1.7-1.2c6.3-1.3,12.3-3.5,18.1-6.3c0.1,0,0.3-0.1,0.4-0.1
		c4.8-2,11.1-4.3,12.5-9.8C466.8,347.3,464.1,344.6,461,345.4z" style="fill:#B6C8E8;"/>
	<path d="M470.8,338.2c-4.3,0-8.6,0.4-12.9,1.2c0.1-0.1,0.1-0.4,0.3-0.7c1.9-5.8,6.6-10.1,12.3-11.5c5-1.3,3-9-2.1-7.8
		c-8.6,2.1-15.3,8.7-18,17.2c-0.7,1.9,0.1,3.4,1.5,4.2c-11.7,3.5-22.4,10.1-30.6,19.5c-24.2-18-56.2-21.7-84-9.8c-4.7,2-0.7,9,4,7
		c25.5-11,56.4-6.4,77.7,11.3c1.5,1.2,4.3,1.9,5.6,0c11.3-14.2,27.8-22.5,46-22.5C475.9,346.2,475.9,338.2,470.8,338.2z" style="fill:#57455E;"/>
	<path d="M93.9,383c-6.3-0.5-12.5-1.1-18.8-1.7c-5.1-0.4-5.1,7.7,0,8.1c6.3,0.5,12.5,1.1,18.8,1.7
		C99.1,391.5,99.1,383.4,93.9,383z" style="fill:#57455E;"/>
	<path d="M605.2,219.9c-6.4-9.1-21.5-7.1-31.3-7.5c-13.4-0.5-29.7-1.6-42.7,2.7c-7.8,2.6-7.7,11.4-0.3,14.4
		c0.8,0.3,1.7,0.5,2.6,0.8c0.5,0.4,1.2,0.7,2,0.7c0.8,0,1.7,0.1,2.6,0.1c4.2,0.5,8.6,0.4,12.3,0.4c0.5,0,1.1,0,1.6,0
		c0.4,0,0.8,0,1.3,0c1.1,0,2.1,0,3.2-0.1c15.4-0.4,30.9-2.1,46-5.5C605,225.4,606.5,222.1,605.2,219.9z" style="fill:#F087B1;"/>
	<path d="M654.8,116.7c2.1-2.7,0.8-6.7-2.8-6.8c-0.9,0-1.9-0.1-2.8-0.1c0-0.1,0-0.3,0-0.4c-0.4-5.1-8.5-5.2-8.1,0v0.1
		c-0.4,0.8-0.5,1.7-0.1,2.6c0.1,0.3,0.1,0.4,0.1,0.5c-3.1,0.5-5.8,2.8-6.8,6c-0.8,2.8,1.5,4.8,3.9,5.1c2.4,0.3,4.7-0.4,6.6-1.9
		c0.4,0.5,0.5,1.2,0.8,1.9c0.1,0.7,0.3,1.3,0.4,2c1.5,5,8.7,3,7.8-2.1c-0.1-0.4-0.1-0.7-0.3-1.1
		C653.1,120.6,653.5,118.5,654.8,116.7z" style="fill:#F7D16F;"/>
	<path d="M461.1,130.8c-0.9-0.3-1.7-0.4-2.7-0.7c0-1.9-0.3-3.8-0.5-5.6c-0.3-2.1-3.1-3.4-5-2.8c-2.3,0.7-3.1,2.8-2.8,5
		c0.1,0.5,0.1,0.9,0.1,1.5c-1.3-0.3-2.6-0.7-3.9-0.9c-5-1.2-7.1,6.6-2.1,7.8c1.9,0.4,3.8,0.9,5.6,1.3c-0.1,1.1-0.4,2-0.7,3.1
		c-1.3,5,6.4,7.1,7.8,2.1c0.3-1.1,0.5-2.1,0.7-3.4c0.4,0.1,0.8,0.1,1.2,0.3C464,139.8,466.1,132,461.1,130.8z" style="fill:#F7D16F;"/>
	<path d="M743.4,222.7c-0.8,0.1-1.6,0.3-2.4,0.5v-2.8c0-5.2-8.1-5.2-8.1,0v4.6c-0.9,0.1-2,0.4-3,0.5
		c-5.1,1.1-3,8.7,2.1,7.8c0.3,0,0.5-0.1,0.8-0.1v2.1c0,5.2,8.1,5.2,8.1,0v-3.8c1.5-0.3,3-0.7,4.6-0.9
		C750.7,229.6,748.5,221.8,743.4,222.7z" style="fill:#F7D16F;"/>
	<path d="M500.1,37.3h-1.9v-3.4c0-5.2-8.1-5.2-8.1,0v3.4h-3.4c-5.2,0-5.2,8.1,0,8.1h3.4v3.4c0,5.2,8.1,5.2,8.1,0v-3.4
		h1.9C505.3,45.3,505.3,37.3,500.1,37.3z" style="fill:#F7D16F;"/>
	<path d="M325.3,52c-0.7,0-1.3,0-2,0c-0.3-2-0.8-4-1.5-5.9c-1.7-4.8-9.5-2.7-7.8,2.1c0.3,0.8,0.5,1.6,0.8,2.4
		c-1.6-0.4-3.1-0.9-4.7-1.5c-4.8-1.9-7,5.9-2.1,7.8c2.4,0.9,4.8,1.6,7.4,2.1c-0.3,1.6-0.5,3.2-1.1,4.8c-1.7,5,6,7,7.8,2.1
		c0.7-2,1.1-3.9,1.3-5.9c0.7,0,1.3,0,2,0C330.5,60.2,330.5,52.2,325.3,52z" style="fill:#F7D16F;"/>
	<path d="M445.3,179.4c-2.1,0.1-4,1.7-4,4v1.5c0,2.1,1.9,4.2,4,4c2.1-0.1,4-1.7,4-4v-1.5
		C449.3,181.3,447.5,179.3,445.3,179.4z" style="fill:#FFFFFF;"/>
	<path d="M393.4,102.1c-1.6-1.5-4.2-1.6-5.6,0c-0.5,0.5-0.9,0.9-1.5,1.5c-1.5,1.5-1.6,4.2,0,5.6c1.6,1.5,4.2,1.6,5.6,0
		l1.5-1.5C394.8,106.2,395,103.6,393.4,102.1z" style="fill:#FFFFFF;"/>
	<path d="M433.5,46.1c-5.2,0-5.2,8.1,0,8.1C438.6,54.2,438.6,46.1,433.5,46.1z" style="fill:#FFFFFF;"/>
	<path d="M503,105.3c-5.2,0-5.2,8.1,0,8.1S508.3,105.3,503,105.3z" style="fill:#FFFFFF;"/>
	<path d="M583,57.9c-5.2,0-5.2,8.1,0,8.1C588.1,66,588.3,57.9,583,57.9z" style="fill:#FFFFFF;"/>
	<path d="M660.1,198.6c-5.2,0-5.2,8.1,0,8.1C665.2,206.6,665.2,198.6,660.1,198.6z" style="fill:#FFFFFF;"/>
	<path d="M701.4,151.2c-5.2,0-5.2,8.1,0,8.1C706.6,159.3,706.6,151.2,701.4,151.2z" style="fill:#FFFFFF;"/>
	<path d="M569.7,135c-5.2,0-5.2,8.1,0,8.1C574.8,143,574.8,135,569.7,135z" style="fill:#FFFFFF;"/>
	<path d="M349.1,22.4c-5.2,0-5.2,8.1,0,8.1C354.2,30.4,354.2,22.4,349.1,22.4z" style="fill:#FFFFFF;"/>
	<path d="M243.8,43.2c-5.2,0-5.2,8.1,0,8.1S249.1,43.2,243.8,43.2z" style="fill:#FFFFFF;"/>
	<path d="M183.2,52c-5.2,0-5.2,8.1,0,8.1C188.4,60.1,188.4,52,183.2,52z" style="fill:#FFFFFF;"/>
	<path d="M243.8,117.1c-5.2,0-5.2,8.1,0,8.1S249.1,117.1,243.8,117.1z" style="fill:#FFFFFF;"/>
	<path d="M132.8,106.8h-1.5c-2.1,0-4.2,1.9-4,4c0.1,2.1,1.7,4,4,4h1.5c2.1,0,4.2-1.9,4-4
		C136.7,108.7,135.1,106.8,132.8,106.8z" style="fill:#FFFFFF;"/>
	<path d="M103.2,251.9c-5.2,0-5.2,8.1,0,8.1S108.4,251.9,103.2,251.9z" style="fill:#FFFFFF;"/>
	<path d="M345.7,252c-3.5-16.2-17.9-25.2-33.2-26.3c-0.5-1.2-1.7-2-3.5-2c-19.6,0.7-35.6,16.8-34,36.8
		c1.7,21.9,22,32.7,42.3,29.5C336.2,287.2,350,271.5,345.7,252z M317.1,281.9c-15.4,3-32.3-4.3-34-21.5
		c-1.2-12.8,6.6-23.5,17.9-27.4c0.8,0.7,2,1.1,3.4,0.8c13.8-2.4,29,4,33.2,18.3C341.8,267.2,331.5,279.3,317.1,281.9z" style="fill:#F087B1;"/>
	<path d="M267.1,196.7c-14.8-12.6-28.7-26.3-41.7-40.8c-3.5-3.9-9.1,1.9-5.6,5.6c9.9,11.1,20.4,21.7,31.4,31.8
		c2.8,2.6,5.5,5,8.3,7.4c2.6,2.3,6.4,4.6,8.6,7.2c3,3.8-1.2,5.9-4.2,8.6c-3,2.7-5.8,5.4-8.7,8.1c-5.2,4.8-12.3,14.9-20.3,12.3
		c-7-2.3-13.8-7.8-20.1-11.5c-14-8.3-27.8-16.6-41.7-25c-4.4-2.7-8.5,4.3-4,7c17.3,10.3,34.6,20.7,51.9,31.1
		c6.4,3.9,14,9.3,21.9,6.7c7-2.3,12.9-10.1,18.1-14.9c3.6-3.4,7.1-6.6,10.7-9.9c2.4-2.3,5.5-4.8,6.3-8.2
		C279.7,205,271.6,200.5,267.1,196.7z" style="fill:#57455E;"/>
	<path d="M239.7,184c-0.5-0.8-1.3-1.6-2.4-1.9c-0.9-0.3-2.3-0.3-3.1,0.4c-1.2,0.9-2.4,1.7-3.6,2.7
		c-0.8,0.7-1.6,1.3-1.9,2.4c-0.3,0.9-0.1,2.3,0.4,3.1c0.5,0.8,1.3,1.6,2.4,1.9c0.9,0.3,2.3,0.3,3.1-0.4c1.2-0.9,2.4-1.7,3.6-2.7
		c0.8-0.7,1.6-1.3,1.9-2.4C240.3,186.1,240.2,184.9,239.7,184z" style="fill:#57455E;"/>
	<path d="M557.1,330.9c-8.3-20.8-12.8-42.7-13-65.1c0-5.2-8.1-5.2-8.1,0c0.3,22,4.3,43.6,12.1,64.2
		c-6,2-11.8,4.6-17.3,7.8c-4.4,2.6-0.4,9.5,4,7c6-3.5,12.2-6.2,18.9-8.1c1.2-0.4,2-1.1,2.4-2C557.4,333.8,557.8,332.5,557.1,330.9z" style="fill:#57455E;"/>
	<path d="M620.5,331.3c-6.8-4.2-14.2-6.4-22.1-7.1c1.2-20.4,0.9-40.9-0.7-61.3c-0.4-5.1-8.5-5.2-8.1,0
		c1.7,21.7,1.9,43.5,0.4,65.2c-0.1,3,2.3,4.2,4.6,3.8c0.4,0.1,0.8,0.3,1.2,0.3c7.4,0.3,14.2,2.3,20.5,6.2
		C620.9,341,624.9,334,620.5,331.3z" style="fill:#57455E;"/>
	<path d="M564.9,407c-12.1-10.3-26.6-20.3-34.5-34.5c-2.6-4.6-9.5-0.5-7,4c2.6,4.7,5.9,9,9.5,12.9
		c-1.1,0.1-2.1,0.7-2.8,1.7c-6,8.2-11.7,16.6-16.8,25.4c-2.6,4.4,4.3,8.6,7,4c5.1-8.7,10.7-17.3,16.8-25.4c0.3-0.4,0.4-0.7,0.5-1.1
		c6.8,6.6,14.6,12.5,21.6,18.5C563,416.2,568.8,410.4,564.9,407z" style="fill:#57455E;"/>
	<path d="M637.6,377.5c-0.5-5.1-8.6-5.1-8.1,0c1.1,10.5,1.5,21.1,1.1,31.7c-0.1,5.2,7.9,5.2,8.1,0
		C639.3,398.6,638.9,388,637.6,377.5z" style="fill:#57455E;"/>
	<path d="M668.8,397.5c0-0.1-0.1-0.4-0.3-0.5c-0.1-0.4-0.3-0.7-0.4-0.9c-2-3.9-6.6-7.4-9.4-10.5
		c-4.2-4.6-8.3-9.1-12.6-13.7c-3.5-3.9-9.1,1.9-5.6,5.6c3.6,3.9,7.1,7.8,10.7,11.7c1.6,1.9,3.4,3.6,5,5.5c0.9,0.9,3.4,3,4.4,4.3
		c0,2,2.1,3.5,4,3.6h0.3C667.4,402.9,669.5,399.8,668.8,397.5z" style="fill:#57455E;"/>
	<path d="M606,415.2c-4-9.7-8.7-18.9-14.4-27.8c-2.8-4.3-9.8-0.3-7,4c5.2,8.2,9.8,16.8,13.6,25.8
		C600.2,422.1,608,420.1,606,415.2z" style="fill:#57455E;"/>
	<path d="M580.7,355.8c-2.1-4.4-4.2-8.9-6.3-13.4c-2.1-4.7-9.1-0.5-7,4c2.1,4.4,4.2,8.9,6.3,13.4
		C576,364.5,582.9,360.5,580.7,355.8z" style="fill:#57455E;"/>
	<path d="M577.2,283.4c-8.2,0.3-16.4,1.1-24.4,2.3c-5.1,0.8-3,8.6,2.1,7.8c7.4-1.1,14.9-1.7,22.4-2
		C582.3,291.3,582.3,283.3,577.2,283.4z" style="fill:#57455E;"/>
	<path d="M574.8,298.7c-5.8,0.5-11.5,1.2-17.3,1.7c-5.1,0.5-5.1,8.6,0,8.1c5.8-0.5,11.5-1.2,17.3-1.7
		C579.9,306.2,579.9,298.2,574.8,298.7z" style="fill:#57455E;"/>
	<path d="M576.3,202.3c-2.1,0.1-4,1.7-4,4v0.5c0,2.1,1.9,4.2,4,4c2.1-0.1,4-1.7,4-4v-0.5
		C580.3,204.4,578.5,202.3,576.3,202.3z" style="fill:#57455E;"/>
</g>
</svg>
