<?xml version="1.0" encoding="utf-8"?>
<!-- Generator: Adobe Illustrator 23.0.2, SVG Export Plug-In . SVG Version: 6.00 Build 0)  -->
<svg version="1.1" id="Capa_1" xmlns="http://www.w3.org/2000/svg" xmlns:xlink="http://www.w3.org/1999/xlink" x="0px" y="0px" viewBox="0 0 800 573.2" style="enable-background:new 0 0 800 573.2;" xml:space="preserve">

<g>
	<path d="M743.8,104.2C691.7,51,610.4,25.9,535.2,11.6C452.4-4,365.3-5,283.4,15.4C142.4,50.1,22.1,150.2,2.7,283.4
		c-9.5,65.2,6.2,133.7,50.9,186.8c33,39.1,79.6,69.7,132,84.7h0.1c22.5,8.9,46,13.7,70,14.1c0.7,1.7,2.5,3,5.3,3
		c158.2-7.1,328.9-30.1,445.9-134.9c49.8-44.7,84.1-101.7,91.6-164.7C805.5,212.8,788.5,149.9,743.8,104.2z" style="fill:var(--illu-background);"/>
	<path d="M524.4,374c-11.7,2.7-20.3,18.5-26.1,27.8c-17.9,28.8-41.8,51.5-73.7,63.9c-9.8-26.3-20.8-53.7-36.1-77
		c-14.4-22.1-38.5-22.1-62.5-21.2c-22.6,0.9-47.3,5.2-61.7,24.4c-15.7,21.1-17.9,52.9-18.6,78.2c-0.4,14.7-3.2,58.4,17.6,63.8
		c-1.9,9.4-3.6,18.6-5.5,28c-0.1,0.9-0.1,1.7,0.1,2.6c-0.6,2.5,0.4,5,3.8,5.5c42.3,6.1,84.7,4,126.1-6.2c4.2-1,4.6-5.5,2.6-8.2
		c0-0.1,0-0.3,0-0.4l-1-50.5c10.1,10.2,25.7,15.1,41,12.8c29.9-4.5,51.1-29.3,68.9-51.5c17.3-21.3,35.3-47.3,38.2-75.4
		C538.5,382.2,534.6,371.6,524.4,374z" style="fill:#FFFFFF;"/>
	<path d="M372.5,502c0.1-21.5-1.2-42.8-4-64.2c-2.2-16.3-4.9-32-21.3-39.5c-14.9-6.8-34.3-4-49.6,0.6
		c-15.3,4.6-23.9,16.4-28.6,31.3c-6.3,19.9-8.8,41.7-11,62.5c-1.3,12.5-2.5,25.7,2.2,37.2c1,4.6,2.7,8.8,6.5,12.3
		c11.3,10.2,31,13,45.4,13.7c15.9,0.7,35.5-1.6,49.2-10.5C374.8,536.4,372.4,516,372.5,502z" style="fill:#EF86B0;"/>
	<path d="M385.6,281.1c-5.8-12.4-14.3-27.1-27.1-33.3c-14.1-6.9-33.6-3.5-48.5-1c-29,4.9-60.1,22.1-66.1,53.4
		c-3.3,17.2,2.9,34.2,11.5,48.9c7.1,11.8,17.2,26.3,31.7,27.4c0.6,2,2.2,3.6,4.9,3.6c19.3,0.4,39.1,2,58.3,0.7
		c13.7-0.9,26.5-5.3,35.1-16.7C402.8,340.6,396.9,305.6,385.6,281.1z" style="fill:#B4C7E7;"/>
	<path d="M339.8,314.8c-3.6-7.6-10.1-14.1-19-13.8c-6.1,0.1-11.3,3.3-14.6,7.9c-10,8.5-12.8,24.4-11,37.9
		c2.5,17.5,19,36.5,38.1,26.5c8.7-4.6,11.1-14.1,11.5-23.2C345.4,338.9,344.5,325.3,339.8,314.8z" style="fill:#F7D3BC;"/>
	<path d="M377.8,366c-6.2-4.3-18.3-3-25.4-2.7c-11.3,0.4-22.5,1.4-33.9,2.2c-11.7,0.7-23.4,1.2-35.1,2.3
		c-6.3,0.6-11.5,2.3-12.1,9.2c-0.1,1.9,1.2,3.6,2.6,4.6c12.5,8.1,29.6,4.8,43.6,3.6c15.3-1.3,30.7-3,45.9-5.3c1.9,0,3.9-0.1,5.8-0.1
		c2.9-0.1,6.5,0.1,8.9-1.6C382.7,375.1,382.2,369,377.8,366z" style="fill:#EF86B0;"/>
	<path d="M341.6,337.5c10.5-4.9,12-20.5,12.1-31.4c0-6.5-8.2-6.6-10.4-1.4l-0.4,0.9c-1.6-2.7-3.6-5-6.3-7.1
		c-7.1-5.3-17.3-6.3-25.1-1.9c-19.6,11.3-22.6,41.8-16.2,61c0.3,1,0.9,1.7,1.4,2.2c0.9,2.3,3.2,4,6.2,3.2
		c6.9-1.9,12.1-5.8,16.3-11.5c2.5-3.2,4-7.4,6.6-10.2c3.2-3.5,5.2-1.9,9.8-2.3c0.7,0,1.3-0.1,2-0.3c-3,2.7-2,9.4,3.5,9.4
		C347.8,348,348,337.9,341.6,337.5z" style="fill:var(--illu-background-alt);"/>
	<path d="M276,323.3c-2.7-2.3-6.6-2.9-9.2,0c-0.9,0.9-1.3,2-1.6,3.2c0,0,0,0,0,0.1c-1,2.6-0.7,6.3,0.4,10.2
		c0,0.1,0,0.1,0,0.3c0.1,0.7,0.3,1.3,0.7,1.9c0.9,2.3,2,4.6,3.5,6.6c0.6,0.9,1.2,1.7,1.7,2.6c2.5,3.5,5.6,6.8,10.2,5.9
		c4-0.7,5.8-4.2,5.9-7.9C287.7,338,282.2,328.7,276,323.3z" style="fill:#F7D06F;"/>
	<path d="M312.5,453.9c-2.2-4-6.2-9.5-11.4-9.1c-4,0.3-5.9,4-6.8,7.9c-4.6,8.1-2.5,21.3,1.3,28.7c2,4,5.3,7.8,10.2,6.6
		c1.6-0.4,2.9-1.3,3.8-2.3c4.3-2.5,5.3-8.8,5.9-13.3C316.3,466.1,315.5,459.6,312.5,453.9z" style="fill:#F7D06F;"/>
	<path d="M661.4,293.5c-12.1-5-29.6-2.6-42.3-1.2c-6.9,0.9-22.2-0.3-23.8,8.8c-1,6.2,1.6,15.6,2.3,21.8
		c0,0.3,0,0.4,0.1,0.7c0.3,4.5,0.6,8.8,1.2,13.3c0.7,5.8,0.7,13,3.2,18.2c4.5,9.8,17.9,5.5,26.1,4.5c7.6-0.9,15.1-1.9,22.8-2.7
		c4.3-0.6,10.1-0.3,13.7-3.2c3.3-2.6,3.8-6.5,3.9-10.4c0.3-7.6-0.1-15.3-0.3-22.9C668.2,311.9,671.4,297.6,661.4,293.5z" style="fill:var(--illu-primary);"/>
	<path d="M544.2,398.8c-15.7-12-30.9-20.6-33-42.3c-1.7-18.3,0.4-40.8,13.8-54.8c4.8-4.9-2.7-12.4-7.5-7.5
		c-12.4,13-16.2,30.3-17,47.6c-0.9,18.5,2,36.1,16.2,49.2c13.7,12.7,30,20.8,41.1,36.3c11.5,16.3,17.5,35.5,15.1,55.5
		c0,0.1,0,0.3,0,0.4c-1.6,6.2-1.7,12.4-0.7,18.8c0.4,2.9,3.9,4.5,6.5,3.8c3-0.9,4.2-3.8,3.8-6.5c-0.7-4.6-0.4-9.2,0.9-13.7
		c0.3-0.9,0.3-1.6,0.1-2.2c0-0.1,0.1-0.3,0.1-0.4C587,450.1,569.8,418.4,544.2,398.8z" style="fill:var(--illu-background-alt);"/>
	<path d="M637.9,269.4c-3.3-0.9-7.6,0.3-9.4,3.6c-2.2,4,1,8.2,4.2,10.4c1.4,1,3.9,1,5.3,0c2.7-1.7,4-4.9,3.6-7.8
		C642.1,272.8,640.7,270.1,637.9,269.4z" style="fill:var(--illu-background-alt);"/>
	<path d="M656.2,257.5c-13-9.5-30.6-8.2-42.7,2c-5.2,4.3,2.3,11.8,7.5,7.5c8.8-7.4,20.9-6.9,29.9-0.3
		C656.4,270.8,661.7,261.6,656.2,257.5z" style="fill:var(--illu-background-alt);"/>
	<path d="M661.9,247.6c-12.7-16.7-36.3-21.8-54.2-10c-5.6,3.8-0.3,13,5.3,9.1c12.5-8.4,30.4-6.2,39.7,6.2
		C656.7,258.4,665.9,253.1,661.9,247.6z" style="fill:var(--illu-background-alt);"/>
	<path d="M630,333c-1.2-5.9-2.5-11.8-3.6-17.6c-1.3-6.6-11.5-3.9-10.2,2.9c1.2,5.9,2.5,11.8,3.6,17.6
		C621.2,342.5,631.3,339.8,630,333z" style="fill:var(--illu-background-alt);"/>
	<path d="M649.6,313.4c-0.6-6.8-11.3-6.8-10.7,0c0.6,6.6,1.3,13.3,1.9,19.9c0.6,6.8,11.3,6.8,10.7,0
		C650.8,326.6,650.2,320,649.6,313.4z" style="fill:var(--illu-background-alt);"/>
	<path d="M571,264c-1.4-2.3-4.9-3.5-7.2-1.9c-4,2.6-8.1,5-12.3,7.4c-6.1,3.2-0.7,12.4,5.3,9.1c4.2-2.3,8.4-4.6,12.3-7.4
		C571.4,269.8,572.4,266.6,571,264z" style="fill:var(--illu-background-alt);"/>
	<path d="M573.3,280.9c-4.5,1.4-8.7,3.2-12.8,5.2c-2.6,1.3-3.3,4.9-1.9,7.2c1.6,2.6,4.6,3.2,7.2,1.9
		c3.3-1.6,6.8-3,10.4-4C582.7,289.1,579.9,278.9,573.3,280.9z" style="fill:var(--illu-background-alt);"/>
	<path d="M532.5,372.7c-13.7-9.4-26.1,11.3-32.6,20.3c-10.4,14.7-19.9,30.4-35.3,40.4c-1.6,1-2.3,2.5-2.5,3.9
		c-1,1.9-1.2,4.2,0.9,6.1c9.4,8.9,19.6,16.7,30.7,23.5c2.6,1.6,5.6,0.4,7.2-1.9c11.5-15.4,22.4-31.4,29.9-49.2
		C535.6,404.8,546,381.9,532.5,372.7z" style="fill:var(--illu-primary);"/>
	<path d="M705.9,176.5c-4.3,0.4-8.7,0.9-13,1.4l-1.6-12.5c-0.9-6.6-11.5-6.8-10.7,0l1.7,13.7c-0.4,0-1,0.1-1.4,0.1
		c-6.8,0.7-6.8,11.4,0,10.7c0.9-0.1,1.9-0.1,2.7-0.3l0.7,5.8c0.9,6.6,11.5,6.8,10.7,0l-0.9-6.9c3.9-0.4,7.8-0.9,11.5-1.3
		C712.5,186.3,712.6,175.8,705.9,176.5z" style="fill:#F7D06F;"/>
	<path d="M474.5,225.8c-3.8-0.6-5.5-3.3-4.3-6.9c1.6-4.5-3-7.2-6.6-6.2c-3.8-0.7-8.4,3.5-5.9,7.9c1,1.9,0.6,3.3-0.4,4.2
		c-2.6-0.4-5.3-0.3-7.9,0.7c-5.2,1.9-4.9,8.2,0,10.2c3.2,1.3,6.2,1.4,8.9,0.9c1.7,1.6,2.6,4.5,3,7.4c-0.1,2.9,0.1,5.8,0.4,8.7
		c0,0,0,0,0,0.1l0,0c0,0.4,0.1,1,0.1,1.4c0.9,6.1,10.2,4.3,10.4-1.4c0.1-3.5,0.1-7.2-0.4-10.8c0.4-2.7,1.6-5,4-6.5
		C479.5,233.5,479.1,226.5,474.5,225.8z" style="fill:#F7D06F;"/>
	<path d="M177.6,303c-2.2-0.1-3.3-2.2-2.9-4.2c1.6-6.6-8.7-9.5-10.2-2.9c-0.4,1.7-0.6,3.3-0.4,4.9
		c-1.3,1.2-2.2,2.9-1.9,5c0,0.1,0,0.3,0,0.4c-4.6-0.3-9.5,1.4-13.3,5.9c-2.9,3.2-1.4,7.4,2.3,8.8c5.5,2.3,10.8,1,14.9-2.3
		c-0.4,3.3,0,6.6,1.2,10c1.9,4.9,8.5,5.2,10.2,0c1.4-4.2,1.2-8.1-0.1-11.5c0.7-1.9,2-3.6,3.9-5.2C185.3,308.9,181.8,303.3,177.6,303
		z" style="fill:#F7D06F;"/>
	<path d="M178.6,158.9h-5c-0.1-4.2-0.1-8.2-0.3-12.4c0-6.8-10.7-6.8-10.7,0c0,4.2,0,8.2,0,12.4H152
		c-6.8,0-6.8,10.7,0,10.7h10.7v1.7c0,2.7-1.3,5.2,1.7,5.2c-6.8-0.1-6.8,10.5,0,10.7c5.9,0,8.5-5,8.8-10.4c0.1-2.5,0.3-4.8,0.3-7.2h5
		C185.4,169.6,185.4,158.9,178.6,158.9z" style="fill:#F7D06F;"/>
	<path d="M333.4,73.8c-3.3-0.6-4.9-2.5-4.6-5.9c0.1-2.5-1-3.9-2.7-4.6c-2.9-4.6-11.4-1.7-9.5,4.2
		c1.4,4.6,0.3,9.5-2.9,12.7c-3.8,0.4-7.1,2.3-8.8,5.9c-1.7,3.9,1.2,9.2,6.1,7.8c1.9-0.6,3.8-1.4,5.3-2.5c0.9,1.3,1.6,3.8,2.2,5.8
		c0.1,1,0.4,2,0.7,3c2.2,6.6,11.1,3.8,10.2-2.9c-0.1-1.2-0.3-2.3-0.6-3.5c-0.1-4.3,1.9-8.2,5.9-10.5C338.3,81.3,338,74.6,333.4,73.8
		z" style="fill:#F7D06F;"/>
	<path d="M508.7,81.4c-3,0.6-5-0.7-5.9-2.7c0.6-2.3,1-4.6,1.2-7.1c1.3-2,0.9-3.9-0.1-5.2c-0.1-0.9-0.3-1.7-0.4-2.6
		c-1.4-6.6-11.7-3.9-10.2,2.9c0.1,0.6,0.3,1.3,0.3,1.9c-1.9,3.3-2.3,6.8-1.7,10c-0.6,1.2-1.3,2.3-2,3.3c-4.5,0.9-8.2,4-9.4,8.8
		c-1.2,4.6,3.6,8.1,7.8,6.1c2-1,3.9-2.3,5.6-3.8c1.2,1,2.3,2.5,2.3,2.6c1.2,2.2,0.9,5.2,0.9,7.5c0,6.9,10,6.6,10.7,0
		c0.6-5.2,2.7-9.2,6.5-12.8C517.9,86.3,513.6,80.6,508.7,81.4z" style="fill:#F7D06F;"/>
	<path d="M341.5,187.3c-0.3,0-1,0.1-1.6,0c0-0.3,0-0.4,0.1-0.7c0.3-8.4-12-8.4-12.3-0.1c-0.1,2,0.4,3.8,1.3,5.3
		c0.1,2,0,3.9-0.6,5.8c-1,0.1-2,0.4-3,0.9c-6.9,3-10.2,12.1-4.5,18c2.2,2.2,5.3,1.7,7.5,0s3.9-3.8,5.5-5.8c0,0,0,0,0.1,0.1
		c0.9,2,2,3.9,3.5,5.6c4.2,4.6,11-1.3,8.4-6.5c-0.7-1.4-1.6-2.7-2.6-4.2c-1-3.3,0.4-7.2,3.2-9.5C351,192.5,346.3,186.3,341.5,187.3z
		" style="fill:#F7D06F;"/>
	<path d="M131.2,412.5c-2.2,1.3-4.9,0.7-5.3-1.2c0-0.4,0-0.9,0-1.2c0-0.4,0.1-0.9,0.4-1.3c2.6-5.5-4.3-10.2-7.9-7.1
		c-2.6,0.6-4.8,3-3.8,6.3c0.9,2.7,0.7,5.5-0.3,7.9c-4.8,1-8.8,4.3-10.2,9.5c-1,3.9,2.6,7.6,6.5,6.5c3.5-1,6.3-2.9,8.8-5.2
		c0.7,0.3,1.3,0.9,1.9,1.3c0.3,0.4,0.6,0.7,0.9,1.2c-0.1,3.8,0.6,7.6,2.5,11.3c2.5,4.8,10,2.3,10-2.7c0-3.3-0.4-6.9-1.6-10.2
		c0.6-2.3,1.7-4.5,3.8-6.1C141.7,417.7,137.2,408.9,131.2,412.5z" style="fill:#F7D06F;"/>
	<path d="M449.2,316c-2.2-1.9-5.3-2.2-7.5,0c-0.6,0.6-1.2,1.2-1.7,1.7c-2,2-2.2,5.6,0,7.5c2.2,1.9,5.3,2.2,7.5,0
		l1.7-1.7C451.3,321.6,451.4,318,449.2,316z" style="fill:#FFFFFF;"/>
	<path d="M579.8,185.4c-6.8,0-6.8,10.7,0,10.7C586.7,196,586.7,185.4,579.8,185.4z" style="fill:#FFFFFF;"/>
	<path d="M422.6,136c-6.8,0-6.8,10.7,0,10.7C429.3,146.5,429.3,136,422.6,136z" style="fill:#FFFFFF;"/>
	<path d="M599.4,397.5c-2.9,0.1-5.3,2.3-5.3,5.3v1.7c0,2.7,2.5,5.5,5.3,5.3c2.9-0.1,5.3-2.3,5.3-5.3v-1.7
		C604.6,400.1,602.1,397.5,599.4,397.5z" style="fill:#FFFFFF;"/>
	<path d="M558.7,342.8c-6.8,0-6.8,10.7,0,10.7C565.5,353.3,565.5,342.8,558.7,342.8z" style="fill:#FFFFFF;"/>
	<path d="M537.5,473.5c-6.8,0-6.8,10.7,0,10.7C544.3,484.2,544.3,473.5,537.5,473.5z" style="fill:#FFFFFF;"/>
	<path d="M602.9,89.9c-6.8,0-6.8,10.7,0,10.7C609.6,100.6,609.6,89.9,602.9,89.9z" style="fill:#FFFFFF;"/>
	<path d="M399.6,31.7h-1.7c-2.7,0-5.5,2.5-5.3,5.3c0.1,2.9,2.3,5.3,5.3,5.3h1.7c2.7,0,5.5-2.5,5.3-5.3
		C404.8,34.1,402.5,31.7,399.6,31.7z" style="fill:#FFFFFF;"/>
	<path d="M231.7,109.4c-2.9,0.1-5.3,2.3-5.3,5.3v1.7c0,2.7,2.5,5.5,5.3,5.3c2.9-0.1,5.3-2.3,5.3-5.3v-1.7
		C236.9,111.9,234.5,109.3,231.7,109.4z" style="fill:#FFFFFF;"/>
	<path d="M258.1,199.6c-6.8,0-6.8,10.7,0,10.7C265,210.1,265,199.6,258.1,199.6z" style="fill:#FFFFFF;"/>
	<path d="M113.2,224.2c-6.8,0-6.8,10.7,0,10.7C120.1,234.9,120.1,224.2,113.2,224.2z" style="fill:#FFFFFF;"/>
	<path d="M206.9,272c-6.8,0-6.8,10.7,0,10.7C213.7,282.6,213.7,272,206.9,272z" style="fill:#FFFFFF;"/>
	<path d="M84.9,335.7c-6.8,0-6.8,10.7,0,10.7C91.8,346.3,91.8,335.7,84.9,335.7z" style="fill:#FFFFFF;"/>
	<path d="M178.6,383.3c-6.8,0-6.8,10.7,0,10.7C185.4,394,185.4,383.3,178.6,383.3z" style="fill:#FFFFFF;"/>
	<path d="M235.2,429.3c-6.8,0-6.8,10.7,0,10.7C242,440,242,429.3,235.2,429.3z" style="fill:#FFFFFF;"/>
	<path d="M157.4,480.5c-6.8,0-6.8,10.7,0,10.7C164.2,491.2,164.2,480.5,157.4,480.5z" style="fill:#FFFFFF;"/>
	<path d="M303,462.5c-2-1.7-5.5-2.5-7.5,0c-13,15.6-34,34.9-55,22.2c-18.5-11.3-25.7-35.9-20.8-56.3
		c4.9-20.5,22.2-38.7,36.5-53.4c6.9-7.2,16.2-13.3,22.2-21.1c4.6-5.9,4.6-12.5-0.1-18.3c-2-2.3-5.5-1.6-7.5,0
		c-0.3,0.3-0.7,0.6-1,0.9c-0.1,0.1-0.4,0.1-0.6,0.3c-22.5,14-38.1,38.1-50.3,61c-12.4,23.2-20.2,51.4-9.7,76.9
		c9.4,22.8,33,39.2,57.7,30.9c11.4-3.9,22.8-10.4,31-19.5C303,480.5,311.5,469.3,303,462.5z" style="fill:var(--illu-background-alt);"/>
	<path d="M563.8,284.8c-3.6-6.8-6.9-15.3-14.1-18.9c-1.9-1-3.9-1.4-5.9-1.6c-1.2-0.7-2.6-1.2-4.2-0.6
		c-13.4,3.8-24.1,15.9-23.9,30.3c0.1,16.6,17.9,19,30.9,17.3c6.3-0.9,15.4-2.6,19.3-8.4C569.7,296.9,566.7,290.3,563.8,284.8z" style="fill:#FFFFFF;"/>
	<path d="M454.3,394c-0.9-3-3.8-4.2-6.5-3.8c-1,0.1-2,0.3-3.2,0.3c-0.1-1.7-0.3-3.3-0.6-5c-0.9-6.6-11.5-6.8-10.7,0
		c0.1,1.6,0.3,3,0.4,4.6c-1.4-0.1-2.9-0.4-4.3-0.9c-6.6-1.6-9.5,8.7-2.9,10.2c2.6,0.6,5.2,1,7.8,1.3c0.1,3.8,0,7.6-0.1,11.4
		c-0.4,6.8,10.2,6.8,10.7,0c0.3-3.8,0.3-7.5,0.1-11.3c1.7-0.1,3.6-0.3,5.3-0.6C453.4,400.2,455,396.6,454.3,394z" style="fill:#F7D06F;"/>
	<path d="M343.5,350.2h-5.8c-2.7,0-5.5,2.5-5.3,5.3c0.1,2.9,2.3,5.3,5.3,5.3h5.8c2.7,0,5.5-2.5,5.3-5.3
		C348.7,352.6,346.5,350.2,343.5,350.2z" style="fill:var(--illu-background-alt);"/>
	<path d="M351.3,454.3c-0.3-21.6,1-44.6-20.5-56.4c-5.9-3.3-11.4,5.9-5.3,9.1c20.8,11.4,15.1,41.3,15.4,61.3
		c0.3,23.5,0.6,46.9,0.9,70.4c0.1,6.8,10.7,6.8,10.7,0C352,510.7,351.6,482.6,351.3,454.3z" style="fill:var(--illu-background-alt);"/>
	<path d="M329.7,512c-17-0.7-34-0.3-51.1,1.2c-6.8,0.6-6.8,11.1,0,10.7c17-1.4,34-1.7,51.1-1.2
		C336.4,522.8,336.4,512.3,329.7,512z" style="fill:var(--illu-background-alt);"/>
	<path d="M316.5,530.3c-7.9,1.2-16,1-23.8-0.4c-6.6-1.2-9.5,9.1-2.9,10.2c10,1.7,19.5,1.7,29.4,0.4
		C326.1,539.5,323.3,529.3,316.5,530.3z" style="fill:var(--illu-background-alt);"/>
	<path d="M397.6,508.4c-3.3-24.1-4.5-48.5-3.3-72.8c0.3-6.8-10.2-6.8-10.7,0c-1.2,24.8,0.1,49.5,3.5,74.1
		c0,0.7,0.1,1.4,0.4,2.2c0.6,1.9,1.9,2.9,3.5,3c0,0,0,0,0.1,0h0.1c0.3,0,0.6,0.1,1,0.1c2.6,0,4.3-1.6,4.9-3.6
		C397.6,510.7,397.7,509.5,397.6,508.4z" style="fill:var(--illu-background-alt);"/>
	<path d="M508.4,445.6c-11.5-6.2-21.8-13.8-30.9-23.2c-4.8-4.9-12.3,2.6-7.5,7.5c9.7,10,20.8,18.3,33,24.8
		C509,457.9,514.4,448.8,508.4,445.6z" style="fill:var(--illu-background-alt);"/>
	<path d="M733.3,310.8c-1,0.3-2,0.4-3,0.7c-1.2-4-2.5-7.9-3.9-11.8c-2-5.2-10.4-2.9-8.4,2.3c1.4,3.8,2.7,7.6,3.9,11.5
		c-2.5,0.6-4.8,1.2-7.2,1.7c-5.5,1.3-3.2,9.7,2.3,8.4c2.3-0.6,4.6-1.2,7.1-1.6c0.7,3.2,1.3,6.3,1.9,9.7c0.9,5.5,9.2,3.2,8.4-2.3
		c-0.4-3.2-1-6.2-1.7-9.2c1.2-0.3,2.2-0.6,3.3-0.7C740.9,317.8,738.6,309.6,733.3,310.8z" style="fill:#F7D06F;"/>
	<path d="M679.9,386.6c-5.6,0-5.6,8.7,0,8.7S685.5,386.6,679.9,386.6z" style="fill:#FFFFFF;"/>
	<path d="M759.2,234.3c-5.6,0-5.6,8.7,0,8.7C764.8,243,764.8,234.3,759.2,234.3z" style="fill:#FFFFFF;"/>
	<path d="M681.5,91.4c-2.3,0.1-4.3,1.9-4.3,4.3v1.6c0,2.3,2,4.5,4.3,4.3c2.3-0.1,4.3-1.9,4.3-4.3v-1.6
		C685.8,93.4,683.8,91.2,681.5,91.4z" style="fill:#FFFFFF;"/>
	<path d="M704.8,248.3c-5.6,0-5.6,8.7,0,8.7C710.3,257,710.5,248.3,704.8,248.3z" style="fill:#FFFFFF;"/>
	<path d="M53.7,253.1c-5.6,0-5.6,8.7,0,8.7C59.2,261.7,59.2,253.1,53.7,253.1z" style="fill:#FFFFFF;"/>
	<path d="M49,388.2c-5.6,0-5.6,8.7,0,8.7S54.6,388.2,49,388.2z" style="fill:#FFFFFF;"/>
</g>
</svg>
