<?xml version="1.0" encoding="utf-8"?>
<!-- Generator: Adobe Illustrator 23.0.2, SVG Export Plug-In . SVG Version: 6.00 Build 0)  -->
<svg version="1.1" id="Capa_1" xmlns="http://www.w3.org/2000/svg" xmlns:xlink="http://www.w3.org/1999/xlink" x="0px" y="0px" viewBox="0 0 800 643.8" style="enable-background:new 0 0 800 643.8;" xml:space="preserve">

<g>
	<path d="M645.3,201.7c-11.4,9.5-22.2,19.6-32.5,30.4c-5.1,5.2-9.8,10.9-14.7,16.3c-6.7,7.4-13.2,8.3-22.2,4.6
		c-12.9-5.2-24.7-10.6-38.7-12.7c-12.4-1.8-24.7-1.5-37,0.5c-0.2-0.2-0.5-0.9-0.5-0.9c0-0.3-0.2-0.6-0.2-0.8c0.3,0.9,0,0,0-0.3
		c0-0.2,0-0.2,0-0.3l0,0c1.1-0.8,2-1.7,2.9-2.6c10.9-11.7,9.7-33.3-0.2-45.3c-5.4-6.6-14-9.2-21.2-7.1c-1.1-0.6-2.6-0.6-4,0.5
		c-13.2,9.4-19,29.3-12,44.3c2.9,6.3,8.1,10.9,14.1,13c-0.3,0.8-0.3,1.7,0,2.6c-20.2,5.5-38.4,15.2-54.8,28.2
		c-3.4,2.6-6,5.1-10.6,5.1c-3.5,0-6.4-1.4-9.5-3.1c-6.1-3.2-11.8-7.4-17.2-11.8c-9.1-7.5-16.4-16.7-25.3-24.4
		c-5.2-4.4-14.6-12.7-21.9-8.7c-8.3,4.4-1.8,14,1.7,19.3c12.1,19.2,29,34.7,46,49.5c8.3,7.4,16.3,15.5,28.4,13.5
		c9.5-1.5,19.2-6.6,27.8-12c-1.4,30.1-2.8,60.3-4.1,90.4c-0.2,2.6,2.1,4.6,4.6,4.6c17.6,0.6,35.1-0.5,52.6-2.9
		c9.2-1.4,18.4-3.1,27.5-5.4c5.4-1.4,12.4-2.5,15.6-7.7c3.5-5.8,1.4-15.2,0.8-21.6c-0.8-9.4-1.7-18.7-2.8-28.1
		c-2-15.5-4.4-30.8-7.7-46c12.6,4.4,24.1,11.7,37.1,14.6c15.3,3.4,28.5-1.7,40-11.8c23.5-20.6,44.3-48.5,45.7-80.7
		C653.4,200.6,648.2,199.4,645.3,201.7z" style="fill:var(--illu-brown--light);"/>
	<path d="M646.2,248.4c-9.2-8.6-18.4-17.2-27.8-25.8c-1.8-1.7-4.8-1.8-6.4,0c-6.4,6.7-13,13.3-19.5,20.1
		c-4.3,4.4-8,7.7-14.4,6.7c-1.4-0.2-2.9-0.5-4.3-0.8c-21.6-11.4-45.6-15.3-69.8-12c-3.2,0.5-4,4.4-2.6,6.9c-4,4.6-9.5,7.2-15.8,7.4
		c-7.8,0.2-11.2-4.9-17.8-7.4c-6.7-2.5-12.4,1.7-17.8,5.2c-7.8,5.2-15.6,10.3-23.5,15.5c-3.5,2.3-8.3,6-12.7,5.1
		c-4.3-0.9-8.7-6-12-8.6c-7.4-6-14.6-12.1-22.1-17.9c-5.2-4.1-10.6-6.4-16.7-2.8c-7.4,4.4-13.7,12.4-19.9,18.4
		c-1.7,1.5-1.8,4.9,0,6.4c17.5,14.3,23.3,37.6,44.9,47.4c15,6.7,32.4,7.1,47.2,0.6c-0.2,26.7-0.3,53.5-0.5,80.2
		c0,3.2,2.9,4.9,5.8,4.4c33.6-5.2,67.3-8.9,101.1-11.2c2.3-0.2,4.8-2,4.6-4.6c-1.5-27.8-4.3-55.4-8.1-83c15.6,8.3,34.7,8.1,51.5,1.7
		c23.2-8.9,40.3-27.8,56.5-45.9C647.7,253.1,648,250.1,646.2,248.4z" style="fill:var(--illu-blue--main);"/>
	<path d="M513.5,175.9c-6-2.8-12.7,0.6-15.2,6.1c-6-4-13.3-5.7-20.2-2.6c-14.7,6.4-15.5,24.9-17.3,38.5
		c-0.5,2.8,1.2,4.9,3.4,5.5c-1.2,2.8,0,6.7,4,6.7c4.8,0,5.7-6,2.8-8.3c2-2,6.9-8,8.4-8.3c1.7-0.3,9.5,5.7,11.5,6.6
		c4.8,2.5,12.3,7.5,17.9,5.1c9.2-3.8,6-19.6,2.3-28.4c1.7-0.2,3.4-0.8,4.8-1.8C522.7,190,521.3,179.4,513.5,175.9z" style="fill:var(--illu-bg--light);"/>
	<path d="M489.9,221.5h-0.5c-2.5,0-4.8,2.1-4.6,4.6s2,4.6,4.6,4.6h0.5c2.5,0,4.8-2.1,4.6-4.6S492.5,221.5,489.9,221.5z" style="fill:var(--illu-bg--light);"/>
	<path d="M485.1,231.1c-2.8,0.2-5.5,0.3-8.3,0.3c-2.5,0.2-4.6,2-4.6,4.6c0,2.5,2.1,4.8,4.6,4.6c2.8-0.2,5.5-0.3,8.3-0.3
		c2.5-0.2,4.6-2,4.6-4.6C489.7,233.3,487.6,231,485.1,231.1z" style="fill:var(--illu-bg--light);"/>
	<path d="M545.1,305.1c-1.4-8.6-2.6-17.2-3.7-25.9c-0.6-5.8-9.8-5.8-9.2,0c1.1,9.5,2.3,18.9,4,28.4
		C537.1,313.3,546,310.9,545.1,305.1z" style="fill:var(--illu-bg--light);"/>
	<path d="M430.5,290.9c-1.5,9.5-2.3,19.2-2.3,28.8c0,6,9.2,6,9.2,0c0-8.9,0.6-17.6,2-26.4
		C440.3,287.7,431.4,285.1,430.5,290.9z" style="fill:var(--illu-bg--light);"/>
</g>
<g>
	<path d="M682.2,322.2c7.1-5.7,10.4-14,11.7-22.9c2.5-18.4-2.6-41.9-21.2-50.2c-18.7-8.3-33.3,5.2-37.6,22.9
		c-4.3,18.6-3.7,41.4,12.7,53.5c0,0.3,0,0.6,0.2,0.8c0.9,4.4,1.8,8.7,2.8,13.2c0.2,0.8,1.7,5.4,1.2,6c-0.3,0.3-2.3,0.5-2.6,0.5
		c-3.8,1.2-7.8,1.4-8.7,6.1c-0.3,2,0.5,4.6,2.9,5.1c14.7,2.6,29.5,3.2,44.2,1.8c3.5-0.3,6.3-5.8,2.1-7.7c-2.3-1.1-6.4-2-8.3-3.7
		c-2.6-2.6-2.3-7.7-2.6-11c-0.3-2.8-1.2-6.4-0.9-9.2C678.6,324.4,680.1,323.9,682.2,322.2z" style="fill:var(--illu-brown--main);"/>
	<path d="M730.1,331.4c-17.8,1.4-18.7-21.8-20.4-34.1c-1.7-12.3-4-25-9.1-36.4c-4.1-9.1-11-17-21-19.3
		c-6-1.4-11.7-0.6-16.6,2.1c-2-4.4-6.3-7.7-11.5-8.4c-9.4-1.2-17.2,6.4-20.4,14.6c-4.6,12-3.2,26.4-5.4,39c-1.2,7.1-2.8,14-4.6,20.9
		c-0.5,1.4-1.1,4.8-2,8.1c-2,3.8-4.1,7.5-6.4,11c-2.3,1.1-3.8,4.3-1.7,6.9c0.2,0.2,0.3,0.3,0.5,0.6l0.2,0.2
		c10.6,10.9,31,8.9,38.4-4.9c5.1-9.7,3.5-22.4,5.7-33c2-9.7,5.1-18.9,9.2-27.6c2.8,10.1,6,20.2,9.5,30.2c4,11,8,22.9,15,32.4
		c10.4,13.7,32.5,20.6,44,4.1C735.5,335.3,733.2,331.3,730.1,331.4z" style="fill:var(--illu-bg--light);"/>
</g>
<g>
	<path d="M243.7,267c-1.1-18.7-2.3-37.4-3.8-56.1c-0.5-5.7,0-12.9-4-17.5c-3.4-4-8.6-4.8-13-2.3c-2.3,1.2-2.6,3.4-2,5.4
		c-0.6,0.8-0.9,1.7-0.9,2.8c0.3,37.7,1.4,75.6,3.2,113.4c0.9,18.6,1.7,37.3,3.2,55.8c0.8,9.8,7.2,24.1,19.5,16.7
		c1.4-0.8,2.3-2.3,2.3-4C247.3,343.1,245.8,305.1,243.7,267z" style="fill:var(--illu-bg--main);"/>
	<path d="M769.1,262.1c-1.1-18.7-2.3-37.4-3.8-56.1c-0.5-5.7,0-12.9-4-17.5c-3.4-4-8.6-4.8-13-2.3
		c-2.3,1.2-2.6,3.4-2,5.4c-0.6,0.8-0.9,1.7-0.9,2.8c0.3,37.7,1.4,75.6,3.2,113.4c0.9,18.6,1.7,37.3,3.2,55.8
		c0.8,9.8,7.2,24.1,19.5,16.7c1.4-0.8,2.3-2.3,2.3-4C772.8,338.2,771.2,300.1,769.1,262.1z" style="fill:var(--illu-bg--main);"/>
	<path d="M788.1,42.6C632.2-0.1,470.9-9.4,312.7,15.9c-39.7,6.3-82.4,11.4-119.8,30.8c-16.4,1.2-6.6,28.1-3.4,38.7
		c2.3,7.8,4.6,15.6,6.7,23.6c6,33,12.1,65.8,18.1,98.8c0.6,2.9,3.4,4.9,5.7,4c138.8-55.5,287.9-69,431.7-39
		c40.8,8.6,81,20.6,120.4,35.9c3.1,1.2,5.5-2,5.8-5.5c4.4-51.5,9.1-103.2,13.5-154.8C791.8,45.8,789.9,43,788.1,42.6z" style="fill:var(--illu-blue--light);"/>
	<path d="M783.2,373.3c0-1.8-1.4-4.1-3.4-4.4c-141.9-24.5-284.9,2.9-427.1,9.1c-40.8,1.7-81.8,2.1-122.7,1.8
		c-0.2,0-0.2,0-0.3,0c-0.8-0.6-1.7-0.9-2.9-0.8c-16.1,1.7-10.3,26.8-9.8,37.3c0.9,21.3,2,42.8,3.1,64.1c1.1,22.4,2.3,44.8,3.7,67.2
		c0.6,10.1,1.2,20.4,1.8,30.5c0.6,9.8-0.5,21.6,2.1,31.1c2,7.5,9.7,8.1,16.1,9.1c10.6,1.2,21.2,0.8,31.8,0
		c20.9-1.5,41.7-2.9,62.7-3.4c43.1-1.1,86.4-0.2,129.5,0c18.6,0,37.1-0.2,55.5-0.6c50,2,100.2,1.7,150.3,0.3
		c40.3-1.1,80.7-2.9,121-4.6c2.3-0.2,4.9-2,4.6-4.6C790.2,528.1,784.9,450.8,783.2,373.3z" style="fill:var(--illu-red--light);"/>
</g>
<g>
	<path d="M385.6,357.2c1.4-1.7,2.1-3.7,2.3-6c0.2-4.8-3.2-7.8-7.7-8.7c-8-1.7-17.3-0.9-25.6-1.4
		c-9.2-0.5-18.6-0.8-27.8-1.1c-8.6-0.3-17.3-0.9-26.1-0.5c-5.8,0.3-14.4,0.2-19.2,4.1c-3.5,2.9-4,8-1.8,11.8c0.6,0.9,1.2,1.8,2,2.6
		c-3.2,2.1-5.7,5.1-5.7,9.1c-0.2,6.7,4.8,10.1,10.4,11.4c0.6,0.6,1.5,0.9,2.8,0.9c27-0.2,54.2,0.2,81.2-0.6
		c7.5-0.2,17.3-2.9,20.9-10.4C393.8,362.9,390.2,359.5,385.6,357.2z" style="fill:var(--illu-blue--light);"/>
	<path d="M387.6,353.8c-35.6,6.6-71.9,3.2-107.7-0.3c-5.8-0.6-5.8,8.6,0,9.2c36.7,3.7,73.6,6.9,110.1,0
		C395.8,361.5,393.4,352.8,387.6,353.8z" style="fill:var(--illu-bg--light);"/>
</g>
<g>
	<path d="M737.3,472.3c-56.1,5.5-112.3,9.5-168.6,12.1c-5.8,0.3-6,9.5,0,9.2c56.3-2.6,112.6-6.6,168.6-12.1
		C743.1,480.9,743.1,471.7,737.3,472.3z" style="fill:var(--illu-bg--light);"/>
	<path d="M735.9,495.9c-52.6,9.2-105.8,12.3-159.2,9.5c-6-0.3-5.8,8.9,0,9.2c54.2,2.8,108.3-0.6,161.7-9.8
		C744.2,503.7,741.8,494.8,735.9,495.9z" style="fill:var(--illu-bg--light);"/>
	<path d="M738.1,518c-52,7.7-104.5,11.4-157.1,11c-6,0-6,9.2,0,9.2c53.4,0.3,106.8-3.5,159.5-11.4
		C746.4,526.1,743.8,517.2,738.1,518z" style="fill:var(--illu-bg--light);"/>
	<path d="M597.4,442.2c-1.2-8.3-2.8-16.4-4.9-24.5c-1.5-5.7-10.4-3.4-8.9,2.5c2.1,8.1,3.7,16.3,4.9,24.5
		C589.4,450.5,598.3,447.9,597.4,442.2z" style="fill:var(--illu-yellow--main);"/>
	<path d="M553.2,456.9c-2-7.1-5.7-13.3-10.9-18.6c-4.3-4.1-10.7,2.3-6.4,6.4c4.1,4.1,7.1,8.9,8.6,14.6
		C545.9,465.1,554.8,462.6,553.2,456.9z" style="fill:var(--illu-yellow--main);"/>
	<path d="M534.2,482.4c-5.8,1.4-11.5,2.8-17.3,4.1c-5.8,1.4-3.4,10.3,2.5,8.9c5.8-1.4,11.5-2.8,17.3-4.1
		C542.5,489.9,540,481,534.2,482.4z" style="fill:var(--illu-yellow--main);"/>
	<path d="M543,518.7c-1.4-2.3-4-2.8-6.3-1.7c-4.4,2-8.7,4-13.2,6c-2.3,1.1-2.8,4.3-1.7,6.3c1.4,2.3,4,2.8,6.3,1.7
		c4.4-2,8.7-4,13.2-6C543.6,524.1,544.2,520.7,543,518.7z" style="fill:var(--illu-yellow--main);"/>
</g>
<g>
	<path d="M401.2,445c-4.9-1.1-8.7-3.4-14-2.3c-4.3,0.9-7.8,3.5-11,6.3c-4.4,4-8.6,9.2-14.9,10.3l0,0
		c-1.7,0.2-3.4,0-5.1-0.2c-0.5-0.2-0.9-0.5-1.4-0.6c-4.3-2.1-8.3-4.8-12.6-6.9c-0.5-0.2-0.8-0.3-1.1-0.3c-1.4-0.6-2.9-0.3-4.1,0.3
		c-10.4,5.5-20.7,11.7-30.4,18.4c-6,4.1-10.9,8-7.4,14.6c0.2,2.5,1.1,5.1,2.3,8.3c2.6,6.1,5.8,19.6,14.3,19.9
		c5.7,0.3,11.8-2.9,17-6.7c-0.9,12.1-0.6,24.2,1.4,36.4c0.6,4.3,0.8,12.6,5.1,15.2c4.8,2.9,13-1.4,17.6-2.6c8-2.1,16-4.3,24.1-6.3
		c5.7-1.5,13.7-2.1,16.3-8.4c2.6-6.1,0-15-0.6-21.5c-0.8-7.7-1.5-15.3-2.1-23c8.9-0.5,17.6-0.9,26.5-1.5c2.3-0.2,3.8-2.1,3.8-4.4
		c0-6.7,0-13.5-0.3-20.2c-0.2-5.7,0.3-12.7-1.7-18.1C419,441.3,409,446.6,401.2,445z" style="fill:var(--illu-blue--light);"/>
	<path d="M389.2,474.3c-6.7,0-13.3,1.2-19.6,3.7c-3.1,1.1-3.5,4.3-2.3,6.6c0.5,8.1,4.4,19.2,14.7,16.9
		c10.1-2.3,10-13.5,12.1-21.5C394.9,476.7,392.2,474.3,389.2,474.3z M381.7,491.1c-3.4,3.8-4.8-2.1-5.1-5.8c2.5-0.8,5.1-1.2,7.7-1.5
		C383.9,486.5,383.4,489.3,381.7,491.1z" style="fill:var(--illu-bg--light);"/>
</g>
<g>
	<g>
		<path d="M184.3,300.8c-2.1-16.7-3.5-35.3-14-49.2c-7.8-10.6-20.2-17.3-33.3-15.6c0.9-0.6,1.8-1.2,2.8-2
			c10.3-8.7,12.1-30.2,5.4-41.6c-5.5-9.4-17-10.1-24.1-4.6c-9.4,5.1-11.5,21-10.1,31.1c1.1,7.8,6,14.9,12.4,17.8v2.5
			c-15-0.6-25.8,10.7-31.9,23.3c-8.1,16.9-14.3,35-21.2,52.5c-14.4,37.1-28.4,74.4-41.7,112c-0.8,2.1,0.9,4.4,2.9,5.1
			c11,3.2,19-6.1,24.4-14.4c8-12.1,15.8-24.2,23-36.8c9.1-15.6,17-31.9,22.9-48.9c2.6,92.2,4.6,184.4,2.1,276.6
			c-0.2,5.1-1.2,11,0.3,16.1c1.4,4.4,5.4,6.4,9.4,8.3c11.4,5.1,23.5,7.7,36,8.1c3.4,0.2,5.8-4.8,2.9-7.1c-4.3-3.4-2.6-6.4-6-10.4
			c10.1,3.2,14.7,5.2,25.2,7.1c2.8,0.5,4.9-1.1,5.2-4c0.8-9.4-7.1-13.8-14.1-17.8c-10.9-6.3-8.4-19.3-8.1-30.2
			c0.8-23.5,3.7-46.8,7.1-70.1c4.9-34.1,10.9-68.3,12.7-102.8c0.9,4,2,7.8,3.4,11.5c2.9,8.3,10,14.9,19.2,12.1
			c1.5-0.5,3.2-2.1,3.1-4C194.6,384.1,189.4,342.5,184.3,300.8z" style="fill:var(--illu-brown--light);"/>
		<path d="M200.9,381.1c-2.3-24.9-4.9-49.9-9.7-74.6c-2.5-12.4-5.5-24.9-9.4-37c-3.1-9.4-6.3-19.3-13.5-26.5
			c-6-6-15-9.4-23.3-7.2c-4,1.1-6.7,3.5-9.7,6.3c-3.2,3.1-5.8,5.5-10.1,2.1c-2.3-1.8-4-4.4-5.5-6.7c-0.9-1.4-2.9-2.6-4.6-1.8
			c-11.4,4.6-17.3,14.6-23,25c-7.8,14.6-15.2,29.5-22.1,44.6c-13.5,29.3-25.2,59.5-35,90.2c-0.3,1.1-0.3,2,0,2.6
			c-0.2,1.4,0.5,2.6,2.1,3.4c7.5,3.7,14.9,7.2,22.4,10.9c2.1,1.1,4.3,0.5,5.7-1.5c11.4-16.4,22.9-32.8,34.2-49.1
			c-1.2,24.4-2.5,48.8-3.7,73.2c-0.8,13.7-1.4,27.3-2.1,41c-0.5,10.3,0.2,17.9,11.8,19.3c14,1.7,28.1,2,42.2,1.4
			c7.8-0.3,23.2,1.2,28.5-5.7c3.1-3.8,2.6-9.5,2.9-14.1c0.5-7.2,0.9-14.3,1.4-21.5c0.9-12.6,1.7-25.3,2.6-37.9
			c5.4,0.3,10.4-2.1,14-6.6C203.6,402.5,201.8,391,200.9,381.1z" style="fill:var(--illu-yellow--main);"/>
		<path d="M64.9,503.7c-2-14.3-4.1-28.4-6.6-42.6c-1.2-6.7-4.9-14.1-11.4-15.3c2.3-8.1-2.3-17.6-11-19.9
			c-12.7-3.2-14,13-12.6,22.6c-4.6-0.3-8.7,0.3-11.7,5.2c-2.1,3.7-2.5,8.1-3.1,12.3C7.9,471,7,476.1,6.2,481.3
			c-1.8,11.2-3.7,22.4-5.4,33.6c-0.5,2.8,1.1,5.1,4,5.2c13.2,0.8,26.5,0,39.6-2.3c5.4-0.9,12.9-1.4,17.6-4.3
			C65.9,511.5,65.6,507.7,64.9,503.7z M37.6,436.5c4.4,5.5,0.2,11.8-5.8,12.4C31,445.6,30.3,427.6,37.6,436.5z" style="fill:var(--illu-blue--main);"/>
		<path d="M166.2,607.3c-1.8-1.4-4.4-0.2-5.7,1.5c-2.8,4.1-5.1,11.8-10.7,8.3c-5.1-3.2-9.5-8.1-14-12.1
			c-0.9-0.8,0.2-1.7-1.1-1.7c0.5,2.9-1.1,6.4,0,9.2c0.3,0.9,2.5,6,3.5,5.8c4.9-1.1,7.1,6.6,2.1,7.7c-3.7,0.8-6.7-0.6-9.1-3.2
			c-2-1.1-3.8-2.3-5.7-3.4c-5.5-3.2-10.7-6.9-15.8-10.7c-1.8-1.4-4.8-0.3-5.7,1.7c-1.1,0.6-1.8,1.7-2,3.2
			c-0.8,6.7-5.2,20.1,0.9,25.3c4.1,3.5,7.5,1.5,9.8-1.5c7.4,2.1,14.7,3.8,22.2,5.1c7.4,1.2,14.7,2.5,21.9,0c2.1-0.8,4.1-3.8,2.5-6
			c-1.5-2-3.4-4.4-5.5-6.7c3.8,0.8,7.7,1.7,11.4,2.5c4.6,0.9,10.3,2.5,13.8-2C185.5,621.8,171.6,611.2,166.2,607.3z" style="fill:var(--illu-blue--light);"/>
		<path d="M196.1,415.2c-0.3-6.7,2.8-34.8-10.4-32.5c-1.2-15.5-2.8-31-4.8-46.5c-4.3-33.7-6.6-70.1-19.5-102
			c-2-4.9-10-2.8-8,2.1c6.1,15.3,9.5,31.4,12,47.7c2.8,18.1,5.2,36.4,7.5,54.6c4.4,35.7,7.1,71.6,6.4,107.8c0,2.3,2,4.1,4.1,4.1
			C201.3,450.9,196.6,426.1,196.1,415.2z" style="fill:var(--illu-blue--light);"/>
		<path d="M101.5,300.6c-0.9,24.5-3.1,49.1-6.4,73.5c-0.8,5.8,8.1,8.3,8.9,2.5c3.5-25.2,5.8-50.5,6.7-75.9
			C111,294.8,101.8,294.8,101.5,300.6z" style="fill:var(--illu-bg--light);"/>
		<path d="M40.7,470.3c-7.5,0.6-15.2,1.2-22.7,1.8c-5.8,0.5-6,9.7,0,9.2c7.5-0.6,15.2-1.2,22.7-1.8
			C46.5,479,46.7,469.8,40.7,470.3z" style="fill:var(--illu-bg--light);"/>
		<path d="M33.5,490.5c-6.4,1.2-12.9,1.4-19.5,0.9c-6-0.5-5.8,8.7,0,9.2c7.4,0.6,14.6,0.2,21.9-1.2
			C41.8,498.3,39.3,489.4,33.5,490.5z" style="fill:var(--illu-bg--light);"/>
		<path d="M61.3,512.2c0-0.5-0.2-0.8-0.2-1.2c-2-18.9-4-37.9-6-56.8c-0.6-5.8-9.8-5.8-9.2,0c2.1,19.9,4.3,39.9,6.3,59.8
			c0.6,5.8,9.5,6,9.2,0C61.4,513.4,61.4,512.8,61.3,512.2z" style="fill:var(--illu-bg--light);"/>
		<path d="M198.7,405.4c-0.2-2.5-2-4.8-4.6-4.6c-2.8,0.2-5.1,1.4-6.6,3.7c-1.4,2-0.5,5.2,1.7,6.3c2,1.1,4.3,0.6,5.7-0.9
			C197,409.4,198.9,407.7,198.7,405.4z" style="fill:var(--illu-bg--light);"/>
		<path d="M149.2,188c-14.4-19-41.1-6.7-48.8,11.8c-2,4.9-3.1,10.3-3.4,15.5c-0.5,6.6,1.7,14.9-1.5,21
			c-2.6,4.9-8.3,7.7-11.4,12.4c-3.1,4.9-4.6,10.6-5.4,16.3c-1.4,10.1,0.9,19.6,10,25.5c9.1,5.8,21.3,4.9,30.4-0.8
			c11.2-7.1,13.8-17.9,9.7-29.9c-1.5-4.6-2.8-7.8-2.1-12.9c0.5-3.5,1.2-6.4,0.9-10c-0.5-4.6-2.1-8.9-4.3-13c0.9,0.9,2,1.5,3.4,1.5
			c2.5-0.2,4.6-2,4.6-4.6v-0.3c0-1.5-0.9-3.1-2.1-3.8c1.7-1.5,3.2-3.1,4.6-4.9c2.5,1.8,5.2,3.8,8.1,4.9c-2,2.6-0.8,7.5,3.5,7.5
			c3.8,0,5.2-3.8,4-6.6c1.4-0.3,2.6-1.1,3.7-2.5C158.7,208.4,153.9,194.1,149.2,188z" style="fill:var(--illu-bg--light);"/>
		<path d="M141.2,224.5c-2.3,0.2-4.4,0.3-6.7,0.5c-2.5,0.2-4.8,2-4.6,4.6c0.2,2.3,2,4.8,4.6,4.6
			c2.3-0.2,4.4-0.3,6.7-0.5c2.5-0.2,4.8-2,4.6-4.6C145.6,226.8,143.8,224.4,141.2,224.5z" style="fill:var(--illu-bg--light);"/>
	</g>
	<path d="M164,629.5c-7.1-5.8-20.4-12.9-21.3-22.4c-1.1-11.5-1.5-23.2-1.8-34.8c-0.9-23.2-0.9-46.5-0.2-69.6
		c0.2-6-9.1-6-9.2,0c-0.9,26.2-0.8,52.5,0.5,78.7c0.3,6,0.6,12.1,1.1,18.1c0.3,4.9,0,11,2,15.8c1.5,3.7,4.6,5.8,7.5,8.3
		c5.1,4.1,10,8.3,15,12.4C162.1,639.8,168.7,633.3,164,629.5z" style="fill:var(--illu-bg--light);"/>
</g>
<g>
	<path d="M352.1,75.6c-3.5-5.4-7.1-10.6-10.6-15.8c-2.5-3.7-4.8-8-8.1-10.9c-5.8-5.1-13.3-4.1-18.7,1.1
		c-6.6,6.3-11.4,15.5-16.1,23.8c-6.4-8-15.2-14.6-25.8-9.5c-5.7,2.8-9.8,8.1-13,13.5c-4.9,8.1-9.1,16.6-13.7,24.9
		c-1.2,2.1-0.3,4.1,1.2,5.4c0,0.9,0.5,1.8,1.4,2.6c8.3,6.9,18.1,10.6,28.1,14.3c10.4,3.8,21.5,7.2,32.7,6.1
		c19.3-1.8,31.6-17.3,40.3-33.1c2-3.7,5.2-8,5.7-12.3C356.4,81.7,354.1,78.6,352.1,75.6z" style="fill:var(--illu-red--light);"/>
	<path d="M352,73.6c-32.8,13.5-67.3,22.7-102.6,26.8c-5.8,0.8-5.8,10,0,9.2c36.2-4.3,71.3-13.3,105.1-27.2
		C359.9,80.2,357.5,71.3,352,73.6z" style="fill:var(--illu-bg--light);"/>
</g>
<g>
	<path d="M577,28.3c-58.6,1.2-117.5,0.6-176,5.7c-5.2,0.5-5.4,8.7,0,8.3c58.4-5.1,117.4-4.4,176-5.7
		C582.2,36.4,582.2,28.2,577,28.3z" style="fill:var(--illu-bg--light);"/>
	<path d="M581.2,53.2c-28.4,1.7-56.8,3.2-85,4.9c-28.5,1.7-57.2,3.7-85.6-1.4c-5.2-0.9-7.4,7.1-2.1,8
		c28.2,5.1,56.6,3.4,85,1.8c29.3-1.7,58.4-3.4,87.7-5.1C586.4,61.1,586.4,52.9,581.2,53.2z" style="fill:var(--illu-bg--light);"/>
	<path d="M582.2,105.9c-26.5,0.8-53.1,1.4-79.6,2.1c-26.1,0.8-52.5,2.6-78.5,1.1c-5.4-0.3-5.2,8,0,8.3
		c26.1,1.5,52.5-0.5,78.5-1.1c26.5-0.8,53.1-1.4,79.6-2.1C587.6,114.1,587.6,105.9,582.2,105.9z" style="fill:var(--illu-bg--light);"/>
	<path d="M576.9,78c-51.7-1.5-103.4,0.8-154.8,6.9c-5.8,0.6-5.8,10,0,9.2c51.4-6.1,103.1-8.4,154.8-6.9
		C582.7,87.4,582.7,78.2,576.9,78z" style="fill:var(--illu-bg--light);"/>
</g>
<g>
	<path d="M755.1,67.7c-4.3-2.6-7.2-6.1-12.4-6.9c-4.3-0.6-8.4,0.8-12.4,2.5c-5.5,2.3-11.2,5.8-17.5,4.9l0,0
		c-1.7-0.5-3.2-1.1-4.6-1.8c-0.3-0.3-0.8-0.6-1.1-1.1c-3.4-3.4-6.3-7.2-9.7-10.6c-0.3-0.3-0.6-0.6-0.9-0.8c-1.1-1.1-2.6-1.2-4-1.1
		c-11.7,1.8-23.3,4.1-34.7,7.4c-7.1,2-12.9,4-11.8,11.4c-0.6,2.3-0.8,5.1-0.5,8.6c0.5,6.6-0.9,20.4,6.9,23.5
		c5.2,2.1,12.1,1.1,18.3-0.8c-4.8,11.2-8.4,22.7-10.6,34.7c-0.8,4.3-3.4,12.1-0.2,16.1c3.5,4.3,12.7,3.1,17.5,3.4
		c8.3,0.6,16.6,1.2,24.9,1.8c5.8,0.5,13.7,2.5,18.1-2.6c4.4-4.9,4.9-14.3,6.4-20.4c1.8-7.5,3.7-15,5.5-22.4c8.6,2.5,17,4.9,25.6,7.4
		c2.3,0.6,4.3-0.8,5.1-2.9c2.3-6.3,4.4-12.7,6.3-19.2c1.7-5.5,4.6-12,4.3-17.6C773.2,70,762,71.7,755.1,67.7z" style="fill:var(--illu-yellow--main);"/>
	<path d="M734.2,91.4c-6.4-2.1-13-3.2-19.8-3.1c-3.2,0-4.8,2.9-4.4,5.4c-2.3,7.8-2.1,19.5,8.4,20.7
		c10.4,1.2,13.8-9.5,18.4-16.3C738.9,95.5,736.9,92.3,734.2,91.4z M721.5,104.9c-4.4,2.5-3.7-3.5-2.9-7.2c2.6,0.2,5.2,0.5,7.7,1.1
		C725,101.2,723.7,103.6,721.5,104.9z" style="fill:var(--illu-bg--light);"/>
</g>
</svg>
