<?xml version="1.0" encoding="utf-8"?>
<!-- Generator: Adobe Illustrator 23.0.2, SVG Export Plug-In . SVG Version: 6.00 Build 0)  -->
<svg version="1.1" id="Capa_1" xmlns="http://www.w3.org/2000/svg" xmlns:xlink="http://www.w3.org/1999/xlink" x="0px" y="0px" viewBox="0 0 800 577.7" style="enable-background:new 0 0 800 577.7;" xml:space="preserve">

<g>
	<g>
		<path d="M790.5,221.5C751.7,95.6,613.8,25.7,483.4,6c-136.7-20.8-282,11.7-381,105.2c-43.2,40.7-76.2,91.4-92.4,146.9
			C-7.2,317.1-6.5,389.6,46.3,433.4c8.4,7,17.7,12.5,27.6,17c-1.1,3.2,0.1,7,4.7,7.7c158.6,25.4,321,26.3,479.7,2.4
			c38.4-5.8,77-12.5,114.6-21.8c32.5-8,64.3-20.2,86.7-44.6C802.6,347.2,808,278.7,790.5,221.5z" style="fill:var(--illu-bg--main);"/>
		<path d="M518.1,302.8c-4.9-15.2-16.5-34-34.8-31.7c-3.5,0.4-4.6,4.3-3.4,6.5c0.4,1.1,1.2,1.9,2.4,2.4
			c16.6,6.9,31.8,28.7,16.6,44.8c-4.3,4.6-15.6,4.9-16.7,11.9c-1.2,7.7,7.7,8.4,12.8,6.2C511.2,336.2,523.9,321.3,518.1,302.8z" style="fill:var(--illu-bg--light);"/>
		<path d="M775.1,415.3c-45.6-37.2-116.9-55.3-182.6-62.8c-79.2-9-161.8-7.1-241.4-1.9c-77.9,5.1-156,17.7-219.8,51.9
			c-22.1,6.1-43.7,12.9-63.8,21.6C41.8,435.1,16,450.4,4.9,471.3c-10.1,19-4,39.8,14,55c19.8,16.7,50.2,25.8,78.8,31.8
			c40.3,8.6,81.9,13.9,123.5,16.9c83.3,5.9,167.4,1.5,249.9-8.1c43.2-5,85.9-11.5,128.4-18.7c39-6.7,78.9-12.9,116.7-22.8
			c32.4-8.4,63.5-22.3,77.7-46.1C807.5,456.3,797.1,433.3,775.1,415.3z" style="fill:var(--illu-blue--light);"/>
		<path d="M485.2,308.6c-1.9-1.6-3.8-2.4-5.7-2.8c-0.4-0.1-0.8-0.4-1.2-0.5c-6.9-2.4-13.8,1.9-17.4,7.7
			c-5,8-3.4,18.5-2.8,27.4c0.4,5.8,0.8,11.5,1.5,17.3c0.5,4.5,0.7,9.6,2.4,13.6c0.5,1.2,2.2,2,3.5,2c7.3,0.1,18.7-3.8,22.9-10.2
			c5-7.8,5.9-19.7,5.8-28.6C494.1,325.6,492.2,314.6,485.2,308.6z" style="fill:var(--illu-red--light);"/>
		<path d="M479.9,259.6c-7.8-17.4-29.7-28.5-47.9-29.9c-19.7-1.6-39.5,8.2-47.9,26.6c-9.2,20-2.2,42.6,15.2,55.4
			c0.4,1.5,1.6,2.7,3.6,2.6c13.5-0.4,26.8-0.8,40.3-1.3c8.8-0.3,17.9-0.9,25.9-5C486.4,299.3,486.9,275.2,479.9,259.6z" style="fill:var(--illu-blue--light);"/>
		<path d="M509.1,367.8l-17.3,15.9c-3.6,3.4-9.7,11.1-15.5,12.8c8.1-24.9,7.1-52.5-3.1-76.7
			c-4.7-11.2-10.8-17-23.3-17.4c-16-0.5-32.2,1.1-48.1,3.8c-2.7,0.4-3.4,2.8-2.7,4.9c-0.1,0.1-0.1,0.4-0.3,0.5
			c-8.1,22.5-13.8,45.9-16.6,69.6c-1.1,9-4,21.3,2.2,29.1c5.7,7.3,16.3,8.1,24.7,8.4c12.3,0.4,24.4-1.9,36.5-3.9
			c12.1-1.9,24.5-3.1,36.4-6.2c18.5-4.9,31.4-19,33.9-38C516.5,367,511.3,365.8,509.1,367.8z" style="fill:var(--illu-white--light);"/>
		<path d="M460.4,262.3c-0.7-3.4-5.9-4-7.4-0.9c-2.2,4.3-4.3,11.6-7.6,15.2c-1.9,2.2-2.7,1.8-5.9,1.6c-2.4,0-5,0-7.4,0
			c-1.1,0-6.5,0.5-7.4,0c-1.2-0.8-2.2-4.2-2.8-5.5c-2.2-4.7-4.9-9.2-8-13.4c-1.9-2.7-6.5-2.7-7.4,0.9c-3.6,13.8-4.9,27.6-3.5,41.8
			c0.3,2.4,2.2,3.8,4,3.9c0.3,0.3,0.7,0.5,1.1,0.8c7.4,3.8,16.2,1.9,24.1,0.9c9.3-1.2,18.3-3.1,27.4-5.7c1.8-0.5,2.8-2.2,3-3.9
			C463.5,285.9,462.7,274.1,460.4,262.3z" style="fill:var(--illu-bg--main);"/>
		<path d="M625.6,181.1c-15.8-14.2-39-17.7-58.7-10.1c-22.5,8.6-37.1,29.5-38.6,53.4c-3,3.9-5.4,8-7.1,12.7
			c-0.9,2.4,1.5,5.3,3.9,5.1c4.5-0.1,9.2-4.9,13.4-3.4c2.2,0.8,4.5,3.1,6.3,4.2c3,1.8,5.9,3.2,9,4.6c11.1,5,23.1,10,34.9,12.1
			c20.2,3.8,40.3-4.7,49.1-24C646.3,217.2,640.5,194.6,625.6,181.1z" style="fill:var(--illu-white--light);"/>
		<path d="M614,209.5c-0.8-5-4-9.6-8.5-12c-0.7-0.9-1.6-1.6-3-1.8c-1.6-0.1-3.2-0.1-4.9,0c-0.1,0-0.3,0-0.4,0
			c-1.2,0.1-2.3,0.4-3.4,0.9c-12.5,4.6-18.2,21.8-5.8,31.7C601.6,239.1,619.5,223.8,614,209.5z" style="fill:var(--illu-blue--light);"/>
		<path d="M604.7,210.5c0.1-1.1-0.1-2.2-1.3-3.1c-9.4-7.7-26.2-2.3-36.7,3.4c-2.8-3.8-6.3-6.7-10.8-8.8
			c-3.6-1.6-7.6,1.8-5.5,5.5c2.3,4.6,5.7,8.1,9.3,11.5c-1.5,2.3-2.6,4.6-3.4,7.4c-0.9,3.1,3,6.7,5.9,4.6c2.6-1.9,4.6-3.9,6.5-6.3
			c5.5,2,11.2,2.7,17.1,1.8c6.2-0.9,15.5-4,18.5-10C605.8,213.8,605.6,211.9,604.7,210.5z" style="fill:var(--illu-blue--main);"/>
		<path d="M398.5,303c-1.3,0.3-2.2,1.1-2.6,1.9c-0.4,0.3-0.9,0.5-1.3,0.8c-2.3,1.6-2.6,4.2-0.8,6.3
			c3.6,4.5,9.7,4.5,15,5c8.8,0.8,17.5,1.3,26.3,1.3s17.5-0.4,26.3-1.3c4.5-0.4,11.6-0.5,13.4-5.8C480.5,294.1,407.1,300.8,398.5,303
			z" style="fill:var(--illu-red--light);"/>
		<path d="M459.8,392.1c-1.1-8.9-1.9-17.8-3.1-26.7c-0.9-6.6-4-9.7-10.8-10.8c-9-1.3-18.2-2-27.2-2.8
			c-19.3-1.8-38.4-3.4-57.7-4.6c-1.3-0.1-2.3,0.4-3,1.2c-0.4,0.1-0.7,0.4-0.9,0.7c-12.4,12.3-24.9,24.4-37.6,36.4
			c-5.7,5.4-11.5,10.7-17.3,16c-2.4,2.2-4.3,3.4-5,6.3c-0.9,4-0.1,9.2-0.1,13.4c-0.1,8.4-0.3,16.9-0.3,25.2
			c-0.1,5.7-0.4,10.4,5.3,13.2c6.2,3.1,14.4,3.8,21.2,4.9c7.7,1.1,15.5,1.8,23.3,2.3c8,0.5,16,1.2,24,1.8c7.1,0.5,14.7,1.8,21.8,0.4
			c7.1-1.2,12.7-5.5,18.3-9.7c7-5.3,14-10.5,21-15.8c6.3-4.7,12.7-9.4,19-14.2c5-3.6,10.7-7,11.6-13.6
			C463.2,408.2,460.6,399.4,459.8,392.1z" style="fill:var(--illu-brown--light);"/>
		<path d="M419.5,352.2c-8.5-3.5-17.3-5.4-26.6-6.2c-2-0.1-3.2,0.9-3.6,2.3c-14.7,11.1-28.7,23.1-41.9,35.9
			c-5.7,5.5-12,11.2-15.9,18.3c-4.2,7.6-4.2,16-3.8,24.4c0.1,2.2,1.8,4.2,4,4c8.5-0.4,17-0.7,25.5-1.1c1.8-0.1,3.5-1.2,3.9-3
			c0.7-2.6,0.4-4.7-0.7-7.1c-0.5-1.2-2.2-2.8-2.2-4c-0.1-2.6,3-4.5,4.6-5.7c7.4-5.4,14.6-10.8,21.7-16.5
			c7.1-5.7,14.3-11.5,21.2-17.5c6.2-5.4,12.3-10.8,16-18.2C423.3,355.6,422.1,353.3,419.5,352.2z" style="fill:var(--illu-yellow--main);"/>
		<path d="M445.4,339.5c-4.2-8.6-16.2-8.9-24.4-8.6c-4.5,0.1-10.2,0.1-13.9,3.1c-2.6,2-3.5,5-3.8,8.1
			c-0.9,1.3-1.1,3.4,0,4.9c0.4,2.7,3.2,3.8,5.4,3.1c3.8,2.2,7.1,5,11.6,6.2c5.1,1.5,10.7,1.8,16,1.8c3.9,0,7.6-0.5,9.3-4.5
			C447.3,349.6,447.3,343.4,445.4,339.5z" style="fill:var(--illu-yellow--main);"/>
		<path d="M412.8,285.3c-5.3,0-5.3,8.1,0,8.1C418,293.4,418,285.3,412.8,285.3z" style="fill:var(--illu-bg--light);"/>
		<path d="M450.7,285.3c-5.3,0-5.3,8.1,0,8.1C455.8,293.4,455.8,285.3,450.7,285.3z" style="fill:var(--illu-bg--light);"/>
		<path d="M441.5,291.2c-2.6-2.2-5.8-6.2-9.6-5.3c-3.2,0.8-5.7,4.5-7.6,6.9c-1.3,1.8-0.3,4.6,1.5,5.5
			c2,1.2,4.2,0.3,5.5-1.5c0.5-0.7,1.2-1.3,1.8-2l0.1-0.1c0.1,0.1,0.3,0.3,0.4,0.3c0.7,0.7,1.5,1.2,2.2,1.9c1.6,1.5,4,1.6,5.7,0
			C442.8,295.6,443.1,292.7,441.5,291.2z" style="fill:var(--illu-bg--light);"/>
		<path d="M459.8,260.5c-0.3-2.2-3.1-3.4-5-2.8c-2.3,0.7-3.1,2.8-2.8,5c0.3,2.2,0.3,4.5,0.1,6.6c-0.1,2.2,2,4,4,4
			c2.3,0,3.9-1.9,4-4C460.4,266.3,460.2,263.5,459.8,260.5z" style="fill:var(--illu-bg--light);"/>
		<path d="M413.7,260.1c-0.5-2.2-2.8-3.4-5-2.8s-3.4,2.8-2.8,5c0.5,2,0.7,3.5,0.7,5.8c0,2.2,1.9,4,4,4c2.3,0,4-1.9,4-4
			C414.8,265.4,414.4,262.7,413.7,260.1z" style="fill:var(--illu-bg--light);"/>
		<path d="M405.8,289.9c-3-0.7-5.4-2.2-7.6-4.3c-3.6-3.8-9.3,2-5.7,5.7c1.2,1.2,2.6,2.4,4,3.4c-0.1,0-0.4,0.1-0.5,0.1
			c-2,0.7-3.5,2.8-2.8,5c0.7,2,2.8,3.5,5,2.8c0.9-0.3,1.8-0.5,2.7-0.7c0.4-0.1,0.8-0.1,1.3-0.3c0.1,0,0.1,0,0.1,0
			c0.3,0,0.4,0,0.7-0.1c2.2-0.3,4.2-1.8,4-4c0-0.1,0-0.4-0.1-0.5C409.3,295.2,409.4,290.7,405.8,289.9z" style="fill:var(--illu-bg--light);"/>
		<path d="M469.8,284.5c-3.4,2-6.7,3.6-10.4,5c-2.6,0.9-3.2,3.6-2.4,5.7c-0.5,1.8,0.3,3.5,1.9,4.6
			c3.2,2.4,7,3.5,11.1,3.9c2.2,0.3,4-2,4-4c0-2.4-1.9-3.8-4-4c-0.9-0.1-1.8-0.3-2.6-0.5c2.3-1.1,4.6-2.2,6.7-3.5
			C478.3,288.8,474.3,281.8,469.8,284.5z" style="fill:var(--illu-bg--light);"/>
		<path d="M595.5,209.3c-5.3,0-5.3,8.1,0,8.1C600.8,217.3,600.8,209.3,595.5,209.3z" style="fill:var(--illu-bg--light);"/>
		<path d="M580,213.3h-3.4c-2.2,0-4.2,1.9-4,4c0.1,2.2,1.8,4,4,4h3.4c2.2,0,4.2-1.9,4-4
			C583.9,215.2,582.3,213.3,580,213.3z" style="fill:var(--illu-bg--light);"/>
		<path d="M593.3,220.3c-1.1-5-2.3-9.8-3.4-14.8c-1.2-5.1-9-3-7.8,2.2c1.1,5,2.3,9.8,3.4,14.8
			C586.7,227.6,594.6,225.4,593.3,220.3z" style="fill:var(--illu-red--light);"/>
		<path d="M479.7,392.3c-2-0.4-4.6,0.7-5,2.8c-0.3,1.5-0.5,3-0.9,4.5c-0.4,2,0.5,4.5,2.8,5c2,0.4,4.6-0.7,5-2.8
			c0.3-1.5,0.5-3,0.9-4.5C482.9,395.2,481.9,392.8,479.7,392.3z" style="fill:var(--illu-bg--light);"/>
		<path d="M446.9,339.4c-0.9,4.2-1.3,8.5-1.1,12.8c0.4,5.1,8.5,5.3,8.1,0c-0.3-3.6,0-7.1,0.8-10.7
			C455.9,336.4,448.1,334.3,446.9,339.4z" style="fill:var(--illu-bg--light);"/>
		<path d="M468.1,344.9c-0.5-5.1-8.6-5.1-8.1,0c2.3,19.4,1.9,39-1.3,58.3c-0.8,5.1,6.9,7.3,7.8,2.2
			C469.8,385.4,470.4,365.2,468.1,344.9z" style="fill:var(--illu-bg--light);"/>
		<path d="M447.6,363.1c-14.6,17.1-30.2,33.3-46.9,48.4c-0.8,0.8-1.2,1.6-1.2,2.6c-15.1-2.6-30.3-4.9-45.6-6.7
			c2.3-2.4,4.7-4.7,6.9-7.1c15.5-16.2,30.9-32.5,46.4-48.7c3.6-3.8-2.2-9.4-5.7-5.7c-17.3,18.2-34.7,36.4-51.9,54.6
			c-1.8,1.9-3.8,3.8-5.5,5.8c-13.5-1.6-27-3-40.5-3.9c-5.1-0.4-5.1,7.7,0,8.1c12.1,0.9,24.1,2.2,36.1,3.5c-1.1,3.6-1.1,7.6-1.3,11.2
			c-1.1,12-2,23.9-3.1,35.9c-0.4,5.1,7.7,5.1,8.1,0c0.9-10.7,1.8-21.3,2.7-32c0.4-4.7,0.1-9.7,2-14c16.5,2,32.9,4.3,49.2,7.1
			c0.3,13.4-0.9,26.6-3.5,39.6c-1.1,5.1,6.7,7.3,7.8,2.2c3.1-15,4.3-29.9,3.8-45.2c0-0.1,0-0.3,0-0.5c0.4-0.1,0.8-0.4,1.1-0.7
			c16.6-15.1,32.2-31.3,46.9-48.4C456.6,365,450.9,359.2,447.6,363.1z" style="fill:var(--illu-bg--light);"/>
		<path d="M438.4,342.6c-7.8-1.5-15.6-2.3-23.6-2.6c-5.3-0.1-5.3,8,0,8.1c7.3,0.3,14.3,0.9,21.4,2.3
			C441.4,351.4,443.5,343.6,438.4,342.6z" style="fill:var(--illu-bg--light);"/>
		<path d="M580.5,319.6c4.5-1.1,3.5-8-1.1-8c-0.8,0-1.9-0.5-1.8-1.6c0.5-2.8-1.6-4.7-3.8-5c-2.3-2.3-7.4,0-6.9,4.2
			c0.5,3.4-0.1,6.9-1.6,9.8c-3.5,1.3-5.1,5.4-2,8.9c1.3,1.5,4.5,1.6,5.7,0c0.3-0.3,0.5-0.7,0.8-0.9c1.2,0.4,2.3,1.3,3.2,2.3
			c0.5,0.8,1.2,1.8,1.9,2.4c3.1,3.4,8.8-1.1,6.3-4.9c-0.5-0.8-1.1-1.5-1.6-2.2C578.5,322.7,577.8,320.1,580.5,319.6z" style="fill:var(--illu-yellow--main);"/>
		<path d="M492.2,67.1l-4.7-0.3c-0.3-1.8-0.4-3.4-0.7-5.1c-0.7-5.1-8.8-5.1-8.1,0c0.1,1.5,0.4,3.1,0.5,4.6L476,66
			c-5.3-0.4-5.1,7.7,0,8.1c1.3,0.1,2.8,0.1,4.2,0.3c0.1,1.3,0.3,2.8,0.5,4.2c0.7,5.1,8.8,5.1,8.1,0c-0.1-1.2-0.3-2.4-0.4-3.6
			c1.2,0.1,2.6,0.1,3.8,0.3C497.3,75.6,497.3,67.5,492.2,67.1z" style="fill:var(--illu-yellow--main);"/>
		<path d="M308.4,100.6c-1.9-0.1-3.9-0.3-5.8-0.4c-0.5-3.5-1.1-7-1.6-10.5c-0.8-5.1-8.6-3-7.8,2.2
			c0.4,2.8,0.8,5.5,1.3,8.4c-1.3,0-2.6,0.1-3.9,0.1c-5.1,0.3-5.3,8.4,0,8.1c1.8-0.1,3.5-0.1,5.1-0.1c0.4,2.7,0.8,5.4,1.2,8.1
			c0.8,5.1,8.6,3,7.8-2.2l-0.9-5.8c1.5,0.1,3,0.1,4.6,0.3C313.6,109.1,313.6,101,308.4,100.6z" style="fill:var(--illu-yellow--main);"/>
		<path d="M356.7,209.1c-1.6-0.1-3.4-0.1-5-0.3c-0.1-2.8,0-5.7,0.4-8.6c0.5-5.1-7.6-5.1-8.1,0c-0.3,2.7-0.4,5.4-0.4,8.1
			c-1.6-0.1-3.1-0.1-4.7-0.3c-5.3-0.3-5.1,7.8,0,8.1l5.3,0.3c0.3,2.3,0.7,4.6,1.3,6.9c1.2,5.1,9,3,7.8-2.2c-0.4-1.3-0.5-2.8-0.8-4.2
			c1.5,0.1,2.8,0.1,4.3,0.3C361.9,217.5,361.8,209.4,356.7,209.1z" style="fill:var(--illu-yellow--main);"/>
		<path d="M171.1,251.6c-2.7-0.7-5.4-1.1-8.2-1.5c0.1-3.1,0.1-6.3,0-9.4c-0.3-5.1-8.4-5.3-8.1,0c0.1,3,0.1,5.9,0,8.8
			c-1.5,0-3-0.1-4.5-0.1c-5.3,0-5.3,8.1,0,8.1c1.2,0,2.4,0,3.6,0c-0.5,5,7,7,7.8,2c0-0.4,0.1-0.8,0.1-1.3c2.3,0.3,4.6,0.7,6.9,1.2
			C173.9,260.5,176.1,252.7,171.1,251.6z" style="fill:var(--illu-yellow--main);"/>
		<path d="M261.3,302.3h-8.2c-0.3-3.5-0.8-7-1.6-10.5c-1.2-5.1-9-3-7.8,2.2c0.7,2.8,1.1,5.5,1.3,8.4h-2.3
			c-5.3,0-5.3,8.1,0,8.1h2.6c0,2-0.1,4-0.4,6.2c-0.5,5.1,7.6,5.1,8.1,0c0.3-2,0.4-4.2,0.4-6.2h8
			C266.6,310.4,266.6,302.3,261.3,302.3z" style="fill:var(--illu-yellow--main);"/>
		<path d="M542.9,269.3c-5.3,0-5.3,8.1,0,8.1C548,277.4,548.2,269.3,542.9,269.3z" style="fill:var(--illu-white--light);"/>
		<path d="M690.8,262.9c-5.3,0-5.3,8.1,0,8.1C696,271,696,262.9,690.8,262.9z" style="fill:var(--illu-white--light);"/>
		<path d="M472.4,219.2c-5.3,0-5.3,8.1,0,8.1C477.5,227.3,477.6,219.2,472.4,219.2z" style="fill:var(--illu-white--light);"/>
		<path d="M512.2,161.6c-5.3,0-5.3,8.1,0,8.1S517.4,161.6,512.2,161.6z" style="fill:var(--illu-white--light);"/>
		<path d="M457.4,116.3c-5.3,0-5.3,8.1,0,8.1C462.5,124.4,462.5,116.3,457.4,116.3z" style="fill:var(--illu-white--light);"/>
		<path d="M397.8,205.7c-5.3,0-5.3,8.1,0,8.1C402.9,213.8,403.1,205.7,397.8,205.7z" style="fill:var(--illu-white--light);"/>
		<path d="M252,161.2c-2.2,0.1-4,1.8-4,4v0.8c0,2.2,1.9,4.2,4,4c2.2-0.1,4-1.8,4-4v-0.8
			C256.1,163.1,254.2,161.1,252,161.2z" style="fill:var(--illu-white--light);"/>
		<path d="M347.8,245.5H347c-2.2,0-4.2,1.9-4,4c0.1,2.2,1.8,4,4,4h0.8c2.2,0,4.2-1.9,4-4
			C351.7,247.4,350.1,245.5,347.8,245.5z" style="fill:var(--illu-white--light);"/>
		<path d="M347.8,144.9c-5.3,0-5.3,8.1,0,8.1C353,153,353,144.9,347.8,144.9z" style="fill:var(--illu-white--light);"/>
		<path d="M347.8,326c-5.3,0-5.3,8.1,0,8.1C353,334.1,353,326,347.8,326z" style="fill:var(--illu-white--light);"/>
		<path d="M142.6,285.3c-5.3,0-5.3,8.1,0,8.1C147.8,293.4,147.8,285.3,142.6,285.3z" style="fill:var(--illu-white--light);"/>
		<path d="M207.1,324.4c-5.3,0-5.3,8.1,0,8.1S212.4,324.4,207.1,324.4z" style="fill:var(--illu-white--light);"/>
		<path d="M219,243.9c-5.3,0-5.3,8.1,0,8.1C224.2,252,224.2,243.9,219,243.9z" style="fill:var(--illu-white--light);"/>
		<path d="M601.2,398.2c-3.8-1.1-7.4-1.2-11.2-0.5c-2.2,0.3-3.4,3.1-2.8,5c0.7,2.3,2.8,3.1,5,2.8c2.3-0.4,4.7,0,6.9,0.5
			C604,407.5,606.2,399.7,601.2,398.2z" style="fill:var(--illu-bg--light);"/>
		<path d="M275.2,448.9c-5.9-5.1-13.2-7.8-21-7.3c-3.4-0.4-6.9,0-9.4,2.7c-3,3.1-3,7.8,0.1,10.8c7.1,7,21.6,4,29.4,0.1
			C276.7,454.2,277.1,450.5,275.2,448.9z M253.5,450.2c-0.5-0.3-0.8-0.4-1.1-0.4c0.1,0,0.3,0,0.5,0c0.4,0,0.7,0,1.1-0.1
			c0.4,0.1,0.8,0.1,1.2,0.3c0.9,0.3,1.9,0.1,2.6-0.3c1.6,0.1,3.2,0.4,4.7,0.9c-1.1,0.1-2.2,0.3-3.2,0.3
			C257.4,450.9,255.2,450.9,253.5,450.2z" style="fill:var(--illu-bg--light);"/>
		<path d="M271,371.2l-11.7-1.1c-2.2-0.3-4,2-4,4c0,2.3,1.9,3.8,4,4l11.7,1.1c2.2,0.3,4-2,4-4
			C275.1,372.8,273.3,371.4,271,371.2z" style="fill:var(--illu-bg--light);"/>
		<path d="M383.9,503.4c-5-1.6-10.2-0.9-14.8,1.5c-4.6,2.4-0.5,9.4,4,7c2.7-1.5,5.7-1.6,8.6-0.7
			C386.7,512.8,388.8,505,383.9,503.4z" style="fill:var(--illu-bg--light);"/>
		<path d="M558.4,463.7c-0.3-1.2-1.1-2.4-2.7-3c-6.5-2.2-16.5-2.2-21,3.8c-5.9,7.7,4.5,12.1,10.4,13.5
			c5.5,1.3,18.2,4,21-3C568.5,469.4,563.4,466,558.4,463.7z M548,470.5c-1.8-0.4-3.5-0.8-5.1-1.5c-0.1,0-0.3-0.1-0.4-0.1
			c0.1-0.1,0.4-0.3,0.5-0.5c1.9-0.1,3.4-0.4,4.9-0.4c0.3,0.1,0.4,0.3,0.7,0.4c1.6,0.7,3.8,2,5.8,3c-0.1,0-0.1,0-0.3,0
			C552.1,471.2,550.1,470.9,548,470.5z" style="fill:var(--illu-bg--light);"/>
		<path d="M127.1,510.5c-4.5-0.5-9-0.1-13.2,1.3c-4.9,1.8-2.8,9.6,2.2,7.8c3.6-1.2,7.3-1.6,11.1-1.1c2.2,0.3,4-2,4-4
			C131.2,512.2,129.3,510.8,127.1,510.5z" style="fill:var(--illu-bg--light);"/>
		<path d="M128.3,435.4c-0.5-1.9-3-3.6-5-2.8c-2.8,1.1-5.7,1.6-8.8,1.1c-2.2-0.4-4.3,0.5-5,2.8c-0.5,2,0.7,4.6,2.8,5
			c4.5,0.8,8.8,0.5,12.9-1.1C127.5,439.6,129,437.7,128.3,435.4z" style="fill:var(--illu-bg--light);"/>
		<path d="M756.7,463.5c-4.5-1.6-8.2-4.7-10.9-8.6c3.8-14-19.7-17-29.5-16.7c-1.8,0-3.4,0.1-5.1,0.4
			c-0.7-0.3-1.6-0.4-2.6-0.1c-7.6,2-15.9,5-19.2,12.8c-0.9,2.2-1.2,4.2-1.1,6.2c-0.1,0.3-0.4,0.7-0.5,0.9
			c-2.8,4.7-6.6,8.6-10.9,12.1c-4,3.2,1.6,8.9,5.7,5.7c3.8-3,7-6.3,9.8-10.1c1.2,1.1,2.6,2.2,4.2,2.8c7.4,3.6,16.6,2.8,24.4,1.3
			c6.6-1.2,15.2-3,20.5-8c3.5,4,8,7.1,13.2,9C759.4,473,761.5,465.2,756.7,463.5z" style="fill:var(--illu-bg--light);"/>
		<path d="M713.8,398.7c-5-7-18.1-7-25.6-7.1c-2.8,0-4.2,2.3-3.9,4.6c-3,2.2-4.6,6.7-3,10.2c3.5,8,14.8,5,21.3,3.9
			c3.4-0.5,8.2-0.4,10.8-3.1C715.8,404.9,715.5,401.4,713.8,398.7z M696.1,403.3c-1.3,0.1-2.7,0.4-4,0.4c-0.7,0-1.5,0-2.2-0.1
			l-0.1-0.1c1.6-0.3,2.8-1.8,3-3.5c2.3,0.1,4.6,0.4,7,0.9c1.1,0.3,2.3,0.5,3.4,0.8C700.6,402.2,697.7,403,696.1,403.3z" style="fill:var(--illu-bg--light);"/>
		<path d="M523.6,513.5c-6.3,0.8-12.5,1.6-18.9,2.4c-5.1,0.7-5.1,8.8,0,8.1c6.3-0.8,12.5-1.6,18.9-2.4
			C528.7,520.9,528.7,512.8,523.6,513.5z" style="fill:var(--illu-bg--light);"/>
		<path d="M489.9,437.6h-8.1c-5.3,0-5.3,8.1,0,8.1h8.1C495,445.7,495,437.6,489.9,437.6z" style="fill:var(--illu-bg--light);"/>
		<path d="M299.9,527.3c-1.9-3.5-5.7-4.3-9.3-4.6c-7.3-0.5-14.7-0.1-22,0.3c-1.5,0.1-2.6,0.8-3.2,1.9
			c-5.4,2.7-10,7.7-5.5,13.8c5.3,7.3,20.6,6.3,28.3,5C295.3,542.1,304.7,535.8,299.9,527.3z M287.9,535.3c-4,1.1-8.5,1.2-12.7,0.8
			c-1.1-0.1-7.1-0.7-7.4-1.6c-0.8-2.6,3.2-3.1,4.7-3.4c0.1,0,0.4-0.1,0.5-0.1c3.4-0.1,6.9-0.3,10.4-0.3c1.8,0,4.6-0.5,6.1,0.1
			C292.7,532.4,290.9,534.5,287.9,535.3z" style="fill:var(--illu-bg--light);"/>
		<path d="M202.7,490.2h-6.7c-2.2,0-4.2,1.9-4,4c0.1,2.2,1.8,4,4,4h6.7c2.2,0,4.2-1.9,4-4
			C206.6,492.1,204.9,490.2,202.7,490.2z" style="fill:var(--illu-bg--light);"/>
		<path d="M48.9,480.7h-6.7c-2.2,0-4.2,1.9-4,4c0.1,2.2,1.8,4,4,4h6.7c2.2,0,4.2-1.9,4-4
			C52.8,482.6,51.2,480.7,48.9,480.7z" style="fill:var(--illu-bg--light);"/>
		<path d="M202.7,403.9h-10.8c-5.3,0-5.3,8.1,0,8.1h10.8C207.8,411.9,207.8,403.9,202.7,403.9z" style="fill:var(--illu-bg--light);"/>
		<path d="M644.9,486.5c-0.5-1.9-3-3.6-5-2.8c-2.8,1.1-5.7,1.6-8.6,1.1c-2.2-0.4-4.3,0.5-5,2.8c-0.5,1.9,0.7,4.6,2.8,5
			c4.5,0.7,8.8,0.5,12.9-1.1C644.1,490.7,645.5,488.8,644.9,486.5z" style="fill:var(--illu-bg--light);"/>
		<path d="M559.6,369.2c-3.1-0.5-6.3-0.9-9.4-1.5c-2.2-0.4-4.3,0.5-5,2.8c-0.5,1.9,0.7,4.6,2.8,5
			c3.1,0.5,6.3,0.9,9.4,1.5c2.2,0.4,4.3-0.5,5-2.8C563,372.3,561.9,369.6,559.6,369.2z" style="fill:var(--illu-bg--light);"/>
		<path d="M691,147.6c-2.2,0.5-4.2,0.8-6.3,1.1l-0.7-9.2c-0.4-5.1-8.5-5.3-8.1,0l0.7,9.6c-1.1,0-2.3,0-3.4-0.1
			c-5.3-0.3-5.1,7.8,0,8.1c1.3,0.1,2.7,0.1,4,0.1l0.3,3.9c0.4,5.1,8.5,5.3,8.1,0l-0.3-4.5c2.7-0.3,5.3-0.8,7.8-1.3
			C698.3,154.2,696.1,146.5,691,147.6z" style="fill:var(--illu-yellow--main);"/>
		<path d="M92.5,344c-1.8,0.4-3.5,0.9-5.3,1.3c-0.7-2-1.2-3.9-1.9-5.9c-1.6-5-9.4-2.8-7.8,2.2c0.7,2,1.2,3.9,1.9,5.9
			c-1.5,0.4-3.1,0.8-4.6,1.2c-5,1.3-2.8,9.2,2.2,7.8c1.6-0.4,3.2-0.8,5-1.3c0.4,1.3,0.8,2.6,1.2,3.9c1.6,5,9.4,2.8,7.8-2.2
			c-0.4-1.2-0.8-2.6-1.2-3.8c1.6-0.4,3.2-0.8,5-1.3C99.6,350.5,97.5,342.6,92.5,344z" style="fill:var(--illu-yellow--main);"/>
		<path d="M169.2,127.4c-1.5,0.3-3,0.4-4.5,0.7c-0.5-3.8-1.1-7.4-1.6-11.2c-0.8-5.1-8.6-3-7.8,2.2
			c0.5,3.4,1.1,6.9,1.5,10.2l-3.9,0.7c-5.1,0.8-3,8.6,2.2,7.8c0.9-0.1,1.9-0.3,3-0.4l0.5,3.2c0.8,5.1,8.6,3,7.8-2.2
			c-0.1-0.8-0.3-1.6-0.4-2.4c1.8-0.3,3.5-0.5,5.4-0.8C176.5,134.4,174.2,126.6,169.2,127.4z" style="fill:var(--illu-yellow--main);"/>
		<path d="M746.4,323.2c-2.3,0.9-4.7,1.6-7.1,2.2c-0.4-3-0.7-5.9-1.1-9c-0.5-5.1-8.8-5.1-8.1,0c0.4,3.2,0.8,6.3,1.1,9.6
			c-0.9,0-1.8-0.1-2.7-0.1c-5.1-0.5-5.1,7.6,0,8.1c1.2,0.1,2.4,0.1,3.6,0.3c0.3,2.2,0.5,4.3,0.8,6.6c0.5,5.1,8.8,5.1,8.1,0
			c-0.3-2.4-0.5-4.7-0.8-7.1c2.8-0.5,5.7-1.3,8.2-2.4C753.3,329,751.3,321.2,746.4,323.2z" style="fill:var(--illu-yellow--main);"/>
		<path d="M720.5,193.5c-5.3,0-5.3,8.1,0,8.1C725.6,201.6,725.6,193.5,720.5,193.5z" style="fill:var(--illu-white--light);"/>
		<path d="M651.7,313.5c-2.2,0.1-4,1.8-4,4v1.3c0,2.2,1.9,4.2,4,4c2.2-0.1,4-1.8,4-4v-1.3
			C655.8,315.5,653.9,313.5,651.7,313.5z" style="fill:var(--illu-white--light);"/>
		<path d="M599.1,120.6c-5.3,0-5.3,8.1,0,8.1C604.3,128.7,604.3,120.6,599.1,120.6z" style="fill:var(--illu-white--light);"/>
		<path d="M392.8,65.4c-5.3,0-5.3,8.1,0,8.1C397.9,73.4,397.9,65.4,392.8,65.4z" style="fill:var(--illu-white--light);"/>
		<path d="M395.5,118c-5.3,0-5.3,8.1,0,8.1C400.6,126,400.6,118,395.5,118z" style="fill:var(--illu-white--light);"/>
		<path d="M226.9,108.5h-1.3c-2.2,0-4.2,1.9-4,4c0.1,2.2,1.8,4,4,4h1.3c2.2,0,4.2-1.9,4-4
			C230.8,110.4,229.2,108.5,226.9,108.5z" style="fill:var(--illu-white--light);"/>
		<path d="M120.4,169.2H119c-2.2,0-4.2,1.9-4,4c0.1,2.2,1.8,4,4,4h1.3c2.2,0,4.2-1.9,4-4
			C124.3,171.1,122.7,169.2,120.4,169.2z" style="fill:var(--illu-white--light);"/>
		<path d="M74.5,259.6c-5.3,0-5.3,8.1,0,8.1C79.7,267.6,79.7,259.6,74.5,259.6z" style="fill:var(--illu-white--light);"/>
		<path d="M276.8,223.1c-2.2,0.1-4,1.8-4,4v1.3c0,2.2,1.9,4.2,4,4c2.2-0.1,4-1.8,4-4v-1.3
			C280.9,225.2,279,223.1,276.8,223.1z" style="fill:var(--illu-white--light);"/>
		<path d="M178.4,171.9H177c-2.2,0-4.2,1.9-4,4c0.1,2.2,1.8,4,4,4h1.3c2.2,0,4.2-1.9,4-4
			C182.3,173.8,180.7,171.9,178.4,171.9z" style="fill:var(--illu-white--light);"/>
		<path d="M152.5,346.1c-2-0.7-4.5,0.8-5,2.8c-0.4,1.6,0.1,3.1,1.2,4c0.1,1.6,1.3,3.2,3,3.5c2.2,0.5,4.3-0.7,5-2.8
			C157.6,350.5,155.6,347.2,152.5,346.1z" style="fill:var(--illu-white--light);"/>
	</g>
	<path d="M574.6,92.3c-2.6,0.3-5.3,0.5-7.8,0.7c-0.7-2.8-1.3-5.7-2.3-8.5c-1.6-5-9.4-2.8-7.8,2.2c0.8,2.3,1.3,4.7,1.9,7
		l-4,0.4c-5.1,0.5-5.1,8.6,0,8.1c1.9-0.1,3.8-0.4,5.5-0.5c0.3,1.6,0.4,3.2,0.5,4.9c0.4,5.1,8.5,5.3,8.1,0c-0.1-1.9-0.4-3.8-0.7-5.5
		l6.3-0.5C579.7,100,579.9,91.8,574.6,92.3z" style="fill:var(--illu-yellow--main);"/>
</g>
</svg>
