<?xml version="1.0" encoding="utf-8"?>
<!-- Generator: Adobe Illustrator 23.0.2, SVG Export Plug-In . SVG Version: 6.00 Build 0)  -->
<svg version="1.1" id="Capa_1" xmlns="http://www.w3.org/2000/svg" xmlns:xlink="http://www.w3.org/1999/xlink" x="0px" y="0px" viewBox="0 0 800 1398.5" style="enable-background:new 0 0 800 1398.5;" xml:space="preserve">

<g>
	<path d="M519.8,1249.1c-26.8-67.2-40.8-136.6-54.9-206.7c-29.3-146.9-52.8-294.6-71-443.1
		c10.7-7.4,20.2-16.5,28.1-27.2c19.8-26.8,18.6-57.3,13.6-87.9c-6.6-39.6-16.9-79.2-30.5-117.2c-21.5-61.9-54-149.8-137.4-152.7
		c0-1.7,0-3.3,0-5l0,0c24.3-14,35.1-45.4,38-70.1c1.7-17.3,1.2-38.8-14-51.6c-7-5.8-16.1-8.7-24.8-8.3c-2.5-2.5-6.2-3.7-10.7-2.9
		c-40.4,7.8-53.6,45-56.5,78.4c-2.1,22.3,2.5,47,21,56.9l-0.4,2.5c-61.5-2.5-103.6,41.7-137.4,83.8c-19.8,25.2-40,51.2-54.9,79.2
		c-11.1,21-16.9,46.6-3.7,68.5c14,22.7,45,28.5,70.1,33.4c19,3.7,38.8,6.2,58.2,7.4c22.7,137.8,19,277.7,44.1,415.1
		c25.2,139.9,61.9,292.9,87.1,432.4c-10.3,10.7-35.5,29.7-43.3,42.5c-5.8,9.1,16.1,10.7,26,9.1c26.8-4.1,46.2-23.9,71.4-33.8
		c16.5-6.2,23.9-5,25.2-22.3c1.7-24.8-0.4-61.9-2.9-86.2c-2.9-27.2-5.8-54.5-8.7-81.7c-6.2-56.5-12.4-113-19-169.6
		c12.4,42.9,24.8,85.8,37.1,128.7c12.8,44.6,25.6,89.1,38.4,134.1c3.3,12,18.6,27.2,21,39.6c2.9,13.6-9.9,16.1-18.6,26.8
		c-9.1,11.1-14.4,20.2-12,34.2c0.8,6.2,9.5,9.1,15.3,7.8c31.4-7.4,59.8-21.5,82.9-42.1C521.1,1299.4,532.2,1280,519.8,1249.1z
		 M141.9,415.2c-8.7-2.5-17.3-5.8-26-9.1c3.3-1.7,6.6-2.9,9.9-4.5c3.7-1.7,8.3-4.1,12.4-6.2l2.5,13.2
		C141.1,411.1,141.5,413.2,141.9,415.2z" style="fill:var(--illu-brown--main);"/>
	<path d="M356.9,1321.3c-10.3-3.3-26.4,0.8-37.1,1.7c-16.1,1.2-31.4,2.9-47,7.8c-5,1.7-7.4,5-8.3,8.7
		c-11.6,12.4-27.6,26.8-31.8,42.1c-1.2,3.7,0,8.3,3.3,11.1c15.7,13.2,47.4,0.8,65.2-3.7c15.3-4.1,30.1-9.1,45.4-14
		c8.3-2.9,16.5-5.4,20.6-13.2C371.7,1350.1,370.9,1325.8,356.9,1321.3z" style="fill:var(--illu-red--main);"/>
	<path d="M531.8,1254c-1.7-5.8-8.7-9.9-15.3-7.8c-26,8.3-50.7,18.2-74.7,30.5c-3.3,1.7-5.4,4.1-5.8,7
		c-0.4,0.4-0.4,0.4-0.8,0.8c-9.5,12.8-18.6,25.6-27.2,38.8c-5.8,9.1-16.5,20.2-14.4,31.8c3.7,22.7,37.1,17.3,52.8,10.3
		c26-12,54.5-28.5,76.3-45.8C547.9,1299.8,539.2,1280,531.8,1254z" style="fill:var(--illu-red--main);"/>
	<path d="M532.6,1242.9c-49.5-199.7-94.5-400.2-134.1-601.5c-1.2-6.2-9.1-9.1-15.3-7.8
		c-69.3,14.9-138.6,29.7-207.5,44.6c-10.3,2.1-10.7,12.4-5.8,18.2c19.8,214.1,50.3,427,92,638.7c0.8,4.5,7,8.7,12,8.3
		c27.6-1.7,55.3-5.4,82.1-11.1c5-1.2,8.3-6.2,9.1-10.7c11.1-86.2-8.3-166.7-14.4-250c25.6,72.6,32.2,141.5,66.8,219.9
		c3.3,7,3.7,21,10.3,17.7c30.1-14,68.9-38.8,98.6-53.2C532.2,1253.2,533.9,1247.4,532.6,1242.9z" style="fill:var(--illu-blue--light);"/>
	<path d="M432.4,443.3c-8.7-46.6-14.4-95.7-34.7-139.5c-15.3-33-41.3-67.2-78.4-81.3c-15.3-5.8-31.8-7.4-47.4-1.2
		c-8.7,3.3-16.1,11.1-24.8,13.2c-16.1,4.5-21.9-9.9-33.8-15.7c-39.2-19.8-80,12.8-107.7,35.5C71.8,282,40,315.4,18.2,352.1
		c-20.6,34.7-28.9,81.3,3.7,112.2c16.1,15.3,38.8,23.1,60.2,30.1c18.2,5.8,36.3,10.3,54.5,8.3c2.1,60.6,11.6,120.9,27.6,179.5
		c1.7,6.2,8.7,9.5,15.3,7.8c30.1-6.6,61.5-0.4,92,0.4c30.1,0.8,59.8-0.4,89.9-3.7c5.4-0.4,37.5-9.9,42.5-19
		c9.1-16.9-14-45.4-1.2-59.4c5-5.4,14.4-8.7,20.2-14c6.2-6.2,11.1-14,14.9-21.9C456.3,532.4,440.2,484.1,432.4,443.3z M255.8,623.6
		c-5.4,13.2-19,18.6-32.6,17.7c-12.8-0.8-29.7-5.8-33.4-20.2c-5.8-24.3,29.3-43.3,49.1-45.4c2.1,0,4.1,0.4,5.4,1.2
		c4.1,0.8,7.8,3.7,9.5,9.5C257.5,598.4,260.8,612,255.8,623.6z" style="fill:var(--illu-bg--main);"/>
	<path d="M364.7,268.4c-8.7-45-19-89.1-31.4-133.3c23.5-6.6,38-31.4,22.3-53.2c-12.8-17.7-37.5-18.2-52.4-6.2
		c-24.3-26-71.8-25.2-97.4,3.7c-12,13.6-24.3,38.8-16.1,56.5c8.7,19,42.9,14,64.8,10.7c7.4,46.6,9.1,94.1,3.3,140.7
		c-1.7,14.9-10.7,38,6.2,48.3c15.3,9.1,41.7,4.5,58.6,2.1c14.4-2.1,40-3.7,47.9-17.7C377.1,306.3,367.2,282.4,364.7,268.4z" style="fill:var(--illu-bg--light);"/>
	<path d="M707.6,70.3C690.2,27.8,645.7-6.4,599.5,1c-48.7,3.3-89.9,47-102.7,92c-14.4,49.1,4.5,104.4,49.9,130
		c42.5,23.9,94.1,16.9,130.4-14.9C715.8,174.3,726.5,117.8,707.6,70.3z" style="fill:var(--illu-blue--main);"/>
	<path d="M780.2,15.9c-5.8-14.4-29.7-8.3-23.9,6.6c31.4,78.8,28.5,180.3-44.6,230.6c0.4-1.2,0.8-2.9,0.8-4.1
		c3.7-15.7-20.2-22.3-23.9-6.6c-2.1,8.3-3.7,16.9-5.8,25.2c-1.7,7.4-4.1,15.7,1.7,21.9c5.4,6.2,14.9,6.2,22.3,7.4
		c8.7,1.7,17.7,3.3,26.4,5c15.7,2.9,22.3-21,6.6-23.9l-16.5-2.9C807.4,220.1,815.7,104.6,780.2,15.9z" style="fill:var(--illu-red--main);"/>
	<path d="M409.7,939.2c-15.3-54.9-40.8-109.3-64.8-161.3c-12.4-26.8-25.2-52.8-40-78.4c-11.6-19.8-23.1-44.6-45.8-55.3
		c-23.5-11.1-40.4-4.1-51.2,9.9c-21.5,21.9-19.4,73.4-21.5,95.7c-5.4,62.3-6.2,125-2.5,187.3c2.5,44.1,0.4,101.1,51.6,122.1
		c40.4,16.5,91.6,6.6,127.1-15.3C401.9,1020.1,421.7,982.1,409.7,939.2z M219.9,680.9c0.8-2.9,2.5-6.2,3.7-8.7
		c0.4-0.8,1.2-1.2,1.7-2.1c0.4,0.8,1.2,2.1,2.5,2.9c14,12,24.3,26,30.1,42.9c4.5,13.2,10.3,40,1.2,52.8
		c-14,19.8-35.9-24.8-38.8-34.2C215,717.2,214.1,697.9,219.9,680.9z" style="fill:var(--illu-white--main);"/>
	<path d="M202.6,151.2h-1.7c-6.6,0-12.8,5.8-12.4,12.4c0.4,6.6,5.4,12.4,12.4,12.4h1.7c6.6,0,12.8-5.8,12.4-12.4
		C214.5,157,209.2,151.2,202.6,151.2z" style="fill:var(--illu-bg--light);"/>
	<path d="M242.6,158.6c-6.6,0.4-12.4,5.4-12.4,12.4v1.7c0,6.6,5.8,12.8,12.4,12.4s12.4-5.4,12.4-12.4V171
		C255,164.4,249.2,158.2,242.6,158.6z" style="fill:var(--illu-bg--light);"/>
	<path d="M235.6,184.6c-8.3-1.2-16.9-2.5-25.2-3.7c-6.6-0.8-13.2,1.7-15.3,8.7c-1.7,5.8,2.1,14.4,8.7,15.3
		c8.3,1.2,16.9,2.5,25.2,3.7c6.6,0.8,13.2-1.7,15.3-8.7C245.5,193.7,242.2,185.4,235.6,184.6z" style="fill:var(--illu-bg--light);"/>
	<path d="M241.8,424.7c-9.5-1.7-23.1-5-32.2,0c-7.4,4.1-9.1,10.7-8.3,17.7c-5,12.4-7,25.2-6.6,38.8
		c0.4,7,5.4,11.6,12.4,12.4c23.5,2.1,57.8,3.3,71.4-21C291.7,448.2,262.4,428.9,241.8,424.7z" style="fill:var(--illu-brown--main);"/>
	<path d="M220.7,402.5c-33-19.8-71-19.4-107.7-26c21.5-26,43.7-50.7,67.2-75.1c11.1-11.6-6.2-28.9-17.3-17.3
		c-28.5,29.3-55.3,59.8-80.9,91.6c-5.8,7-4.1,18.2,5.4,20.6c39.6,11.1,84.2,6.2,120.9,27.6C222,431.7,234.3,410.3,220.7,402.5z" style="fill:var(--illu-bg--light);"/>
	<path d="M198,494c-2.1-7-8.7-9.9-15.3-8.7c-12.4,2.1-24.8,4.1-37.1,6.2c-6.6,1.2-10.3,9.1-8.7,15.3
		c2.1,7,8.7,9.9,15.3,8.7c12.4-2.1,24.8-4.1,37.1-6.2C196,508.1,199.7,499.8,198,494z" style="fill:var(--illu-bg--light);"/>
	<path d="M367.6,369c0.4-16.1-24.3-16.1-24.8,0c-1.2,51.6-0.8,103.1,0.8,154.7c-33.4,10.7-65.2,26-94.5,45.8
		c-13.2,8.7-0.8,30.1,12.4,21.5c30.5-20.2,62.7-35.9,97.8-46.2c5-1.7,9.5-6.6,9.1-12C366.4,478,366,423.5,367.6,369z" style="fill:var(--illu-bg--light);"/>
	<path d="M392.4,602.6c-33.8,13.2-73,34.7-110.2,27.2c-15.7-2.9-22.3,20.6-6.6,23.9c43.7,8.7,83.8-12,123.4-27.2
		C413.8,620.7,407.2,596.8,392.4,602.6z" style="fill:var(--illu-bg--light);"/>
	<path d="M441.9,1306.8c-7-4.1-14.4-7.8-21.5-12c-5.8-3.3-13.6-1.2-16.9,4.5c-3.3,5.8-1.2,13.6,4.5,16.9l21.5,12
		c5.8,3.3,13.6,1.2,16.9-4.5C449.7,1318,448.1,1310.1,441.9,1306.8z" style="fill:var(--illu-bg--light);"/>
	<path d="M420.4,1336.5c-5.4-2.9-10.7-6.2-16.1-9.1c-5.8-3.3-13.6-1.7-16.9,4.5c-3.3,5.8-1.7,13.6,4.5,16.9l16.1,9.1
		c5.8,3.3,13.6,1.7,16.9-4.5C427.8,1347.7,426.2,1339.8,420.4,1336.5z" style="fill:var(--illu-bg--light);"/>
	<path d="M285.9,1346.8c-5.8-4.1-11.6-8.7-17.3-12.8c-5.4-3.7-14-0.8-16.9,4.5c-3.3,6.6-1.2,12.8,4.5,16.9
		s11.6,8.7,17.3,12.8c5.4,3.7,14,0.8,16.9-4.5C293.8,1357.6,291.3,1351,285.9,1346.8z" style="fill:var(--illu-bg--light);"/>
	<path d="M257.9,1367.1c-5.4-3.7-10.7-7.4-16.1-11.6c-5.4-3.7-14-1.2-16.9,4.5c-3.3,6.2-1.2,12.8,4.5,16.9l16.1,11.6
		c5.4,3.7,14,1.2,16.9-4.5C265.7,1377.8,263.2,1371.2,257.9,1367.1z" style="fill:var(--illu-bg--light);"/>
	<path d="M610.2,26.2c-4.1-5-13.2-4.5-17.3,0c-4.5,5-4.5,11.1-0.8,16.5c0,0,0,0,0,0.4l0,0c0,0.4,0,0.4,0,0.8
		c-1.2,6.2,2.5,12.8,8.7,14.4c6.6,1.7,13.6-2.1,15.3-8.7C618,40.6,615.6,32.8,610.2,26.2z" style="fill:var(--illu-bg--light);"/>
	<path d="M518.6,129.7h-11.1c-6.6,0-12.8,5.8-12.4,12.4c0.4,6.6,5.4,12.4,12.4,12.4h11.1c6.6,0,12.8-5.8,12.4-12.4
		C531,135.5,525.6,129.7,518.6,129.7z" style="fill:var(--illu-bg--light);"/>
	<path d="M615.2,190.4c-6.6,0.4-12.4,5.4-12.4,12.4v8.3c0,6.6,5.8,12.8,12.4,12.4c6.6-0.4,12.4-5.4,12.4-12.4v-8.3
		C627.5,196.2,621.8,190,615.2,190.4z" style="fill:var(--illu-bg--light);"/>
	<path d="M700.6,111.6c-2.9-0.8-5.4-2.1-8.3-2.9c-6.2-2.1-14,2.5-15.3,8.7c-1.7,7,2.1,12.8,8.7,15.3
		c2.9,0.8,5.4,2.1,8.3,2.9c6.2,2.1,14-2.5,15.3-8.7C710.9,119.8,707.2,114.1,700.6,111.6z" style="fill:var(--illu-bg--light);"/>
	<path d="M619.3,84.4c0-16.1-24.8-16.1-24.8,0c0,6.2,0,12.4,0,18.2c0,2.9,0,6.2,0,9.1c0,0.8,0,1.7,0,2.5
		c-10.7,2.5-21.5,4.1-32.6,6.2c-15.7,2.9-9.1,26.8,6.6,23.9c9.1-1.7,18.6-3.3,27.6-5c6.2-1.2,12.4-2.5,16.9-7.4
		c4.5-5,5.8-11.6,5.8-17.7C619.7,104.2,619.3,94.3,619.3,84.4z" style="fill:var(--illu-yellow--main);"/>
</g>
</svg>
