<?xml version="1.0" encoding="utf-8"?>
<!-- Generator: Adobe Illustrator 23.0.2, SVG Export Plug-In . SVG Version: 6.00 Build 0)  -->
<svg version="1.1" id="Capa_1" xmlns="http://www.w3.org/2000/svg" xmlns:xlink="http://www.w3.org/1999/xlink" x="0px" y="0px" viewBox="0 0 800 475.2" style="enable-background:new 0 0 800 475.2;" xml:space="preserve">

<g>
	<path d="M776.6,164.6c-22.2-41.7-60.8-80.1-114.1-108.3c-56-29.7-125-47.4-196.8-53.6c-72.9-6.4-148.1-1.5-218.1,13
		c-70.8,14.6-142,38.9-191.4,75.2c-26.2,19.2-44.9,42-52,67.2c-7.7,27.4-3.6,55.3,4.2,82.6c15.1,51.6,45.4,102.2,93.5,145.1
		c11.8,10.5,24.5,20.5,38.1,29.9c2.1,1.5,4.6,1.9,6.9,1.5c0.8,0.1,1.6,0.4,2.4,0.4c95,6.5,190.1,14.4,285.5,18.1
		c88.4,3.4,182.5,2,265.4-20.4c36.8-9.9,53.9-29.5,68.2-52.3c13.5-21.3,22.5-43.5,27.4-66.3C805.2,252.6,799.1,206.8,776.6,164.6z" style="fill:#56597A;"/>
	<path d="M491.2,226c-0.3-1.7-0.8-3.7-1.3-5.7c-0.5-11.5-8.1-22.9-20.9-20.1c-4,0.8-3.4,5.8-0.5,7.3
		c0.8,1.3,2.3,2.1,4.2,1.6c5-1.3,7.9,7,9.4,12.6c0,0.4,0,0.8,0,1.2c-0.3,5.2-1.7,10.3-2.5,15.5c-1.6,11.9,1.3,23.7,0.7,35.5
		c-0.3,5.2,7.7,5,7.9,0c0.4-8.3,0.8-16.8,1.7-25.2C490.8,241.1,492.7,233.8,491.2,226z" style="fill:#57455D;"/>
	<path d="M736.1,384.5c-6.4-12.7-23.7-20.9-39.3-26.1c-49.5-16.5-105.6-24.6-159.4-27.4c-56-2.9-112.2,1.1-166.7,11.4
		c-1.6,0.3-2.8,0.9-3.4,1.7c-30.7,1.9-61.3,5-91.6,9.5c-25.5,3.8-51,8.9-75.8,14.7c-22.8,5.4-46.7,10.9-67.9,19.3
		c-15.1,6.1-28.7,15.9-28.7,29.7c0,13.1,12.4,23.4,26.1,30.3c18.1,9.4,40.6,13.6,61.8,17.2c24.5,4.1,49.4,6.5,74.4,7.9
		c106.8,6.1,217,0.7,321.8-15.4c44.9-6.9,95.2-16.9,131.8-38.7C733.4,410.7,743,398,736.1,384.5z" style="fill:#B4C7E7;"/>
	<path d="M469,193.7c-15.9-21.4-45-33.5-71.3-30.4c-24.1,2.8-46.3,18.4-55.3,41.2c-9.7,24.4-0.8,53.6,20.9,68
		c0.5,1.1,1.7,2,3.3,1.9l52.6-3c8.7-0.5,17.5-1.1,26.2-1.6c6.1-0.4,13.1,0.1,18.8-2.5c10.7-5.2,13.1-23,14.4-33.4
		C480.2,219.6,477.6,205.5,469,193.7z" style="fill:#B4C7E7;"/>
	<path d="M436.7,221.3c-1.2-2.6-5.7-2.6-6.9,0c-2.6,6-5.3,9.8-12.3,10.7c-4.5,0.5-9.1,0.5-13.6,0.7
		c-2,0.1-7.8,1.3-9.4,0.4c-1.3-0.8-2.4-3.2-3.2-4.5c-1.7-2.6-3.4-6.8-6.6-7.9c-6.6-2.5-8.1,4.6-7.4,9.3c1.5,11.3,4.6,22.2,8.3,33
		c0.3,0.9,0.9,1.6,1.6,2c0.5,1.2,1.7,2.3,3.4,2.3c17.9,0.5,35.9,0.7,53.3-4.4c1.6-0.4,3-2.1,2.9-3.8
		C445.3,245.9,442,233.3,436.7,221.3z" style="fill:#56597A;"/>
	<path d="M316.2,144.4c-0.9-8.6-4.6-17.3-10.3-23.6c-3.2-5.2-8.2-8.9-13.9-10.3c-0.3-0.1-0.7-0.3-0.9-0.3
		c-0.3,0-0.5,0-0.7-0.1c-2-0.4-4-0.4-6-0.1c-14.7,0.8-28.5,11-31.1,26.2c-3,17.5,9.7,34.7,26.9,37.6c8.7,1.5,19.1,1.9,26.5-3.6
		C314.6,164.1,317.3,153.9,316.2,144.4z" style="fill:#74A2D6;"/>
	<path d="M224.8,229c-2.8,0.1-4.8,0.9-6.4,2.4c-0.1-0.1-0.4-0.3-0.5-0.4c-1.5-1.3-1.5-3.7-1.3-5.6
		c0.3-3.4-3.3-4.6-5.8-3.3c-2.3,0.3-4.4,2.1-3.8,4.9c0.7,3.7-0.8,7-3.6,9.4c-3.3,3.8,1.7,9,5.6,5.6c2.6-3,5.2,1.7,5.7,4
		c1.2,4.1,8.3,3.6,7.8-1.1c-0.1-1.2-0.5-4-0.1-5.8c2.3-0.7,4.4-2.1,5.7-4.2C229.9,232.4,227.7,228.8,224.8,229z" style="fill:#F7D06F;"/>
	<path d="M622.9,278.6c-3.7,0-4-4.6-4-7.3c0-1.9-1.1-3-2.4-3.4c-1.9-2.5-6.4-2.9-7,0.9c-0.4,2.8-2,5.3-4.4,6.6
		c-1.7,0-3.4,0.5-5,1.5c-3.2,1.9-2.1,7.8,2,7.4c1.5-0.1,2.8-0.4,4.1-0.9c1.9,0.8,2.5,4.5,2.6,6.2c0.1,4.5,6.4,5.3,7.8,1.1
		c0.9-2.8,3.4-4.1,6.2-4C628.1,286.5,628.1,278.7,622.9,278.6z" style="fill:#F7D06F;"/>
	<path d="M579.6,104.1c-2.8,0.5-4.6-1.1-4.9-3.3c0.4-1.7,0.5-3.4,0.4-5.3c-0.3-5-8.2-5.2-7.9,0c0,0.4,0,0.7,0,0.9l0,0
		c-0.3,1.1-0.4,2.1-0.4,3.2c-0.9,3.7-3.4,6.8-7.3,8.1l0,0c-0.3,0.1-0.7,0.3-0.9,0.4c-4.1,1.9-1.2,8.9,3,7.3c0.4-0.1,0.7-0.3,1.1-0.4
		c2.6-1.2,4.6,0.5,6.1,2.9c0.3,2.9,1.5,5.8,3.7,8.3c2.6,2.9,7.8-0.1,6.6-3.8c-0.7-2.1-1.5-4.2-2.5-6.2c0.4-2.3,2.5-4.1,5.3-4.6
		C586.8,110.9,584.7,103.3,579.6,104.1z" style="fill:#F7D06F;"/>
	<path d="M460.1,70.8c-4.8,1.6-5-4.4-4.5-7.1c0.5-2.9-2-4.9-4.2-5c-2.6-2-7.5,0.1-6.2,4.1c1.9,5.6-0.3,11-5,14
		c-0.4,0.3-0.9,0.5-1.3,0.8c-4.4,2.8-0.5,9.1,4,6.9c3.3-2.1,6-0.1,7.9,2.8c0.5,2.4,1.9,4.6,3.7,6.8c3.3,3.6,7.9-0.9,6.2-4.8
		c-0.7-1.5-1.5-3-2.5-4.5c-0.4-2.6,1.1-5.2,4.1-6.2C467,76.7,465,69,460.1,70.8z" style="fill:#F7D06F;"/>
	<path d="M366.5,96.7c-1.1,0-2.1,0.1-3,0.4c-4.2,0-6.9-3.6-6.4-8.2c0.3-2.3-1.3-3.6-3-3.7c-2.5-3.2-8.5-1.1-7,3.3
		c1.9,5,0.8,10.1-2.5,13.8c-0.7,0.5-1.2,1.1-1.7,1.7c-3.3,4,1.7,8.9,5.6,5.6c0.3-0.3,0.5-0.5,0.8-0.8c2.8-1.9,5.4,2.6,6.6,5.2
		c0.1,0.3,0.1,0.4,0.3,0.7c2.5,4.6,8.9,0.5,6.9-4c-0.1-0.1-0.1-0.4-0.3-0.5c-0.9-2.4,0.1-4.5,2.4-5.2c0.9,0,1.7-0.1,2.6-0.4
		C371.9,103.5,371,96.6,366.5,96.7z" style="fill:#F7D06F;"/>
	<path d="M286,281.6c-4.8,1.2-8.9-0.8-10.7-4.8c-0.1-1.7-0.4-3.4-1.1-5.2c-0.1-0.5-0.3-1.1-0.5-1.5
		c-0.3-0.7-0.7-1.3-1.1-2c-2.5-4.4-9.4-0.4-6.9,4c0.3,0.4,0.4,0.8,0.7,1.2c0.1,1.7,0.4,3.4,0.9,5c-0.1,2.4-0.9,4.6-2.4,6.6
		c-2,1.1-3.8,2.6-5.3,4.8c-2.4,3.4,2.1,7.1,5.4,5.4c2-1.1,3.6-2.4,5-4c2.9-0.5,5.8,1.9,6.4,5.3c0.8,5,8.5,2.9,7.7-2.1
		c-0.4-2.6,1.5-4.8,3.8-5.4C293.2,287.9,291.1,280.3,286,281.6z" style="fill:#F7D06F;"/>
	<path d="M229.5,176.7c-5.2,0-5.2,7.9,0,7.9C234.5,184.6,234.5,176.7,229.5,176.7z" style="fill:#FFFFFF;"/>
	<path d="M292.4,192.4c-5.2,0-5.2,7.9,0,7.9S297.6,192.4,292.4,192.4z" style="fill:#FFFFFF;"/>
	<path d="M238,290.5c-5.2,0-5.2,7.9,0,7.9C243,298.4,243,290.5,238,290.5z" style="fill:#FFFFFF;"/>
	<path d="M294.9,245.8c-5.2,0-5.2,7.9,0,7.9C299.9,253.7,299.9,245.8,294.9,245.8z" style="fill:#FFFFFF;"/>
	<path d="M523.8,306.3c-5.2,0-5.2,7.9,0,7.9C528.8,314.2,528.8,306.3,523.8,306.3z" style="fill:#FFFFFF;"/>
	<path d="M608.6,214.8c-2.1,0.1-4,1.7-4,4v1.2c0,2.1,1.9,4.1,4,4c2.1-0.1,4-1.7,4-4v-1.2
		C612.6,216.6,610.7,214.7,608.6,214.8z" style="fill:#FFFFFF;"/>
	<path d="M551.6,222.7c-5.2,0-5.2,7.9,0,7.9S556.7,222.7,551.6,222.7z" style="fill:#FFFFFF;"/>
	<path d="M535,168.5c-5.2,0-5.2,7.9,0,7.9C540.1,176.4,540.1,168.5,535,168.5z" style="fill:#FFFFFF;"/>
	<path d="M502.7,84.9c-5.2,0-5.2,7.9,0,7.9S507.9,84.9,502.7,84.9z" style="fill:#FFFFFF;"/>
	<path d="M400.3,66.5c-5.2,0-5.2,7.9,0,7.9C405.3,74.5,405.3,66.5,400.3,66.5z" style="fill:#FFFFFF;"/>
	<path d="M396.6,123.5c-2.1,0.1-4,1.7-4,4v1.2c0,2.1,1.9,4.1,4,4c2.1-0.1,4-1.7,4-4v-1.2
		C400.5,125.3,398.7,123.3,396.6,123.5z" style="fill:#FFFFFF;"/>
	<path d="M343.4,165.8c-2.1,0.1-4,1.7-4,4v1.2c0,2.1,1.9,4.1,4,4c2.1-0.1,4-1.7,4-4v-1.2
		C347.3,167.7,345.5,165.7,343.4,165.8z" style="fill:#FFFFFF;"/>
	<path d="M314.2,81c-5.2,0-5.2,7.9,0,7.9C319.4,88.9,319.4,81,314.2,81z" style="fill:#FFFFFF;"/>
	<path d="M321.5,325.6c-5.2,0-5.2,7.9,0,7.9C326.5,333.5,326.7,325.6,321.5,325.6z" style="fill:#FFFFFF;"/>
	<path d="M464.2,256.5c-12.8-1.2-26.1-0.1-38.9,0.4c-12.7,0.5-25.3,1.6-37.9,3.7c-7.5,1.3-22.9,2-26.3,10.6
		c-3,7.4,4.1,12.2,10.2,14.4c0.8,1.3,2.4,2.3,4.2,2c27.4-3.7,54.7-7.4,82.1-11.3c6.4-0.9,13.4-1.1,19.6-2.8c3.3-0.9,6.4-3,6.8-6.6
		C485,257.5,470.3,257,464.2,256.5z" style="fill:#EF86B0;"/>
	<path d="M525.2,225.6c-1.6-0.9-3.4-0.7-4.8,0.5c-6.4,5.4-10.2,13.2-14.6,20.3l-15.8,25.4c-4.8-1.1-11,0.4-15,0.5
		c-11,0.4-22,0.9-33,1.3l-65.9,2.6c-5.3,0.3-10.6,0.7-15.9,0.7c-3.4,0-5.3-0.4-7.7-3.2c-2-2.3-3.4-5-5.2-7.5
		c-6.4-9.3-12.7-18.5-19.1-27.9c-3.4-5-7.8-15-14.8-15.6c-6.4-0.7-8.6,5.8-7,11c3,9.4,9.7,18.8,15,27.1c5.4,8.5,11.5,16.5,18,24.2
		c0,0.1,0,0.4,0,0.5c1.6,25.5,3.2,51,4.8,76.5c0.8,12.3,1.6,24.6,2.3,36.9c0.5,7.7,0.8,14.2,10.1,14.3c12.2,0.1,24.6-1.3,36.9-2
		c12.3-0.7,24.6-1.3,36.9-2c25.4-1.3,51-2.8,76.4-4.1c1.6-0.1,3.6-1.1,3.8-2.8c1.9-8.9-0.8-17.9-2.1-26.7c-1.7-11.1-3-22.2-4.1-33.5
		c-1.9-20.6-2.6-41.3-2.4-61.9c7.3-10.9,14.7-21.7,22-32.7C528.7,241,534.5,231.1,525.2,225.6z" style="fill:#F7D3BC;"/>
	<path d="M598.8,362.1c-1.1-1.1-2.4-1.2-3.4-0.9h-0.1c-7.3-0.8-17.3,0.8-22.4,6.8c-4.6,5.3-0.8,12.2,5,14.4
		c6.8,2.5,16.1,0.1,22-3.6C606.9,374.3,603.6,366.6,598.8,362.1z M594.9,372.3c-0.8,0.8-3.3,1.3-4.2,1.6c-2.8,0.9-7.7,2.5-10.3,0.7
		c-1.9-1.3-1.3-1.7,0.5-2.9c1.3-0.9,2.8-1.5,4.2-1.9c3.2-0.9,6.4-1.2,9.5-0.8C595.5,369.9,596,371,594.9,372.3z" style="fill:#57455D;"/>
	<path d="M544.6,356.7c-0.7-2.3-2.8-3-4.9-2.8c-3.8,0.5-7.7,1.1-11.5,1.6c-2.1,0.3-3.3,3-2.8,4.9c0.7,2.3,2.8,3,4.9,2.8
		c3.8-0.5,7.7-1.1,11.5-1.6C543.9,361.3,545.1,358.7,544.6,356.7z" style="fill:#57455D;"/>
	<path d="M450.4,423l-13,3c-5,1.2-2.9,8.9,2.1,7.7c4.4-1.1,8.7-2,13-3C457.6,429.5,455.5,421.8,450.4,423z" style="fill:#57455D;"/>
	<path d="M325.2,421.2c-0.7-2.3-2.8-3.2-4.9-2.8c-2.5,0.4-5,0.8-7.5,1.2c-2.1,0.4-3.3,3-2.8,4.9
		c0.7,2.3,2.8,3.2,4.9,2.8c2.5-0.4,5-0.8,7.5-1.2C324.6,425.7,325.8,423,325.2,421.2z" style="fill:#57455D;"/>
	<path d="M307.9,382.2c-4-4.2-10.3-4.9-16.1-4c-0.7-0.1-1.5-0.1-2.3,0.1c-0.9,0.4-2,0.8-3,1.2c-0.7,0.3-1.3,0.5-1.9,0.8
		c-0.1,0.1-0.4,0.1-0.5,0.3c-5.3,2.5-11,6.4-8.2,12.2c3.6,7.5,16.5,5.6,22.8,3.6C304.3,394.7,314.4,389.2,307.9,382.2z M299.8,387.5
		c-1.7,0.9-4,1.6-6,2c-1.7,0.4-3.4,0.5-5.3,0.5c-1.2,0-2.6-0.4-3.8-0.4c0.4-0.3,0.8-0.5,1.2-0.8c1.6-0.9,3.2-1.7,4.9-2.4
		c2.9-0.9,5.8-0.9,8.9,0C301.3,387.1,301.9,386.3,299.8,387.5z" style="fill:#57455D;"/>
	<path d="M333.6,364.1h-6.1c-2.1,0-4.1,1.9-4,4c0.1,2.1,1.7,4,4,4h6.1c2.1,0,4.1-1.9,4-4
		C337.4,366,335.8,364.1,333.6,364.1z" style="fill:#57455D;"/>
	<path d="M541.6,414.1c-5.7,0.5-11.4,1.1-17.1,1.6c-5,0.5-5,8.5,0,7.9c5.7-0.5,11.4-1.1,17.1-1.6
		C546.7,421.5,546.7,413.6,541.6,414.1z" style="fill:#57455D;"/>
	<path d="M384.7,418.8c-4.1-0.4-7.9-0.1-12,0.7c-2.1,0.4-3.3,2.9-2.8,4.9c0.7,2.3,2.8,3.2,4.9,2.8
		c3.3-0.5,6.6-0.7,9.9-0.3c2.1,0.1,4-2,4-4C388.6,420.4,386.9,418.9,384.7,418.8z" style="fill:#57455D;"/>
	<path d="M260.6,409c-2.8,0.3-5.4,0.5-8.2,0.7c-2.1,0.1-4,1.7-4,4c0,2,1.9,4.1,4,4c2.8-0.3,5.4-0.5,8.2-0.7
		c2.1-0.1,4-1.7,4-4C264.6,411,262.7,408.8,260.6,409z" style="fill:#57455D;"/>
	<path d="M386.4,246.4c-3.6-0.9-7.3-1.9-10.9-2.8c-4.9-1.3-7,6.4-2.1,7.7c3.6,0.9,7.3,1.9,10.9,2.8
		C389.3,255.4,391.4,247.7,386.4,246.4z" style="fill:#57455D;"/>
	<path d="M448.9,236l-11,6c-4.5,2.4-0.5,9.3,4,6.9c3.7-2,7.3-4,11-6C457.3,240.3,453.4,233.5,448.9,236z" style="fill:#57455D;"/>
	<path d="M437.1,226c-0.3-1.6-0.5-3.2-0.8-4.8c-0.3-2.1-3-3.4-4.9-2.8c-2.3,0.7-3.2,2.6-2.8,4.9
		c0.3,1.6,0.5,3.2,0.8,4.8c0.3,2.1,3,3.4,4.9,2.8C436.5,230.1,437.3,228.2,437.1,226z" style="fill:#57455D;"/>
	<path d="M387.2,231.5c-0.7-2.3-1.5-4.5-2.1-6.8c-0.7-2-2.8-3.3-4.9-2.8c-2,0.5-3.4,2.8-2.8,4.9
		c0.7,2.3,1.5,4.5,2.1,6.8c0.7,2,2.8,3.3,4.9,2.8C386.4,235.8,387.7,233.5,387.2,231.5z" style="fill:#57455D;"/>
	<path d="M394.2,240.7c-5.2,0-5.2,7.9,0,7.9S399.3,240.7,394.2,240.7z" style="fill:#57455D;"/>
	<path d="M429.7,238.7H429c-2.1,0-4.1,1.9-4,4c0.1,2.1,1.7,4,4,4h0.7c2.1,0,4.1-1.9,4-4
		C433.5,240.6,431.9,238.7,429.7,238.7z" style="fill:#57455D;"/>
	<path d="M419.5,247.5c-1.5-0.8-2.5-1.9-3.4-3.3c-1.3-2.3-4.4-2.6-6.2-0.8c-2.6,2.6-4,5.8-4.4,9.5c-0.3,2.1,2,4,4,4
		c2.4,0,3.7-1.9,4-4l0,0c0.7,0.5,1.3,0.9,2.1,1.5C419.9,256.9,423.8,250,419.5,247.5z" style="fill:#57455D;"/>
	<path d="M472.5,401.6c-4.6-41.6-9.1-83-13.8-124.6c-0.5-5-8.5-5-7.9,0c4.6,41.6,9.1,83,13.8,124.6
		C465.1,406.6,473.1,406.6,472.5,401.6z" style="fill:#57455D;"/>
	<path d="M502.2,277c-2.1-3.7-5.6-6.4-9.7-7.7c-2-0.7-4.4,0.8-4.9,2.8c-0.5,2.1,0.7,4.2,2.8,4.9c2,0.7,3.7,2.1,4.9,4
		c1.1,1.9,3.6,2.5,5.4,1.5C502.7,281.4,503.3,278.9,502.2,277z" style="fill:#57455D;"/>
	<path d="M352.5,276.6c-0.7-2-2.8-3.4-4.9-2.8c-3.2,0.9-5.8,3-7.7,5.8c-1.1,1.7-0.4,4.5,1.5,5.4c2,1.1,4.2,0.4,5.4-1.5
		c0.1-0.1,0.3-0.4,0.4-0.5c-0.4,0.7,0,0.1,0.1-0.1c0.1-0.1,0.3-0.3,0.4-0.4c0,0,0.3-0.1,0.3-0.3c0.3-0.1,0.5-0.4,0.8-0.5
		c0,0,0.4-0.1,0.5-0.3c0.1,0,0.4-0.1,0.4-0.1C351.7,280.8,353.2,278.7,352.5,276.6z" style="fill:#57455D;"/>
	<path d="M290.5,149.7c-10.7,2.5-21.6,3.2-32.6,2.1c-5-0.5-5,7.4,0,7.9c11.6,1.2,23.3,0.4,34.7-2.4
		C297.7,156.1,295.6,148.5,290.5,149.7z" style="fill:#57455D;"/>
	<path d="M306.4,122c-9.8,3.3-19.7,4.6-29.9,4.1c-5.2-0.3-5,7.7,0,7.9c11,0.5,21.7-0.8,32-4.4
		C313.4,128.1,311.3,120.4,306.4,122z" style="fill:#57455D;"/>
	<path d="M736.5,225.8c-1.5-18.5-16-33.1-33.6-34.9c-15.4-7.3-35.1-3.4-46.6,9.3c-13.4,14.8-14.4,38-4.6,54.9
		C674.9,294.7,739.8,269.7,736.5,225.8z" style="fill:#EF86B0;"/>
	<path d="M150.5,218.9c-2.3-5.3-6-9.8-11.4-12.8c-6.9-3.8-15.2-4.1-22.1-1.2c-0.1,0-0.4,0-0.5,0.1
		c-14,3.7-24.9,16.3-25.5,31c-0.5,14.4,9.4,28.5,23.2,32.7s29.9-1.6,37.6-13.9C158.6,244,158,229.1,150.5,218.9z" style="fill:#B4C7E7;"/>
	<path d="M160,224.8c-5.2-0.3-5,7.7,0,7.9c2.1,0.4,2.6,1.5,1.7,3c0,1.9-1.1,2.8-3.2,2.6c-2.4,0.8-4.9,1.3-7.3,2
		c-4.1,1.1-8.1,2.1-12.2,3c-9.4,2.1-18.9,4-28.5,5.3c-9.5,1.5-19.3,2.5-29,3c-1.6,0.1-3.3,0.3-4.9,0c-2.6-0.5-3.8-0.7-2.5-3.4
		c1.9-4,9.1-6.4,13-7.3c5-1.2,2.9-8.9-2.1-7.7c-7.8,1.9-28.2,13.1-16.9,23c4.6,4.1,11.5,3.4,17.2,3c8.7-0.7,17.5-1.7,26.1-2.9
		c9.1-1.3,18.3-3,27.3-5c8.1-1.9,17.1-3.3,24.8-6.5C174.1,240.6,171.7,225.4,160,224.8z" style="fill:#EF86B0;"/>
	<path d="M684.2,241.3c-9.7,5.2-20.3,6.8-30.8,4.5c-5-1.1-7.1,6.6-2.1,7.7c12.8,2.6,25.4,0.9,37.1-5.3
		C692.7,245.6,688.7,238.9,684.2,241.3z" style="fill:#57455D;"/>
	<path d="M720.3,208.2c-12,4.9-24.4,8.1-37.3,9.4c-5,0.5-5,8.5,0,7.9c13.6-1.5,26.7-4.6,39.4-9.7
		C727.2,214,725.1,206.3,720.3,208.2z" style="fill:#57455D;"/>
	<path d="M709.2,251.5h-4.6c-2.1,0-4.1,1.9-4,4c0.1,2.1,1.7,4,4,4h4.6c2.1,0,4.1-1.9,4-4
		C713.1,253.2,711.5,251.5,709.2,251.5z" style="fill:#57455D;"/>
	<path d="M130.8,214.5h-7.7c-5.2,0-5.2,7.9,0,7.9h7.7C135.8,222.5,135.8,214.5,130.8,214.5z" style="fill:#57455D;"/>
	<path d="M119.9,231.3c-4.5,0.1-8.9,1.5-12.7,3.8c-4.4,2.6-0.4,9.5,4,6.9c2.6-1.6,5.6-2.5,8.7-2.8
		C125.1,239,125.1,231.1,119.9,231.3z" style="fill:#57455D;"/>
	<path d="M137.7,258.7c-0.7-1.9-2.8-3.6-4.9-2.8c-1.6,0.7-3.2,1.2-4.6,1.9c-2,0.8-3.4,2.6-2.8,4.9
		c0.7,1.9,2.8,3.6,4.9,2.8c1.6-0.7,3.2-1.2,4.6-1.9C136.9,262.8,138.4,261,137.7,258.7z" style="fill:#57455D;"/>
	<path d="M756.2,308.6c-2.6,0.4-5.2,0.8-7.8,1.3c-0.4-2-0.7-3.8-1.1-5.8c-0.9-5-8.5-2.9-7.7,2.1c0.3,1.7,0.5,3.3,0.9,5
		c-1.9,0.3-3.6,0.5-5.4,0.9c-5,0.8-2.9,8.5,2.1,7.7c1.6-0.3,3-0.5,4.6-0.8l1.2,7c0.9,5,8.5,2.9,7.7-2.1c-0.4-2.1-0.7-4.1-1.1-6.2
		c2.9-0.4,5.7-0.9,8.6-1.3C763.4,315.4,761.2,307.8,756.2,308.6z" style="fill:#F7D06F;"/>
	<path d="M140.4,121.9h-8.3c-1.1-3.7-2-7.4-3-11c-1.3-4.9-9-2.8-7.7,2.1c0.8,2.9,1.6,6,2.5,8.9h-3.2
		c-5.2,0-5.2,7.9,0,7.9h5.4c0.5,1.7,0.9,3.4,1.5,5.2c1.3,4.9,9,2.8,7.7-2.1c-0.3-1.1-0.5-2-0.8-3h6.2
		C145.5,129.8,145.5,121.9,140.4,121.9z" style="fill:#F7D06F;"/>
	<path d="M153.3,297.9c-2.1,0.8-4.4,1.5-6.5,2.3c-0.5-1.3-1.2-2.6-1.7-4c-0.9-2-3.7-2.4-5.4-1.5c-2,1.2-2.3,3.4-1.5,5.4
		c0.4,0.8,0.8,1.7,1.2,2.5c-0.8,0.3-1.6,0.5-2.4,0.8c-4.8,1.6-2.8,9.3,2.1,7.7c1.2-0.4,2.3-0.8,3.4-1.2c0.5,1.3,1.2,2.6,1.7,4
		c0.9,2,3.7,2.4,5.4,1.5c2-1.2,2.3-3.4,1.5-5.4c-0.4-0.8-0.8-1.7-1.2-2.5c1.9-0.7,3.6-1.2,5.4-1.9
		C160.3,303.9,158.2,296.2,153.3,297.9z" style="fill:#F7D06F;"/>
	<path d="M658.5,381.8c-4.6,1.2-9.4,1.7-14.2,2c-5.2,0.1-5.2,8.1,0,7.9c5.4-0.1,10.9-0.9,16.3-2.3
		C665.5,388.3,663.4,380.6,658.5,381.8z" style="fill:#57455D;"/>
	<path d="M613.1,422.7c-6.6,1.6-13.2,2.5-20,2.8c-5.2,0.1-5.2,8.1,0,7.9c7.4-0.3,14.8-1.3,22.1-3
		C620.3,429.2,618.2,421.5,613.1,422.7z" style="fill:#57455D;"/>
	<path d="M296.6,450.7c-3.4,1.6-7,2.1-10.7,1.9c-5.2-0.4-5,7.5,0,7.9c5.2,0.4,10.1-0.7,14.8-2.9
		C305.4,455.3,301.3,448.6,296.6,450.7z" style="fill:#57455D;"/>
	<path d="M197.5,430.4h-12.8c-5.2,0-5.2,7.9,0,7.9h12.8C202.5,438.4,202.5,430.4,197.5,430.4z" style="fill:#57455D;"/>
	<path d="M196.3,394.4c-4.6,1.2-9.3,1.5-14,1.1c-5-0.4-5,7.5,0,7.9c5.4,0.4,10.9,0,16.1-1.3
		C203.4,400.8,201.3,393.1,196.3,394.4z" style="fill:#57455D;"/>
	<path d="M689.8,126.6h-5.2c-0.4-2.1-0.9-4.2-1.5-6.4c-1.5-4.9-9.1-2.8-7.7,2.1c0.4,1.5,0.8,2.9,1.1,4.2h-3
		c-5.2,0-5.2,7.9,0,7.9h4.1c0.1,2.1,0.1,4.4,0,6.5c-0.3,5.2,7.7,5,7.9,0c0.1-2.1,0.1-4.4,0-6.5h4.2
		C694.9,134.6,694.9,126.6,689.8,126.6z" style="fill:#F7D06F;"/>
	<path d="M239.3,67.2h-9c-0.4-2.9-0.8-5.8-1.2-8.7c-0.7-5-8.3-2.9-7.7,2.1c0.3,2.3,0.7,4.4,0.9,6.6h-4
		c-5.2,0-5.2,7.9,0,7.9h5c0.3,1.7,0.5,3.4,0.8,5.2c0.7,5,8.3,2.9,7.7-2.1c-0.1-1.1-0.3-2-0.4-3h7.9
		C244.5,75.1,244.5,67.2,239.3,67.2z" style="fill:#F7D06F;"/>
	<path d="M186.9,109.2c-5.2,0-5.2,7.9,0,7.9C192.1,117.1,192.1,109.2,186.9,109.2z" style="fill:#FFFFFF;"/>
	<path d="M85.6,167.3c-5.2,0-5.2,7.9,0,7.9S90.8,167.3,85.6,167.3z" style="fill:#FFFFFF;"/>
	<path d="M202.1,318.6c-5.2,0-5.2,7.9,0,7.9C207.1,326.5,207.1,318.6,202.1,318.6z" style="fill:#FFFFFF;"/>
	<path d="M128.8,358.1c-5.2,0-5.2,7.9,0,7.9C133.8,366.1,133.8,358.1,128.8,358.1z" style="fill:#FFFFFF;"/>
	<path d="M95,312.7c-5.2,0-5.2,7.9,0,7.9C100.1,320.7,100.1,312.7,95,312.7z" style="fill:#FFFFFF;"/>
	<path d="M302.2,31.2c-2.1,0.1-4,1.7-4,4v1.2c0,2.1,1.9,4.1,4,4s4-1.7,4-4v-1.2C306.2,33,304.3,31.1,302.2,31.2z" style="fill:#FFFFFF;"/>
	<path d="M479,132.8c-5.2,0-5.2,7.9,0,7.9C484.1,140.8,484.1,132.8,479,132.8z" style="fill:#FFFFFF;"/>
	<path d="M532,32.2c-1.6-1.5-4.1-1.6-5.6,0c-0.4,0.4-0.8,0.8-1.2,1.2c-1.5,1.5-1.6,4.1,0,5.6c1.6,1.5,4.1,1.6,5.6,0
		l1.2-1.2C533.4,36.5,533.6,33.7,532,32.2z" style="fill:#FFFFFF;"/>
	<path d="M619.9,128.9h-1.2c-2.1,0-4.1,1.9-4,4c0.1,2.1,1.7,4,4,4h1.2c2.1,0,4.1-1.9,4-4
		C623.8,130.7,622.1,128.9,619.9,128.9z" style="fill:#FFFFFF;"/>
	<path d="M749.1,168.5h-1.2c-2.1,0-4.1,1.9-4,4s1.7,4,4,4h1.2c2.1,0,4.1-1.9,4-4C753,170.3,751.3,168.5,749.1,168.5z" style="fill:#FFFFFF;"/>
	<path d="M683.9,326.8c-5.2,0-5.2,7.9,0,7.9C689.1,334.7,689.1,326.8,683.9,326.8z" style="fill:#FFFFFF;"/>
</g>
</svg>
