<?xml version="1.0" encoding="utf-8"?>
<!-- Generator: Adobe Illustrator 23.0.2, SVG Export Plug-In . SVG Version: 6.00 Build 0)  -->
<svg version="1.1" id="Capa_1" xmlns="http://www.w3.org/2000/svg" xmlns:xlink="http://www.w3.org/1999/xlink" x="0px" y="0px" viewBox="0 0 800 1000.5" style="enable-background:new 0 0 800 1000.5;" xml:space="preserve">

<g>
	<g>
		<path d="M429.9,291c-5.9-5.3-15.3-8.1-22.4-11.7c-10.4-5.1-21.1-10.4-31.6-15.5c-4.6-2.3-9.4-0.3-11.2,4.6
			c-10.4,29.5-22.4,58.5-35.9,86.8c-2.5,5.3,4.6,7.1,6.1,5.9c10.4-9.4,22.7-22.7,35.4-13.5c14.8,10.2,3.1,28.3-5.3,40.5
			c0.3,0,8.1,3.6,8.4,3.6c13,3.1,27.2,9.2,35.4-5.1c4.1-6.9,5.6-15.8,8.1-23.4c3.3-10.2,6.4-20.4,9.4-30.5
			C429.4,321.3,440.3,300.7,429.9,291z" style="fill:#EDEDED;"/>
		<path d="M379,343.2c-6.9-14-19.3-7.1-28.5,0.3c-28.5,22.9-55.7,50.7-89.3,66.4c-4.3-29.8-9.7-59.3-16.5-88.3
			c-5.6-23.7-13-50.7-39.7-57c-0.3,0-0.5,0-0.8,0c-0.3-0.5-0.3-1.3-0.5-1.8c15.5-13.7,13.5-45.3,9.4-62.9
			c-3.1-12.5-6.9-26.7-17.6-35.1c-6.6-5.1-15-7.4-22.9-5.6c-1.5-0.8-3.3-1.3-5.3-0.8c-26.7,5.6-32.8,39.7-27.2,62.4
			c4.1,16.5,17.8,40.2,36.1,46.8v2c-31.8,5.6-52.2,35.6-64.1,64.1c-8.7,20.6-14.8,42-18.3,64.1c-3.3,19.9-6.6,42.3-2.3,62.4
			c4.8,22.7,21.4,32.6,40.7,36.1c-2,1.3-3.8,3.3-4.1,6.1c-10.9,97.5-21.9,195-32.8,292.5c-2.5,23.4-5.3,47.1-7.9,70.5
			c-2.8,24.9-7.1,50.4-8.4,75.6c-1,16.5,10.7,20.6,24.7,24.7c21.9,6.4,44,10.2,66.7,12.7c6.4,0.8,10.4-9.2,5.3-13
			c-7.1-5.3-13.5-11.5-19.3-17.8c17.3,2,34.9,3.8,52.2,5.9c5.3,0.5,8.1-5.3,7.4-9.7c-2.5-15-17.8-17.3-24.2-29.5
			c-4.6-8.9-1.3-20.9,0.8-29.8c2.3-10.4,4.6-21.1,6.6-31.6c8.1-41,15-82.2,20.6-123.7c10.9-82.7,16.5-166.2,16.5-249.7
			c19.1-7.6,37.7-16.8,55.2-27.5c20.1-12,39.5-25.7,58-40.2C364.5,399.5,389.7,365.1,379,343.2z" style="fill:#F7D3BD;"/>
		<path d="M220.9,924.6c-12-13-25.2-21.6-19.6-41.7c1.5-5.3-3.8-11.5-9.4-9.4c-24.2,8.7-49.6,8.4-74.3,13.2
			c-13.2,2.5-37.7,7.9-38.2,24.4c-0.8,1-1.5,2.5-1.5,4.3c-1.5,17.1-6.4,34.1,10.2,44.8c15.5,9.9,34.9,13,52.7,16.8
			c10.9,2.3,35.1,12.5,43.8,0.5c4.6-6.6,1.5-13.7-3.8-20.1c5.9,0.5,11.5,0.8,17.3,0c9.2-1,23.9-3.6,29.5-12
			C232.9,937.6,226.3,930.2,220.9,924.6z" style="fill:#F7D16F;"/>
		<path d="M169,352.6c-0.5-16.3-2.5-32.6-5.3-48.9c-1.8-9.2-2.3-21.4-9.7-27c-0.8-1.8-2.3-3.3-4.8-3.8
			c-52.4-12.5-91.6,30.3-112,73.1c-12,25.2-21.4,51.9-28.3,79.2c-6.6,26.5-10.4,53.7-3.1,80.4c12.5,45.1,54,80.9,102.3,77.6
			c9.4-0.8,20.1-2,27.2-8.9c8.4-7.9,8.7-21.4,10.4-31.8c5.3-31.3,10.4-62.9,15-94.4C165.4,416.5,170.3,384.7,169,352.6z" style="fill:#F7D16F;"/>
		<path d="M86,285.7c-11.2-0.5-19.1,9.7-26,17.1c-9.2,9.9-17.6,20.6-24.9,31.8c-14.8,22.7-25.2,47.9-31.3,74.3
			c-0.5,2,0,4.1,0.8,5.3c0.3,2,1.5,3.8,3.8,4.8c21.6,10.9,47.3,2,56.5-20.6c6.4-15.3,9.4-32.6,13.7-48.6
			c4.8-18.3,9.9-36.4,14.8-54.7C94.7,290.5,90.9,285.9,86,285.7z" style="fill:#56597A;"/>
		<path d="M71,487.5c-4.1-8.4-14.5-8.7-22.7-10.2c-12.7-2.3-25.7-4.6-38.4-6.4c-6.1-0.8-9.9,4.6-9.7,9.2
			c0,0.5,0,0.8,0,1.3c2,21.4,8.7,42,20.9,59.8c4.1,5.9,8.7,14,16.5,14c8.1,0,14.8-6.6,19.3-12.7C65.9,529.8,78.4,502.8,71,487.5z" style="fill:#56597A;"/>
		<path d="M236.2,530.3c-0.3-3.8-3.3-7.9-7.6-7.6c-32.6,2.5-65.4,5.1-98,7.6c-0.8,0-1.5,0.3-2.3,0.5
			c-3.6,0.3-7.1,2.8-7.6,7.1L73,917.7c-0.5,4.1,3.8,7.9,7.6,7.6c20.9-0.8,41.7-3.3,62.1-7.4c16.3-3.3,37.4-6.1,51.4-15.5
			c13.5-9.2,13.2-30.5,15.8-44.8c4.1-22.1,7.9-44,11.5-66.2C235.4,705.2,244.6,617.6,236.2,530.3z" style="fill:#74A3D7;"/>
		<path d="M194.5,151c-20.4-12-42.3-0.5-54,17.6c-7.1,10.9-11.2,23.7-12.2,36.7c-0.5,5.6-1,13,0.8,19.1
			c0,1.5,0.3,2.8,1,4.1c1,3.8,2.5,7.4,5.3,9.7c6.4,5.1,13,0.3,18.3-3.8c10.9-8.4,20.4-18.8,27.7-30.3c6.6,5.3,15,12.2,22.7,15.5
			c-5.1,3.8-3.6,14,4.6,14c6.9,0,8.9-7.4,6.1-12c4.3-0.8,7.9-4.1,10.2-11.7C231.1,187.4,212.8,162,194.5,151z" style="fill:#57455E;"/>
		<path d="M352.8,393.9c-6.4-11.2-16.8-21.4-24.7-31.6c-3.1-4.1-7.4-3.1-10.2,0c-0.8,0.3-1.5,0.3-2,0.8
			c-11.7,5.9-23.4,11.7-35.1,17.6c-1,0.5-17.1,9.4-15.3,10.2c-1.8-0.5-3.1-16-3.3-18.1c-3.6-22.7-5.6-45.6-13.7-67.2
			c-5.3-13.5-15.8-36.1-30.8-41.7c-6.1-2.3-11.7,0.3-15.5,5.3c-3.8,5.3-4.3,11.2-12,13.5c-7.6,2-14.3-2.8-16.8-9.7
			c-1.8-5.1-6.4-6.6-11.2-4.6c-22.1,9.7-37.7,28.5-49.6,48.9c-13.2,22.7-24.7,48.1-31.8,73.6c-11.5,40.7-2.8,93.9,40.5,110.5
			c-1.3,8.4-2.5,17.1-3.3,25.5c-0.8,7.1-1,13.5,6.1,17.6c6.4,3.6,17.8,3.1,24.7,3.6c12.2,0.8,24.4,0.3,36.4-1
			c11.2-1.3,22.4-3.3,33.3-6.1c7.6-2,17.8-3.8,24.2-8.7c5.6-4.3,5.9-9.7,5.3-16.3c-1-11.5-3.3-22.9-4.8-34.1
			c21.9-6.9,42.8-17.1,61.9-30c16.8-11.5,35.1-25.7,47.1-42.3C355.6,403.8,356.1,399.7,352.8,393.9z" style="fill:#EF7D95;"/>
		<path d="M373.9,8C330.1-9.1,271.8,0.4,247.7,44.4c-13,23.9-15.5,52.4-15,79.2c0.3,24.9,4.3,51.7,23.7,69
			c-7.4,13-12,27.2-13.7,42.5c-0.5,3.8,3.8,7.9,7.6,7.6c9.2-0.8,15.3-5.1,21.9-10.9c3.8-3.3,7.9-8.4,13.2-8.9
			c6.1-0.5,13.5,4.1,19.3,5.3c22.7,5.3,46.8,3.3,68.5-4.8c45.1-17.1,74.1-59.3,74.3-107.7C448,67.5,418.7,25.3,373.9,8z" style="fill:#EDEDED;"/>
		<path d="M338,58.6c-0.8-9.7-16-9.9-15.3,0c1.8,23.7,3.3,47.6,5.1,71.3c0.8,9.7,16,9.9,15.3,0
			C341.6,106,339.8,82.3,338,58.6z" style="fill:#57455E;"/>
		<path d="M338,152.8c-9.9,0-9.9,15.3,0,15.3C347.7,168.1,347.7,152.8,338,152.8z" style="fill:#57455E;"/>
		<path d="M154,271.9c-3.8-4.6-9.2-2.5-11.5,1.5c-4.3,0.5-8.1,4.1-6.1,9.2c9.2,22.7,16.5,46.1,17.3,70.8
			c0.8,21.9-7.9,43.3-3.3,64.9c0.8,4.1,5.6,6.4,9.4,5.3l8.9-2.3c3.6-1,5.3-4.1,5.6-7.4C179.4,367.7,185.5,310.9,154,271.9z" style="fill:#56597A;"/>
		<path d="M253,380.1c-1.5-14.5-5.1-29.3-8.4-43.5c-5.9-25.2-9.7-57.3-27-77.6c-5.1-5.9-12.7-0.5-12.7,5.9
			c-1,2-1,4.3,0.5,6.6c16.5,26,19.9,56.3,21.1,86.5c0.3,7.4,0.5,14.8,0.8,22.4c0.3,4.8-1,12.7,1.5,17.3c3.8,7.1,12.5,7.9,18.6,3.1
			C253.5,395.9,254,387.5,253,380.1z" style="fill:#56597A;"/>
		<path d="M166.7,225.9c-9.9,0-9.9,15.3,0,15.3C176.6,241.1,176.6,225.9,166.7,225.9z" style="fill:#57455E;"/>
		<path d="M206.4,241.4c-1.3-3.6-5.3-6.9-9.4-5.3c-3.8,1.5-7.6,2.8-11.5,3.8c-3.8,1.3-6.6,5.3-5.3,9.4
			c1.3,3.8,5.3,6.6,9.4,5.3c3.8-1.3,7.6-2.5,11.5-3.8C204.6,249.5,207.7,245.7,206.4,241.4z" style="fill:#57455E;"/>
		<path d="M253.3,385.2c-32.6,19.9-70.5,26.5-105.6,40.2c-2.5-21.9-3.3-43.8-2.5-65.7c0.5-9.9-14.8-9.9-15.3,0
			c-1,26.2,0.5,52.4,4.1,78.4c0.8,5.3,7.4,6.4,11.2,4.6c37.9-16.8,79.9-22.4,115.8-44.3C269.5,393.4,261.7,380.1,253.3,385.2z" style="fill:#57455E;"/>
		<path d="M245.6,477.9c-39.2,18.1-84.8,32.1-126.5,13.2c-8.9-4.1-16.5,9.2-7.6,13.2c47.3,21.4,97,7.4,141.8-13.2
			C262.4,487,254.5,473.8,245.6,477.9z" style="fill:#57455E;"/>
		<path d="M190.4,771.6c7.1-67.5,11.2-135.2,13-203.1c0.3-9.9-15-9.9-15.3,0c-1.8,72.8-6.6,145.6-14.5,218.1
			c-3.8,35.4-9.2,70.3-13.7,105.6c-3.1,22.7-3.6,48.9,15.3,64.9c7.4,6.4,18.3-4.3,10.7-10.7c-20.9-17.8-11.2-51.9-7.9-75.3
			C182.7,837.8,187.1,804.7,190.4,771.6z" style="fill:#57455E;"/>
	</g>
	<g>
		<path d="M782.2,855.6c-19.9-35.4-55.7-64.1-98.3-59.3c-0.8,0-1.3,0.3-2,0.5c-39.2-5.9-78.7-9.4-118.4-10.9
			c-39.5-1.3-80.2,0.3-115.1,21.4c-18.6,11.2-35.1,25.5-55.2,34.4c-19.9,8.9-41.5,14-61.6,22.4c-15,6.1-31.3,14-40,28.5
			c-7.9,13.2-5.9,29.3,2.5,41.7c9.4,14.3,25.2,21.6,41.2,25.7c22.4,5.3,45.8,7.1,68.5,10.4c46.3,6.6,92.9,13.2,139.2,19.9
			c75.3,10.7,164.9,26,226.5-31.1c13.2-12.5,26.7-29.8,29.8-48.1C802.6,892.5,790.8,871.4,782.2,855.6z" style="fill:#56597A;"/>
		<path d="M400.9,921c-5.1-5.1-10.4-9.9-15.5-15c-7.1-6.9-17.8,4.1-10.7,10.7c5.1,5.1,10.4,9.9,15.5,15
			C397.3,938.6,408,927.9,400.9,921z" style="fill:#57455E;"/>
		<path d="M433.7,873.4c-1.5-5.6-3.3-10.9-4.8-16.5c-2.8-9.4-17.6-5.3-14.8,4.1l4.8,16.5
			C421.8,886.9,436.3,882.8,433.7,873.4z" style="fill:#57455E;"/>
		<path d="M500.7,883.6c-1.8-5.1-3.3-10.2-5.1-15.3c-1.3-3.8-5.3-6.4-9.4-5.3c-3.8,1-6.6,5.3-5.3,9.4
			c1.8,5.1,3.3,10.2,5.1,15.3c1.3,3.8,5.3,6.4,9.4,5.3C499.1,892,501.9,887.7,500.7,883.6z" style="fill:#57455E;"/>
		<path d="M705.3,917.2c-2.8-2.5-7.9-3.3-10.7,0c-3.3,4.1-5.9,8.4-7.4,13.2c-1.3,3.8,1.3,8.4,5.3,9.4
			c4.1,1,8.1-1.3,9.4-5.3c0-0.3,0.5-1.5,0.5-1.8c0.3-0.5,0.5-1,0.8-1.8c0.5-0.8,0.8-1.3,1.3-2c0.3-0.3,0.3-0.3,0.3-0.5
			c0.3-0.3,0.3-0.5,0.5-0.8C707.9,925.1,708.6,920.3,705.3,917.2z" style="fill:#57455E;"/>
		<path d="M641.7,823c-2-3.6-7.1-4.8-10.4-2.8c-3.6,2.3-4.8,6.6-2.8,10.4c0.3,0.8,0.8,1.3,1,2c0,0,0.5,1.5,0.5,1.8
			c0.3,0.8,0.5,1.5,0.5,2.3c0,0.3,0,0.5,0.3,0.8c0,0,0,0.3,0,0.8c0.3,4.1,3.3,7.9,7.6,7.6c3.8-0.3,7.9-3.3,7.6-7.6
			C645.8,833,644.2,827.9,641.7,823z" style="fill:#57455E;"/>
		<path d="M733.3,827.1c-3.6-2-8.4-0.8-10.4,2.8c-2.5,4.6-5.3,9.2-7.9,13.7c-2,3.6-0.8,8.4,2.8,10.4
			c3.6,2,8.4,0.8,10.4-2.8c2.5-4.6,5.3-9.2,7.9-13.7C737.9,834,736.9,829.1,733.3,827.1z" style="fill:#57455E;"/>
		<path d="M577,951.1l-2.5-10.2c-1-3.8-5.6-6.6-9.4-5.3c-4.1,1.3-6.4,5.3-5.3,9.4l2.5,10.2c1,3.8,5.6,6.6,9.4,5.3
			C575.8,959.2,578.1,955.4,577,951.1z" style="fill:#57455E;"/>
		<path d="M505.3,810.6c-1.3-2.5-2.5-5.1-3.8-7.6c-1.8-3.6-7.1-4.8-10.4-2.8c-3.8,2.3-4.6,6.6-2.8,10.4
			c1.3,2.5,2.5,5.1,3.8,7.6c1.8,3.6,7.1,4.8,10.4,2.8C506.3,818.4,507.3,814.4,505.3,810.6z" style="fill:#57455E;"/>
	</g>
	<g>
		<path d="M587.2,748.2c-4.6-14.3-28.5-8.9-39.5-8.4c-5.9,0.5-8.1,5.9-7.1,10.2v0.3c-1.3,29.5-1.3,59.1,0,88.6
			c1,22.7,0.8,31.8,7.9,54.2c5.9,18.6,27.5,14,33.1,9.2c5.9-5.1,5.3-11.7,5.6-18.8c0.5-23.4,0.5-47.1,0.5-70.5c0-11.7,0-23.4,0-35.4
			C587.7,768.6,590,756.6,587.2,748.2z" style="fill:#F7D3BD;"/>
		<path d="M668.7,561.4c-70,13.5-141,19.3-212.3,17.8c-1.8,0-3.1,0.5-4.3,1.3c-3.3,0.5-6.6,2.8-6.4,7.4
			c0.3,24.7,0.8,49.1,1,73.8c0.3,13,0.5,26.2,0.5,39.2c0.3,10.2-1.5,22.7,0.8,32.6c3.8,17.3,30.3,12.7,43.5,13.5
			c24.9,1.3,49.9,1.8,74.8,1.5c24.9-0.3,49.9-1,74.8-2.5c6.6-0.5,15.3,0.5,20.9-4.3c6.4-5.3,5.3-14.5,5.9-22.1
			c3.3-50.4,6.9-100.5,10.2-150.9C678.6,563.4,673,560.3,668.7,561.4z" style="fill:#B6C8E8;"/>
		<path d="M569.9,601.8c-31.3,0-50.1,25.5-50.7,55.2c-0.8,27.7,14.8,51.9,45.1,50.7
			C623.4,705.2,628.5,597.5,569.9,601.8z M534.3,655c1.3-21.6,14.5-38.7,37.4-37.9c1,0,1.8-0.3,2.5-0.5c6.1,0.3,10.9,2.8,14.5,7.1
			c-17.1,18.1-33.9,36.1-50.9,54.2C535,671.6,534,663.4,534.3,655z M561,692.4c-4.8-0.3-8.9-1.3-12.5-3.1
			c15.5-16.8,31.3-33.3,46.8-50.1C599.4,661.9,587.7,693.5,561,692.4z" style="fill:#EF7D95;"/>
	</g>
</g>
</svg>
