<?xml version="1.0" encoding="utf-8"?>
<!-- Generator: Adobe Illustrator 23.0.2, SVG Export Plug-In . SVG Version: 6.00 Build 0)  -->
<svg version="1.1" id="Capa_1" xmlns="http://www.w3.org/2000/svg" xmlns:xlink="http://www.w3.org/1999/xlink" x="0px" y="0px" viewBox="0 0 800 584.6" style="enable-background:new 0 0 800 584.6;" xml:space="preserve">

<g>
	<path d="M728.9,138.3C688.4,89.8,631.6,44,557.6,18.8C520.9,6.2,480.5-0.6,439.5,0c-46,0.8-90.8,10.5-131.6,24.6
		c-78.4,26.9-147.6,69.1-200.8,116.4c-52.2,46.3-90.5,100.9-103,159c-22.4,103.2,47.8,218.8,189.3,266.1c4.6,1.5,9.1,2.9,13.9,4.4
		c29.6,12.1,65,14.9,99.6,13.9c46.3-1.3,93.2-7.4,138-15.5c88.6-16,173.9-44.8,239.4-89.1c60.5-41,104-94.6,113.6-153.1
		C808.7,260.9,776.3,194.8,728.9,138.3z" style="fill:var(--illu-bg--main);"/>
	<path d="M503.1,347.7c-21.7-45.3-74.1-64.8-121.8-58.2c-12.2,0.3-24.2,3.7-35.1,9.7c-21.5,11.8-35.8,33.1-44.6,55.4
		c-15.4,38.7-23.1,98.5,19.1,123.5c23,13.6,53.6,16.4,79.6,14.1c25.9-2.3,52.3-10.4,73.7-25.6c18.6-13.3,32.6-32.1,37.4-54.8
		C515.9,390.3,512.6,367.5,503.1,347.7z" style="fill:var(--illu-blue--light);"/>
	<path d="M387.8,198.6c-0.3-1-1-1.8-2.3-2.2c-8.8-2.2-21.4-4.9-29.9-0.6c-7.6,3.7-10.6,13.3-13.1,20.8
		c-6.8,20.3-8.1,42.2-8.8,63.4c-0.3,8.3,0.1,17.2,6,23.7c5.1,5.6,13,7.4,20.3,7.8c7.1,0.4,16.7,1.2,21.4-5.1
		c4.9-6.5,2.6-16.4,2.2-23.9c-1.3-26.7,1.3-53.5,7.2-79.5C391.3,200.5,389.6,198.8,387.8,198.6z" style="fill:var(--illu-red--light);"/>
	<path d="M460.7,129.7c-14.7-13.6-38.1-20.5-57.7-16.4c-17.3,3.7-32.8,18.1-35,36c-2.6,21.3,15.4,45.7,36.8,48.5
		c0.6,0.1,1.3,0,1.7-0.3c19,2.1,39.2,1.9,51.9-14.6C470.3,167.7,476.8,144.6,460.7,129.7z" style="fill:var(--illu-blue--light);"/>
	<path d="M436.5,147.1c-8.1-7.3-21.3-3.5-28.1,3.5c-8,8.2-10.8,22.2-7.3,33c3.3,10.5,14.2,15.5,24.5,11.5
		c11-4.4,15.8-16.7,15.8-27.7c0-0.6,0-1.4,0-2.2C442.1,158.4,441.2,151.4,436.5,147.1z" style="fill:var(--illu-brown--light);"/>
	<path d="M548.8,382.5c-5-1-9.2,0-14.1,1c-7.8,1.7-13-1.4-18.7-6.5c-9.2-8.3-17.4-17.7-24.5-28
		c16.8-25.6,3.6-60.5-25-69.4c4.9-6.2,6.4-15.6,7.3-23c1.9-15.1,0.3-30.6-4.5-45.1c-3.7-11.2-9.4-27.8-23-29.4
		c-8.2-1-16.9,0.1-25.1,0.8c-9,0.8-17.8,1.8-26.7,3.3c-1,0.1-1.7,0.6-2.1,1.3c0,0,0,0-0.1,0c-18,18.3-32.2,40.3-40.8,64.4
		c-3.6,10.1-6.3,23.1,1,32.3c4.5,5.6,11.9,9,18.9,7.3c1,17.8,5.1,39,24.5,44.9c9.5,2.8,20.1,0.8,29.5-1.7c3.8,4.1,7.6,8.2,11,12.6
		c-6.8,13-13.2,26-19.4,39.2c-2.7,5.8-5.3,11.5-7.8,17.4c-1.7,3.8-4.6,8.6-2.4,12.8c1.9,4,7.7,5.3,11.4,6.7l19.1,7.3
		c2.7,1,5.4-2.6,3.8-4.9c-6.8-9.6,0.1-21.2,7.2-28.3c6.4-6.5,13.7-12.2,18.6-20.1c7.6,7.1,15.3,13.9,23.2,20.5
		c3.7,3.1,7.4,6.2,11.3,9.1c3.7,2.9,7.6,6.8,11.8,8.8c6.2,3.1,14.2-4.4,18.7-8c7.4-5.9,13.7-13,19-20.9
		C552,385.7,550.8,382.8,548.8,382.5z" style="fill:var(--illu-white--light);"/>
	<path d="M446.7,147.8c-8.3-14.2-29-15.4-38.9-2.2c-2.3,3.1-2.9,5.9-6.7,8c-1.4,0.8-3.2,0.9-4.6,1.7
		c-3.7,1.9-6.4,5-8.1,8.8c-2.7,6.5-1.2,13.9,3.5,19.2c4.4,5,13.1,9.7,19.5,5.5c6-4.1,5.5-14.1,5.5-21.5c0.3,0,0.5-0.1,0.8-0.1
		c-0.6,2.2,0.5,5,3.6,5c4,0,4.7-4.7,2.4-6.8c1.2-0.5,2.4-1.3,3.5-1.9c1.5,1.4,3.5,2.7,5.4,3.6c-1,0.6-1.8,1.9-1.7,3.2
		c0.1,2.1,1.7,3.8,3.8,3.8h0.3c2.1,0,4-1.8,3.8-3.8c0-0.5-0.1-1-0.4-1.4c2.6,0.3,5-0.4,7.2-2.1C451.5,162.1,450,153.3,446.7,147.8z" style="fill:var(--illu-bg--light);"/>
	<path d="M457.7,186.4c0.9-2.2-1-4.2-3.2-4.5c-11.8-1.3-23.9-0.9-35.7-1c-5.8-0.1-11.4-0.1-17.2-0.3
		c-4.9-0.1-10-0.9-14.2,1.8c-1.3,0.8-2.1,2.3-1.5,3.8c0.5,1.7,1.3,2.8,2.4,3.7c0.5,0.9,1.3,1.4,2.6,1.5c1.3,0.5,2.8,0.9,4.5,1.2
		c6.9,1,14,1.7,21,2.1c7.4,0.4,14.9,0.5,22.3,0.1c4.9-0.1,13.5,0.9,17.4-2.6C457.7,190.6,458.3,188.3,457.7,186.4z" style="fill:var(--illu-red--light);"/>
	<path d="M431.3,174.6c-2.6-0.3-5-0.6-7.6-0.9c-2.1-0.3-3.8,1.9-3.8,3.8c0,2.3,1.8,3.6,3.8,3.8c2.6,0.3,5,0.6,7.6,0.9
		c2.1,0.3,3.8-1.9,3.8-3.8C435.1,176.1,433.3,174.8,431.3,174.6z" style="fill:var(--illu-bg--light);"/>
	<path d="M458,380.7c-8.8-5.5-18.2-10.4-27.2-15.5c-2.3-1.3-4.4,0-5.3,1.8c-0.5,0.3-0.9,0.8-1.3,1.3
		c-4.9,8.2-9.4,16.7-13.2,25.4c-2.4,5.5-8.7,15.1-5.9,21.3c0.4,0.8,0.8,1.4,1.3,1.9c2.6,6.3,11.8,9.2,19.7,10.3
		c4.9,2.6,12.8,7.4,16.9,3.2c5.4-5.4-3.3-12.2-1.9-17.6c1-4,6.2-8,8.8-10.9c3.2-3.5,6.5-6.8,9.6-10.4
		C463.2,387.2,462.8,383.7,458,380.7z" style="fill:var(--illu-blue--main);"/>
	<path d="M440.3,247.5c0-3.8,0-7.6-0.1-11.4c-0.1-3.3,0.1-7.3-1-10.4c-2.3-5.9-10-4.9-15.1-5.1
		c-5-0.1-13.6-2.1-16.5,3.5c-1.7,3.2-1.9,8-2.4,11.5c-0.6,4.1-1.3,8.3-1.8,12.4c-0.3,1.4,0.4,2.4,1.3,3.1c0.1,1,0.6,1.9,1.9,2.6
		c9.2,4.5,21.8,1.5,31.7,0.9C442.1,254.5,442.8,249.3,440.3,247.5z" style="fill:var(--illu-yellow--main);"/>
	<path d="M437.1,262.9c-5-2.4-13.1-2.1-18.5-1.9c-4.6,0.1-11.2,0-13.2,5.1c-0.9,2.3-0.8,4.2,0,5.6
		c0.4,3.8,0.6,7.7,5.1,8.5c6.9,1.3,15.1,0.6,22.2,0.8c5,0.1,7.7-1,8-6.4C440.9,270.5,441.3,265,437.1,262.9z M421.8,269
		c-3.8-0.1-7.4-0.3-7.4-0.4C414.4,268.5,417.9,268.7,421.8,269z" style="fill:var(--illu-yellow--main);"/>
	<path d="M537.2,437.1c-5.6-11.2-17.2-17.8-29.5-17.1c-3.7,0.3-5.1,5-1.9,7.2c2.1,1.4,4.2,2.7,6.3,4.1
		c-44.2,5.8-89.3,4.7-133.1-2.9c-23-4.1-45.7-9.9-67.7-17.6c-11.4-4-22.7-8.3-33.9-13.3c-1.9-0.8-7.3-1.8-5.6-5.1
		c0.9-1.7,6.8-2.3,8.2-2.7c6.3-1.7,12.6-3.3,18.9-5c1.9-0.5,2.7-1.9,2.7-3.5c2.1-2.2,1.3-6.8-2.4-6.5c-3.2,0.1-7.8,0.6-13,1.7
		c-5.8,0.1-11.3,1.4-15.9,4.9c-9.4,4.1-16.4,10.5-14.1,20.3c2.1,8.2,10.9,11.7,18,14.4c10.6,8.7,24.8,11.7,38.5,13.2
		c45.8,13.6,93.6,20.5,141.3,20.5c27.2,0,54.2-2.3,81-6.8C537.6,442.3,538.2,439.1,537.2,437.1z" style="fill:var(--illu-red--light);"/>
	<path d="M358.6,332.6c-1.9-4.7-7.6-4.1-10.8-1.3c-3.2,2.8-5.6,6.9-7.1,10.9c-0.6,1.9-0.9,4,0.4,5.6
		c1.5,2.2,4.4,2.6,6.7,1.4c2.8-0.6,5.4-3.1,7.1-5C357.3,341.3,360.2,336.5,358.6,332.6z" style="fill:var(--illu-yellow--main);"/>
	<path d="M380.5,139.3c-0.3-0.8-0.6-1.3-1.2-1.8c-1.3-2.4-5.4-2.4-6.7,0c-2.1,4-7.3,16.7-2.4,20.9
		c1,1.3,2.7,1.8,4.1,1.3c3.3-0.4,5.1-4.4,6-7.3C381.8,148.2,381.7,143.5,380.5,139.3z" style="fill:var(--illu-yellow--main);"/>
	<path d="M649.2,366.9c-1,0.4-2.2,0.8-3.2,1.2c-0.3-1.5-0.5-3.1-0.6-4.6c-0.3-2.1-2.9-3.2-4.7-2.7
		c-2.2,0.6-2.9,2.7-2.7,4.7c0.1,1.3,0.4,2.4,0.5,3.7c-0.9,0-1.9,0-2.9-0.1c-5-0.4-4.9,7.3,0,7.7c1.4,0.1,2.7,0.1,4.1,0.1v0.3
		c0.3,2.1,2.9,3.2,4.7,2.7c1.9-0.5,2.8-2.2,2.7-4c1.4-0.4,2.8-0.8,4.2-1.4C655.8,372.6,653.8,365,649.2,366.9z" style="fill:var(--illu-yellow--main);"/>
	<path d="M563.2,305.3c-0.9,0.1-1.9,0.4-2.8,0.5c-0.6-1.9-1.4-3.7-2.2-5.5c-2.1-4.5-8.7-0.6-6.7,3.8
		c0.5,1,0.9,2.2,1.3,3.2c-2.4,0.6-5,1.3-7.4,1.9c-4.7,1.4-2.7,8.8,2.1,7.4c2.4-0.6,4.9-1.3,7.3-1.9c0.1,1.2,0.3,2.4,0.4,3.6
		c0.3,4.9,8,5,7.7,0c-0.1-1.8-0.3-3.5-0.6-5.3c1-0.1,2.1-0.4,3.1-0.5C570.2,311.8,568.1,304.4,563.2,305.3z" style="fill:var(--illu-yellow--main);"/>
	<path d="M322.4,145.6h-4.9c-0.4-3.2-0.9-6.4-1.3-9.6c-0.6-4.9-8.1-2.8-7.4,2.1c0.4,2.6,0.6,5,1,7.6h-2.9
		c-5,0-5,7.7,0,7.7h4l0.4,2.6c0.6,4.9,8.1,2.8,7.4-2.1c0-0.1,0-0.4-0.1-0.5h3.8C327.3,153.3,327.3,145.6,322.4,145.6z" style="fill:var(--illu-yellow--main);"/>
	<path d="M242,319c3.5-2.3,1.4-8.6-2.9-7.1c-0.9,0.4-2.6,1-3.6,0.5l-0.1-0.1c0-0.5,0.1-1.2,0.1-1.7
		c1.3-2.2-0.1-4.6-2.1-5.5c-2.6-1.5-6.7,0.5-5.8,4.1c-0.4,1.3-0.5,2.7-0.3,4.1c-0.5,1.2-1.5,2.2-2.8,2.9c-4.5,2.4-0.5,8.6,3.8,6.7
		c1.9-0.9,4.4,0,5.6,1.5c0.3,0.8,0.6,1.4,1,2.1c2.3,3.3,8.6,1.4,7.1-2.9c-0.1-0.3-0.3-0.6-0.4-0.9l0,0l0,0c-0.1-0.4-0.3-0.6-0.5-0.9
		C240.7,320.6,240.8,319.6,242,319z" style="fill:var(--illu-yellow--main);"/>
	<path d="M290.6,489.2c-2.1,0.1-4,0.4-6,0.5c-0.6-2.2-1.4-4.4-2.4-6.4c-2.1-4.5-8.7-0.5-6.7,3.8c0.5,1,0.9,2.1,1.3,3.2
		c-0.4,0-0.6,0-1,0.1c-4.9,0.4-5,8.1,0,7.7c0.8-0.1,1.7-0.1,2.4-0.3c0,0.4,0,0.8,0,1.2c0.1,5,7.8,5,7.7,0c0-0.6,0-1.3-0.1-1.8
		c1.5-0.1,3.1-0.3,4.7-0.4C295.5,496.5,295.5,488.8,290.6,489.2z" style="fill:var(--illu-yellow--main);"/>
	<path d="M491.4,479.9c-0.6,0-1.4-0.1-2.1-0.1l-0.4-6.2c-0.3-4.9-8-5-7.7,0l0.4,5.6c-1.4-0.1-2.8-0.1-4.1-0.3
		c-5-0.4-4.9,7.3,0,7.7c1.5,0.1,3.1,0.3,4.6,0.3l0.1,2.8c0.3,4.9,8,5,7.7,0l-0.1-2.3c0.5,0,1,0.1,1.5,0.1
		C496.4,487.9,496.3,480.2,491.4,479.9z" style="fill:var(--illu-yellow--main);"/>
	<path d="M254.2,192.4c-2.4,0.3-5,0.5-7.4,0.5l-1.5-6.5c-1.2-4.9-8.6-2.8-7.4,2.1l1,4.4h-0.1c-5-0.4-4.9,7.3,0,7.7
		c0.6,0,1.3,0,2.1,0.1l1.3,5.6c1.2,4.9,8.6,2.8,7.4-2.1c-0.3-1.2-0.6-2.4-0.9-3.6c1.9-0.1,3.7-0.3,5.6-0.5
		C259.1,199.5,259.1,191.8,254.2,192.4z" style="fill:var(--illu-yellow--main);"/>
	<path d="M149.9,433.2h-3.2c-0.3-2.6-0.5-5.1-0.8-7.8c-0.5-4.9-8.2-4.9-7.7,0c0.3,2.6,0.5,5.1,0.8,7.8h-2.3
		c-5,0-5,7.7,0,7.7h3.2c0.3,1.8,0.4,3.6,0.6,5.5c0.5,4.9,8.2,4.9,7.7,0c-0.3-1.8-0.4-3.6-0.6-5.5h2.3
		C154.8,440.9,154.8,433.2,149.9,433.2z" style="fill:var(--illu-yellow--main);"/>
	<path d="M492.2,76.5h-3.7c-0.1-1-0.3-2.1-0.3-3.1c-0.3-4.9-8-5-7.7,0c0.1,1,0.1,2.1,0.3,3.1h-2.6c-5,0-5,7.7,0,7.7h3.7
		c0.4,1.9,0.8,3.7,1.3,5.6c1.3,4.7,8.7,2.7,7.4-2.1c-0.4-1.2-0.6-2.4-0.9-3.6h2.4C497.2,84.2,497.2,76.5,492.2,76.5z" style="fill:var(--illu-yellow--main);"/>
	<path d="M383.3,66.5c-0.8,0.1-1.5,0.3-2.3,0.4c-0.4-2.3-0.9-4.6-1.5-6.9c-1.3-4.7-8.7-2.7-7.4,2.1
		c0.4,1.4,0.8,2.9,1,4.4l0,0c-4.7-1.2-6.8,6.3-2.1,7.4c1,0.3,2.2,0.5,3.2,0.6c0.1,2.4,0.3,5,0.1,7.6c-0.1,5,7.6,5,7.7,0
		c0.1-2.4,0-5-0.1-7.4c1.2-0.1,2.3-0.4,3.5-0.6C390.2,72.8,388.2,65.3,383.3,66.5z" style="fill:var(--illu-yellow--main);"/>
	<path d="M239.2,435.5c-2.1,0.1-3.8,1.7-3.8,3.8v1.3c0,2.1,1.8,4,3.8,3.8c2.1-0.1,3.8-1.7,3.8-3.8v-1.3
		C243,437.5,241.2,435.5,239.2,435.5z" style="fill:var(--illu-white--light);"/>
	<path d="M195.6,374c-5,0-5,7.7,0,7.7S200.6,374,195.6,374z" style="fill:var(--illu-white--light);"/>
	<path d="M278.9,317.6c-2.1,0.1-3.8,1.7-3.8,3.8v1.3c0,2.1,1.8,4,3.8,3.8c2.1-0.1,3.8-1.7,3.8-3.8v-1.3
		C282.8,319.5,281,317.6,278.9,317.6z" style="fill:var(--illu-white--light);"/>
	<path d="M217.5,254.6c-1.5-1.4-4-1.5-5.4,0c-0.4,0.4-0.9,0.9-1.3,1.3c-1.4,1.4-1.5,4,0,5.4c1.5,1.4,4,1.5,5.4,0
		l1.3-1.3C218.9,258.6,219,256,217.5,254.6z" style="fill:var(--illu-white--light);"/>
	<path d="M289.2,182.9h-1.3c-2.1,0-4,1.8-3.8,3.8c0.1,2.1,1.7,3.8,3.8,3.8h1.3c2.1,0,4-1.8,3.8-3.8
		C292.9,184.7,291.4,182.9,289.2,182.9z" style="fill:var(--illu-white--light);"/>
	<path d="M278.9,247c-2.1,0.1-3.8,1.7-3.8,3.8v2.6c0,2.1,1.8,4,3.8,3.8c2.1-0.1,3.8-1.7,3.8-3.8v-2.6
		C282.8,249,281,247,278.9,247z" style="fill:var(--illu-white--light);"/>
	<path d="M281.5,126.5h-1.3c-2.1,0-4,1.8-3.8,3.8c0.1,2.1,1.7,3.8,3.8,3.8h1.3c2.1,0,4-1.8,3.8-3.8
		C285.2,128.3,283.7,126.5,281.5,126.5z" style="fill:var(--illu-white--light);"/>
	<path d="M349.5,86.7c-5,0-5,7.7,0,7.7S354.5,86.7,349.5,86.7z" style="fill:var(--illu-white--light);"/>
	<path d="M430.3,79c-5,0-5,7.7,0,7.7S435.3,79,430.3,79z" style="fill:var(--illu-white--light);"/>
	<path d="M529,95.7c-5,0-5,7.7,0,7.7S534,95.7,529,95.7z" style="fill:var(--illu-white--light);"/>
	<path d="M503.4,147c-2.1,0.1-3.8,1.7-3.8,3.8v1.3c0,2.1,1.8,4,3.8,3.8s3.8-1.7,3.8-3.8v-1.3
		C507.2,148.9,505.4,147,503.4,147z" style="fill:var(--illu-white--light);"/>
	<path d="M624.3,276.9c-0.4-0.4-0.9-0.9-1.3-1.3c-1.4-1.4-4-1.5-5.4,0c-1.4,1.5-1.5,4,0,5.4l1.3,1.3
		c1.4,1.4,4,1.5,5.4,0C625.7,280.8,625.8,278.5,624.3,276.9z" style="fill:var(--illu-white--light);"/>
	<path d="M511.1,239.3h-2.6c-2.1,0-4,1.8-3.8,3.8c0.1,2.1,1.7,3.8,3.8,3.8h2.6c2.1,0,4-1.8,3.8-3.8
		C514.8,241.1,513.2,239.3,511.1,239.3z" style="fill:var(--illu-white--light);"/>
	<path d="M609.9,231.6c-5,0-5,7.7,0,7.7S614.9,231.6,609.9,231.6z" style="fill:var(--illu-white--light);"/>
	<path d="M689.6,227.8c-5,0-5,7.7,0,7.7C694.6,235.5,694.6,227.8,689.6,227.8z" style="fill:var(--illu-white--light);"/>
	<path d="M508.5,288.1c-2.1,0.1-3.8,1.7-3.8,3.8v1.3c0,2.1,1.8,4,3.8,3.8c2.1-0.1,3.8-1.7,3.8-3.8v-1.3
		C512.3,290,510.5,288.1,508.5,288.1z" style="fill:var(--illu-white--light);"/>
	<path d="M579,370.1c-5,0-5,7.7,0,7.7S584,370.1,579,370.1z" style="fill:var(--illu-white--light);"/>
	<path d="M538,458.6c-5,0-5,7.7,0,7.7S543,458.6,538,458.6z" style="fill:var(--illu-white--light);"/>
	<path d="M435.4,502.2c-5,0-5,7.7,0,7.7S440.4,502.2,435.4,502.2z" style="fill:var(--illu-white--light);"/>
	<path d="M346.9,517.6c-5,0-5,7.7,0,7.7S351.9,517.6,346.9,517.6z" style="fill:var(--illu-white--light);"/>
	<path d="M305.1,367.1c-0.9-3.1-6-3.6-7.4,0.1c-0.5,1.4-1,2.8-1.4,4.2c-0.5,0.4-0.9,1-1.2,1.7
		c-1.8,4.5-2.8,9.1-3.5,13.9c0,0,0,0,0,0.1l0,0c0,0.4-0.1,0.6-0.1,1c-0.3,2.4,1.7,3.7,3.7,3.7c1.5,0.4,3.3,0,4.5-1.3
		c1.3-0.1,2.4-1,2.7-2.7c1-5.6,2.6-11.2,4.5-16.5C307.7,369.2,306.6,367.7,305.1,367.1z" style="fill:var(--illu-blue--light);"/>
	<path d="M506.6,416.2c-2.2-0.5-4,0.6-4.7,2.7c0,0-0.3,0.5-0.3,0.6c-0.1,0.4-0.4,0.6-0.5,1l0,0l0,0
		c-0.4,0.6-0.8,1.4-1.2,2.1c-0.3,0.5-0.4,1-0.5,1.5c-0.4,1.5,0.3,3.3,1.8,4.2c1.8,0.9,4.2,0.5,5.3-1.4c0.4-0.9,0.9-1.7,1.3-2.6
		c0,0,0-0.1,0.1-0.1c0.5-1.2,1-2.2,1.5-3.5C509.9,419.1,508.5,416.7,506.6,416.2z" style="fill:var(--illu-blue--light);"/>
	<path d="M552,380.1c-7.8-7.3-20.5,5-28.3,0c-5.5-3.5-10.3-8.3-14.9-12.7c-2.3-2.2-4.7-4.9-8.3-4.2
		c-0.3,0-0.6,0.1-0.9,0.3c-1.2,0-2.3,0.3-3.6,1c-3.1,1.8-5.9,5.1-8,8.3c-0.1,0.1-0.3,0.1-0.4,0.3c-5.5,4.9-16.5,13.1-11.2,21.4
		c5,7.7,14.1,14.2,21.7,19.2c6.5,4.4,15.3,10.6,23.5,7.2c9.1-3.8,17.3-14.2,23.3-21.7C548.1,395.3,557.9,385.7,552,380.1z" style="fill:var(--illu-blue--main);"/>
	<path d="M460.1,262.4c-0.3-2.4-0.5-4.7-2.6-6.4c-1.3-1-2.7-0.9-4.1-0.9c-0.1-4.5-3.3-8.6-9-10
		c-6.7-1.5-14,1.9-20.4,3.1c-1.9,0.4-3.7,0.6-5.6,0.8c-0.3-0.3-0.5-0.6-0.9-0.9c-4.9-3.7-10.6-7.4-16.9-5.4
		c-3.5,1.2-5.9,3.5-7.1,6.4c-0.8,0.5-1.5,1.3-2.1,2.2c-1.3,2.3-1,5-0.4,7.4c0.1,0.4,0.3,0.8,0.5,1.2c1,5.5,1.8,12.4,5,16.7
		c3.3,4.4,9,3.1,13.6,2.2c3.2-0.6,6.4-1.3,9.7-2.1c6.7,3.5,13.6,6.5,20.8,9c5.8,1.9,12.8,4.5,16.2-2.3
		C459.6,277.8,460.7,268.6,460.1,262.4z" style="fill:var(--illu-blue--main);"/>
	<path d="M396.8,226.9c-1.8,0-3.7,1-4.6,2.7c-0.5,0.9-0.6,1.8-0.8,2.8c0,0.3,0,0.6,0,0.9c0,0.3-0.1,1.2,0.1,0.3
		c-0.1,1,0,2.1,0.4,2.9c0.4,1.4,1,2.6,2.4,3.5c1.9,1.2,4.6,0.6,6.2-1c1.2-1.3,1.8-2.9,2.1-4.6C403.1,230.6,400.6,226.8,396.8,226.9z
		" style="fill:var(--illu-blue--main);"/>
	<path d="M393.3,251.9c-0.5-1.8-2.8-3.5-4.7-2.7c-1.7,0.6-3.2,1.3-4.9,1.9c2.7-10.6,5.8-21.2,9.1-31.5
		c1.5-4.7-5.9-6.8-7.4-2.1c-4,12.3-7.6,24.8-10.6,37.3c-0.1,0.6-0.1,1.3,0,1.9c-0.1,0.5,0,1,0.1,1.5c0.5,1.8,2.8,3.5,4.7,2.7
		c3.6-1.5,7.3-2.9,10.9-4.5C392.6,255.9,393.8,254.1,393.3,251.9z" style="fill:var(--illu-bg--light);"/>
	<path d="M400.3,279.4c-8.6,4-17.4,7.2-26.7,9.6c-4.7,1.3-2.7,8.7,2.1,7.4c9.9-2.6,19.2-6,28.5-10.4
		C408.6,284,404.7,277.3,400.3,279.4z" style="fill:var(--illu-bg--light);"/>
	<path d="M416.5,270.5c-2.9-5.5-5.4-11.2-7.4-17.2c-1.5-4.7-9-2.7-7.4,2.1c2.2,6.5,4.9,13,8.2,19
		C412.3,278.7,418.8,274.9,416.5,270.5z" style="fill:var(--illu-bg--light);"/>
	<path d="M449,256c-0.5,0-1,0.1-1.5,0.4c-9.4,4.2-18.7,8.3-28.1,12.6c-4.5,2.1-0.6,8.6,3.8,6.7
		c7.7-3.3,15.3-6.8,23-10.3c-1,4.4-2.1,8.8-3.3,13.2c-1.4,4.7,6,6.8,7.4,2.1c1.9-6.7,3.6-13.5,4.9-20.4
		C455.9,256.3,451.3,254.2,449,256z" style="fill:var(--illu-bg--light);"/>
	<path d="M455.7,216c-0.4-4.9-8.1-5-7.7,0c0.8,10.4,1,20.8,0.6,31.2c-0.1,5,7.6,5,7.7,0
		C456.7,236.9,456.4,226.5,455.7,216z" style="fill:var(--illu-bg--light);"/>
	<path d="M444.8,322.1c-6.8,1.5-13.3,4.1-19.5,7.4c-4.4,2.3-0.5,9,3.8,6.7c3.3-1.8,6.8-3.3,10.4-4.5
		c-2.2,5.6-4.7,11.2-7.6,16.5c-2.3,4.4,4.4,8.2,6.7,3.8c4.2-8.1,7.8-16.5,10.8-25.1C450.5,323.9,447.4,321.4,444.8,322.1z" style="fill:var(--illu-bg--light);"/>
	<path d="M484.4,347.3L465,373.5c-2.9,4,3.7,7.8,6.7,3.8l19.4-26.2C494,347.3,487.3,343.5,484.4,347.3z" style="fill:var(--illu-bg--light);"/>
	<path d="M452.4,383.7c-8.7-5.1-17.3-10.3-26-15.3c-4.2-2.6-8.2,4.1-3.8,6.7c8.7,5.1,17.3,10.3,26,15.3
		C452.8,393,456.8,386.3,452.4,383.7z" style="fill:var(--illu-bg--light);"/>
	<path d="M503.9,367.2c-8.1,7.8-16.3,15.6-24.4,23.5c-3.6,3.5,1.9,8.8,5.4,5.4l24.4-23.5
		C512.8,369.1,507.3,363.7,503.9,367.2z" style="fill:var(--illu-bg--light);"/>
	<path d="M377.3,147c0.1-1.3-0.3-2.6-1.9-3.3c-13.1-6-28.5,1.2-31.4,15.5c-1.9,9.5,0.8,19.7-6.4,27.6
		c-5.4,5.8-13,9.2-19,14.4c-13.2,11.2-16.8,29.2-17.1,45.7c-0.1,8.2,0.3,16.8,5.1,23.7c2.4,3.5,5.8,6.2,7.8,9.7
		c3.1,5.3,1.3,11,0.1,16.5c-4.4,23.1,13.7,36.2,31.9,45.8c1.7,0.9,3.3,0.4,4.4-0.5c3.3-0.3,4.4-6.2,0.4-7.7
		c-9-3.6-16.3-10.5-20.6-19.1c-4.6-9.1-3.7-17.4-3.6-27.3c0.1-10.4-5.9-17.2-9.6-26.4c-3.8-9.6-5.5-20.3-3.2-30.4
		c2.3-10.1,7.8-18.5,16.3-24.5c6.4-4.5,13.7-8.2,18.3-14.7c4.6-6.3,5.1-13.7,5.8-21.2c0.9-9.7,5.3-20.9,17.3-16.4
		c2.8,1,4.6-1.3,4.6-3.6c0.3-0.5,0.4-1,0.4-1.7v-1.3C377.3,147.5,377.3,147.3,377.3,147z" style="fill:var(--illu-bg--light);"/>
	<path d="M338.4,394.6c-13.1-3.8-26.4-7.8-37.3-16.4c-3.8-3.1-9.4,2.3-5.4,5.4c12.1,9.5,26.2,14.1,40.7,18.5
		C341.1,403.5,343.2,396.1,338.4,394.6z" style="fill:var(--illu-bg--light);"/>
	<path d="M384.1,369.1c-5.3-0.6-10.3-2.4-14.7-5.1c-4.2-2.6-8.2,4.1-3.8,6.7c5.8,3.5,12.1,5.4,18.7,6.3
		C389,377.3,389,369.6,384.1,369.1z" style="fill:var(--illu-bg--light);"/>
	<path d="M436.2,462.1c-14,2.8-28,0.5-41.8-1.9c-4.9-0.9-6.9,6.5-2.1,7.4c15.3,2.7,30.5,5,45.9,1.9
		C443.1,468.5,441,461.1,436.2,462.1z" style="fill:var(--illu-bg--light);"/>
	<path d="M349.9,454.5c-19.2-0.9-37.4-7.1-53.2-18c-4.1-2.8-8,3.8-3.8,6.7c17.1,11.7,36.7,18.1,57.2,19
		C354.9,462.4,354.9,454.7,349.9,454.5z" style="fill:var(--illu-bg--light);"/>
	<path d="M475.5,410.9H471c-2.1,0-4,1.8-3.8,3.8c0.1,2.1,1.7,3.8,3.8,3.8h4.5c2.1,0,4-1.8,3.8-3.8
		C479.2,412.7,477.7,410.9,475.5,410.9z" style="fill:var(--illu-bg--light);"/>
	<path d="M154.7,308.7c-6.8-13-20.8-19.9-34.6-19.5c-22.3-2.2-44.2,10.1-53.3,30.9c-9,20.6-4.5,47.1,16.4,58.3
		c19.9,10.6,46.7,9.4,63.9-5.9C164.9,356.8,165.3,329,154.7,308.7z" style="fill:var(--illu-blue--main);"/>
	<path d="M732,266.3c-0.3-1-1.2-2.1-2.7-2.3c-18.5-3.6-38.9,1-51,16.2c-11.3,14-14,34.1-3.7,49.4
		c10.3,15.5,29.6,22.4,47.3,16.9c17.6-5.4,29.8-20.9,31.7-39.1C755.2,291.4,747.7,271.5,732,266.3z" style="fill:var(--illu-yellow--main);"/>
	<path d="M430.6,231c-5.8-0.3-11.4-0.4-17.2-0.6c-5-0.1-5,7.6,0,7.7c5.8,0.3,11.4,0.4,17.2,0.6
		C435.5,238.8,435.5,231.1,430.6,231z" style="fill:var(--illu-bg--light);"/>
	<path d="M637.1,143c-4.1-12.2-15.4-23.1-28.1-24.4c-15.6-2.8-32.3,11.8-39,25c-7.6,14.9-0.3,31.9,13.1,40.7
		C610.7,202.3,647.8,174.7,637.1,143z" style="fill:var(--illu-red--light);"/>
	<path d="M697.4,324.6c-7.3-0.5-14.5-1-21.8-1.7c-5-0.4-4.9,7.3,0,7.7c7.3,0.5,14.5,1,21.8,1.7
		C702.3,332.7,702.3,325,697.4,324.6z" style="fill:var(--illu-bg--light);"/>
	<path d="M749.2,297.2c-7.8,2.1-15.8,2.6-23.9,1.3c-4.9-0.8-6.9,6.7-2.1,7.4c9.4,1.5,18.6,1.2,27.8-1.3
		C756,303.3,753.9,295.9,749.2,297.2z" style="fill:var(--illu-bg--light);"/>
	<path d="M694.8,284.6c-5,0.4-9.7-0.3-14.5-2.2c-4.6-1.9-6.5,5.5-2.1,7.4c5.3,2.2,10.9,2.9,16.5,2.4
		C699.7,291.9,699.8,284.2,694.8,284.6z" style="fill:var(--illu-bg--light);"/>
	<path d="M601.2,166.5c-9.2,0-18.3-1.2-27.2-3.5c-4.7-1.2-6.8,6.3-2.1,7.4c9.6,2.4,19.4,3.6,29.2,3.7
		C606.2,174.3,606.2,166.6,601.2,166.5z" style="fill:var(--illu-bg--light);"/>
	<path d="M634.5,146.5c-9.4-0.5-18.9-1-28.2-1.5c-5-0.3-4.9,7.4,0,7.7c9.4,0.5,18.9,1,28.2,1.5
		C639.4,154.4,639.4,146.7,634.5,146.5z" style="fill:var(--illu-bg--light);"/>
	<path d="M120.3,328.2c-16.9,1.2-33.7-1.8-49.2-8.8c-4.5-2.1-8.3,4.6-3.8,6.7c16.8,7.7,34.6,11,53.1,9.9
		C125.2,335.6,125.3,328,120.3,328.2z" style="fill:var(--illu-bg--light);"/>
	<path d="M153.9,352.7c-17.4,3.2-35.1,4-52.8,2.4c-4.9-0.4-4.9,7.3,0,7.7c18.3,1.7,36.7,0.6,54.9-2.7
		C160.8,359.2,158.8,351.8,153.9,352.7z" style="fill:var(--illu-bg--light);"/>
	<path d="M138.5,310.3c-10.3,1.8-20.1,0.8-29.9-2.7c-4.6-1.7-6.7,5.8-2.1,7.4c11,4,22.4,4.7,34,2.7
		C145.4,316.8,143.4,309.4,138.5,310.3z" style="fill:var(--illu-bg--light);"/>
	<path d="M564.4,203c-2.3,0.4-4.6,0.5-7.1,0.4c-0.4-3.2-0.9-6.4-1.3-9.6c-0.6-4.9-8.1-2.8-7.4,2.1
		c0.3,2.3,0.6,4.6,0.9,6.9c-0.8-0.1-1.5-0.3-2.3-0.5c-4.9-1-6.9,6.3-2.1,7.4c1.8,0.4,3.7,0.8,5.5,0.9c0.3,1.9,0.5,3.8,0.8,5.6
		c0.6,4.9,8.1,2.8,7.4-2.1c-0.1-1-0.3-2.2-0.4-3.2c2.7,0,5.3-0.3,8-0.6C571.3,209.7,569.1,202.4,564.4,203z" style="fill:var(--illu-yellow--main);"/>
	<path d="M632,451.3c-3.2,0.3-6.5,0.4-9.7,0.6c-0.6-2.3-1.2-4.6-1.8-6.8c-1.3-4.7-8.7-2.7-7.4,2.1
		c0.5,1.8,0.9,3.6,1.4,5.4l-5.5,0.4c-4.9,0.4-5,8.1,0,7.7c2.4-0.1,5-0.4,7.4-0.5c0.6,2.6,1.3,5,1.9,7.6c1.3,4.7,8.7,2.7,7.4-2.1
		l-1.5-6c2.6-0.1,5.1-0.4,7.8-0.5C636.9,458.6,637,450.9,632,451.3z" style="fill:var(--illu-yellow--main);"/>
	<path d="M131.8,193.4c-3.2,0.4-6.5,0.8-9.7,1.3c-0.5-1.3-1.2-2.4-1.9-3.6c-2.8-4.1-9.5-0.3-6.7,3.8
		c0.1,0.3,0.3,0.5,0.5,0.8c-0.9,0.1-1.8,0.3-2.6,0.4c-4.9,0.6-4.9,8.3,0,7.7c1.5-0.3,3.1-0.4,4.6-0.6c0,1.3-0.3,2.6-0.8,4
		c-1.7,4.7,5.8,6.7,7.4,2.1c0.8-2.3,1.2-4.6,1-7.1c2.7-0.4,5.4-0.6,8.1-1C136.7,200.5,136.7,192.8,131.8,193.4z" style="fill:var(--illu-yellow--main);"/>
	<path d="M235.7,103.9c-4.2-0.4-8.5-0.4-12.7-0.3l-0.4-3.7c-0.4-4.9-8.1-5-7.7,0c0.1,1.4,0.3,2.8,0.4,4.2
		c-1.7,0.1-3.5,0.4-5.1,0.6c-4.9,0.8-2.8,8.1,2.1,7.4c1.3-0.1,2.4-0.4,3.7-0.5c0.1,2.1,0.4,4,0.5,6c0.4,4.9,8.1,5,7.7,0
		c-0.1-2.2-0.4-4.4-0.5-6.5c4-0.1,8,0,12.1,0.3C240.6,112,240.6,104.3,235.7,103.9z" style="fill:var(--illu-yellow--main);"/>
	<path d="M682,120.5h-3.5l-0.8-4.9c-0.8-4.9-8.2-2.8-7.4,2.1l0.4,2.8h-5.4c-5,0-5,7.7,0,7.7h6.5
		c0.3,2.1,0.6,4.1,0.9,6.2c0.8,4.9,8.2,2.8,7.4-2.1c-0.3-1.4-0.4-2.8-0.6-4.1h2.3C687,128.2,687,120.5,682,120.5z" style="fill:var(--illu-yellow--main);"/>
	<path d="M708.9,171.8c-5,0-5,7.7,0,7.7C713.9,179.5,713.9,171.8,708.9,171.8z" style="fill:var(--illu-white--light);"/>
	<path d="M664,197.4c-5,0-5,7.7,0,7.7C669,205.1,669,197.4,664,197.4z" style="fill:var(--illu-white--light);"/>
	<path d="M703.9,380.7c-1.5-1.4-4-1.5-5.4,0c-0.4,0.4-0.9,0.9-1.3,1.3c-1.4,1.4-1.5,4,0,5.4c1.5,1.4,4,1.5,5.4,0
		l1.3-1.3C705.3,384.6,705.5,382.1,703.9,380.7z" style="fill:var(--illu-white--light);"/>
	<path d="M673,434.7c-5,0-5,7.7,0,7.7S678,434.7,673,434.7z" style="fill:var(--illu-white--light);"/>
	<path d="M617.9,334.6c-5,0-5,7.7,0,7.7C622.9,342.3,622.9,334.6,617.9,334.6z" style="fill:var(--illu-white--light);"/>
	<path d="M574.3,497.5c-5,0-5,7.7,0,7.7S579.3,497.5,574.3,497.5z" style="fill:var(--illu-white--light);"/>
	<path d="M292.8,540.3c-0.9-0.4-1.7-0.9-2.6-1.3c-1.8-0.9-4.2-0.5-5.3,1.4c-0.9,1.8-0.5,4.4,1.4,5.3
		c0.9,0.4,1.7,0.9,2.6,1.3c1.8,0.9,4.2,0.5,5.3-1.4C295.1,543.9,294.7,541.3,292.8,540.3z" style="fill:var(--illu-white--light);"/>
	<path d="M438.3,533.4c-5,0-5,7.7,0,7.7S443.3,533.4,438.3,533.4z" style="fill:var(--illu-white--light);"/>
	<path d="M199.8,514.2c-2.1,0.1-3.8,1.7-3.8,3.8v1.3c0,2.1,1.8,4,3.8,3.8s3.8-1.7,3.8-3.8V518
		C203.7,516,201.9,514,199.8,514.2z" style="fill:var(--illu-white--light);"/>
	<path d="M193.4,455.2c-5,0-5,7.7,0,7.7C198.4,462.9,198.4,455.2,193.4,455.2z" style="fill:var(--illu-white--light);"/>
	<path d="M72.9,420.5c-5,0-5,7.7,0,7.7S77.9,420.5,72.9,420.5z" style="fill:var(--illu-white--light);"/>
	<path d="M165.3,266.5c-0.4-0.4-0.9-0.9-1.3-1.3c-1.4-1.4-4-1.5-5.4,0c-1.4,1.5-1.5,4,0,5.4l1.3,1.3
		c1.4,1.4,4,1.5,5.4,0S166.9,268.1,165.3,266.5z" style="fill:var(--illu-white--light);"/>
	<path d="M70.4,230.6c-1.5-1.4-4-1.5-5.4,0c-0.4,0.4-0.9,0.9-1.3,1.3c-1.4,1.4-1.5,4,0,5.4c1.5,1.4,4,1.5,5.4,0l1.3-1.3
		C71.8,234.6,72,232,70.4,230.6z" style="fill:var(--illu-white--light);"/>
	<path d="M170.3,142.3H169c-2.1,0-4,1.8-3.8,3.8c0.1,2.1,1.7,3.8,3.8,3.8h1.3c2.1,0,4-1.8,3.8-3.8
		C174,144.1,172.5,142.3,170.3,142.3z" style="fill:var(--illu-white--light);"/>
	<path d="M184.4,182c-5,0-5,7.7,0,7.7C189.4,189.7,189.4,182,184.4,182z" style="fill:var(--illu-white--light);"/>
	<path d="M298.6,74.3c-5,0-5,7.7,0,7.7S303.6,74.3,298.6,74.3z" style="fill:var(--illu-white--light);"/>
	<path d="M458.9,28.1c-5,0-5,7.7,0,7.7S463.9,28.1,458.9,28.1z" style="fill:var(--illu-white--light);"/>
	<path d="M564,57.6c-5,0-5,7.7,0,7.7C569,65.3,569,57.6,564,57.6z" style="fill:var(--illu-white--light);"/>
	<path d="M617.9,76.9c-5,0-5,7.7,0,7.7C622.9,84.6,622.9,76.9,617.9,76.9z" style="fill:var(--illu-white--light);"/>
	<path d="M36.9,303.8c-5,0-5,7.7,0,7.7S41.9,303.8,36.9,303.8z" style="fill:var(--illu-white--light);"/>
</g>
</svg>
