<?xml version="1.0" encoding="utf-8"?>
<!-- Generator: Adobe Illustrator 23.0.2, SVG Export Plug-In . SVG Version: 6.00 Build 0)  -->
<svg version="1.1" id="Capa_1" xmlns="http://www.w3.org/2000/svg" xmlns:xlink="http://www.w3.org/1999/xlink" x="0px" y="0px" viewBox="0 0 800 629" style="enable-background:new 0 0 800 629;" xml:space="preserve">

<g>
	<path d="M796.7,243.1c-10.1-70.4-43.4-144-105.3-187.6c-57.7-40.6-133-53.4-203.5-55.2C342.6-3.7,186.7,41.3,90.6,148
		C1.9,246.3-35,399.4,41.4,513.8c9.8,14.8,21.7,28.4,35.4,40.1c1.9,1.6,4.1,1.6,5.6,0.6c54.5,46,139.5,35.7,206.9,33.4
		c92.7-3.3,185.2-8.1,277.8-14.5c22.8-1.6,45.4-3.1,68.2-5c17.9-1.6,36.7-3.9,52.1-13.1c15-9.1,25-23.3,33.6-37.6
		c10.1-17.3,19.7-35,29-52.6c18.6-35.3,35-71.9,43.1-110.6C800.9,317.6,802,280,796.7,243.1z" style="fill:var(--illu-bg--main);"/>
	<path d="M691.1,196.7c-3.1-16.1-11.7-30.9-20.6-44.6c-8.1-12.5-18.9-20.8-34.2-21.1c-4.1-0.2-5.3,3.9-4.1,6.7
		c-0.5,2.2,0.3,4.7,3.3,5.3c29.2,6.7,41,37,40.9,64.3c-0.2,12.8-1.2,27.9-8.3,39c-4.2,6.6-19.2,13.6-12,23.3c2,2.7,4.8,3,7.3,0.9
		C685.5,253.4,696.5,224.2,691.1,196.7z" style="fill:var(--illu-bg--light);"/>
	<path d="M281,442c-5.5-8.4-14.8-7.6-23.9-7.6c-12,0.2-24.2,1.6-36,4.2c-7.6,1.7-19,3.3-21.1,12.5
		c-0.5,2,0.3,3.6,1.7,4.7c-0.6,6.2-0.3,12.8,3.1,18.3c4.8,7.8,14.2,9.1,22.6,8.6c12.5-0.8,25-2.2,37.5-3.4c9.1-0.8,18.4-1.2,22-11.1
		C290,459.5,285.8,449.4,281,442z" style="fill:var(--illu-red--light);"/>
	<path d="M666.7,255.4c-0.3-10.6-1.4-21.5-5.6-31.4c-6.9-15.6-24.5-26.5-40.4-20.8c-1.4-3.9-8.6-3.1-9.2,2
		c-3.1,27.9-4.7,56-4.5,84.1c0.2,17.5,0.5,44.9,24.7,44.6c21.2-0.2,30.9-20.9,33.4-39.2C666.7,281.9,667,268.5,666.7,255.4z" style="fill:var(--illu-red--light);"/>
	<path d="M719,523.5c-37.3-28.9-88.3-41.4-134.4-45.4c-52.6-4.8-105.3,2.2-156.8,12.2c-13.4,2.7-26.7,5.5-40.1,8.4
		c-0.8,0.2-1.4,0.5-2,0.9c-26.7,3.4-53.2,6.9-79.9,9.8c-27.5,3.1-55.1,6.1-82.7,8.7c-26.1,2.5-52.1,4.4-77.9,9.2
		c-21.5,4.1-44.9,9.8-62.6,23.7c-14.4,11.2-22.9,29-15.3,47c8.1,19,28.2,28.1,47.8,30.3c12.6,1.4,25.3,0.3,37.9-0.3
		c13.9-0.8,27.6-1.4,41.5-1.9c109.4-4.2,218.8,0.8,328.2-4.5c53.1-2.7,106.1-8.1,157.9-19.5c20.4-4.5,44.2-10.1,54.3-30.7
		C744.3,552.7,733.8,534.9,719,523.5z" style="fill:var(--illu-blue--light);"/>
	<path d="M629.9,293.6c5.9-4.7,10.1-11.5,12.6-18.6c6.7-18.4,1.7-38.1-4.4-55.9c-5.1-15.4-11.5-30.7-28.2-36.4
		c-19.2-6.4-38.9,1.9-58.2-0.2c-1.2-1.7-3.4-2.5-5.8-1.1c-25.6,16.4-46,40.6-56.5,69.1c-4.7,12.8-6.9,28.6,1.7,40.3
		c7,9.7,18.6,13.3,29.8,15.3c-2.5,48.5-3,97.2-1.2,145.8c0.8,24,2.2,48.2,3.9,72.3c0.3,5.1,2.5,13.7,0,18.4
		c-1.7,3.3-6.1,4.8-9.1,6.9c-5.1,3.3-9.1,7-9.1,13.4c0,2.3,2.2,5,4.7,4.7c10.6-1.1,21.2-2.7,31.7-5c7.2-1.6,13.1-3.1,14.5-11.2
		c1.7-10.8,1.2-22.3,2-33.2c0.8-11.1,1.7-22.3,2.8-33.4c3.4-34.6,8.3-69,14.7-103.2l6.9,101.4c1.4,21.8,1.6,44.3,4.5,66
		c1.1,7.8,5.8,11.7,12.5,15c8.9,4.4,18.3,7.6,27.8,10c3.9,0.9,7.3-3.3,5.3-6.9c-12.5-21.2-8.6-47.1-8.4-70.7
		c0.2-24.3,0.2-48.8-0.2-73.2c-0.3-23.9-0.8-47.8-1.4-71.6c-0.3-12.5-0.8-25-1.2-37.3c-0.2-5.8-1.4-12.8,0.8-18.4
		C624.9,296.3,627.6,295.3,629.9,293.6z" style="fill:var(--illu-white--light);"/>
	<path d="M629.7,101.8c-15.1-23.7-43.7-34.2-71-31.4c-26.7,2.7-59.3,17.6-67.3,45.6c-9.4,32.6,15.4,60.5,44.5,70.8
		c-4.8,1.2-4.5,9.5,1.1,9.2c19-1.1,38.4-1.4,57.4-3.4c15.6-1.6,28.2-8.1,37-21.2C645.2,150.7,642.7,122.1,629.7,101.8z" style="fill:var(--illu-blue--light);"/>
	<path d="M378.8,375.2c-31.7-40.4-135-21.4-122.2,40.1c3.1,15.1,12,30.9,22,42.6c7.6,9.1,17.5,15.3,29,15.3
		c0,2.3,1.6,4.5,4.5,4.5c26.8-0.5,54.6-12,69.1-35.4C393.6,422.2,393.5,394,378.8,375.2z" style="fill:var(--illu-blue--light);"/>
	<path d="M386.3,521.5c-1.2-19.2-3.6-38.2-7.2-57.1c-1.1-5.8-1.4-13.4-7.6-15.9c-6.6-2.7-16.4,0.6-23.1,1.6
		c-18.9,2.5-37.6,5-56.5,7.3c-0.9-0.9-2.5-1.4-4.2-1.1c-20.8,4.8-41.7,8.4-62.9,10.6c-4.8,0.5-9.8,0.9-14.7,1.2
		c-3.9,0.3-11.1,2-14.8,0.8c-5.1-1.7-6.1-11.2-7.3-15.8c-1.7-5.5-3.3-10.8-5-16.2c-1.6-5.3-8.6-3.7-9.2,1.2
		c-5.6,46.5-4.4,93.3,3.7,139.5c0.9,5,7.5,3.9,9.1,0c5.5-14.2,8.3-29,8.4-44.2c16.9-0.6,33.9-1.2,50.7-1.7c4.2-0.2,10.8-2,13,2.5
		c1.7,3.3,1.7,9.4,2.3,13c1.7,9.2,3.3,18.3,5,27.5c0.8,4.2,6.6,4.2,8.6,1.1c7.6-11.4,11.2-25.1,9.8-38.7c-0.3-3.4-1.9-6.6,0.3-9.4
		c2.7-3.3,8.6-3.4,12.8-4.2c7.6-1.4,15.3-2,22.9-2.2c1.1,11.9,2,23.9,3.4,35.7c0.8,7.2,3.3,15.8,11.5,17.2c2.3,0.3,5.3-0.6,5.8-3.3
		c3.1-19.2,3.4-38.2,1.1-57.4c4.5-0.8,9.4-1.9,13.3-1.2c5.6,0.8,4.4,6.9,5.1,11.9c1.9,12,5,23.9,9.4,35.3c1.1,3,5.5,5.1,7.8,2
		C387.1,549.9,387.2,535.7,386.3,521.5z" style="fill:var(--illu-white--light);"/>
	<path d="M368.2,444.4c-2.2-13.3-4.7-26.4-11.7-37.9c-2.2-3.6-7.3-2.7-8.6,1.1c-0.9,2.5-1.6,5.1-2.5,7.8
		c-10.8,1.2-21.5,2.7-32.1,4.4c-2.8-3.7-5.5-7.3-8.3-11.1c-1.7-2.3-5-3.3-7.3-0.9c-5.1,5.3-5.6,12.2-5.6,19.4
		c0,10.5,0.9,20.9,2.5,31.2c0.5,2.8,2.7,3.7,4.8,3.3c5.5,3.1,16.5,0.5,21.2-0.2c7.8-0.9,15.4-2.5,23.1-4.7
		c7.8-1.4,15.3-3.6,22.5-7.3C367.9,448.6,368.5,446.4,368.2,444.4z" style="fill:var(--illu-bg--main);"/>
	<path d="M586.4,125.9c0-2.3-1.6-4.5-4.5-4.5c-16.9,0.6-25.7,16.1-26.4,31.5c-0.5,13.6,2.3,35.4,19.8,36
		c15.9,0.6,25.6-14,25.7-28.4C601.3,150.5,597.9,129.6,586.4,125.9z" style="fill:var(--illu-brown--light);"/>
	<path d="M390.8,324.2c-5.9,1.9-11.4,4.5-16.4,8.1c-1.9-9.4-6.1-20.8-15.4-16.5c-10.5,4.7-0.9,23.4,3.9,31.5
		c0.3,1.1,0.9,2,1.7,2.7c2.3,2.7,6.4,1.6,7.8-1.1c8.9-3.7,16.7-9.4,22.9-17C398.2,328.7,395.7,322.8,390.8,324.2z" style="fill:var(--illu-red--light);"/>
	<path d="M624.4,173.9c-7.3-4.5-18.6-2.3-26.7-2c-22.2,0.9-44.2,4.2-65.7,9.5c-1.2,0.3-2.2,1.1-2.7,1.9
		c-1.4,0.5-2.8,1.1-4.2,1.6c-3,1.2-4.2,3.9-2.8,6.9c3.4,7.2,11.5,6.7,18.4,6.6c11.9-0.3,23.7-0.5,35.6-0.8
		c9.5-0.2,19.2-0.2,28.6-1.7c7-1.1,17.9-3,22.8-9.1C631,182.3,629,176.7,624.4,173.9z" style="fill:var(--illu-red--light);"/>
	<path d="M565.5,492.3c0.5-3.3-3.3-5.1-5.9-4.5c-5.8,1.2-11.7,1.9-17.6,1.9c-4.7,0-9.8-1.7-14.5-0.9
		c-2.2,0.3-3.7,1.2-4.8,2.5c-1.6,0.6-2.8,2-2.7,4.2c0.8,10.3,1.6,20.8,2.3,31.1c0.5,5.6,2,11.4-2.5,15.6c-3.3,3-6.6,5.9-9.8,8.9
		c-3.7,3.4-9.1,8.6-7,14.2c2.5,7,12,3.6,17.2,2.7c9.8-1.7,19.5-3.7,29.2-5.9c5.8-1.4,12.8-2.2,14.2-9.2c0.8-4.1-0.2-8.6-0.3-12.6
		c-0.2-5.5-0.2-10.9-0.2-16.4C563.3,513.2,564.2,502.7,565.5,492.3z" style="fill:var(--illu-blue--main);"/>
	<path d="M633.5,559.1c-2.5-3.6-5.1-6.4-5.9-10.8c-0.9-5.1-0.2-10.8,0-15.9l0.8-32.5c0-2.8-2.2-4.4-4.7-4.7
		c-5.9-0.8-11.7-1.4-17.6-2.2c-5.3-0.6-12.3-2.7-17.6-1.9c-2.5,0.5-4.5,1.9-5.8,3.6c-1.4,0.6-2.5,2-2.2,4.1
		c1.1,10.1,1.9,20.3,2.3,30.4c0.3,7.5-0.9,17,2.3,24.2c3.3,7,11.5,11.1,17.9,14.8c7.3,4.4,15.1,8.1,23.6,9.7
		C639.9,580.1,639.7,567.6,633.5,559.1z" style="fill:var(--illu-blue--main);"/>
	<path d="M178.1,530.2c-2-0.2-3.3,0.6-3.9,2c-2,0.3-4.1,1.7-4.1,4.5c-0.6,12.8-0.6,28.4,3.6,40.7
		c2.7,7.6,11.2,9.4,15.8,1.9c6.2-10.1,8.7-25.6,9.2-37.3C199,529.4,188,531.1,178.1,530.2z" style="fill:var(--illu-blue--main);"/>
	<path d="M281.3,531.1c-6.9,0.3-13.6,1.4-20.3,3.4c-1.7,0.5-2.7,1.7-3,3c-0.5,0.8-0.6,1.9-0.5,3
		c1.4,9.1,3.1,18.3,5.9,27c1.7,5.3,3.7,13,10.9,11.2c6.4-1.6,8.6-9.8,9.5-15.4c1.4-9.1,1.4-18.3,2-27.5
		C286.1,533.5,283.6,531.1,281.3,531.1z" style="fill:var(--illu-blue--main);"/>
	<path d="M345.3,541.9c-0.2-4.5,0.3-9.8-1.2-14.2c-0.5-1.4-1.6-3.1-3.3-3.3c-5.1-0.6-10.6,0.5-15.8,1.4
		c-3-1.9-7.6-0.6-7,3.6c1.4,10.8,3.4,21.4,6.9,31.7c1.9,5.8,4.7,14.7,12.3,14.4c8.3-0.3,8.1-10.3,8.3-16.1
		C345.6,553.6,345.6,547.8,345.3,541.9z" style="fill:var(--illu-blue--main);"/>
	<path d="M386,522.9c-0.3-2.5-1.9-4.7-4.7-4.7c-6.7-0.2-13.1,0.8-19.5,3c-2.8,0.9-3.7,3.7-3,5.9c0,0.3,0,0.8,0.2,1.1
		c2.5,10.8,5.1,21.5,8.3,32c1.7,5.8,4.4,13.3,11.9,9.8C393.8,563.3,387.5,534.9,386,522.9z" style="fill:var(--illu-blue--main);"/>
	<path d="M249.6,220c3.9-4.7-2-10.6-6.6-6.6c-0.3,0.3-0.8,0.6-1.1,1.1c-2.5,2-6.2,2.2-8.1,0.3
		c0.2-5.1-1.2-10.5-4.5-14.7c-3.6-4.7-11.7-0.2-8.1,4.7c0.9,1.2,1.7,2.7,2.2,4.1c-0.2,2.5,0.2,4.8,0.9,6.9
		c-0.5,3.9-2.3,7.6-5.6,10.1c-0.9,0.5-1.9,1.1-2.7,1.7l-0.2,0.2l0,0c-0.3,0.3-0.6,0.5-0.9,0.8c-4.4,3.6,1.2,9.5,5.6,7.3
		c1.4-0.6,2.7-1.6,3.9-2.5c6.1-2.2,13.7,1.4,15.4,7.6c1.9,5.6,10.8,3.4,9.1-2.5c-1.9-5.1-4.2-12.2-0.6-17
		C248.7,220.9,249.1,220.4,249.6,220z" style="fill:var(--illu-yellow--main);"/>
	<path d="M152.8,329.8c-1.2,0.6-2.5,1.2-3.6,2c-3.3,0.9-6.6-0.6-8.3-3.6c-0.3-1.6-0.8-3-1.1-4.5
		c-0.2-0.9-0.6-1.7-1.2-2.2c0-1.9-0.2-3.9-0.5-5.9c-1.1-5.9-10.1-3.4-9.1,2.5c1.1,5.9-0.8,12-4.5,16.5c-4.8,0.8-9.1,3.6-11.4,8.1
		c-1.7,3.4,1.2,8.3,5.3,6.9c3.9-1.4,7.2-3.4,10.1-5.9c5,1.9,10.1,10,11.7,13.6c2.2,5.1,9.4,1.2,8.6-3.6c-1.1-5.9,1.6-11.2,6.2-14.4
		c0.8-0.5,1.6-0.8,2.3-1.4c0,0,0.2,0,0.2-0.2l0,0c0.3-0.2,0.6-0.5,0.9-0.8C162.8,333.7,157.2,327.6,152.8,329.8z M139.9,339.7
		c0.6,0.3,1.2,0.6,2,0.8c-0.2,0.3-0.3,0.6-0.3,0.8C141,340.7,140.5,340.3,139.9,339.7z" style="fill:var(--illu-yellow--main);"/>
	<path d="M447.9,235.4c-3,1.2-5.6,3-7.8,5.1c-3.9-0.8-7.5-7.2-8.3-10.6c-0.2-0.9-0.6-1.6-1.1-2.2
		c-0.2-2.7-0.6-5.5-1.6-8.1c-2-5.6-11.1-3.3-9.1,2.5c3.1,8.7-0.5,18.4-8.3,22.9c-1.6,0.5-3.1,1.1-4.7,2c-4.7,2.5-1.6,10.1,3.6,8.6
		c1.6-0.5,3.1-1.1,4.5-1.9c7.8-2.3,16.2,1.2,20.3,8.6c2.5,4.7,10.1,1.6,8.6-3.6c-1.1-3.4-0.8-7,1.1-10c3.3-1.1,6.1-3.4,8.1-6.6
		C455.3,239,451.8,233.8,447.9,235.4z" style="fill:var(--illu-yellow--main);"/>
	<path d="M480.1,418.1c3.1-2.7,0.6-8.1-3.3-8c-3.7,0.2-6.7,1.2-8.9,3.1c-2.2-0.5-3.9-2-4.7-4.4
		c0.9-4.4,1.2-8.9,1.2-13.3c-0.2-6.1-9.5-6.1-9.4,0c0,1.2,0,2.7,0,4.1c-0.3,0.5-0.6,0.8-0.8,1.4c-1.2,3.3-1.4,6.2-0.8,9.1
		c-0.2,0.6-0.5,1.1-0.8,1.6c-4.7,0.5-9.1,3.1-11.7,7.3c-1.9,3,0.5,7.3,4.1,7c4.8-0.3,8.6-2,11.4-4.7c0.3,0.2,0.6,0.3,0.9,0.5
		c3,1.7,3.9,5.1,4.1,8.4c0,0.8,0,1.6,0,2.3c0.2,6.1,9.1,5.9,9.4,0c0-1.1,0-2.2,0-3.3c0-2.5,0.3-5.5,1.6-7.5
		C475.1,421.4,477.7,420.2,480.1,418.1z" style="fill:var(--illu-yellow--main);"/>
	<path d="M726.2,356.2c-3.3,0.9-6.1,2.3-8.7,4.2c-3.3-0.3-6.1-3.3-5.9-8c0.2-2.2-1.1-3.6-2.7-4.2
		c-0.2-0.8-0.3-1.4-0.6-2.2c-1.7-5.8-10.8-3.3-9.1,2.5c1.1,3.3,2,9.8,0.5,14c-4.2,0-8.6,1.6-12.2,5.1c-2.3,2.3-1.4,7,2,7.8
		c5,1.1,9.8,0,13.6-2.8c2.3,1.4,3.7,4.2,3.4,7.8c-0.3,6.1,8.9,5.9,9.4,0c0.3-4.4,2-8.3,5-11.1c3.4-0.6,6.9-2.3,9.7-5.6
		C733.7,360.7,730.9,354.9,726.2,356.2z" style="fill:var(--illu-yellow--main);"/>
	<path d="M410.3,69.8c-3.1,0.6-5.6,1.9-7.3,3.7c-1.4,0-2.7-0.5-3.4-1.7c-0.5-1.4-0.8-2.7-1.2-4.1
		c-0.5-1.4-1.4-2.2-2.5-2.8c-3.1-2.7-9.1-0.2-7.6,4.7c1.6,5.1,0.5,10.6-2.7,14.7c-4.1,1.2-7.8,3.7-10.5,7.5c-2.5,3.3,1.6,8,5.3,6.9
		c3.9-1.2,7.3-3.3,10.1-6.1c4.2-0.3,8.6,1.4,10.8,5c2.8,4.4,10.1,1.6,8.6-3.6c-0.9-3.3-2.7-8.4-1.4-12c2.3-0.8,4.5-2.3,6.4-4.7
		C418,74,415.2,68.9,410.3,69.8z" style="fill:var(--illu-yellow--main);"/>
	<path d="M129.4,458.7c-3.3,1.6-6.2,3.7-8.4,6.4c-1.1-0.3-2.3-0.9-3.1-1.7c-3.1-3-3.7-7.5-4.1-11.5
		c-0.2-3-2.7-4.5-5-4.5c-2.7-3.4-9.4-0.8-8.3,4.4c1.2,5.6-0.6,11.2-4.5,14.8c-2.8,0.9-5.5,2.5-7.8,4.5c-3.6,3.1,0.3,9.2,4.5,7.8
		c3-0.9,5.8-2.3,8.1-4.2c6.4-1.2,12.8,2.8,14.5,10.1c1.2,5,9.7,4.1,9.2-1.2c-0.3-3.4,0.3-6.4,1.6-9.1c5-1.2,9.4-5,10.3-10.5
		C137.1,459.8,133.3,456.8,129.4,458.7z" style="fill:var(--illu-yellow--main);"/>
	<path d="M453.7,533.8c-0.6-3.3-2.3-6.1-5.1-8.3c-1.7-1.4-3.6-1.7-5.6-0.8c-1.4,0.6-2.5,1.6-3.4,2.5
		c-3.1-1.1-6.7-0.6-9.7,1.4c-2.8,1.9-4.2,4.5-4.7,7.5c-2.7-0.2-5.5,0.8-7.6,3c-6.1,6.2-1.7,16.2,5.8,18.4c1.9,0.5,3.4,0,4.4-1.1
		c7.6,4.5,16.9,6.4,25.7,3.7c3.4-1.1,7-3.4,7.3-7.3c0.2-1.2-0.2-2.3-0.5-3.3C463.4,543.5,460.7,535.7,453.7,533.8z" style="fill:var(--illu-yellow--main);"/>
	<path d="M594.2,227.3c-9.1-6.9-23.6-2.3-33.6-0.8c-5,0.8-13,0.3-16.2,5s-1.2,13.4-0.6,18.6c0.2,1.1,0.5,1.9,1.1,2.7
		c0.2,2.2,1.7,4.1,4.5,3.9c8-0.5,15.9-0.9,23.9-1.6c5.9-0.5,12.5-0.6,17.8-3.9C599.6,246.2,602.9,233.8,594.2,227.3z" style="fill:var(--illu-yellow--main);"/>
	<path d="M69.7,398.5c-6.1,0-6.1,9.4,0,9.4S75.8,398.5,69.7,398.5z" style="fill:var(--illu-white--light);"/>
	<path d="M200.8,386.8c-2.5,0.2-4.7,2-4.7,4.7v2.3c0,2.5,2.2,4.8,4.7,4.7c2.5-0.2,4.7-2,4.7-4.7v-2.3
		C205.4,389,203.2,386.6,200.8,386.8z" style="fill:var(--illu-white--light);"/>
	<path d="M212.5,290.8c-6.1,0-6.1,9.4,0,9.4C218.5,300.2,218.5,290.8,212.5,290.8z" style="fill:var(--illu-white--light);"/>
	<path d="M125.8,229.9c-6.1,0-6.1,9.4,0,9.4S131.9,229.9,125.8,229.9z" style="fill:var(--illu-white--light);"/>
	<path d="M259.3,136.3c-6.1,0-6.1,9.4,0,9.4C265.4,145.7,265.4,136.3,259.3,136.3z" style="fill:var(--illu-white--light);"/>
	<path d="M331.8,73.1c-6.1,0-6.1,9.4,0,9.4C337.9,82.5,337.9,73.1,331.8,73.1z" style="fill:var(--illu-white--light);"/>
	<path d="M53.3,272.1c-6.1,0-6.1,9.4,0,9.4S59.4,272.1,53.3,272.1z" style="fill:var(--illu-white--light);"/>
	<path d="M343.5,208.9c-6.1,0-6.1,9.4,0,9.4C349.6,218.2,349.6,208.9,343.5,208.9z" style="fill:var(--illu-white--light);"/>
	<path d="M303.7,323.6c-6.1,0-6.1,9.4,0,9.4C309.8,332.9,309.8,323.6,303.7,323.6z" style="fill:var(--illu-white--light);"/>
	<path d="M444.2,302.5c-6.1,0-6.1,9.4,0,9.4C450.3,311.9,450.3,302.5,444.2,302.5z" style="fill:var(--illu-white--light);"/>
	<path d="M455.9,159.7c-6.1,0-6.1,9.4,0,9.4C462,169.1,462,159.7,455.9,159.7z" style="fill:var(--illu-white--light);"/>
	<path d="M488.7,49.7c-6.1,0-6.1,9.4,0,9.4C494.8,59.1,494.8,49.7,488.7,49.7z" style="fill:var(--illu-white--light);"/>
	<path d="M668.9,70.8c-2.5,0.2-4.7,2-4.7,4.7v2.3c0,2.5,2.2,4.8,4.7,4.7c2.5-0.2,4.7-2,4.7-4.7v-2.3
		C673.6,73.1,671.4,70.8,668.9,70.8z" style="fill:var(--illu-white--light);"/>
	<path d="M727.4,220.6c-6.1,0-6.1,9.4,0,9.4S733.5,220.6,727.4,220.6z" style="fill:var(--illu-white--light);"/>
	<path d="M718.1,295.5c-6.1,0-6.1,9.4,0,9.4S724.2,295.5,718.1,295.5z" style="fill:var(--illu-white--light);"/>
	<path d="M671.3,419.5c-6.1,0-6.1,9.4,0,9.4S677.3,419.5,671.3,419.5z" style="fill:var(--illu-white--light);"/>
	<path d="M699.3,478.1c-6.1,0-6.1,9.4,0,9.4C705.4,487.4,705.4,478.1,699.3,478.1z" style="fill:var(--illu-white--light);"/>
	<path d="M432.5,459.3c-6.1,0-6.1,9.4,0,9.4C438.6,468.7,438.6,459.3,432.5,459.3z" style="fill:var(--illu-white--light);"/>
	<path d="M598.1,129c-8.9-12.2-23.1-14.4-34.5-3.6c-5.1,4.8-10.9,12.8-13.1,19.7c-1.4,4.7,0.6,6.7,3.7,7.6
		c0.6,2.2,2.8,4.1,5.6,3.4c0.6-0.2,1.2-0.3,1.9-0.5c-1.1,0.8-1.7,2-1.7,3.6v0.8c0,2.5,2.2,4.8,4.7,4.7c2.5-0.2,4.7-2,4.7-4.7v-0.8
		c0-2.5-2.2-4.8-4.7-4.7l0,0c1.4-0.6,2.7-1.4,3.9-2.5c1.2-0.9,4.7-6.2,5.9-6.4c0.6-0.2,7.3,5.9,8.4,6.6c3.3,2,7,3.7,10.8,4.8
		c5.5,1.6,10.1-0.2,11.2-6.1C606.3,143,602.4,134.9,598.1,129z" style="fill:var(--illu-bg--light);"/>
	<path d="M589.5,159.1c-0.2-2.5-2-4.7-4.7-4.7H584c-2.5,0-4.8,2.2-4.7,4.7c0.2,1.9,1.2,3.6,3,4.4h-0.2
		c-4.7,0.9-9.5,1.6-14.4,1.7c-5.9,0.3-6.1,9.7,0,9.4c5.6-0.2,11.2-0.9,16.9-2c4.8-0.9,4.1-7,0.5-8.7
		C587.5,163.6,589.6,161.6,589.5,159.1z" style="fill:var(--illu-bg--light);"/>
	<path d="M315.9,438.1c-1.9-1.7-4.8-1.9-6.6,0l-0.8,0.8c-1.4,1.4-1.7,3.7-0.8,5.6c-3.7-1.9-7.2-4.2-10.3-7.2
		c-4.2-4.2-10.9,2.3-6.6,6.6c3.9,3.7,8.3,7,13.3,9.2c2.3,1.1,5,0.6,6.4-1.7c0.8-1.4,0.8-3.3,0-4.8c1.6,0.5,3.4,0.2,4.7-1.1l0.8-0.8
		C317.6,443,317.8,439.8,315.9,438.1z" style="fill:var(--illu-bg--light);"/>
	<path d="M349,432h-0.8c-2.5,0-4.8,2.2-4.7,4.7c0.2,2.5,2,4.7,4.7,4.7h0.8c2.5,0,4.8-2.2,4.7-4.7
		C353.5,434.2,351.7,432,349,432z" style="fill:var(--illu-bg--light);"/>
	<path d="M344.6,448.1c-2.5-3.4-5.3-6.2-8.9-8.6c-1.6-1.1-4.4-0.8-5.6,0.8c-2.8,3.4-5,7.2-6.2,11.5
		c-1.7,5.8,7.2,8.3,9.1,2.5c0.5-1.4,0.9-2.7,1.6-3.9c0.8,0.8,1.6,1.6,2.2,2.5c1.6,2,4.1,3.1,6.4,1.7
		C345.1,453.4,346.2,450.1,344.6,448.1z" style="fill:var(--illu-bg--light);"/>
	<path d="M372.1,421.1c-2.3-1.4-5-0.3-6.4,1.7c-3.1,4.4-6.7,8.1-10.8,11.5c-1.9,1.6-1.7,5,0,6.6c1.9,1.9,4.7,1.7,6.6,0
		c4.7-3.9,8.7-8.4,12.2-13.4C375.4,425.3,374.1,422.2,372.1,421.1z" style="fill:var(--illu-bg--light);"/>
	<path d="M306.2,408.9c-0.3-2.5-1.9-4.7-4.7-4.7c-2.3,0-5,2.2-4.7,4.7c0.6,4.7,1.2,9.2,1.9,13.9
		c0.3,2.5,1.9,4.7,4.7,4.7c2.3,0,5-2.2,4.7-4.7C307.5,418.1,306.9,413.6,306.2,408.9z" style="fill:var(--illu-bg--light);"/>
	<path d="M358.1,407.7c-1.9-5.8-10.9-3.3-9.1,2.5c1.2,3.9,2,7.8,2.3,11.9c0.5,5.9,9.8,6.1,9.4,0
		C360.4,417.2,359.5,412.4,358.1,407.7z" style="fill:var(--illu-bg--light);"/>
	<path d="M266.5,386.3c-3.9-3.1-8-0.5-9.8,3.3c-0.2,0.3-0.3,0.6-0.5,1.1c-5.6,5.8-5.6,14.2-0.8,20.4
		c1.4,1.9,5.1,1.9,6.6,0c3-3.7,5.9-7.8,7.2-12.5C270,394.7,269.9,389.1,266.5,386.3z" style="fill:var(--illu-yellow--main);"/>
	<path d="M254.3,439.2c-2.3-6.4-11.7-5.1-17.3-3.6c-4.5,0.9-9.2,3.1-10.1,7.5c-1.6,8.3,8.9,8,14.2,7
		C246.2,449.4,256.9,446.5,254.3,439.2z" style="fill:var(--illu-yellow--main);"/>
	<path d="M262.5,396c-2-3.3-5.1-4.5-8.6-4.5c-9.1-1.6-17.6,3.6-21.5,12c-2,4.5-2.7,9.1-2.5,13.7c0,1.9,0.2,3.7,0.5,5.6
		c0.2,5.5,1.4,10.9,3.4,15.3c3.3,6.7,14.4,6.1,13.1-2.5c-0.9-6.2-5.6-11.4-5.9-18.3c-0.2-4.1,0.6-8.1,3.3-11.4
		c3.9-2.7,9.5-2.8,14.4-3C261.9,403,264.6,399.1,262.5,396z" style="fill:var(--illu-bg--light);"/>
	<path d="M592.6,273.8c-0.2-0.3-0.5-0.5-0.6-0.8c5.8-5,11.1-11.5,10-19.2c-1.6-12.2-13.6-8.9-21.2-5.6
		c-14.7,6.2-29,1.4-44,2.8c-12,1.1-9.8,15.9-10.3,25.1c0,0.5,0,0.8,0,1.1c-8,5.9-8.7,17.6,1.7,25.6c15,11.4,37.3,6.1,54.5,4.2
		c0.6,0,1.1-0.2,1.6-0.5c5.3,0.2,10-1.9,12-7.8c1.4-4.2,0.8-8.6-0.2-12.8C595.3,282.4,595.3,276.9,592.6,273.8z" style="fill:var(--illu-blue--main);"/>
	<path d="M378.2,445.3c-5.8-3.7-12-3.9-18.6-2.7c-8.9,1.6-17.5,3.7-26.4,5.1c-3.9,0.6-7.8,1.2-11.7,1.7
		c-0.6-0.3-1.2-0.5-2.2-0.3c-8.7,0.3-17.6,0.8-26.4,1.1c-6.2,0.3-16.2-1.2-21.8,1.9c-3.6,1.9-4.7,5.9-3.1,9.5
		c2,5.1,7.2,5.9,12.2,5.6c17.5-0.9,35.1-3.4,52.4-5c14.7-1.4,32.8-0.5,45.4-8.9C381.2,451.4,381.2,447.3,378.2,445.3z" style="fill:var(--illu-red--light);"/>
	<path d="M301.6,518.5c-0.5-7.3-5.8-10.3-12.6-10.5c-11.5-0.3-23.3,0.9-34.6,2.2c-13,1.4-41.5,0.9-38.7,20.4
		c0.3,2,1.4,3,2.8,3.3c0.8,0.6,1.6,0.9,2.5,0.9c25.6,0.6,50.9-2.7,75.5-9.5c1.4-0.5,2.8-1.7,3.3-3.1
		C300.9,521.3,301.7,519.9,301.6,518.5z" style="fill:var(--illu-yellow--main);"/>
	<path d="M557.8,502.1c-12-0.6-24.2-1.4-36.2-2c-6.1-0.3-5.9,9.1,0,9.4c12,0.6,24.2,1.4,36.2,2
		C563.9,511.8,563.9,502.4,557.8,502.1z" style="fill:var(--illu-bg--light);"/>
	<path d="M624.9,507.7l-41.8-7c-5.9-0.9-8.4,8-2.5,9.1c13.9,2.3,27.9,4.7,41.8,7C628.3,517.9,630.8,508.8,624.9,507.7z" style="fill:var(--illu-bg--light);"/>
	<path d="M387.9,525.5c-8.1-1.4-15.9-1.4-23.9,0.2c-5.9,1.1-3.4,10.1,2.5,9.1c6.2-1.1,12.6-1.2,19-0.2
		C391.3,535.5,393.8,526.4,387.9,525.5z" style="fill:var(--illu-bg--light);"/>
	<path d="M340.3,531.3c-5.1,1.6-10.5,2.5-15.9,3c-5.9,0.5-6.1,9.8,0,9.4c6.2-0.5,12.3-1.6,18.3-3.3
		C348.5,538.6,346,529.6,340.3,531.3z" style="fill:var(--illu-bg--light);"/>
	<path d="M282.4,539.9c-6.6-0.2-13.1,0.8-19.4,2.7c-5.8,1.7-3.3,10.8,2.5,9.1c5.5-1.7,11.1-2.5,16.9-2.3
		C288.5,549.4,288.5,540,282.4,539.9z" style="fill:var(--illu-bg--light);"/>
	<path d="M199.7,540.5c-8,0.3-15.9,0.5-23.7,0.8c-6.1,0.2-6.1,9.5,0,9.4c8-0.3,15.9-0.5,23.7-0.8
		C205.7,549.5,205.7,540.2,199.7,540.5z" style="fill:var(--illu-bg--light);"/>
	<path d="M251.8,528.6c-0.8-2.3-1.6-4.5-2.3-6.9s-3.3-4.1-5.8-3.3c-2.3,0.8-4.1,3.3-3.3,5.8c0.8,2.3,1.6,4.5,2.3,6.9
		s3.3,4.1,5.8,3.3C250.8,533.6,252.7,531.1,251.8,528.6z" style="fill:var(--illu-bg--light);"/>
	<path d="M271.3,524.1c-0.5-2.7-0.8-5.3-1.2-8c-0.5-2.5-3.6-3.9-5.8-3.3c-2.7,0.8-3.6,3.3-3.3,5.8
		c0.5,2.7,0.8,5.3,1.2,8c0.5,2.5,3.6,3.9,5.8,3.3C270.7,529.1,271.6,526.6,271.3,524.1z" style="fill:var(--illu-bg--light);"/>
	<path d="M366.2,499.1c-8.9,1.9-17.3,5.5-24.8,10.8c-4.8,3.4-0.2,11.5,4.7,8.1c6.9-4.8,14.4-8.1,22.6-9.8
		C374.6,506.9,372.1,497.9,366.2,499.1z" style="fill:var(--illu-bg--light);"/>
	<path d="M461.1,540.5c-7-2.7-14.7-1.9-22-0.6c-10.6,1.7-21.1,4.2-31.7,6.4c-3.6,0.8-4.1,4.2-2.7,6.7
		c-3.4,7.6-4.8,15.4-3.9,23.9c0.2,1.9,1.2,4.2,3.4,4.5c23.9,3.9,47.8,3.6,71.3-1.1c1.9-0.3,3.6-2.7,3.4-4.5
		C478.4,561.7,475.9,545.8,461.1,540.5z" style="fill:var(--illu-red--light);"/>
	<path d="M452.5,564.2c-15.9,1.1-31.7,0.8-47.6-0.9c-5.9-0.6-5.9,8.7,0,9.4c15.9,1.7,31.7,2,47.6,0.9
		C458.4,573.3,458.6,563.9,452.5,564.2z" style="fill:var(--illu-bg--light);"/>
	<path d="M617.7,257.7c-1.7-10.3-3.4-20.4-5.3-30.7c-0.9-5.9-10-3.4-9.1,2.5c1.6,9.5,3.3,19,4.8,28.6
		c-17.6,10.9-39.3,6.7-59.5,9.2v-13c0-6.1-9.4-6.1-9.4,0v14.8c-1.1,0.3-2.2,0.6-3.3,0.9c-5.6,1.9-3.3,10.9,2.5,9.1
		c11.2-3.9,23.1-3.9,35-4.2c-0.2,0.6-0.2,1.4,0,2.2c1.7,7.2,3.4,14.4,5.1,21.7c1.4,5.9,10.5,3.4,9.1-2.5c-1.7-7.2-3.4-14.4-5.1-21.7
		c0,0,0,0,0-0.2c11.2-0.8,22.2-2.7,32-9.5c1.4-0.9,2-2.3,2-3.6C617.6,260.5,617.9,259.3,617.7,257.7z" style="fill:var(--illu-bg--light);"/>
	<path d="M525.2,232.9c-5.3,13.1-8.6,26.7-10.3,40.7c-0.8,5.9,8.6,5.9,9.4,0c1.6-13.3,5-25.9,10-38.2
		C536.4,229.8,527.4,227.4,525.2,232.9z" style="fill:var(--illu-bg--light);"/>
	<path d="M578.1,359.9c-0.3-5.9-9.7-6.1-9.4,0c0.5,10.6,1.1,21.1,1.6,31.7c0.3,5.9,9.7,6.1,9.4,0
		C579.2,381,578.7,370.4,578.1,359.9z" style="fill:var(--illu-bg--light);"/>
	<path d="M587.3,236.2h-27.2c-6.1,0-6.1,9.4,0,9.4h27.2C593.2,245.5,593.4,236.2,587.3,236.2z" style="fill:var(--illu-bg--light);"/>
	<path d="M535.2,308.1c-0.8-2.7-3.3-3.7-5.8-3.3c-2.3,0.5-5.1,0-7.3-0.9c-2.3-1.1-5-0.6-6.4,1.7c-1.2,2-0.6,5.3,1.7,6.4
		c4.7,2.2,9.4,2.8,14.5,1.9C534.4,313.4,535.8,310.3,535.2,308.1z" style="fill:var(--illu-bg--light);"/>
	<path d="M617.7,295.6c-5.1-0.8-9.8-0.2-14.5,1.9c-2.3,0.9-2.8,4.4-1.7,6.4c1.4,2.3,4.1,2.7,6.4,1.7
		c2.2-0.9,5-1.2,7.3-0.9c2.5,0.3,5-0.6,5.8-3.3C621.6,299.2,620.2,296,617.7,295.6z" style="fill:var(--illu-bg--light);"/>
	<path d="M560.1,585.6c-5,1.2-10,1.4-15,0.8c-2.5-0.3-4.7,2.3-4.7,4.7c0,2.8,2.2,4.4,4.7,4.7c5.9,0.8,11.7,0.3,17.5-1.1
		C568.6,593.2,566.1,584.2,560.1,585.6z" style="fill:var(--illu-bg--light);"/>
	<path d="M484.6,509.9c-0.8-2.7-3.3-3.6-5.8-3.3c-3.6,0.6-7.2,1.1-10.8,1.7c-2.5,0.5-3.9,3.6-3.3,5.8
		c0.8,2.7,3.3,3.6,5.8,3.3c3.6-0.6,7.2-1.1,10.8-1.7C483.8,515.4,485.2,512.2,484.6,509.9z" style="fill:var(--illu-bg--light);"/>
	<path d="M703.7,547.5c-1.1-5.1-5.5-6.4-9.8-7.3c-0.5-0.9-1.4-1.9-2.7-2.2c-12.2-3.9-24.8,0.6-32.3,10.8
		c-1.6,2-0.3,5.1,1.7,6.4c10.9,6.7,24.8,8,36.5,2.3C701.1,555.5,704.7,552.4,703.7,547.5z M691.4,549.7c-2.7,1.1-5.6,1.7-8.4,1.9
		c-4.4,0.3-8.4-0.5-12.3-1.9c3.9-3,8.9-4.2,13.9-3.6c0.5,0.9,1.4,1.9,2.8,2.2C690,548.9,697.9,547,691.4,549.7z" style="fill:var(--illu-bg--light);"/>
	<path d="M142.2,573.4c-10.6-2-25.6-0.3-32.6,8.9c-7,9.4,6.1,16.9,13.9,17.5c9.2,0.8,23.9-1.9,28.6-10.9
		C156,581.1,149.9,572.6,142.2,573.4z M143.3,584.2c-0.2,1.4-0.9,2.3-2.5,2.7c-1.7,1.1-4.4,1.9-6.4,2.3c-4.1,1.1-8.6,1.9-12.6,0.8
		c-7.6-2,0.2-5.6,3.6-6.7c4.7-1.6,9.4-1.7,14.2-0.8c1.1,0.5,2.5,0.6,3.9,0C143.8,582.9,143.8,583.6,143.3,584.2z" style="fill:var(--illu-bg--light);"/>
	<path d="M262.4,585.1c-5.9,0.6-11.7,1.1-17.6,1.7s-5.9,10,0,9.4s11.7-1.1,17.6-1.7
		C268.3,593.9,268.3,584.5,262.4,585.1z" style="fill:var(--illu-bg--light);"/>
	<path d="M370.5,595.7l-24.3,1.6c-5.9,0.5-6.1,9.8,0,9.4l24.3-1.6C376.6,604.6,376.6,595.3,370.5,595.7z" style="fill:var(--illu-bg--light);"/>
</g>
</svg>
