<?xml version="1.0" encoding="utf-8"?>
<!-- Generator: Adobe Illustrator 23.0.2, SVG Export Plug-In . SVG Version: 6.00 Build 0)  -->
<svg version="1.1" id="Capa_1" xmlns="http://www.w3.org/2000/svg" xmlns:xlink="http://www.w3.org/1999/xlink" x="0px" y="0px" viewBox="0 0 800 498.4" style="enable-background:new 0 0 800 498.4;" xml:space="preserve">

<g>
	<path d="M799.8,200.9c-1.2-32.5-8.6-65.2-26.7-92.6c-15.7-23.9-37.8-43-62.6-57.2c-60-34.5-131.5-37.4-199-37.1
		c-77.5,0.3-155.1,5.2-232.5,10.4c-34.1,2.3-68.6,5.5-101,16.1c-32.3,10.4-60.4,29.1-86.1,51C47.2,129.7-3,180.9,0.2,244.4
		C1.8,277.9,17,309.9,34.3,338c16.1,26.2,36.1,50.1,58.8,70.9c9.7,8.8,20.1,17,30.9,24.5c0.3,2.3,2.3,4.5,5.4,3.9h0.1
		c1.9,1,3.6,0.3,4.8-1c72.8-15.1,148.8-1.2,221.6,7.1c38.7,4.3,77.5,8.8,116.2,13.2c38.1,4.3,76.8,11,115.2,10.1
		c62.3-1.4,119.3-33.6,157-82.6C783.9,332.6,802,265.1,799.8,200.9z" style="fill:#B6C8E8;"/>
	<g>
		<path d="M775.8,301.5c-1.3-8-7.8-14.2-15.4-16.5c-7.1-2.2-14.6-0.3-20.7,3.6c-1.7-8.1-7.1-15.2-14.8-18.6
			c-8.1-3.6-17.4-2.6-24.9,2c-3.9-7.8-14.1-9.6-20.7-3.9c-3.6-2.9-8.8-3.9-13.3-2c-4.9,2-7.7,7.1-7.7,12.3
			c-4.6-1.4-10.3-1.3-14.5-0.7c-6.2,0.9-12.3,3.9-15.5,9.6c-2.6,4.6-2.6,10.4,1,14.5c0.1,0.1,0.4,0.4,0.6,0.6
			c-2.5,1.4-4.6,3.5-5.9,6.2c-3.2,6.4-1.6,14.3,3.8,19c9.7,8.6,27.2,10.3,38,2.6c3.9,7.7,11.4,13,20.3,13.6
			c9,0.6,17.7-4.3,22.5-11.9c9.1,7,20.7,12.3,32.2,7.5c7.1-2.9,12-10.6,11.4-18c4.5,1.9,9.7,1.9,14.2-0.3
			C773.4,317.9,777.1,309.2,775.8,301.5z" style="fill:#FFFFFF;"/>
		<path d="M195.6,297.1c-4.8-3.6-11.3-4.9-16.8-2.6c-2.8-8.6-9.4-15.7-18.4-18.1c-8.6-2.3-17.7,0.1-24.3,5.8
			c-7-16.8-28.8-21.6-42.5-8c-0.1,0.1-0.3,0.3-0.4,0.4c-5.4-8-16.4-11.3-25.2-7c-7.2,3.6-11,11.4-10.6,19.3
			c-9.4-2.2-20.1,1.4-25.8,9.6c-3.5,5.1-5.1,11.9-2.5,17.7c1.9,4.2,6.2,6.8,10.7,6.7c6.2,12.9,23.3,15.8,33.3,6.1
			c4.2,7.5,11.6,13.3,20.4,13.9c8.6,0.4,16.8-4.2,20.7-11.6c8.4,5.5,18.1,10.4,28.3,8.8c7.5-1.2,14.3-5.8,17.2-12.8
			c6.5,4.9,14.6,7.8,22.9,6.5s15.7-7.1,18.4-15.1C203.9,309.6,201.8,301.8,195.6,297.1z" style="fill:#FFFFFF;"/>
	</g>
	<path d="M733.4,451.2c-34.1-15.5-71.6-12.5-107.8-9.4c-40.3,3.5-80.4,3.9-120.9,2.2c-75.1-3.3-149.7-13.2-224.6-18.4
		c-0.6-0.6-1.4-0.9-2.5-1c-43.5-5.5-87.4-7.5-131.3-5.8c-16.2,0.6-34.6,1.2-47.5,12.3c-10.1,8.8-13.2,24.6-1,33.2
		c0.3,0.3,0.7,0.4,1,0.6c0.7,0.7,1.4,1.4,2.3,2c0.1,0.1,0.1,0.1,0.3,0.1c5.2,4.8,12.9,5.9,19.7,7c12,1.9,24.2,3.8,36.2,5.4
		c48.8,6.8,98,11.9,147.1,15.1c99.6,6.4,199.4,5.2,298.9-3.6c27-2.3,54.1-5.1,81-8.8c19.1-2.8,39.3-8,50.7-24.9
		C736.2,455.3,735.5,452.1,733.4,451.2z" style="fill:#74A3D7;"/>
	<g>
		<path d="M616.9,408.7c-2.9-37.7-5.8-75.4-8.6-113c-1.6-21-3.2-42-4.8-62.9c-0.4-6.2,0.1-14.5-5.9-18.3
			c-6.2-3.8-17.2-2.6-24.3-3.2c-2.5-0.1-4.2,2.2-4.3,4.3l-0.6,9.4c-5.4,8.3-4.2,103.3-1.6,139.4c1.3,18.4,3,36.7,5.2,54.9
			c1.7,14.1,1.6,32.6,13.9,42.2c9.9,7.7,22.5,4.3,28.7-5.9C622.7,442.4,617.9,423.1,616.9,408.7z" style="fill:#57455E;"/>
		<path d="M703.2,126.4c11.2-11.2,8-30.3-1.7-42.2c-5.1-6.1-11.3-10.7-17.7-15.4c0.7-22.6-8.6-45.2-30.9-54.3
			c-19.4-8-47-7.8-66.1,3.2c-0.7-0.4-1.3-0.9-2-1.4c-4.2-3.6-7.8-7.2-12.6-10C563,1.2,552.3-0.8,542,0.3
			c-21.7,2.6-38,20.3-41.2,41.3C481,44.1,463.1,58,457.3,77.6c-5.7,19.1,1.6,39.9,16.2,52.8c-11,13-11.6,32.9-2.9,47.7
			c9.9,17,29.3,25.1,48.1,26.4c-2,13.9,4.8,28.8,18,35.1c8,3.8,16.7,3.9,24.5,1.2c15.9,16.2,44.3,18.3,61.9,2.9
			c27.4,5.8,51.7-16.5,49.3-43.6c17.7,1.3,35.7-8.4,42.8-25.2S716.5,138.1,703.2,126.4z" style="fill:#74A3D7;"/>
		<g>
			<path d="M528.9,80.9c-0.6-2.5-1-5.1-1.6-7.5c-0.4-2.3-3.2-3.6-5.4-3c-2.3,0.7-3.5,3-3,5.4c0.6,2.5,1,5.1,1.6,7.5
				c0.4,2.3,3.2,3.6,5.4,3C528.4,85.5,529.4,83.2,528.9,80.9z" style="fill:#57455E;"/>
			<path d="M550,92.2c-0.7-6.2-4.1-12.6-10.6-14.3c-6.2-1.6-11.6,2-15.8,6.4c-4.9-2.6-10-5.8-15.2-1.7
				c-5.4,4.1-4.6,12-2.3,17.7c2.6,6.7,8.8,13,15.9,14.5c4.3,0.9,8.6-0.6,11.2-3.5c3.2,1.3,7,1,10.3-1.2
				C549.2,106.4,550.7,98.4,550,92.2z" style="fill:#F087B1;"/>
		</g>
		<g>
			<path d="M591,173.8c0-2.6,0-5.2,0.1-7.7c0-2.3-2.3-4.2-4.5-4.2c-2.5,0.1-4.1,2.2-4.2,4.5c0,2.6,0,5.2-0.1,7.7
				c0,2.3,2.3,4.2,4.5,4.2C589.4,178.3,591,176.3,591,173.8z" style="fill:#57455E;"/>
			<path d="M609.1,189.5c0.7-6.2-1.2-13.2-7.1-16.2c-5.8-2.9-11.7-0.6-16.8,2.8c-4.2-3.6-8.6-7.8-14.5-4.9
				c-6.1,2.9-7.1,10.7-6.1,16.7c1.2,7,5.7,14.6,12.5,17.7c4.1,1.7,8.4,1.3,11.7-0.9c2.9,2,6.7,2.5,10.3,1
				C605.3,203.1,608.5,195.7,609.1,189.5z" style="fill:#F087B1;"/>
		</g>
		<g>
			<path d="M632.9,75.5c0.6-2.5,1-5.1,1.6-7.5c0.4-2.3,3.2-3.6,5.4-3c2.3,0.7,3.5,3,3,5.4c-0.6,2.5-1,5.1-1.6,7.5
				c-0.4,2.3-3.2,3.6-5.4,3C633.4,80.3,632.4,77.9,632.9,75.5z" style="fill:#57455E;"/>
			<path d="M618.1,104.8c3.3,2.2,7.1,2.5,10.3,1.2c2.8,2.9,6.8,4.3,11.2,3.5c7.2-1.4,13.3-8,15.9-14.5
				c2.3-5.5,3-13.5-2.3-17.7c-5.2-4.1-10.3-0.9-15.2,1.7c-4.2-4.3-9.6-8.1-15.8-6.4c-6.5,1.7-9.9,8.1-10.6,14.3
				C611.1,93.1,612.6,101,618.1,104.8z" style="fill:#F087B1;"/>
		</g>
	</g>
	<g>
		<g>
			<path d="M203.9,126.1c-8-5.9-18.3-8.8-28.3-8.4c-5.2,0.3-13.6,1.9-16.1,6.7c-8.1,7.5-13,21.6-13.9,30.6
				c-1.9,19.6,14.2,33.6,32.2,37.8c16.1,3.6,33.3-5.7,39.6-20.7C224,155.8,217.8,136.6,203.9,126.1z" style="fill:#F7D3BD;"/>
			<path d="M137.5,126.8c-4.6-4.1-9.3-8.3-13.9-12.3c-4.2-3.8-10.3,2.5-6.1,6.1c4.6,4.1,9.3,8.3,13.9,12.3
				C135.6,136.7,141.7,130.5,137.5,126.8z" style="fill:#F087B1;"/>
			<path d="M129.8,149.5c-6.2,1.7-12.6,2.5-19.1,2.2c-5.7-0.1-5.7,8.6,0,8.7c7.2,0.3,14.3-0.6,21.5-2.5
				C137.5,156.4,135.2,148,129.8,149.5z" style="fill:#F087B1;"/>
			<path d="M141.7,196c-4.1,2.8-8.4,5.2-13,7c-2.2,0.9-3.8,2.9-3,5.4c0.6,2,3.2,3.9,5.4,3c5.4-2,10.4-4.6,15.1-7.8
				C150.7,200.5,146.3,192.9,141.7,196z" style="fill:#F087B1;"/>
			<path d="M178.2,233.4c-0.9-6.4-1.9-12.6-2.8-19c-0.7-5.5-9.1-3.2-8.4,2.3c0.9,6.4,1.9,12.6,2.8,19
				C170.5,241.2,178.9,238.7,178.2,233.4z" style="fill:#F087B1;"/>
			<path d="M222.6,226.4l-9.7-17.7c-2.8-4.9-10.3-0.6-7.5,4.3l9.7,17.7C217.8,235.7,225.3,231.3,222.6,226.4z" style="fill:#F087B1;"/>
			<path d="M252.3,175c-5.8,0.4-11.3-0.6-16.5-3c-5.1-2.5-9.4,5.1-4.3,7.5c6.7,3.2,13.6,4.8,21,4.2
				C257.8,183.2,257.8,174.5,252.3,175z" style="fill:#F087B1;"/>
			<path d="M256.9,130.2c-5.9,1.7-11.7,3.6-17.7,5.4c-5.4,1.6-3,10,2.3,8.4c5.9-1.7,11.7-3.6,17.7-5.4
				C264.6,137,262.3,128.6,256.9,130.2z" style="fill:#F087B1;"/>
			<path d="M221.7,83.9c-3.3,7.1-5.8,14.3-7.4,22c-1.2,5.5,7.2,7.8,8.4,2.3c1.4-7,3.6-13.6,6.5-20
				C231.5,83.4,224.2,78.9,221.7,83.9z" style="fill:#F087B1;"/>
			<path d="M171.5,70.5c-1.2,7.5-1.4,14.9-0.9,22.6c0.4,5.5,9.1,5.7,8.7,0c-0.6-6.8-0.4-13.6,0.6-20.3
				C180.7,67.3,172.4,64.8,171.5,70.5z" style="fill:#F087B1;"/>
			<path d="M153.7,103.9c-3.2-5.9-7-11.3-11.4-16.4c-3.8-4.2-9.9,2-6.1,6.1c3.9,4.5,7.2,9.3,10,14.5
				C148.8,113.2,156.3,108.9,153.7,103.9z" style="fill:#F087B1;"/>
		</g>
		<path d="M188.6,171c-2.2-10.6-3.2-21-3.3-31.7c0-5.7-8.7-5.7-8.7,0c0.1,11.4,1.3,22.9,3.6,34.1
			C181.4,178.7,189.8,176.4,188.6,171z" style="fill:#57455E;"/>
		<path d="M201,140.3c-5.7,0-5.7,8.7,0,8.7C206.5,149,206.5,140.3,201,140.3z" style="fill:#57455E;"/>
		<path d="M158.4,147.9h-0.3c-2.3,0-4.5,2-4.3,4.3c0.1,2.3,1.9,4.3,4.3,4.3h0.4c2.3,0,4.5-2,4.3-4.3
			C162.6,149.9,160.8,147.9,158.4,147.9z" style="fill:#57455E;"/>
	</g>
	<g>
		<path d="M151.2,447c-3.2-2.2-5.9-4.9-8.1-8.1c-1.3-1.9-3.8-2.8-5.9-1.6c-1.9,1.2-2.9,4.1-1.6,5.9
			c3.2,4.3,6.8,8.1,11.3,11.2c1.9,1.3,4.8,0.3,5.9-1.6C154,450.8,153.1,448.3,151.2,447z" style="fill:#56597A;"/>
		<path d="M159.7,422.2c-2.3,0-4.3,2-4.3,4.3v7.7c0,2.3,2,4.3,4.3,4.3s4.3-2,4.3-4.3v-7.7
			C164,424.2,162,422.2,159.7,422.2z" style="fill:#56597A;"/>
		<path d="M173.1,438.7c-2.2-0.4-4.9,0.6-5.4,3c-0.1,1-0.4,1.9-0.9,2.9c-0.1,0.3-0.3,0.4-0.3,0.7
			c-0.3,0.4-0.6,1-0.9,1.4c-1.3,1.9-0.4,4.9,1.6,5.9c2.2,1.2,4.6,0.4,5.9-1.6c1.4-2.2,2.3-4.5,2.9-7.1
			C176.6,441.9,175.5,439.3,173.1,438.7z" style="fill:#56597A;"/>
	</g>
	<g>
		<path d="M412,474.2c-1.6-1.6-3.2-3.2-4.8-4.8c-1.6-1.6-4.5-1.7-6.1,0c-1.6,1.7-1.7,4.5,0,6.1c1.6,1.6,3.2,3.2,4.8,4.8
			c1.6,1.6,4.5,1.7,6.1,0C413.6,478.7,413.7,476,412,474.2z" style="fill:#56597A;"/>
		<path d="M411.8,446c-2.3,0-4.3,2-4.3,4.3v7.7c0,2.3,2,4.3,4.3,4.3c2.3,0,4.3-2,4.3-4.3v-7.7
			C416.2,447.9,414.2,446,411.8,446z" style="fill:#56597A;"/>
		<path d="M427.5,464.4c-2.3-0.6-4.6,0.7-5.4,3c-0.7,2.2-1.3,4.5-2,6.7c-0.7,2.2,0.7,4.8,3,5.4c2.3,0.6,4.6-0.7,5.4-3
			c0.7-2.2,1.3-4.5,2-6.7C431.3,467.6,429.8,465,427.5,464.4z" style="fill:#56597A;"/>
	</g>
	<g>
		<path d="M664.2,464.4c-1.9-1-3.9-1.9-5.8-2.9c-2-1-4.8-0.6-5.9,1.6c-1,2-0.6,4.9,1.6,5.9c1.9,1,3.9,1.9,5.8,2.9
			c2,1,4.8,0.6,5.9-1.6C666.8,468.5,666.3,465.6,664.2,464.4z" style="fill:#56597A;"/>
		<path d="M672.1,445.7c-0.6-2.3-1.2-4.5-1.7-6.8c-0.6-2.2-3.2-3.8-5.4-3c-2.3,0.7-3.6,3-3,5.4l1.7,6.8
			c0.6,2.2,3.2,3.8,5.4,3C671.4,450.3,672.7,448,672.1,445.7z" style="fill:#56597A;"/>
		<path d="M688.2,441.6c-2.6,0-4.1,2-4.3,4.3c-0.3,2.6-1.2,5.1-2.5,7.4c-2.6,4.9,4.9,9.4,7.5,4.3
			c1.9-3.8,3-7.7,3.6-11.9C692.9,443.7,690.4,441.6,688.2,441.6z" style="fill:#56597A;"/>
	</g>
	<g>
		<path d="M261,449.8c-3-3.5-6.7-5.9-10.6-7.8c2.3-2,4.3-4.5,5.8-7.5c1.3-2.6-0.3-7-3.8-6.5c-5.2,0.6-9.6,2.8-12.6,6.4
			c-3.6-3.2-8.1-5.1-13.5-5.4c-2.9-0.1-4.8,2.9-4.2,5.5c0.6,2.5,1.6,4.8,3,6.7c-7.5,1-13.9,3.8-10.7,10.9c1.9,4.2,5.9,5.5,10.3,5.1
			c-0.3,3.2,1,6.1,5.1,8.3c7,3.8,12.6-1.9,15.4-8.4c4.5,2.5,10,2.6,14.9-0.4C262.6,455.1,262.8,451.9,261,449.8z" style="fill:#FFFFFF;"/>
		<path d="M244.2,443.4c-0.7-3.2-3.9-4.2-6.8-3.8c-2.9,0-5.8,1.3-7,4.1c-2,4.6,2.6,9.1,7.2,8
			C241.3,450.9,245,447.3,244.2,443.4z" style="fill:#F7D16F;"/>
	</g>
	<g>
		<path d="M562.7,472.1c-3-3.5-6.7-5.9-10.6-7.8c2.3-2,4.3-4.5,5.8-7.5c1.3-2.6-0.3-7-3.8-6.5
			c-5.2,0.6-9.6,2.8-12.6,6.4c-3.6-3.2-8.1-5.1-13.5-5.4c-2.9-0.1-4.8,2.9-4.2,5.5c0.6,2.5,1.6,4.8,3,6.7c-7.5,1-13.9,3.8-10.7,10.9
			c1.9,4.2,5.9,5.5,10.3,5.1c-0.3,3.2,1,6.1,5.1,8.3c7,3.8,12.6-1.9,15.4-8.4c4.5,2.5,10,2.6,14.9-0.4
			C564.2,477.3,564.6,474.2,562.7,472.1z" style="fill:#FFFFFF;"/>
		<path d="M545.8,465.7c-0.7-3.2-3.9-4.2-6.8-3.8c-2.9,0-5.8,1.3-7,4.1c-2,4.6,2.6,9.1,7.2,8
			C542.9,473.1,546.8,469.6,545.8,465.7z" style="fill:#F7D16F;"/>
	</g>
	<g>
		<path d="M470.8,232.2c-7-3.3-14.5,4.5-19.7,8.1c-7.8,5.5-15.7,10.9-23.5,16.4c-8.4-17.4-16.5-34.9-25.7-51.9
			c-7.1-13.2-15.9-25.4-30.6-30.9c-0.1,0-0.1,0-0.3-0.1c0.3-16.7,0.7-33.8-1.3-50.1c-1-7.7-3.2-16.8-9.6-21.9
			c-6.4-5.1-16.1-4.6-23.6-3.9c-13.8,1.3-32.2,6.4-36.8,21.3c-2.8,9-1.7,19.6-1.9,28.8c-0.3,9.6-0.6,19.3-0.9,28.8
			c-25.2,10.4-36.7,42.5-43,67c-4.2,15.7-6.4,32-6.5,48.3c-0.1,13.3-0.9,31.2,9.1,41.5c2,2,5.4,1.4,6.8-0.9
			c10.7-17,11.7-37.1,13.2-56.7c1.2-15.8,3.2-32.8,12.6-45.7c2.8,37,0.6,74.1-2.8,110.9c-3.8,40.7-8,81.3-11.9,121.9
			c-0.1,1.3,0.9,3.2,2.2,3.8c11.6,4.9,23.5,7,35.9,5.7c4.6-0.4,6.2-7.2,1.2-8.6c-15.8-4.2-8.7-25.7-5.9-36.2
			c3.3-13,6.7-26.2,10-39.3c4.9-19.1,9.7-38.6,16.7-57c1,44.2-1,88.4-5.8,132.5c-0.1,1.7,1.4,3.9,3.2,4.2
			c13.2,1.9,26.4,2.6,39.7,2.2c4.2-0.1,5.9-5.8,2.2-8.1c-14.9-8.8-8.8-37-7.5-50.9c2-21.9,5.7-43.6,9.4-65.2
			c5.1-29.6,10.4-59.3,13.2-89.1c1.9,4.1,3.9,8.1,6.2,11.9c3.8,6.5,8.3,16.1,16.7,17.1c7.4,0.9,15.8-4.1,22.2-7.1
			c8.6-4.2,16.7-9.1,24.2-14.9c5.9-4.5,13.9-9.9,17.1-17C477.6,241.9,476.3,235,470.8,232.2z" style="fill:#56597A;"/>
		<path d="M370.7,127.1c-0.1-1.4-1-2.5-2-2.9c-0.7-0.9-1.7-1.4-3.3-1.3c-8.6,0.9-17.1,1.6-25.7,2.5
			c-7.4,0.7-15.4,0.6-22.5,2.6c-9.9,2.8-12,14.6-2.8,20c5.1,2.9,11.7,2.5,17.4,2.3c8.3-0.3,16.5-0.7,24.9-1c4.3-0.1,11.7,1,14.2-3.6
			C373.6,140.8,371.4,132.2,370.7,127.1z" style="fill:#F7D16F;"/>
		<path d="M370.5,252.5c-0.1-10.9-0.3-21.6-0.4-32.5c0-2.6-2-4.1-4.3-4.3c-10.1-1.3-20.3-2.8-30.6-2.5
			c-5.4,0.1-16.8-0.6-20.1,4.9c-1.4,2.3-1,5.1-0.9,7.5c0.1,3.2,0.3,6.4,0.4,9.6c0.1,12.6,0.7,25.2,1.9,37.8c0,0.1,0,0.3,0,0.4
			c0,0.1,0,0.3,0,0.4c0.1,2,0.4,3.9,0.6,5.8c0.3,2.5,1.7,4.2,4.3,4.3c10,0.6,19.9,0.7,29.9,0.4c6.4-0.1,14.5,0.1,17.8-6.4
			C372.7,271.1,370.5,260.2,370.5,252.5z" style="fill:#F7D16F;"/>
		<path d="M324.7,350.6l-34.8-8.1c-5.9-1.4-8.4,7-2.5,8.4c11.6,2.8,23.2,5.4,34.8,8.1
			C328.1,360.3,330.7,351.9,324.7,350.6z" style="fill:#57455E;"/>
		<path d="M316,381.3c-9.4-2.5-18.8-4.9-28.4-7.2c-5.7-1.4-8.1,7-2.5,8.4c9.4,2.5,18.8,4.9,28.4,7.2
			C319.4,391.2,321.7,382.8,316,381.3z" style="fill:#57455E;"/>
		<path d="M308.4,411.1c-8-1.4-15.9-2.9-23.9-4.2c-5.5-1-7.8,7.4-2.3,8.4c8,1.4,15.9,2.9,23.9,4.2
			C311.5,420.5,313.9,412.1,308.4,411.1z" style="fill:#57455E;"/>
		<path d="M302.3,445h-23c-5.7,0-5.7,8.7,0,8.7h23C307.8,453.7,307.8,445,302.3,445z" style="fill:#57455E;"/>
		<path d="M363.9,444.2c-10.7-2.5-21.6-2.8-32.5-1.2c-5.5,0.7-4.3,9.4,1.2,8.6c10.1-1.4,20.1-1,30.1,1.2
			C368.2,454.1,369.4,445.4,363.9,444.2z" style="fill:#57455E;"/>
		<path d="M363.6,415.4c-8.8-1.9-17.8-3-27-3.6c-5.9-0.4-5.9,8.3,0,8.7c8.3,0.6,16.4,1.6,24.5,3.3
			C366.9,425,369.4,416.7,363.6,415.4z" style="fill:#57455E;"/>
		<path d="M366.6,379.8c-9.4-1.6-18.7-2.2-28.3-1.6c-5.9,0.4-6.1,9.1,0,8.7c8.7-0.6,17.2-0.1,25.8,1.3
			C370,389.2,372.4,380.8,366.6,379.8z" style="fill:#57455E;"/>
		<path d="M371.3,344.5c-11-0.6-21.9-0.3-32.8,0.7c-5.8,0.6-5.9,9.3,0,8.7c10.9-1,21.7-1.3,32.8-0.7
			C377.2,353.5,377.2,344.8,371.3,344.5z" style="fill:#57455E;"/>
		<path d="M416.3,233.4c-7.1,9-14.6,17.5-22.5,25.8c-0.6-10-1.2-20-1.9-29.9c1.7,0.4,3.6,0.1,4.9-1.7
			c3.5-5.1,7.7-9.4,12.3-13.2c1.9-1.4,1.4-4.6,0-6.1c-1.7-1.9-4.3-1.4-6.1,0c-4.5,3.5-8.4,7.7-11.7,12.2
			c-0.9-11.7-1.9-23.3-2.9-35.1c-0.4-5.5-9.3-5.7-8.7,0c2.3,24.9,4.1,50,5.5,74.9c0.3,4.1,4.8,5.1,7.2,3.3c0.9,2.8,4.5,4.8,7.2,2
			c8.1-8.4,15.7-17.1,22.9-26.2C425.9,235.1,419.8,229,416.3,233.4z" style="fill:#57455E;"/>
		<path d="M289.2,188.3c0-5.7-8.7-5.7-8.7,0c0,13.6-0.7,27.2-2.3,40.7c-4.3-2.9-8.3-6.1-12-9.7
			c-4.1-3.9-10.1,2.2-6.1,6.1c5.8,5.5,12.2,10.4,19.1,14.3c3.2,1.9,6.1-0.7,6.5-3.5c0.3-0.6,0.6-1.2,0.7-1.9
			C288.4,219,289.2,203.7,289.2,188.3z" style="fill:#57455E;"/>
		<path d="M278.2,250.2c-7.5-1.6-14.8-3.9-22-7c-4.9-2.2-7.1,6.2-2.2,8.4c7.1,3,14.3,5.4,22,7
			C281.3,259.7,283.4,251.3,278.2,250.2z" style="fill:#57455E;"/>
		<path d="M274.7,269c-7.7-0.4-15.4-0.9-23-1.3c-5.7-0.3-5.5,8.4,0,8.7c7.7,0.4,15.4,0.9,23,1.3
			C280.4,278,280.4,269.3,274.7,269z" style="fill:#57455E;"/>
		<path d="M272.1,293.8c-7.5,1.2-15.2,1.3-22.8,0.4c-5.5-0.6-5.5,8.1,0,8.7c8.4,1,16.7,0.6,25.1-0.7
			C280,301.3,277.6,292.9,272.1,293.8z" style="fill:#57455E;"/>
		<path d="M423.4,252.1c-6.5,9.7-12.6,19.7-18.3,29.9c-2.8,4.9,4.8,9.3,7.5,4.3c5.7-10.1,11.7-20.1,18.3-29.9
			C434,251.8,426.5,247.4,423.4,252.1z" style="fill:#57455E;"/>
		<path d="M450.7,269.3c-1.4-8.7-2.8-11.4-4.2-20.1c-0.9-5.5-9.3-3.2-8.4,2.3c1.4,8.7,2.8,11.4,4.2,20.1
			C443.3,277.1,451.6,274.8,450.7,269.3z" style="fill:#57455E;"/>
		<path d="M470,255.1L458.1,236c-2.9-4.8-10.4-0.4-7.5,4.3l11.9,19.1C465.5,264.2,473,259.9,470,255.1z" style="fill:#57455E;"/>
		<path d="M330,133.7c-2.3-2.2-6.2-2.3-8.4,0.1c-1.2,1.2-1.4,2.9-1,4.5c0,0.4,0.1,0.9,0.1,1.2c0.9,3.5,5.2,4.9,8.1,3
			C331.8,140.5,332.6,136.3,330,133.7z" style="fill:#57455E;"/>
		<path d="M366.8,132.9c-0.3-2-1.6-3.6-3.6-4.3c-1.7-0.6-3.8-0.1-5.1,1.2c-0.1,0-0.1,0.1-0.3,0.1
			c-1.6,0.9-2.6,2.8-2.6,4.5c-0.1,3.6,3.6,6.4,7.1,5.4C365.2,138.9,367.2,136,366.8,132.9z" style="fill:#57455E;"/>
		<path d="M370.8,167.3c-23.6,1.9-47.2,3.5-71,4.8c-5.5,0.3-5.7,9,0,8.7c23.6-1.3,47.4-2.9,71-4.8
			C376.3,175.5,376.5,166.8,370.8,167.3z" style="fill:#57455E;"/>
		<path d="M344.2,71.2c-8.8,6.7-14.1,16.1-14.3,27.2c-0.1,5.7,8.6,5.7,8.7,0c0.3-7.7,3.8-15.1,10-19.7
			C353,75.4,348.6,67.9,344.2,71.2z" style="fill:#57455E;"/>
		<path d="M306.5,225.7c-2.2-2.2-6.1-2.8-8.7-1c-1,0.7-1.7,1.4-2,2.6c-0.7,2.3,0.3,5.2,1,6.2c2,3.3,6.5,3.9,9.4,1.3
			C308.8,232.5,309.1,228.2,306.5,225.7z" style="fill:#F087B1;"/>
		<path d="M309.4,252.4c-0.6-2-2-3.9-4.1-4.2c-3.9-0.4-6.4,1.9-7,2.6c-1.3,1.6-2,3.6-1.6,5.7c0.9,3.5,4.8,5.4,8.1,4.3
			C308.4,259.7,310.2,255.8,309.4,252.4z" style="fill:#F087B1;"/>
		<path d="M307.8,264.8c-6.5-1.9-8.4,4.3-8.7,5.8c-0.9,3.8,1.9,7.1,5.7,7.2c3,0.1,5.8-2,6.5-4.9
			C312.1,269.7,310.8,265.7,307.8,264.8z" style="fill:#F087B1;"/>
		<path d="M367.3,230c-2-2.8-4.2-7.4-8.1-7.8c-3.8-0.3-6.1,3-8.7,5.4c-2.2-2.8-3.3-6.5-8.1-5.5c-1.2,0.3-2.2,1.2-3,1.7
			c-1.3,1-2.5,2.2-3.5,3.5c-0.4,0.3-0.7,0.6-1,0.9c-2-2.2-3.2-5.4-6.4-5.9c-4.6-0.9-7.8,4.8-10.3,7.7c-3.8,4.2,2.5,10.3,6.1,6.1
			c0.7-0.9,2.6-2.3,3.3-3.5c1.4,1.9,3.2,3.9,5.2,4.9c3.9,1.9,7.1-0.7,9.3-3.9c0.4-0.7,1.2-1.2,1.4-1.6c0.4,0.7,0.7,1.4,1,1.9
			c1.2,1.4,2.6,3.3,4.5,3.6c1.9,0.4,3.6-0.4,5.1-1.4c3.3-2.3,2.9-5.4,5.7-1.6C363,239,370.7,234.7,367.3,230z" style="fill:#74A3D7;"/>
		<path d="M367.3,250c-2-2.8-4.2-7.4-8.1-7.8c-3.8-0.3-6.1,3-8.7,5.4c-2.2-2.8-3.3-6.5-8.1-5.5c-1.2,0.3-2.2,1.2-3,1.7
			c-1.3,1-2.5,2.2-3.5,3.5c-0.4,0.3-0.7,0.6-1,0.9c-2-2.2-3.2-5.4-6.4-5.9c-4.6-0.9-7.8,4.8-10.3,7.7c-3.8,4.2,2.5,10.3,6.1,6.1
			c0.7-0.9,2.6-2.3,3.3-3.5c1.4,1.9,3.2,3.9,5.2,4.9c3.9,1.9,7.1-0.7,9.3-3.9c0.4-0.7,1.2-1.2,1.4-1.6c0.4,0.7,0.7,1.4,1,1.9
			c1.2,1.4,2.6,3.3,4.5,3.6c1.9,0.4,3.6-0.4,5.1-1.4c3.3-2.3,2.9-5.4,5.7-1.6C363,258.9,370.7,254.7,367.3,250z" style="fill:#74A3D7;"/>
		<path d="M367.3,270c-2-2.8-4.2-7.4-8.1-7.8c-3.8-0.3-6.1,3-8.7,5.4c-2.2-2.8-3.3-6.5-8.1-5.5c-1.2,0.3-2.2,1.2-3,1.7
			c-1.3,1-2.5,2.2-3.5,3.5c-0.4,0.3-0.7,0.6-1,0.9c-2-2.2-3.2-5.4-6.4-5.9c-4.6-0.9-7.8,4.8-10.3,7.7c-3.8,4.2,2.5,10.3,6.1,6.1
			c0.7-0.9,2.6-2.3,3.3-3.5c1.4,1.9,3.2,3.9,5.2,4.9c3.9,1.9,7.1-0.7,9.3-3.9c0.4-0.7,1.2-1.2,1.4-1.6c0.4,0.7,0.7,1.4,1,1.9
			c1.2,1.4,2.6,3.3,4.5,3.6c1.9,0.4,3.6-0.4,5.1-1.4c3.3-2.3,2.9-5.4,5.7-1.6C363,278.9,370.7,274.5,367.3,270z" style="fill:#74A3D7;"/>
	</g>
	<g>
		<g>
			<g>
				<path d="M460.7,389.6c3.8,1,7.5,0,10.1-2.3c3.5,1.9,8,1.9,11.7-0.4c6.4-3.8,10-11.9,10.3-19
					c0.3-5.9-1.6-13.8-8-15.9c-6.2-2-10,2.5-13.8,6.7c-5.4-2.8-11.6-4.5-17.1-0.9c-5.5,3.8-6.7,10.9-5.2,17
					C450.2,380.9,454.2,388,460.7,389.6z" style="fill:#F087B1;"/>
				<path d="M465,357.3c-0.3-2.6-0.7-5.1-1-7.7c-0.3-2.3,1.7-4.5,4.1-4.6c2.5-0.1,4.3,1.7,4.6,4.1
					c0.3,2.6,0.7,5.1,1,7.7c0.3,2.3-1.7,4.5-4.1,4.6C467.2,361.5,465.3,359.6,465,357.3z" style="fill:#57455E;"/>
			</g>
			<g>
				<path d="M484.3,389.8c2.9,2.6,6.7,3.5,10,2.8c2.2,3.3,6.2,5.4,10.6,5.1c7.4-0.4,14.3-5.9,18-12
					c3-5.2,4.9-12.9,0.3-17.8c-4.5-4.8-10-2.5-15.2-0.6c-3.5-4.9-8.3-9.4-14.6-8.7c-6.7,0.7-10.9,6.5-12.5,12.6
					C478.9,377.1,479.2,385.1,484.3,389.8z" style="fill:#F087B1;"/>
				<path d="M503.1,362.9c0.9-2.5,1.7-4.8,2.8-7.2c0.9-2.2,3.6-3.2,5.8-2.2c2.3,1,3,3.5,2.2,5.8
					c-0.9,2.5-1.7,4.8-2.8,7.2c-0.9,2.2-3.6,3.2-5.8,2.2C503,367.7,502.3,365.3,503.1,362.9z" style="fill:#57455E;"/>
			</g>
			<g>
				<path d="M437.6,386.7c3.8,1,7.5,0,10.1-2.3c3.5,1.9,8,1.9,11.7-0.4c6.4-3.8,10-11.9,10.3-19
					c0.3-5.9-1.6-13.8-8-15.9c-6.2-2-10,2.5-13.8,6.7c-5.4-2.8-11.6-4.5-17.1-0.9c-5.5,3.8-6.7,10.9-5.2,17
					C427.1,378,431.1,385,437.6,386.7z" style="fill:#F087B1;"/>
				<path d="M441.8,354.2c-0.3-2.6-0.7-5.1-1-7.7c-0.3-2.3,1.7-4.5,4.1-4.6c2.5-0.1,4.3,1.7,4.6,4.1
					c0.3,2.6,0.7,5.1,1,7.7c0.3,2.3-1.7,4.5-4.1,4.6C444,358.4,442.1,356.6,441.8,354.2z" style="fill:#57455E;"/>
			</g>
			<path d="M552.7,364c-5.2-6.4-13-3.6-18.4,0.9c-4.9,4.2-9.3,9-10.3,15.1c-7.7-1-15.5-1.7-23.2-2.6
				c-14.5-1.6-29.1-3.2-43.6-4.9c-11.6-1.3-23.5-1.9-35.2-3.6c-4.3-9-10.1-18.4-20.9-20.3c-8.1-1.4-17.8,3.5-13.2,12.8
				c4.1,8.1,13,12,21.3,13.9c1.2,0.3,2.3,0.6,3.6,0.7c2.8,14.3,5.7,28.7,8.8,42.9c1.9,8.1,2.2,23.3,11.7,26.4
				c5.8,1.9,13,1.2,19.1,1.3c7.7,0.3,15.2,0.7,22.9,1c7.1,0.3,14.3,0.6,21.5,1c6.4,0.3,14.5,2,20.7,0.4c3.3-0.9,5.7-3.3,6.8-6.5
				c2.3-6.5,3-14.1,4.3-21c1.3-7,2.5-13.9,3.6-20.9c0.4-2.9,1.7-7,1.9-10.7c5.4-0.4,10.6-2.5,14.6-6.2
				C554.6,378.9,557.8,370.3,552.7,364z M398.2,357c2.9-1.3,8.4,3.9,10,5.7c1,1.3,2,2.6,2.9,4.1C406.9,365.4,392.4,359.5,398.2,357z
				 M540.1,379.6c-2.5,1.3-5.1,1.7-7.7,1.7c0.6-3.3,3.5-6.2,5.8-8.4c1.9-1.7,6.7-6.7,8.1-2.5C547.8,374.2,542.9,378.2,540.1,379.6z" style="fill:#F7D3BD;"/>
		</g>
		<path d="M529.5,391.2c-8.4-0.9-16.7-0.3-25.1,0c-10.1,0.4-20-0.4-30.1-1.7c-19.1-2.6-38.3-5.2-57.2-7.8
			c-5.5-0.7-6.4,8-0.9,8.7c19.1,2.6,38.3,5.2,57.2,7.8c9.1,1.2,18.1,2.2,27.2,1.9c9.4-0.3,18.6-1.2,28-0.1
			C534.3,400.5,535.2,391.8,529.5,391.2z" style="fill:#57455E;"/>
	</g>
</g>
</svg>
