<?xml version="1.0" encoding="utf-8"?>
<!-- Generator: Adobe Illustrator 23.0.2, SVG Export Plug-In . SVG Version: 6.00 Build 0)  -->
<svg version="1.1" id="Capa_1" xmlns="http://www.w3.org/2000/svg" xmlns:xlink="http://www.w3.org/1999/xlink" x="0px" y="0px" viewBox="0 0 800 809.9" style="enable-background:new 0 0 800 809.9;" xml:space="preserve">

<g>
	<path d="M798.5,258.2C788.9,127.1,629,38,588,26C544.8,13.5,499.1,5.6,454.1,2.2C291-10.6,129.9,31.2,56.7,181
		c-17.1,35-29,72.3-35,110.7c-6.8,44.1-4.7,88.7-2.8,133c1.9,45.6,4.5,91.3,12.4,136.2c6.6,38.2,15.4,82.3,39.2,113.9
		c9.6,12.6,22,22.2,37.7,25.4c2.6,0.4,4.7-0.2,6-1.7c24.1,5.1,48.8,7.2,73.6,6.2c17.7,2.6,35.4,4.1,53.1,4.9
		c47.5,2.3,95.3,2.3,142.8,3.2c45,0.9,90.2,2.3,135.2,2.1c36.7-0.2,74-2.6,109.4-13c34.1-10,65.9-28.1,88.5-56.3
		c24.7-30.7,38-68.4,47.5-106.4c11.5-44.8,19.6-90.6,25.4-136.5C795.9,355,802.1,306.2,798.5,258.2z" style="fill:var(--illu-blue--main);"/>
	<path d="M793.1,731.8c-15.8-27.9-50.7-47.8-80-57.8c-36.9-12.6-77.6-12.8-114.3,0.6c-4.3-0.4-8.5-0.9-12.4-1.1
		c-56.5-4.3-113,1.9-169.5,3.2c-59.9,1.5-118.8-7.2-178.5-11.5c-53.1-3.8-106.6-2.1-156.5,17.1C63.8,687.8,46.9,697,32,709.4
		C19,720.2-2.8,739.9,0.9,759c3.6,20,34.8,26.2,51,30.7c24.1,6.6,49,9.4,74,10.7c52.2,2.6,104.5-1.7,156.9,0
		c53.1,1.7,106.2,6.4,159.3,7.9c30.1,0.9,60.1,0.6,90.2-1.9c67.2,4.3,135,2.6,199.8-16.8C754.3,782.9,813,766.9,793.1,731.8z" style="fill:var(--illu-brown--main);"/>
</g>
<g>
	<path d="M645.2,146.9c-3-12.2-14.9-7.2-23.5-0.6c-2.1-5.5-4.5-10.7-7.5-16c-1.5-2.8-6-4.5-8.7-2.3
		c-14.7,11.3-5.1,36.5-1.3,51c1.1,3.6,4.3,4.9,7.2,4.5c1.1,0,2.1-0.2,3.2-0.6c7.9-4.1,15.1-9.2,21.1-15.8
		C640.1,162.1,646.9,154.4,645.2,146.9z" style="fill:var(--illu-red--light);"/>
	<path d="M197.2,194.1c-3-7.5-6.2-14.7-10.2-21.5c-3.2-5.8-7-13.6-13.9-15.6c-5.1-1.5-10.4,1.3-11.9,6.6
		c-1.1,3.6,0,7.7,1.5,11.5c-5.8-0.4-11.7,0.2-17.5,1.9c-4.7,1.5-6.2,7.2-2.8,10.7c11.7,12.6,28.4,19.2,45.6,17.3
		c2.6-0.2,4.3-1.7,5.1-3.4C196.2,200.9,198.7,198.1,197.2,194.1z" style="fill:var(--illu-red--light);"/>
</g>
<g>
	<path d="M392.7,408.5c-24.5-32.6-44.1-68.2-58.8-106.2c-6.8-17.5-13.2-35.4-21.1-52.4c-6.2-13.4-12.6-28.1-26.4-34.8
		v-3.4v-0.2c0.4-0.2,0.9-0.4,1.1-0.6c12.8-8.3,16.2-27.5,16.4-41.8c0-6.8-1.1-14.9-4.3-22c-1.5-5.1-4.1-9.8-8.7-12.4
		c-0.9-0.4-1.7-0.9-2.6-1.1c-1.1-0.6-2.3-1.3-3.6-1.7c-14.3-4.7-26.7,8.7-31.1,20.7c-5.3,14.1-6.2,35.4,1.3,48.8
		c1.9,3.4,4.3,6,7,8.1c-0.4,0.6-0.9,1.5-1.1,2.3c-27.9,9.4-46.7,36.5-50.1,65.5c-1.5,12.8-0.2,25.6,3,38
		c-12.6,80.4-11.3,161.8-3.8,242.4c3.8,40.7,9,81.4,14.5,122c1.3,9.6,2.6,19.2,4.1,29c1.1,6.6,1.9,13,8.5,16.2
		c14.5,7.2,36.5,5.8,52,4.1c5.5-0.6,9.8-9,3.2-11.9c-2.6-1.1-5.1-2.3-7.7-3.8c8.1-0.6,16.2-1.7,24.3-3.2c4.1-0.9,5.8-6.2,3.8-9.4
		c-4.9-8.3-11.9-6.4-19.6-10.2c-10.4-5.3-8.5-27.7-9.2-37.7c-1.7-27.7-0.6-55.6,1.5-83.4c4.1-53.3,11.5-106.2,11.7-159.7
		c18.1,7.5,37.7,11.9,56.5,14.9c7.2,1.1,31.8,5.5,33.3-6.2c0.6,0,1.3-0.2,1.9-0.2C392.7,417.3,395.1,411.5,392.7,408.5z
		 M338.6,384.2c-14.1-6.8-29.2-14.3-42.9-23.7c1.1-12.6,2.3-25.4,3.4-38C312.2,343.3,325.2,363.8,338.6,384.2z" style="fill:var(--illu-brown--light);"/>
	<path d="M307.9,682.9c-19.2-16.6-49.7-5.8-72.3-1.1c-2.8,0.6-4.3,2.1-4.7,3.8c-1.1,0.9-1.9,1.9-2.3,3.4
		c-2.6,10.7-6.6,26.7,0.9,36.5c7.5,9.8,26,11.1,37.7,11.9c10.7,0.9,28.8,2.3,35.2-7.9c2.6-4.3,2.6-9.2,0.6-13.4
		c7.2-2.6,15.4-6,17.3-12.2C323,696.2,313.6,687.8,307.9,682.9z" style="fill:var(--illu-yellow--main);"/>
	<path d="M290.4,212.8c-4.7-1.7-11.1-0.4-16,0c-7.9,0.6-15.6,1.5-23.2,2.3c-3,0.4-4.9,2.3-5.8,4.7
		c-0.9,1.3-1.3,3-1.1,4.9c2.8,17.3,5.8,34.5,9.2,51.8c3,14.9,5.1,30.7,13.6,43.7c2.6,3.8,8.7,4.5,11.1,0
		c6.4-11.7,8.5-24.7,10.4-37.7c2.3-15.1,4.5-30.3,6.2-45.4C295.7,229.7,300,216.2,290.4,212.8z" style="fill:var(--illu-white--light);"/>
	<path d="M378.5,377.8c-3.2-9.2-9.6-17.7-14.3-26c-5.3-9.8-10.7-19.8-15.6-29.8c-9.8-20-18.5-40.3-26.4-61.2
		c-6.6-17.1-13.4-33.9-26.9-46.9c-3.2-3.2-9.8-1.9-10.7,2.8c-5.8,28.8-11.1,57.6-15.8,86.3c-10.2-26.4-16.4-54.2-18.1-82.5
		c-0.4-6.6-9.4-8.5-15.1-1.9c-25.4,30.1-39.2,71.6-24.5,107.5c-7.2,22.6-11.7,46.1-13.4,69.7c-0.9,13.2-4.9,35.6,4.9,46.3
		c-1.9,84.4,5.1,168.9,20.9,251.8c0.4,2.6,3.6,4.9,6.2,4.7c12.6-1.1,25.2-2.6,37.5-5.3c8.3-1.7,19.4-2.8,23.2-11.7
		c4.1-9.6,2.1-23.2,2.6-33.5c0.6-14.1,1.3-28.4,1.9-42.4c1.3-26.9,2.6-53.9,3.6-80.8c0.6-14.1,1.3-28.4,1.9-42.4
		c0.2-6.4,0.6-12.8,0.9-19.2c0.2-6.2-0.4-14.7,1.7-20.9c2.1-0.9,3.8-1.7,5.1-3.2c4.3-4.5,4.1-13,3.6-20.3
		c14.5,4.1,29.4,6.6,44.6,8.3c2.6,0.2,5.5-2.1,6.2-4.7c2.3-10.2,5.3-17.9,12.2-26C379.5,391.1,381,385.1,378.5,377.8z M314.7,357.4
		c-2.1-0.6-4.3-1.1-6.6-1.5c-0.4,0-6.2-0.4-6.2-0.2c-0.6-0.6,0.6-7,0.6-8.1c0.2-2.3,0.6-4.9,1.1-7.2
		C307.2,346.1,310.9,351.6,314.7,357.4z" style="fill:var(--illu-bg--main);"/>
	<path d="M305.1,142.5c-7.5-13.2-23-17.5-36.2-10c-14.9,8.5-22,26.7-23.2,42.9c-0.2,4.3,3,6.4,6.4,6.2
		c0.6,0.2,1.5,0.4,2.3,0.2c2.8-0.2,5.1-0.6,7.2-1.5c-0.4,3.4,1.7,7,6.2,7c7.2,0,8.1-9.8,2.8-12.2c1.3-1.1,2.6-2.3,3.8-3.6
		c4.3,5.1,9.6,10.4,15.1,12.6c-0.9,3.6,1.1,8.1,6,8.1c5.1,0,7-4.9,5.8-8.7c0.6-0.4,1.3-0.9,2.1-1.3
		C314.5,174,311.1,153.1,305.1,142.5z" style="fill:var(--illu-bg--light);"/>
	<path d="M292.5,196.6c-1.1-3.6-4.5-5.1-7.9-4.5c-3.2,0.6-6.4,0.6-9.6,0.2c-3.4-0.2-6.4,3.2-6.4,6.4
		c0,3.6,3,6.2,6.4,6.4c4.5,0.4,8.7,0,13-0.6C291.5,203.9,293.4,199.6,292.5,196.6z" style="fill:var(--illu-bg--light);"/>
	<path d="M304.7,414.1c7.9,2.1,11.3-10.2,3.4-12.4c-18.8-4.9-36.2-13.2-51.6-25.4c-15.1-11.9-25.4-28.1-39.2-41.4
		c-6-5.5-15.1,3.4-9,9c15.1,14.3,26.2,31.6,43.3,44.3c3.2,2.3,6.6,4.7,10,6.8c-1.3,0.6-2.3,1.9-3,3.4c-8.3,21.7-28.6,37.1-51.8,39.2
		c-8.1,0.9-8.1,13.6,0,12.8c22.2-2.1,41.4-13,53.9-30.1c5.5,16.4,19.4,29.2,37.7,32.8c8.1,1.5,11.5-10.7,3.4-12.4
		c-20-3.8-32.2-19.8-30.7-40.1C281.4,406.4,292.7,410.9,304.7,414.1z" style="fill:var(--illu-bg--light);"/>
	<path d="M357.6,373.4c-15.6-7.7-31.6-15.1-46.9-23.2c1.9-0.9,3.2-2.8,2.8-5.5c-2.3-21.1-3-42.2-1.9-63.5
		c0.2-5.1-4.7-7-8.5-5.8c-3.8-4.3-9.4-10.2-6.4-14.7c3.4-5.1,10.7-8.3,14.5-13.6c6.4-8.7-1.1-14.5-6.8-21.3c-5.3-6.2-14.3,2.8-9,9
		c1.5,1.7,3.2,3.6,4.7,5.5c-6,6.8-18.1,11.3-19.2,20c-0.9,6.4,4.5,13.6,9.4,19.6c-6.6,3.8-13.6,7.2-20.7,10
		c-1.1,0.4-2.1,1.1-2.8,1.9c-4.1-2.6-8.1-4.9-12.4-7.5c-1.7-1.1-8.3-4.1-9.4-5.8c-2.8-4.1,3-18.1,3.6-23.2
		c1.5-12.6-6.8-13.9-16.4-13.9c1.5-4.3,3-8.5,4.5-12.8c2.8-7.7-9.6-11.1-12.4-3.4l-7.5,21.1c-1.5,4.1,2.3,8.1,6.2,8.1
		c3.6,0,9.2-0.9,12.6,0.2c1.1-4.9,0.9-3.8-0.2,3c-0.2,1.3-0.4,2.6-0.6,3.8c-1.3,5.8-5.1,13.4-3.6,19.4c2.6,10.7,20.9,17.1,29.4,22.2
		v14.7c-6.8-5.5-13.2-11.5-19.2-18.3c-5.5-6.2-14.5,3-9,9c32.4,36,76.3,54.8,119,75.9C358.4,388.1,364.8,377,357.6,373.4z
		 M270.4,325.4c1.7-1.1,2.8-2.8,2.8-5.1v-18.1c8.7-3.4,17.1-7.5,25.2-12.4c-0.4,18.3,0.2,36.5,2.3,54.8l0,0
		C290.2,338.8,280,332.6,270.4,325.4z" style="fill:var(--illu-bg--light);"/>
	<path d="M305.3,708.7c-4.7-2.6-9.4-5.3-14.1-7.9c-4.1-2.3-10.9-4.5-14.1-7.9c-6.4-6.4-3.2-21.7-3-30.7
		c0.4-22.4,0.9-44.8,1.3-67.2c0.9-44.8,1.7-89.3,2.3-134.1c0.2-8.3-12.6-8.3-12.8,0c-0.9,49.7-1.7,99.1-2.8,148.8
		c-0.4,24.5-1.1,48.8-1.3,73.3c0,7.7,0.2,13.9,6.6,18.8c9.2,7.2,21.3,12.2,31.3,17.7C306,723.9,312.6,712.8,305.3,708.7z" style="fill:var(--illu-bg--light);"/>
	<path d="M295.9,212.4c-4.1-9-13-7-20.5-3.4c-3,1.5-6,2.1-8.3,4.3c-2.6-2.3-4.7-3.4-7.2-5.8c-4.3-4.1-10.7-1.9-12.6,3.4
		c-2.8,7.5-2.1,16.4,3,22.8c4.7,6,12.4,6.8,18.3,1.9c1.5-1.3,2.8-2.8,4.1-4.5c1.9,2.1,3.6,4.5,6.6,6c4.1,1.9,9,1.7,12.8-0.9
		C299.8,231.2,299.8,220.3,295.9,212.4z" style="fill:var(--illu-yellow--main);"/>
</g>
<g>
	<path d="M766.7,505.5c-41.6-46.3-77.8-97-107.7-151.6c-15.6-28.4-30.3-56.5-49.3-82.7c-19.4-27.3-39-54.4-58.4-81.7
		c-2.6-3.4-6.8-3.4-9.6-1.5c-2.6,0.6-5.1,2.6-5.5,6c-7.5,64.6,24.1,129.8,44.1,191.5c9.8,30.1,21.7,59.5,35,88.3
		c6.6,14.5,13.6,28.8,20.7,42.9c5.5,11.1,10.4,24.7,21.7,30.9c0.6,0.2,1.1,0.4,1.7,0.6c0.6,0.4,1.3,0.6,2.1,0.6
		c12.8,1.9,41.1-4.3,52.7-6.6c19.6-4.1,38-13,52-27.5C769,511.9,769,508.1,766.7,505.5z" style="fill:var(--illu-white--light);"/>
	<path d="M540.9,263.8c-3.4-7.9-9.8-13.9-16.6-18.8c6.4-3.8,11.7-10.4,13.4-19.6c3.2-16.8-3.4-59.1-29.8-48.6
		c-4.5,1.7-7.9,4.7-10.7,8.3c-13,7.7-11.5,38.2-5.3,49.9c0.2,0.4,0.6,0.9,0.9,1.5c0.6,1.9,1.3,3.8,2.1,5.5c1.1,2.6,3,3.4,5.1,3.2
		c-0.2,1.1-0.6,2.1-0.9,3.2c-0.4,1.3-0.2,2.6,0.2,3.8c-26.4,14.5-34.8,49.9-48,75c-17.7,34.1-40.1,66.3-70.8,90
		c-2.1,1.7-3,4.3-2.6,6.4c-1.3,2.1-2.3,4.7-2.6,7.7c-0.2,3.4,3.2,6.4,6.4,6.4c26.2-0.6,48.8-16.8,69.3-31.3
		c9.2-6.6,18.3-13.4,26.9-20.7c-0.2,7.2-0.4,14.5,0.2,21.7c0.4,4.7,1.1,9.4,5.3,11.9c6.2,3.8,16.4,0.4,23-0.4
		c6.6-0.9,14.1-0.9,19.8-4.5c12.2-7.9,9.6-24.9,9.2-37.3l-2.6-61c2.8-6.2,5.3-12.6,7.2-19.2C543.5,285.7,545.4,274.2,540.9,263.8z" style="fill:var(--illu-brown--main);"/>
	<path d="M630.5,641.6c-1.7-20.5-5.3-40.7-9.8-60.6c-9.6-41.8-24.3-82.3-39.7-122.4c-8.5-22.6-17.5-45.2-25.6-67.8
		c-4.1-11.3-8.1-22.6-11.9-34.1c-3.8-11.3-10.4-25.2-6.4-37.1c2.8-8.3,9-15.4,7.5-24.5c-1.1-6.8-5.8-11.9-12.4-14.1
		c-9-3.2-19.2-1.3-28.4-0.6c-13.4,1.1-27.1,1.9-40.5,3c-3.6,0.2-6.2,2.8-6.4,6.4c-0.9,8.7-1.5,17.7-2.3,26.4
		c-0.2,2.6,0.9,4.3,2.3,5.1c0.6,3,3.2,5.8,6.8,5.8c-1.5,5.5-3,11.1-4.7,16.8c-2.1,7.5,7.5,10.4,11.7,4.9c7-9.6,14.5-23.5,27.1-26
		c7.5-1.5,14.5-0.4,21.7-1.1c-12.4,34.8-45.4,58.4-67.6,86.6c-23.5,29.6-42,62.7-56.3,97.9C381,542.6,371.2,581,365.2,620
		c-2.8,19-4.9,38-6,57.1c-0.4,8.1-2.6,14.9,4.1,20.7c7.5,6.4,16.4,11.5,25.2,16c37.3,18.8,80,22.4,121.1,18.5
		c21.5-1.9,45.4-3.8,65.9-11.3c17.9-6.4,29.8-21.3,44.8-32.4c6.8-5.1,11.5-5.5,11.5-14.7C632,662.9,631.3,652.2,630.5,641.6z" style="fill:var(--illu-white--light);"/>
	<path d="M607.2,322c-6.4-9.8-16.8-17.7-20.5-29c-3.6-11.1,0-23.2-1.5-34.8c-1.1-9-5.1-16.4-12.2-22.2
		c-9.6-7.9-19.2-10.9-20.7-24.7c-1.1-10-0.9-19.4-7-27.9c-4.9-6.6-12.2-11.3-20-13.2c-20.7-5.1-40.7,9.4-46.1,29.2
		c-2.1,8.1-2.6,18.8,6.4,22.6c3,1.3,6.2,1.3,9.2,0.6c-2.1,3.8-0.4,9.8,5.3,9.8c2.8,0,4.7-1.5,5.5-3.6l0,0c2.8,3.8,6.4,6.2,10.2,9
		c7.2,5.5,8.3,10.2,6.6,19c-1.5,7.9-3.6,16-0.6,23.7c3.8,9.8,13.6,12.2,16.4,22.6c2.6,9.6,1.5,20,3.8,29.6c2.3,9.8,9,19.6,16.2,26.7
		c11.1,10.9,28.8,13.9,42.6,6C617.2,355.9,616.4,336.3,607.2,322z" style="fill:var(--illu-bg--light);"/>
	<path d="M506.8,238.4c-1.9-3-5.5-3.8-8.7-2.3c-0.9,0.4-1.7,0.9-2.3,1.3c-3,1.5-4.1,6-2.3,8.7c1.9,3,5.5,3.8,8.7,2.3
		l2.3-1.3C507.4,245.6,508.5,241.2,506.8,238.4z" style="fill:var(--illu-bg--light);"/>
	<path d="M542.8,181c-3.8-0.9-7.9,0.4-10.7,3H532c-1.5,0.4-2.6,1.1-3.6,1.9c-1.3-0.9-2.8-1.5-4.3-1.9
		c-0.9-0.4-1.9-0.9-3-1.3c-3-0.9-6.2,0.4-8.1,2.8c-0.4,0.4-0.6,1.1-0.9,1.5c-1.9-2.6-4.5-4.3-8.1-4.7c-5.1-0.6-10.4,2.8-12.4,7.5
		c-3-0.9-6.4-0.4-9.4,1.1c-4.7,2.1-8.1,7-7.9,12.2c0.2,5.1,3.8,9.4,8.5,10.9c3,1.1,6.2,0.9,9.2-0.4c3-1.1,5.8-3.4,7-6.4
		c3,1.1,6.4,1.1,9.4-0.6c1.3-0.6,2.6-1.7,3.4-2.6c3,3.2,8.1,4.1,12.4,1.9c3-1.3,4.9-3.4,6.2-6.2c0,0,0.2,0,0.2,0.2v0.2
		c1.3,3.2,6.2,4.5,9.2,2.8l0.2-0.2c2.1-0.2,4.1-0.9,6-2.3C553.5,195.1,551.8,183,542.8,181z" style="fill:var(--illu-red--light);"/>
	<path d="M520.7,312.4c-19.2,0.6-38,3.4-56.5,8.5c-7.9,2.1-4.5,14.5,3.4,12.4c17.5-4.9,35-7.7,53.1-8.1
		C529,325,529,312.2,520.7,312.4z" style="fill:var(--illu-bg--light);"/>
	<path d="M432.4,505.8c-28.4,65-44.8,134.1-48.4,204.9c-0.4,8.3,12.4,8.1,12.8,0c3.6-68.4,19.4-135.8,46.7-198.5
		C446.7,504.7,435.6,498.1,432.4,505.8z" style="fill:var(--illu-bg--light);"/>
	<path d="M500,520.3c-0.9-8.1-13.6-8.1-12.8,0c7,68.9,10.9,138.2,11.5,207.4c0,8.3,12.8,8.3,12.8,0
		C510.9,658.4,507,589.1,500,520.3z" style="fill:var(--illu-bg--light);"/>
	<path d="M610.2,691c-11.5-64-29.2-126.6-52.4-187.4c-3-7.7-15.4-4.3-12.4,3.4c23.2,60.8,40.9,123.4,52.4,187.4
		C599.3,702.5,611.7,699.1,610.2,691z" style="fill:var(--illu-bg--light);"/>
	<path d="M738.1,531.8c-49.7-43.5-64-111.9-101.3-164.4c-4.7-6.6-15.8-0.2-11.1,6.4c38.2,53.3,52.7,122.6,103.4,166.9
		C735.1,546.3,744.3,537.1,738.1,531.8z" style="fill:var(--illu-bg--light);"/>
	<path d="M690.2,541.6c-25.8-43.3-47.5-88.7-65-136c-2.8-7.7-15.1-4.3-12.4,3.4c17.9,48.4,40.1,94.9,66.3,139.2
		C683.3,555,694.4,548.6,690.2,541.6z" style="fill:var(--illu-bg--light);"/>
	<path d="M453.7,342.7c-22.2,24.7-46.5,47.5-72.5,68.2c-6.4,5.1,2.6,14.1,9,9c26-20.7,50.3-43.5,72.5-68.2
		C468.2,345.6,459.3,336.5,453.7,342.7z" style="fill:var(--illu-bg--light);"/>
</g>
</svg>
