<?xml version="1.0" encoding="utf-8"?>
<!-- Generator: Adobe Illustrator 23.0.2, SVG Export Plug-In . SVG Version: 6.00 Build 0)  -->
<svg version="1.1" id="Capa_1" xmlns="http://www.w3.org/2000/svg" xmlns:xlink="http://www.w3.org/1999/xlink" x="0px" y="0px" viewBox="0 0 800 875.7" style="enable-background:new 0 0 800 875.7;" xml:space="preserve">

<g>
	<g>
		<g>
			<path d="M620.2,756.7c-19-4.2-38.2-7.6-57.4-10.5c-13.2-3.7-26.6-6.3-40.3-7.6c-1.3-0.8-2.6-1.3-4.5-1.3
				c-2.6,0-5.3,0.3-7.9,0.3c-7.4-0.3-14.7-0.5-22.1,0c-1.6,0-2.9,0.5-3.9,1.3c-61.6,2.9-123.7,7.9-183,26.3
				c-15.3,4.7-30.3,10.5-44.8,17.1c-13.2,5.8-29.2,12.4-35.3,26.6c-12.1,27.9,21.6,46.6,42.9,54c34.5,12.1,71.9,13.4,108.2,12.9
				c41.3-0.5,82.4-2.4,123.7-4.7c37.6-2.1,76.6-3.2,113.7-11.1c24.5-5,63.2-14.5,69.8-42.9C687.1,781.1,648.1,762.7,620.2,756.7z" style="fill:#B6C8E8;"/>
			<path d="M605.4,452.9c-14.5-71.3-34.2-141.4-59.2-209.6c-19.5-52.9-45.3-120.3-110.8-125.6c-0.8,0-1.6,0-2.4,0.3
				c-0.3-0.5-0.3-1.1-0.5-1.6c-0.3-0.8-0.8-1.6-1.3-2.4c16.1-16.3,13.4-48.4,8.2-68.2c-3.7-13.4-10.3-31.9-23.2-39
				C409.3,3.2,403,4,396.9,6.6c-1.3-0.5-2.9-0.5-4.7,0C364.6,15.3,355.1,48,360.3,74c3.9,19.7,21.6,45.5,43.4,49c0,0.3,0,0.8,0,1.1
				v0.3c-0.8,0.3-1.3,0.8-2.1,1.3c-29.2,25.3-42.9,63.7-58.2,98.2c-13.7,31.3-26.9,62.9-39.5,94.8c-11.6-40.8-24.2-81.1-38.4-121.1
				c-4.7-13.4-12.1-34-30.5-29.2c-17.9,4.5-12.1,26.9-10.3,39.8c6.6,47.7,17.4,95.6,34,140.8c5.3,14.2,12.6,29.7,25.8,38.2
				c14.5,9.5,32.1,7.1,46.1-2.4c18.2-12.6,30-33.4,39.2-52.9c3.2-6.3,5.8-12.9,8.4-19.5c3.7,86.1,7.4,172.2,10.8,258.3
				c2.1,49.5,4.2,99.2,6.3,148.7c0.8,20.3,8.4,54-9.2,69c-10.5,9-32.1,1.3-35.3,19.2c-0.8,3.9,1.1,8.7,5.5,9.7
				c16.6,3.4,33.2,4.2,49.8,1.3c13.2-2.1,31.9-5.5,39-18.4c6.8-12.6,6.1-32.6,7.6-46.9c2.4-20.5,4.5-41.1,6.1-61.3
				c3.9-50.5,6.1-101.4,7.4-152.2c6.8,44.5,13.4,88.7,20.3,133.2c2.6,17.9,5.5,36.1,8.2,54c1.3,9.5,2.9,19,4.2,28.2s5,21.1,3.2,30.3
				c-4.5,20.8-32.6,29.5-25.5,54c1.3,4.2,5.5,6.6,9.7,5.5c21.1-5.3,41.1-13.7,59.2-25.8c14.2-9.5,24.2-18.4,24.7-36.3
				c0.5-23.7-1.6-47.9-2.6-71.6c-1.1-25.3-2.1-50.3-3.4-75.6c-3.7-75.8-8.2-151.6-13.4-227.2c3.4,10,7.1,19.7,11.3,29.5
				c6.6,15.3,21.1,34.2,39.5,24C604.9,460,606,456.3,605.4,452.9z" style="fill:#F7D3BD;"/>
			<path d="M454.3,46.9c-6.3-13.7-15-30.5-27.1-40c-22.1-17.1-54,0.5-67.9,21.6c-1.3,0.5-2.6,1.8-3.4,3.7
				c-4.7,11.1-16.1,41.6,1.8,47.1c8.7,2.6,17.6-2.1,25.3-5.5c8.4-3.7,16.8-7.1,25.3-10.8c14.5,19,40,45.3,53.7,26.3
				C470.1,78,459.3,57.7,454.3,46.9z" style="fill:#57455E;"/>
			<path d="M409.3,102.2c-1.3-4.5-5.5-6.1-9.7-5.5c-6.3,1.1-12.1,2.9-17.6,5.8c-3.7,1.8-5,7.4-2.9,10.8
				c2.4,3.9,7.1,4.7,10.8,2.9c4.5-2.1,9.2-3.4,14-4.2C408,111.4,410.4,106.1,409.3,102.2z" style="fill:#57455E;"/>
			<path d="M575.4,706.6c-8.2-42.6-9.7-86.3-11.1-129.8c-1.1-42.4-1.6-85-7.1-127.2c-2.6-19.5-6.1-39-11.3-58.2
				c-3.7-14-6.1-32.6-23.2-34.5c-23.7-2.6-49.2,0-73.2,0.3c-22.6,0-45.3,0.3-66.6,8.4c-5.3,2.1-6.3,7.6-4.5,11.6
				c-2.6,78.5-1.3,156.9,3.9,235.1c2.6,39.5,6.6,78.7,11.3,117.9c1.3,10.5-0.5,31.1,9.5,38.2c5.3,3.7,13.4,2.9,19.5,3.2
				c9.5,0.3,19.2,0.8,28.7,1.1c3.2,0,7.1-2.6,7.6-5.8c6.6-42.6,11.3-85.6,14.2-128.5c6.6,41.6,15.8,82.9,30,122.9
				c1.3,3.7,5.5,7.1,9.7,5.5c10.5-3.9,20.8-7.9,31.3-11.8c7.9-2.9,17.1-5,24.2-9.7C582.5,736.7,578.1,720.1,575.4,706.6z" style="fill:#F7D16F;"/>
			<path d="M449.6,778c-8.4-1.8-16.8-3.2-25.3-3.9c-4.7-0.3-9.5-0.5-14.2-0.5c-0.8,0-4.2-0.3-6.3-0.3
				c-1.6-1.3-3.9-2.1-6.8-1.3c-0.3,0-0.8,0.3-1.1,0.3c-2.1,0.5-3.7,1.8-4.7,3.7c-15,5.3-35,12.6-45.3,24
				c-11.6,12.6,3.9,21.9,15.5,23.2c21.1,2.1,42.6,0.3,62.9-4.7c7.4-1.8,17.1-3.4,23.2-8.7c6.8-5.8,3.7-12.9,6.8-20.3
				C456.2,785.4,455.1,779.3,449.6,778z" style="fill:#F087B1;"/>
			<path d="M577,771.9c-4.5-9.2-11.8-8.2-20.5-5.8c-16.8,4.2-33.7,8.7-50.5,12.9c-3.9,1.1-5.8,4.2-5.5,7.4
				c-8.7,11.3-18.7,22.4-25.5,34.8c-3.7,6.8-5.8,16.3,0.5,22.4c17.1,15.8,55.5-9.7,70.3-18.7C564.6,812.7,589.4,798,577,771.9z" style="fill:#F087B1;"/>
			<path d="M758.1,135.6c-19-26.3-47.7-30.3-77.9-30.8c-3.2,0-6.8,2.4-7.6,5.8c-2.6,12.6-11.6,33.7-4.2,45.8
				c6.8,11.1,23.4,11.8,32.9,20c7.4,6.3,11.8,15.3,5.8,24.2c-5.8,8.7-17.1,11.6-26.6,13.7c-20,4.5-40.5,7.6-60.8,10
				c-1.3,0.3-2.6,0.5-3.7,1.3c-2.6,1.1-4.5,3.4-4.5,6.8c0.3,17.9,0.3,35.8,0.5,53.7c0,4.5,3.7,7.6,7.9,7.9
				c56.6,3.2,125.3-24.5,151.1-78.5C783.9,188.5,775,158.8,758.1,135.6z" style="fill:#B6C8E8;"/>
			<path d="M249,434.4c-0.3-6.1-1.3-11.6-6.6-15.3c-5.3-3.7-11.8-3.2-17.6-2.6c-8.4,0.5-16.6,1.3-25,2.1
				c-4.5,0.3-7.4,3.4-7.9,7.9c-1.1,10.5-0.5,21.1,1.6,31.3c0,2.4,0,4.5,0,6.8c0.3,3.2,2.4,7.1,5.8,7.6c14.7,2.1,29.2,1.1,43.4-3.9
				c3.4-1.1,5.8-3.9,5.8-7.6C248.7,451.8,249.3,443.1,249,434.4z" style="fill:#B6C8E8;"/>
			<path d="M614.7,68.2c-1.3-12.6-2.9-25-5-37.6c-0.3-2.4-3.2-5.3-5.5-5.5c-31.3-4.5-62.7-3.9-93.7,2.4
				c-10.8,2.1-21.3,3.4-22.1,16.1c-0.5,11.3,2.6,24.2,5.8,36.3c0.3,3.7,0.5,7.1,0.8,10.8c0.8,8.4,0.3,19,7.6,25
				c7.1,5.5,17.4,4.2,25.8,4.2c13.2,0,26.6-0.3,39.8-0.3c15,0,45.3,6.6,48.7-14.7C618.6,93.2,615.7,79.8,614.7,68.2z" style="fill:#56597A;"/>
			<path d="M766.3,345.2c-1.8-9.2-2.4-22.6-7.4-30.8c-8.7-14.2-32.4-2.6-43.2,3.2c-1.1,0.5-2.1,1.3-2.6,2.4
				c-3.2,1.3-5.5,4.7-4.7,9c2.6,12.1,4.7,24.2,7.6,36.1c1.8,7.1,4.2,14.7,10.5,19c8.2,5.5,15.8,1.8,24.2,0
				c7.6-1.6,15.5-1.6,18.4-10.5C772.1,365.2,767.9,353.3,766.3,345.2z" style="fill:#56597A;"/>
			<path d="M150,366.2c-31.1-3.7-62.4-6.3-93.7-8.4c-2.9-0.3-5,1.1-6.3,2.9c-3.7,0.3-7.1,2.6-6.8,7.6
				c1.1,17.6-3.4,48.4,17.4,56.6c11.3,4.5,25.5,4.5,37.6,5.8c15.8,1.8,31.9,2.9,47.9,3.4c3.2,0,7.1-2.6,7.6-5.8
				c2.4-17.9,3.9-36.1,4.2-54.2C157.9,369.4,154.2,366.8,150,366.2z" style="fill:#56597A;"/>
			<path d="M315.1,110.1c-0.8-15.3-1.8-30.8-2.9-46.1c-0.8-12.9,0.5-28.4-3.9-40.5c-2.1-5.8-6.1-9-11.1-10.5
				c-1.1-0.5-2.1-0.8-3.4-0.8h-0.3c-1.6-0.3-3.2-0.3-5,0c-0.3,0-0.5,0-0.8,0c-46.3,0-92.4,0.3-138.7,0.3c-4.2,0-7.1,3.2-7.9,7.1
				c-2.4,1.1-4.2,3.4-3.9,6.8c5,60.3,10.3,120.8,16.1,181.1c0.5,4.2,3.4,7.9,7.9,7.9c50.3-0.5,100.6-2.1,150.6-5
				c4.2-0.3,8.2-3.4,7.9-7.9C318.5,171.7,316.9,140.9,315.1,110.1z" style="fill:#B6C8E8;"/>
			<path d="M743.7,118.8c-2.1-10-17.4-5.8-15.3,4.2c7.6,34.5-10.8,60.8-37.4,80.6c-8.2,6.1-0.3,19.7,7.9,13.7
				C731.8,193,752.9,160.9,743.7,118.8z" style="fill:#57455E;"/>
			<path d="M533.8,294.6c-2.1-10.8-8.2-24.2-7.9-35c0-11.6,9.2-10,15.8-16.8c11.3-11.6,4.5-27.1-2.1-39.2
				c-10-19-21.6-37.6-35-54.8c-7.4-9.7-15.5-17.6-26.3-21.6c-1.6-1.1-3.2-1.8-5-2.9c-4.7-2.4-10.8-5.3-16.3-3.9
				c-6.1,1.3-8.2,6.6-12.1,10.8c-13.2,13.4-34.5,14.2-49.5,3.9c-1.1-0.8-1.8-1.1-2.9-1.3c-2.6-2.1-6.3-2.1-9.2,1.3
				c-14.5,18.7-27.4,38.7-38.2,60c-3.2,6.6-10,16.1-7.6,24c2.1,7.9,12.4,12.9,18.4,17.4c3.7,2.9,9,5.8,11.8,9.5
				c5,6.3,3.2,13.7,2.9,21.1c-0.5,13.4-0.5,26.9-0.3,40.3c0.5,26.9,2.9,53.7,6.3,80.3c0.5,3.9,3.2,8.2,7.9,7.9
				c24.2-1.8,48.4-3.2,72.9-3.7c12.1-0.3,24.2-0.3,36.6-0.3c11.8,0.3,24.7,2.1,36.6,1.1c17.6-1.6,14.5-16.1,12.9-30
				C541.5,339.9,538.3,317,533.8,294.6z" style="fill:#74A3D7;"/>
			<path d="M664.9,361c-0.8-14.2-3.4-28.4-7.6-42.1c-1.3-3.9-5.5-6.8-9.7-5.5c-52.4,15-104.5,30-156.9,45
				c-1.8,0.5-3.2,1.3-3.9,2.6c-2.1,1.3-3.9,3.4-3.9,6.6c-0.5,14.7-1.1,53.4,17.6,58.2c11.1,2.9,26.3-3.9,36.9-6.6
				c14.7-3.4,29.5-7.1,44.2-10.8c14-3.4,27.9-7.1,41.6-10.8c10.3-2.6,27.6-4.2,36.3-11.1C666.8,380.2,665.5,369.4,664.9,361z" style="fill:#F087B1;"/>
			<path d="M445.6,31.9c-9.2,9.2-19,17.9-29,26.3c-7.9,6.6,3.4,17.6,11.1,11.1c10-8.4,19.7-17.1,29-26.3
				C464.1,35.8,452.8,24.5,445.6,31.9z" style="fill:#F087B1;"/>
			<path d="M424.1,52.2c-11.6-7.6-29.7-1.1-41.3,2.6c-10.8,3.4-30.5,7.6-35.5,19.2c-0.5,1.3-0.8,2.4-1.1,3.7
				c-2.9,5.5-2.9,12.4,1.8,17.9c9.2,10.5,26.6,3.9,37.6,0.8c12.4-3.4,31.1-7.9,40.5-17.6C434.1,70.9,433.5,58.5,424.1,52.2z" style="fill:#56597A;"/>
			<path d="M710,59.5c-17.1-3.2-34.5-4.5-51.9-3.7c-10,0.3-10.3,16.1,0,15.8c16.1-0.5,31.9,0.5,47.7,3.2
				C715.5,76.4,720,61.1,710,59.5z" style="fill:#F7D16F;"/>
			<path d="M91,84.3c-15.3,0.8-29.7,3.9-44,9.7c-9.2,3.7-5.3,19,4.2,15.3c12.9-5,26.1-8.2,39.8-9
				C101,99.6,101,83.8,91,84.3z" style="fill:#F7D16F;"/>
			<path d="M784.2,242.5c0,10.3-2.1,20-6.3,29.2c-4.2,9.2,9.2,17.1,13.7,7.9c5.5-11.8,8.4-24.2,8.4-37.1
				C800.3,232.2,784.5,232.2,784.2,242.5z" style="fill:#F7D16F;"/>
			<path d="M287.4,500.5c-13.2,0.3-26.3,0.5-39.5,1.1c-10.3,0.3-10.3,16.1,0,15.8c13.2-0.3,26.3-0.5,39.5-1.1
				C297.7,516,297.7,500.2,287.4,500.5z" style="fill:#F087B1;"/>
			<path d="M628.6,162.7c-8.4-4.7-17.4-7.4-26.9-8.4c-4.2-0.5-7.9,3.9-7.9,7.9c0,4.7,3.7,7.4,7.9,7.9
				c6.6,0.8,13.2,2.9,19,6.3C629.7,181.4,637.6,167.7,628.6,162.7z" style="fill:#F087B1;"/>
			<path d="M298.2,124.8c0.3-5.3-5.3-8.7-10-7.6c-17.1,3.9-32.6,11.8-45.3,23.4c-0.3-12.6-0.3-25.3-0.5-37.6
				c8.4,0.5,18.4-4.7,24.5-9.2c10.8-7.9,17.1-19,18.4-32.1c0.5-5.5-5.5-8.4-10-7.6c-12.6,1.8-24.5,7.9-33.7,16.3c0-5-0.3-10-0.3-15
				c-0.3-10.3-16.1-10.3-15.8,0c0.3,7.4,0.3,14.5,0.5,21.9c-11.3-10.5-25-18.4-40.3-22.6c-6.8-1.8-11.8,5.5-9,11.6
				c9.7,19.5,28.4,33.4,49.8,36.9c0.3,15.3,0.5,30.3,0.8,45.5c-10.8-13.7-25.8-23.7-42.9-30.3c-5.5-2.1-11.6,4.2-9.7,9.7
				c7.6,22.9,26.9,45.8,51.3,50.3c0.5,0.5,1.1,1.1,1.6,1.6c0,7.9,0.3,16.1,0.3,24c0,10.3,15.8,10.3,15.8,0s-0.3-20.5-0.3-30.5
				C268.7,170.1,296.6,152.2,298.2,124.8z" style="fill:#74A3D7;"/>
			<g>
				<path d="M550.7,368.6c0.3-0.5,0.5-0.8,0.8-1.3c5.8-8.4-7.9-16.3-13.7-7.9c-0.8,1.1-1.6,2.4-2.4,3.4
					c-2.4-9.2-16.3-5.5-15.3,3.7c-1.3-0.5-2.6-1.1-3.9-1.6c-8.4-2.9-12.6,8.4-7.1,13.4c-0.8,0-1.3,0.3-2.1,0.3
					c-10,1.8-5.8,17.1,4.2,15.3c0.3,0,0.5,0,1.1-0.3c-0.3,0.3-0.3,0.5-0.5,0.8c-6.8,7.6,4.2,18.7,11.1,11.1c1.6-1.8,3.2-3.7,4.7-5.3
					c0.3,0.5,0.3,0.8,0.5,1.3c0.5,1.3,1.3,2.6,2.4,3.4c1.8,1.6,4.7,2.6,7.4,1.6h0.3c3.7-1.3,6.1-4.2,5.8-8.2c0,0,0.3,0,0.3,0.3
					c9,4.7,17.1-9,7.9-13.7c0,0-0.3,0-0.3-0.3c2.4-0.8,4.7-1.6,6.8-2.6C567.5,378.4,559.6,364.9,550.7,368.6z" style="fill:#FFFFFF;"/>
				<path d="M537,376.8c-3.2-2.9-8.2-3.2-11.1,0l-0.3,0.3c-2.9,2.9-3.2,8.2,0,11.1c3.2,2.9,8.2,3.2,11.1,0l0.3-0.3
					C539.9,384.9,540.2,379.7,537,376.8z" style="fill:#F7D16F;"/>
			</g>
			<g>
				<path d="M627.8,347.3c0.3-0.5,0.5-0.8,0.8-1.3c5.8-8.4-7.9-16.3-13.7-7.9c-0.8,1.1-1.6,2.4-2.4,3.4
					c-2.4-9.2-16.3-5.5-15.3,3.7c-1.3-0.5-2.6-1.1-3.9-1.6c-8.4-2.9-12.6,8.4-7.1,13.4c-0.8,0-1.3,0.3-2.1,0.3
					c-10,1.8-5.8,17.1,4.2,15.3c0.3,0,0.5,0,1.1-0.3c-0.3,0.3-0.3,0.5-0.5,0.8c-6.8,7.6,4.2,18.7,11.1,11.1c1.6-1.8,3.2-3.7,4.7-5.3
					c0.3,0.5,0.3,0.8,0.5,1.3c0.5,1.3,1.3,2.6,2.4,3.4c1.8,1.6,4.7,2.6,7.4,1.6h0.3c3.7-1.3,6.1-4.2,5.8-8.2c0,0,0.3,0,0.3,0.3
					c9,4.7,17.1-9,7.9-13.7c0,0-0.3,0-0.3-0.3c2.4-0.8,4.7-1.6,6.8-2.6C644.9,356.8,637,343.3,627.8,347.3z" style="fill:#FFFFFF;"/>
				<path d="M614.1,355.2c-3.2-2.9-8.2-3.2-11.1,0l-0.3,0.3c-2.9,2.9-3.2,8.2,0,11.1c3.2,2.9,8.2,3.2,11.1,0l0.3-0.3
					C617,363.6,617.3,358.1,614.1,355.2z" style="fill:#F7D16F;"/>
			</g>
			<g>
				<path d="M581.8,88.8c-5.5-24.5-27.4-47.9-54.5-44.5c-7.6,1.1-11.6,6.1-10.5,11.8c-1.1,2.1-1.3,4.5,0.5,7.1
					c12.9,18.7,32.1,31.6,55,35C578.1,99.3,583.3,95.1,581.8,88.8z" style="fill:#74A3D7;"/>
				<path d="M582,87.2c-17.4-17.6-36.3-33.2-56.9-47.1c-8.4-5.8-16.3,7.9-7.9,13.7c19.2,13.2,37.1,28.2,53.7,44.8
					C578.1,105.6,589.1,94.6,582,87.2z" style="fill:#57455E;"/>
			</g>
			<path d="M368.2,180.9c-6.3,24.7-9.7,50-10.5,75.6c-0.3,10.3,15.5,10.3,15.8,0c0.8-24.2,3.9-47.9,10-71.3
				C385.9,175.1,370.6,170.9,368.2,180.9z" style="fill:#57455E;"/>
			<path d="M535.9,258.8c-8.4-31.9-18.7-63.2-30.5-94c-3.7-9.5-19-5.3-15.3,4.2c11.8,30.8,21.9,62.1,30.5,94
				C523.3,272.8,538.6,268.8,535.9,258.8z" style="fill:#57455E;"/>
			<path d="M477.5,658.5c-8.2-69-16.3-137.9-24.7-206.9c-1.3-10-17.1-10-15.8,0c8.2,69,16.3,137.9,24.7,206.9
				C462.8,668.5,478.8,668.7,477.5,658.5z" style="fill:#57455E;"/>
			<path d="M513.6,786.1c-1.8-0.8-3.4-1.8-5.3-2.6c-3.7-1.8-8.7-1.1-10.8,2.9c-1.8,3.7-1.1,8.7,2.9,10.8
				c1.8,0.8,3.4,1.8,5.3,2.6c3.7,1.8,8.7,1.1,10.8-2.9C518.3,793.3,517.5,788.3,513.6,786.1z" style="fill:#57455E;"/>
			<path d="M503.6,809.6c-3.2-2.6-6.3-5.3-9.2-7.9c-3.2-2.6-8.2-3.4-11.1,0c-2.6,2.9-3.4,8.4,0,11.1
				c3.2,2.6,6.3,5.3,9.2,7.9c3.2,2.6,8.2,3.4,11.1,0C506.2,817.7,506.7,812.5,503.6,809.6z" style="fill:#57455E;"/>
			<path d="M405.6,779.6c-3.4-4.2-6.6-8.2-10-12.4c-2.6-3.2-8.4-2.9-11.1,0c-3.2,3.4-2.9,7.6,0,11.1
				c3.4,4.2,6.6,8.2,10,12.4c2.6,3.2,8.4,2.9,11.1,0C408.8,787.2,408.5,783,405.6,779.6z" style="fill:#57455E;"/>
			<path d="M386.1,788.5c-0.8-0.8-1.6-1.3-2.1-2.1c-0.3-0.3-0.5-0.5-0.8-0.8c0,0-0.5-0.5-0.5-0.8
				c-0.5-0.8-1.1-1.6-1.6-2.6c-0.3-0.5-0.5-0.8-0.8-1.3c0-0.3-0.8-1.8-0.3-0.5c-1.6-3.7-5.3-6.8-9.7-5.5c-3.7,1.1-7.1,5.5-5.5,9.7
				c2.4,5.8,5.5,10.8,10.3,15.3c2.9,2.9,8.2,3.2,11.1,0C389,796.7,389.6,791.4,386.1,788.5z" style="fill:#57455E;"/>
		</g>
		<g>
			<path d="M99.2,192.8c-0.3-3.4-2.4-6.6-5.8-7.6c-7.4-1.8-14.5-3.7-21.9-5.5c-0.3-9.5-0.5-18.7-0.8-28.2
				c0-4.7-3.7-7.4-7.9-7.9c-18.7-2.4-41.6,7.1-50.8,24.2c-7.4,11.6-9.5,25.3-10,39.5c-0.8,25,0.3,50.3,1.3,75.3
				c0.8,17.6-3.7,40,17.6,45c23.4,5.5,47.7,7.1,71.6,6.6c4.5,0,7.6-3.7,7.9-7.9C103.1,281.5,102.9,237,99.2,192.8z" style="fill:#F087B1;"/>
			<path d="M72.3,169.6c-15-1.8-29.7-5-44.2-9.5c-9.7-2.9-14,12.4-4.2,15.3c15.8,4.7,31.9,7.9,48.2,10
				C82.3,186.7,82.3,170.9,72.3,169.6z" style="fill:#57455E;"/>
		</g>
	</g>
	<path d="M204,282.8c-0.5-9.5-1.3-18.7-1.8-28.2c-0.3-5.5-4.7-8.4-10-7.6c-11.8,2.1-23.7,2.9-35.8,3.2
		c-2.6,0-4.7,1.3-6.3,3.2c-1.8,1.3-3.4,3.2-3.4,6.1c-0.8,13.4-1.8,29.5,2.1,42.4c3.9,13.2,16.3,11.1,27.6,10
		c9.2-0.8,24.5,0.5,27.9-10.8C205.8,295.4,204.2,288.6,204,282.8z M177.9,273.8c0.3-1.6,0.5-1.1,1.1,1.8c0,0.5,0,1.1,0,1.6
		C178.7,275.9,178.4,274.9,177.9,273.8z" style="fill:#74A3D7;"/>
</g>
</svg>
