<svg width="223" height="54" viewBox="0 0 223 54" fill="none" xmlns="http://www.w3.org/2000/svg">
<rect x="3" y="3" width="217" height="48" rx="4" fill="var(--background)"/>
<path d="M51.9186 29.3477C52.028 31.1113 53.4977 32.2393 55.6852 32.2393C58.0231 32.2393 59.486 31.0566 59.486 29.1699C59.486 27.6865 58.652 26.8662 56.6286 26.3945L55.5416 26.1279C54.2565 25.8271 53.737 25.4238 53.737 24.7197C53.737 23.8311 54.5436 23.25 55.7536 23.25C56.902 23.25 57.695 23.8174 57.8385 24.7266H59.3288C59.2399 23.0654 57.777 21.8965 55.7741 21.8965C53.6207 21.8965 52.1852 23.0654 52.1852 24.8223C52.1852 26.2715 52.9987 27.1328 54.7829 27.5498L56.0543 27.8574C57.36 28.165 57.9342 28.6162 57.9342 29.3682C57.9342 30.2432 57.0319 30.8789 55.8014 30.8789C54.4821 30.8789 53.5661 30.2842 53.4362 29.3477H51.9186ZM61.219 32H62.6819V24.5557H61.219V32ZM61.9505 23.2637C62.4632 23.2637 62.8802 22.833 62.8802 22.3066C62.8802 21.7734 62.4632 21.3428 61.9505 21.3428C61.4378 21.3428 61.0208 21.7734 61.0208 22.3066C61.0208 22.833 61.4378 23.2637 61.9505 23.2637ZM67.8193 30.6191C66.5546 30.6191 65.8437 29.6689 65.8437 28.1855C65.8437 26.7021 66.5546 25.752 67.8193 25.752C69.0702 25.752 69.8359 26.7021 69.8359 28.1855C69.8359 29.6758 69.0771 30.6191 67.8193 30.6191ZM67.8398 34.8438C69.9452 34.8438 71.2782 33.7637 71.2782 32.0615V24.5557H69.87V25.7451H69.7538C69.3368 24.9385 68.4413 24.4326 67.4159 24.4326C65.5155 24.4326 64.3261 25.9229 64.3261 28.1924C64.3261 30.4209 65.5019 31.8906 67.4023 31.8906C68.4277 31.8906 69.248 31.4463 69.6991 30.6396H69.8085V32.0684C69.8085 33.0527 69.0839 33.6338 67.8603 33.6338C66.8691 33.6338 66.247 33.2852 66.1239 32.7451H64.62C64.7773 34.0098 65.9804 34.8438 67.8398 34.8438ZM73.2711 32H74.7408V27.6455C74.7408 26.4834 75.4312 25.7588 76.5181 25.7588C77.605 25.7588 78.1246 26.3535 78.1246 27.5498V32H79.5943V27.1807C79.5943 25.4102 78.6783 24.4121 77.0171 24.4121C75.8961 24.4121 75.1578 24.9111 74.7955 25.7383H74.6861V24.5557H73.2711V32ZM85.2411 32H86.7039V24.5557H85.2411V32ZM85.9725 23.2637C86.4852 23.2637 86.9022 22.833 86.9022 22.3066C86.9022 21.7734 86.4852 21.3428 85.9725 21.3428C85.4598 21.3428 85.0428 21.7734 85.0428 22.3066C85.0428 22.833 85.4598 23.2637 85.9725 23.2637ZM88.7241 32H90.1938V27.6455C90.1938 26.4834 90.8843 25.7588 91.9712 25.7588C93.0581 25.7588 93.5776 26.3535 93.5776 27.5498V32H95.0473V27.1807C95.0473 25.4102 94.1313 24.4121 92.4702 24.4121C91.3491 24.4121 90.6108 24.9111 90.2485 25.7383H90.1391V24.5557H88.7241V32ZM110.36 24.5557H108.89L107.564 30.2363H107.448L105.917 24.5557H104.509L102.977 30.2363H102.868L101.535 24.5557H100.045L102.095 32H103.606L105.137 26.5176H105.254L106.792 32H108.316L110.36 24.5557ZM111.765 32H113.228V24.5557H111.765V32ZM112.496 23.2637C113.009 23.2637 113.426 22.833 113.426 22.3066C113.426 21.7734 113.009 21.3428 112.496 21.3428C111.984 21.3428 111.567 21.7734 111.567 22.3066C111.567 22.833 111.984 23.2637 112.496 23.2637ZM115.768 22.7031V24.5898H114.585V25.8271H115.768V30.0312C115.768 31.4668 116.417 32.041 118.051 32.041C118.338 32.041 118.611 32.0068 118.851 31.9658V30.7422C118.646 30.7627 118.516 30.7764 118.29 30.7764C117.559 30.7764 117.237 30.4346 117.237 29.6553V25.8271H118.851V24.5898H117.237V22.7031H115.768ZM120.508 32H121.978V27.6523C121.978 26.5244 122.648 25.7656 123.851 25.7656C124.89 25.7656 125.444 26.3672 125.444 27.5566V32H126.914V27.1943C126.914 25.4238 125.936 24.4189 124.35 24.4189C123.229 24.4189 122.443 24.918 122.081 25.752H121.965V21.6504H120.508V32ZM136.758 32C138.863 32 140.128 30.9404 140.128 29.2041C140.128 27.9189 139.239 26.9688 137.906 26.832V26.7158C138.877 26.5518 139.636 25.6289 139.636 24.5967C139.636 23.0791 138.521 22.1357 136.669 22.1357H132.704V32H136.758ZM134.235 23.4346H136.313C137.448 23.4346 138.111 23.9678 138.111 24.877C138.111 25.8135 137.407 26.3125 136.054 26.3125H134.235V23.4346ZM134.235 30.7012V27.5225H136.361C137.804 27.5225 138.562 28.0625 138.562 29.0947C138.562 30.1406 137.831 30.7012 136.45 30.7012H134.235ZM141.854 32H143.324V21.6504H141.854V32ZM148.536 32.1436C150.71 32.1436 152.043 30.6875 152.043 28.2744C152.043 25.875 150.703 24.4121 148.536 24.4121C146.363 24.4121 145.023 25.875 145.023 28.2744C145.023 30.6875 146.356 32.1436 148.536 32.1436ZM148.536 30.8379C147.258 30.8379 146.54 29.9014 146.54 28.2744C146.54 26.6611 147.258 25.7178 148.536 25.7178C149.808 25.7178 150.532 26.6611 150.532 28.2744C150.532 29.8945 149.808 30.8379 148.536 30.8379ZM159.976 26.9893C159.785 25.499 158.657 24.4121 156.791 24.4121C154.624 24.4121 153.305 25.8682 153.305 28.2539C153.305 30.6807 154.631 32.1436 156.798 32.1436C158.637 32.1436 159.785 31.1045 159.976 29.6074H158.548C158.356 30.4072 157.721 30.8311 156.791 30.8311C155.567 30.8311 154.808 29.8672 154.808 28.2539C154.808 26.668 155.56 25.7246 156.791 25.7246C157.775 25.7246 158.377 26.2646 158.548 26.9893H159.976ZM163.172 27.6592H163.056V21.6504H161.586V32H163.056V29.334L163.706 28.7188L166.262 32H168.067L164.799 27.748L167.862 24.5557H166.126L163.172 27.6592ZM168.822 26.6611C168.822 27.7686 169.479 28.4043 170.894 28.7393L172.193 29.04C172.938 29.2178 173.286 29.5049 173.286 29.9492C173.286 30.5439 172.637 30.9541 171.721 30.9541C170.832 30.9541 170.285 30.5986 170.101 30.0244H168.631C168.761 31.3438 169.916 32.1436 171.687 32.1436C173.464 32.1436 174.77 31.207 174.77 29.8057C174.77 28.7119 174.107 28.1035 172.692 27.7754L171.454 27.4883C170.648 27.3037 170.272 27.0234 170.272 26.5791C170.272 25.998 170.894 25.6084 171.714 25.6084C172.548 25.6084 173.081 25.957 173.218 26.5039H174.626C174.483 25.1914 173.389 24.4121 171.714 24.4121C170.032 24.4121 168.822 25.3418 168.822 26.6611ZM176.865 22.7031V24.5898H175.682V25.8271H176.865V30.0312C176.865 31.4668 177.514 32.041 179.148 32.041C179.435 32.041 179.709 32.0068 179.948 31.9658V30.7422C179.743 30.7627 179.613 30.7764 179.387 30.7764C178.656 30.7764 178.335 30.4346 178.335 29.6553V25.8271H179.948V24.5898H178.335V22.7031H176.865ZM183.971 30.8857C183.171 30.8857 182.59 30.4961 182.59 29.8262C182.59 29.1699 183.055 28.8213 184.081 28.7529L185.899 28.6367V29.2588C185.899 30.1816 185.079 30.8857 183.971 30.8857ZM183.595 32.123C184.573 32.123 185.386 31.6992 185.831 30.9541H185.947V32H187.362V26.9141C187.362 25.3418 186.309 24.4121 184.443 24.4121C182.754 24.4121 181.551 25.2324 181.401 26.5107H182.823C182.987 25.9844 183.554 25.6836 184.374 25.6836C185.379 25.6836 185.899 26.1279 185.899 26.9141V27.5566L183.882 27.6729C182.112 27.7822 181.114 28.5547 181.114 29.8945C181.114 31.2549 182.16 32.123 183.595 32.123ZM195.616 26.9893C195.425 25.499 194.297 24.4121 192.431 24.4121C190.264 24.4121 188.944 25.8682 188.944 28.2539C188.944 30.6807 190.271 32.1436 192.438 32.1436C194.276 32.1436 195.425 31.1045 195.616 29.6074H194.188C193.996 30.4072 193.36 30.8311 192.431 30.8311C191.207 30.8311 190.448 29.8672 190.448 28.2539C190.448 26.668 191.2 25.7246 192.431 25.7246C193.415 25.7246 194.017 26.2646 194.188 26.9893H195.616ZM198.812 27.6592H198.696V21.6504H197.226V32H198.696V29.334L199.345 28.7188L201.902 32H203.707L200.439 27.748L203.502 24.5557H201.765L198.812 27.6592Z" fill="var(--foreground)"/>
<path fill-rule="evenodd" clip-rule="evenodd" d="M19.2467 18.8086C19 19.3787 19 20.1058 19 21.56L19 27L19 32.44C19 33.8942 19 34.6213 19.2467 35.1914C19.5498 35.8917 20.1083 36.4502 20.8086 36.7533C21.3787 37 22.1058 37 23.56 37H29H34.44C35.8942 37 36.6213 37 37.1914 36.7533C37.8917 36.4502 38.4502 35.8917 38.7533 35.1914C39 34.6213 39 33.8942 39 32.44V27V21.56C39 20.1058 39 19.3787 38.7533 18.8086C38.4502 18.1083 37.8917 17.5498 37.1914 17.2467C36.6213 17 35.8942 17 34.44 17L29 17L23.56 17C22.1058 17 21.3787 17 20.8086 17.2467C20.1083 17.5498 19.5498 18.1083 19.2467 18.8086ZM32.1928 25.6161C31.1947 25.6161 30.3854 24.8068 30.3854 23.8085C30.3854 22.8107 31.1947 22.0015 32.1928 22.0015C33.1908 22.0015 34.0001 22.8107 34.0001 23.8085C34.0001 24.8068 33.1908 25.6161 32.1928 25.6161ZM27.6131 23.8083C27.6131 24.806 26.8042 25.6149 25.8064 25.6149C24.809 25.6149 24.0001 24.806 24.0001 23.8083C24.0001 22.8107 24.809 22.0018 25.8064 22.0018C26.8042 22.0018 27.6131 22.8107 27.6131 23.8083ZM32.1929 28.391C31.1946 28.391 30.3854 29.2003 30.3854 30.1983C30.3854 31.1964 31.1946 32.0057 32.1929 32.0057C33.1907 32.0057 34 31.1964 34 30.1983C34 29.2003 33.1907 28.391 32.1929 28.391ZM25.8065 28.3927C26.8041 28.3927 27.6131 29.2016 27.6131 30.1995C27.6131 31.1968 26.8041 32.0057 25.8065 32.0057C24.8089 32.0057 24 31.1968 24 30.1995C24 29.2016 24.8089 28.3927 25.8065 28.3927Z" fill="var(--foreground)"/>
</svg>
